<svg width="412" height="322" viewBox="0 0 412 322" fill="none" xmlns="http://www.w3.org/2000/svg">
<path d="M412.001 284.429H0V284.635H412.001V284.429Z" fill="#EBEBEB"/>
<path d="M195.288 247.679H36.1812C34.9348 247.676 33.7401 247.18 32.8595 246.298C31.979 245.415 31.4844 244.22 31.4844 242.974V19.3147C31.4952 18.0755 31.9946 16.8905 32.874 16.0173C33.7534 15.144 34.9419 14.653 36.1812 14.6509H195.288C196.536 14.6509 197.732 15.1466 198.615 16.029C199.497 16.9113 199.993 18.1081 199.993 19.3559V242.974C199.993 244.221 199.497 245.418 198.615 246.301C197.732 247.183 196.536 247.679 195.288 247.679ZM36.1812 14.8157C34.9894 14.8179 33.8472 15.2928 33.0052 16.1363C32.1632 16.9798 31.6904 18.1229 31.6904 19.3147V242.974C31.6904 244.165 32.1632 245.308 33.0052 246.152C33.8472 246.995 34.9894 247.47 36.1812 247.473H195.288C196.48 247.47 197.623 246.996 198.467 246.152C199.31 245.309 199.785 244.166 199.787 242.974V19.3147C199.785 18.1222 199.31 16.9791 198.467 16.1358C197.623 15.2926 196.48 14.8179 195.288 14.8157H36.1812Z" fill="#EBEBEB"/>
<path d="M373.527 247.679H214.412C213.165 247.676 211.969 247.18 211.088 246.298C210.206 245.416 209.709 244.221 209.707 242.974V19.3147C209.72 18.0747 210.221 16.8898 211.102 16.0167C211.983 15.1437 213.172 14.653 214.412 14.6509H373.527C374.765 14.6552 375.951 15.1471 376.829 16.0201C377.706 16.8932 378.205 18.0769 378.215 19.3147V242.974C378.215 244.219 377.722 245.413 376.843 246.295C375.964 247.177 374.772 247.674 373.527 247.679ZM214.412 14.8157C213.22 14.8179 212.076 15.2926 211.233 16.1358C210.39 16.9791 209.915 18.1222 209.913 19.3147V242.974C209.915 244.166 210.39 245.309 211.233 246.152C212.076 246.996 213.22 247.47 214.412 247.473H373.527C374.719 247.47 375.862 246.996 376.706 246.152C377.549 245.309 378.024 244.166 378.026 242.974V19.3147C378.024 18.1222 377.549 16.9791 376.706 16.1358C375.862 15.2926 374.719 14.8179 373.527 14.8157H214.412Z" fill="#EBEBEB"/>
<path d="M370.717 292.273H344.703V292.479H370.717V292.273Z" fill="#EBEBEB"/>
<path d="M276.319 290.041H248.789V290.247H276.319V290.041Z" fill="#EBEBEB"/>
<path d="M378.231 299.929H326.789V300.135H378.231V299.929Z" fill="#EBEBEB"/>
<path d="M59.0721 298.544H43.2266V298.75H59.0721V298.544Z" fill="#EBEBEB"/>
<path d="M91.3731 298.544H66.4141V298.75H91.3731V298.544Z" fill="#EBEBEB"/>
<path d="M201.172 295.067H156.215V295.273H201.172V295.067Z" fill="#EBEBEB"/>
<path d="M224.342 66.6699L177.391 113.63V270.017H342.183V66.6699H224.342Z" fill="white"/>
<path d="M342.183 270.462H177.382C177.264 270.462 177.151 270.415 177.068 270.332C176.984 270.248 176.938 270.135 176.938 270.017V113.63C176.937 113.571 176.949 113.514 176.972 113.46C176.994 113.406 177.028 113.357 177.069 113.317L224.037 66.3486C224.122 66.2672 224.233 66.2201 224.351 66.2168H342.183C342.241 66.2168 342.299 66.2283 342.353 66.2507C342.407 66.273 342.456 66.3058 342.497 66.3471C342.539 66.3884 342.572 66.4375 342.594 66.4915C342.616 66.5455 342.628 66.6033 342.628 66.6618V270.017C342.628 270.076 342.616 270.133 342.594 270.187C342.572 270.241 342.539 270.29 342.497 270.332C342.456 270.373 342.407 270.406 342.353 270.428C342.299 270.451 342.241 270.462 342.183 270.462ZM177.836 269.58H341.738V67.115H224.532L177.836 113.811V269.58Z" fill="#E0E0E0"/>
<path d="M177.391 113.63L226.658 119.983L224.342 66.6699L177.391 113.63Z" fill="#E6E6E6"/>
<path d="M177.391 113.63H224.342V66.6699L177.391 113.63Z" fill="white"/>
<path d="M224.344 114.067H177.376C177.288 114.067 177.202 114.042 177.129 113.993C177.055 113.945 176.998 113.876 176.964 113.795C176.93 113.715 176.921 113.626 176.939 113.54C176.956 113.455 177 113.377 177.063 113.317L224.031 66.3488C224.094 66.2878 224.173 66.246 224.259 66.2285C224.346 66.211 224.435 66.2184 224.517 66.25C224.597 66.285 224.666 66.3426 224.714 66.4157C224.762 66.4888 224.788 66.5743 224.789 66.662V113.63C224.787 113.747 224.739 113.858 224.656 113.939C224.572 114.021 224.461 114.067 224.344 114.067ZM178.464 113.185H223.907V67.7414L178.464 113.185Z" fill="#E0E0E0"/>
<path d="M269.316 181.256L297.332 153.24C297.958 152.614 298.454 151.87 298.793 151.053C299.132 150.235 299.306 149.358 299.306 148.473C299.306 147.588 299.132 146.711 298.793 145.893C298.454 145.075 297.958 144.332 297.332 143.706C296.706 143.08 295.963 142.583 295.145 142.245C294.327 141.906 293.45 141.731 292.565 141.731C291.68 141.731 290.803 141.906 289.985 142.245C289.167 142.583 288.424 143.08 287.798 143.706L259.782 171.722L231.766 143.706C230.502 142.442 228.787 141.731 226.999 141.731C225.211 141.731 223.497 142.442 222.232 143.706C220.968 144.97 220.258 146.685 220.258 148.473C220.258 150.261 220.968 151.975 222.232 153.24L250.248 181.256L222.232 209.272C220.968 210.536 220.258 212.251 220.258 214.039C220.258 215.827 220.968 217.541 222.232 218.805C223.497 220.07 225.211 220.78 226.999 220.78C228.787 220.78 230.502 220.07 231.766 218.805L259.782 190.789L287.798 218.805C289.062 220.07 290.777 220.78 292.565 220.78C294.353 220.78 296.068 220.07 297.332 218.805C298.596 217.541 299.306 215.827 299.306 214.039C299.306 212.251 298.596 210.536 297.332 209.272L269.316 181.256Z" fill="#F0F0F0"/>
<path d="M183.751 158.027C182.171 159.606 180.028 160.493 177.794 160.493C175.56 160.493 173.417 159.606 171.836 158.027L144.801 130.983L156.716 119.068L183.751 146.145C185.32 147.724 186.201 149.86 186.201 152.086C186.201 154.312 185.32 156.448 183.751 158.027Z" fill="#F0F0F0"/>
<path d="M144.797 131.036L156.712 119.121L157.813 120.222C158.955 121.364 159.597 122.913 159.597 124.528C159.597 126.143 158.955 127.692 157.813 128.834L154.51 132.137C153.368 133.279 151.819 133.921 150.204 133.921C148.589 133.921 147.04 133.279 145.898 132.137L144.797 131.036Z" fill="#E0E0E0"/>
<path d="M69.802 44.0758C61.626 52.2602 56.0599 62.6847 53.8073 74.0318C51.5547 85.3788 52.7168 97.139 57.1466 107.826C61.5763 118.513 69.075 127.646 78.6947 134.072C88.3143 140.498 99.6232 143.928 111.192 143.928C122.76 143.928 134.069 140.498 143.689 134.072C153.308 127.646 160.807 118.513 165.237 107.826C169.667 97.139 170.829 85.3788 168.576 74.0318C166.323 62.6847 160.757 52.2602 152.581 44.0758C147.148 38.637 140.696 34.3223 133.594 31.3785C126.492 28.4346 118.88 26.9194 111.192 26.9194C103.504 26.9194 95.8913 28.4346 88.7894 31.3785C81.6875 34.3223 75.2354 38.637 69.802 44.0758ZM149.203 123.477C141.686 130.994 132.109 136.113 121.682 138.187C111.256 140.26 100.449 139.196 90.6271 135.128C80.8057 131.059 72.4113 124.17 66.5052 115.331C60.5992 106.492 57.4468 96.1002 57.4468 85.4696C57.4468 74.839 60.5992 64.447 66.5052 55.608C72.4113 46.7689 80.8057 39.8797 90.6271 35.8115C100.449 31.7433 111.256 30.6788 121.682 32.7527C132.109 34.8265 141.686 39.9456 149.203 47.4625C154.194 52.4536 158.153 58.379 160.855 64.9003C163.556 71.4215 164.946 78.411 164.946 85.4696C164.946 92.5282 163.556 99.5176 160.855 106.039C158.153 112.56 154.194 118.486 149.203 123.477Z" fill="#E0E0E0"/>
<path d="M141.941 118.186C141.554 118.185 141.176 118.07 140.854 117.854C140.532 117.639 140.282 117.333 140.134 116.975C139.986 116.617 139.947 116.224 140.022 115.844C140.098 115.464 140.284 115.115 140.557 114.841C148.332 107.044 152.699 96.4812 152.699 85.4695C152.699 74.4577 148.332 63.8953 140.557 56.0979C140.357 55.9204 140.196 55.7039 140.083 55.4617C139.97 55.2196 139.907 54.9569 139.899 54.6897C139.891 54.4226 139.938 54.1567 140.037 53.9083C140.136 53.6599 140.284 53.4343 140.473 53.2453C140.662 53.0563 140.887 52.908 141.136 52.8093C141.384 52.7107 141.65 52.6639 141.917 52.6717C142.184 52.6796 142.447 52.742 142.689 52.8551C142.931 52.9681 143.148 53.1295 143.325 53.3293C151.835 61.8593 156.614 73.4164 156.614 85.4653C156.614 97.5143 151.835 109.071 143.325 117.601C143.145 117.785 142.929 117.931 142.692 118.032C142.454 118.132 142.199 118.185 141.941 118.186Z" fill="#E0E0E0"/>
<path d="M68.8707 97.4877C68.4298 97.4881 68.0017 97.3393 67.6561 97.0655C67.3105 96.7917 67.0677 96.4091 66.9673 95.9797C65.542 89.9439 65.3622 83.6809 66.439 77.5732C67.5157 71.4656 69.8263 65.6416 73.2297 60.457C73.516 60.0199 73.9642 59.7145 74.4757 59.6079C74.9872 59.5012 75.5201 59.6022 75.9571 59.8885C76.3942 60.1747 76.6997 60.6229 76.8063 61.1344C76.9129 61.6459 76.812 62.1788 76.5257 62.6159C73.4097 67.3519 71.2912 72.6732 70.2995 78.2549C69.3078 83.8367 69.4637 89.562 70.7577 95.0816C70.8189 95.3316 70.8298 95.5913 70.7898 95.8456C70.7499 96.0998 70.6598 96.3437 70.5249 96.5629C70.39 96.7821 70.2129 96.9724 70.0039 97.1226C69.795 97.2729 69.5582 97.3802 69.3074 97.4382C69.1639 97.4694 69.0176 97.486 68.8707 97.4877Z" fill="#E0E0E0"/>
<path d="M80.4372 118.187C79.9176 118.186 79.4197 117.978 79.0529 117.61C75.5231 114.094 72.5996 110.018 70.4009 105.547C70.2873 105.316 70.2202 105.066 70.2034 104.809C70.1866 104.553 70.2205 104.295 70.3032 104.052C70.3858 103.809 70.5156 103.584 70.685 103.391C70.8545 103.198 71.0603 103.04 71.2908 102.926C71.5213 102.813 71.7719 102.746 72.0283 102.729C72.2847 102.712 72.542 102.746 72.7853 102.829C73.0286 102.911 73.2533 103.041 73.4464 103.21C73.6396 103.38 73.7975 103.586 73.9111 103.816C75.9271 107.899 78.5994 111.624 81.8216 114.841C82.1879 115.209 82.3936 115.707 82.3936 116.226C82.3936 116.745 82.1879 117.242 81.8216 117.61C81.4532 117.976 80.9563 118.183 80.4372 118.187Z" fill="#E0E0E0"/>
<path d="M173.893 233.345L181.595 241.048L163.708 258.935C162.793 259.85 161.552 260.364 160.258 260.364C158.965 260.364 157.724 259.85 156.809 258.935L155.999 258.126C155.084 257.211 154.57 255.97 154.57 254.676C154.57 253.383 155.084 252.142 155.999 251.227L173.887 233.339L173.893 233.345Z" fill="#F0F0F0"/>
<path d="M173.902 233.362L181.593 241.053L181.226 241.42C180.396 242.25 179.271 242.716 178.097 242.716C176.924 242.716 175.798 242.25 174.969 241.42L173.524 239.975C172.694 239.145 172.228 238.02 172.228 236.846C172.228 235.672 172.694 234.547 173.524 233.717L173.891 233.35L173.902 233.362Z" fill="#E0E0E0"/>
<path d="M234.304 191.564L216.259 209.601C214.256 211.748 213.165 214.589 213.217 217.524C213.268 220.46 214.458 223.26 216.535 225.335C218.612 227.41 221.414 228.597 224.349 228.646C227.285 228.694 230.125 227.6 232.269 225.595L239.57 218.303C241.107 209.046 239.236 199.547 234.304 191.564Z" fill="#F0F0F0"/>
<path d="M241.103 208.967C240.587 201.497 237.866 194.348 233.286 188.425C228.706 182.501 222.472 178.069 215.373 175.689C208.274 173.309 200.628 173.087 193.403 175.052C186.178 177.018 179.698 181.082 174.783 186.73C169.867 192.378 166.738 199.358 165.789 206.785C164.841 214.212 166.116 221.754 169.455 228.456C172.793 235.159 178.044 240.72 184.543 244.438C191.042 248.156 198.498 249.863 205.968 249.343C215.981 248.646 225.307 244.001 231.895 236.43C238.484 228.858 241.796 218.98 241.103 208.967ZM168.665 214.01C168.188 207.152 169.755 200.307 173.168 194.339C176.582 188.372 181.688 183.551 187.841 180.486C193.994 177.421 200.918 176.25 207.737 177.12C214.557 177.99 220.964 180.863 226.151 185.375C231.337 189.887 235.069 195.836 236.874 202.469C238.68 209.102 238.477 216.121 236.293 222.64C234.109 229.158 230.041 234.882 224.604 239.088C219.166 243.294 212.603 245.793 205.745 246.269C196.551 246.908 187.479 243.868 180.525 237.818C173.571 231.769 169.305 223.205 168.665 214.01Z" fill="#E0E0E0"/>
<path d="M184.064 233.761C181.148 231.234 178.759 228.155 177.036 224.702C175.312 221.249 174.287 217.489 174.02 213.639C174.001 213.469 174.016 213.297 174.066 213.133C174.115 212.969 174.197 212.817 174.307 212.685C174.416 212.554 174.552 212.446 174.704 212.368C174.857 212.29 175.023 212.244 175.194 212.232C175.365 212.221 175.536 212.244 175.698 212.3C175.86 212.356 176.008 212.445 176.135 212.56C176.262 212.675 176.364 212.815 176.435 212.971C176.506 213.126 176.545 213.295 176.549 213.466C177.054 220.562 180.35 227.169 185.715 231.84C191.08 236.512 198.077 238.868 205.175 238.392C205.509 238.369 205.839 238.48 206.092 238.7C206.345 238.92 206.499 239.232 206.522 239.566C206.545 239.901 206.434 240.231 206.214 240.483C205.994 240.736 205.682 240.891 205.348 240.914C201.504 241.181 197.646 240.686 193.993 239.459C190.341 238.232 186.967 236.295 184.064 233.761Z" fill="#E0E0E0"/>
<path d="M229.602 204.995C229.414 204.832 229.279 204.617 229.215 204.377C228.222 200.85 226.522 197.563 224.217 194.715C221.912 191.868 219.051 189.52 215.808 187.815C215.524 187.651 215.315 187.385 215.223 187.071C215.131 186.757 215.164 186.419 215.315 186.129C215.466 185.839 215.723 185.618 216.033 185.513C216.343 185.408 216.682 185.427 216.978 185.565C220.527 187.431 223.659 190.001 226.182 193.118C228.706 196.235 230.567 199.833 231.654 203.693C231.699 203.853 231.711 204.021 231.691 204.186C231.671 204.351 231.619 204.511 231.537 204.655C231.455 204.8 231.345 204.927 231.214 205.029C231.083 205.132 230.932 205.207 230.772 205.251C230.571 205.306 230.359 205.312 230.155 205.267C229.951 205.223 229.761 205.129 229.602 204.995Z" fill="#E0E0E0"/>
<path d="M200.553 184.503C200.301 184.279 200.147 183.965 200.124 183.629C200.101 183.295 200.212 182.966 200.431 182.712C200.65 182.459 200.96 182.303 201.294 182.278C204.508 182.054 207.737 182.358 210.853 183.176C211.015 183.219 211.167 183.293 211.301 183.395C211.434 183.496 211.547 183.623 211.631 183.768C211.716 183.913 211.771 184.073 211.794 184.24C211.816 184.406 211.806 184.575 211.763 184.737C211.72 184.9 211.646 185.052 211.544 185.186C211.443 185.319 211.316 185.431 211.171 185.516C211.026 185.601 210.866 185.656 210.699 185.678C210.533 185.701 210.364 185.691 210.202 185.648C207.358 184.896 204.41 184.617 201.475 184.824C201.138 184.841 200.807 184.725 200.553 184.503Z" fill="#E0E0E0"/>
<path d="M206 321.641C294.236 321.641 365.766 317.465 365.766 312.313C365.766 307.161 294.236 302.985 206 302.985C117.764 302.985 46.2344 307.161 46.2344 312.313C46.2344 317.465 117.764 321.641 206 321.641Z" fill="#F5F5F5"/>
<path d="M113.564 89.5362C106.922 96.2189 118.211 106.593 110.754 111.356C116.843 114.413 138.185 118.294 143.714 106.272C139.685 103.14 142.486 95.4443 138.77 88.053C133.208 77.0938 106.922 81.9472 113.564 89.5362Z" fill="#263238"/>
<path d="M114.166 89.3632C112.098 89.0171 105.102 92.4944 110.31 101.83C114.504 109.378 111.011 109.914 111.011 109.914C111.011 109.914 115.131 110.029 112.659 104.418C110.038 98.4272 108.81 92.2142 114.166 89.3632Z" fill="#263238"/>
<path d="M163.154 148.642C162.899 148.175 162.471 147.828 161.963 147.674C161.454 147.52 160.905 147.571 160.435 147.818L159.948 148.073C159.792 148.156 159.495 148.353 159.256 148.494C159.017 148.634 158.737 148.79 158.474 148.922C157.954 149.183 157.417 149.409 156.867 149.598C155.848 149.967 154.777 150.17 153.694 150.199C152.7 150.211 151.71 150.052 150.769 149.73C150.171 149.508 149.595 149.232 149.047 148.906C148.338 147.34 147.663 145.758 147.086 144.126C146.385 142.223 145.767 140.278 145.224 138.309C144.68 136.34 144.202 134.345 143.806 132.343C143.6 131.346 143.419 130.341 143.254 129.344L143.032 127.852C142.958 127.374 142.892 126.831 142.85 126.451V126.287C142.741 125.194 142.202 124.189 141.352 123.494C140.502 122.799 139.411 122.469 138.318 122.579C137.226 122.688 136.221 123.227 135.526 124.077C134.83 124.927 134.501 126.018 134.61 127.111C134.668 127.811 134.718 128.347 134.792 128.932C134.866 129.517 134.948 130.077 135.031 130.646C135.212 131.783 135.418 132.903 135.649 134.024C136.107 136.251 136.684 138.451 137.379 140.616C137.7 141.704 138.096 142.775 138.467 143.854C138.838 144.934 139.291 145.989 139.76 147.035C140.66 149.149 141.68 151.21 142.817 153.207L142.916 153.388C143.212 153.924 143.655 154.365 144.194 154.657C145.751 155.506 147.434 156.101 149.179 156.42C150.971 156.737 152.807 156.698 154.584 156.305C157.092 155.723 159.396 154.473 161.25 152.688C161.555 152.408 161.844 152.119 162.074 151.814C162.305 151.509 162.585 151.221 162.898 150.792C163.14 150.495 163.292 150.135 163.337 149.754C163.383 149.373 163.319 148.988 163.154 148.642Z" fill="#FF8B7B"/>
<path d="M168.632 140.929H168.393C167.604 140.913 166.822 141.078 166.108 141.412C165.393 141.747 164.765 142.241 164.273 142.858L160.293 147.851V151.262C163.49 152.531 167.544 149.112 167.544 149.112L169.596 148.593C170.287 148.42 170.889 147.998 171.286 147.407C171.683 146.817 171.847 146.1 171.747 145.395L171.45 143.393C171.353 142.713 171.016 142.09 170.498 141.638C169.981 141.186 169.319 140.934 168.632 140.929Z" fill="#FF8B7B"/>
<path d="M142.742 121.672C145.403 124.408 145.568 132.574 145.568 132.574L134.922 141.144C134.922 141.144 130.547 129.031 132.969 124.754C135.021 121.129 139.347 118.187 142.742 121.672Z" fill="#8A00FA"/>
<g opacity="0.2">
<path d="M142.742 121.672C145.403 124.408 145.568 132.574 145.568 132.574L134.922 141.144C134.922 141.144 130.547 129.031 132.969 124.754C135.021 121.129 139.347 118.187 142.742 121.672Z" fill="white"/>
</g>
<path d="M125.125 305.252L131.008 305.894L131.816 289.909L125.933 289.258L125.125 305.252Z" fill="#FF8B7B"/>
<path d="M131.974 302.054H125.06C124.921 302.05 124.785 302.1 124.682 302.194C124.579 302.288 124.517 302.418 124.508 302.557L124.047 309.091C124.047 309.433 124.18 309.762 124.419 310.006C124.658 310.251 124.982 310.393 125.324 310.402C128.241 310.402 128.274 310.402 131.916 310.402H141.73C144.746 310.402 144.754 307.345 143.452 307.064C137.593 305.828 135.311 304.114 133.243 302.483C132.879 302.203 132.433 302.052 131.974 302.054Z" fill="#263238"/>
<path opacity="0.2" d="M131.817 289.917L131.397 298.157H125.48L125.934 289.266L131.817 289.917Z" fill="black"/>
<path d="M134.988 162.37C134.988 162.37 140.08 204.995 140.08 223.947C136.068 250.315 132.664 296.591 132.664 296.591L124.523 296.377C124.523 296.377 120.824 245.981 124.251 224.219C119.859 204.723 114.438 159.733 114.438 159.733L134.988 162.37Z" fill="#263238"/>
<path opacity="0.2" d="M119.291 174.235C118.32 174.662 117.379 175.152 116.473 175.702C117.593 184.115 119.068 194.704 120.634 204.476C123.304 196.434 121.862 178.751 119.291 174.235Z" fill="black"/>
<path d="M61.4141 290.412L66.2674 293.798L74.6393 280.153L69.7859 276.766L61.4141 290.412Z" fill="#FF8B7B"/>
<path d="M67.4939 292.01L63.3739 286.465C63.2955 286.351 63.1756 286.273 63.04 286.246C62.9044 286.22 62.7639 286.248 62.6488 286.324L57.128 289.868C56.8526 290.07 56.6679 290.373 56.614 290.711C56.56 291.049 56.6411 291.394 56.8396 291.672C58.5618 294.021 58.5947 294.037 60.7618 296.954C62.105 298.742 64.783 302.343 66.6287 304.823C68.4745 307.304 70.8888 305.425 70.3285 304.205C67.8565 298.775 67.8565 295.965 67.9059 293.296C67.9143 292.833 67.7695 292.381 67.4939 292.01Z" fill="#263238"/>
<path opacity="0.2" d="M74.6301 280.153L70.3205 287.19L65.1211 284.355L69.7849 276.766L74.6301 280.153Z" fill="black"/>
<path d="M91.1827 296.13C86.972 296.13 78.2046 296.13 78.0563 289.933C77.941 285.072 83.9562 283.053 89.1474 282.806C89.7225 282.778 90.2975 282.864 90.8395 283.059C91.3815 283.253 91.8798 283.553 92.306 283.94C92.7322 284.327 93.078 284.794 93.3235 285.315C93.5691 285.836 93.7096 286.4 93.7371 286.975V287.305C99.6204 287.025 103.427 285.739 104.82 283.547C107.959 278.603 101.944 265.84 96.1349 253.504C89.2957 238.994 81.5501 222.555 81.4018 206.808C81.3963 206.233 81.5043 205.661 81.7196 205.127C81.9349 204.594 82.2533 204.107 82.6565 203.696C83.0598 203.285 83.54 202.958 84.0698 202.733C84.5996 202.507 85.1686 202.389 85.7443 202.383C86.8991 202.385 88.0067 202.842 88.8272 203.655C89.6476 204.468 90.1149 205.571 90.1279 206.726C90.2598 220.553 97.544 236.068 104.021 249.763C111.437 265.568 117.905 279.221 112.178 288.244C108.858 293.551 101.977 296.13 91.1827 296.13Z" fill="#8A00FA"/>
<path d="M128.469 161.529C128.469 161.529 114.412 210.244 107.548 227.911C94.2487 251.032 72.1819 286.415 72.1819 286.415L65.1367 282.295C65.1367 282.295 81.6168 241.424 92.6996 222.39C95.6742 202.614 106.922 158.728 106.922 158.728L128.469 161.529Z" fill="#263238"/>
<path d="M68.7635 295.99C69.0431 296.453 69.4739 296.805 69.983 296.987C70.1321 297.023 70.2882 297.016 70.4337 296.968C70.5793 296.92 70.7086 296.832 70.807 296.715C70.8755 296.652 70.9278 296.573 70.9594 296.486C70.9909 296.398 71.0009 296.305 70.9883 296.212C70.8894 295.224 68.335 293.938 67.8241 293.691C67.7944 293.679 67.7612 293.678 67.7308 293.689C67.7005 293.699 67.675 293.721 67.6593 293.749C67.6395 293.779 67.6289 293.815 67.6289 293.852C67.6289 293.888 67.6395 293.924 67.6593 293.955C67.9619 294.667 68.3316 295.348 68.7635 295.99ZM70.5186 295.99C70.5912 296.081 70.6394 296.188 70.6587 296.303C70.6627 296.335 70.6587 296.368 70.6473 296.398C70.6358 296.428 70.6171 296.455 70.5928 296.476C70.5263 296.552 70.4409 296.608 70.3454 296.64C70.2498 296.672 70.1475 296.678 70.0489 296.657C69.5051 296.55 68.7882 295.669 68.0961 294.276C68.9935 294.694 69.8128 295.263 70.5186 295.957V295.99Z" fill="#8A00FA"/>
<path d="M67.6195 293.988L67.6689 294.029C68.4929 294.482 70.6353 294.853 71.105 294.169C71.1838 294.044 71.2222 293.898 71.2148 293.75C71.2074 293.603 71.1547 293.461 71.0638 293.345C70.2398 291.886 67.7678 293.6 67.6607 293.674C67.6361 293.694 67.6166 293.719 67.6037 293.748C67.5908 293.777 67.5849 293.808 67.5865 293.839C67.5832 293.891 67.5946 293.942 67.6195 293.988ZM70.7507 293.51C70.7747 293.538 70.7967 293.569 70.8166 293.6C70.9072 293.757 70.9237 293.872 70.8743 293.938C70.6024 294.334 69.0203 294.194 68.0974 293.831C68.7154 293.46 70.1574 292.71 70.7507 293.51Z" fill="#8A00FA"/>
<path d="M135.959 303.414C136.499 303.463 137.04 303.327 137.492 303.027C137.607 302.927 137.691 302.797 137.736 302.651C137.781 302.506 137.785 302.351 137.747 302.203C137.736 302.11 137.703 302.021 137.651 301.942C137.6 301.864 137.531 301.798 137.451 301.75C136.627 301.247 134.048 302.524 133.545 302.788C133.517 302.804 133.495 302.829 133.483 302.859C133.471 302.889 133.469 302.922 133.479 302.953C133.492 302.987 133.513 303.018 133.54 303.043C133.567 303.067 133.6 303.084 133.636 303.093C134.397 303.279 135.176 303.387 135.959 303.414ZM136.981 301.989C137.099 301.981 137.216 302.007 137.319 302.063C137.36 302.063 137.401 302.121 137.418 302.219C137.439 302.318 137.434 302.421 137.402 302.516C137.37 302.612 137.313 302.697 137.237 302.763C136.833 303.134 135.696 303.184 134.163 302.912C135.029 302.447 135.968 302.135 136.94 301.989H136.981Z" fill="#8A00FA"/>
<path d="M133.636 303.134H133.693C134.517 302.755 136.124 301.247 135.861 300.464C135.806 300.335 135.714 300.224 135.597 300.146C135.479 300.069 135.342 300.027 135.201 300.027C133.553 299.838 133.438 302.821 133.43 302.944C133.43 302.977 133.438 303.009 133.454 303.038C133.47 303.067 133.493 303.091 133.52 303.109C133.555 303.129 133.596 303.137 133.636 303.134ZM135.119 300.332H135.234C135.407 300.332 135.514 300.406 135.539 300.489C135.696 300.942 134.641 302.137 133.792 302.656C133.866 301.939 134.13 300.332 135.135 300.332H135.119Z" fill="#8A00FA"/>
<path d="M106.922 158.769L134.987 162.361C141.316 141.053 143.4 130.761 143.961 125.809C144.109 124.564 143.818 123.306 143.138 122.253C142.458 121.2 141.432 120.418 140.236 120.041C138.588 119.513 136.462 118.887 134.353 118.393C133.636 118.203 132.903 118.03 132.186 117.865C127.984 117.013 123.727 116.462 119.447 116.217C118.812 116.16 118.186 116.127 117.552 116.094C116.307 116.028 115.079 116.011 113.959 116.011C113.118 116.01 112.286 116.184 111.516 116.523C110.746 116.861 110.054 117.356 109.486 117.976C108.918 118.596 108.485 119.328 108.215 120.125C107.945 120.921 107.845 121.765 107.919 122.603C108.141 125.075 108.314 127.374 108.446 129.484C108.759 134.428 108.858 138.383 108.784 141.844C108.616 147.526 107.993 153.186 106.922 158.769Z" fill="#8A00FA"/>
<g opacity="0.3">
<path d="M106.922 158.769L134.987 162.361C141.316 141.053 143.4 130.761 143.961 125.809C144.109 124.564 143.818 123.306 143.138 122.253C142.458 121.2 141.432 120.418 140.236 120.041C138.588 119.513 136.462 118.887 134.353 118.393C133.636 118.203 132.903 118.03 132.186 117.865C127.984 117.013 123.727 116.462 119.447 116.217C118.812 116.16 118.186 116.127 117.552 116.094C116.307 116.028 115.079 116.011 113.959 116.011C113.118 116.01 112.286 116.184 111.516 116.523C110.746 116.861 110.054 117.356 109.486 117.976C108.918 118.596 108.485 119.328 108.215 120.125C107.945 120.921 107.845 121.765 107.919 122.603C108.141 125.075 108.314 127.374 108.446 129.484C108.759 134.428 108.858 138.383 108.784 141.844C108.616 147.526 107.993 153.186 106.922 158.769Z" fill="white"/>
</g>
<path opacity="0.3" d="M108.768 141.811C112.476 137.015 113.819 131.528 112.616 128.503L108.43 129.443C108.768 134.37 108.858 138.342 108.768 141.811Z" fill="#8A00FA"/>
<path d="M134.354 118.343C133.629 118.154 132.904 117.981 132.187 117.816C127.982 116.967 123.722 116.416 119.44 116.168C118.805 116.118 118.179 116.085 117.553 116.052L116.457 116.003L117.281 117.445C117.396 117.643 120.198 122.224 127.169 127.152L128.66 128.19L130.094 127.094C131.475 126.104 132.603 124.802 133.388 123.295C134.172 121.787 134.591 120.116 134.61 118.417L134.354 118.343Z" fill="white"/>
<path d="M122.536 107.697C122.272 111.166 121.456 114.701 119.438 116.184C119.438 116.184 122.008 120.461 128.666 125.133C132.836 121.944 132.185 117.816 132.185 117.816C127.752 116.168 128.065 113.094 129.935 108.191L126.474 106.329C126.176 106 125.787 105.766 125.357 105.656C124.926 105.546 124.473 105.566 124.053 105.711C123.633 105.857 123.266 106.123 122.996 106.476C122.726 106.829 122.566 107.254 122.536 107.697Z" fill="#FF8B7B"/>
<path opacity="0.2" d="M126.476 106.329C126.195 106.02 125.835 105.793 125.434 105.676C125.033 105.558 124.607 105.554 124.204 105.663C123.8 105.772 123.435 105.99 123.148 106.294C122.861 106.598 122.664 106.975 122.578 107.384C123.893 110.035 126.013 112.201 128.635 113.572C128.728 111.714 129.167 109.889 129.928 108.192L126.476 106.329Z" fill="black"/>
<path d="M117.149 96.8205C118.871 103.52 119.456 106.387 123.551 109.181C129.706 113.416 137.559 109.84 137.864 102.77C138.153 96.4003 135.293 86.5123 128.141 85.095C126.562 84.7722 124.927 84.8592 123.391 85.3478C121.855 85.8364 120.47 86.7102 119.368 87.8859C118.266 89.0617 117.483 90.5001 117.095 92.0642C116.706 93.6282 116.725 95.2657 117.149 96.8205Z" fill="#FF8B7B"/>
<path d="M134.198 86.4793C130.163 90.0659 125.377 92.704 120.19 94.2002C120.19 94.2002 125.307 105.085 115.732 102.341C112.955 93.0713 115.732 88.2591 118.204 85.9931C125.818 83.5211 131.174 82.6971 134.198 86.4793Z" fill="#263238"/>
<path d="M116.827 103.42C117.388 104.634 118.407 105.576 119.661 106.041C121.309 106.634 122.29 105.217 121.936 103.569C121.614 102.094 120.362 100.001 118.64 100.108C118.267 100.14 117.908 100.263 117.595 100.467C117.282 100.671 117.024 100.95 116.845 101.278C116.665 101.606 116.57 101.973 116.566 102.347C116.563 102.721 116.653 103.09 116.827 103.42Z" fill="#FF8B7B"/>
<path d="M106.716 157.071L105.126 159.42C105.003 159.601 105.209 159.832 105.53 159.873L134.963 163.647C135.219 163.647 135.441 163.581 135.482 163.425L136.059 160.953C136.059 160.779 135.894 160.606 135.622 160.565L107.194 156.923C107.109 156.903 107.019 156.906 106.935 156.932C106.851 156.958 106.776 157.006 106.716 157.071Z" fill="#8A00FA"/>
<path d="M110.121 160.738L109.363 160.639C109.215 160.639 109.108 160.524 109.132 160.433L109.907 157.211C109.936 157.157 109.984 157.115 110.04 157.091C110.097 157.067 110.161 157.063 110.22 157.08L110.986 157.179C111.135 157.179 111.242 157.286 111.217 157.385L110.443 160.598C110.418 160.697 110.278 160.755 110.121 160.738Z" fill="#263238"/>
<path d="M132.789 163.639L132.031 163.548C131.883 163.548 131.776 163.433 131.8 163.334L132.575 160.12C132.575 160.03 132.74 159.964 132.888 159.98L133.654 160.079C133.803 160.079 133.91 160.194 133.885 160.285L133.111 163.507C133.086 163.597 132.946 163.663 132.789 163.639Z" fill="#263238"/>
<path d="M121.458 162.188L120.7 162.089C120.543 162.089 120.436 161.982 120.461 161.883L121.235 158.67C121.235 158.571 121.4 158.513 121.557 158.53L122.315 158.629C122.463 158.629 122.57 158.744 122.554 158.835L121.771 162.056C121.754 162.147 121.606 162.205 121.458 162.188Z" fill="#263238"/>
<path d="M128.628 96.5319C128.726 97.084 129.105 97.4795 129.452 97.4054C129.798 97.3312 130.02 96.8368 129.913 96.2847C129.806 95.7327 129.427 95.3371 129.089 95.4113C128.751 95.4854 128.545 95.9798 128.628 96.5319Z" fill="#263238"/>
<path d="M134.856 95.3374C134.963 95.8894 135.342 96.2767 135.68 96.2108C136.018 96.1449 136.248 95.634 136.141 95.0819C136.034 94.5298 135.655 94.1426 135.317 94.2085C134.979 94.2744 134.757 94.7853 134.856 95.3374Z" fill="#263238"/>
<path d="M135.137 94.2741L136.389 93.6313C136.389 93.6313 135.961 94.8014 135.137 94.2741Z" fill="#263238"/>
<path d="M133.207 96.5732C133.943 97.734 134.833 98.79 135.852 99.7127C135.611 99.9692 135.316 100.169 134.988 100.299C134.661 100.429 134.308 100.484 133.957 100.463L133.207 96.5732Z" fill="#FF5652"/>
<path d="M129.317 102.687C129.293 102.716 129.278 102.752 129.277 102.79C129.276 102.828 129.289 102.866 129.312 102.896C129.335 102.926 129.368 102.947 129.405 102.955C129.442 102.964 129.481 102.959 129.515 102.942C130.138 102.625 130.827 102.459 131.526 102.459C132.225 102.459 132.914 102.625 133.536 102.942C133.574 102.964 133.618 102.97 133.659 102.959C133.701 102.948 133.737 102.921 133.759 102.885C133.781 102.847 133.789 102.803 133.779 102.76C133.77 102.717 133.745 102.679 133.709 102.654C133.037 102.31 132.293 102.13 131.538 102.13C130.783 102.13 130.039 102.31 129.367 102.654C129.367 102.654 129.367 102.671 129.317 102.687Z" fill="#263238"/>
<path d="M126.477 94.8348C126.528 94.8034 126.568 94.7575 126.592 94.7029C126.764 94.3274 127.022 93.9979 127.346 93.7415C127.669 93.4851 128.049 93.3091 128.454 93.228C128.498 93.2229 128.54 93.2092 128.578 93.1877C128.616 93.1663 128.649 93.1375 128.676 93.1029C128.703 93.0684 128.723 93.0289 128.734 92.9867C128.746 92.9445 128.748 92.9005 128.743 92.8572C128.739 92.8141 128.726 92.7723 128.705 92.7342C128.685 92.6962 128.657 92.6627 128.623 92.6358C128.589 92.6089 128.55 92.589 128.508 92.5775C128.467 92.566 128.423 92.563 128.38 92.5688C127.865 92.665 127.38 92.8826 126.966 93.2036C126.552 93.5246 126.22 93.9397 125.999 94.4145C125.967 94.4795 125.957 94.5532 125.971 94.6243C125.985 94.6954 126.022 94.7598 126.077 94.8076C126.131 94.8555 126.2 94.884 126.272 94.889C126.344 94.8939 126.416 94.8748 126.477 94.8348Z" fill="#263238"/>
<path d="M136.711 90.657L136.753 90.6158C136.778 90.5802 136.795 90.54 136.805 90.4974C136.814 90.4548 136.815 90.4108 136.808 90.3679C136.8 90.325 136.784 90.284 136.76 90.2474C136.737 90.2107 136.706 90.1791 136.67 90.1544C136.244 89.8482 135.751 89.6481 135.233 89.5707C134.714 89.4933 134.184 89.5409 133.687 89.7094C133.608 89.744 133.545 89.8078 133.511 89.8875C133.477 89.9672 133.476 90.0569 133.506 90.1379C133.539 90.2187 133.602 90.2831 133.683 90.3171C133.763 90.351 133.854 90.3518 133.934 90.3192C134.329 90.1899 134.749 90.1568 135.159 90.2228C135.569 90.2887 135.957 90.4517 136.291 90.6982C136.354 90.7433 136.432 90.7639 136.509 90.7563C136.586 90.7488 136.658 90.7135 136.711 90.657Z" fill="#263238"/>
<path d="M128.93 95.469L130.182 94.8345C130.182 94.8345 129.696 95.9963 128.93 95.469Z" fill="#263238"/>
<path d="M85.7885 211.151C84.633 211.151 83.5242 210.695 82.7033 209.881C81.8823 209.068 81.4157 207.964 81.4048 206.808C81.2895 195.107 85.187 185.228 92.6772 178.24C101.898 169.637 116.277 165.641 133.185 166.976C145.042 167.915 152.648 165.031 161.448 161.678C162.899 161.134 164.357 160.573 165.857 160.03C166.949 159.632 168.155 159.684 169.209 160.176C170.263 160.667 171.079 161.557 171.476 162.65C171.874 163.743 171.822 164.949 171.33 166.002C170.839 167.056 169.949 167.872 168.856 168.27C167.398 168.797 165.98 169.341 164.571 169.876C155.598 173.288 146.328 176.806 132.493 175.719C118.073 174.573 106.059 177.746 98.6594 184.651C92.8914 189.99 90.0816 197.415 90.1722 206.726C90.1776 207.301 90.0696 207.873 89.8543 208.406C89.639 208.94 89.3207 209.427 88.9174 209.838C88.5142 210.249 88.034 210.576 87.5042 210.801C86.9744 211.027 86.4054 211.145 85.8297 211.151H85.7885Z" fill="#8A00FA"/>
<path d="M187.168 174.459L169.535 180.919C168.064 181.458 166.439 181.39 165.017 180.731C163.596 180.072 162.494 178.875 161.955 177.403L154.673 157.527C154.134 156.055 154.202 154.43 154.861 153.009C155.52 151.587 156.717 150.486 158.189 149.947L175.822 143.487L187.159 174.436L187.168 174.459Z" fill="#8A00FA"/>
<path opacity="0.7" d="M187.168 174.459L169.535 180.919C168.064 181.458 166.439 181.39 165.017 180.731C163.596 180.072 162.494 178.875 161.955 177.403L154.673 157.527C154.134 156.055 154.202 154.43 154.861 153.009C155.52 151.587 156.717 150.486 158.189 149.947L175.822 143.487L187.159 174.436L187.168 174.459Z" fill="white"/>
<path opacity="0.2" d="M167.966 146.359L175.835 143.483L187.173 174.449L179.304 177.333C178.78 176.827 178.38 176.207 178.134 175.521L168.246 148.502C167.987 147.819 167.891 147.085 167.966 146.359Z" fill="#8A00FA"/>
<path d="M193.504 151.197L192.73 151.48L194.618 156.633L195.392 156.349L193.504 151.197Z" fill="#8A00FA"/>
<path d="M191.541 148.271L188.764 140.674C188.287 139.386 187.428 138.274 186.301 137.489C185.174 136.704 183.834 136.283 182.46 136.282C181.679 136.28 180.903 136.416 180.169 136.686L175.159 138.523L174.871 137.749L179.889 135.911C180.713 135.609 181.583 135.456 182.46 135.458C184.003 135.462 185.509 135.937 186.774 136.821C188.039 137.705 189.004 138.954 189.538 140.402L192.315 147.999L191.541 148.271Z" fill="#8A00FA"/>
<path d="M187.304 176.678L194.663 174.017C197.067 173.147 198.311 170.493 197.441 168.089L187.453 140.476C186.584 138.072 183.93 136.828 181.526 137.698L174.168 140.359C171.763 141.229 170.519 143.883 171.389 146.287L181.377 173.9C182.246 176.304 184.9 177.548 187.304 176.678Z" fill="#8A00FA"/>
<path d="M183.094 148.856C183.262 149.315 183.29 149.814 183.175 150.29C183.059 150.765 182.805 151.195 182.444 151.526C182.084 151.857 181.634 152.073 181.15 152.148C180.667 152.223 180.172 152.152 179.728 151.945C179.285 151.739 178.913 151.405 178.659 150.987C178.405 150.569 178.282 150.084 178.303 149.596C178.325 149.107 178.491 148.636 178.781 148.241C179.07 147.847 179.47 147.548 179.93 147.381C180.545 147.158 181.224 147.188 181.817 147.464C182.41 147.741 182.87 148.241 183.094 148.856Z" fill="#263238"/>
<path d="M189.248 165.657C189.415 166.117 189.443 166.615 189.327 167.09C189.211 167.565 188.957 167.995 188.597 168.325C188.236 168.656 187.786 168.872 187.303 168.947C186.82 169.021 186.326 168.951 185.883 168.745C185.44 168.539 185.068 168.206 184.813 167.789C184.559 167.371 184.435 166.888 184.455 166.4C184.476 165.911 184.641 165.44 184.929 165.045C185.217 164.651 185.616 164.35 186.075 164.182C186.38 164.071 186.705 164.02 187.029 164.034C187.354 164.048 187.673 164.125 187.967 164.262C188.262 164.399 188.527 164.593 188.746 164.832C188.966 165.072 189.136 165.352 189.248 165.657Z" fill="#263238"/>
<path d="M117.008 163.671L116.942 163.597C115.657 162.312 114.297 160.911 113.069 159.477C111.842 158.044 110.639 156.61 109.543 155.127C108.468 153.68 107.491 152.163 106.617 150.586C105.992 149.459 105.461 148.282 105.027 147.068C105.522 145.42 106.049 143.772 106.675 142.19C107.392 140.286 108.2 138.416 109.081 136.57C109.963 134.724 110.902 132.911 111.916 131.14C112.41 130.25 112.929 129.368 113.465 128.503L114.289 127.234C114.544 126.822 114.849 126.41 115.063 126.056L115.154 125.924C115.74 125.031 115.956 123.946 115.757 122.897C115.558 121.847 114.96 120.917 114.088 120.3C113.216 119.683 112.139 119.43 111.083 119.592C110.028 119.754 109.077 120.32 108.43 121.169C108.018 121.73 107.705 122.175 107.376 122.661C107.046 123.147 106.749 123.633 106.436 124.119C105.835 125.092 105.25 126.072 104.689 127.069C103.575 129.058 102.565 131.105 101.665 133.2C101.204 134.238 100.841 135.301 100.372 136.364C99.9018 137.427 99.5887 138.506 99.2591 139.611C98.5597 141.798 97.9847 144.024 97.537 146.277V146.466C97.4091 147.068 97.4519 147.693 97.6606 148.271C98.459 150.384 99.5192 152.388 100.816 154.237C102.038 155.991 103.399 157.645 104.887 159.181C106.336 160.66 107.875 162.05 109.493 163.342C111.111 164.632 112.809 165.818 114.577 166.893C115.007 167.144 115.513 167.23 116.001 167.135C116.489 167.04 116.925 166.769 117.229 166.375C117.532 165.981 117.681 165.49 117.648 164.994C117.615 164.497 117.402 164.03 117.049 163.68L117.008 163.671Z" fill="#FF8B7B"/>
<path d="M126.582 167.767L126.475 167.553C126.133 166.838 125.629 166.214 125.004 165.727C124.379 165.241 123.65 164.907 122.874 164.751L116.62 163.482L113.562 165.006C113.892 168.434 118.787 170.486 118.787 170.486L120.179 172.076C120.649 172.61 121.299 172.951 122.004 173.034C122.71 173.118 123.421 172.938 124.003 172.529L125.651 171.351C126.204 170.96 126.602 170.386 126.772 169.729C126.943 169.073 126.875 168.378 126.582 167.767Z" fill="#FF8B7B"/>
<path d="M111.395 116.539C107.926 118.129 104.234 123.633 104.234 123.633L111.65 137.518C111.65 137.518 120.08 127.803 119.371 122.941C118.794 118.813 115.812 114.512 111.395 116.539Z" fill="#8A00FA"/>
<g opacity="0.3">
<path d="M111.395 116.539C107.926 118.129 104.234 123.633 104.234 123.633L111.65 137.518C111.65 137.518 120.08 127.803 119.371 122.941C118.794 118.813 115.812 114.512 111.395 116.539Z" fill="white"/>
</g>
<path d="M348.789 298.462C341.529 298.462 334.393 296.97 330.933 292.455C314.551 271.031 314.7 227.935 314.84 186.233C314.922 163.778 316.694 142.56 314.197 126.08C312.73 116.365 307.605 109.699 302.43 106.255C294.751 101.179 284.203 103.906 279.696 105.068C279.135 105.225 278.548 105.269 277.969 105.196C277.391 105.123 276.833 104.936 276.328 104.644C275.823 104.353 275.381 103.964 275.028 103.501C274.675 103.037 274.418 102.507 274.272 101.942C274.126 101.378 274.095 100.79 274.179 100.213C274.263 99.6365 274.461 99.0823 274.762 98.583C275.063 98.0838 275.461 97.6496 275.932 97.3059C276.402 96.9621 276.937 96.7157 277.504 96.5811C283.132 95.1226 296.333 91.7195 307.259 98.9377C314.634 103.808 321.012 112.501 322.866 124.77C325.461 141.909 323.69 163.441 323.607 186.233C323.467 226.469 323.327 268.072 337.895 287.099C339.074 288.631 343.663 290.007 351.285 289.612C351.961 289.612 352.62 289.538 353.271 289.48C352.976 288.883 352.824 288.226 352.826 287.56C352.826 286.397 353.288 285.282 354.11 284.46C354.932 283.638 356.047 283.176 357.21 283.176C366.793 283.176 371.836 284 372.808 288.384C373.088 289.645 373.237 292.809 368.606 294.976C365.145 296.599 356.889 298.462 348.789 298.462Z" fill="#8A00FA"/>
<path d="M252.858 302.244L243.918 298.726L248.631 283.226L257.58 286.736L252.858 302.244Z" fill="#FFC3BD"/>
<path d="M243.706 297.778L253.792 301.733C253.92 301.785 254.026 301.878 254.095 301.997C254.164 302.117 254.191 302.256 254.171 302.392L253.182 308.671C253.157 308.823 253.097 308.967 253.008 309.093C252.92 309.218 252.804 309.323 252.669 309.398C252.535 309.473 252.385 309.517 252.232 309.527C252.078 309.536 251.924 309.511 251.782 309.454C249.252 308.407 245.288 306.677 242.083 305.416C240.114 304.642 236.365 303.406 233.637 302.334C230.91 301.263 231.618 298.429 232.813 298.626C238.243 299.5 240.32 298.569 242.487 297.761C242.88 297.611 243.317 297.616 243.706 297.778Z" fill="#263238"/>
<path opacity="0.2" d="M257.583 286.745L248.634 283.226L246.203 291.219L255.152 294.737L257.583 286.745Z" fill="black"/>
<path d="M268.765 166.77C268.765 166.77 260.673 206.767 257.583 226.494C254.106 248.602 244.918 288.986 244.918 288.986L256.808 293.658C256.808 293.658 273.791 252.31 276.156 232.286C283.283 216.012 297.456 168.121 297.456 168.121L268.765 166.77Z" fill="#8A00FA"/>
<path d="M244.34 289.051L257.392 294.185L259.625 290.23L245.032 284.182L244.34 289.051Z" fill="#263238"/>
<path d="M241.141 297.951C240.686 297.809 240.292 297.519 240.021 297.127C239.945 296.982 239.906 296.821 239.906 296.657C239.906 296.494 239.945 296.333 240.021 296.187C240.054 296.098 240.112 296.02 240.188 295.961C240.263 295.903 240.354 295.867 240.449 295.858C241.314 295.767 242.921 297.877 243.078 298.124C243.095 298.151 243.105 298.182 243.105 298.214C243.105 298.247 243.095 298.278 243.078 298.305C243.06 298.332 243.036 298.354 243.006 298.367C242.977 298.38 242.945 298.384 242.913 298.379C242.309 298.301 241.714 298.158 241.141 297.951ZM240.705 296.229C240.638 296.196 240.564 296.182 240.49 296.187C240.441 296.187 240.383 296.187 240.325 296.328C240.271 296.426 240.242 296.536 240.242 296.649C240.242 296.761 240.271 296.872 240.325 296.97C240.564 297.407 241.388 297.794 242.583 297.992C242.081 297.284 241.443 296.685 240.705 296.229Z" fill="#8A00FA"/>
<path d="M242.897 298.371C242.871 298.362 242.848 298.345 242.831 298.321C242.304 297.695 241.563 295.759 242.007 295.091C242.076 294.988 242.178 294.911 242.297 294.873C242.415 294.836 242.543 294.84 242.658 294.885C242.781 294.917 242.895 294.973 242.995 295.051C243.094 295.129 243.176 295.227 243.235 295.339C243.746 296.253 243.169 298.181 243.145 298.264C243.135 298.293 243.118 298.319 243.094 298.339C243.071 298.36 243.043 298.373 243.013 298.379C242.994 298.388 242.974 298.392 242.954 298.391C242.934 298.389 242.914 298.382 242.897 298.371ZM242.617 295.223H242.551C242.337 295.174 242.288 295.223 242.263 295.297C242.016 295.693 242.419 297.094 242.889 297.86C243.124 297.098 243.124 296.282 242.889 295.52C242.837 295.392 242.741 295.286 242.617 295.223Z" fill="#8A00FA"/>
<path opacity="0.2" d="M286.207 190.987C281.724 196.541 279.952 210.697 279.969 222.497C282.993 214.166 286.462 203.586 289.511 193.978L286.207 190.987Z" fill="black"/>
<path d="M306.666 303.735H297.058L295.781 287.585H305.389L306.666 303.735Z" fill="#FFC3BD"/>
<path d="M296.517 302.928H307.353C307.492 302.927 307.627 302.974 307.735 303.061C307.843 303.148 307.918 303.27 307.946 303.406L309.322 309.602C309.354 309.753 309.352 309.91 309.315 310.06C309.279 310.211 309.209 310.351 309.111 310.47C309.013 310.59 308.889 310.686 308.748 310.751C308.608 310.816 308.455 310.849 308.3 310.846C305.565 310.797 301.255 310.632 297.811 310.632C295.685 310.632 291.746 310.855 288.821 310.855C285.896 310.855 285.525 307.962 286.703 307.699C292.084 306.52 293.683 304.905 295.397 303.356C295.705 303.082 296.104 302.929 296.517 302.928Z" fill="#263238"/>
<path opacity="0.2" d="M305.39 287.585H295.773L296.441 295.916H306.057L305.39 287.585Z" fill="black"/>
<path d="M280.398 167.272C280.398 167.272 285.721 211.843 286.842 227.886C288.399 250.216 294.423 294.301 294.423 294.301H307.195C307.195 294.301 308.563 249.277 306.256 229.246C309.436 211.769 308.431 168.616 308.431 168.616L280.398 167.272Z" fill="#8A00FA"/>
<path d="M293.911 294.573H307.935L308.57 290.082L292.773 289.785L293.911 294.573Z" fill="#263238"/>
<path d="M294.167 304.024C293.692 304.059 293.219 303.934 292.823 303.669C292.701 303.562 292.605 303.426 292.545 303.274C292.485 303.122 292.462 302.958 292.477 302.796C292.478 302.699 292.504 302.603 292.555 302.52C292.606 302.437 292.679 302.37 292.766 302.326C293.54 301.931 295.79 303.315 296.062 303.472C296.09 303.488 296.114 303.512 296.128 303.541C296.143 303.571 296.148 303.604 296.144 303.636C296.137 303.669 296.121 303.7 296.097 303.724C296.074 303.749 296.045 303.767 296.012 303.776C295.408 303.928 294.789 304.011 294.167 304.024ZM293.128 302.582C293.055 302.577 292.981 302.591 292.914 302.623C292.873 302.623 292.823 302.689 292.815 302.812C292.798 302.923 292.809 303.037 292.848 303.142C292.887 303.247 292.953 303.341 293.038 303.414C293.417 303.735 294.331 303.776 295.51 303.537C294.793 303.07 293.993 302.746 293.153 302.582H293.128Z" fill="#8A00FA"/>
<path d="M295.981 303.777H295.898C295.181 303.381 293.781 301.857 293.929 301.074C293.954 300.953 294.02 300.843 294.116 300.765C294.212 300.687 294.332 300.645 294.456 300.645C294.581 300.628 294.708 300.637 294.829 300.673C294.95 300.708 295.061 300.769 295.157 300.851C295.981 301.519 296.137 303.529 296.145 303.612C296.147 303.642 296.141 303.672 296.128 303.7C296.115 303.727 296.096 303.751 296.071 303.768C296.042 303.778 296.011 303.781 295.981 303.777ZM294.572 300.95H294.497C294.283 300.95 294.267 301.082 294.258 301.123C294.168 301.577 295.082 302.771 295.775 303.282C295.725 302.486 295.438 301.723 294.951 301.09C294.844 301.003 294.71 300.953 294.572 300.95Z" fill="#8A00FA"/>
<path d="M284.807 105.81L277.111 105.711C274.524 105.711 271.953 105.629 269.407 105.587C268.632 105.587 267.874 105.538 267.108 105.505C267.157 105.505 267.19 105.414 267.231 105.373C267.775 104.796 268.319 104.203 268.879 103.635C269.159 103.338 269.434 103.049 269.703 102.769C269.959 102.489 270.288 102.176 270.461 101.945L271.162 101.055C271.714 100.351 272.03 99.491 272.066 98.5968C272.101 97.7027 271.855 96.82 271.36 96.074C270.866 95.3281 270.149 94.7567 269.312 94.441C268.475 94.1252 267.559 94.0812 266.696 94.3151L265.171 94.7271C264.702 94.8672 264.232 95.0237 263.762 95.1803C262.839 95.5016 261.933 95.856 261.035 96.2432C259.225 97.0424 257.476 97.9733 255.802 99.0284C254.069 100.136 252.429 101.385 250.9 102.761C249.281 104.233 247.815 105.864 246.524 107.631C246.198 108.072 245.922 108.547 245.7 109.048C244.935 110.802 244.897 112.788 245.596 114.57C246.294 116.351 247.671 117.782 249.425 118.549L250.174 118.879C251.867 119.607 253.621 120.186 255.415 120.609C256.981 121.013 258.464 121.276 259.922 121.524C261.381 121.771 262.806 121.969 264.224 122.142C265.641 122.315 267.042 122.447 268.443 122.562C271.236 122.809 274.005 122.933 276.765 123.015C279.525 123.097 282.228 123.097 285.096 122.966C287.332 122.87 289.442 121.905 290.977 120.277C292.512 118.648 293.351 116.485 293.314 114.247C293.278 112.009 292.369 109.874 290.782 108.297C289.194 106.719 287.053 105.824 284.815 105.802L284.807 105.81Z" fill="#FFC3BD"/>
<path d="M289.289 120.848C282.639 128.429 266.637 125.595 266.637 125.595L267.518 106.708C273.004 105.501 278.597 104.852 284.213 104.772C293.606 104.756 294.612 114.767 289.289 120.848Z" fill="#263238"/>
<path d="M271.539 115.039C271.143 118.088 270.715 122.191 270.46 127.712C266.99 145.263 265.697 157.697 268.762 166.77C271.185 169.761 302.752 169.184 308.43 168.607C311.726 160.45 312.072 137.032 312.459 117.346C312.507 114.633 311.582 111.993 309.852 109.904C308.121 107.815 305.698 106.415 303.024 105.958C295.92 104.699 288.674 104.455 281.501 105.233C278.984 105.52 276.635 106.641 274.829 108.418C273.024 110.196 271.865 112.526 271.539 115.039Z" fill="#263238"/>
<path opacity="0.2" d="M302.168 127.02C302.275 133.019 306.626 142.602 311.52 147.464C311.817 142.396 312.007 136.9 312.155 131.354L302.168 127.02Z" fill="black"/>
<path d="M329.672 138.679L329.392 138.02C328.24 135.272 326.894 132.609 325.363 130.052C323.896 127.58 322.314 125.248 320.674 122.999C319.034 120.749 317.296 118.599 315.516 116.506C314.609 115.467 313.711 114.429 312.764 113.424L311.338 111.924L309.822 110.392C308.234 108.823 306.097 107.935 303.866 107.915C301.634 107.896 299.482 108.746 297.866 110.285C296.25 111.825 295.298 113.933 295.21 116.164C295.122 118.394 295.906 120.571 297.396 122.232L297.643 122.504L302.48 127.885C304.128 129.714 305.702 131.577 307.268 133.431C308.026 134.362 308.808 135.293 309.517 136.24C310.226 137.188 310.976 138.103 311.684 139.042C312.706 140.468 313.695 141.885 314.576 143.277C314.441 143.981 314.271 144.676 314.066 145.362C313.473 147.358 312.778 149.322 311.981 151.246C311.157 153.281 310.283 155.366 309.377 157.417C308.471 159.469 307.498 161.611 306.633 163.671L306.551 163.853C306.171 164.763 306.113 165.776 306.387 166.724C306.661 167.672 307.25 168.498 308.057 169.065C308.864 169.633 309.84 169.909 310.825 169.846C311.81 169.784 312.743 169.387 313.472 168.723C315.29 167.038 317.015 165.255 318.639 163.383C320.287 161.532 321.833 159.582 323.278 157.533C324.011 156.503 324.712 155.431 325.404 154.319C326.123 153.188 326.78 152.019 327.373 150.817C328.04 149.506 328.618 148.152 329.104 146.763C329.736 144.985 330.092 143.12 330.158 141.234C330.179 140.358 330.014 139.487 329.672 138.679Z" fill="#FFC3BD"/>
<path d="M303.587 106.066C314.703 107.969 321.946 123.015 321.946 123.015L308.548 137.427C308.548 137.427 300.827 129.566 296.188 122.282C291.186 114.355 295.627 104.714 303.587 106.066Z" fill="#263238"/>
<path d="M283.284 82.3426C281.421 79.2196 280.812 74.9266 284.223 70.5511C283.558 70.6344 282.884 70.5231 282.281 70.2305C281.679 69.938 281.174 69.4769 280.828 68.9031C284.564 65.847 289.261 64.2123 294.086 64.2887C304.057 64.2887 304.798 68.1368 304.46 70.7654C311.283 71.2021 316.26 88.9428 298.964 92.0823C289.068 81.6587 283.284 82.3426 283.284 82.3426Z" fill="#263238"/>
<path d="M303.832 71.0866C303.832 71.0866 306.609 68.2521 303.156 64.8242C303.93 65.0365 304.636 65.4455 305.205 66.0116C305.774 66.5777 306.187 67.2814 306.403 68.0543C306.889 70.0484 305.546 71.647 303.832 71.0866Z" fill="#263238"/>
<path d="M300.012 89.915C299.748 95.3782 299.254 101.591 300.168 105.95C298.751 108.183 295.125 110.754 288.632 111.331C286.325 110.021 283.276 106.815 284.339 105.167C287.099 103.396 288.27 98.0315 287.479 94.0186L300.012 89.915Z" fill="#FFC3BD"/>
<path opacity="0.2" d="M296.846 90.9453L287.461 94.0188C287.78 95.7278 287.794 97.4798 287.502 99.1936C290.304 99.1029 294.185 96.9935 295.643 95.0159C296.118 94.4599 296.471 93.8101 296.678 93.1087C296.886 92.4074 296.943 91.6702 296.846 90.9453Z" fill="black"/>
<path d="M302.746 81.2633C301.007 87.9624 300.331 91.9753 296.228 94.7852C290.056 99.0123 282.294 94.2743 281.989 87.1961C281.725 80.8183 284.609 70.9303 291.778 69.5213C293.357 69.2047 294.99 69.297 296.523 69.7893C298.056 70.2816 299.437 71.1577 300.536 72.3342C301.635 73.5108 302.415 74.9487 302.802 76.5115C303.188 78.0743 303.169 79.71 302.746 81.2633Z" fill="#FFC3BD"/>
<path d="M301.361 71.6719C298.42 73.7648 294.769 82.6311 302.185 86.1908C308.843 80.3404 307.121 71.6719 301.361 71.6719Z" fill="#263238"/>
<path d="M303.058 72.7345C304.319 66.9005 289.594 63.8847 284.93 70.6992C283.348 74.8027 302.168 78.4283 303.058 72.7345Z" fill="#263238"/>
<path d="M292.073 88.3743C290.543 87.6825 288.903 87.2669 287.228 87.1465C287.204 87.1465 287.181 87.1512 287.16 87.1604C287.138 87.1696 287.119 87.1831 287.103 87.2C287.086 87.217 287.074 87.2371 287.066 87.259C287.057 87.281 287.054 87.3044 287.055 87.3278C287.064 87.381 287.091 87.4296 287.132 87.4655C287.172 87.5014 287.223 87.5226 287.277 87.5255C288.883 87.6416 290.456 88.0376 291.925 88.6956C291.971 88.7159 292.023 88.7178 292.07 88.7009C292.118 88.6841 292.157 88.6498 292.18 88.605C292.189 88.5829 292.194 88.5591 292.193 88.5352C292.193 88.5113 292.187 88.4878 292.177 88.4661C292.167 88.4445 292.153 88.4251 292.135 88.4093C292.117 88.3935 292.096 88.3816 292.073 88.3743Z" fill="#263238"/>
<path d="M304.352 88.5886C303.158 89.856 301.511 90.5996 299.771 90.6568C297.464 90.7062 296.879 88.5062 297.991 86.6274C298.996 84.9794 301.403 82.87 303.496 83.7105C305.588 84.5509 305.803 87.0147 304.352 88.5886Z" fill="#FFC3BD"/>
<path d="M292.089 81.1477C291.982 81.6998 291.603 82.0953 291.265 82.0211C290.928 81.947 290.705 81.4443 290.812 80.8923C290.919 80.3402 291.298 79.9529 291.636 80.0683C291.974 80.1836 292.197 80.5709 292.089 81.1477Z" fill="#263238"/>
<path d="M285.855 79.9366C285.748 80.4887 285.369 80.876 285.031 80.8101C284.693 80.7442 284.462 80.2333 284.569 79.6812C284.677 79.1291 285.056 78.7336 285.393 78.8078C285.731 78.8819 285.929 79.3846 285.855 79.9366Z" fill="#263238"/>
<path d="M287.782 80.5708C286.794 82.1304 285.596 83.5471 284.223 84.7815C285.047 85.8774 286.868 85.6631 286.868 85.6631L287.782 80.5708Z" fill="#ED847E"/>
<path d="M291.192 77.9423C291.251 77.9294 291.312 77.9317 291.37 77.949C291.427 77.9663 291.48 77.998 291.522 78.0412C291.786 78.3609 292.123 78.6135 292.504 78.7782C292.885 78.9429 293.299 79.0151 293.714 78.9888C293.801 78.9769 293.889 78.9995 293.96 79.0518C294.031 79.1042 294.078 79.1821 294.093 79.2689C294.1 79.3118 294.098 79.3556 294.087 79.3978C294.077 79.44 294.058 79.4796 294.032 79.5142C294.006 79.5489 293.973 79.5779 293.935 79.5995C293.897 79.621 293.856 79.6347 293.812 79.6397C293.289 79.6818 292.764 79.5984 292.279 79.3963C291.795 79.1942 291.366 78.8793 291.027 78.4779C290.996 78.4479 290.972 78.4121 290.955 78.3724C290.938 78.3328 290.93 78.2902 290.93 78.2472C290.93 78.2041 290.938 78.1615 290.955 78.1219C290.972 78.0823 290.996 78.0464 291.027 78.0164C291.076 77.9801 291.133 77.9548 291.192 77.9423Z" fill="#263238"/>
<path d="M283.926 76.113C283.857 76.0988 283.796 76.0609 283.753 76.0059C283.725 75.9715 283.704 75.932 283.692 75.8895C283.68 75.8471 283.677 75.8026 283.682 75.7588C283.688 75.715 283.702 75.6728 283.724 75.6345C283.746 75.5963 283.775 75.5628 283.81 75.5362C284.215 75.2045 284.693 74.974 285.205 74.8636C285.716 74.7533 286.247 74.7664 286.752 74.9017C286.836 74.93 286.905 74.9898 286.945 75.0683C286.985 75.1468 286.992 75.2378 286.966 75.322C286.933 75.4015 286.872 75.4663 286.795 75.5042C286.718 75.5421 286.629 75.5506 286.546 75.528C286.143 75.4253 285.722 75.4195 285.317 75.5112C284.911 75.6029 284.533 75.7893 284.214 76.0553C284.176 76.0899 284.129 76.1135 284.078 76.1237C284.027 76.1338 283.975 76.1301 283.926 76.113Z" fill="#263238"/>
<path d="M310.523 163.433L303.445 163.383L307.104 171.508C307.104 171.508 313.144 170.214 312.814 166.935L310.523 163.433Z" fill="#FFC3BD"/>
<path d="M299.846 168.962L301.008 171.253C301.32 171.862 301.849 172.334 302.491 172.575C303.132 172.815 303.841 172.808 304.477 172.554L307.106 171.508L303.447 163.383L300.637 165.526C300.123 165.914 299.761 166.472 299.617 167.1C299.472 167.728 299.553 168.387 299.846 168.962Z" fill="#FFC3BD"/>
<path d="M256.644 157.45C255.788 157.441 254.955 157.183 254.244 156.707C253.534 156.231 252.978 155.558 252.644 154.771C252.311 153.983 252.215 153.116 252.367 152.274C252.52 151.433 252.915 150.654 253.504 150.034C256.652 146.788 259.495 144.266 262 142.066C268.048 136.735 270.132 134.65 269.935 130.654C269.639 128.188 269.115 125.755 268.369 123.386C266.564 116.753 264.521 109.246 268.023 103.223C269.902 99.9844 273.091 97.7678 277.507 96.6307C278.624 96.3657 279.8 96.5491 280.783 97.1417C281.766 97.7342 282.477 98.6886 282.764 99.7998C283.051 100.911 282.891 102.09 282.318 103.085C281.745 104.079 280.804 104.809 279.699 105.118C276.593 105.942 275.843 107.203 275.579 107.631C273.931 110.474 275.521 116.357 276.807 121.079C277.738 124.056 278.362 127.121 278.669 130.225C279.081 138.671 274.096 143.071 267.776 148.642C265.394 150.751 262.683 153.141 259.766 156.14C259.36 156.556 258.874 156.886 258.337 157.111C257.801 157.336 257.225 157.451 256.644 157.45Z" fill="#8A00FA"/>
<path d="M266.259 94.4968L273.115 92.7417L271.516 101.509C271.516 101.509 265.344 101.699 264.883 98.4438L266.259 94.4968Z" fill="#FFC3BD"/>
<path d="M277.926 97.3891L277.399 99.6798C277.237 100.38 276.819 100.993 276.228 101.4C275.636 101.808 274.913 101.979 274.202 101.88L271.516 101.509L273.114 92.7417L276.262 94.1013C276.88 94.3677 277.386 94.8427 277.69 95.4435C277.994 96.0444 278.078 96.7329 277.926 97.3891Z" fill="#FFC3BD"/>
<path d="M254.192 143.033L254.005 142.846C253.172 142.013 251.821 142.013 250.987 142.847L226.689 167.154C225.856 167.987 225.856 169.338 226.689 170.172L226.876 170.358C227.709 171.192 229.061 171.191 229.894 170.358L254.192 146.051C255.026 145.217 255.026 143.866 254.192 143.033Z" fill="#263238"/>
<path d="M266.856 155.68L266.669 155.493C265.836 154.66 264.485 154.66 263.651 155.493L239.348 179.796C238.515 180.63 238.515 181.981 239.348 182.814L239.535 183.001C240.368 183.834 241.72 183.834 242.553 183.001L266.856 158.698C267.689 157.865 267.689 156.513 266.856 155.68Z" fill="#263238"/>
<path d="M234.355 152.081L251.48 134.956C252.028 134.408 252.68 133.972 253.396 133.676C254.113 133.379 254.882 133.226 255.657 133.226C256.433 133.226 257.202 133.379 257.918 133.676C258.635 133.972 259.286 134.408 259.835 134.956L274.804 149.925C275.352 150.473 275.787 151.125 276.084 151.841C276.381 152.558 276.534 153.327 276.534 154.102C276.534 154.878 276.381 155.647 276.084 156.363C275.787 157.08 275.352 157.731 274.804 158.28L257.679 175.404L234.355 152.081Z" fill="#8A00FA"/>
<path opacity="0.7" d="M234.355 152.081L251.48 134.956C252.028 134.408 252.68 133.972 253.396 133.676C254.113 133.379 254.882 133.226 255.657 133.226C256.433 133.226 257.202 133.379 257.918 133.676C258.635 133.972 259.286 134.408 259.835 134.956L274.804 149.925C275.352 150.473 275.787 151.125 276.084 151.841C276.381 152.558 276.534 153.327 276.534 154.102C276.534 154.878 276.381 155.647 276.084 156.363C275.787 157.08 275.352 157.731 274.804 158.28L257.679 175.404L234.355 152.081Z" fill="white"/>
<path opacity="0.2" d="M240.261 146.128L234.328 152.053L257.656 175.38L263.58 169.448C263.344 168.758 262.952 168.132 262.435 167.618L242.09 147.315C241.581 146.782 240.955 146.376 240.261 146.128Z" fill="#8A00FA"/>
<path d="M233.329 149.065L232.903 149.491C231.095 151.299 231.095 154.231 232.903 156.04L253.675 176.811C255.484 178.62 258.416 178.62 260.224 176.811L260.65 176.386C262.458 174.578 262.458 171.645 260.65 169.837L239.878 149.065C238.069 147.257 235.137 147.257 233.329 149.065Z" fill="#8A00FA"/>
<path d="M297.895 0.609863H114.11C110.278 0.609863 107.172 3.71616 107.172 7.54796V41.0683C107.172 44.9002 110.278 48.0064 114.11 48.0064H297.895C301.727 48.0064 304.833 44.9002 304.833 41.0683V7.54796C304.833 3.71616 301.727 0.609863 297.895 0.609863Z" fill="white"/>
<path d="M297.894 48.6161H114.142C112.14 48.6139 110.222 47.818 108.807 46.403C107.392 44.988 106.596 43.0694 106.594 41.0682V7.54786C106.596 5.54671 107.392 3.62815 108.807 2.21312C110.222 0.7981 112.14 0.00218109 114.142 0H297.894C299.895 0.00218109 301.814 0.7981 303.229 2.21312C304.644 3.62815 305.44 5.54671 305.442 7.54786V41.0682C305.44 43.0694 304.644 44.988 303.229 46.403C301.814 47.818 299.895 48.6139 297.894 48.6161ZM114.142 1.21952C112.464 1.2217 110.856 1.88914 109.669 3.07546C108.483 4.26178 107.815 5.87015 107.813 7.54786V41.0682C107.815 42.746 108.483 44.3543 109.669 45.5406C110.856 46.727 112.464 47.3944 114.142 47.3966H297.894C299.572 47.3944 301.18 46.727 302.366 45.5406C303.553 44.3543 304.22 42.746 304.222 41.0682V7.54786C304.22 5.87015 303.553 4.26178 302.366 3.07546C301.18 1.88914 299.572 1.2217 297.894 1.21952H114.142Z" fill="#263238"/>
<g opacity="0.4">
<path d="M123.418 32.5478V14.7164H130.142C131.051 14.6993 131.96 14.7544 132.861 14.8812C133.645 14.9944 134.396 15.2754 135.061 15.7052C135.678 16.1453 136.17 16.739 136.487 17.4274C136.968 18.449 137.138 19.5893 136.977 20.707C136.816 21.8246 136.33 22.8703 135.58 23.7145C134.619 24.7582 132.878 25.2829 130.356 25.2884H125.775V32.5396L123.418 32.5478ZM125.775 23.1954H130.389C131.535 23.3125 132.685 23.0206 133.636 22.3714C133.963 22.069 134.219 21.6979 134.386 21.2847C134.552 20.8716 134.625 20.4266 134.6 19.9818C134.619 19.2977 134.42 18.6252 134.031 18.0619C133.672 17.5469 133.145 17.1737 132.54 17.0071C131.814 16.878 131.076 16.8255 130.34 16.8506H125.775V23.1954Z" fill="#263238"/>
<path d="M148.189 30.9577C147.494 31.5689 146.704 32.0616 145.849 32.4162C145.076 32.7001 144.258 32.8425 143.435 32.8364C142.244 32.9193 141.067 32.5483 140.139 31.7982C139.768 31.4652 139.474 31.0553 139.277 30.5971C139.081 30.1388 138.987 29.6432 139.002 29.1449C138.993 28.5383 139.141 27.9397 139.43 27.4063C139.714 26.9178 140.106 26.5007 140.575 26.1867C141.062 25.866 141.596 25.6241 142.157 25.4699C142.799 25.3224 143.448 25.2123 144.102 25.1403C145.426 25.0197 146.734 24.7686 148.008 24.3904C148.008 24.0938 148.008 23.896 148.008 23.8219C148.045 23.4815 148.008 23.1372 147.902 22.8119C147.795 22.4866 147.621 22.1876 147.39 21.9349C146.683 21.397 145.804 21.1335 144.918 21.1933C144.12 21.1355 143.324 21.3223 142.635 21.7289C142.068 22.2291 141.685 22.9051 141.548 23.6488L139.405 23.3522C139.553 22.5493 139.883 21.7911 140.369 21.1356C140.88 20.5282 141.551 20.077 142.306 19.8337C143.25 19.5138 144.243 19.3604 145.239 19.3805C146.15 19.3493 147.06 19.4804 147.925 19.7678C148.489 19.9279 148.996 20.2456 149.385 20.6834C149.775 21.1213 150.032 21.6612 150.126 22.2398C150.217 22.9086 150.253 23.5838 150.233 24.2586V27.1755C150.2 28.4654 150.247 29.756 150.373 31.0401C150.472 31.5828 150.659 32.1059 150.925 32.5892H148.642C148.392 32.0781 148.238 31.5249 148.189 30.9577ZM148.008 26.0631C146.852 26.4775 145.652 26.7541 144.432 26.8871C143.779 26.9572 143.137 27.1066 142.52 27.3321C142.167 27.4755 141.865 27.7225 141.655 28.0407C141.412 28.4288 141.315 28.8905 141.382 29.3434C141.448 29.7963 141.673 30.2108 142.017 30.5127C142.568 30.9414 143.258 31.1499 143.954 31.0978C144.739 31.1129 145.514 30.9226 146.203 30.5457C146.833 30.2043 147.34 29.6741 147.654 29.0295C147.923 28.3345 148.044 27.5906 148.008 26.8459V26.0631Z" fill="#263238"/>
<path d="M153.213 33.6028L155.339 33.9159C155.358 34.1929 155.433 34.4631 155.561 34.7098C155.688 34.9564 155.865 35.1742 156.08 35.3497C156.735 35.7914 157.517 36.0056 158.305 35.9594C159.133 36.0135 159.957 35.7997 160.654 35.3497C161.213 34.9312 161.609 34.331 161.774 33.6522C161.922 32.7233 161.974 31.7819 161.931 30.8424C161.499 31.3702 160.952 31.7929 160.333 32.0784C159.713 32.3639 159.037 32.5048 158.355 32.4904C157.564 32.5295 156.775 32.3751 156.057 32.0406C155.339 31.706 154.713 31.2014 154.235 30.5704C153.243 29.2397 152.727 27.615 152.768 25.956C152.755 24.7845 152.985 23.623 153.444 22.5447C153.837 21.5669 154.511 20.727 155.38 20.1303C156.271 19.5601 157.314 19.2728 158.371 19.3063C159.1 19.2967 159.82 19.4588 160.474 19.7794C161.129 20.1001 161.698 20.5704 162.137 21.1521V19.5947H164.156V30.7929C164.245 32.2451 164.037 33.7002 163.546 35.0695C163.122 35.9237 162.438 36.6218 161.593 37.0636C160.574 37.5819 159.439 37.8315 158.297 37.7887C156.971 37.8517 155.66 37.4878 154.556 36.7505C154.082 36.384 153.71 35.9023 153.475 35.3514C153.24 34.8004 153.15 34.1984 153.213 33.6028ZM155.017 25.8407C154.905 27.1578 155.264 28.4721 156.031 29.5487C156.337 29.922 156.723 30.2213 157.162 30.4239C157.6 30.6265 158.078 30.7274 158.561 30.7188C159.042 30.7254 159.519 30.6245 159.957 30.4235C160.394 30.2225 160.782 29.9265 161.09 29.5569C161.859 28.5059 162.222 27.2124 162.112 25.9148C162.21 24.6339 161.835 23.3615 161.057 22.3387C160.753 21.9607 160.368 21.6561 159.93 21.4478C159.492 21.2395 159.013 21.1328 158.528 21.1356C158.053 21.1341 157.584 21.2401 157.156 21.4456C156.728 21.6511 156.352 21.9508 156.056 22.3222C155.293 23.336 154.924 24.592 155.017 25.8572V25.8407Z" fill="#263238"/>
<path d="M176.333 28.3866L178.599 28.6668C178.302 29.8879 177.603 30.9735 176.614 31.7486C175.534 32.509 174.233 32.8914 172.914 32.8362C172.083 32.8863 171.252 32.7603 170.474 32.4663C169.695 32.1724 168.988 31.7171 168.398 31.1306C167.227 29.7759 166.635 28.015 166.75 26.2278C166.628 24.392 167.218 22.5797 168.398 21.1684C168.953 20.5761 169.629 20.1094 170.379 19.7996C171.13 19.4898 171.938 19.344 172.749 19.3721C173.54 19.3446 174.328 19.4879 175.059 19.7922C175.79 20.0965 176.446 20.5546 176.984 21.1354C178.151 22.5092 178.741 24.2806 178.632 26.0794C178.632 26.2113 178.632 26.409 178.632 26.6645H169C168.984 27.8733 169.412 29.0458 170.203 29.9605C170.549 30.3279 170.968 30.6184 171.434 30.8129C171.9 31.0074 172.401 31.1016 172.906 31.0894C173.64 31.1079 174.361 30.885 174.957 30.4549C175.616 29.9213 176.096 29.1999 176.333 28.3866ZM169.148 24.8517H176.333C176.315 23.9634 176.027 23.1016 175.509 22.3797C175.185 21.972 174.771 21.6452 174.299 21.425C173.827 21.2048 173.311 21.0972 172.79 21.1107C172.322 21.0992 171.856 21.1831 171.421 21.3573C170.986 21.5316 170.591 21.7925 170.261 22.1242C169.54 22.8504 169.132 23.829 169.123 24.8517H169.148Z" fill="#263238"/>
<path d="M188.242 32.5481V19.5948H190.212V21.4324C190.653 20.749 191.265 20.1931 191.988 19.8201C192.711 19.4471 193.519 19.27 194.332 19.3064C195.07 19.2975 195.802 19.4406 196.482 19.7267C197.063 19.95 197.57 20.3292 197.949 20.8226C198.289 21.3183 198.522 21.8796 198.633 22.4706C198.727 23.1751 198.766 23.886 198.748 24.5965V32.5399H196.565V24.6872C196.592 24.0101 196.505 23.3334 196.309 22.6848C196.132 22.2429 195.813 21.8721 195.403 21.6301C194.938 21.3591 194.408 21.2222 193.87 21.2346C192.982 21.2182 192.121 21.5358 191.456 22.1245C190.78 22.7178 190.442 23.8384 190.442 25.4947V32.5481H188.242Z" fill="#263238"/>
<path d="M201.288 26.0879C201.288 23.6983 201.953 21.9267 203.282 20.7731C204.413 19.8101 205.86 19.2994 207.344 19.3393C208.151 19.3097 208.956 19.4499 209.705 19.7508C210.455 20.0517 211.132 20.5067 211.695 21.0862C212.289 21.7343 212.747 22.4946 213.043 23.3224C213.339 24.1503 213.466 25.0289 213.417 25.9066C213.478 27.2548 213.221 28.5984 212.667 29.8289C212.179 30.7675 211.421 31.5393 210.492 32.0454C209.539 32.5846 208.464 32.8684 207.369 32.8694C206.553 32.9084 205.738 32.7735 204.978 32.4738C204.218 32.174 203.53 31.7163 202.961 31.1308C202.364 30.4413 201.909 29.6411 201.622 28.7758C201.335 27.9105 201.222 26.9972 201.288 26.0879ZM203.537 26.0879C203.438 27.4162 203.821 28.7359 204.617 29.8042C204.951 30.2003 205.369 30.5169 205.841 30.7308C206.313 30.9446 206.826 31.0503 207.344 31.0402C207.861 31.0504 208.373 30.9438 208.842 30.7284C209.312 30.5129 209.726 30.1942 210.055 29.7959C210.863 28.7082 211.25 27.3645 211.143 26.0138C211.239 24.7112 210.849 23.4193 210.047 22.3881C209.708 22.0014 209.291 21.6914 208.823 21.4791C208.354 21.2667 207.846 21.1569 207.332 21.1569C206.818 21.1569 206.31 21.2667 205.841 21.4791C205.373 21.6914 204.956 22.0014 204.617 22.3881C203.819 23.4492 203.432 24.7637 203.529 26.0879H203.537Z" fill="#263238"/>
<path d="M220.732 30.5866L221.053 32.523C220.512 32.6456 219.96 32.7119 219.405 32.7207C218.768 32.7521 218.133 32.6217 217.559 32.3417C217.152 32.119 216.826 31.7728 216.628 31.3529C216.401 30.5103 216.312 29.6366 216.365 28.7655V21.3495H214.758V19.5944H216.365V16.4302L218.54 15.1118V19.5944H220.74V21.3001H218.54V28.8562C218.516 29.2607 218.555 29.6665 218.655 30.0592C218.735 30.2352 218.867 30.3821 219.034 30.4794C219.265 30.6019 219.524 30.6589 219.784 30.6443C220.101 30.6462 220.418 30.6269 220.732 30.5866Z" fill="#263238"/>
<path d="M230.323 32.5479V21.3332H228.387V19.5946H230.323V18.2515C230.291 17.5922 230.369 16.9321 230.554 16.2986C230.762 15.7272 231.153 15.2406 231.666 14.9143C232.343 14.524 233.119 14.3406 233.899 14.3869C234.586 14.3955 235.27 14.4672 235.943 14.6011L235.613 16.5128C235.187 16.4328 234.754 16.3914 234.32 16.3892C233.812 16.3418 233.306 16.4957 232.91 16.8177C232.585 17.2803 232.438 17.8455 232.498 18.408V19.5946H235.02V21.3003H232.498V32.5479H230.323Z" fill="#263238"/>
<path d="M235.901 26.0879C235.901 23.6983 236.566 21.9267 237.895 20.7731C239.029 19.8102 240.479 19.2997 241.966 19.3393C242.773 19.3097 243.577 19.4499 244.327 19.7508C245.076 20.0517 245.754 20.5067 246.316 21.0862C246.908 21.7356 247.363 22.4965 247.656 23.3243C247.949 24.1521 248.073 25.03 248.022 25.9066C248.086 27.2541 247.832 28.5976 247.281 29.8289C246.791 30.7699 246.031 31.5422 245.097 32.0454C244.147 32.5846 243.074 32.8685 241.982 32.8694C241.167 32.9052 240.352 32.7689 239.593 32.4694C238.833 32.1698 238.145 31.7137 237.574 31.1308C236.977 30.4413 236.523 29.6411 236.236 28.7758C235.949 27.9105 235.835 26.9972 235.901 26.0879ZM238.159 26.0879C238.055 27.4167 238.438 28.7379 239.238 29.8042C239.576 30.1935 239.994 30.5058 240.463 30.7197C240.932 30.9337 241.442 31.0445 241.958 31.0445C242.473 31.0445 242.983 30.9337 243.452 30.7197C243.921 30.5058 244.339 30.1935 244.677 29.8042C245.478 28.7136 245.861 27.3714 245.756 26.022C245.851 24.7209 245.464 23.4305 244.668 22.3964C244.33 22.0096 243.912 21.6996 243.444 21.4873C242.976 21.2749 242.468 21.1651 241.953 21.1651C241.439 21.1651 240.931 21.2749 240.463 21.4873C239.995 21.6996 239.577 22.0096 239.238 22.3964C238.433 23.4513 238.04 24.764 238.134 26.0879H238.159Z" fill="#263238"/>
<path d="M259.041 32.548V30.6528C258.602 31.3423 257.991 31.906 257.269 32.2887C256.547 32.6715 255.738 32.8602 254.921 32.8364C254.186 32.8455 253.458 32.6965 252.786 32.3997C252.209 32.1709 251.703 31.7927 251.32 31.3038C250.979 30.8092 250.749 30.2472 250.644 29.6558C250.537 28.9801 250.493 28.2961 250.512 27.6123V19.5947H252.704V26.7635C252.677 27.535 252.721 28.3073 252.836 29.0707C252.954 29.6144 253.264 30.0973 253.709 30.4304C254.19 30.7703 254.769 30.9439 255.357 30.9248C256.008 30.925 256.646 30.7484 257.203 30.4139C257.756 30.1069 258.189 29.6219 258.431 29.0378C258.705 28.2266 258.825 27.3715 258.785 26.5163V19.5947H260.977V32.548H259.041Z" fill="#263238"/>
<path d="M264.43 32.5481V19.5948H266.399V21.4324C266.84 20.749 267.453 20.1931 268.176 19.8201C268.898 19.4471 269.706 19.27 270.519 19.3064C271.257 19.2975 271.989 19.4406 272.67 19.7267C273.25 19.95 273.758 20.3292 274.136 20.8226C274.477 21.3183 274.71 21.8796 274.82 22.4706C274.915 23.1751 274.953 23.886 274.936 24.5965V32.5399H272.744V24.6872C272.771 24.0101 272.685 23.3334 272.488 22.6848C272.311 22.2429 271.992 21.8721 271.582 21.6301C271.118 21.3591 270.587 21.2222 270.049 21.2346C269.162 21.2198 268.301 21.5372 267.635 22.1245C266.959 22.7178 266.622 23.8384 266.622 25.4947V32.5481H264.43Z" fill="#263238"/>
<path d="M286.669 32.5477V30.8997C286.294 31.515 285.76 32.018 285.123 32.3559C284.487 32.6937 283.771 32.8539 283.051 32.8196C282.045 32.8338 281.058 32.5469 280.217 31.9956C279.335 31.4076 278.638 30.582 278.206 29.6143C277.717 28.5128 277.475 27.3174 277.498 26.1123C277.48 24.9114 277.699 23.7188 278.14 22.602C278.514 21.6125 279.192 20.7671 280.077 20.1877C280.935 19.6334 281.939 19.3466 282.961 19.3637C283.683 19.351 284.398 19.5211 285.037 19.8581C285.625 20.1617 286.133 20.5992 286.52 21.1353V14.7163H288.696V32.5477H286.669ZM279.747 26.104C279.647 27.4248 280.018 28.7383 280.794 29.812C281.086 30.1901 281.461 30.497 281.889 30.7096C282.317 30.9223 282.788 31.0352 283.266 31.0398C283.74 31.0447 284.21 30.9411 284.638 30.7369C285.066 30.5326 285.443 30.2332 285.738 29.8615C286.482 28.8248 286.836 27.5577 286.735 26.2853C286.848 24.9077 286.487 23.5328 285.713 22.3878C285.419 22.0008 285.038 21.6876 284.602 21.4731C284.166 21.2586 283.686 21.1486 283.2 21.1518C282.723 21.1421 282.252 21.2445 281.822 21.4506C281.393 21.6567 281.018 21.9608 280.728 22.3383C279.982 23.4455 279.636 24.7738 279.747 26.104Z" fill="#263238"/>
</g>
<path d="M206 72.3557C214.437 72.3557 221.277 65.516 221.277 57.0788C221.277 48.6415 214.437 41.8018 206 41.8018C197.562 41.8018 190.723 48.6415 190.723 57.0788C190.723 65.516 197.562 72.3557 206 72.3557Z" fill="#263238"/>
<path d="M206.003 70.0812C213.184 70.0812 219.005 64.2596 219.005 57.0784C219.005 49.8972 213.184 44.0757 206.003 44.0757C198.822 44.0757 193 49.8972 193 57.0784C193 64.2596 198.822 70.0812 206.003 70.0812Z" fill="white"/>
<path d="M214.795 54.277H208.698L213.815 39.1401L197.211 59.8803H203.309L198.192 75.0172L214.795 54.277Z" fill="#8A00FA"/>
<path d="M215.315 68.2046L217.133 66.3867L196.687 45.9413L194.869 47.7592L215.315 68.2046Z" fill="#263238"/>
</svg>
