<svg width="47" height="47" viewBox="0 0 47 47" fill="none" xmlns="http://www.w3.org/2000/svg">
<circle cx="23.5" cy="23.5" r="23.5" fill="#E6F9FF"/>
<path d="M23.2664 39.2614C31.5468 39.2614 38.2594 32.5488 38.2594 24.2684C38.2594 15.988 31.5468 9.27539 23.2664 9.27539C14.986 9.27539 8.27344 15.988 8.27344 24.2684C8.27344 32.5488 14.986 39.2614 23.2664 39.2614Z" fill="#FFE093"/>
<path d="M23.2677 27.0621C26.3539 27.0621 28.8557 26.0869 28.8557 24.8841C28.8557 23.6812 26.3539 22.7061 23.2677 22.7061C20.1815 22.7061 17.6797 23.6812 17.6797 24.8841C17.6797 26.0869 20.1815 27.0621 23.2677 27.0621Z" fill="#F97AA4"/>
<path d="M23.2664 36.3792C15.4674 36.3792 9.06544 30.4281 8.33944 22.8271C8.29544 23.3001 8.27344 23.7841 8.27344 24.2681C8.27344 32.5512 14.9834 39.2611 23.2664 39.2611C31.5494 39.2611 38.2594 32.5512 38.2594 24.2681C38.2594 23.7841 38.2374 23.3001 38.1934 22.8271C37.4674 30.4281 31.0654 36.3792 23.2664 36.3792Z" fill="#FFCA6B"/>
<path d="M12.0273 22.8271H20.4973V25.7091H12.0273V22.8271Z" fill="white"/>
<path d="M26.0391 22.8271H34.5091V25.7091H26.0391V22.8271Z" fill="white"/>
<path d="M13.8535 12.9487C13.9745 12.8497 14.1065 12.7507 14.2275 12.6517C14.3485 12.5637 14.3704 12.3877 14.2714 12.2667C14.1834 12.1457 14.0074 12.1237 13.8754 12.2117C13.7434 12.3107 13.6224 12.4097 13.4904 12.5197C13.3694 12.6187 13.3585 12.7947 13.4575 12.9157C13.5675 13.0257 13.7435 13.0477 13.8535 12.9487Z" fill="black"/>
<path d="M23.268 9C20.43 9 17.669 9.781 15.271 11.266C15.139 11.343 15.106 11.519 15.183 11.651C15.26 11.783 15.436 11.816 15.557 11.739C17.867 10.309 20.529 9.561 23.268 9.561C31.419 9.561 38.052 16.227 37.986 24.4C37.92 32.408 31.386 38.942 23.378 39.008C15.216 39.052 8.55 32.419 8.55 24.268C8.55 20.825 9.76 17.492 11.949 14.852C12.048 14.731 12.037 14.566 11.916 14.467C11.795 14.368 11.619 14.379 11.531 14.5C9.243 17.239 8 20.693 8 24.268C8 32.727 14.919 39.602 23.389 39.536C31.694 39.47 38.481 32.694 38.536 24.389C38.602 15.908 31.727 9 23.268 9Z" fill="black"/>
<path d="M11.9273 23.1025H17.4823C17.4933 24.0925 17.7463 24.8845 18.0433 24.8845C18.3513 24.8845 18.6043 24.0925 18.6043 23.1025H20.3643C20.6943 23.1025 21.0133 22.9595 21.2223 22.7065C21.3433 22.5635 21.2993 22.3435 21.1233 22.2665C21.0133 22.2225 20.8813 22.2555 20.8043 22.3435C20.7933 22.3545 20.7823 22.3765 20.7713 22.3765C20.6613 22.4755 20.5183 22.5305 20.3643 22.5305H11.9273C11.7733 22.5305 11.6523 22.6515 11.6523 22.8055C11.6523 22.9815 11.7733 23.1025 11.9273 23.1025Z" fill="black"/>
<path d="M11.9273 25.9729H20.4413C20.5953 25.9729 20.7163 25.8519 20.7163 25.6979C20.7163 25.5439 20.5953 25.4229 20.4413 25.4229H11.9273C11.7733 25.4229 11.6523 25.5439 11.6523 25.6979C11.6523 25.8519 11.7733 25.9729 11.9273 25.9729Z" fill="black"/>
<path d="M21.4326 20.7586C21.2896 20.7586 21.1686 20.8686 21.1576 21.0116V21.0336C21.1466 21.0776 21.1136 21.1216 21.0806 21.1546C21.0256 21.2096 20.9486 21.2316 20.8716 21.2206L14.0296 20.2636C13.8756 20.2416 13.7436 20.3516 13.7216 20.4946C13.6996 20.6486 13.8096 20.7806 13.9526 20.8026L20.8056 21.7486C20.8386 21.7486 20.8826 21.7596 20.9156 21.7596C21.1136 21.7596 21.3006 21.6936 21.4436 21.5616C21.5536 21.4626 21.6306 21.3416 21.6746 21.2096C21.6856 21.1876 21.6966 21.1216 21.6966 21.0556C21.7186 20.8906 21.5976 20.7586 21.4326 20.7586Z" fill="black"/>
<path d="M34.6086 22.5522H26.1606C26.0066 22.5522 25.8636 22.4972 25.7536 22.3982C25.7426 22.3872 25.7316 22.3762 25.7206 22.3652C25.6436 22.2662 25.5116 22.2332 25.4016 22.2882C25.2256 22.3652 25.1816 22.5852 25.3026 22.7282C25.5116 22.9702 25.8196 23.1242 26.1606 23.1242H27.9206C27.9316 24.1142 28.1736 24.9062 28.4816 24.9062C28.7896 24.9062 29.0426 24.1142 29.0426 23.1242H34.5976C34.7516 23.1242 34.8726 23.0032 34.8726 22.8492C34.8836 22.6732 34.7626 22.5522 34.6086 22.5522Z" fill="black"/>
<path d="M34.6093 25.4229H26.0953C25.9413 25.4229 25.8203 25.5439 25.8203 25.6979C25.8203 25.8519 25.9413 25.9729 26.0953 25.9729H34.6093C34.7633 25.9729 34.8843 25.8519 34.8843 25.6979C34.8843 25.5439 34.7633 25.4229 34.6093 25.4229Z" fill="black"/>
<path d="M32.5093 20.2638L25.6563 21.2098C25.5793 21.2208 25.5133 21.1988 25.4473 21.1438C25.4143 21.1108 25.3813 21.0668 25.3703 21.0228C25.3703 21.0228 25.3703 21.0118 25.3703 21.0008C25.3593 20.8578 25.2383 20.7478 25.1063 20.7478C24.9523 20.7478 24.8203 20.8798 24.8423 21.0448C24.8533 21.1108 24.8533 21.1768 24.8643 21.1988C24.9083 21.3308 24.9853 21.4518 25.0953 21.5508C25.2383 21.6828 25.4363 21.7488 25.6233 21.7488C25.6563 21.7488 25.7003 21.7488 25.7333 21.7378L32.5863 20.7918C32.7403 20.7698 32.8393 20.6268 32.8173 20.4838C32.7953 20.3408 32.6633 20.2418 32.5093 20.2638Z" fill="black"/>
<path d="M19.3077 29.9218C19.2417 29.7678 19.0547 29.7128 18.9117 29.8008C18.8017 29.8778 18.7577 30.0208 18.8127 30.1418C18.8897 30.3178 18.9777 30.5818 18.9777 30.8568C18.9777 31.1318 18.8897 31.3958 18.8127 31.5718C18.7577 31.6928 18.8017 31.8358 18.9117 31.9128C19.0547 32.0008 19.2417 31.9458 19.3077 31.7918C19.3847 31.6268 19.4617 31.3848 19.5057 31.1208H27.0077C27.1617 31.1208 27.2827 30.9998 27.2827 30.8458C27.2827 30.6918 27.1617 30.5708 27.0077 30.5708H19.4947C19.4617 30.3178 19.3847 30.0868 19.3077 29.9218Z" fill="black"/>
</svg>
