<svg width="248" height="240" viewBox="0 0 248 240" fill="none" xmlns="http://www.w3.org/2000/svg">
<circle cx="127.289" cy="120.667" r="94" fill="#E8CCFF"/>
<circle cx="237.91" cy="36.667" r="10" fill="#E8CCFF"/>
<circle cx="26.6654" cy="13.3333" r="13.3333" fill="#E8CCFF"/>
<circle cx="13.3346" cy="177.334" r="6.66667" fill="#E8CCFF"/>
<circle cx="220.665" cy="214" r="3.33333" fill="#E8CCFF"/>
<circle cx="142.001" cy="6.00033" r="3.33333" fill="#E8CCFF"/>
<circle cx="83.3346" cy="235.334" r="4.66667" fill="#E8CCFF"/>
<circle cx="162.665" cy="228" r="1.33333" fill="#E8CCFF"/>
<circle cx="227.333" cy="147.333" r="3.33333" fill="#E8CCFF"/>
<circle cx="1.33333" cy="100" r="1.33333" fill="#E8CCFF"/>
<path d="M183.549 212.785H72.9727V184.192C72.9727 173.165 82.0537 164.226 93.2564 164.226H163.266C174.468 164.226 183.55 173.165 183.55 184.192L183.549 212.785Z" fill="#A4C9FF"/>
<path d="M183.549 214.261H72.9727C72.1447 214.261 71.4727 213.6 71.4727 212.785V184.192C71.4727 172.368 81.2444 162.749 93.2557 162.749H163.266C175.278 162.749 185.05 172.368 185.05 184.192V212.785C185.049 213.6 184.378 214.261 183.549 214.261ZM74.4727 211.308H182.05V184.192C182.05 173.997 173.623 165.702 163.266 165.702H93.2557C82.8982 165.702 74.4727 173.997 74.4727 184.192V211.308Z" fill="black"/>
<path d="M128.26 160.525C121.722 160.525 115.529 159.079 109.984 156.504V170.516C109.984 180.451 118.167 188.505 128.26 188.505C138.352 188.505 146.535 180.451 146.535 170.516V156.504C140.99 159.079 134.797 160.525 128.26 160.525Z" fill="#F9CFCF"/>
<path d="M128.26 189.982C117.355 189.982 108.484 181.25 108.484 170.516V156.504C108.484 155.998 108.748 155.528 109.181 155.257C109.616 154.987 110.16 154.954 110.625 155.169C116.17 157.744 122.103 159.05 128.26 159.05C134.418 159.05 140.351 157.744 145.896 155.169C146.361 154.954 146.905 154.987 147.34 155.257C147.773 155.528 148.036 155.999 148.036 156.504V170.516C148.035 181.25 139.164 189.982 128.26 189.982ZM111.484 158.767V170.516C111.484 179.621 119.01 187.029 128.26 187.029C137.509 187.029 145.035 179.621 145.035 170.516V158.767C139.709 160.915 134.078 162.002 128.26 162.002C122.441 162.002 116.809 160.915 111.484 158.767Z" fill="black"/>
<path d="M135.22 111.964H79.5312V99.2462C79.5312 74.3159 100.062 54.1055 125.389 54.1055H131.293C133.462 54.1055 135.22 55.8367 135.22 57.9718V111.964Z" fill="#4671C6"/>
<path d="M135.22 113.44H79.5312C78.7033 113.44 78.0312 112.779 78.0312 111.964V99.2462C78.0312 73.5415 99.2757 52.6289 125.389 52.6289H131.292C134.285 52.6289 136.72 55.0261 136.72 57.9718V111.963C136.72 112.779 136.048 113.44 135.22 113.44ZM81.0312 110.487H133.72V57.9726C133.72 56.6548 132.631 55.5828 131.292 55.5828H125.389C100.93 55.5828 81.0312 75.1701 81.0312 99.2469V110.487Z" fill="black"/>
<path d="M128.257 169.703C104.57 169.703 85.3672 150.801 85.3672 127.484V106.027C85.3672 82.7098 104.569 63.8076 128.257 63.8076C151.944 63.8076 171.146 82.7098 171.146 106.027V127.484C171.147 150.801 151.945 169.703 128.257 169.703Z" fill="#F9CFCF"/>
<path d="M85.3697 127.484V111.964C78.2537 111.987 72.4922 117.672 72.4922 124.681C72.4922 131.706 78.2777 137.401 85.4139 137.401H86.5712C85.7927 134.219 85.3697 130.902 85.3697 127.484Z" fill="#F9CFCF"/>
<path d="M171.147 111.964V127.484C171.147 130.902 170.724 134.219 169.945 137.401H171.103C178.239 137.401 184.024 131.706 184.024 124.681C184.024 117.672 178.263 111.987 171.147 111.964Z" fill="#F9CFCF"/>
<path d="M128.257 171.18C103.78 171.18 83.8672 151.578 83.8672 127.483V106.027C83.8672 81.9322 103.78 62.3301 128.257 62.3301C152.734 62.3301 172.648 81.9322 172.648 106.027V127.483C172.647 151.579 152.734 171.18 128.257 171.18ZM128.257 65.2847C105.435 65.2847 86.8672 83.5623 86.8672 106.028V127.485C86.8672 149.951 105.435 168.228 128.257 168.228C151.08 168.228 169.648 149.951 169.648 127.485V106.028C169.647 83.5623 151.079 65.2847 128.257 65.2847Z" fill="black"/>
<path d="M86.5712 138.879H85.4139C77.4609 138.879 70.9922 132.51 70.9922 124.682C70.9922 116.882 77.4399 110.515 85.3644 110.487H85.3697C85.7664 110.487 86.1474 110.642 86.4287 110.918C86.7107 111.195 86.8697 111.572 86.8697 111.964V127.484C86.8697 130.689 87.2604 133.909 88.0299 137.057C88.1379 137.497 88.0344 137.96 87.7502 138.315C87.4644 138.67 87.0309 138.879 86.5712 138.879ZM83.8689 113.542C78.3017 114.289 73.9914 119.006 73.9914 124.681C73.9914 130.647 78.7344 135.542 84.7029 135.903C84.1494 133.121 83.8689 130.298 83.8689 127.484V113.542Z" fill="black"/>
<path d="M171.106 138.879H169.949C169.489 138.879 169.056 138.671 168.771 138.315C168.487 137.96 168.383 137.497 168.491 137.057C169.261 133.909 169.651 130.689 169.651 127.484V111.964C169.651 111.572 169.81 111.195 170.092 110.918C170.374 110.642 170.755 110.505 171.157 110.487C179.081 110.514 185.529 116.882 185.529 124.682C185.528 132.51 179.059 138.879 171.106 138.879ZM172.651 113.542V127.484C172.651 130.298 172.37 133.122 171.817 135.903C177.785 135.542 182.528 130.647 182.528 124.681C182.528 119.006 178.218 114.289 172.651 113.542Z" fill="black"/>
<path d="M128.257 171.18C103.78 171.18 83.8672 151.578 83.8672 127.483V106.027C83.8672 81.9322 103.78 62.3301 128.257 62.3301C152.734 62.3301 172.648 81.9322 172.648 106.027V127.483C172.647 151.579 152.734 171.18 128.257 171.18ZM128.257 65.2847C105.435 65.2847 86.8672 83.5623 86.8672 106.028V127.485C86.8672 149.951 105.435 168.228 128.257 168.228C151.08 168.228 169.648 149.951 169.648 127.485V106.028C169.647 83.5623 151.079 65.2847 128.257 65.2847Z" fill="black"/>
<path d="M128.257 171.18C103.78 171.18 83.8672 151.578 83.8672 127.483V106.027C83.8672 81.9322 103.78 62.3301 128.257 62.3301C152.734 62.3301 172.648 81.9322 172.648 106.027V127.483C172.647 151.579 152.734 171.18 128.257 171.18ZM128.257 65.2847C105.435 65.2847 86.8672 83.5623 86.8672 106.028V127.485C86.8672 149.951 105.435 168.228 128.257 168.228C151.08 168.228 169.648 149.951 169.648 127.485V106.028C169.647 83.5623 151.079 65.2847 128.257 65.2847Z" fill="black"/>
<path d="M176.986 111.964H126.092C114.786 111.964 105.621 102.942 105.621 91.8134V73.0795C105.621 62.6011 114.251 54.1064 124.895 54.1064H131.128C156.454 54.1064 176.985 74.3169 176.985 99.2472V111.964H176.986Z" fill="#4671C6"/>
<path d="M176.985 113.441H126.092C113.978 113.441 104.121 103.738 104.121 91.8134V73.0795C104.121 61.8038 113.441 52.6299 124.895 52.6299H131.129C157.241 52.6299 178.486 73.5417 178.486 99.2472V111.965C178.485 112.779 177.814 113.441 176.985 113.441ZM124.895 55.5823C115.095 55.5823 107.121 63.4317 107.121 73.0788V91.8127C107.121 102.109 115.631 110.487 126.092 110.487H175.485V99.2464C175.485 75.1703 155.587 55.5823 131.128 55.5823H124.895Z" fill="black"/>
<path d="M149.941 135.544C147.027 135.544 144.664 133.219 144.664 130.35V124.809C144.664 121.94 147.027 119.614 149.941 119.614C152.856 119.614 155.218 121.94 155.218 124.809V130.35C155.219 133.219 152.856 135.544 149.941 135.544Z" fill="black"/>
<path d="M106.578 135.544C103.663 135.544 101.301 133.219 101.301 130.35V124.809C101.301 121.94 103.663 119.614 106.578 119.614C109.492 119.614 111.855 121.94 111.855 124.809V130.35C111.855 133.219 109.492 135.544 106.578 135.544Z" fill="black"/>
<path d="M155.991 123.223C146.281 123.223 141.683 118.723 141.475 118.515C140.896 117.932 140.905 116.997 141.497 116.427C142.086 115.858 143.032 115.866 143.612 116.442C143.815 116.642 148.396 121.001 158.465 120.166C159.289 120.092 160.016 120.702 160.085 121.514C160.154 122.328 159.541 123.041 158.716 123.109C157.767 123.188 156.859 123.223 155.991 123.223Z" fill="black"/>
<path d="M99.03 123.223C98.1622 123.223 97.2547 123.187 96.3045 123.11C95.4787 123.042 94.866 122.328 94.935 121.515C95.004 120.702 95.733 120.094 96.555 120.167C106.738 121.005 111.355 116.495 111.401 116.449C111.981 115.866 112.932 115.857 113.522 116.427C114.114 116.997 114.124 117.933 113.544 118.515C113.337 118.723 108.737 123.223 99.03 123.223Z" fill="black"/>
<path d="M138.44 150.471C136.438 150.471 135.413 149.329 134.664 148.495C134.001 147.756 133.736 147.518 133.137 147.518C132.535 147.518 132.27 147.757 131.605 148.496C130.856 149.329 129.83 150.471 127.828 150.471C125.824 150.471 124.798 149.329 124.049 148.497C123.383 147.757 123.118 147.518 122.515 147.518C121.913 147.518 121.648 147.757 120.982 148.497C120.232 149.329 119.206 150.471 117.203 150.471C116.375 150.471 115.703 149.809 115.703 148.994C115.703 148.179 116.375 147.518 117.203 147.518C117.805 147.518 118.07 147.278 118.736 146.539C119.485 145.706 120.511 144.564 122.515 144.564C124.519 144.564 125.545 145.706 126.295 146.539C126.961 147.278 127.225 147.518 127.828 147.518C128.428 147.518 128.694 147.279 129.358 146.539C130.108 145.706 131.134 144.564 133.137 144.564C135.139 144.564 136.164 145.706 136.912 146.539C137.576 147.279 137.84 147.518 138.44 147.518C139.268 147.518 139.94 148.179 139.94 148.994C139.94 149.809 139.268 150.471 138.44 150.471Z" fill="black"/>
<path d="M135.22 111.964H79.5312V99.2462C79.5312 74.3159 100.062 54.1055 125.389 54.1055H131.293C133.462 54.1055 135.22 55.8367 135.22 57.9718V111.964Z" fill="#4671C6"/>
<path d="M128.257 169.703C104.57 169.703 85.3672 150.801 85.3672 127.484V106.027C85.3672 82.7098 104.569 63.8076 128.257 63.8076C151.944 63.8076 171.146 82.7098 171.146 106.027V127.484C171.147 150.801 151.945 169.703 128.257 169.703Z" fill="#F9CFCF"/>
<path d="M128.257 171.18C103.78 171.18 83.8672 151.578 83.8672 127.483V106.027C83.8672 81.9322 103.78 62.3301 128.257 62.3301C152.734 62.3301 172.648 81.9322 172.648 106.027V127.483C172.647 151.579 152.734 171.18 128.257 171.18ZM128.257 65.2847C105.435 65.2847 86.8672 83.5623 86.8672 106.028V127.485C86.8672 149.951 105.435 168.228 128.257 168.228C151.08 168.228 169.648 149.951 169.648 127.485V106.028C169.647 83.5623 151.079 65.2847 128.257 65.2847Z" fill="black"/>
<path d="M128.257 171.18C103.78 171.18 83.8672 151.578 83.8672 127.483V106.027C83.8672 81.9322 103.78 62.3301 128.257 62.3301C152.734 62.3301 172.648 81.9322 172.648 106.027V127.483C172.647 151.579 152.734 171.18 128.257 171.18ZM128.257 65.2847C105.435 65.2847 86.8672 83.5623 86.8672 106.028V127.485C86.8672 149.951 105.435 168.228 128.257 168.228C151.08 168.228 169.648 149.951 169.648 127.485V106.028C169.647 83.5623 151.079 65.2847 128.257 65.2847Z" fill="black"/>
<path d="M176.986 111.964H126.092C114.786 111.964 105.621 102.942 105.621 91.8134V73.0795C105.621 62.6011 114.251 54.1064 124.895 54.1064H131.128C156.454 54.1064 176.985 74.3169 176.985 99.2472V111.964H176.986Z" fill="#4671C6"/>
<path d="M149.941 135.544C147.027 135.544 144.664 133.219 144.664 130.35V124.809C144.664 121.94 147.027 119.614 149.941 119.614C152.856 119.614 155.218 121.94 155.218 124.809V130.35C155.219 133.219 152.856 135.544 149.941 135.544Z" fill="black"/>
<path d="M106.578 135.544C103.663 135.544 101.301 133.219 101.301 130.35V124.809C101.301 121.94 103.663 119.614 106.578 119.614C109.492 119.614 111.855 121.94 111.855 124.809V130.35C111.855 133.219 109.492 135.544 106.578 135.544Z" fill="black"/>
<path d="M155.991 123.223C146.281 123.223 141.683 118.723 141.475 118.515C140.896 117.932 140.905 116.997 141.497 116.427C142.086 115.858 143.032 115.866 143.612 116.442C143.815 116.642 148.396 121.001 158.465 120.166C159.289 120.092 160.016 120.702 160.085 121.514C160.154 122.328 159.541 123.041 158.716 123.109C157.767 123.188 156.859 123.223 155.991 123.223Z" fill="black"/>
<path d="M99.03 123.223C98.1622 123.223 97.2547 123.187 96.3045 123.11C95.4787 123.042 94.866 122.328 94.935 121.515C95.004 120.702 95.733 120.094 96.555 120.167C106.738 121.005 111.355 116.495 111.401 116.449C111.981 115.866 112.932 115.857 113.522 116.427C114.114 116.997 114.124 117.933 113.544 118.515C113.337 118.723 108.737 123.223 99.03 123.223Z" fill="black"/>
<path d="M138.44 150.471C136.438 150.471 135.413 149.329 134.664 148.495C134.001 147.756 133.736 147.518 133.137 147.518C132.535 147.518 132.27 147.757 131.605 148.496C130.856 149.329 129.83 150.471 127.828 150.471C125.824 150.471 124.798 149.329 124.049 148.497C123.383 147.757 123.118 147.518 122.515 147.518C121.913 147.518 121.648 147.757 120.982 148.497C120.232 149.329 119.206 150.471 117.203 150.471C116.375 150.471 115.703 149.809 115.703 148.994C115.703 148.179 116.375 147.518 117.203 147.518C117.805 147.518 118.07 147.278 118.736 146.539C119.485 145.706 120.511 144.564 122.515 144.564C124.519 144.564 125.545 145.706 126.295 146.539C126.961 147.278 127.225 147.518 127.828 147.518C128.428 147.518 128.694 147.279 129.358 146.539C130.108 145.706 131.134 144.564 133.137 144.564C135.139 144.564 136.164 145.706 136.912 146.539C137.576 147.279 137.84 147.518 138.44 147.518C139.268 147.518 139.94 148.179 139.94 148.994C139.94 149.809 139.268 150.471 138.44 150.471Z" fill="black"/>
<path d="M176.985 113.441H126.092C113.978 113.441 104.121 103.738 104.121 91.8134V73.0795C104.121 61.8038 113.441 52.6299 124.895 52.6299H131.129C157.241 52.6299 178.486 73.5417 178.486 99.2472V111.965C178.485 112.779 177.814 113.441 176.985 113.441ZM124.895 55.5823C115.095 55.5823 107.121 63.4317 107.121 73.0788V91.8127C107.121 102.109 115.631 110.487 126.092 110.487H175.485V99.2464C175.485 75.1703 155.587 55.5823 131.128 55.5823H124.895Z" fill="black"/>
<path d="M141.702 94.0503C138.591 94.0503 136.019 93.0153 134.268 91.0566C127.56 83.5594 134.354 64.2171 149.736 47.0226C160.758 34.7006 173.5 26.739 182.198 26.7383C185.31 26.7383 187.881 27.7734 189.633 29.7313C196.341 37.2293 189.546 56.5715 174.165 73.7661C163.142 86.0872 150.399 94.0503 141.702 94.0503ZM182.198 29.6914C174.445 29.6921 162.305 37.4411 151.988 48.9738C138.066 64.5375 130.982 82.9156 136.52 89.1046C137.702 90.4261 139.446 91.0965 141.703 91.0965C149.455 91.0965 161.596 83.3475 171.914 71.814C185.836 56.2503 192.919 37.8723 187.382 31.6826C186.2 30.361 184.455 29.6914 182.198 29.6914Z" fill="black"/>
<path d="M182.197 94.0503C173.499 94.0496 160.758 86.088 149.736 73.7653C134.354 56.5707 127.56 37.2293 134.268 29.7305C136.018 27.7734 138.59 26.7383 141.702 26.7383C150.399 26.7383 163.14 34.6999 174.164 47.0226C189.545 64.2171 196.339 83.5594 189.632 91.0573C187.881 93.0145 185.31 94.0503 182.197 94.0503ZM141.702 29.6914C139.444 29.6914 137.7 30.3618 136.518 31.6826C130.98 37.873 138.064 56.2503 151.986 71.814C162.303 83.3467 174.444 91.0957 182.196 91.0965C184.454 91.0965 186.198 90.4269 187.38 89.1046C192.918 82.9148 185.834 64.5375 171.912 48.9738C161.595 37.4404 149.454 29.6914 141.702 29.6914Z" fill="black"/>
<path d="M161.952 79.4003C140.051 79.4003 122.895 71.0511 122.895 60.394C122.895 49.7369 140.051 41.3877 161.952 41.3877C183.852 41.3877 201.009 49.7369 201.009 60.394C201.009 71.0511 183.852 79.4003 161.952 79.4003ZM161.952 44.3408C142.407 44.3408 125.895 51.6926 125.895 60.394C125.895 69.0954 142.407 76.4472 161.952 76.4472C181.496 76.4472 198.009 69.0954 198.009 60.394C198.009 51.6926 181.496 44.3408 161.952 44.3408Z" fill="black"/>
</svg>
