<svg width="47" height="47" viewBox="0 0 47 47" fill="none" xmlns="http://www.w3.org/2000/svg">
<circle cx="23.5" cy="23.5" r="23.5" fill="#E6F9FF"/>
<g clip-path="url(#clip0_902_48952)">
<path d="M32.2458 11.5342C29.6794 11.5378 27.3926 12.7292 25.902 14.587C25.6611 14.8872 25.2033 14.8872 24.9624 14.587C23.4721 12.7292 21.1853 11.5378 18.6189 11.5342C14.1397 11.5279 10.4692 15.1836 10.461 19.663C10.4453 28.1101 21.8263 36.3941 24.7528 38.3845C25.1632 38.6636 25.7015 38.6636 26.1118 38.3845C29.0383 36.3941 40.4191 28.1101 40.4037 19.663C40.3952 15.1839 36.7249 11.5279 32.2458 11.5342Z" fill="#FFBDFB"/>
<path d="M19.207 11.5566C19.413 11.7896 19.7555 11.8217 19.9991 11.653C19.7393 11.608 19.4748 11.5761 19.207 11.5566Z" fill="#E9A6FF"/>
<path d="M32.8445 11.5557C33.9561 12.9452 34.624 14.7033 34.6276 16.6108C34.643 24.8783 23.7429 32.9884 20.5352 35.1958C22.3309 36.691 23.9003 37.8048 24.7523 38.3843C25.1626 38.6634 25.7009 38.6634 26.1113 38.3843C29.0378 36.3939 40.4185 28.1102 40.4031 19.663C40.3952 15.3852 37.0471 11.8589 32.8445 11.5557Z" fill="#E9A6FF"/>
<path d="M20.3168 25.4545C20.085 25.4545 19.8804 25.3029 19.8128 25.081L18.2121 19.8229H13.4177C13.1266 19.8229 12.8906 19.587 12.8906 19.2959C12.8906 19.005 13.1266 18.7691 13.4177 18.7691H18.6024C18.8345 18.7691 19.0391 18.9207 19.1067 19.1426L20.3168 23.1183L22.0845 17.312C22.1518 17.0901 22.3567 16.9385 22.5885 16.9385C22.8204 16.9385 23.025 17.0901 23.0925 17.312L23.8575 19.8249H28.4915C28.7824 19.8249 29.0183 20.0608 29.0183 20.3519C29.0183 20.6428 28.7824 20.8787 28.4915 20.8787H23.4672C23.2354 20.8787 23.0305 20.7271 22.9632 20.5055L22.5885 19.2747L20.8208 25.081C20.7536 25.3029 20.5489 25.4545 20.3168 25.4545Z" fill="#FFB2E5"/>
<path d="M9.51953 28.3369H24.3972V31.5977H9.51953V28.3369Z" fill="#E9E9E9"/>
<path d="M21.3678 28.3369V29.1518C21.3678 29.7563 20.8775 30.2466 20.273 30.2466H9.51953V31.5977H24.3972V28.3369H21.3678Z" fill="#B1B1B1"/>
<path d="M25.2053 34.9627H24.0586C23.6702 34.9627 23.3555 34.6479 23.3555 34.2595V25.7275C23.3555 25.3392 23.6702 25.0244 24.0586 25.0244H25.2053C25.5937 25.0244 25.9084 25.3392 25.9084 25.7275V34.2595C25.9084 34.6479 25.5937 34.9627 25.2053 34.9627Z" fill="#E9E9E9"/>
<path d="M27.76 33.7024H26.6133C26.2249 33.7024 25.9102 33.3877 25.9102 32.9993V26.9873C25.9102 26.5989 26.2249 26.2842 26.6133 26.2842H27.76C28.1483 26.2842 28.4631 26.5989 28.4631 26.9873V32.9993C28.4631 33.3877 28.1483 33.7024 27.76 33.7024Z" fill="#E9E9E9"/>
<path d="M8.71484 25.0244H9.86154C10.2499 25.0244 10.5647 25.3392 10.5647 25.7275V34.2595C10.5647 34.6479 10.2499 34.9627 9.86154 34.9627H8.71484C8.32648 34.9627 8.01172 34.6479 8.01172 34.2595V25.7275C8.01172 25.3392 8.32648 25.0244 8.71484 25.0244Z" fill="#E9E9E9"/>
<path d="M6.16016 26.2842H7.30713C7.69522 26.2842 8.01026 26.5989 8.01026 26.9873V32.9993C8.01026 33.3877 7.69522 33.7024 7.30713 33.7024H6.16016C5.77206 33.7024 5.45703 33.3877 5.45703 32.9993V26.9873C5.45703 26.5989 5.77206 26.2842 6.16016 26.2842Z" fill="#E9E9E9"/>
<path d="M25.1839 25.0244H24.0977C24.4976 25.0244 24.8214 25.3485 24.8214 25.7481V34.2387C24.8214 34.6386 24.4976 34.9627 24.0977 34.9627H25.1839C25.5836 34.9627 25.9077 34.6386 25.9077 34.2387V25.7481C25.9077 25.3485 25.5836 25.0244 25.1839 25.0244Z" fill="#B1B1B1"/>
<path d="M27.7386 26.2842H26.6523C27.0522 26.2842 27.3763 26.6083 27.3763 27.0082V32.9787C27.3763 33.3783 27.0522 33.7024 26.6523 33.7024H27.7386C28.1382 33.7024 28.4623 33.3783 28.4623 32.9787V27.0082C28.4623 26.6083 28.1382 26.2842 27.7386 26.2842Z" fill="#B1B1B1"/>
<path d="M9.84018 25.0244H8.75391C9.15381 25.0244 9.47791 25.3485 9.47791 25.7481V34.2387C9.47791 34.6386 9.15381 34.9627 8.75391 34.9627H9.84018C10.2401 34.9627 10.5642 34.6386 10.5642 34.2387V25.7481C10.5642 25.3485 10.2401 25.0244 9.84018 25.0244Z" fill="#B1B1B1"/>
<path d="M7.28549 26.2842H6.19922C6.59912 26.2842 6.92322 26.6083 6.92322 27.0082V32.9787C6.92322 33.3783 6.59912 33.7024 6.19922 33.7024H7.28549C7.68512 33.7024 8.00922 33.3783 8.00922 32.9787V27.0082C8.00949 26.6083 7.6854 26.2842 7.28549 26.2842Z" fill="#B1B1B1"/>
<path d="M20.3168 25.4545C20.085 25.4545 19.8804 25.3029 19.8128 25.081L18.2121 19.8229H13.4177C13.1266 19.8229 12.8906 19.587 12.8906 19.2959C12.8906 19.005 13.1266 18.7691 13.4177 18.7691H18.6024C18.8345 18.7691 19.0391 18.9207 19.1067 19.1426L20.3168 23.1183L22.0845 17.312C22.1518 17.0901 22.3567 16.9385 22.5885 16.9385C22.8204 16.9385 23.025 17.0901 23.0925 17.312L23.8575 19.8249H28.4915C28.7824 19.8249 29.0183 20.0608 29.0183 20.3519C29.0183 20.6428 28.7824 20.8787 28.4915 20.8787H23.4672C23.2354 20.8787 23.0305 20.7271 22.9632 20.5055L22.5885 19.2747L20.8208 25.081C20.7536 25.3029 20.5489 25.4545 20.3168 25.4545Z" fill="#484848"/>
<path d="M39.8182 15.443C39.6751 15.1892 39.3537 15.0997 39.1002 15.2428C38.847 15.3856 38.7572 15.7069 38.9003 15.9605C39.5361 17.0882 39.8737 18.3689 39.8759 19.6642C39.8825 23.1175 37.8981 26.9592 33.9784 31.0823C30.7871 34.4392 27.2061 37.0029 25.8147 37.9491C25.5821 38.1076 25.2813 38.1076 25.0484 37.9491C23.8149 37.1103 20.8165 34.9696 17.9125 32.1249H22.8286V34.2601C22.8286 34.938 23.3802 35.4895 24.058 35.4895H25.2058C25.8839 35.4895 26.4355 34.938 26.4355 34.2601V34.2156C26.4929 34.2239 26.5514 34.2297 26.611 34.2297H27.7588C28.4366 34.2297 28.9881 33.6781 28.9881 33.0003V26.9869C28.9881 26.309 28.4366 25.7575 27.7588 25.7575H26.611C26.5514 25.7575 26.4929 25.7633 26.4355 25.7718V25.727C26.4355 25.0492 25.8839 24.4977 25.2058 24.4977H24.058C23.3802 24.4977 22.8286 25.0492 22.8286 25.727V27.8103H21.1675C20.8764 27.8103 20.6404 28.0463 20.6404 28.3371C20.6404 28.6283 20.8764 28.8642 21.1675 28.8642H22.8286V31.0714H11.0895V28.8642H18.7843C19.0754 28.8642 19.3114 28.6283 19.3114 28.3371C19.3114 28.0463 19.0754 27.8103 18.7843 27.8103H14.1423C12.0442 24.908 10.9826 22.1683 10.9873 19.6645C10.995 15.4699 14.412 12.0617 18.6066 12.0617H18.6173C20.9349 12.0647 23.0975 13.1057 24.5507 14.9173C24.7661 15.1859 25.0872 15.3397 25.4316 15.3397C25.776 15.3397 26.0971 15.1856 26.3124 14.9173C27.7656 13.1057 29.9283 12.065 32.2459 12.0617H32.2566C34.2042 12.0617 36.0603 12.8033 37.485 14.1507C37.6962 14.3507 38.0299 14.3413 38.2298 14.1301C38.4298 13.9186 38.4205 13.5852 38.209 13.3853C36.5879 11.8516 34.4747 11.0078 32.2566 11.0078C32.2527 11.0078 32.2483 11.0078 32.2442 11.0078C29.6061 11.0114 27.1443 12.196 25.4904 14.2581C25.4604 14.2952 25.4025 14.2952 25.3728 14.2581C23.7188 12.1963 21.257 11.0117 18.6189 11.0078C18.6146 11.0078 18.611 11.0078 18.6066 11.0078C13.8322 11.0078 9.94221 14.8879 9.93342 19.6626C9.92875 22.2106 10.9112 24.9478 12.8552 27.8103H11.0895V25.7268C11.0895 25.0489 10.5379 24.4974 9.86008 24.4974H8.71201C8.03415 24.4974 7.48264 25.0489 7.48264 25.7268V25.7715C7.42524 25.7633 7.36673 25.7575 7.30713 25.7575H6.15906C5.4812 25.7575 4.92969 26.309 4.92969 26.9869V33C4.92969 33.6779 5.4812 34.2294 6.15906 34.2294H7.30713C7.36673 34.2294 7.42524 34.2236 7.48264 34.2154V34.2601C7.48264 34.938 8.03415 35.4895 8.71201 35.4895H9.86008C10.5379 35.4895 11.0895 34.938 11.0895 34.2601V32.1249H16.4258C19.6102 35.4027 23.0912 37.8925 24.4557 38.8206C24.7521 39.0222 25.0918 39.123 25.4313 39.123C25.7711 39.123 26.1108 39.0222 26.4072 38.8206C27.8269 37.8551 31.4807 35.239 34.742 31.8083C38.8547 27.4821 40.9366 23.3955 40.9297 19.6623C40.927 18.1866 40.5425 16.7276 39.8182 15.443ZM26.611 26.8114H27.759C27.8557 26.8114 27.9345 26.8902 27.9345 26.9869V33C27.9345 33.097 27.8557 33.1758 27.759 33.1758H26.611C26.5143 33.1758 26.4355 33.097 26.4355 33V26.9869C26.4355 26.8902 26.5143 26.8114 26.611 26.8114ZM23.8825 25.7268C23.8825 25.6301 23.9611 25.5513 24.058 25.5513H25.2058C25.3028 25.5513 25.3816 25.6301 25.3816 25.7268V34.2601C25.3816 34.3568 25.3028 34.4356 25.2058 34.4356H24.058C23.9611 34.4356 23.8825 34.3568 23.8825 34.2601V25.7268ZM10.0356 34.2601C10.0356 34.3571 9.95676 34.4359 9.86008 34.4359H8.71201C8.61533 34.4359 8.5365 34.3571 8.5365 34.2601V30.0938C8.5365 29.803 8.30057 29.567 8.00943 29.567C7.71857 29.567 7.48264 29.803 7.48264 30.0938V33C7.48264 33.097 7.40381 33.1758 7.30686 33.1758H6.15906C6.06238 33.1758 5.98355 33.097 5.98355 33V26.9869C5.98355 26.8902 6.06238 26.8114 6.15906 26.8114H7.30713C7.40381 26.8114 7.48264 26.8902 7.48264 26.9869V27.6343C7.48264 27.9254 7.71857 28.1611 8.00971 28.1611C8.30057 28.1611 8.5365 27.9254 8.5365 27.6343V25.7268C8.5365 25.6301 8.61533 25.5513 8.71229 25.5513H9.86008C9.95676 25.5513 10.0356 25.6301 10.0356 25.7268V34.2601Z" fill="#484848"/>
</g>
<defs>
<clipPath id="clip0_902_48952">
<rect width="36" height="36" fill="white" transform="translate(5 7)"/>
</clipPath>
</defs>
</svg>
