<svg width="52" height="52" viewBox="0 0 52 52" fill="none" xmlns="http://www.w3.org/2000/svg">
<circle cx="26" cy="26" r="26" fill="#E6F9FF"/>
<path d="M29.425 26.7559L22.7812 28.5077L24.2168 34.2499H32.1099L29.425 26.7559Z" fill="#F0A5A5"/>
<path d="M30.8705 30.7852C30.24 31.8419 29.346 32.7167 28.2758 33.3241C27.2057 33.9315 25.9961 34.2505 24.7656 34.25H31.875V33.5889L30.8705 30.7852Z" fill="#CC8C8C"/>
<path d="M41.628 37.2042C41.3148 36.4523 40.8375 35.7799 40.2311 35.2361C39.6247 34.6923 38.9045 34.2908 38.123 34.061L31.3281 32.0625C30.1623 32.7287 28.8427 33.0791 27.5 33.0791C26.1572 33.0791 24.8377 32.7287 23.6719 32.0625L16.877 34.061C16.0955 34.2908 15.3753 34.6923 14.7689 35.2361C14.1625 35.7799 13.6852 36.4523 13.372 37.2042L12.9026 38.3305C12.7641 38.6629 12.7098 39.0244 12.7446 39.3829C12.7793 39.7413 12.902 40.0856 13.1018 40.3853C13.3015 40.6849 13.5722 40.9306 13.8897 41.1005C14.2072 41.2705 14.5618 41.3594 14.9219 41.3594H43.3594L41.628 37.2042Z" fill="#0071AF"/>
<path d="M18.0102 21.7275L17.0277 21.9847C16.5044 22.1091 16.052 22.4362 15.77 22.8942C15.4879 23.3521 15.3993 23.9034 15.5237 24.4266C15.6108 24.793 15.7982 25.1279 16.0649 25.3938C16.3317 25.6597 16.6672 25.8461 17.0338 25.9321L19.242 26.4495L18.0102 21.7275Z" fill="#F0A5A5"/>
<path d="M33.6142 20.1263C33.5527 19.8672 33.4406 19.6228 33.2846 19.407C33.1285 19.1912 32.9315 19.0083 32.7048 18.8686C32.478 18.7289 32.226 18.6353 31.963 18.5931C31.7001 18.5508 31.4314 18.5608 31.1723 18.6224L30.2266 18.8401L31.5867 23.2798L32.9431 22.1502C33.2319 21.9085 33.4476 21.5911 33.5661 21.2336C33.6847 20.8761 33.7013 20.4927 33.6142 20.1263Z" fill="#F0A5A5"/>
<path d="M31.8834 22.3022L29.6241 12.7969L16.8047 20.3513L18.0502 25.5903C18.3057 26.6658 18.8813 27.6385 19.7009 28.3803C20.5205 29.122 21.5457 29.5979 22.6412 29.7452L24.383 29.9797C25.7248 30.1602 27.0858 29.8368 28.2029 29.0719L29.6535 28.0786C30.5655 27.454 31.2667 26.5676 31.6648 25.5365C32.0629 24.5053 32.1391 23.3776 31.8834 22.3022Z" fill="#F9B7B7"/>
<path d="M35.1562 36.4375H36.25V41.3594H35.1562V36.4375Z" fill="#00659D"/>
<path d="M16.5625 41.36H14.9219V40.2662H16.5625C17.4144 40.2635 18.2454 40.0022 18.9455 39.517C19.6457 39.0318 20.1821 38.3455 20.4838 37.5488L20.9723 36.2461L21.9964 36.6301L21.5079 37.9328C21.1275 38.9375 20.451 39.8031 19.5679 40.4151C18.6849 41.027 17.6369 41.3565 16.5625 41.36Z" fill="#00659D"/>
<path d="M42.2656 20.5781H39.5312V19.2579L40.9454 17.8438H39.5312V16.75H42.2656V18.0702L40.8515 19.4844H42.2656V20.5781Z" fill="#7DB6D6"/>
<path d="M37.3438 17.8438H33.5156V15.8935L36.25 14.2529V14.0156H33.5156V12.9219H37.3438V14.8721L34.6094 16.5127V16.75H37.3438V17.8438Z" fill="#7DB6D6"/>
<path d="M43.9062 14.5625H39.5312V12.6292L42.8125 10.4417V10.1875H39.5312V9.09375H43.9062V11.027L40.625 13.2145V13.4688H43.9062V14.5625Z" fill="#7DB6D6"/>
<path d="M36.7969 30.4219H34.0625V29.1017L35.4767 27.6875H34.0625V26.5938H36.7969V27.914L35.3827 29.3281H36.7969V30.4219Z" fill="#7DB6D6"/>
<path d="M37.8906 24.4062H35.7031V23.086L36.5704 22.2188H35.7031V21.125H37.8906V22.4452L37.0233 23.3125H37.8906V24.4062Z" fill="#7DB6D6"/>
<path d="M25.0476 24.0129L25.5168 23.9013L25.2639 22.8372L24.7946 22.9488C24.7147 22.9678 24.631 22.9641 24.5531 22.9382C24.4751 22.9124 24.4058 22.8653 24.3531 22.8023C24.3003 22.7393 24.2662 22.6629 24.2544 22.5815C24.2427 22.5002 24.2538 22.4172 24.2866 22.3419L25.1331 20.395L24.13 19.959L23.2835 21.9058C23.1821 22.1392 23.1403 22.3943 23.1617 22.6479C23.1832 22.9016 23.2674 23.1459 23.4066 23.359C23.5459 23.5721 23.7359 23.7473 23.9596 23.8688C24.1833 23.9903 24.4336 24.0544 24.6882 24.0552C24.8092 24.0551 24.9298 24.0409 25.0476 24.0129Z" fill="#EA8383"/>
<path d="M28.6263 19.374C28.3026 19.7231 27.8825 19.9683 27.4192 20.0784C26.956 20.1885 26.4705 20.1586 26.0243 19.9925L25.6445 21.0182C26.2932 21.2596 26.999 21.3031 27.6723 21.143C28.3457 20.9829 28.9564 20.6265 29.4271 20.119L28.6263 19.374Z" fill="#EA8383"/>
<path d="M19.1063 21.6361L18.7266 22.6617C19.3752 22.9032 20.081 22.9466 20.7544 22.7865C21.4278 22.6265 22.0385 22.2701 22.5091 21.7626L21.7084 21.0176C21.3846 21.3667 20.9645 21.6119 20.5013 21.722C20.0381 21.8321 19.5526 21.8022 19.1063 21.6361Z" fill="#EA8383"/>
<path d="M30.7646 17.595L22.4062 17.0502L29.6243 12.7969L30.7646 17.595Z" fill="#EC9090"/>
<path d="M31.1214 9.64062L18.8842 12.5494C18.3952 12.6657 17.9338 12.8771 17.5264 13.1717C17.119 13.4663 16.7737 13.8382 16.51 14.2663C16.2464 14.6943 16.0697 15.1701 15.9899 15.6664C15.9101 16.1628 15.9289 16.67 16.0452 17.1591L16.804 20.3514L28.9439 14.2973C29.7791 13.8807 30.4488 13.1939 30.8442 12.3485C31.2395 11.503 31.3372 10.5487 31.1214 9.64062Z" fill="#D27676"/>
<path d="M25.6172 27.7822C26.2212 27.7822 26.7109 27.2925 26.7109 26.6885C26.7109 26.0844 26.2212 25.5947 25.6172 25.5947C25.0131 25.5947 24.5234 26.0844 24.5234 26.6885C24.5234 27.2925 25.0131 27.7822 25.6172 27.7822Z" fill="#EA8383"/>
<path d="M14.7686 41.3594C14.3578 41.3594 13.951 41.2785 13.5715 41.1213C13.192 40.9641 12.8472 40.7337 12.5568 40.4432C12.2663 40.1528 12.0359 39.808 11.8787 39.4285C11.7215 39.049 11.6406 38.6422 11.6406 38.2314V37.4665C11.6406 37.147 11.6896 36.8293 11.7858 36.5246L14.7081 27.2707C14.847 26.8307 14.8433 26.358 14.6974 25.9203L13.3935 22.0086C13.3192 21.7856 13.2812 21.552 13.2812 21.3169V16.3437C13.2812 16.1816 13.3132 16.0211 13.3752 15.8713C13.4372 15.7216 13.5282 15.5855 13.6428 15.4709C13.7574 15.3563 13.8935 15.2654 14.0432 15.2033C14.193 15.1413 14.3535 15.1094 14.5156 15.1094C14.7886 15.1094 15.0539 15.1999 15.27 15.3668C15.4861 15.5336 15.6408 15.7674 15.7098 16.0316L16.9981 20.9602C17.3796 22.4197 18.0589 23.7845 18.9932 24.9688L19.106 25.1117C19.3204 25.3836 19.4434 25.7163 19.4572 26.0623C19.4711 26.4083 19.3751 26.7498 19.183 27.038L19.0651 27.2148C18.8585 27.5248 18.7344 27.8824 18.7047 28.2538L17.8865 38.4809C17.8238 39.2648 17.4681 39.9963 16.8903 40.5297C16.3125 41.0632 15.555 41.3594 14.7686 41.3594Z" fill="#F0A5A5"/>
<path d="M41.2652 36.4883C40.2059 37.9944 38.7997 39.2234 37.1653 40.0713C35.5308 40.9193 33.7163 41.3613 31.875 41.36H43.3594L41.628 37.2048C41.5248 36.9574 41.4035 36.7179 41.2652 36.4883Z" fill="#006095"/>
<path d="M17.8875 38.4807L17.8882 38.4727C16.7693 39.7883 15.2637 40.7171 13.5859 41.1268C13.9616 41.2806 14.3636 41.3595 14.7696 41.3592C15.556 41.3592 16.3135 41.063 16.8913 40.5296C17.4692 39.9961 17.8248 39.2646 17.8875 38.4807Z" fill="#CC8C8C"/>
<path d="M21.3086 29.3902C21.7362 29.5646 22.1842 29.684 22.6418 29.7457L24.3836 29.9802C25.7254 30.1607 27.0864 29.8373 28.2035 29.0724L29.6541 28.0791C30.5661 27.4545 31.2673 26.5681 31.6654 25.5369C32.0635 24.5057 32.1397 23.3781 31.884 22.3027L31.2564 19.6621C30.3779 21.8934 29.0374 23.9136 27.323 25.5902C25.6085 27.2667 23.5589 28.5618 21.3086 29.3902Z" fill="#D49C9C"/>
<path d="M35.1562 40.883V41.3599H36.25V40.4961C35.8922 40.6435 35.5272 40.7727 35.1562 40.883Z" fill="#005686"/>
<path d="M25.87 27.7522C26.0267 27.7153 26.1733 27.6442 26.2994 27.5439C26.4254 27.4437 26.5276 27.3168 26.5988 27.1724C26.67 27.028 26.7084 26.8696 26.7111 26.7086C26.7139 26.5476 26.681 26.388 26.6148 26.2412C26.0806 26.708 25.5178 27.1409 24.9297 27.5375C25.0595 27.6429 25.2118 27.7172 25.3748 27.7544C25.5378 27.7916 25.7073 27.7908 25.87 27.7522Z" fill="#C76F6F"/>
<path d="M42.2656 19.4844H40.8515L42.2656 18.0702V16.75H39.5312V17.8438H40.9454L39.5312 19.2579V20.5781H42.2656V19.4844Z" fill="#484848"/>
<path d="M37.3438 16.75H34.6094V16.5127L37.3438 14.8721V12.9219H33.5156V14.0156H36.25V14.2529L33.5156 15.8935V17.8438H37.3438V16.75Z" fill="#484848"/>
<path d="M43.9062 13.4688H40.625V13.2145L43.9062 11.027V9.09375H39.5312V10.1875H42.8125V10.4417L39.5312 12.6292V14.5625H43.9062V13.4688Z" fill="#484848"/>
<path d="M36.7969 26.5938H34.0625V27.6875H35.4767L34.0625 29.1017V30.4219H36.7969V29.3281H35.3827L36.7969 27.914V26.5938Z" fill="#484848"/>
<path d="M37.8906 21.125H35.7031V22.2188H36.5704L35.7031 23.086V24.4062H37.8906V23.3125H37.0233L37.8906 22.4452V21.125Z" fill="#484848"/>
<path d="M42.1328 36.9941C41.7897 36.1661 41.2653 35.4256 40.598 34.8272C39.9307 34.2288 39.1377 33.7878 38.2773 33.5367L31.7492 31.6167L30.4959 28.1183C31.1986 27.5108 31.7511 26.7489 32.1101 25.8921C32.4691 25.0353 32.6248 24.1071 32.565 23.1801L33.2938 22.5698C33.7129 22.2188 34.0094 21.7434 34.1404 21.2126C34.2714 20.6818 34.2301 20.1231 34.0224 19.6174C33.8147 19.1116 33.4514 18.6851 32.9851 18.3996C32.5189 18.1141 31.9739 17.9843 31.429 18.0292L30.4423 13.8781C30.9985 13.3137 31.4016 12.6168 31.6135 11.8533C31.8254 11.0898 31.8392 10.2848 31.6535 9.51448L31.527 8.98242L18.7578 12.0177C18.1982 12.1491 17.6703 12.3901 17.2045 12.7269C16.7388 13.0637 16.3444 13.4895 16.0444 13.9797C15.8599 14.2791 15.7119 14.5995 15.6037 14.934C15.3402 14.7306 15.025 14.6051 14.6938 14.5717C14.3626 14.5384 14.0286 14.5985 13.7299 14.7454C13.4311 14.8922 13.1795 15.1198 13.0035 15.4023C12.8276 15.6849 12.7343 16.0111 12.7344 16.344V21.3172C12.7343 21.6111 12.7817 21.9031 12.8747 22.1819L14.1786 26.0935C14.2887 26.4217 14.2915 26.7764 14.1866 27.1063L11.2643 36.3602C11.1512 36.7182 11.0937 37.0914 11.0938 37.4668V38.2318C11.0949 39.1379 11.4304 40.0117 12.0358 40.6859C12.6413 41.36 13.4742 41.787 14.375 41.8852V41.9065H44.1797L42.1328 36.9941ZM41.1232 37.4148L42.5391 40.8128H36.25V36.4378H35.1562V40.8128H18.8925C20.0981 40.2192 21.033 39.1896 21.5079 37.9325L21.9964 36.6298L20.9723 36.2458L20.4838 37.5485C20.2692 38.1157 19.9344 38.6297 19.5026 39.0555C19.0707 39.4812 18.5519 39.8086 17.9818 40.0152C18.2367 39.5563 18.3901 39.048 18.4317 38.5248L18.7881 34.0692L23.6073 32.6518C24.806 33.2884 26.1426 33.6213 27.5 33.6213C28.8573 33.6213 30.1939 33.2884 31.3927 32.6518L37.9687 34.5859C38.6727 34.7914 39.3215 35.1523 39.8675 35.6419C40.4134 36.1315 40.8425 36.7373 41.1232 37.4148ZM19.2192 28.6812C20.1374 29.557 21.3095 30.1194 22.5673 30.2875L22.6677 30.301L23.014 31.6862L18.8815 32.9017L19.2192 28.6812ZM29.576 28.7938L30.6535 31.8012C29.6367 32.2963 28.5176 32.545 27.3868 32.5272C26.256 32.5093 25.1452 32.2255 24.1445 31.6986L23.8344 30.458L24.3093 30.522C25.7853 30.7213 27.2828 30.3654 28.5112 29.5232L29.576 28.7938ZM29.3433 27.6274L27.8932 28.6208C26.8882 29.3101 25.6629 29.6013 24.4552 29.438L22.7132 29.2035C21.4798 29.0384 20.3552 28.4112 19.5667 27.4486L19.638 27.3416C19.8949 26.9577 20.0234 26.5023 20.0049 26.0408C19.9865 25.5792 19.8221 25.1355 19.5354 24.7734L19.4226 24.6304C18.5334 23.5062 17.8879 22.2094 17.5272 20.8222L17.4763 20.6275L23.4179 17.6644L30.3251 18.115L31.3505 22.4286C31.5764 23.3965 31.5058 24.41 31.1478 25.3372C30.7898 26.2645 30.1611 27.0625 29.3433 27.6274ZM32.4176 19.3346C32.6174 19.4577 32.7851 19.6264 32.9069 19.827C33.0287 20.0276 33.1011 20.2543 33.1181 20.4884C33.1351 20.7224 33.0962 20.9572 33.0047 21.1733C32.9132 21.3894 32.7716 21.5806 32.5917 21.7312L32.3559 21.9286L31.6874 19.1162C31.9457 19.1236 32.1976 19.1989 32.4176 19.3346ZM30.0605 17.0016L25.3617 16.6951L29.1879 14.787C29.2929 14.7346 29.3947 14.6781 29.4942 14.6191L30.0605 17.0016ZM16.9757 14.5533C17.2007 14.1857 17.4965 13.8663 17.8458 13.6137C18.1951 13.3611 18.5911 13.1803 19.0107 13.0818L30.6759 10.309C30.7357 11.0232 30.5792 11.7388 30.2267 12.3629C29.8743 12.987 29.3423 13.4905 28.6998 13.8082L17.2011 19.5425L16.5772 17.0329C16.4764 16.6138 16.4597 16.1788 16.5281 15.7532C16.5965 15.3276 16.7486 14.9197 16.9757 14.5533ZM12.1875 38.2318V37.4668C12.1875 37.2031 12.2279 36.941 12.3073 36.6896L15.2296 27.4357C15.4044 26.8858 15.3997 26.2946 15.2162 25.7476L13.9123 21.8361C13.8565 21.6687 13.8281 21.4935 13.8281 21.3172V16.344C13.8281 16.1769 13.889 16.0154 13.9994 15.8899C14.1098 15.7644 14.2622 15.6835 14.428 15.6621C14.5937 15.6408 14.7616 15.6807 14.9002 15.7742C15.0387 15.8677 15.1385 16.0085 15.1807 16.1702L16.3049 20.4709L16.4687 21.13L16.4765 21.1261C16.8764 22.649 17.5871 24.0727 18.5638 25.3078L18.6766 25.4508C18.82 25.6318 18.9022 25.8537 18.9114 26.0845C18.9207 26.3152 18.8564 26.543 18.728 26.7349L18.6101 26.9117C18.4806 27.1063 18.3765 27.3167 18.3004 27.5377L18.2881 27.5455C18.2903 27.549 18.2926 27.5523 18.2948 27.5558C18.2231 27.7677 18.1777 27.9875 18.1596 28.2105L17.3414 38.4376C17.2882 39.1021 16.9799 39.7204 16.4811 40.1627C15.9824 40.6051 15.3317 40.8373 14.6656 40.8107C13.9994 40.7841 13.3694 40.5008 12.9074 40.02C12.4455 39.5393 12.1875 38.8985 12.1875 38.2318Z" fill="#484848"/>
<path d="M25.0476 24.0129L25.5168 23.9013L25.2639 22.8372L24.7946 22.9488C24.7147 22.9678 24.631 22.9641 24.5531 22.9382C24.4751 22.9124 24.4058 22.8653 24.3531 22.8023C24.3003 22.7393 24.2662 22.6629 24.2544 22.5815C24.2427 22.5002 24.2538 22.4172 24.2866 22.3419L25.1331 20.395L24.13 19.959L23.2835 21.9058C23.1821 22.1392 23.1403 22.3943 23.1617 22.6479C23.1832 22.9016 23.2674 23.1459 23.4066 23.359C23.5459 23.5721 23.7359 23.7473 23.9596 23.8688C24.1833 23.9903 24.4336 24.0544 24.6882 24.0552C24.8092 24.0551 24.9298 24.0409 25.0476 24.0129Z" fill="#484848"/>
<path d="M26.0243 19.9925L25.6445 21.0182C26.2932 21.2596 26.999 21.3031 27.6723 21.143C28.3457 20.9829 28.9564 20.6265 29.4271 20.119L28.6263 19.374C28.3026 19.7231 27.8825 19.9683 27.4192 20.0784C26.956 20.1885 26.4705 20.1586 26.0243 19.9925Z" fill="#484848"/>
<path d="M19.1063 21.6361L18.7266 22.6617C19.3752 22.9032 20.081 22.9466 20.7544 22.7865C21.4278 22.6265 22.0385 22.2701 22.5091 21.7626L21.7084 21.0176C21.3846 21.3667 20.9645 21.6119 20.5013 21.722C20.0381 21.8321 19.5526 21.8022 19.1063 21.6361Z" fill="#484848"/>
<path d="M25.6228 25.0742C25.2972 25.0742 24.9789 25.1708 24.7082 25.3517C24.4375 25.5326 24.2265 25.7897 24.1019 26.0905C23.9773 26.3913 23.9447 26.7223 24.0082 27.0416C24.0717 27.3609 24.2285 27.6543 24.4587 27.8845C24.689 28.1147 24.9823 28.2715 25.3016 28.335C25.621 28.3985 25.952 28.3659 26.2528 28.2413C26.5536 28.1167 26.8107 27.9057 26.9916 27.635C27.1725 27.3643 27.269 27.046 27.269 26.7204C27.269 26.2838 27.0955 25.8651 26.7868 25.5564C26.4781 25.2477 26.0594 25.0742 25.6228 25.0742ZM25.6228 27.2673C25.5146 27.2673 25.4089 27.2353 25.3189 27.1752C25.229 27.1151 25.1589 27.0297 25.1175 26.9297C25.0761 26.8298 25.0653 26.7198 25.0864 26.6138C25.1075 26.5077 25.1596 26.4102 25.236 26.3337C25.3125 26.2572 25.41 26.2052 25.5161 26.1841C25.6221 26.1629 25.7321 26.1738 25.832 26.2152C25.932 26.2566 26.0174 26.3266 26.0775 26.4166C26.1376 26.5065 26.1697 26.6123 26.1697 26.7204C26.1697 26.8655 26.112 27.0046 26.0095 27.1071C25.9069 27.2097 25.7678 27.2673 25.6228 27.2673Z" fill="#484848"/>
</svg>
