<svg width="56" height="55" viewBox="0 0 56 55" fill="none" xmlns="http://www.w3.org/2000/svg">
<g clip-path="url(#clip0_580_88722)">
<path d="M54.9751 27.4993C54.9751 42.4106 42.8871 54.4986 27.9758 54.4986C13.0646 54.4986 0.976562 42.4106 0.976562 27.4993C0.976562 12.588 13.0646 0.5 27.9758 0.5C42.8871 0.5 54.9751 12.588 54.9751 27.4993Z" fill="#FFAE78" stroke="black"/>
<path d="M18.8197 31.8835C21.241 31.8835 23.2039 29.9207 23.2039 27.4994C23.2039 25.0781 21.241 23.1152 18.8197 23.1152C16.3984 23.1152 14.4355 25.0781 14.4355 27.4994C14.4355 29.9207 16.3984 31.8835 18.8197 31.8835Z" fill="black"/>
<path d="M37.1312 31.8835C39.5525 31.8835 41.5154 29.9207 41.5154 27.4994C41.5154 25.0781 39.5525 23.1152 37.1312 23.1152C34.7099 23.1152 32.7471 25.0781 32.7471 27.4994C32.7471 29.9207 34.7099 31.8835 37.1312 31.8835Z" fill="black"/>
<path d="M35.5177 41.8913H20.4337C19.7502 41.8913 19.1943 41.3369 19.1943 40.6519C19.1943 39.967 19.7487 39.4126 20.4337 39.4126H35.5177C36.2013 39.4126 36.7571 39.967 36.7571 40.6519C36.7571 41.3369 36.2027 41.8913 35.5177 41.8913Z" fill="black"/>
</g>
<defs>
<clipPath id="clip0_580_88722">
<rect width="55" height="55" fill="white" transform="translate(0.476562)"/>
</clipPath>
</defs>
</svg>
