<svg width="56" height="55" viewBox="0 0 56 55" fill="none" xmlns="http://www.w3.org/2000/svg">
<g clip-path="url(#clip0_580_88736)">
<path d="M54.9751 27.4993C54.9751 42.4106 42.8871 54.4986 27.9758 54.4986C13.0645 54.4986 0.976562 42.4106 0.976562 27.4993C0.976562 12.588 13.0645 0.5 27.9758 0.5C42.8871 0.5 54.9751 12.588 54.9751 27.4993Z" fill="#F982FF" stroke="black"/>
<path d="M12.6355 18.2996C12.338 18.2836 12.0898 18.5202 12.0898 18.8177C12.0898 19.0542 12.248 19.2589 12.4773 19.3184C13.2334 19.5157 14.9517 20.0948 16.3463 21.5242C15.194 22.3137 14.4379 23.6401 14.4379 25.1421C14.4379 27.5628 16.4 29.5263 18.8221 29.5263C21.2442 29.5263 23.2062 27.5642 23.2062 25.1421C23.2062 19.2792 14.8704 18.4244 12.637 18.2996H12.6355Z" fill="black"/>
<path d="M43.3183 18.2996C41.0849 18.4229 32.749 19.2777 32.749 25.1421C32.749 27.5628 34.7111 29.5263 37.1332 29.5263C39.5553 29.5263 41.5173 27.5642 41.5173 25.1421C41.5173 23.6401 40.7612 22.3137 39.609 21.5242C41.0021 20.0962 42.7218 19.5157 43.4779 19.3184C43.7072 19.2589 43.8654 19.0528 43.8654 18.8177C43.8654 18.5202 43.6173 18.2836 43.3197 18.2996H43.3183Z" fill="black"/>
<path d="M35.5184 41.8907C35.1077 41.8907 34.7043 41.686 34.4692 41.3131C34.3749 41.1665 32.2183 37.8679 27.975 37.8679C23.7316 37.8679 21.562 41.1912 21.4677 41.3334C21.0903 41.9008 20.3227 42.059 19.7538 41.6846C19.1834 41.3087 19.0238 40.5468 19.3968 39.975C19.5187 39.7878 22.4531 35.3906 27.9764 35.3906C33.4998 35.3906 36.4516 39.8067 36.5691 39.9954C36.9319 40.5759 36.7549 41.3392 36.1758 41.702C35.9712 41.8297 35.7448 41.8907 35.5199 41.8907H35.5184Z" fill="black"/>
</g>
<defs>
<clipPath id="clip0_580_88736">
<rect width="55" height="55" fill="white" transform="translate(0.476562)"/>
</clipPath>
</defs>
</svg>
