<svg width="115" height="115" viewBox="0 0 115 115" fill="none" xmlns="http://www.w3.org/2000/svg">
<circle cx="57.5" cy="57.5" r="50.5" fill="#E6F9FF"/>
<path fill-rule="evenodd" clip-rule="evenodd" d="M57.4996 23.5098C76.1114 23.5098 91.339 38.7376 91.339 57.3492C91.339 75.961 76.1112 91.1886 57.4996 91.1886C38.8878 91.1886 23.6602 75.9608 23.6602 57.3492C23.6602 38.7374 38.888 23.5098 57.4996 23.5098Z" fill="#EEDAFF"/>
<path fill-rule="evenodd" clip-rule="evenodd" d="M57.5 23.5098C76.1116 23.5098 91.3394 38.7376 91.3394 57.3492C91.3394 75.961 76.1116 91.1886 57.5 91.1886V23.5098Z" fill="#CD8EFF"/>
<path fill-rule="evenodd" clip-rule="evenodd" d="M69.8167 26.5723L91.491 64.1135C94.0693 68.5792 94.0693 73.8701 91.491 78.3356C88.9128 82.8012 84.3309 85.4467 79.1744 85.4467H57.5V19.4609C62.6566 19.4609 67.2384 22.1066 69.8167 26.5723Z" fill="#16275F"/>
<path fill-rule="evenodd" clip-rule="evenodd" d="M63.9564 29.9561C62.587 27.584 60.2389 26.2285 57.5 26.2285V78.6804H79.1744C81.9135 78.6804 84.2613 77.3247 85.6308 74.9526C87.0002 72.5807 87.0002 69.8694 85.6308 67.4973L63.9564 29.9561Z" fill="#FFDFA4"/>
<path fill-rule="evenodd" clip-rule="evenodd" d="M57.5 60.3745C58.557 60.5582 59.7057 59.8168 59.8876 58.2681L61.7013 42.826C62.1782 38.7677 59.8391 36.6964 57.5 36.6611V60.3745Z" fill="#000F8F"/>
<path fill-rule="evenodd" clip-rule="evenodd" d="M57.5 60.3745C58.557 60.5582 59.7057 59.8168 59.8876 58.2681L61.7013 42.826C62.1782 38.7677 59.8391 36.6964 57.5 36.6611V60.3745Z" fill="black" fill-opacity="0.2"/>
<path fill-rule="evenodd" clip-rule="evenodd" d="M57.5 60.3745C58.557 60.5582 59.7057 59.8168 59.8876 58.2681L61.7013 42.826C62.1782 38.7677 59.8391 36.6964 57.5 36.6611V60.3745Z" fill="black" fill-opacity="0.2"/>
<path fill-rule="evenodd" clip-rule="evenodd" d="M57.5 60.3745C58.557 60.5582 59.7057 59.8168 59.8876 58.2681L61.7013 42.826C62.1782 38.7677 59.8391 36.6964 57.5 36.6611V60.3745Z" fill="black" fill-opacity="0.2"/>
<path fill-rule="evenodd" clip-rule="evenodd" d="M57.5 60.3745C58.557 60.5582 59.7057 59.8168 59.8876 58.2681L61.7013 42.826C62.1782 38.7677 59.8391 36.6964 57.5 36.6611V60.3745Z" fill="black" fill-opacity="0.2"/>
<path fill-rule="evenodd" clip-rule="evenodd" d="M57.5 60.3745C58.557 60.5582 59.7057 59.8168 59.8876 58.2681L61.7013 42.826C62.1782 38.7677 59.8391 36.6964 57.5 36.6611V60.3745Z" fill="black" fill-opacity="0.2"/>
<path fill-rule="evenodd" clip-rule="evenodd" d="M57.5 65.5527C59.3479 65.5527 60.846 67.0507 60.846 68.8987C60.846 70.7468 59.3479 72.2447 57.5 72.2447V65.5527Z" fill="#000F8F"/>
<path fill-rule="evenodd" clip-rule="evenodd" d="M57.5 65.5527C59.3479 65.5527 60.846 67.0507 60.846 68.8987C60.846 70.7468 59.3479 72.2447 57.5 72.2447V65.5527Z" fill="black" fill-opacity="0.2"/>
<path fill-rule="evenodd" clip-rule="evenodd" d="M57.5 65.5527C59.3479 65.5527 60.846 67.0507 60.846 68.8987C60.846 70.7468 59.3479 72.2447 57.5 72.2447V65.5527Z" fill="black" fill-opacity="0.2"/>
<path fill-rule="evenodd" clip-rule="evenodd" d="M57.5 65.5527C59.3479 65.5527 60.846 67.0507 60.846 68.8987C60.846 70.7468 59.3479 72.2447 57.5 72.2447V65.5527Z" fill="black" fill-opacity="0.2"/>
<path fill-rule="evenodd" clip-rule="evenodd" d="M57.5 65.5527C59.3479 65.5527 60.846 67.0507 60.846 68.8987C60.846 70.7468 59.3479 72.2447 57.5 72.2447V65.5527Z" fill="black" fill-opacity="0.2"/>
<path fill-rule="evenodd" clip-rule="evenodd" d="M57.5 65.5527C59.3479 65.5527 60.846 67.0507 60.846 68.8987C60.846 70.7468 59.3479 72.2447 57.5 72.2447V65.5527Z" fill="black" fill-opacity="0.2"/>
<path fill-rule="evenodd" clip-rule="evenodd" d="M57.4991 23.5098C62.9582 23.5098 68.1251 24.8215 72.7031 27.1428L91.2794 59.3179C90.5589 71.7224 83.0767 82.388 72.4882 87.6631H42.51C31.9208 82.388 24.4395 71.7222 23.7188 59.3177L42.2948 27.1428C46.8728 24.8215 52.04 23.5098 57.4989 23.5098H57.4991Z" fill="#8A00FA"/>
<path fill-rule="evenodd" clip-rule="evenodd" d="M57.5 23.5098C62.9591 23.5098 68.126 24.8215 72.704 27.1428L91.2803 59.3179C90.5598 71.7224 83.0776 82.388 72.4891 87.6631H57.5V23.5098Z" fill="#8A00FA"/>
<path fill-rule="evenodd" clip-rule="evenodd" d="M69.8167 26.5723L91.491 64.1135C94.0693 68.5792 94.0693 73.8701 91.491 78.3356C88.9128 82.8012 84.3309 85.4467 79.1744 85.4467H57.5V19.4609C62.6566 19.4609 67.2384 22.1066 69.8167 26.5723Z" fill="#FFD1AD"/>
<path fill-rule="evenodd" clip-rule="evenodd" d="M63.9564 29.9561C62.587 27.584 60.2389 26.2285 57.5 26.2285V78.6804H79.1744C81.9135 78.6804 84.2613 77.3247 85.6308 74.9526C87.0002 72.5807 87.0002 69.8694 85.6308 67.4973L63.9564 29.9561Z" fill="#FFCFAE"/>
<path fill-rule="evenodd" clip-rule="evenodd" d="M57.5 60.3745C58.557 60.5582 59.7057 59.8168 59.8876 58.2681L61.7013 42.826C62.1782 38.7677 59.8391 36.6964 57.5 36.6611V60.3745Z" fill="#9B4D56"/>
<path fill-rule="evenodd" clip-rule="evenodd" d="M57.5 65.5527C59.3479 65.5527 60.846 67.0507 60.846 68.8987C60.846 70.7468 59.3479 72.2447 57.5 72.2447V65.5527Z" fill="#9B4D56"/>
<path fill-rule="evenodd" clip-rule="evenodd" d="M69.8159 26.5723L91.4902 64.1135C94.0685 68.5792 94.0685 73.8699 91.4902 78.3356C88.9119 82.8012 84.3301 85.4467 79.1735 85.4467H35.8246C30.668 85.4467 26.0862 82.8015 23.5079 78.3356C20.9296 73.8699 20.9296 68.5792 23.5079 64.1133L45.1823 26.5721C47.7606 22.1064 52.3424 19.4609 57.499 19.4609C62.6555 19.4609 67.2374 22.1062 69.8156 26.5721L69.8159 26.5723Z" fill="#C5F0FF"/>
<path fill-rule="evenodd" clip-rule="evenodd" d="M63.956 29.9561C62.5866 27.584 60.2385 26.2285 57.4996 26.2285C54.7607 26.2285 52.4127 27.5843 51.0432 29.9561L29.3689 67.4973C27.9994 69.8694 27.9994 72.5807 29.3689 74.9526C30.7383 77.3247 33.0862 78.6802 35.8253 78.6802H79.1742C81.9133 78.6802 84.2612 77.3245 85.6306 74.9524C87 72.5805 87 69.8692 85.6306 67.4971L63.9563 29.9559L63.956 29.9561Z" fill="#FFD983"/>
<path fill-rule="evenodd" clip-rule="evenodd" d="M53.3521 43.1132L55.6946 58.1856C56.1671 61.2252 59.5635 61.0287 59.8878 58.268L61.7015 42.8259C62.67 34.5821 52.0182 34.5302 53.3521 43.1132Z" fill="#8A96FF"/>
<path fill-rule="evenodd" clip-rule="evenodd" d="M57.5003 65.5527C59.3482 65.5527 60.8463 67.0507 60.8463 68.8987C60.8463 70.7468 59.3482 72.2447 57.5003 72.2447C55.6524 72.2447 54.1543 70.7466 54.1543 68.8987C54.1543 67.0509 55.6524 65.5527 57.5003 65.5527Z" fill="#8A96FF"/>
<path fill-rule="evenodd" clip-rule="evenodd" d="M23.0477 64.7303C22.3166 64.7303 21.6693 64.2043 21.5428 63.4597C21.2003 61.4506 21.0273 59.3936 21.0273 57.3454C21.0273 42.1881 30.6096 28.442 44.8734 23.1376C45.6618 22.8429 46.5441 23.2468 46.8386 24.0374C47.1317 24.8298 46.7294 25.7101 45.9367 26.0027C32.8654 30.8633 24.0843 43.4592 24.0843 57.3454C24.0852 59.2211 24.2415 61.1058 24.556 62.9467C24.6984 63.7787 24.1389 64.5671 23.3069 64.7088C23.2204 64.7241 23.1322 64.7306 23.0475 64.7306L23.0477 64.7303ZM91.9522 64.7303C91.8667 64.7303 91.7793 64.7238 91.6919 64.7086C90.8604 64.5666 90.3007 63.7785 90.4429 62.9465C90.7573 61.1056 90.9146 59.2211 90.9146 57.3452C90.9155 43.4589 82.1339 30.8633 69.0621 26.0025C68.2699 25.7099 67.8676 24.8298 68.1603 24.0372C68.4556 23.2466 69.3352 22.8427 70.1258 23.1374C84.3905 28.4416 93.9719 42.1881 93.9719 57.3452C93.9726 59.3934 93.7994 61.4506 93.4565 63.4595C93.33 64.2041 92.6834 64.7303 91.9522 64.7301V64.7303ZM57.4999 93.8173C50.2607 93.8173 43.2531 91.6774 37.2327 87.6288C36.5317 87.1569 36.3459 86.2073 36.8176 85.5063C37.2893 84.8075 38.2392 84.6218 38.9379 85.0914C44.4519 88.7993 50.8696 90.7603 57.4996 90.7603C64.1301 90.7603 70.5472 88.7993 76.0589 85.0914C76.7603 84.6218 77.7098 84.8075 78.1814 85.5063C78.6538 86.207 78.4676 87.1571 77.7666 87.6288C71.7468 91.6772 64.7388 93.8175 57.5001 93.8173H57.4999Z" fill="black"/>
<path fill-rule="evenodd" clip-rule="evenodd" d="M57.5008 19.7486C52.7447 19.7486 48.4838 22.2076 46.1059 26.3283L23.7236 65.0954C21.3456 69.2138 21.3447 74.1339 23.7229 78.2523C26.1017 82.373 30.3615 84.8318 35.1173 84.8318H79.884C84.6401 84.8318 88.8998 82.373 91.278 78.2523C93.6562 74.1339 93.6562 69.2141 91.278 65.0956L68.8959 26.3283C66.518 22.2076 62.2567 19.7488 57.5008 19.7486ZM79.884 87.8888H35.1176C29.2571 87.8888 24.0068 84.8579 21.0763 79.7808C18.1441 74.7058 18.1436 68.6438 21.0763 63.5667L43.4575 24.7994C46.3898 19.7221 51.6391 16.6914 57.5006 16.6914C63.3624 16.6914 68.6113 19.7223 71.544 24.7996L93.9255 63.5667C96.8577 68.6438 96.8575 74.7037 93.9248 79.781C90.9941 84.8579 85.7445 87.8892 79.8842 87.889L79.884 87.8888Z" fill="black"/>
<path fill-rule="evenodd" clip-rule="evenodd" d="M57.4999 26.7366C55.2024 26.7366 53.3046 27.8327 52.1562 29.8221L29.7741 68.5892C28.6252 70.5786 28.6246 72.769 29.7732 74.7581C30.9219 76.7475 32.8194 77.8438 35.1167 77.8438H79.8833C82.1809 77.8438 84.0777 76.7477 85.2263 74.7581C86.3759 72.7685 86.375 70.5786 85.2263 68.5892L62.844 29.8216C61.6954 27.8325 59.7972 26.7364 57.5003 26.7364L57.4999 26.7366ZM79.8831 80.9012H35.1167C31.7325 80.9012 28.8188 79.2195 27.1264 76.287C25.4347 73.3563 25.4342 69.9937 27.1264 67.061L49.5099 28.2936C51.2021 25.3609 54.1148 23.6797 57.4997 23.6797C60.8843 23.6797 63.7975 25.3611 65.4897 28.2938L87.8731 67.0612C89.5653 69.9937 89.5649 73.357 87.8727 76.2875C86.1812 79.2202 83.2673 80.9016 79.8831 80.9016V80.9012Z" fill="black"/>
<path fill-rule="evenodd" clip-rule="evenodd" d="M54.7278 42.4087L57.1471 57.9741C57.2414 58.5855 57.5134 58.9656 57.8366 58.9701C58.0727 58.9656 58.3739 58.7385 58.4482 58.1163L60.3221 42.1686C60.556 40.1815 60.0117 38.627 58.8305 37.9017C57.955 37.3667 56.8521 37.3797 56.0157 37.9345C54.8745 38.6966 54.4044 40.3277 54.7273 42.4089H54.728L54.7278 42.4087ZM57.8312 62.027C56.254 62.027 54.5113 60.9264 54.1245 58.4436L51.707 42.8779C51.1922 39.5694 52.1459 36.84 54.323 35.3901C56.1466 34.1759 58.5421 34.1388 60.4288 35.2962C62.6677 36.6697 63.7349 39.3055 63.3571 42.5264L61.4834 58.4719C61.2435 60.5288 59.7647 61.9899 57.8932 62.0247C57.8721 62.027 57.8517 62.027 57.8308 62.027H57.8312Z" fill="black"/>
<path fill-rule="evenodd" clip-rule="evenodd" d="M57.501 67.344C56.4377 67.344 55.5745 68.209 55.5745 69.2703C55.575 70.3336 56.437 71.1986 57.5005 71.1986C58.5641 71.1986 59.4266 70.3338 59.4266 69.2703C59.427 68.2088 58.5641 67.3443 57.5008 67.344H57.501ZM57.501 74.2557C54.7515 74.2557 52.5176 72.0195 52.5176 69.2703C52.518 66.5231 54.7515 64.2871 57.5008 64.2871C60.2486 64.2871 62.4839 66.5233 62.4839 69.2703C62.4842 72.0193 60.2477 74.2557 57.501 74.2557Z" fill="black"/>
<path fill-rule="evenodd" clip-rule="evenodd" d="M84.2518 105.363C83.724 105.363 83.2103 105.087 82.9266 104.598L79.6992 99.0079C79.2778 98.2763 79.5262 97.3419 80.2578 96.9183C80.9902 96.4967 81.9242 96.7481 82.3455 97.4794L85.5736 103.07C85.9972 103.801 85.7457 104.736 85.0141 105.157C84.7747 105.297 84.5117 105.363 84.2518 105.363Z" fill="black"/>
<path fill-rule="evenodd" clip-rule="evenodd" d="M103.831 85.7784C103.572 85.7784 103.309 85.713 103.069 85.5733L97.4784 82.3457C96.7473 81.9241 96.4958 80.9897 96.9172 80.2582C97.3408 79.5264 98.2756 79.2778 99.0071 79.6991L104.598 82.9265C105.327 83.3481 105.578 84.2827 105.156 85.0143C104.873 85.5055 104.359 85.7786 103.831 85.7784Z" fill="black"/>
<path fill-rule="evenodd" clip-rule="evenodd" d="M111.001 59.0286H104.547C103.702 59.0286 103.018 58.3454 103.018 57.5001C103.018 56.6549 103.701 55.9717 104.546 55.9717H111.001C111.846 55.9717 112.53 56.6552 112.53 57.5001C112.53 58.3451 111.846 59.0288 111.001 59.0286H111.001Z" fill="black"/>
<path fill-rule="evenodd" clip-rule="evenodd" d="M98.2428 35.506C97.7141 35.506 97.2011 35.2331 96.9172 34.7419C96.4958 34.0101 96.7472 33.0757 97.4785 32.6543L103.069 29.4267C103.801 29.0051 104.733 29.2542 105.156 29.9858C105.578 30.7173 105.327 31.6519 104.597 32.0733L99.0074 35.3007C98.7648 35.4404 98.5029 35.5062 98.2428 35.506Z" fill="black"/>
<path fill-rule="evenodd" clip-rule="evenodd" d="M81.0219 18.2875C80.7636 18.2875 80.4993 18.2201 80.2589 18.0824C79.5283 17.6585 79.2763 16.7242 79.6999 15.9926L82.9284 10.4041C83.3489 9.67278 84.2837 9.42167 85.0153 9.84304C85.7477 10.2664 85.9957 11.2015 85.5743 11.9328L82.3476 17.5209C82.0655 18.0121 81.5495 18.2875 81.0212 18.2875H81.0219Z" fill="black"/>
<path fill-rule="evenodd" clip-rule="evenodd" d="M57.4996 11.9829C56.6546 11.9829 55.9707 11.2996 55.9707 10.4544V3.99917C55.9707 3.15621 56.6542 2.4707 57.4994 2.4707C58.3448 2.4707 59.0279 3.15644 59.0279 3.99939L59.029 10.4542C59.029 11.2994 58.3446 11.9829 57.4998 11.9827L57.4996 11.9829Z" fill="black"/>
<path fill-rule="evenodd" clip-rule="evenodd" d="M33.9793 18.2873C33.4517 18.2873 32.9355 18.0124 32.6539 17.5232L29.4267 11.9329C29.0031 11.2013 29.254 10.2667 29.9855 9.84313C30.7168 9.42154 31.6517 9.67288 32.073 10.4044L35.3009 15.9945C35.7245 16.7238 35.4729 17.6586 34.7414 18.0823C34.5022 18.2197 34.2369 18.2875 33.9791 18.2873H33.9793Z" fill="black"/>
<path fill-rule="evenodd" clip-rule="evenodd" d="M16.7573 35.5054C16.4967 35.5054 16.2346 35.4401 15.9925 35.3004L10.4024 32.0727C9.6733 31.6511 9.42151 30.7168 9.8431 29.9852C10.2667 29.2557 11.2015 29.0048 11.9306 29.4262L17.5218 32.6536C18.2529 33.0752 18.5036 34.0098 18.0822 34.7413C17.799 35.2325 17.2853 35.5057 16.7573 35.5054Z" fill="black"/>
<path fill-rule="evenodd" clip-rule="evenodd" d="M10.4542 59.0286H4.00007C3.15486 59.0286 2.4707 58.3454 2.4707 57.5001C2.4707 56.6572 3.15419 55.9717 3.99917 55.9717H10.4542C11.2992 55.9717 11.9827 56.6574 11.9827 57.5001C11.9831 58.3451 11.2992 59.0288 10.4542 59.0286Z" fill="black"/>
<path fill-rule="evenodd" clip-rule="evenodd" d="M11.169 85.7784C10.6402 85.7784 10.127 85.5055 9.84311 85.0143C9.42174 84.2825 9.67286 83.3482 10.4022 82.9268L15.9927 79.6992C16.7238 79.2776 17.6586 79.5267 18.0822 80.2582C18.5045 80.9898 18.2527 81.9244 17.5212 82.3457L11.9313 85.5732C11.6905 85.7126 11.4284 85.7784 11.1688 85.7782L11.169 85.7784Z" fill="black"/>
<path fill-rule="evenodd" clip-rule="evenodd" d="M30.7473 105.362C30.4888 105.362 30.2246 105.297 29.9845 105.157C29.2537 104.735 29.0041 103.801 29.4255 103.069L32.6538 97.4788C33.0754 96.7472 34.0091 96.4983 34.7406 96.9199C35.4731 97.3413 35.7233 98.2761 35.2997 99.0074L32.0723 104.598C31.7913 105.087 31.2751 105.362 30.7475 105.362H30.7473Z" fill="black"/>
<path fill-rule="evenodd" clip-rule="evenodd" d="M57.4996 112.53C56.6546 112.53 55.9707 111.847 55.9707 111.001V104.546C55.9707 103.703 56.6542 103.018 57.4994 103.018C58.3448 103.018 59.0279 103.703 59.0279 104.546L59.029 111.001C59.029 111.846 58.3446 112.53 57.4998 112.53H57.4996Z" fill="black"/>
</svg>
