<svg width="116" height="115" viewBox="0 0 116 115" fill="none" xmlns="http://www.w3.org/2000/svg">
<path fill-rule="evenodd" clip-rule="evenodd" d="M57.9761 23.5093C76.5879 23.5093 91.8156 38.7371 91.8156 57.3487C91.8156 75.9605 76.5877 91.1881 57.9761 91.1881C39.3643 91.1881 24.1367 75.9603 24.1367 57.3487C24.1367 38.7369 39.3646 23.5093 57.9761 23.5093Z" fill="#EEDAFF"/>
<path fill-rule="evenodd" clip-rule="evenodd" d="M57.9766 23.5093C76.5881 23.5093 91.816 38.7371 91.816 57.3487C91.816 75.9605 76.5881 91.1881 57.9766 91.1881V23.5093Z" fill="#CD8EFF"/>
<path fill-rule="evenodd" clip-rule="evenodd" d="M70.2932 26.5728L91.9676 64.114C94.5459 68.5797 94.5459 73.8706 91.9676 78.336C89.3893 82.8017 84.8075 85.4472 79.6509 85.4472H57.9766V19.4614C63.1331 19.4614 67.715 22.1071 70.2932 26.5728Z" fill="#16275F"/>
<path fill-rule="evenodd" clip-rule="evenodd" d="M64.433 29.9561C63.0635 27.584 60.7154 26.2285 57.9766 26.2285V78.6804H79.6509C82.39 78.6804 84.7379 77.3247 86.1073 74.9526C87.4768 72.5807 87.4768 69.8694 86.1073 67.4973L64.433 29.9561Z" fill="#FFDFA4"/>
<path fill-rule="evenodd" clip-rule="evenodd" d="M57.9766 60.3745C59.0336 60.5582 60.1822 59.8168 60.3642 58.2681L62.1779 42.826C62.6547 38.7677 60.3156 36.6964 57.9766 36.6611V60.3745Z" fill="#000F8F"/>
<path fill-rule="evenodd" clip-rule="evenodd" d="M57.9766 60.3745C59.0336 60.5582 60.1822 59.8168 60.3642 58.2681L62.1779 42.826C62.6547 38.7677 60.3156 36.6964 57.9766 36.6611V60.3745Z" fill="black" fill-opacity="0.2"/>
<path fill-rule="evenodd" clip-rule="evenodd" d="M57.9766 60.3745C59.0336 60.5582 60.1822 59.8168 60.3642 58.2681L62.1779 42.826C62.6547 38.7677 60.3156 36.6964 57.9766 36.6611V60.3745Z" fill="black" fill-opacity="0.2"/>
<path fill-rule="evenodd" clip-rule="evenodd" d="M57.9766 60.3745C59.0336 60.5582 60.1822 59.8168 60.3642 58.2681L62.1779 42.826C62.6547 38.7677 60.3156 36.6964 57.9766 36.6611V60.3745Z" fill="black" fill-opacity="0.2"/>
<path fill-rule="evenodd" clip-rule="evenodd" d="M57.9766 60.3745C59.0336 60.5582 60.1822 59.8168 60.3642 58.2681L62.1779 42.826C62.6547 38.7677 60.3156 36.6964 57.9766 36.6611V60.3745Z" fill="black" fill-opacity="0.2"/>
<path fill-rule="evenodd" clip-rule="evenodd" d="M57.9766 60.3745C59.0336 60.5582 60.1822 59.8168 60.3642 58.2681L62.1779 42.826C62.6547 38.7677 60.3156 36.6964 57.9766 36.6611V60.3745Z" fill="black" fill-opacity="0.2"/>
<path fill-rule="evenodd" clip-rule="evenodd" d="M57.9766 65.5522C59.8244 65.5522 61.3226 67.0502 61.3226 68.8983C61.3226 70.7463 59.8244 72.2443 57.9766 72.2443V65.5522Z" fill="#000F8F"/>
<path fill-rule="evenodd" clip-rule="evenodd" d="M57.9766 65.5522C59.8244 65.5522 61.3226 67.0502 61.3226 68.8983C61.3226 70.7463 59.8244 72.2443 57.9766 72.2443V65.5522Z" fill="black" fill-opacity="0.2"/>
<path fill-rule="evenodd" clip-rule="evenodd" d="M57.9766 65.5522C59.8244 65.5522 61.3226 67.0502 61.3226 68.8983C61.3226 70.7463 59.8244 72.2443 57.9766 72.2443V65.5522Z" fill="black" fill-opacity="0.2"/>
<path fill-rule="evenodd" clip-rule="evenodd" d="M57.9766 65.5522C59.8244 65.5522 61.3226 67.0502 61.3226 68.8983C61.3226 70.7463 59.8244 72.2443 57.9766 72.2443V65.5522Z" fill="black" fill-opacity="0.2"/>
<path fill-rule="evenodd" clip-rule="evenodd" d="M57.9766 65.5522C59.8244 65.5522 61.3226 67.0502 61.3226 68.8983C61.3226 70.7463 59.8244 72.2443 57.9766 72.2443V65.5522Z" fill="black" fill-opacity="0.2"/>
<path fill-rule="evenodd" clip-rule="evenodd" d="M57.9766 65.5522C59.8244 65.5522 61.3226 67.0502 61.3226 68.8983C61.3226 70.7463 59.8244 72.2443 57.9766 72.2443V65.5522Z" fill="black" fill-opacity="0.2"/>
<path fill-rule="evenodd" clip-rule="evenodd" d="M57.9757 23.5093C63.4348 23.5093 68.6017 24.821 73.1797 27.1423L91.756 59.3174C91.0355 71.7219 83.5533 82.3875 72.9647 87.6627H42.9866C32.3974 82.3875 24.9161 71.7217 24.1953 59.3172L42.7714 27.1423C47.3494 24.821 52.5165 23.5093 57.9754 23.5093H57.9757Z" fill="#8A00FA"/>
<path fill-rule="evenodd" clip-rule="evenodd" d="M57.9766 23.5093C63.4357 23.5093 68.6026 24.821 73.1806 27.1423L91.7569 59.3174C91.0364 71.7219 83.5542 82.3875 72.9656 87.6627H57.9766V23.5093Z" fill="#8A00FA"/>
<path fill-rule="evenodd" clip-rule="evenodd" d="M70.2932 26.5728L91.9676 64.114C94.5459 68.5797 94.5459 73.8706 91.9676 78.336C89.3893 82.8017 84.8075 85.4472 79.6509 85.4472H57.9766V19.4614C63.1331 19.4614 67.715 22.1071 70.2932 26.5728Z" fill="#FFD1AD"/>
<path fill-rule="evenodd" clip-rule="evenodd" d="M64.433 29.9561C63.0635 27.584 60.7154 26.2285 57.9766 26.2285V78.6804H79.6509C82.39 78.6804 84.7379 77.3247 86.1073 74.9526C87.4768 72.5807 87.4768 69.8694 86.1073 67.4973L64.433 29.9561Z" fill="#FFCFAE"/>
<path fill-rule="evenodd" clip-rule="evenodd" d="M57.9766 60.3745C59.0336 60.5582 60.1822 59.8168 60.3642 58.2681L62.1779 42.826C62.6547 38.7677 60.3156 36.6964 57.9766 36.6611V60.3745Z" fill="#9B4D56"/>
<path fill-rule="evenodd" clip-rule="evenodd" d="M57.9766 65.5522C59.8244 65.5522 61.3226 67.0502 61.3226 68.8983C61.3226 70.7463 59.8244 72.2443 57.9766 72.2443V65.5522Z" fill="#9B4D56"/>
<path fill-rule="evenodd" clip-rule="evenodd" d="M70.2924 26.5728L91.9668 64.114C94.5451 68.5797 94.5451 73.8704 91.9668 78.336C89.3885 82.8017 84.8067 85.4472 79.6501 85.4472H36.3012C31.1446 85.4472 26.5628 82.8019 23.9845 78.336C21.4062 73.8704 21.4062 68.5797 23.9845 64.1138L45.6589 26.5726C48.2371 22.1069 52.8189 19.4614 57.9755 19.4614C63.1321 19.4614 67.7139 22.1067 70.2922 26.5726L70.2924 26.5728Z" fill="#C5F0FF"/>
<path fill-rule="evenodd" clip-rule="evenodd" d="M64.4326 29.9561C63.0631 27.584 60.7151 26.2285 57.9762 26.2285C55.2373 26.2285 52.8892 27.5843 51.5198 29.9561L29.8454 67.4973C28.476 69.8694 28.476 72.5807 29.8454 74.9526C31.2149 77.3247 33.5627 78.6802 36.3018 78.6802H79.6508C82.3899 78.6802 84.7377 77.3245 86.1072 74.9524C87.4766 72.5805 87.4766 69.8692 86.1072 67.4971L64.4328 29.9559L64.4326 29.9561Z" fill="#FFD983"/>
<path fill-rule="evenodd" clip-rule="evenodd" d="M53.8287 43.1132L56.1711 58.1856C56.6437 61.2252 60.04 61.0287 60.3644 58.268L62.1781 42.8259C63.1466 34.5821 52.4947 34.5302 53.8287 43.1132Z" fill="#8A96FF"/>
<path fill-rule="evenodd" clip-rule="evenodd" d="M57.9769 65.5522C59.8247 65.5522 61.3229 67.0502 61.3229 68.8983C61.3229 70.7463 59.8247 72.2443 57.9769 72.2443C56.129 72.2443 54.6309 70.7461 54.6309 68.8983C54.6309 67.0504 56.129 65.5522 57.9769 65.5522Z" fill="#8A96FF"/>
<path fill-rule="evenodd" clip-rule="evenodd" d="M23.5243 64.7303C22.7932 64.7303 22.1458 64.2043 22.0194 63.4597C21.6769 61.4506 21.5039 59.3936 21.5039 57.3454C21.5039 42.1881 31.0862 28.442 45.35 23.1376C46.1384 22.8429 47.0207 23.2468 47.3151 24.0374C47.6082 24.8298 47.206 25.7101 46.4133 26.0027C33.3419 30.8633 24.5608 43.4592 24.5608 57.3454C24.5617 59.2211 24.7181 61.1058 25.0325 62.9467C25.1749 63.7787 24.6154 64.5671 23.7835 64.7088C23.697 64.7241 23.6087 64.7306 23.524 64.7306L23.5243 64.7303ZM92.4288 64.7303C92.3432 64.7303 92.2559 64.7238 92.1685 64.7086C91.337 64.5666 90.7773 63.7784 90.9194 62.9465C91.2339 61.1056 91.3911 59.2211 91.3911 57.3452C91.392 43.4589 82.6105 30.8633 69.5386 26.0025C68.7464 25.7099 68.3442 24.8298 68.6368 24.0372C68.9322 23.2466 69.8118 22.8427 70.6024 23.1374C84.8671 28.4416 94.4485 42.1881 94.4485 57.3452C94.4492 59.3934 94.276 61.4506 93.933 63.4595C93.8066 64.2041 93.1599 64.7303 92.4288 64.7301V64.7303ZM57.9764 93.8173C50.7373 93.8173 43.7297 91.6774 37.7092 87.6288C37.0082 87.1569 36.8225 86.2073 37.2942 85.5063C37.7658 84.8075 38.7157 84.6218 39.4145 85.0914C44.9284 88.7993 51.3462 90.7603 57.9762 90.7603C64.6067 90.7603 71.0238 88.7993 76.5354 85.0914C77.2369 84.6218 78.1863 84.8075 78.658 85.5063C79.1304 86.207 78.9442 87.1571 78.2432 87.6288C72.2234 91.6772 65.2154 93.8175 57.9767 93.8173H57.9764Z" fill="black"/>
<path fill-rule="evenodd" clip-rule="evenodd" d="M57.9773 19.7481C53.2212 19.7481 48.9604 22.2071 46.5825 26.3278L24.2001 65.0949C21.8222 69.2133 21.8213 74.1334 24.1995 78.2519C26.5783 82.3725 30.838 84.8313 35.5939 84.8313H80.3606C85.1167 84.8313 89.3764 82.3725 91.7546 78.2519C94.1327 74.1334 94.1327 69.2136 91.7546 65.0951L69.3725 26.3278C66.9945 22.2071 62.7332 19.7483 57.9773 19.7481ZM80.3606 87.8883H35.5941C29.7336 87.8883 24.4834 84.8574 21.5529 79.7803C18.6206 74.7053 18.6202 68.6433 21.5529 63.5662L43.9341 24.7989C46.8664 19.7216 52.1157 16.6909 57.9771 16.6909C63.839 16.6909 69.0879 19.7218 72.0206 24.7991L94.402 63.5662C97.3343 68.6433 97.3341 74.7032 94.4013 79.7805C91.4706 84.8574 86.2211 87.8887 80.3608 87.8885L80.3606 87.8883Z" fill="black"/>
<path fill-rule="evenodd" clip-rule="evenodd" d="M57.9765 26.7361C55.6789 26.7361 53.7812 27.8322 52.6328 29.8216L30.2507 68.5887C29.1018 70.5781 29.1011 72.7685 30.2498 74.7576C31.3984 76.747 33.2959 77.8433 35.5932 77.8433H80.3599C82.6574 77.8433 84.5542 76.7472 85.7029 74.7576C86.8525 72.768 86.8516 70.5781 85.7029 68.5887L63.3206 29.8211C62.1719 27.832 60.2738 26.7359 57.9769 26.7359L57.9765 26.7361ZM80.3597 80.9007H35.5932C32.209 80.9007 29.2954 79.219 27.603 76.2865C25.9112 73.3558 25.9108 69.9932 27.603 67.0605L49.9864 28.2931C51.6786 25.3604 54.5914 23.6792 57.9762 23.6792C61.3609 23.6792 64.274 25.3606 65.9663 28.2933L88.3497 67.0607C90.0419 69.9932 90.0415 73.3565 88.3493 76.287C86.6577 79.2197 83.7439 80.9011 80.3597 80.9011V80.9007Z" fill="black"/>
<path fill-rule="evenodd" clip-rule="evenodd" d="M55.2044 42.4087L57.6236 57.9741C57.718 58.5855 57.99 58.9656 58.3132 58.9701C58.5492 58.9656 58.8504 58.7385 58.9248 58.1163L60.7987 42.1686C61.0325 40.1815 60.4883 38.627 59.3071 37.9017C58.4315 37.3667 57.3287 37.3797 56.4923 37.9345C55.351 38.6966 54.8809 40.3277 55.2039 42.4089H55.2046L55.2044 42.4087ZM58.3078 62.027C56.7306 62.027 54.9878 60.9264 54.601 58.4436L52.1836 42.8779C51.6688 39.5694 52.6225 36.84 54.7996 35.3901C56.6232 34.1759 59.0187 34.1388 60.9054 35.2962C63.1443 36.6697 64.2114 39.3055 63.8336 42.5264L61.9599 58.4719C61.72 60.5288 60.2412 61.9899 58.3698 62.0247C58.3487 62.027 58.3282 62.027 58.3073 62.027H58.3078Z" fill="black"/>
<path fill-rule="evenodd" clip-rule="evenodd" d="M57.9776 67.344C56.9143 67.344 56.0511 68.209 56.0511 69.2703C56.0515 70.3336 56.9136 71.1986 57.9771 71.1986C59.0406 71.1986 59.9031 70.3338 59.9031 69.2703C59.9036 68.2088 59.0406 67.3443 57.9773 67.344H57.9776ZM57.9776 74.2557C55.2281 74.2557 52.9941 72.0195 52.9941 69.2703C52.9946 66.5231 55.2281 64.2871 57.9773 64.2871C60.7252 64.2871 62.9605 66.5233 62.9605 69.2703C62.9607 72.0193 60.7243 74.2557 57.9776 74.2557Z" fill="black"/>
<path fill-rule="evenodd" clip-rule="evenodd" d="M84.7283 105.363C84.2005 105.363 83.6868 105.087 83.4032 104.598L80.1757 99.0079C79.7544 98.2763 80.0028 97.3419 80.7343 96.9183C81.4668 96.4967 82.4007 96.7481 82.8221 97.4794L86.0502 103.07C86.4738 103.801 86.2222 104.736 85.4907 105.157C85.2512 105.297 84.9882 105.363 84.7283 105.363Z" fill="black"/>
<path fill-rule="evenodd" clip-rule="evenodd" d="M104.308 85.7789C104.048 85.7789 103.785 85.7135 103.545 85.5738L97.955 82.3462C97.2239 81.9246 96.9723 80.9902 97.3937 80.2587C97.8173 79.5269 98.7522 79.2782 99.4837 79.6996L105.074 82.927C105.804 83.3486 106.054 84.2832 105.633 85.0148C105.35 85.506 104.836 85.7791 104.308 85.7789Z" fill="black"/>
<path fill-rule="evenodd" clip-rule="evenodd" d="M111.478 59.0286H105.024C104.179 59.0286 103.494 58.3453 103.494 57.5001C103.495 56.6549 104.178 55.9717 105.023 55.9717H111.478C112.323 55.9717 113.007 56.6552 113.007 57.5001C113.007 58.3451 112.323 59.0288 111.478 59.0286H111.478Z" fill="black"/>
<path fill-rule="evenodd" clip-rule="evenodd" d="M98.7194 35.5055C98.1907 35.5055 97.6777 35.2326 97.3938 34.7414C96.9724 34.0096 97.2237 33.0752 97.9551 32.6539L103.545 29.4262C104.278 29.0046 105.209 29.2537 105.633 29.9853C106.055 30.7168 105.803 31.6514 105.074 32.0728L99.484 35.3002C99.2414 35.4399 98.9795 35.5057 98.7194 35.5055Z" fill="black"/>
<path fill-rule="evenodd" clip-rule="evenodd" d="M81.4985 18.2875C81.2402 18.2875 80.9758 18.2201 80.7355 18.0824C80.0048 17.6585 79.7528 16.7242 80.1764 15.9926L83.405 10.4041C83.8254 9.67278 84.7603 9.42167 85.4918 9.84304C86.2243 10.2664 86.4722 11.2015 86.0509 11.9328L82.8241 17.5209C82.542 18.0121 82.0261 18.2875 81.4978 18.2875H81.4985Z" fill="black"/>
<path fill-rule="evenodd" clip-rule="evenodd" d="M57.9762 11.9829C57.1312 11.9829 56.4473 11.2996 56.4473 10.4544V3.99917C56.4473 3.15621 57.1308 2.4707 57.976 2.4707C58.8214 2.4707 59.5044 3.15644 59.5044 3.99939L59.5055 10.4542C59.5055 11.2994 58.8212 11.9829 57.9764 11.9827L57.9762 11.9829Z" fill="black"/>
<path fill-rule="evenodd" clip-rule="evenodd" d="M34.4559 18.2873C33.9283 18.2873 33.4121 18.0124 33.1304 17.5232L29.9032 11.9329C29.4796 11.2013 29.7305 10.2667 30.4621 9.84313C31.1934 9.42154 32.1282 9.67288 32.5496 10.4044L35.7775 15.9945C36.2011 16.7238 35.9495 17.6586 35.218 18.0823C34.9787 18.2197 34.7135 18.2875 34.4556 18.2873H34.4559Z" fill="black"/>
<path fill-rule="evenodd" clip-rule="evenodd" d="M17.2338 35.5054C16.9733 35.5054 16.7112 35.4401 16.469 35.3004L10.8789 32.0727C10.1499 31.6511 9.89807 30.7168 10.3197 29.9852C10.7433 29.2557 11.6781 29.0048 12.4072 29.4262L17.9984 32.6536C18.7295 33.0752 18.9802 34.0098 18.5588 34.7413C18.2756 35.2325 17.7619 35.5057 17.2338 35.5054Z" fill="black"/>
<path fill-rule="evenodd" clip-rule="evenodd" d="M10.9308 59.0286H4.47663C3.63143 59.0286 2.94727 58.3453 2.94727 57.5001C2.94727 56.6572 3.63075 55.9717 4.47573 55.9717H10.9308C11.7758 55.9717 12.4592 56.6574 12.4592 57.5001C12.4597 58.3451 11.7758 59.0288 10.9308 59.0286Z" fill="black"/>
<path fill-rule="evenodd" clip-rule="evenodd" d="M11.6455 85.7789C11.1168 85.7789 10.6036 85.506 10.3197 85.0148C9.89831 84.283 10.1494 83.3487 10.8787 82.9273L16.4693 79.6997C17.2004 79.2781 18.1352 79.5272 18.5588 80.2587C18.9811 80.9903 18.7293 81.9249 17.9977 82.3462L12.4079 85.5736C12.1671 85.7131 11.905 85.7789 11.6453 85.7787L11.6455 85.7789Z" fill="black"/>
<path fill-rule="evenodd" clip-rule="evenodd" d="M31.2239 105.363C30.9653 105.363 30.7012 105.297 30.4611 105.157C29.7302 104.736 29.4807 103.801 29.902 103.07L33.1304 97.4792C33.5519 96.7477 34.4857 96.4988 35.2172 96.9204C35.9497 97.3418 36.1999 98.2766 35.7763 99.0079L32.5488 104.598C32.2679 105.087 31.7517 105.363 31.2241 105.363H31.2239Z" fill="black"/>
<path fill-rule="evenodd" clip-rule="evenodd" d="M57.9762 112.529C57.1312 112.529 56.4473 111.846 56.4473 111.001V104.546C56.4473 103.703 57.1308 103.017 57.976 103.017C58.8214 103.017 59.5044 103.703 59.5044 104.546L59.5055 111.001C59.5055 111.846 58.8212 112.529 57.9764 112.529H57.9762Z" fill="black"/>
</svg>
