<svg width="47" height="47" viewBox="0 0 47 47" fill="none" xmlns="http://www.w3.org/2000/svg">
<circle cx="23.5" cy="23.5" r="23.5" fill="#E6F9FF"/>
<g clip-path="url(#clip0_902_91307)">
<path d="M33.9186 36.583H13.0834C12.6231 36.583 12.25 36.2099 12.25 35.7496V25.332H34.752V35.7496C34.752 36.2099 34.3789 36.583 33.9186 36.583Z" fill="#DEDEDE"/>
<path d="M18.0847 22.8324V25.3326H34.7528V21.999H17.418L18.0847 22.8324Z" fill="#CA89FF"/>
<path d="M25.5836 25.3326H22.25L24.7502 21.999H28.0838L25.5836 25.3326Z" fill="#DEDEDE"/>
<path d="M32.2516 25.3326H28.918L31.4182 21.999H34.7518L32.2516 25.3326Z" fill="#DEDEDE"/>
<path d="M18.0842 21.999L17.7617 22.4291L18.0842 22.8324V25.3326H18.9177L21.4179 21.999H18.0842Z" fill="#DEDEDE"/>
<path d="M17.7613 22.4287L17.4171 21.9987L16.8021 21.2298L16.5933 20.969L14.7502 18.665H13.8422H12.25V21.9987V25.3323H15.5836H18.0838V22.8321L17.7613 22.4287Z" fill="#CA89FF"/>
<path d="M13.5 23.249H14.3334V24.0824H13.5V23.249Z" fill="#DEDEDE"/>
<path d="M13.5 19.915H14.3334V20.7484H13.5V19.915Z" fill="#DEDEDE"/>
<path d="M16 23.249H16.8334V24.0824H16V23.249Z" fill="#DEDEDE"/>
<path d="M14.332 28.249H32.667V29.0824H14.332V28.249Z" fill="#C7C7C7"/>
<path d="M32.667 31.583H14.332V32.4164H19.7492V34.9166H20.5826V32.4164H26.4164V34.9166H27.2498V32.4164H32.667V31.583Z" fill="#C7C7C7"/>
<path d="M16.7997 21.2294L34.7496 15.5948L33.7512 12.4141L13.8398 18.6646H14.7478L16.7997 21.2294Z" fill="#DEDEDE"/>
<path d="M26.0049 18.3406L22.8242 19.3391L24.2114 15.4096L27.3917 14.4111L26.0049 18.3406Z" fill="#CA89FF"/>
<path d="M32.3678 16.3436L29.1875 17.342L30.5743 13.4125L33.755 12.4141L32.3678 16.3436Z" fill="#CA89FF"/>
<path d="M16.8025 21.2299L19.6444 20.3377L21.0316 16.4082L17.8509 17.4066L16.5938 20.969L16.8025 21.2299Z" fill="#CA89FF"/>
<path d="M12.25 25.332H34.752V26.5821H12.25V25.332Z" fill="#C7C7C7"/>
<path d="M22.883 19.7572L22.9484 19.7368L23.0447 19.7068L28.2118 18.0842L29.3081 17.74L30.9308 17.2308L34.8757 15.9927C35.0953 15.9237 35.2173 15.6898 35.1482 15.4702L34.1498 12.2895C34.1473 12.282 34.1415 12.277 34.1386 12.2695C34.1248 12.2328 34.1059 12.1983 34.0823 12.167C34.0748 12.157 34.069 12.1461 34.0606 12.137C34.058 12.1329 34.055 12.129 34.0519 12.1253C34.0227 12.0953 33.9889 12.0699 33.9519 12.0503C33.9423 12.0449 33.9315 12.0424 33.9215 12.0378C33.8875 12.0225 33.8516 12.0117 33.8148 12.0057C33.8006 12.0036 33.7877 12.002 33.7731 12.0011C33.7238 11.9974 33.6743 12.0028 33.6269 12.017L21.9825 15.6723L20.9049 16.0107L19.0547 16.5915L13.7772 18.2483H12.2487C12.0186 18.2483 11.832 18.4349 11.832 18.6651V35.7499C11.832 36.4403 12.3917 37 13.0821 37H33.9173C34.6077 37 35.1674 36.4403 35.1674 35.7499V21.9987C35.1674 21.9908 35.1632 21.9841 35.1628 21.9762C35.1606 21.9365 35.1528 21.8974 35.1395 21.8599C35.1363 21.8488 35.1326 21.8378 35.1282 21.827C35.1282 21.8224 35.1257 21.817 35.1237 21.8124C35.1043 21.7748 35.0793 21.7404 35.0495 21.7103C35.0428 21.7032 35.0345 21.6982 35.0274 21.6916C34.9986 21.666 34.9665 21.6444 34.932 21.6274C34.9195 21.6216 34.9078 21.6157 34.8949 21.6111C34.8489 21.5929 34.8001 21.583 34.7507 21.582H17.6163L17.5067 21.4453L22.883 19.7572ZM33.0839 13.0621L32.0421 16.0086L30.6549 16.444L29.8553 16.694L30.897 13.7471L31.5638 13.5388L33.0839 13.0621ZM17.135 20.6877L18.1768 17.7408L20.3632 17.0545L19.3214 20.001L17.9747 20.4244L17.135 20.6877ZM29.9011 14.0605L28.8594 17.0074L26.6729 17.6937L27.7147 14.7464L27.9834 14.663L29.9011 14.0605ZM25.6803 18.0054L23.4943 18.6917L24.5361 15.7452L26.7221 15.0589L25.6803 18.0054ZM22.4997 19.0055L20.3132 19.6918L21.355 16.7449L23.5414 16.0573L22.4997 19.0055ZM16.4487 20.1235L15.2728 18.6525L17.1788 18.0542L16.4487 20.1235ZM33.0356 15.6981L33.7289 13.7334L34.229 15.3239L33.0356 15.6981ZM12.6655 19.0818H14.549L16.4754 21.4903L17.0896 22.2574L17.3813 22.6233L17.4317 22.6862L17.6634 22.9754V24.9156H12.6655V19.0818ZM34.3341 35.7499C34.3341 35.98 34.1475 36.1666 33.9173 36.1666H13.0822C12.8521 36.1666 12.6655 35.98 12.6655 35.7499V25.749H34.3341V35.7499ZM34.3341 24.9156H33.0839L34.3341 23.2488V24.9156ZM32.0422 24.9156H29.7503L31.6255 22.4154H33.9173L32.0422 24.9156ZM28.7086 24.9156H26.4167L28.2919 22.4154H30.5837L28.7086 24.9156ZM25.3749 24.9156H23.0831L24.9582 22.4154H27.2501L25.3749 24.9156ZM22.0413 24.9156H19.7494L21.6246 22.4154H23.9165L22.0413 24.9156ZM18.7077 24.9156H18.4993V22.8321C18.4994 22.7374 18.4672 22.6456 18.4081 22.5716L18.2872 22.4208L20.5828 22.4154L18.7077 24.9156Z" fill="#484848"/>
<path d="M13.5 23.249H14.3334V24.0824H13.5V23.249Z" fill="#484848"/>
<path d="M13.5 19.915H14.3334V20.7484H13.5V19.915Z" fill="#484848"/>
<path d="M16 23.249H16.8334V24.0824H16V23.249Z" fill="#484848"/>
<path d="M14.332 28.249H32.667V29.0824H14.332V28.249Z" fill="#484848"/>
<path d="M14.332 32.4164H19.7492V34.9166H20.5826V32.4164H26.4164V34.9166H27.2498V32.4164H32.667V31.583H14.332V32.4164Z" fill="#484848"/>
</g>
<defs>
<clipPath id="clip0_902_91307">
<rect width="25" height="25" fill="white" transform="translate(11 12)"/>
</clipPath>
</defs>
</svg>
