<svg width="47" height="47" viewBox="0 0 47 47" fill="none" xmlns="http://www.w3.org/2000/svg">
<circle cx="23.5" cy="23.5" r="23.5" fill="#E6F9FF"/>
<g clip-path="url(#clip0_902_91302)">
<path d="M26.7357 29.808C25.9882 30.0992 25.4956 30.7923 25.4857 31.5667C24.6391 31.811 24.0594 32.5593 24.0594 33.408C24.0585 33.9481 24.2969 34.4631 24.7152 34.8244C22.6168 36.5241 19.2603 36.4729 16.5307 35.8198C12.8012 34.9267 11.8996 33.1247 11.6824 32.3064C11.6564 32.1988 11.679 32.0858 11.7446 31.9951C11.8102 31.9044 11.9126 31.8445 12.0266 31.8303C19.084 30.8034 21.1742 27.8132 21.7029 26.7549C21.904 27.0585 22.1745 27.3142 22.4939 27.5024C23.0661 27.8412 23.7323 28.0045 24.4037 27.9706C25.1309 27.9679 25.8501 27.8247 26.5184 27.5496C26.6534 28.2957 26.726 29.0509 26.7357 29.808Z" fill="#E2BFFF"/>
<path d="M26.5188 27.5498C26.1453 27.7155 25.7486 27.8279 25.3413 27.8834C25.4425 28.5206 25.4973 29.1637 25.5053 29.8082C24.7578 30.0994 24.2652 30.7925 24.2553 31.5669C23.4087 31.8112 22.829 32.5595 22.829 33.4082C22.8281 33.9483 23.0665 34.4633 23.4848 34.8246C22.2834 35.7166 20.8116 36.2078 19.293 36.2236C21.2864 36.3236 23.2901 35.9781 24.7143 34.8246C24.296 34.4633 24.0576 33.9483 24.0585 33.4082C24.0586 32.5595 24.6382 31.8112 25.4848 31.5669C25.4947 30.7925 25.9873 30.0994 26.7348 29.8082C26.7256 29.0511 26.6533 28.2959 26.5188 27.5498Z" fill="#B458FF"/>
<path d="M26.5187 27.55C25.8503 27.8251 25.1311 27.9682 24.4039 27.9709C23.7326 28.0048 23.0664 27.8415 22.4941 27.5027C22.1747 27.3145 21.9042 27.0588 21.7031 26.7552C21.7277 26.7041 21.7482 26.6568 21.7687 26.6136C21.9799 26.0724 22.3873 25.6226 22.9162 25.3467C23.0545 25.2807 23.2003 25.2305 23.3507 25.1972C23.8091 25.1069 24.2852 25.1479 24.7195 25.3152C24.9426 25.3962 25.1523 25.5075 25.3425 25.6457C25.9673 26.0947 26.3861 26.7591 26.5105 27.4988C26.5146 27.5146 26.5146 27.5342 26.5187 27.55Z" fill="#FFC673"/>
<path d="M27.577 14.5616L25.3434 25.6449C25.1532 25.5067 24.9435 25.3954 24.7204 25.3144C24.286 25.1471 23.81 25.1061 23.3516 25.1964L25.5688 14.1879C25.619 13.8257 25.8741 13.5201 26.2313 13.3943C26.5885 13.2684 26.989 13.3429 27.2714 13.5878C27.5537 13.8328 27.6714 14.2077 27.577 14.5616Z" fill="#FFC4A8"/>
<path d="M21.7036 26.7554C21.7012 26.7554 21.6992 26.7534 21.6992 26.751L21.7036 26.7554Z" fill="#FFC4A8"/>
<path d="M35.3824 33.3918C35.3834 34.1826 34.9345 34.9108 34.2119 35.2905C33.4893 35.6701 32.6084 35.6406 31.9152 35.2134C31.3085 35.9016 30.406 36.2839 29.4676 36.2501C28.5291 36.2163 27.659 35.7702 27.1078 35.0403C26.7927 35.228 26.4294 35.3275 26.0586 35.3275C24.9559 35.3232 24.0631 34.4661 24.0586 33.4075C24.0586 32.5588 24.6382 31.8106 25.4848 31.5662C25.4947 30.7919 25.9874 30.0988 26.7348 29.8075C27.3894 29.5513 28.1364 29.6471 28.6979 30.0593C29.3726 29.29 30.4479 28.9616 31.4616 29.2154C32.4752 29.4691 33.2465 30.2599 33.4438 31.2475C34.555 31.4011 35.3804 32.3141 35.3824 33.3918Z" fill="#9BFFFD"/>
<path d="M33.4456 31.2478C33.3073 30.5481 32.8765 29.9334 32.2535 29.5468C31.6305 29.1602 30.8697 29.0356 30.1484 29.2019C31.0494 29.3991 31.785 30.0211 32.1025 30.8543C32.1927 31.0865 32.3877 31.2669 32.6329 31.3445C33.5637 31.6525 34.1786 32.5048 34.1517 33.4496C34.1248 34.3944 33.4622 35.2131 32.5152 35.4718C33.3169 35.6968 34.182 35.4594 34.7386 34.8615C35.0985 34.5154 35.3236 34.061 35.3763 33.5746C35.475 32.4309 34.6289 31.4112 33.4456 31.2478Z" fill="#C0D5DF"/>
<path d="M33.9504 27.5571C34.5162 27.5571 34.975 27.1167 34.975 26.5735C34.975 26.0302 34.5162 25.5898 33.9504 25.5898C33.3845 25.5898 32.9258 26.0302 32.9258 26.5735C32.9258 27.1167 33.3845 27.5571 33.9504 27.5571Z" fill="#7F8E94"/>
<path d="M31.2845 24.8033C31.7372 24.8033 32.1042 24.451 32.1042 24.0164C32.1042 23.5818 31.7372 23.2295 31.2845 23.2295C30.8318 23.2295 30.4648 23.5818 30.4648 24.0164C30.4648 24.451 30.8318 24.8033 31.2845 24.8033Z" fill="#7F8E94"/>
<path d="M14.0739 22.0494C13.8476 22.0494 13.6641 21.8732 13.6641 21.6559V20.869C13.6641 20.6517 13.8476 20.4756 14.0739 20.4756C14.3002 20.4756 14.4837 20.6517 14.4837 20.869V21.6559C14.4837 21.8732 14.3002 22.0494 14.0739 22.0494Z" fill="#EF314C"/>
<path d="M14.0739 24.4097C13.8476 24.4097 13.6641 24.2336 13.6641 24.0163V23.2294C13.6641 23.0121 13.8476 22.8359 14.0739 22.8359C14.3002 22.8359 14.4837 23.0121 14.4837 23.2294V24.0163C14.4837 24.2336 14.3002 24.4097 14.0739 24.4097Z" fill="#EF314C"/>
<path d="M13.2529 22.8357H12.4333C12.2069 22.8357 12.0234 22.6596 12.0234 22.4423C12.0234 22.225 12.2069 22.0488 12.4333 22.0488H13.2529C13.4793 22.0488 13.6628 22.225 13.6628 22.4423C13.6628 22.6596 13.4793 22.8357 13.2529 22.8357Z" fill="#EF314C"/>
<path d="M15.7139 22.8357H14.8942C14.6679 22.8357 14.4844 22.6596 14.4844 22.4423C14.4844 22.225 14.6679 22.0488 14.8942 22.0488H15.7139C15.9402 22.0488 16.1237 22.225 16.1237 22.4423C16.1237 22.6596 15.9402 22.8357 15.7139 22.8357Z" fill="#EF314C"/>
<path d="M15.3004 28.3439C15.1346 28.3439 14.9852 28.248 14.9218 28.101C14.8584 27.954 14.8935 27.7848 15.0106 27.6723L15.6254 27.0821C15.7862 26.933 16.0418 26.9352 16.1999 27.0869C16.358 27.2387 16.3602 27.4841 16.2049 27.6385L15.5901 28.2286C15.5133 28.3024 15.4091 28.3439 15.3004 28.3439Z" fill="#02A9F4"/>
<path d="M17.148 26.5734C16.9823 26.5734 16.8329 26.4775 16.7695 26.3305C16.7061 26.1835 16.7411 26.0143 16.8583 25.9018L17.473 25.3116C17.6339 25.1625 17.8895 25.1646 18.0476 25.3164C18.2056 25.4682 18.2079 25.7136 18.0526 25.8679L17.4378 26.4581C17.361 26.5319 17.2567 26.5734 17.148 26.5734Z" fill="#02A9F4"/>
<path d="M17.7617 28.3439C17.6531 28.3439 17.5488 28.3024 17.472 28.2286L16.8572 27.6385C16.7019 27.4841 16.7041 27.2387 16.8622 27.0869C17.0203 26.9352 17.2759 26.933 17.4367 27.0821L18.0515 27.6723C18.1687 27.7848 18.2037 27.954 18.1403 28.101C18.0769 28.248 17.9275 28.3439 17.7617 28.3439Z" fill="#02A9F4"/>
<path d="M15.918 26.5734C15.8093 26.5734 15.7051 26.5319 15.6282 26.4581L15.0135 25.8679C14.8582 25.7136 14.8604 25.4682 15.0185 25.3164C15.1766 25.1646 15.4322 25.1625 15.593 25.3116L16.2077 25.9018C16.3249 26.0143 16.36 26.1835 16.2965 26.3305C16.2331 26.4775 16.0837 26.5734 15.918 26.5734Z" fill="#02A9F4"/>
<path d="M31.8375 31.9384C31.641 31.9384 31.4722 31.8046 31.435 31.6193C31.3863 31.3762 31.1964 31.1817 30.9469 31.1193C30.6974 31.0568 30.4327 31.1377 30.2666 31.327C30.1206 31.4932 29.8619 31.5144 29.6887 31.3742C29.5156 31.2341 29.4936 30.9857 29.6395 30.8195C30.0095 30.3984 30.5986 30.2188 31.1538 30.3579C31.709 30.4969 32.1317 30.9297 32.2404 31.4706C32.2609 31.5731 32.2382 31.6792 32.1773 31.7656C32.1163 31.852 32.0221 31.9116 31.9154 31.9313C31.8897 31.936 31.8636 31.9384 31.8375 31.9384Z" fill="#F5F5F5"/>
<path d="M14.0739 22.0494C13.8476 22.0494 13.6641 21.8732 13.6641 21.6559V20.869C13.6641 20.6517 13.8476 20.4756 14.0739 20.4756C14.3002 20.4756 14.4837 20.6517 14.4837 20.869V21.6559C14.4837 21.8732 14.3002 22.0494 14.0739 22.0494Z" fill="#EF314C"/>
<path d="M14.0739 24.4097C13.8476 24.4097 13.6641 24.2336 13.6641 24.0163V23.2294C13.6641 23.0121 13.8476 22.8359 14.0739 22.8359C14.3002 22.8359 14.4837 23.0121 14.4837 23.2294V24.0163C14.4837 24.2336 14.3002 24.4097 14.0739 24.4097Z" fill="#EF314C"/>
<path d="M13.2529 22.8357H12.4333C12.2069 22.8357 12.0234 22.6596 12.0234 22.4423C12.0234 22.225 12.2069 22.0488 12.4333 22.0488H13.2529C13.4793 22.0488 13.6628 22.225 13.6628 22.4423C13.6628 22.6596 13.4793 22.8357 13.2529 22.8357Z" fill="#EF314C"/>
<path d="M15.7139 22.8357H14.8942C14.6679 22.8357 14.4844 22.6596 14.4844 22.4423C14.4844 22.225 14.6679 22.0488 14.8942 22.0488H15.7139C15.9402 22.0488 16.1237 22.225 16.1237 22.4423C16.1237 22.6596 15.9402 22.8357 15.7139 22.8357Z" fill="#EF314C"/>
<path d="M15.3004 28.3439C15.1346 28.3439 14.9852 28.248 14.9218 28.101C14.8584 27.954 14.8935 27.7848 15.0106 27.6723L15.6254 27.0821C15.7862 26.933 16.0418 26.9352 16.1999 27.0869C16.358 27.2387 16.3602 27.4841 16.2049 27.6385L15.5901 28.2286C15.5133 28.3024 15.4091 28.3439 15.3004 28.3439Z" fill="#02A9F4"/>
<path d="M17.148 26.5734C16.9823 26.5734 16.8329 26.4775 16.7695 26.3305C16.7061 26.1835 16.7411 26.0143 16.8583 25.9018L17.473 25.3116C17.6339 25.1625 17.8895 25.1646 18.0476 25.3164C18.2056 25.4682 18.2079 25.7136 18.0526 25.8679L17.4378 26.4581C17.361 26.5319 17.2567 26.5734 17.148 26.5734Z" fill="#02A9F4"/>
<path d="M17.7617 28.3439C17.6531 28.3439 17.5488 28.3024 17.472 28.2286L16.8572 27.6385C16.7019 27.4841 16.7041 27.2387 16.8622 27.0869C17.0203 26.9352 17.2759 26.933 17.4367 27.0821L18.0515 27.6723C18.1687 27.7848 18.2037 27.954 18.1403 28.101C18.0769 28.248 17.9275 28.3439 17.7617 28.3439Z" fill="#02A9F4"/>
<path d="M15.918 26.5734C15.8093 26.5734 15.7051 26.5319 15.6282 26.4581L15.0135 25.8679C14.8582 25.7136 14.8604 25.4682 15.0185 25.3164C15.1766 25.1646 15.4322 25.1625 15.593 25.3116L16.2077 25.9018C16.3249 26.0143 16.36 26.1835 16.2965 26.3305C16.2331 26.4775 16.0837 26.5734 15.918 26.5734Z" fill="#02A9F4"/>
<path d="M33.7858 30.9111C33.4847 29.9055 32.6601 29.1229 31.6093 28.8453C30.5585 28.5678 29.4329 28.8352 28.6383 29.5513C28.1804 29.307 27.6492 29.2203 27.133 29.3058C27.0997 28.6779 27.0275 28.0524 26.917 27.4326C26.786 26.6815 26.3895 25.9966 25.794 25.4934L27.9797 14.6391C28.0544 14.2834 27.9777 13.9139 27.7666 13.613C27.445 13.1475 26.8621 12.9151 26.2917 13.0249C25.7213 13.1348 25.2767 13.565 25.167 14.1134L22.9948 24.889C22.9058 24.9188 22.8186 24.9536 22.7338 24.9933C22.1146 25.3077 21.6368 25.8289 21.3907 26.4585C20.9866 27.3634 19.1133 30.4008 11.9694 31.4402C11.7383 31.4711 11.5316 31.5943 11.4002 31.7794C11.2718 31.9625 11.2302 32.1892 11.2858 32.4034C11.445 32.9572 11.7295 33.4706 12.119 33.9067C12.145 33.9512 12.1796 33.9905 12.2211 34.0224C12.9655 34.7873 13.8871 35.3732 14.9112 35.7327C14.9223 35.737 14.9325 35.7421 14.944 35.7457C15.429 35.9291 15.9261 36.0813 16.4321 36.2013C17.3269 36.4136 18.2395 36.5492 19.1592 36.6065C19.1756 36.6098 19.1921 36.612 19.2088 36.6132C19.2133 36.6132 19.2178 36.6105 19.2219 36.6105C19.4637 36.6238 19.7092 36.6333 19.9596 36.6333C21.5469 36.6333 23.2977 36.326 24.7034 35.3204C25.38 35.7634 26.2452 35.8448 26.9985 35.5364C27.6278 36.2116 28.5168 36.6112 29.46 36.6427C30.4033 36.6742 31.319 36.3349 31.9957 35.7032C32.912 36.1182 33.9943 35.9983 34.788 35.3937C35.5818 34.7891 35.9495 33.8046 35.7369 32.8536C35.5243 31.9026 34.7681 31.1497 33.7858 30.9111ZM25.9719 14.2625C26.0364 13.9452 26.3549 13.7368 26.6862 13.7951C26.8492 13.8256 26.9927 13.9172 27.085 14.0497C27.1749 14.178 27.2075 14.3356 27.1756 14.4872L25.0506 25.0315C24.9887 25.0035 24.9276 24.9717 24.8649 24.948C24.5432 24.8295 24.2025 24.7656 23.858 24.7592L25.9719 14.2625ZM23.0973 25.6995C23.5641 25.4925 24.1006 25.4861 24.5727 25.6818C25.3036 25.9704 25.8494 26.5738 26.0444 27.3091C25.5114 27.479 24.9544 27.5694 24.3928 27.577C23.8052 27.61 23.2213 27.4686 22.7203 27.1722C22.5149 27.048 22.3313 26.8936 22.176 26.7146C22.3492 26.2827 22.6754 25.9233 23.0973 25.6995ZM16.4207 35.3821C18.6108 34.6629 21.1194 33.4244 22.6092 31.3195C22.7322 31.1398 22.6824 30.8987 22.4971 30.7778C22.3119 30.657 22.06 30.7013 21.9313 30.8772C20.3207 33.1533 17.3514 34.3474 15.0916 34.9541C14.4654 34.7161 13.8796 34.3899 13.3534 33.9862C14.953 33.7662 16.5068 33.3065 17.958 32.6241C18.0885 32.5578 18.1717 32.4293 18.176 32.2876C18.1802 32.146 18.1048 32.0131 17.9785 31.9397C17.8521 31.8663 17.6945 31.8639 17.5657 31.9332C16.0678 32.7178 13.9321 33.1167 12.6543 33.2973C12.391 32.9788 12.1986 32.6119 12.0887 32.2193C18.3875 31.3021 20.8592 28.8294 21.7674 27.448C21.9224 27.5913 22.0915 27.7199 22.2723 27.832C22.8737 28.193 23.5713 28.3785 24.2805 28.3659C24.3268 28.3659 24.3727 28.3659 24.4194 28.3635C25.0199 28.3538 25.616 28.2641 26.1907 28.0968C26.2616 28.5862 26.3047 29.079 26.3198 29.573C25.6541 29.9275 25.2011 30.5623 25.0973 31.2864C24.221 31.6577 23.6538 32.4887 23.6489 33.4082C23.6495 33.8971 23.8123 34.3731 24.1137 34.7672C23.1144 35.4037 21.9542 35.7683 20.7563 35.8224C21.4517 35.3814 22.0787 34.8483 22.6186 34.2388C22.7637 34.0718 22.7403 33.8235 22.5664 33.6842C22.3924 33.545 22.1338 33.5674 21.9887 33.7344C21.1926 34.611 20.217 35.3208 19.1227 35.8197C18.2823 35.7602 17.4487 35.6322 16.6309 35.4368C16.5575 35.4203 16.4907 35.4002 16.4207 35.3821ZM33.1297 35.1614C32.778 35.161 32.4338 35.0638 32.1379 34.8813C31.9654 34.7754 31.7379 34.808 31.6051 34.9576C31.0804 35.5543 30.2989 35.886 29.4861 35.8572C28.6733 35.8284 27.9194 35.4422 27.442 34.8101C27.3159 34.6434 27.0773 34.5983 26.8948 34.7066C26.3686 35.019 25.7014 35.0101 25.1844 34.6837C24.6674 34.3574 24.3945 33.7728 24.4847 33.1852C24.575 32.5976 25.012 32.1135 25.6051 31.9442C25.7769 31.8948 25.8953 31.7439 25.8973 31.5717C25.9107 30.7362 26.6179 30.0646 27.4883 30.0608C27.8364 30.0593 28.1752 30.1685 28.4518 30.3713C28.6257 30.4981 28.8726 30.4718 29.0133 30.3115C29.5868 29.6586 30.4999 29.3803 31.3607 29.5959C32.2214 29.8116 32.8764 30.4828 33.0444 31.3214C33.0778 31.4864 33.2166 31.6129 33.3899 31.6362C34.3509 31.7646 35.0439 32.5859 34.9753 33.515C34.9067 34.4441 34.0999 35.1633 33.1297 35.1602V35.1614Z" fill="#484848"/>
<path d="M33.9501 27.9514C34.7423 27.9514 35.3845 27.3348 35.3845 26.5743C35.3845 25.8138 34.7423 25.1973 33.9501 25.1973C33.1578 25.1973 32.5156 25.8138 32.5156 26.5743C32.5156 26.9395 32.6668 27.2898 32.9358 27.548C33.2048 27.8063 33.5696 27.9514 33.9501 27.9514ZM33.9501 25.9842C34.2896 25.9842 34.5648 26.2484 34.5648 26.5743C34.5648 26.9003 34.2896 27.1645 33.9501 27.1645C33.6105 27.1645 33.3353 26.9003 33.3353 26.5743C33.3353 26.2484 33.6105 25.9842 33.9501 25.9842Z" fill="#484848"/>
<path d="M31.2842 25.1966C31.9632 25.1966 32.5137 24.6681 32.5137 24.0163C32.5137 23.3644 31.9632 22.8359 31.2842 22.8359C30.6052 22.8359 30.0547 23.3644 30.0547 24.0163C30.0547 24.6681 30.6052 25.1966 31.2842 25.1966ZM31.2842 23.6228C31.5105 23.6228 31.694 23.799 31.694 24.0163C31.694 24.2336 31.5105 24.4097 31.2842 24.4097C31.0578 24.4097 30.8744 24.2336 30.8744 24.0163C30.8744 23.799 31.0578 23.6228 31.2842 23.6228Z" fill="#484848"/>
<path d="M16.0524 16.9629L23.0196 18.1433C23.0432 18.1473 23.0673 18.1493 23.0913 18.1492C23.303 18.1481 23.4791 17.9924 23.4975 17.7899C23.5159 17.5874 23.3706 17.4048 23.1622 17.3686L16.195 16.1882C15.9748 16.1556 15.7678 16.298 15.729 16.5086C15.6902 16.7193 15.8338 16.9211 16.0524 16.9629Z" fill="#484848"/>
<path d="M23.0836 19.7909C23.1228 19.5771 22.9743 19.3732 22.7517 19.3353L18.3094 18.5822C18.0865 18.5444 17.8738 18.6873 17.8344 18.9013C17.7951 19.1154 17.9439 19.3195 18.1668 19.3573L22.609 20.11C22.6327 20.1141 22.6567 20.116 22.6808 20.1159C22.8793 20.1155 23.0491 19.9786 23.0836 19.7909Z" fill="#484848"/>
<path d="M22.3407 21.2684L16.9694 20.3576C16.7464 20.3199 16.5338 20.4628 16.4946 20.6769C16.4553 20.8909 16.6042 21.095 16.8271 21.1327L22.198 22.0427C22.2216 22.0468 22.2454 22.0491 22.2694 22.0494C22.482 22.0495 22.6594 21.8935 22.6778 21.6901C22.6963 21.4868 22.5501 21.3036 22.3407 21.2684Z" fill="#484848"/>
</g>
<defs>
<clipPath id="clip0_902_91302">
<rect width="25" height="24" fill="white" transform="translate(11 13)"/>
</clipPath>
</defs>
</svg>
