<svg width="47" height="47" viewBox="0 0 47 47" fill="none" xmlns="http://www.w3.org/2000/svg">
<circle cx="23.5" cy="23.5" r="23.5" fill="#E6F9FF"/>
<g clip-path="url(#clip0_902_91275)">
<path d="M31.4043 23.6561L38.0977 20.3956C38.1985 20.3471 38.2888 20.279 38.3631 20.1953C38.4374 20.1117 38.4943 20.014 38.5306 19.9081C38.5668 19.8022 38.5816 19.6902 38.5741 19.5785C38.5666 19.4669 38.5369 19.3578 38.4869 19.2577L38.3881 19.0602C38.2908 18.8656 38.1221 18.7161 37.9172 18.6429C37.7123 18.5697 37.487 18.5785 37.2885 18.6675L30.7188 21.6522L31.4043 23.6561Z" fill="#D38F29"/>
<path d="M31.1953 23.6562C31.7778 23.6562 32.25 23.1841 32.25 22.6016C32.25 22.0191 31.7778 21.5469 31.1953 21.5469C30.6128 21.5469 30.1406 22.0191 30.1406 22.6016C30.1406 23.1841 30.6128 23.6562 31.1953 23.6562Z" fill="#AA6B17"/>
<path d="M29.9932 24.0605C31.371 28.0217 28.563 32.5979 23.7219 34.2819C18.8809 35.9659 13.8387 34.1198 12.4609 30.1589L29.9932 24.0605Z" fill="#CCCCCC"/>
<path d="M16.6406 26.2948C17.4105 25.9066 18.2613 25.527 19.1719 25.1706C19.5691 25.0151 19.9773 24.8643 20.3964 24.7184C25.2377 23.0344 29.5348 22.7397 29.994 24.0601C30.4533 25.3804 26.9009 27.816 22.0595 29.4999C17.2181 31.1839 12.9211 31.4786 12.4618 30.1584C12.3066 29.7122 12.6095 29.1386 13.2656 28.5098" fill="#A0A09D"/>
<path d="M20.6571 29.9542C18.9221 30.4747 17.3053 30.8027 15.9716 30.9277C13.4694 30.4826 12.8144 27.3592 12.8086 26.4195C12.8081 26.3338 12.8245 26.2488 12.857 26.1695C12.8895 26.0903 12.9373 26.0182 12.9977 25.9574C13.0582 25.8967 13.13 25.8485 13.2092 25.8157C13.2883 25.7828 13.3731 25.766 13.4588 25.7661C13.6311 25.766 13.7963 25.6975 13.9181 25.5757C14.04 25.4539 14.1084 25.2887 14.1085 25.1164V22.1327C14.1085 22.0005 14.1345 21.8696 14.1851 21.7474C14.2357 21.6253 14.3099 21.5143 14.4034 21.4208C14.4968 21.3274 14.6078 21.2532 14.73 21.2026C14.8521 21.152 14.983 21.126 15.1152 21.126C15.2474 21.126 15.3783 21.152 15.5005 21.2026C15.6226 21.2532 15.7336 21.3274 15.8271 21.4208C15.9205 21.5143 15.9947 21.6253 16.0453 21.7474C16.0959 21.8696 16.1219 22.0005 16.1219 22.1327C16.1219 22.1496 16.1219 22.1664 16.1209 22.1833C16.0127 24.3897 16.0797 29.2798 20.6476 29.9321L20.6571 29.9542Z" fill="#F9EE64"/>
<path d="M15.7969 18.5938C16.2629 18.5938 16.6406 18.216 16.6406 17.75C16.6406 17.284 16.2629 16.9062 15.7969 16.9062C15.3309 16.9062 14.9531 17.284 14.9531 17.75C14.9531 18.216 15.3309 18.5938 15.7969 18.5938Z" fill="#AA6F21"/>
<path d="M18.75 15.6406C19.216 15.6406 19.5938 15.2629 19.5938 14.7969C19.5938 14.3309 19.216 13.9531 18.75 13.9531C18.284 13.9531 17.9062 14.3309 17.9062 14.7969C17.9062 15.2629 18.284 15.6406 18.75 15.6406Z" fill="#79C143"/>
<path d="M28.3969 25.4418C28.3425 25.9043 28.2371 26.4053 28.033 26.6094L28.0372 26.6294C27.2504 27.171 26.2622 27.7268 25.1289 28.2579C25.3752 28.0517 26.4726 27.0439 26.7183 25.2346C26.7452 25.0317 26.8448 24.8454 26.9986 24.7103C27.1524 24.5752 27.35 24.5005 27.5547 24.5H27.5589C27.678 24.5 27.7957 24.5252 27.9043 24.574C28.013 24.6227 28.1101 24.6939 28.1892 24.7829C28.2683 24.8719 28.3278 24.9766 28.3636 25.0901C28.3994 25.2037 28.4107 25.3236 28.3969 25.4418Z" fill="#F9EE64"/>
<path opacity="0.3" d="M14.1085 27.0307C15.5658 26.002 15.2116 22.4302 15.0278 21.1289C14.7769 21.1508 14.5433 21.2659 14.3732 21.4515C14.203 21.6372 14.1085 21.8799 14.1085 22.1317V25.1154C14.1084 25.2877 14.04 25.4529 13.9181 25.5747C13.7963 25.6966 13.6311 25.765 13.4588 25.7651C13.3731 25.765 13.2883 25.7819 13.2092 25.8147C13.13 25.8476 13.0582 25.8957 12.9977 25.9565C12.9373 26.0172 12.8895 26.0893 12.857 26.1686C12.8245 26.2479 12.8081 26.3328 12.8086 26.4185C12.8113 26.8635 12.9598 27.7982 13.381 28.7062C13.3057 28.1094 13.454 27.4928 14.1085 27.0307Z" fill="white"/>
<path opacity="0.3" d="M16.2973 17.0734C16.2062 17.0052 16.1023 16.9562 15.9919 16.9293C15.8814 16.9023 15.7666 16.898 15.6544 16.9166C15.5422 16.9352 15.4349 16.9763 15.3391 17.0374C15.2432 17.0985 15.1606 17.1784 15.0964 17.2723C15.0322 17.3662 14.9877 17.472 14.9655 17.5836C14.9432 17.6951 14.9438 17.81 14.9672 17.9212C14.9905 18.0325 15.0361 18.138 15.1013 18.2312C15.1664 18.3244 15.2498 18.4034 15.3463 18.4636C15.2478 17.6778 15.8291 17.2711 16.2973 17.0734Z" fill="white"/>
<path opacity="0.3" d="M19.2504 14.1202C19.1593 14.0521 19.0555 14.0031 18.945 13.9761C18.8345 13.9492 18.7197 13.9449 18.6075 13.9635C18.4953 13.9821 18.3881 14.0232 18.2922 14.0843C18.1963 14.1454 18.1138 14.2253 18.0496 14.3192C17.9854 14.413 17.9408 14.5189 17.9186 14.6304C17.8964 14.742 17.897 14.8568 17.9203 14.9681C17.9436 15.0794 17.9892 15.1848 18.0544 15.278C18.1195 15.3712 18.2029 15.4503 18.2994 15.5105C18.2009 14.7247 18.7822 14.3179 19.2504 14.1202Z" fill="white"/>
<path opacity="0.3" d="M25.9766 27.2648C27.3909 26.7085 27.8966 25.3366 28.0629 24.6677C27.9173 24.5585 27.7401 24.4996 27.558 24.5H27.5538C27.3491 24.5005 27.1515 24.5752 26.9977 24.7103C26.8439 24.8454 26.7443 25.0317 26.7174 25.2346C26.6212 25.9572 26.3684 26.6501 25.9766 27.2648Z" fill="white"/>
<path d="M38.4307 19.1435L38.389 19.0602C38.2917 18.8656 38.123 18.7161 37.9181 18.6429C37.7132 18.5697 37.4879 18.5785 37.2894 18.6675L31.1016 21.4787C34.852 21.1376 37.3704 19.8128 38.4307 19.1435Z" fill="#EFB66A"/>
<path opacity="0.3" d="M18.2235 30.5759C15.1277 31.2226 12.7928 31.1119 12.4609 30.1582C13.8388 34.1192 18.8803 35.9652 23.7219 34.2812C24.7792 33.9159 25.7752 33.3929 26.6762 32.73C21.0852 33.6642 18.9416 31.6357 18.2235 30.5759Z" fill="white"/>
<path d="M16.6496 34.7333C17.7546 35.1325 18.9212 35.3342 20.096 35.3292C21.3789 35.3248 22.652 35.1056 23.8625 34.6806C26.2957 33.8342 28.3161 32.2593 29.5513 30.246C30.8033 28.2055 31.1025 25.9597 30.3938 23.9221C30.38 23.8833 30.3642 23.8453 30.3463 23.8082C30.5242 23.9341 30.7277 24.0189 30.9423 24.0566C31.157 24.0942 31.3773 24.0837 31.5873 24.0258L38.2836 20.7765C38.4349 20.7038 38.5703 20.6017 38.6818 20.4762C38.7932 20.3507 38.8786 20.2042 38.933 20.0454C38.9873 19.8866 39.0095 19.7185 38.9983 19.551C38.987 19.3835 38.9426 19.2199 38.8675 19.0698L38.7687 18.8722C38.6229 18.5794 38.3693 18.3546 38.0612 18.245C37.753 18.1353 37.4144 18.1495 37.1165 18.2844L30.8104 21.1637C30.4962 21.2509 30.2193 21.4388 30.0223 21.6987C29.8253 21.9585 29.7191 22.2759 29.72 22.602C29.72 22.7694 29.7485 22.9356 29.8044 23.0933L29.6803 23.1761C28.025 22.3482 24.0102 23.0156 20.2591 24.3204C20.0387 24.3971 19.819 24.4761 19.5999 24.5574C19.1853 23.0216 20.2581 21.9038 20.3165 21.8446L19.7188 21.2491C19.31 21.6912 19.0042 22.2184 18.8234 22.7927C18.61 23.4655 18.6041 24.1869 18.8065 24.8631C18.1315 25.1326 17.4829 25.4175 16.8691 25.7136C16.5287 24.45 16.4985 23.1462 16.5448 22.204C16.5539 22.0139 16.5249 21.8238 16.4595 21.645C16.3942 21.4662 16.2937 21.3023 16.1641 21.1629C16.0344 21.0234 15.8782 20.9113 15.7047 20.8331C15.5311 20.7549 15.3437 20.7121 15.1533 20.7074C14.963 20.7026 14.7737 20.7359 14.5964 20.8054C14.4191 20.8748 14.2576 20.979 14.1211 21.1118C13.9847 21.2446 13.8762 21.4033 13.8019 21.5786C13.7277 21.7539 13.6892 21.9423 13.6888 22.1326V25.1163C13.6887 25.1768 13.6646 25.2347 13.6218 25.2774C13.5791 25.3201 13.5211 25.3441 13.4607 25.3442C13.3194 25.3441 13.1795 25.372 13.0491 25.4262C12.9186 25.4804 12.8002 25.5599 12.7005 25.6601C12.6009 25.7603 12.5221 25.8792 12.4686 26.01C12.4151 26.1407 12.388 26.2808 12.3888 26.422C12.4075 27.1066 12.5295 27.7843 12.7506 28.4324C12.1051 29.1235 11.8743 29.7499 12.0646 30.2972C12.7734 32.3348 14.4017 33.9102 16.6496 34.7333ZM23.5853 33.8834C21.3356 34.6659 18.9755 34.6864 16.9397 33.941C15.4355 33.3903 14.245 32.4694 13.4803 31.2866C13.9215 31.373 14.3703 31.4134 14.8198 31.4072C15.0782 31.4072 15.3542 31.3971 15.6477 31.377C17.1023 31.2772 18.8529 30.9302 20.69 30.3848C20.7269 30.3907 21.7329 30.0611 22.1996 29.8988C23.2641 29.5304 24.3089 29.1071 25.3296 28.6306L25.3511 28.6206C26.4548 28.1012 27.4424 27.5488 28.2546 26.992C28.9812 26.4938 29.5285 26.0224 29.8965 25.5777C30.2139 28.9468 27.6403 32.473 23.5853 33.8834ZM27.9774 25.3931C27.8885 26.1494 27.7404 26.3051 27.7342 26.3114L27.7424 26.3196C27.3931 26.5574 27.0101 26.7946 26.5981 27.0287C26.8734 26.4838 27.0552 25.8965 27.1361 25.2914C27.15 25.1892 27.2004 25.0956 27.2781 25.0277C27.3557 24.9598 27.4553 24.9224 27.5584 24.9223C27.618 24.9223 27.6768 24.9349 27.7312 24.9592C27.7855 24.9836 27.8341 25.0192 27.8737 25.0637C27.9133 25.1082 27.943 25.1605 27.9609 25.2174C27.9788 25.2742 27.9845 25.3341 27.9775 25.3933L27.9774 25.3931ZM37.4642 19.0529C37.5634 19.0082 37.6761 19.0037 37.7787 19.0403C37.8812 19.0769 37.9655 19.1518 38.014 19.2492L38.1128 19.4468C38.1379 19.497 38.1528 19.5518 38.1565 19.6078C38.1601 19.6638 38.1526 19.72 38.1343 19.7731C38.116 19.8262 38.0873 19.8751 38.0498 19.9169C38.0123 19.9587 37.9669 19.9927 37.9162 20.0167L32.6724 22.5711C32.6682 22.3625 32.6196 22.1572 32.53 21.9688C32.4405 21.7803 32.3119 21.6131 32.1528 21.478L37.4642 19.0529ZM31.1966 21.9692C31.3286 21.969 31.4574 22.0102 31.5648 22.0869C31.6722 22.1637 31.7529 22.2721 31.7955 22.397C31.8382 22.522 31.8407 22.6571 31.8026 22.7835C31.7645 22.9099 31.6878 23.0212 31.5833 23.1018L31.3512 23.215C31.2762 23.2348 31.198 23.2398 31.121 23.2298L31.2199 23.164C31.2666 23.1335 31.3067 23.0941 31.3381 23.048C31.3695 23.0019 31.3914 22.95 31.4026 22.8954C31.4138 22.8408 31.4141 22.7845 31.4034 22.7298C31.3927 22.6751 31.3713 22.623 31.3403 22.5766C31.3094 22.5302 31.2696 22.4904 31.2232 22.4595C31.1768 22.4286 31.1247 22.4072 31.07 22.3966C31.0153 22.3859 30.959 22.3862 30.9044 22.3974C30.8498 22.4086 30.7979 22.4306 30.7518 22.462L30.5647 22.5867C30.5688 22.4217 30.6372 22.2648 30.7552 22.1495C30.8732 22.0342 31.0316 21.9694 31.1966 21.9692ZM19.6928 26.458L20.341 25.9179C20.1878 25.7354 20.0502 25.5403 19.9297 25.3348C20.131 25.2605 20.3336 25.1878 20.5361 25.1173C22.8433 24.3148 25.0924 23.8057 26.8686 23.6839C27.6951 23.6273 28.3918 23.6603 28.883 23.7795C29.2828 23.8765 29.5362 24.0255 29.5966 24.1991C29.657 24.3728 29.5507 24.6468 29.2975 24.971C29.1509 25.1539 28.9899 25.3248 28.8161 25.4821C28.8517 25.1507 28.7554 24.8187 28.5479 24.5578C28.3405 24.297 28.0387 24.1283 27.7079 24.0883C27.377 24.0484 27.0437 24.1403 26.7801 24.3443C26.5166 24.5483 26.3439 24.8478 26.2996 25.1781C26.0853 26.7555 25.1529 27.6747 24.8928 27.9036C23.9232 28.3525 22.9317 28.7524 21.922 29.1019C21.4916 29.2516 21.0642 29.3908 20.6397 29.5197C18.9729 29.198 17.7944 28.1908 17.1345 26.5218C17.7637 26.2149 18.4339 25.9198 19.1322 25.6412C19.2919 25.9311 19.4797 26.2047 19.6928 26.458ZM13.2986 26.2553C13.3197 26.2338 13.345 26.2168 13.3728 26.2053C13.4007 26.1937 13.4306 26.1878 13.4607 26.1879C13.7449 26.1876 14.0173 26.0746 14.2183 25.8736C14.4192 25.6727 14.5322 25.4002 14.5325 25.1161V22.1326C14.5326 21.9774 14.5943 21.8286 14.7041 21.7188C14.8138 21.6091 14.9627 21.5474 15.1179 21.5473C15.1972 21.5473 15.2758 21.5635 15.3487 21.5948C15.4216 21.6261 15.4874 21.672 15.542 21.7295C15.5967 21.787 15.639 21.8551 15.6666 21.9295C15.6941 22.0039 15.7062 22.0832 15.7022 22.1624C15.6419 23.3881 15.7046 25.1913 16.3459 26.8211C16.7153 27.7598 17.2378 28.5322 17.8988 29.1168C18.2752 29.4487 18.6989 29.7229 19.1559 29.9304C18.191 30.18 17.2101 30.3628 16.22 30.4774L15.8676 30.4124C14.9254 30.2554 14.2098 29.66 13.7406 28.6431C13.4274 27.9413 13.2549 27.1849 13.2327 26.4168C13.2324 26.3868 13.2381 26.3571 13.2494 26.3294C13.2607 26.3017 13.2774 26.2765 13.2986 26.2553ZM12.8615 30.0201C12.8032 29.8523 12.8998 29.5964 13.1248 29.2962C13.3738 29.7693 13.7142 30.1884 14.1261 30.5292C13.9406 30.5119 13.7566 30.4819 13.5751 30.4396C13.1756 30.3426 12.9222 30.1938 12.8617 30.0203V30.02L12.8615 30.0201Z" fill="#484848"/>
<path d="M15.7969 16.4844C15.5466 16.4844 15.3019 16.5586 15.0937 16.6977C14.8856 16.8367 14.7234 17.0344 14.6276 17.2657C14.5318 17.4969 14.5067 17.7514 14.5556 17.9969C14.6044 18.2424 14.7249 18.4679 14.9019 18.6449C15.0789 18.8219 15.3045 18.9425 15.55 18.9913C15.7955 19.0401 16.0499 19.0151 16.2812 18.9193C16.5125 18.8235 16.7101 18.6613 16.8492 18.4531C16.9883 18.245 17.0625 18.0003 17.0625 17.75C17.0621 17.4145 16.9287 17.0928 16.6914 16.8555C16.4541 16.6182 16.1324 16.4848 15.7969 16.4844ZM15.7969 18.1719C15.7134 18.1719 15.6319 18.1471 15.5625 18.1008C15.4931 18.0544 15.439 17.9885 15.4071 17.9114C15.3752 17.8344 15.3668 17.7495 15.3831 17.6677C15.3994 17.5859 15.4396 17.5107 15.4986 17.4517C15.5576 17.3927 15.6327 17.3525 15.7146 17.3362C15.7964 17.32 15.8812 17.3283 15.9583 17.3602C16.0354 17.3922 16.1013 17.4462 16.1477 17.5156C16.194 17.585 16.2188 17.6666 16.2188 17.75C16.2186 17.8618 16.1741 17.9691 16.095 18.0482C16.016 18.1273 15.9087 18.1717 15.7969 18.1719Z" fill="#484848"/>
<path d="M20.0156 14.7969C20.0156 14.5466 19.9414 14.3019 19.8023 14.0937C19.6633 13.8856 19.4656 13.7234 19.2343 13.6276C19.0031 13.5318 18.7486 13.5067 18.5031 13.5556C18.2576 13.6044 18.0321 13.7249 17.8551 13.9019C17.6781 14.0789 17.5575 14.3045 17.5087 14.55C17.4599 14.7955 17.4849 15.0499 17.5807 15.2812C17.6765 15.5125 17.8387 15.7101 18.0469 15.8492C18.255 15.9883 18.4997 16.0625 18.75 16.0625C19.0855 16.0621 19.4072 15.9287 19.6445 15.6914C19.8818 15.4541 20.0152 15.1324 20.0156 14.7969ZM18.3281 14.7969C18.3281 14.7134 18.3529 14.6319 18.3992 14.5625C18.4456 14.4931 18.5115 14.439 18.5886 14.4071C18.6656 14.3752 18.7505 14.3668 18.8323 14.3831C18.9141 14.3994 18.9893 14.4396 19.0483 14.4986C19.1073 14.5576 19.1475 14.6327 19.1638 14.7146C19.18 14.7964 19.1717 14.8812 19.1398 14.9583C19.1078 15.0354 19.0538 15.1013 18.9844 15.1477C18.915 15.194 18.8334 15.2188 18.75 15.2188C18.6382 15.2186 18.5309 15.1741 18.4518 15.095C18.3727 15.016 18.3283 14.9087 18.3281 14.7969Z" fill="#484848"/>
<path d="M17.4844 19.4375H18.3281V20.2812H17.4844V19.4375Z" fill="#484848"/>
<path d="M17.0625 23.2344H17.9062V24.0781H17.0625V23.2344Z" fill="#484848"/>
<path d="M19.5938 27.0312H20.4375V27.875H19.5938V27.0312Z" fill="#484848"/>
<path d="M12.8438 19.0156H13.6875V19.8594H12.8438V19.0156Z" fill="#484848"/>
<path d="M16.4066 30.3354L16.8747 29.6334C15.8436 28.946 15.7981 28.3128 15.7969 28.2861C15.7972 28.2933 15.7969 28.2969 15.7969 28.2969H14.9531C14.9531 28.4064 14.9939 29.3938 16.4066 30.3354Z" fill="#484848"/>
<path d="M20.5688 17.5231C20.743 17.2595 20.9402 17.0117 21.1581 16.7828L20.5611 16.1865C20.5044 16.2433 19.1719 17.5923 19.1719 19.0161H20.0156C20.0156 18.5859 20.2069 18.0696 20.5688 17.5231Z" fill="#484848"/>
</g>
<defs>
<clipPath id="clip0_902_91275">
<rect width="27" height="27" fill="white" transform="translate(12 11)"/>
</clipPath>
</defs>
</svg>
