<svg width="248" height="240" viewBox="0 0 248 240" fill="none" xmlns="http://www.w3.org/2000/svg">
<circle cx="127.289" cy="120.667" r="94" fill="#E8CCFF"/>
<circle cx="237.91" cy="36.667" r="10" fill="#E8CCFF"/>
<circle cx="26.6654" cy="13.3333" r="13.3333" fill="#E8CCFF"/>
<circle cx="13.3346" cy="177.334" r="6.66667" fill="#E8CCFF"/>
<circle cx="220.665" cy="214" r="3.33333" fill="#E8CCFF"/>
<circle cx="142.001" cy="6.00033" r="3.33333" fill="#E8CCFF"/>
<circle cx="83.3346" cy="235.334" r="4.66667" fill="#E8CCFF"/>
<circle cx="162.665" cy="228" r="1.33333" fill="#E8CCFF"/>
<circle cx="227.333" cy="147.333" r="3.33333" fill="#E8CCFF"/>
<circle cx="1.33333" cy="100" r="1.33333" fill="#E8CCFF"/>
<mask id="mask0_717_46176" style="mask-type:luminance" maskUnits="userSpaceOnUse" x="30" y="16" width="201" height="201">
<path d="M30 16H231V217H30V16Z" fill="white"/>
</mask>
<g mask="url(#mask0_717_46176)">
<path d="M195.144 77.9227C193.177 70.64 186.528 65.2797 178.623 65.2797C173.412 65.2797 168.749 67.6116 165.609 71.2854C164.84 70.9992 164.011 70.8347 163.141 70.8347C159.323 70.8347 156.218 73.8568 156.067 77.6385C150.414 78.0715 145.961 82.7922 145.961 88.5561C145.961 94.6057 150.865 99.5098 156.914 99.5098H192.514C198.563 99.5098 203.467 94.6057 203.467 88.5561C203.467 83.4137 199.923 79.1008 195.144 77.9227Z" fill="#B2E5FB"/>
<path d="M65.8547 93.4198C67.8215 86.137 74.471 80.7768 82.3756 80.7768C87.5862 80.7768 92.2501 83.1087 95.3891 86.7824C96.159 86.4962 96.9881 86.3318 97.8577 86.3318C101.676 86.3318 104.781 89.3538 104.932 93.1355C110.585 93.5685 115.038 98.2893 115.038 104.053C115.038 110.103 110.134 115.007 104.084 115.007H68.485C62.4357 115.007 57.5312 110.103 57.5312 104.053C57.5312 98.9107 61.0762 94.5979 65.8547 93.4198Z" fill="#B2E5FB"/>
<path d="M193.952 214.056V195.997C193.952 181.439 184.045 168.749 169.922 165.219L146.364 159.329H114.639L91.0817 165.219C76.9587 168.749 67.0508 181.439 67.0508 195.997V214.056H193.952Z" fill="#62A4FB"/>
<path d="M158.877 162.458L146.362 159.329H114.636L102.121 162.458C103.685 176.735 115.813 187.882 130.499 187.882C145.185 187.882 157.313 176.735 158.877 162.458Z" fill="#E6F7FE"/>
<path d="M169.918 165.219L169.365 165.08C165.231 178.023 157.482 190.928 146.355 202.056C141.778 206.632 136.901 210.638 131.844 214.056H193.949V195.997C193.949 181.439 184.042 168.749 169.918 165.219Z" fill="#5392F9"/>
<path d="M130.5 175.192C121.739 175.192 114.637 168.091 114.637 159.33V141.088H146.362V159.33C146.362 168.091 139.26 175.192 130.5 175.192Z" fill="#F9CFCF"/>
<path d="M114.637 153.219C119.63 154.865 124.962 155.76 130.5 155.76C136.037 155.76 141.369 154.865 146.362 153.219V141.087H114.637V153.219Z" fill="#F2C0C0"/>
<path d="M90.8438 66.1359V105C90.8438 126.902 108.599 144.656 130.5 144.656C152.402 144.656 170.157 126.902 170.157 105V66.1359H90.8438Z" fill="#F9CFCF"/>
<path d="M154.296 66.1359V105C154.296 124.185 140.672 140.188 122.57 143.862C125.133 144.382 127.786 144.656 130.502 144.656C152.404 144.656 170.159 126.902 170.159 105V66.1359H154.296Z" fill="#F9CFCF"/>
<path d="M82.9102 66.5319V85.1707H90.8414V104.999L95.5119 96.0643C98.2474 90.8309 103.664 87.5501 109.57 87.5501H117.015C141.29 87.5501 150.326 69.3078 150.326 69.3078H152.083C155.077 69.3078 157.754 71.1772 158.785 73.9889L170.155 104.999V85.1707H178.086V66.5319C178.086 40.2499 156.78 18.9439 130.498 18.9439C104.216 18.9439 82.9102 40.2495 82.9102 66.5319Z" fill="#5E8DE9"/>
<path d="M178.088 85.1717V66.5328C178.088 48.698 168.275 33.1574 153.756 25.0083C154.231 39.3578 150.369 64.261 123.68 87.0639C142.965 84.169 150.328 69.3088 150.328 69.3088H152.085C155.079 69.3088 157.755 71.1782 158.786 73.9899L170.157 105V85.1717H178.088Z" fill="#4671C6"/>
<path d="M174.122 104.999H170.156V81.2053H174.122C180.692 81.2053 186.019 86.5314 186.019 93.1019C186.019 99.6725 180.692 104.999 174.122 104.999Z" fill="#F9CFCF"/>
<path d="M86.8775 104.999H90.8434V81.2053H86.8775C80.307 81.2053 74.9805 86.5314 74.9805 93.1019C74.9805 99.6725 80.307 104.999 86.8775 104.999Z" fill="#F9CFCF"/>
<path d="M123.583 35.9228C120.941 26.1425 112.011 18.9438 101.396 18.9438C94.3979 18.9438 88.1347 22.0757 83.9188 27.0089C82.8851 26.6245 81.7718 26.4039 80.6042 26.4039C75.4756 26.4039 71.306 30.4624 71.1035 35.5412C63.5118 36.1226 57.5312 42.4623 57.5312 50.2028C57.5312 58.3272 64.1175 64.9131 72.2415 64.9131H120.05C128.175 64.9131 134.76 58.3272 134.76 50.2028C134.76 43.297 130 37.5052 123.583 35.9228Z" fill="#E6F7FE"/>
<path d="M123.584 35.9228C122.161 30.6516 118.908 26.133 114.552 23.0847C112.337 32.2176 106.086 42.8604 96.6462 52.3003C91.4139 57.533 85.8114 61.7823 80.3008 64.9131H120.052C128.176 64.9131 134.762 58.3272 134.762 50.2028C134.762 43.297 130.002 37.5052 123.584 35.9228Z" fill="#D3EFFD"/>
<path d="M195.144 31.7576C193.177 24.4749 186.528 19.1147 178.623 19.1147C173.412 19.1147 168.749 21.4466 165.609 25.1203C164.84 24.8341 164.011 24.6696 163.141 24.6696C159.323 24.6696 156.218 27.6917 156.067 31.4734C150.414 31.9064 145.961 36.6272 145.961 42.391C145.961 48.4406 150.865 53.3447 156.914 53.3447H192.514C198.563 53.3447 203.467 48.4406 203.467 42.391C203.467 37.2486 199.923 32.9358 195.144 31.7576Z" fill="#E6F7FE"/>
<path d="M195.144 31.7576C194.084 27.8326 191.663 24.4683 188.419 22.198C186.769 28.9986 182.115 36.9236 175.086 43.9527C171.189 47.849 167.017 51.0132 162.914 53.3447H192.514C198.563 53.3447 203.467 48.4406 203.467 42.391C203.467 37.2486 199.923 32.9358 195.144 31.7576Z" fill="#D3EFFD"/>
<path d="M146.155 44.4628L129.88 31.6812L112.193 51.071L118.34 55.8986L102.539 76.4453L138.136 58.8924L131.296 52.6504L146.155 44.4628Z" fill="#F8E883"/>
<path d="M178.328 65.2826C178.428 65.2803 178.529 65.2791 178.63 65.2791C186.533 65.2791 193.183 70.6405 195.15 77.9217C199.929 79.0994 203.47 83.4143 203.47 88.5578C203.47 94.6055 198.569 99.5107 192.517 99.5107H184.538" stroke="black" stroke-width="2" stroke-miterlimit="10" stroke-linecap="round" stroke-linejoin="round"/>
<path d="M91.7205 115.008H68.4846C62.4326 115.008 57.5312 110.102 57.5312 104.054C57.5312 98.9113 61.0727 94.5965 65.8512 93.4188C67.818 86.1376 74.4686 80.7762 82.3724 80.7762C82.4729 80.7762 82.5734 80.7774 82.6735 80.7797" stroke="black" stroke-width="2" stroke-miterlimit="10" stroke-linecap="round" stroke-linejoin="round"/>
<path d="M102.121 162.458C103.685 176.735 115.813 187.882 130.499 187.882C145.185 187.882 157.313 176.735 158.877 162.458" stroke="black" stroke-width="2" stroke-miterlimit="10" stroke-linecap="round" stroke-linejoin="round"/>
<path d="M146.363 159.33L169.918 165.219C174.205 166.29 178.099 168.202 181.448 170.758" stroke="black" stroke-width="2" stroke-miterlimit="10" stroke-linecap="round" stroke-linejoin="round"/>
<path d="M190.281 181.185C192.637 185.641 193.952 190.693 193.952 195.997V214.056H67.0469V195.997C67.0469 181.44 76.9555 168.748 91.0805 165.219L114.635 159.33" stroke="black" stroke-width="2" stroke-miterlimit="10" stroke-linecap="round" stroke-linejoin="round"/>
<path d="M146.362 141.353V159.33C146.362 168.09 139.26 175.192 130.5 175.192C121.739 175.192 114.637 168.09 114.637 159.33V141.353" stroke="black" stroke-width="2" stroke-miterlimit="10" stroke-linecap="round" stroke-linejoin="round"/>
<path d="M102.992 133.561C110.121 140.435 119.818 144.655 130.5 144.655C152.402 144.655 170.158 126.903 170.158 105.001" stroke="black" stroke-width="2" stroke-miterlimit="10" stroke-linecap="round" stroke-linejoin="round"/>
<path d="M94.8991 122.49C92.3002 117.214 90.8398 111.278 90.8398 105.001" stroke="black" stroke-width="2" stroke-miterlimit="10" stroke-linecap="round" stroke-linejoin="round"/>
<path d="M113.184 22.1949C118.55 20.0946 124.388 18.9443 130.5 18.9443C140.558 18.9443 149.886 22.0653 157.568 27.3887" stroke="black" stroke-width="2" stroke-miterlimit="10" stroke-linecap="round" stroke-linejoin="round"/>
<path d="M82.9102 81.6035V66.5324C82.9102 65.9907 82.918 65.4529 82.9416 64.915" stroke="black" stroke-width="2" stroke-miterlimit="10" stroke-linecap="round" stroke-linejoin="round"/>
<path d="M176.234 53.3457C177.444 57.5345 178.087 61.955 178.087 66.5324V81.6035" stroke="black" stroke-width="2" stroke-miterlimit="10" stroke-linecap="round" stroke-linejoin="round"/>
<path d="M90.8438 104.999L95.5139 96.0643C98.2497 90.8309 103.667 87.5501 109.572 87.5501H117.017C141.293 87.5501 150.329 69.3078 150.329 69.3078H152.085C155.079 69.3078 157.756 71.1772 158.787 73.9889L170.157 104.999" stroke="black" stroke-width="2" stroke-miterlimit="10" stroke-linecap="round" stroke-linejoin="round"/>
<path d="M174.122 104.999H170.156V81.2053H174.122C180.692 81.2053 186.019 86.5314 186.019 93.1019C186.019 99.6725 180.692 104.999 174.122 104.999Z" stroke="black" stroke-width="2" stroke-miterlimit="10" stroke-linecap="round" stroke-linejoin="round"/>
<path d="M86.8775 104.999H90.8434V81.2053H86.8775C80.307 81.2053 74.9805 86.5314 74.9805 93.1019C74.9805 99.6725 80.307 104.999 86.8775 104.999Z" stroke="black" stroke-width="2" stroke-miterlimit="10" stroke-linecap="round" stroke-linejoin="round"/>
<path d="M166.191 214.056V201.366" stroke="black" stroke-width="2" stroke-miterlimit="10" stroke-linecap="round" stroke-linejoin="round"/>
<path d="M94.8086 214.056V201.366" stroke="black" stroke-width="2" stroke-miterlimit="10" stroke-linecap="round" stroke-linejoin="round"/>
<path d="M121.617 131.158C126.524 126.252 134.478 126.252 139.384 131.158" stroke="black" stroke-width="2" stroke-miterlimit="10" stroke-linecap="round" stroke-linejoin="round"/>
<path d="M111.409 64.9141H72.2404C64.1183 64.9141 57.5312 58.327 57.5312 50.2014C57.5312 42.4606 63.5118 36.1232 71.1019 35.5402C71.3041 30.4642 75.476 26.4033 80.6038 26.4033C81.7737 26.4033 82.8839 26.6255 83.9192 27.0103C88.1347 22.0767 94.3963 18.9439 101.396 18.9439C112.012 18.9439 120.943 26.1415 123.584 35.921C124.226 36.0796 124.857 36.2818 125.463 36.5236" stroke="black" stroke-width="2" stroke-miterlimit="10" stroke-linecap="round" stroke-linejoin="round"/>
<path d="M191.822 25.3392C193.353 27.1922 194.499 29.371 195.147 31.7578C199.925 32.9356 203.47 37.25 203.47 42.3928C203.47 48.4424 198.567 53.3457 192.517 53.3457H156.918C150.869 53.3457 145.965 48.4424 145.965 42.3928C145.965 36.6258 150.417 31.907 156.07 31.4752C156.219 27.6907 159.325 24.6718 163.144 24.6718C164.012 24.6718 164.844 24.8328 165.614 25.1193C168.75 21.4487 173.414 19.1168 178.628 19.1168C179.012 19.1168 179.397 19.1286 179.778 19.16" stroke="black" stroke-width="2" stroke-miterlimit="10" stroke-linecap="round" stroke-linejoin="round"/>
<path d="M146.155 44.4628L129.88 31.6812L112.193 51.071L118.34 55.8986L102.539 76.4453L138.136 58.8924L131.296 52.6504L146.155 44.4628Z" stroke="black" stroke-width="2" stroke-miterlimit="10" stroke-linecap="round" stroke-linejoin="round"/>
<path d="M121.617 131.158C126.524 126.252 134.478 126.252 139.384 131.158" stroke="black" stroke-width="2" stroke-miterlimit="10" stroke-linecap="round" stroke-linejoin="round"/>
<path d="M153.397 101.367C153.397 104.871 150.556 107.712 147.052 107.712C143.548 107.712 140.707 104.871 140.707 101.367" stroke="black" stroke-width="2" stroke-miterlimit="10" stroke-linecap="round" stroke-linejoin="round"/>
<path d="M107.602 101.367C107.602 104.871 110.442 107.712 113.947 107.712C117.451 107.712 120.292 104.871 120.292 101.367" stroke="black" stroke-width="2" stroke-miterlimit="10" stroke-linecap="round" stroke-linejoin="round"/>
</g>
</svg>
