<svg width="47" height="47" viewBox="0 0 47 47" fill="none" xmlns="http://www.w3.org/2000/svg">
<circle cx="23.5" cy="23.5" r="23.5" fill="#E6F9FF"/>
<path d="M26.7578 30.1696C27.6264 30.587 28.4951 31.004 29.3643 31.4199L32.4828 27.9352C32.938 27.4265 32.856 26.6362 32.306 26.2317C31.8554 25.9003 31.2323 25.9388 30.8259 26.3231L26.7578 30.1696Z" fill="#FFD4CC"/>
<path d="M28.6523 31.0827C29.5004 31.5402 30.3487 31.9973 31.1976 32.4534L34.4754 29.1182C34.954 28.6313 34.909 27.838 34.3784 27.4083C33.9438 27.0562 33.3195 27.0656 32.8957 27.4304L28.6523 31.0827Z" fill="#FFBBA6"/>
<path d="M23.6813 29.7766C29.3237 29.7766 33.8977 25.2026 33.8977 19.5602C33.8977 13.9178 29.3237 9.34375 23.6813 9.34375C18.0389 9.34375 13.4648 13.9178 13.4648 19.5602C13.4648 25.2026 18.0389 29.7766 23.6813 29.7766Z" fill="#64B9FC"/>
<path d="M33.9004 19.5605C33.9004 25.203 29.3263 29.7772 23.6844 29.7772C23.3415 29.7772 23.0021 29.7606 22.668 29.7273C27.8333 29.2168 31.8669 24.8596 31.8669 19.5605C31.8669 14.2615 27.8332 9.90423 22.668 9.3937C23.0021 9.3604 23.3416 9.34375 23.6844 9.34375C29.3262 9.34375 33.9004 13.9179 33.9004 19.5605Z" fill="#86CDFF"/>
<path d="M33.8975 19.56C33.8975 21.727 33.223 23.7371 32.0714 25.3906L29.0833 24.3955C28.8208 24.3081 28.5325 24.4097 28.3828 24.6423L27.7408 25.6401C27.6789 25.7362 27.5911 25.8129 27.4875 25.8612L25.7512 26.6709C25.5548 26.7625 25.3244 26.7421 25.1471 26.6175L23.0074 25.1133C22.7718 24.9478 22.6854 24.6393 22.8008 24.3755L23.1199 23.6456C23.1949 23.4739 23.3454 23.3465 23.5272 23.3009L25.8552 22.7166C26.0245 22.6741 26.1671 22.5607 26.2467 22.4055L27.0341 20.8686C27.1303 20.6809 27.1218 20.4566 27.0118 20.2767L26.1647 18.8913C26.0547 18.7114 25.859 18.6017 25.6482 18.6017H24.9761C24.7699 18.6017 24.578 18.7066 24.4666 18.88L23.2929 20.7081C23.1466 20.9359 22.8669 21.0389 22.6078 20.9604L21.6588 20.6727C21.4431 20.6073 21.209 20.6672 21.0511 20.828L20.517 21.372C20.3139 21.5789 19.9926 21.6127 19.7509 21.4528L18.5672 20.6695C18.4657 20.6023 18.3868 20.5061 18.3408 20.3935L17.6465 18.6937C17.5746 18.5176 17.5896 18.3179 17.687 18.1545L18.7513 16.3702C18.8966 16.1266 19.1915 16.0165 19.4609 16.1053L21.2606 16.6985C21.4148 16.7494 21.583 16.7361 21.7274 16.6618L24.5566 15.2044C24.7714 15.0938 24.8999 14.8661 24.8835 14.625L24.7977 13.3662C24.7845 13.172 24.6786 12.9959 24.5133 12.8931L23.8981 12.5108C23.6346 12.347 23.5376 12.0105 23.6734 11.7315L24.8058 9.40527C29.919 9.96521 33.8975 14.2979 33.8975 19.56Z" fill="#DEFFAA"/>
<path d="M33.9007 19.5601C33.9007 21.7271 33.2262 23.7372 32.0746 25.3908L30.403 24.8337C31.3323 23.2946 31.8676 21.4898 31.8676 19.5601C31.8676 14.9519 28.8172 11.0564 24.625 9.78369L24.8091 9.40527C29.9222 9.96533 33.9007 14.298 33.9007 19.5601Z" fill="#D7FF9A"/>
<path d="M33.8986 19.5601C33.8986 20.7624 33.6907 21.9157 33.3096 22.987C32.257 22.7119 30.2699 21.6532 30.6287 19.1748C30.9329 17.075 32.2679 16.2097 33.0999 15.8691C33.1345 15.8552 33.169 15.8479 33.2024 15.8467C33.6519 16.9974 33.8986 18.25 33.8986 19.5601Z" fill="#D7FF9A"/>
<path d="M19.6271 26.1875C19.2623 26.0846 18.7715 26.0821 18.3073 26.5196C18.0013 26.8081 17.697 27.2111 17.2965 27.5347C16.05 26.5354 15.0428 25.2501 14.375 23.7775C14.9495 23.3915 15.7052 23.1691 16.6814 23.3103C18.7818 23.6145 19.6471 24.9495 19.9871 25.7821C20.0816 26.0137 19.8683 26.2554 19.6271 26.1875Z" fill="#86CDFF"/>
<path d="M18.9025 14.9797C16.9918 15.4609 15.7271 14.7149 15.0508 14.0937C16.2179 12.2546 17.9571 10.8135 20.0175 10.0215C20.172 10.0403 20.3308 10.0614 20.4944 10.0851C20.5787 10.0972 20.6617 10.1191 20.7405 10.1506C21.0841 10.2875 21.3331 10.5935 21.3931 10.959C21.5646 11.9964 21.4004 14.3501 18.9025 14.9797Z" fill="#86CDFF"/>
<path d="M37.5445 29.104C37.2302 28.6413 36.6299 28.4697 36.1186 28.6965L32.1887 30.439C32.077 29.6975 31.4373 29.129 30.6646 29.129H27.3398C26.6852 29.129 26.0348 29.023 25.4141 28.8152L22.6086 27.876C22.1234 27.7136 21.6002 27.7032 21.109 27.8462L19.2872 28.3764C18.6284 28.5682 18.0767 29.021 17.7602 29.6298C17.3503 30.4184 16.7425 31.087 15.9965 31.5701L12.8203 33.6267L16.7408 37.5472L20.8324 34.4195L28.7238 34.95C29.1771 34.9804 29.6298 34.8808 30.0284 34.6626L37.1429 30.7688C37.7418 30.4411 37.9281 29.6687 37.5445 29.104Z" fill="#EDD0B2"/>
<path d="M37.1422 30.7684L30.0276 34.6622C29.6292 34.8804 29.1762 34.9802 28.7233 34.95L20.8315 34.4193L16.7401 37.5472L15.5039 36.311L19.7756 33.0459C19.8575 32.9832 19.9595 32.9526 20.0625 32.9594L27.7942 33.4791C28.2476 33.5098 28.7 33.4096 29.099 33.1919L36.2135 29.298C36.4944 29.1443 36.6842 28.8932 36.7675 28.6113C37.0745 28.6603 37.3586 28.8318 37.5439 29.1041C37.9272 29.6686 37.7411 30.4413 37.1422 30.7684Z" fill="#FFBBA6"/>
<path d="M12.6702 25.8452C12.4047 25.5875 12.2912 25.2097 12.3746 24.8492C12.6114 23.8246 13.659 21.7108 16.2087 22.0799C18.3088 22.3839 19.1741 23.719 19.5143 24.5513C19.609 24.783 19.3952 25.0249 19.1543 24.9568C18.7897 24.8538 18.2985 24.8515 17.8343 25.2888C16.9521 26.1199 16.088 27.904 12.8726 25.9994C12.7995 25.9561 12.7313 25.9045 12.6702 25.8452Z" fill="#DEFFAA"/>
<path d="M19.1541 24.9569C18.7892 24.854 18.2984 24.8514 17.834 25.2885C16.9521 26.1201 16.0881 27.9039 12.8725 25.9992C12.7992 25.9561 12.7308 25.9043 12.6699 25.8448C12.4322 25.6146 12.3172 25.2881 12.3546 24.9636C15.4054 26.6766 16.251 24.9507 17.115 24.1368C17.5789 23.6995 18.0704 23.7017 18.4351 23.8051C18.6756 23.873 18.8893 23.6312 18.7949 23.3994C18.7939 23.3966 18.7923 23.3935 18.7914 23.3906C19.1505 23.7913 19.3755 24.2125 19.5139 24.5511C19.6088 24.7831 19.3951 25.025 19.1541 24.9569Z" fill="#D7FF9A"/>
<path d="M20.4192 8.69018C20.7628 8.82744 21.0116 9.13351 21.0718 9.49867C21.2429 10.5362 21.0791 12.8897 18.581 13.5193C16.5233 14.0379 15.2147 13.1328 14.5833 12.4926C14.4075 12.3144 14.513 12.0094 14.7617 11.9807C15.1381 11.9371 15.5932 11.7522 15.8559 11.1711C16.3552 10.0667 16.4748 8.08792 20.1732 8.62473C20.2574 8.6369 20.3402 8.65858 20.4192 8.69018Z" fill="#E0FFB0"/>
<path d="M18.5818 13.5195C17.0038 13.9177 15.8657 13.4777 15.1367 12.962C15.7154 13.0929 16.4032 13.1068 17.2055 12.905C19.7035 12.2754 19.8677 9.92174 19.6962 8.88427C19.6768 8.7685 19.6386 8.65825 19.5847 8.55762C19.7701 8.57275 19.9664 8.59455 20.1743 8.62488C20.2585 8.6376 20.3409 8.65885 20.4203 8.69034C20.7639 8.8279 21.0123 9.1339 21.0723 9.4993C21.2439 10.5368 21.0802 12.8899 18.5818 13.5195Z" fill="#D7FF9A"/>
<path d="M35.3003 21.5419C35.0425 21.8073 34.6648 21.9208 34.3042 21.8374C33.2797 21.6006 31.1658 20.553 31.5349 18.0034C31.8389 15.9032 33.1741 15.0379 34.0064 14.6978C34.2381 14.6031 34.4799 14.8168 34.4119 15.0577C34.3089 15.4223 34.3065 15.9135 34.7439 16.3777C35.575 17.2599 37.3591 18.124 35.4545 21.3394C35.4111 21.4125 35.3596 21.4808 35.3003 21.5419Z" fill="#E0FFB0"/>
<path d="M34.4139 15.0577C34.311 15.4225 34.3085 15.9133 34.7456 16.3778C35.5772 17.2597 37.3609 18.1236 35.4562 21.3392C35.4131 21.4125 35.3613 21.481 35.3019 21.5418C35.0717 21.7795 34.7451 21.8945 34.4207 21.8572C36.1337 18.8064 34.4077 17.9607 33.5938 17.0968C33.1566 16.6329 33.1587 16.1413 33.2622 15.7767C33.33 15.5362 33.0882 15.3225 32.8564 15.4168C32.8536 15.4178 32.8505 15.4194 32.8477 15.4204C33.2484 15.0612 33.6695 14.8363 34.0082 14.6979C34.2401 14.6029 34.4819 14.8166 34.4139 15.0577Z" fill="#DEFFAA"/>
<path d="M37.9187 28.8476C37.4807 28.2029 36.6455 27.9643 35.933 28.2802L35.2349 28.5897C35.257 28.467 35.2654 28.3415 35.2582 28.2151C35.2325 27.7627 35.0159 27.3396 34.6638 27.0545C34.237 26.7088 33.68 26.6143 33.1815 26.7658C33.0919 26.4136 32.8837 26.0932 32.5741 25.8656C32.5112 25.8193 32.4454 25.7788 32.3778 25.7425C33.1323 24.6816 33.6895 23.4876 34.0141 22.2302C34.0784 22.2486 34.1417 22.2656 34.2026 22.2797C34.3132 22.3053 34.4254 22.3177 34.5371 22.3177C34.6404 22.3177 34.7432 22.307 34.8439 22.2861C35.1436 22.5811 35.4871 22.8657 35.8816 23.1331C35.9596 23.1859 36.0482 23.2113 36.1359 23.2113C36.2814 23.2113 36.4244 23.1415 36.5122 23.0118C36.6529 22.8042 36.5987 22.5219 36.391 22.3812C36.1238 22.2001 35.8839 22.0097 35.6675 21.8133C35.7338 21.7392 35.7938 21.6581 35.8457 21.5705C37.6817 18.471 36.3251 17.227 35.4275 16.4039C35.2978 16.285 35.1754 16.1728 35.0749 16.066C34.8288 15.8048 34.755 15.5152 34.8494 15.1809C34.9283 14.9016 34.8426 14.6077 34.6255 14.4138C34.4078 14.2193 34.1049 14.167 33.8352 14.2772C33.6323 14.3601 33.3949 14.4751 33.1457 14.6308C32.7704 13.9118 32.3143 13.2357 31.784 12.6172C31.6208 12.4267 31.334 12.4048 31.1437 12.5681C30.9533 12.7313 30.9313 13.018 31.0946 13.2083C31.6166 13.8171 32.0601 14.4865 32.4172 15.2004C31.8177 15.7814 31.2726 16.6495 31.086 17.938C31.0573 18.1363 31.0416 18.3351 31.0394 18.5289C31.0363 18.7796 31.2373 18.9853 31.488 18.9883C31.4898 18.9883 31.4917 18.9883 31.4935 18.9883C31.7418 18.9883 31.9445 18.7885 31.9474 18.5396C31.9493 18.3857 31.9618 18.2272 31.9849 18.0682C32.2198 16.4455 33.1139 15.6383 33.9146 15.2377C33.852 15.7687 34.0242 16.2752 34.4139 16.6888C34.5371 16.8196 34.6715 16.9428 34.8137 17.0733C35.6549 17.8446 36.5248 18.6422 35.0645 21.1075C35.0563 21.1214 35.0469 21.1341 35.0379 21.1471C33.9999 19.8583 33.7873 18.4463 33.7698 17.5929C33.7647 17.3421 33.557 17.1418 33.3066 17.1482C33.0558 17.1533 32.8567 17.3607 32.8619 17.6115C32.88 18.4996 33.082 19.9118 33.9986 21.2705C33.4739 21.0756 32.8792 20.7198 32.4698 20.1819C32.318 19.9823 32.033 19.9436 31.8335 20.0956C31.6339 20.2474 31.5952 20.5323 31.7471 20.7319C32.1365 21.2435 32.652 21.625 33.163 21.8894C32.9058 22.9381 32.4719 23.9407 31.8854 24.8496L29.2268 23.9642C28.767 23.8109 28.2631 23.9886 28.0009 24.3961L27.3588 25.3939C27.3433 25.4179 27.3214 25.4371 27.2955 25.4491L25.5592 26.2588C25.5104 26.2818 25.4525 26.2766 25.4082 26.2454L23.2684 24.7412C23.2097 24.7 23.188 24.6225 23.2167 24.5567L23.5358 23.8269C23.5545 23.7842 23.5926 23.7521 23.6377 23.7407L25.9657 23.1564C26.2618 23.0821 26.5115 22.8837 26.6508 22.6119L27.4381 21.075C27.6054 20.7488 27.5904 20.3519 27.3991 20.0392L26.5521 18.6538C26.361 18.3411 26.0146 18.1469 25.6481 18.1469H24.976C24.6136 18.1469 24.2803 18.329 24.0844 18.634L22.9107 20.462C22.8742 20.5188 22.8038 20.5448 22.7394 20.5251L21.7905 20.2375C21.4118 20.1226 21.0043 20.2268 20.7271 20.5092L20.193 21.0532C20.1422 21.1047 20.0617 21.1132 20.0014 21.0733L18.8178 20.2901C18.7923 20.2732 18.7727 20.2493 18.7611 20.221L18.0668 18.5211C18.0489 18.4773 18.0527 18.427 18.077 18.3863L19.1412 16.602C19.1778 16.5406 19.2506 16.5133 19.3186 16.5357L21.1184 17.129C21.3866 17.2174 21.6844 17.1939 21.9353 17.0646L24.7646 15.6073C25.1408 15.4136 25.3652 15.0155 25.3364 14.5934L25.2507 13.3346C25.2276 12.9955 25.0416 12.686 24.7529 12.5067L24.1378 12.1243C24.0717 12.0832 24.0476 11.9995 24.0816 11.9295L25.0721 9.89456C26.7584 10.1326 28.3378 10.8046 29.7007 11.8735C29.7838 11.9387 29.8826 11.9703 29.9806 11.9703C30.1154 11.9703 30.2487 11.9107 30.3382 11.7965C30.493 11.5991 30.4585 11.3137 30.2612 11.159C28.3679 9.67399 26.0926 8.88907 23.6812 8.88907C22.9246 8.88907 22.1713 8.96868 21.4372 9.12568C21.3963 9.02112 21.3437 8.92182 21.2812 8.82931C21.4399 8.43969 21.5724 8.0135 21.6694 7.54669C21.7204 7.30111 21.5627 7.06074 21.3172 7.0097C21.0713 6.9583 20.8312 7.11632 20.7802 7.36184C20.7145 7.67795 20.6299 7.97227 20.5306 8.24715C20.4366 8.21397 20.3387 8.18933 20.2383 8.1748C16.6732 7.65719 16.0394 9.3853 15.6202 10.5288C15.5596 10.6939 15.5024 10.8499 15.442 10.9834C15.2942 11.3106 15.0545 11.4891 14.7094 11.529C14.421 11.5624 14.1819 11.7536 14.0852 12.0282C13.9883 12.3036 14.0553 12.6036 14.2599 12.811C14.4389 12.9924 14.6753 13.2005 14.9692 13.3969C13.6866 15.2038 13.0108 17.3254 13.0108 19.5595C13.0108 20.5136 13.1369 21.4573 13.3851 22.369C12.5459 23.0557 12.0928 24.0489 11.9315 24.7467C11.8824 24.9595 11.8823 25.1782 11.9255 25.3876C11.6304 25.6874 11.3456 26.0311 11.0782 26.4258C10.9375 26.6334 10.9918 26.9158 11.1994 27.0564C11.2775 27.1093 11.366 27.1346 11.4537 27.1346C11.5993 27.1346 11.7423 27.0648 11.8301 26.9352C12.0112 26.6679 12.2015 26.4281 12.398 26.2116C12.4723 26.2781 12.5535 26.3382 12.6407 26.3899C13.7654 27.056 14.6456 27.3019 15.3502 27.3018C15.6678 27.3018 15.9495 27.2516 16.2019 27.1676C16.749 27.7055 17.3505 28.1819 17.9972 28.5896C17.7379 28.8242 17.5194 29.1045 17.356 29.4188C16.983 30.1364 16.4271 30.7479 15.7483 31.1874L12.5722 33.2442C12.3616 33.3805 12.3015 33.6617 12.4378 33.8721C12.5248 34.0064 12.6706 34.0795 12.8194 34.0795C12.9039 34.0795 12.9896 34.0559 13.0658 34.0065L16.2419 31.9497C17.0524 31.4249 17.7163 30.6947 18.1618 29.8377C18.4198 29.3415 18.8757 28.9673 19.4127 28.811L21.2346 28.2807C21.639 28.163 22.0637 28.1713 22.4631 28.3051L25.2686 29.2444C25.9371 29.4682 26.6335 29.5816 27.3385 29.5816H30.6634C31.2628 29.5816 31.7506 30.0694 31.7506 30.6689C31.7506 31.2684 31.2628 31.7562 30.6634 31.7562H26.6576C25.9395 31.7562 25.2213 31.8412 24.5231 32.009C24.2793 32.0675 24.1291 32.3128 24.1876 32.5566C24.2463 32.8004 24.4913 32.9505 24.7353 32.892C25.364 32.7409 26.0108 32.6644 26.6576 32.6644H30.6634C31.7445 32.6644 32.6269 31.7999 32.6573 30.7259L36.3013 29.1101C36.6123 28.9723 36.9765 29.0764 37.1676 29.3576C37.2803 29.5236 37.3165 29.7223 37.2695 29.9173C37.2224 30.1123 37.0996 30.2726 36.9236 30.369L29.8089 34.2631C29.4855 34.4401 29.1205 34.5208 28.7528 34.4957L20.8614 33.9653C20.7511 33.958 20.6427 33.9907 20.5551 34.0576L16.4636 37.1853C16.2643 37.3376 16.2263 37.6226 16.3786 37.8218C16.468 37.9388 16.6031 38.0002 16.7397 38.0001C16.8359 38.0001 16.9328 37.9697 17.0151 37.9068L20.971 34.8829L28.6918 35.4018C29.2323 35.4377 29.7695 35.3199 30.2449 35.0598L37.3595 31.1659C37.757 30.9484 38.0459 30.571 38.1522 30.1305C38.2584 29.6899 38.1733 29.2225 37.9187 28.8476ZM34.0922 27.7603C34.248 27.8865 34.3402 28.0663 34.3515 28.2666C34.3628 28.4668 34.2917 28.6559 34.151 28.7989L33.6865 29.2716C33.6841 29.2741 33.682 29.2768 33.6797 29.2793L32.467 29.817C32.31 29.4861 32.0647 29.2051 31.7615 29.0044L33.1914 27.7737C33.4491 27.5519 33.8279 27.5462 34.0922 27.7603ZM32.0361 26.5973C32.2711 26.7701 32.3731 27.0648 32.2993 27.3432L30.7509 28.6759C30.7218 28.6746 30.6926 28.6737 30.6632 28.6737H29.2311C30.1692 28.1008 31.0202 27.3835 31.7442 26.549C31.7628 26.5276 31.7805 26.5055 31.7989 26.4839C31.8837 26.5062 31.9637 26.544 32.0361 26.5973ZM16.2694 11.3578C16.3435 11.194 16.4062 11.0228 16.4727 10.8417C16.8656 9.7702 17.2721 8.66214 20.1077 9.07373C20.1236 9.07603 20.1389 9.07985 20.1543 9.08324C19.3578 10.5338 18.1331 11.268 17.3507 11.6091C17.1208 11.7093 17.0157 11.9769 17.1159 12.2068C17.1903 12.3776 17.3572 12.4796 17.5324 12.4796C17.5929 12.4796 17.6546 12.4674 17.7136 12.4416C18.5277 12.0868 19.7562 11.3626 20.6634 9.99834C20.6775 10.4438 20.6158 10.9881 20.4079 11.487C20.0674 12.3048 19.4153 12.8403 18.4698 13.0785C16.8799 13.4792 15.7931 12.9598 15.1177 12.3719C15.6326 12.2276 16.0353 11.8756 16.2694 11.3578ZM22.7512 27.4442C22.1756 27.2515 21.5633 27.2393 20.9806 27.4089L19.1587 27.9392C19.0553 27.9693 18.9542 28.0055 18.8553 28.0464C18.2008 27.6734 17.5917 27.2262 17.039 26.7127C17.3421 26.4787 17.5894 26.2093 17.8072 25.9719C17.9261 25.8423 18.0383 25.7198 18.1451 25.6193C18.4063 25.3732 18.696 25.2995 19.03 25.3937C19.3094 25.4729 19.6033 25.3871 19.7972 25.17C19.9917 24.9522 20.0441 24.6493 19.9339 24.3795C19.6349 23.6478 19.0095 22.6504 17.7284 22.0539C17.501 21.9479 17.2309 22.0466 17.125 22.2739C17.0191 22.5013 17.1177 22.7714 17.345 22.8772C18.2126 23.2812 18.701 23.9191 18.9729 24.459C18.4418 24.3959 17.9358 24.5687 17.5223 24.9583C17.3914 25.0816 17.2682 25.2159 17.1378 25.3581C16.3665 26.1993 15.569 27.0692 13.1031 25.6086C13.0894 25.6005 13.0768 25.5912 13.0639 25.5823C14.3527 24.5443 15.7647 24.3316 16.6181 24.3141C16.8689 24.309 17.0679 24.1016 17.0628 23.8509C17.0578 23.6033 16.8554 23.4061 16.609 23.4061C16.6059 23.4061 16.6027 23.4061 16.5996 23.4062C15.7113 23.4244 14.299 23.6264 12.9403 24.5432C13.2702 23.6547 14.0812 22.52 15.5741 22.4922C15.8249 22.4875 16.0244 22.2804 16.0197 22.0297C16.0151 21.7818 15.8127 21.584 15.5658 21.584C15.5629 21.584 15.5601 21.584 15.5572 21.5841C15.0431 21.5937 14.5912 21.7003 14.1957 21.8721C14.0128 21.1187 13.9187 20.3433 13.9187 19.5598C13.9187 17.4752 14.5619 15.498 15.7808 13.8242C16.2368 14.0052 16.7736 14.1274 17.3934 14.1274C17.7919 14.1274 18.2247 14.077 18.6917 13.9593C19.9126 13.6517 20.796 12.9175 21.2463 11.8363C21.5267 11.1629 21.5817 10.4996 21.5718 10.0266C22.261 9.87494 22.9692 9.79757 23.681 9.79757C23.8228 9.79757 23.9641 9.80065 24.1048 9.80659L23.265 11.5322C23.0265 12.022 23.1956 12.6083 23.6583 12.8959L24.2735 13.2782C24.3147 13.3038 24.3413 13.348 24.3446 13.3964L24.4303 14.6553C24.4343 14.7156 24.4023 14.7724 24.3485 14.8002L21.5193 16.2575C21.4835 16.2759 21.4411 16.2793 21.4027 16.2666L19.6029 15.6734C19.1282 15.5167 18.6174 15.7074 18.3612 16.1369L17.2969 17.9213C17.1273 18.2056 17.1008 18.5583 17.226 18.8647L17.9203 20.5646C18.0011 20.7625 18.1381 20.9294 18.3165 21.0476L19.5002 21.8309C19.9225 22.1102 20.4862 22.0508 20.841 21.6896L21.3751 21.1456C21.4146 21.1052 21.4729 21.0903 21.527 21.1067L22.476 21.3944C22.9272 21.5309 23.4202 21.3495 23.675 20.9528L24.8486 19.1248C24.8766 19.0812 24.9242 19.0552 24.976 19.0552H25.6481C25.7004 19.0552 25.7499 19.0829 25.7772 19.1276L26.6242 20.5131C26.6516 20.5577 26.6537 20.6144 26.6298 20.6609L25.8425 22.1978C25.8225 22.2367 25.7868 22.2649 25.7445 22.2756L23.4165 22.8599C23.1006 22.9393 22.8341 23.1648 22.7036 23.4632L22.3846 24.193C22.1835 24.6527 22.3355 25.1958 22.746 25.4843L24.8858 26.9884C25.0669 27.1158 25.2808 27.1809 25.4958 27.1809C25.6481 27.1809 25.8009 27.1483 25.943 27.082L27.6795 26.2722C27.861 26.1874 28.0142 26.0537 28.1225 25.8853L28.7645 24.8876C28.802 24.8293 28.8741 24.804 28.9397 24.8259L31.3317 25.6226C31.2427 25.7347 31.1522 25.8457 31.0582 25.954C30.0118 27.1602 28.6759 28.099 27.1937 28.6708C26.6365 28.6565 26.0864 28.5608 25.5568 28.3834L22.7512 27.4442Z" fill="#484848"/>
</svg>
