<svg width="47" height="47" viewBox="0 0 47 47" fill="none" xmlns="http://www.w3.org/2000/svg">
<circle cx="23.5" cy="23.5" r="23.5" fill="#E6F9FF"/>
<path d="M33.0708 13.1875H14.2031L16.6495 35.9887V35.9899C16.6495 36.4391 19.3674 36.8023 23.6375 36.8023C27.9075 36.8023 30.6254 36.4385 30.6254 35.9899C30.6254 35.9883 30.6254 35.987 30.6254 35.9854L33.0708 13.1875Z" fill="#F0F5F9"/>
<path d="M15.7148 20.3293L17.3555 36.3426C18.0053 36.5432 20.0364 36.8021 23.635 36.8021C27.2336 36.8021 29.2625 36.544 29.9135 36.3424L31.5539 20.3291L15.7148 20.3293Z" fill="#5FC4F8"/>
<path d="M23.6346 21.0656C28.0085 21.0656 31.5543 20.7363 31.5543 20.3302C31.5543 19.924 28.0085 19.5947 23.6346 19.5947C19.2606 19.5947 15.7148 19.924 15.7148 20.3302C15.7148 20.7363 19.2606 21.0656 23.6346 21.0656Z" fill="#3DBCE9"/>
<g opacity="0.5">
<path d="M24.8832 36.7945C24.5585 36.7994 24.2238 36.8018 23.8793 36.8017C22.1781 36.8189 20.4773 36.7391 18.7857 36.5627C17.5711 36.4152 16.8919 36.2123 16.8919 35.9878L14.4453 13.1865H16.4556L18.9029 35.9878C18.9029 36.2123 19.582 36.4152 20.7941 36.5627C22.1521 36.7088 23.517 36.7862 24.8832 36.7945Z" fill="white"/>
</g>
<g opacity="0.5">
<path d="M28.4963 36.7968C28.2858 36.8017 28.07 36.8017 27.8519 36.8017C26.1507 36.8189 24.4498 36.7391 22.7581 36.5627C21.5436 36.4152 20.8645 36.2123 20.8645 35.9878L18.418 13.1865H19.6676L22.1138 35.9878C22.1138 36.2123 22.7928 36.4152 24.0074 36.5627C25.4981 36.7209 26.9967 36.799 28.4963 36.7968Z" fill="white"/>
</g>
<path d="M23.6371 14.1788C28.8473 14.1788 33.071 13.735 33.071 13.1876C33.071 12.6401 28.8473 12.1963 23.6371 12.1963C18.4268 12.1963 14.2031 12.6401 14.2031 13.1876C14.2031 13.735 18.4268 14.1788 23.6371 14.1788Z" fill="#F0F5F9"/>
<path d="M23.6338 14.3743C21.3995 14.3878 19.166 14.2905 16.9418 14.083C14 13.7738 14 13.3926 14 13.1878C14 12.9829 14 12.6019 16.9418 12.2928C19.1659 12.0851 21.3995 11.9878 23.6338 12.0012C25.8683 11.9877 28.1021 12.085 30.3265 12.2928C33.2683 12.6019 33.2683 12.9829 33.2683 13.1878C33.2683 13.3926 33.2683 13.7736 30.3265 14.083C28.1021 14.2906 25.8683 14.3878 23.6338 14.3743ZM14.4291 13.1878C14.8807 13.5256 18.2652 13.9838 23.6342 13.9838C29.0031 13.9838 32.3877 13.5256 32.8392 13.1878C32.3879 12.8501 29.0033 12.3918 23.6338 12.3918C18.2642 12.3918 14.8805 12.8501 14.4291 13.1878Z" fill="#2F3A5A"/>
<path d="M23.6353 36.9975C21.9253 37.0149 20.2158 36.935 18.5155 36.7581C16.7301 36.5417 16.4577 36.2576 16.4475 36.0054L14.0019 13.2075C13.9982 13.1816 13.9999 13.1552 14.0069 13.1299C14.0139 13.1046 14.026 13.0809 14.0426 13.0603C14.0592 13.0396 14.0799 13.0225 14.1034 13.0098C14.1269 12.9971 14.1528 12.9891 14.1796 12.9864C14.2063 12.9837 14.2333 12.9862 14.2591 12.9939C14.2848 13.0016 14.3086 13.0142 14.3292 13.031C14.3498 13.0479 14.3668 13.0686 14.379 13.0919C14.3912 13.1153 14.3985 13.1408 14.4004 13.1669L16.8455 35.9533C16.8463 35.9569 16.8469 35.9606 16.8473 35.9642C17.0413 36.1798 18.9161 36.6069 23.6353 36.6069C28.3452 36.6069 30.2216 36.1816 30.4228 35.9658L32.8696 13.1669C32.8715 13.1408 32.8788 13.1153 32.891 13.0919C32.9032 13.0686 32.9201 13.0479 32.9407 13.031C32.9613 13.0142 32.9852 13.0016 33.0109 12.9939C33.0366 12.9862 33.0636 12.9837 33.0904 12.9864C33.1171 12.9891 33.143 12.9971 33.1666 13.0098C33.1901 13.0225 33.2108 13.0396 33.2273 13.0603C33.2439 13.0809 33.2561 13.1046 33.2631 13.1299C33.27 13.1552 33.2717 13.1816 33.268 13.2075L30.8239 35.9881V35.9896C30.8239 36.2454 30.5781 36.5364 28.7555 36.7579C27.055 36.9348 25.3453 37.0148 23.6353 36.9975Z" fill="#2F3A5A"/>
</svg>
