<svg width="52" height="52" viewBox="0 0 52 52" fill="none" xmlns="http://www.w3.org/2000/svg">
<circle cx="26" cy="26" r="26" fill="#E6F9FF"/>
<g clip-path="url(#clip0_902_48945)">
<path d="M11.1406 31.4268H39.857V34.34H11.1406V31.4268Z" fill="#F9F6F9"/>
<path d="M10.2891 32.8584H40.7086V39.4305H10.2891V32.8584Z" fill="#969EE1"/>
<path d="M19.6687 29.7934C21.5373 29.7934 23.0522 28.2785 23.0522 26.4099C23.0522 24.5412 21.5373 23.0264 19.6687 23.0264C17.8 23.0264 16.2852 24.5412 16.2852 26.4099C16.2852 28.2785 17.8 29.7934 19.6687 29.7934Z" fill="#56B5FF"/>
<path d="M10.9698 42.4753H9.74554C9.06413 42.4753 8.51172 41.9229 8.51172 41.2415V21.6117C8.51172 20.9303 9.06413 20.3779 9.74554 20.3779H10.9698C11.6512 20.3779 12.2036 20.9303 12.2036 21.6117V41.2415C12.2036 41.9229 11.6512 42.4753 10.9698 42.4753Z" fill="#969EE1"/>
<path d="M11.1408 42.4628C11.0848 42.471 11.028 42.4751 10.9699 42.4751H9.74561C9.06406 42.4751 8.51172 41.9228 8.51172 41.2412V21.6111C8.51172 20.9303 9.06406 20.3779 9.74561 20.3779H10.9699C11.028 20.3779 11.0848 20.382 11.1408 20.3902C10.5406 20.4723 10.0771 20.9877 10.0771 21.6111V41.2412C10.0771 41.8646 10.5406 42.3808 11.1408 42.4628Z" fill="white"/>
<path d="M41.251 42.4753H40.0268C39.3454 42.4753 38.793 41.9229 38.793 41.2414V29.0268C38.793 28.3454 39.3454 27.793 40.0268 27.793H41.251C41.9324 27.793 42.4849 28.3454 42.4849 29.0268V41.2414C42.4849 41.9229 41.9324 42.4753 41.251 42.4753Z" fill="#969EE1"/>
<path d="M41.3722 42.469C41.3325 42.4731 41.2915 42.4752 41.2505 42.4752H40.0269C39.3453 42.4752 38.793 41.9229 38.793 41.2413V29.0269C38.793 28.3453 39.3453 27.793 40.0269 27.793H41.2505C41.2915 27.793 41.3325 27.795 41.3722 27.7991C40.748 27.86 40.2606 28.3863 40.2606 29.0269V41.2413C40.2606 41.8818 40.748 42.4082 41.3722 42.469Z" fill="white"/>
<path d="M19.0468 31.4265C22.8264 31.4265 25.8904 30.241 25.8904 28.7787C25.8904 27.3163 22.8264 26.1309 19.0468 26.1309C15.2671 26.1309 12.2031 27.3163 12.2031 28.7787C12.2031 30.241 15.2671 31.4265 19.0468 31.4265Z" fill="#F9F6F9"/>
<path d="M25.89 28.7793C25.0492 30.3071 22.3039 31.4269 19.0466 31.4269C15.7893 31.4269 13.0439 30.3071 12.2031 28.7793C13.0439 29.1936 15.7893 29.4978 19.0466 29.4978C22.3039 29.4978 25.0492 29.1935 25.89 28.7793Z" fill="#DDDAEC"/>
<path d="M34.6771 24.1443C38.9904 24.1443 42.487 20.6476 42.487 16.3343C42.487 12.021 38.9904 8.52441 34.6771 8.52441C30.3638 8.52441 26.8672 12.021 26.8672 16.3343C26.8672 20.6476 30.3638 24.1443 34.6771 24.1443Z" fill="#D3EFFB"/>
<path d="M36.0437 24.0313C35.6113 24.1062 35.1662 24.1447 34.7125 24.1447C30.3991 24.1447 26.9023 20.6479 26.9023 16.3345C26.9023 12.0212 30.3991 8.52441 34.7125 8.52441C35.1662 8.52441 35.6112 8.5629 36.0437 8.63782C32.3651 9.26926 29.5654 12.4749 29.5654 16.3345C29.5654 20.1942 32.3651 23.3998 36.0437 24.0313Z" fill="#9DC6FB"/>
<path d="M34.678 17.3296H31.0496C30.5001 17.3296 30.0547 16.8842 30.0547 16.3347C30.0547 15.7853 30.5001 15.3398 31.0496 15.3398H34.678C35.2275 15.3398 35.6729 15.7853 35.6729 16.3347C35.6729 16.8842 35.2275 17.3296 34.678 17.3296Z" fill="#56B5FF"/>
<path d="M34.6785 17.3291C34.129 17.3291 33.6836 16.8836 33.6836 16.3342V13.7937C33.6836 13.2443 34.129 12.7988 34.6785 12.7988C35.228 12.7988 35.6734 13.2443 35.6734 13.7937V16.3342C35.6735 16.8836 35.228 17.3291 34.6785 17.3291Z" fill="#77C5FF"/>
<path d="M38.7938 29.0269V33.2966L32.4911 37.4973L19.0469 31.4263C19.0469 29.4507 19.2875 27.8907 19.5657 26.7478C19.926 25.2671 21.1858 24.1761 22.7041 24.0428C22.9324 24.023 23.1751 24.0052 23.4314 23.9915C23.8197 23.971 24.2395 23.9587 24.6858 23.9601C27.1577 23.9683 30.4574 24.3853 33.9287 25.9801C35.5352 26.7177 37.1785 27.7082 38.7938 29.0269Z" fill="#9DC6FB"/>
<path d="M32.4911 37.4979L19.0469 31.427C19.0469 29.4514 19.2875 27.8914 19.5657 26.7484C19.926 25.2678 21.1858 24.1768 22.7041 24.0435C22.9324 24.0236 23.1751 24.0059 23.4314 23.9922C22.7479 26.6787 22.6945 32.5139 32.4911 37.4979Z" fill="#70A1FF"/>
<path d="M33.9304 25.98L28.748 29.6673L24.6875 23.96C27.1594 23.9682 30.4591 24.3852 33.9304 25.98Z" fill="#F9F6F9"/>
<path d="M41.2535 27.2802H40.0292C39.3839 27.2802 38.8196 27.6324 38.5173 28.1543C38.0676 27.8106 37.6064 27.4824 37.139 27.175C36.9024 27.0193 36.5845 27.0849 36.4289 27.3215C36.2733 27.5581 36.3389 27.876 36.5754 28.0316C37.1581 28.4149 37.7314 28.8313 38.2826 29.2715V33.0225L32.4446 36.9128L19.5633 31.0966C19.5845 29.5725 19.7531 28.1518 20.0653 26.8693C20.3744 25.5983 21.4535 24.6678 22.7503 24.5539C23.2227 24.5125 23.7874 24.4811 24.4255 24.4768L28.33 29.9649C28.4088 30.0757 28.5285 30.1506 28.6625 30.1732C28.6909 30.178 28.7194 30.1803 28.7478 30.1803C28.8536 30.1803 28.9576 30.1476 29.045 30.0854L33.9831 26.5718C34.2749 26.7105 34.5677 26.8573 34.8611 27.0138C35.111 27.1471 35.4216 27.0526 35.5548 26.8028C35.6881 26.553 35.5935 26.2424 35.3438 26.1092C30.177 23.3526 25.1798 23.3114 22.6606 23.5324C22.5514 23.542 22.4434 23.556 22.3367 23.5741C21.6176 22.8977 20.6612 22.514 19.6676 22.514C17.6566 22.514 15.9968 24.0459 15.793 26.0042C14.5298 26.3208 13.4742 26.8123 12.7173 27.4239V21.6117C12.7173 20.6487 11.9338 19.8652 10.9708 19.8652H9.74651C8.78347 19.8652 8 20.6486 8 21.6117V41.2413C8 42.2044 8.78347 42.9879 9.74651 42.9879H10.9708C11.9338 42.9879 12.7173 42.2044 12.7173 41.2413V39.9435H14.0115C14.2947 39.9435 14.5242 39.7139 14.5242 39.4308C14.5242 39.1476 14.2947 38.9181 14.0115 38.9181H12.7175V33.8096H23.0802L32.2816 37.9641C32.3489 37.9946 32.4208 38.0096 32.4925 38.0096C32.5921 38.0096 32.6913 37.9805 32.7769 37.9235L38.2826 34.2546V38.918H16.2332C15.95 38.918 15.7205 39.1476 15.7205 39.4307C15.7205 39.7139 15.95 39.9434 16.2332 39.9434H38.2827V41.2413C38.2827 42.2043 39.0662 42.9878 40.0292 42.9878H41.2535C42.2165 42.9878 43 42.2043 43 41.2413V29.0268C43 28.0637 42.2165 27.2802 41.2535 27.2802ZM28.8683 28.9526L25.7039 24.5049C27.7226 24.6072 30.2381 25.0085 32.8907 26.0907L28.8683 28.9526ZM19.6676 23.5393C20.2007 23.5393 20.7192 23.6896 21.1664 23.9633C20.4482 24.3318 19.8514 24.9093 19.4587 25.6242C19.3224 25.6203 19.1854 25.6181 19.0483 25.6181C18.3003 25.6181 17.5693 25.6743 16.8665 25.7857C17.1524 24.5021 18.2993 23.5393 19.6676 23.5393ZM16.3929 26.9169C17.2314 26.7355 18.1248 26.6435 19.0482 26.6435C19.0538 26.6435 19.0594 26.6437 19.065 26.6437C18.7495 27.9457 18.5741 29.3766 18.5416 30.9039C15.9756 30.8038 13.6841 29.953 12.8133 28.7784C13.4193 27.9614 14.7264 27.2766 16.3929 26.9169ZM13.9788 30.9139H12.7173V30.133C13.0764 30.4235 13.5007 30.6855 13.9788 30.9139ZM11.6919 41.2414C11.6919 41.6391 11.3684 41.9625 10.9708 41.9625H9.74651C9.34894 41.9625 9.02539 41.6391 9.02539 41.2414V21.6117C9.02539 21.2141 9.34887 20.8906 9.74651 20.8906H10.9708C11.3683 20.8906 11.6919 21.214 11.6919 21.6117V41.2414ZM12.7175 32.7842V31.9393H18.9379L20.8092 32.7842H12.7175ZM41.9746 41.2414C41.9746 41.6391 41.6511 41.9625 41.2535 41.9625H40.0292C39.6317 41.9625 39.3081 41.6391 39.3081 41.2414V29.0268C39.3081 28.6291 39.6316 28.3056 40.0292 28.3056H41.2535C41.6511 28.3056 41.9746 28.6291 41.9746 29.0268V41.2414Z" fill="#484848"/>
<path d="M34.678 24.657C39.2671 24.657 43.0006 20.9234 43.0006 16.3343C43.0006 11.7452 39.2671 8.01172 34.678 8.01172C30.0889 8.01172 26.3555 11.7452 26.3555 16.3343C26.3555 20.9234 30.0889 24.657 34.678 24.657ZM30.5956 10.2888L30.8234 10.6833C30.9183 10.8478 31.0907 10.9398 31.2678 10.9398C31.3548 10.9398 31.443 10.9176 31.5237 10.871C31.7689 10.7294 31.8529 10.4158 31.7114 10.1706L31.4829 9.77491C32.3031 9.37378 33.2091 9.12215 34.1653 9.05543V10.1764C34.1653 10.4595 34.3948 10.6891 34.678 10.6891C34.9612 10.6891 35.1907 10.4595 35.1907 10.1764V9.05536C36.1469 9.12208 37.053 9.37371 37.8731 9.77484L37.6446 10.1706C37.503 10.4158 37.5871 10.7293 37.8323 10.8709C37.913 10.9175 38.0012 10.9397 38.0881 10.9397C38.2653 10.9397 38.4376 10.8477 38.5326 10.6833L38.7604 10.2887C39.533 10.8121 40.2003 11.4794 40.7236 12.2518L40.329 12.4796C40.0838 12.6212 39.9998 12.9348 40.1414 13.18C40.2364 13.3444 40.4086 13.4364 40.5858 13.4364C40.6728 13.4364 40.761 13.4142 40.8417 13.3676L41.2374 13.1391C41.6386 13.9593 41.8902 14.8652 41.9569 15.8215H40.836C40.5528 15.8215 40.3233 16.0511 40.3233 16.3342C40.3233 16.6173 40.5528 16.8469 40.836 16.8469H41.9569C41.8902 17.8031 41.6386 18.7091 41.2374 19.5293L40.8417 19.3008C40.5966 19.1591 40.2829 19.2432 40.1414 19.4884C39.9998 19.7336 40.0838 20.0472 40.329 20.1888L40.7235 20.4166C40.2002 21.1891 39.5329 21.8564 38.7604 22.3798L38.5325 21.9852C38.391 21.7399 38.0773 21.656 37.8322 21.7975C37.587 21.9391 37.503 22.2527 37.6445 22.4979L37.8731 22.8936C37.0528 23.2948 36.1469 23.5464 35.1906 23.6131V22.4921C35.1906 22.209 34.9612 21.9795 34.6779 21.9795C34.3947 21.9795 34.1653 22.209 34.1653 22.4921V23.6131C33.209 23.5464 32.3031 23.2948 31.4828 22.8936L31.7113 22.4979C31.8529 22.2527 31.7688 21.9391 31.5236 21.7975C31.2782 21.6559 30.9648 21.74 30.8233 21.9852L30.5955 22.3798C29.8231 21.8564 29.1557 21.1891 28.6324 20.4166L29.027 20.1888C29.2722 20.0473 29.3562 19.7337 29.2146 19.4885C29.073 19.2432 28.7594 19.1594 28.5143 19.3009L28.1185 19.5294C27.7174 18.7091 27.4658 17.8032 27.399 16.847H28.52C28.8032 16.847 29.0327 16.6174 29.0327 16.3343C29.0327 16.0511 28.8032 15.8216 28.52 15.8216H27.399C27.4658 14.8654 27.7173 13.9594 28.1185 13.1391L28.5143 13.3677C28.595 13.4143 28.6832 13.4364 28.7701 13.4364C28.9473 13.4364 29.1196 13.3445 29.2146 13.18C29.3562 12.9348 29.2722 12.6213 29.027 12.4797L28.6324 12.2519C29.1558 11.4794 29.8231 10.8121 30.5956 10.2888Z" fill="#484848"/>
<path d="M31.0467 17.8418H34.6755H34.6756C35.5068 17.8417 36.1831 17.1654 36.1831 16.3341V13.7937C36.1831 12.9624 35.5068 12.2861 34.6754 12.2861C33.8442 12.2861 33.1679 12.9625 33.1679 13.7937V14.8266H31.0467C30.2154 14.8266 29.5391 15.5029 29.5391 16.3342C29.5391 17.1655 30.2154 17.8418 31.0467 17.8418ZM34.1932 13.7937C34.1932 13.5278 34.4095 13.3115 34.6754 13.3115C34.9414 13.3115 35.1577 13.5279 35.1577 13.7937V16.3342C35.1577 16.6001 34.9414 16.8164 34.6754 16.8164C34.4095 16.8164 34.1932 16.6001 34.1932 16.3342V13.7937ZM31.0467 15.8519H33.1679V16.3341C33.1679 16.5027 33.1961 16.6648 33.2474 16.8164H31.0467C30.7808 16.8164 30.5645 16.6 30.5645 16.3341C30.5645 16.0683 30.7808 15.8519 31.0467 15.8519Z" fill="#484848"/>
<path d="M20.5477 17.2227C20.5477 17.5058 20.7772 17.7354 21.0604 17.7354H22.0642L20.5675 20.0324C20.4648 20.1899 20.4567 20.3912 20.5463 20.5565C20.6359 20.7219 20.8089 20.8249 20.9971 20.8249H23.0582C23.3414 20.8249 23.5709 20.5954 23.5709 20.3122C23.5709 20.0291 23.3414 19.7995 23.0582 19.7995H21.9431L23.4398 17.5025C23.5425 17.345 23.5506 17.1437 23.461 16.9783C23.3714 16.813 23.1984 16.71 23.0103 16.71H21.0605C20.7773 16.71 20.5477 16.9395 20.5477 17.2227Z" fill="#484848"/>
<path d="M17.4307 16.1446H20.4008C20.684 16.1446 20.9135 15.9151 20.9135 15.6319C20.9135 15.3488 20.684 15.1192 20.4008 15.1192H18.3766L20.7612 11.4596C20.8639 11.3019 20.872 11.1007 20.7824 10.9354C20.6928 10.77 20.5198 10.667 20.3316 10.667H17.5219C17.2387 10.667 17.0092 10.8965 17.0092 11.1797C17.0092 11.4628 17.2387 11.6924 17.5219 11.6924H19.3857L17.0011 15.3521C16.8984 15.5097 16.8903 15.7109 16.9799 15.8763C17.0695 16.0416 17.2426 16.1446 17.4307 16.1446Z" fill="#484848"/>
</g>
<defs>
<clipPath id="clip0_902_48945">
<rect width="35" height="35" fill="white" transform="translate(8 8)"/>
</clipPath>
</defs>
</svg>
