<svg width="52" height="52" viewBox="0 0 52 52" fill="none" xmlns="http://www.w3.org/2000/svg">
<circle cx="26" cy="26" r="26" fill="#E6F9FF"/>
<g clip-path="url(#clip0_902_48948)">
<path d="M42.8018 34.5154C42.3614 32.8717 42.2692 31.1478 42.5862 29.4759C42.7199 28.7701 42.7877 28.0269 42.7877 27.2472C42.7877 26.4676 42.7199 25.7244 42.5862 25.0186C42.2692 23.3467 42.3614 21.6228 42.8018 19.9791L43.451 17.5565C43.6746 16.7219 42.9109 15.9583 42.0764 16.1819L39.8934 16.7669C37.9085 17.2987 35.8215 17.2764 33.8366 16.7448C31.7333 16.1816 29.2807 15.8906 26.5011 15.8906C23.7214 15.8906 21.2688 16.1816 19.1656 16.7448C17.1805 17.2764 15.0936 17.2987 13.1087 16.7669L10.9257 16.1819C10.0912 15.9583 9.32755 16.7219 9.55115 17.5565L10.2003 19.9791C10.6407 21.6228 10.7329 23.3467 10.416 25.0186C10.2822 25.7243 10.2144 26.4676 10.2144 27.2472C10.2144 28.0269 10.2822 28.7701 10.416 29.4759C10.7329 31.1478 10.6407 32.8717 10.2003 34.5154L9.55115 36.938C9.32755 37.7725 10.0912 38.5362 10.9257 38.3126L13.1087 37.7276C15.0937 37.1958 17.1806 37.2181 19.1656 37.7496C21.2688 38.3128 23.7214 38.6038 26.5011 38.6038C29.2807 38.6038 31.7333 38.3128 33.8366 37.7496C35.8216 37.2181 37.9085 37.1958 39.8934 37.7276L42.0764 38.3126C42.9109 38.5362 43.6746 37.7725 43.451 36.938L42.8018 34.5154Z" fill="#E5ECF1"/>
<path d="M42.8019 34.5157C42.3615 32.8719 42.2692 31.1481 42.5862 29.4761C42.72 28.7703 42.7878 28.027 42.7878 27.2474C42.7878 26.4678 42.72 25.7246 42.5862 25.0188C42.2693 23.3468 42.3615 21.6229 42.8019 19.9792L43.451 17.5566C43.6746 16.722 42.911 15.9584 42.0765 16.182L39.8935 16.767C39.1064 16.9778 38.3032 17.1002 37.4967 17.1397L37.477 17.2131C37.0366 18.8568 36.9444 20.5807 37.2614 22.2527C37.3952 22.9584 37.4629 23.7017 37.4629 24.4813C37.4629 25.261 37.3952 26.0042 37.2614 26.71C36.9445 28.3819 37.0366 30.1058 37.477 31.7495L38.1262 34.1721C38.3498 35.0066 37.5861 35.7703 36.7516 35.5466L34.5686 34.9617C32.5837 34.4299 30.4967 34.4521 28.5118 34.9837C26.4085 35.5469 23.9559 35.8379 21.1763 35.8379C18.3966 35.8379 15.9441 35.5469 13.8408 34.9837C12.6429 34.6629 11.4079 34.5291 10.1806 34.5891L9.55115 36.9383C9.32755 37.7728 10.0912 38.5365 10.9257 38.3129L13.1087 37.7279C15.0937 37.1961 17.1806 37.2184 19.1656 37.7499C21.2688 38.3132 23.7214 38.6042 26.5011 38.6042C29.2807 38.6042 31.7333 38.3132 33.8366 37.7499C35.8216 37.2184 37.9085 37.1961 39.8934 37.7279L42.0764 38.3129C42.9109 38.5365 43.6746 37.7728 43.451 36.9383L42.8019 34.5157Z" fill="#D6E4EA"/>
<path d="M28.5916 21.9082H24.4533C21.5063 21.9082 19.1172 24.2973 19.1172 27.2443V30.9456H33.9277V27.2443C33.9277 24.2973 31.5386 21.9082 28.5916 21.9082Z" fill="#A64C31"/>
<path d="M28.6788 21.9082H26.5039C29.402 21.9082 31.7514 24.2576 31.7514 27.1557V30.9455H33.9263V27.1557C33.9263 24.2576 31.5769 21.9082 28.6788 21.9082Z" fill="#8A3E25"/>
<path d="M33.1085 30.4695C33.0669 30.4665 33.0265 30.4656 32.9867 30.4658V28.2883C32.9867 27.1167 32.037 26.167 30.8655 26.167H22.2242C21.0526 26.167 20.1029 27.1167 20.1029 28.2883V30.4692C20.0352 30.4645 19.965 30.4642 19.8916 30.4696C18.841 30.547 18.0286 31.1416 18.1204 32.388C18.2102 33.6081 19.1334 34.9995 20.1577 34.9851C20.5704 38.1448 23.2726 40.5846 26.5448 40.5846C29.8179 40.5846 32.5206 38.1436 32.9323 34.9827C33.9201 34.9178 34.7925 33.5722 34.8797 32.388C34.9715 31.1416 34.159 30.5469 33.1085 30.4695Z" fill="#FFCBBE"/>
<path d="M33.1087 30.4695C33.0671 30.4665 33.0268 30.4656 32.987 30.4658V28.2883C32.987 27.1167 32.0373 26.167 30.8657 26.167H30.1405C30.5079 26.5484 30.7343 27.0667 30.7343 27.6382V33.4926C30.7343 37.0504 27.8502 39.9345 24.2924 39.9345C24.0791 39.9345 23.8682 39.9238 23.6602 39.9036C24.5281 40.3391 25.5078 40.5846 26.5451 40.5846C29.8181 40.5846 32.5208 38.1436 32.9325 34.9827C33.9204 34.9178 34.7927 33.5722 34.8799 32.388C34.9717 31.1416 34.1593 30.5469 33.1087 30.4695Z" fill="#FDAD9D"/>
<path d="M18.5387 37.0786C16.6848 36.7023 14.7611 36.7563 12.9755 37.2348L10.7925 37.8197C10.4844 37.9022 10.2765 37.7365 10.2014 37.6613C10.1262 37.5862 9.96039 37.3783 10.043 37.0702L10.6921 34.6476C11.1605 32.8996 11.238 31.0784 10.9163 29.3809C10.7884 28.7067 10.7236 27.9889 10.7236 27.2473C10.7236 26.5058 10.7884 25.7879 10.9163 25.1137C11.238 23.4163 11.1605 21.5951 10.6921 19.847L10.043 17.4244C9.96039 17.1163 10.1262 16.9084 10.2014 16.8333C10.2765 16.7582 10.4844 16.5923 10.7925 16.6749L12.9755 17.2598C14.2309 17.5961 15.535 17.7243 16.8518 17.6403C17.1331 17.6224 17.3466 17.3799 17.3286 17.0986C17.3107 16.8173 17.0679 16.6034 16.7869 16.6217C15.5811 16.6985 14.3876 16.5814 13.2397 16.2739L11.0567 15.6889C10.4867 15.5362 9.89703 15.6942 9.47969 16.1115C9.06229 16.5289 8.90438 17.1184 9.05709 17.6886L9.70623 20.1112C10.1352 21.7119 10.2068 23.376 9.9135 24.9236C9.77384 25.6603 9.70302 26.4421 9.70302 27.2473C9.70302 28.0525 9.77384 28.8342 9.9135 29.5709C10.2068 31.1186 10.1351 32.7827 9.70623 34.3834L9.05709 36.806C8.90438 37.3761 9.06229 37.9657 9.47969 38.383C9.7923 38.6956 10.2014 38.8627 10.6267 38.8627C10.7692 38.8627 10.9136 38.8439 11.0567 38.8056L13.2397 38.2207C14.8735 37.7829 16.6358 37.7338 18.3357 38.0788C18.6119 38.1348 18.8813 37.9564 18.9373 37.6802C18.9935 37.404 18.815 37.1346 18.5387 37.0786Z" fill="#484848"/>
<path d="M43.2924 34.3839C42.8635 32.7832 42.7918 31.1192 43.0851 29.5715C43.2248 28.8348 43.2956 28.053 43.2956 27.2478C43.2956 26.4427 43.2248 25.6609 43.0851 24.9242C42.7918 23.3766 42.8635 21.7125 43.2924 20.1117L43.9415 17.6892C44.0943 17.119 43.9364 16.5294 43.519 16.1121C43.1016 15.6948 42.5121 15.5369 41.9419 15.6895L39.7589 16.2745C37.8915 16.7749 35.8884 16.7672 33.9661 16.2524C31.8063 15.6741 29.2939 15.3809 26.4986 15.3809C23.7032 15.3809 21.1908 15.6741 19.0311 16.2524C18.7588 16.3253 18.5972 16.6052 18.6701 16.8774C18.743 17.1497 19.0228 17.3113 19.2951 17.2383C21.3687 16.683 23.7923 16.4015 26.4986 16.4015C29.2048 16.4015 31.6284 16.6831 33.7021 17.2383C35.7971 17.7994 37.9829 17.8069 40.0231 17.2603L42.206 16.6754C42.514 16.5927 42.722 16.7586 42.7972 16.8338C42.8723 16.9089 43.0382 17.1168 42.9556 17.4249L42.3065 19.8475C41.8381 21.5956 41.7605 23.4168 42.0823 25.1142C42.2101 25.7884 42.2749 26.5063 42.2749 27.2478C42.2749 27.9894 42.2101 28.7072 42.0823 29.3814C41.7605 31.0788 41.8381 32.9001 42.3065 34.6481L42.9556 37.0707C43.0382 37.3788 42.8723 37.5867 42.7972 37.6618C42.7221 37.7369 42.5142 37.9029 42.2061 37.8202L40.0231 37.2353C37.983 36.6887 35.7973 36.6963 33.7021 37.2573C33.3532 37.3507 32.9919 37.4367 32.6213 37.5151C32.9799 36.8717 33.2408 36.165 33.3798 35.4125C34.4773 35.0602 35.2965 33.6568 35.3872 32.4259C35.4558 31.4949 35.0932 30.9327 34.7769 30.6251C34.6748 30.5257 34.5602 30.438 34.4367 30.3598V27.1556C34.4367 23.9807 31.8537 21.3978 28.6788 21.3978H24.3633C21.1884 21.3978 18.6054 23.9807 18.6054 27.1556V30.3322C18.4644 30.4169 18.3347 30.5139 18.2204 30.6251C17.9041 30.9328 17.5414 31.4949 17.61 32.426C17.7054 33.7215 18.5885 35.1416 19.7121 35.4394C20.3254 38.6904 23.1954 41.0955 26.5435 41.0955C28.6103 41.0955 30.4936 40.1784 31.7775 38.7124C32.5385 38.5861 33.2747 38.4285 33.9661 38.2432C35.8885 37.7284 37.8915 37.7208 39.7589 38.2212L41.942 38.8062C42.085 38.8445 42.2294 38.8633 42.3719 38.8633C42.7971 38.8633 43.2063 38.6962 43.519 38.3836C43.9364 37.9662 44.0943 37.3766 43.9415 36.8065L43.2924 34.3839ZM26.5435 40.0748C23.5746 40.0748 21.0463 37.8585 20.6624 34.9195C20.6288 34.6626 20.4115 34.4723 20.1491 34.4753C19.4865 34.4849 18.7046 33.3927 18.6279 32.3509C18.596 31.9184 18.6983 31.5839 18.932 31.3567C19.1535 31.1413 19.4977 31.0106 19.9277 30.979C19.9741 30.9755 20.0195 30.9755 20.0662 30.9787C20.207 30.9885 20.3462 30.9392 20.4496 30.8427C20.5531 30.7462 20.6118 30.6111 20.6118 30.4696V28.2888C20.6118 27.4006 21.3345 26.6779 22.2228 26.6779H27.6554C27.9373 26.6779 28.1657 26.4495 28.1657 26.1676C28.1657 25.8858 27.9373 25.6573 27.6554 25.6573H22.2228C20.9166 25.6573 19.8302 26.614 19.6261 27.8634V27.1558C19.6261 24.5438 21.7511 22.4187 24.3632 22.4187H28.6787C31.2908 22.4187 33.4159 24.5438 33.4159 27.1558V27.6461C33.1283 26.5048 32.0934 25.6574 30.8641 25.6574H30.1504C29.8685 25.6574 29.6401 25.8858 29.6401 26.1677C29.6401 26.4495 29.8685 26.678 30.1504 26.678H30.8641C31.7524 26.678 32.475 27.4006 32.475 28.2889V30.4665C32.475 30.6024 32.5292 30.7327 32.6255 30.8284C32.7212 30.9235 32.8505 30.9768 32.9853 30.9768H32.9883C33.0202 30.9768 33.0459 30.9774 33.0696 30.9792C33.4994 31.0108 33.8438 31.1414 34.0653 31.3569C34.2989 31.5841 34.4012 31.9186 34.3694 32.3511C34.2951 33.3597 33.5522 34.4311 32.8975 34.4741C32.6543 34.4901 32.4564 34.6758 32.4249 34.9175C32.0419 37.8576 29.5135 40.0748 26.5435 40.0748Z" fill="#484848"/>
<path d="M27.6864 35.0261C27.3739 35.2967 26.9525 35.4458 26.4998 35.4458C26.047 35.4458 25.6257 35.2967 25.3132 35.0261C25.1003 34.8415 24.778 34.8646 24.5934 35.0776C24.4088 35.2906 24.4319 35.6129 24.6449 35.7974C25.1429 36.2288 25.8016 36.4664 26.4998 36.4664C27.1979 36.4664 27.8567 36.2288 28.3547 35.7974C28.5677 35.6129 28.5908 35.2906 28.4062 35.0776C28.2217 34.8645 27.8993 34.8414 27.6864 35.0261Z" fill="#484848"/>
<path d="M30.6471 31.3446C30.3782 31.2606 30.0919 31.4108 30.008 31.68C29.9321 31.9235 29.7095 32.087 29.454 32.087C29.1986 32.087 28.9759 31.9234 28.9001 31.68C28.8162 31.4109 28.5301 31.2608 28.261 31.3446C27.9919 31.4285 27.8417 31.7146 27.9256 31.9837C28.1351 32.6559 28.7493 33.1077 29.454 33.1077C30.1586 33.1077 30.7728 32.6559 30.9824 31.9837C31.0664 31.7146 30.9163 31.4285 30.6471 31.3446Z" fill="#484848"/>
<path d="M25.166 31.9837C25.2499 31.7146 25.0998 31.4285 24.8306 31.3446C24.5617 31.2606 24.2754 31.4108 24.1916 31.68C24.1157 31.9235 23.893 32.087 23.6376 32.087C23.3822 32.087 23.1595 31.9234 23.0837 31.68C22.9998 31.4109 22.7136 31.2608 22.4446 31.3446C22.1755 31.4285 22.0253 31.7146 22.1092 31.9837C22.3187 32.6559 22.933 33.1077 23.6376 33.1077C24.3423 33.1077 24.9565 32.6559 25.166 31.9837Z" fill="#484848"/>
<path d="M34.9336 23.6141C34.9336 24.0331 35.1739 24.1704 35.586 24.1704H38.6422C38.965 24.1704 39.226 24.0055 39.226 23.6966C39.226 23.3875 38.965 23.2226 38.6422 23.2226H36.4445L39.0337 20.1458C39.1368 20.0291 39.1917 19.878 39.1917 19.7407C39.1917 19.3492 38.9582 19.2256 38.6698 19.2256H35.7028C35.3801 19.2256 35.1191 19.3904 35.1191 19.6995C35.1191 20.0085 35.3801 20.1734 35.7028 20.1734H37.6671L35.1191 23.1815C35.016 23.3051 34.9336 23.4356 34.9336 23.6141Z" fill="#484848"/>
<path d="M37.4375 15.3467H39.8297C40.0034 15.3467 40.2091 15.2503 40.2091 14.9802C40.2091 14.7101 40.0034 14.6137 39.8297 14.6137H38.2864L40.0226 12.7101C40.1127 12.6137 40.1706 12.4979 40.1706 12.395C40.1706 12.1506 40.0355 11.9834 39.7847 11.9834H37.5532C37.3796 11.9834 37.1738 12.0799 37.1738 12.35C37.1738 12.6201 37.3796 12.7166 37.5532 12.7166H38.9101L37.1417 14.6393C37.0581 14.7293 37.0195 14.8451 37.0195 14.9801C37.0195 15.1667 37.161 15.3467 37.4375 15.3467Z" fill="#484848"/>
<path d="M33.6721 12.4219H35.4622C35.5921 12.4219 35.7461 12.3497 35.7461 12.1476C35.7461 11.9455 35.5921 11.8733 35.4622 11.8733H34.3073L35.6066 10.449C35.674 10.3768 35.7172 10.2902 35.7172 10.2132C35.7172 10.0304 35.6162 9.90527 35.4285 9.90527H33.7587C33.6288 9.90527 33.4748 9.97746 33.4748 10.1796C33.4748 10.3817 33.6288 10.4539 33.7587 10.4539H34.7741L33.4508 11.8926C33.3882 11.96 33.3594 12.0466 33.3594 12.1477C33.3594 12.2871 33.4653 12.4219 33.6721 12.4219Z" fill="#484848"/>
</g>
<defs>
<clipPath id="clip0_902_48948">
<rect width="35" height="35" fill="white" transform="translate(9 8)"/>
</clipPath>
</defs>
</svg>
