<svg width="56" height="55" viewBox="0 0 56 55" fill="none" xmlns="http://www.w3.org/2000/svg">
<g clip-path="url(#clip0_580_88706)">
<path d="M54.9751 27.4993C54.9751 42.4106 42.8871 54.4986 27.9758 54.4986C13.0646 54.4986 0.976562 42.4106 0.976562 27.4993C0.976562 12.588 13.0646 0.5 27.9758 0.5C42.8871 0.5 54.9751 12.588 54.9751 27.4993Z" fill="#C1FF9F" stroke="black"/>
<path d="M22.9824 27.0206C22.817 27.1454 22.5949 27.1628 22.4135 27.0627C18.0773 24.6739 13.3913 25.8915 12.3754 26.0889C12.342 26.0947 12.3101 26.0991 12.2767 26.0991C12.0808 26.0991 11.898 25.9859 11.8109 25.8045C11.6817 25.5374 11.8472 25.2893 12.0779 25.1021C12.8238 24.4998 17.6811 20.432 23.0492 26.2427C23.2596 26.472 23.2306 26.8334 22.9824 27.0206Z" fill="black"/>
<path d="M32.9699 27.0206C33.1354 27.1454 33.3574 27.1628 33.5388 27.0627C37.8751 24.6739 42.5611 25.8915 43.5769 26.0889C43.6103 26.0947 43.6422 26.0991 43.6756 26.0991C43.8715 26.0991 44.0544 25.9859 44.1415 25.8045C44.2706 25.5374 44.1052 25.2893 43.8744 25.1021C43.1285 24.4998 38.2712 20.432 32.9032 26.2427C32.6927 26.472 32.7218 26.8334 32.9699 27.0206Z" fill="black"/>
<path d="M18.2363 36.6289C18.2363 36.6289 19.8182 43.6891 27.9755 43.6891C36.1328 43.6891 37.7147 36.6289 37.7147 36.6289H18.2363Z" fill="black"/>
</g>
<defs>
<clipPath id="clip0_580_88706">
<rect width="55" height="55" fill="white" transform="translate(0.476562)"/>
</clipPath>
</defs>
</svg>
