<svg width="47" height="47" viewBox="0 0 47 47" fill="none" xmlns="http://www.w3.org/2000/svg">
<circle cx="23.5" cy="23.5" r="23.5" fill="#E6F9FF"/>
<path d="M23.1946 41.0953C31.9769 41.0953 39.0963 33.9759 39.0963 25.1937C39.0963 16.4114 31.9769 9.29199 23.1946 9.29199C14.4124 9.29199 7.29297 16.4114 7.29297 25.1937C7.29297 33.9759 14.4124 41.0953 23.1946 41.0953Z" fill="#FFE093"/>
<path d="M23.1946 38.0384C14.923 38.0384 8.13297 31.7267 7.36297 23.665C7.3163 24.1667 7.29297 24.68 7.29297 25.1934C7.29297 33.9784 14.4096 41.095 23.1946 41.095C31.9796 41.095 39.0963 33.9784 39.0963 25.1934C39.0963 24.68 39.073 24.1667 39.0263 23.665C38.2563 31.7267 31.4663 38.0384 23.1946 38.0384Z" fill="#FFCA6B"/>
<path d="M10.9668 30.0583C11.6949 30.0583 12.2851 29.8494 12.2851 29.5917C12.2851 29.3339 11.6949 29.125 10.9668 29.125C10.2387 29.125 9.64844 29.3339 9.64844 29.5917C9.64844 29.8494 10.2387 30.0583 10.9668 30.0583Z" fill="#F97AA4"/>
<path d="M35.4082 30.0583C36.1363 30.0583 36.7265 29.8494 36.7265 29.5917C36.7265 29.3339 36.1363 29.125 35.4082 29.125C34.6801 29.125 34.0898 29.3339 34.0898 29.5917C34.0898 29.8494 34.6801 30.0583 35.4082 30.0583Z" fill="#F97AA4"/>
<path d="M20.6278 19.5469C20.6278 19.5469 19.6361 17.2486 16.4511 17.4236C13.5578 17.5752 10.0928 20.6786 11.2594 25.9286C11.2594 25.9286 11.4111 26.7336 11.9128 27.4802C12.3211 28.0986 13.0678 28.7169 13.0678 28.7169C13.0678 28.7169 15.1678 30.3969 17.1628 30.0002C19.7878 29.4752 20.6278 27.2119 20.6278 27.2119C20.6278 27.2119 21.0594 25.5552 21.0594 23.3036C21.0594 20.9236 20.6278 19.5469 20.6278 19.5469Z" fill="white"/>
<path d="M25.7598 19.5469C25.7598 19.5469 26.7515 17.2486 29.9365 17.4236C32.8298 17.5752 36.2948 20.6786 35.1281 25.9286C35.1281 25.9286 34.9765 26.7336 34.4748 27.4802C34.0665 28.0986 33.3198 28.7169 33.3198 28.7169C33.3198 28.7169 31.2198 30.3969 29.2248 30.0002C26.5998 29.4752 25.7598 27.2119 25.7598 27.2119C25.7598 27.2119 25.3281 25.5552 25.3281 23.3036C25.3281 20.9236 25.7598 19.5469 25.7598 19.5469Z" fill="white"/>
<path d="M13.2057 13.188C13.3341 13.083 13.4741 12.978 13.6024 12.873C13.7307 12.7797 13.7541 12.593 13.6491 12.4647C13.5557 12.3364 13.3691 12.313 13.2291 12.4064C13.0891 12.5114 12.9607 12.6164 12.8207 12.733C12.6924 12.838 12.6807 13.0247 12.7857 13.153C12.9024 13.2697 13.0891 13.293 13.2057 13.188Z" fill="black"/>
<path d="M23.1933 9C20.1833 9 17.255 9.82833 14.7117 11.4033C14.5717 11.485 14.5367 11.6717 14.6183 11.8117C14.7 11.9517 14.8867 11.9867 15.015 11.905C17.465 10.3883 20.2883 9.595 23.1933 9.595C31.8383 9.595 38.8733 16.665 38.8033 25.3333C38.7333 33.8267 31.8033 40.7567 23.31 40.8267C14.6533 40.8733 7.58333 33.8383 7.58333 25.1933C7.58333 21.5417 8.86667 18.0067 11.1883 15.2067C11.2933 15.0783 11.2817 14.9033 11.1533 14.7983C11.025 14.6933 10.8383 14.705 10.745 14.8333C8.31833 17.7383 7 21.4017 7 25.1933C7 34.165 14.3383 41.4567 23.3217 41.3867C32.13 41.3167 39.3283 34.13 39.3867 25.3217C39.4567 16.3267 32.165 9 23.1933 9Z" fill="black"/>
<path d="M10.9215 25.6834C10.9565 25.8468 11.1082 25.9518 11.2715 25.9168C11.4232 25.8818 11.5282 25.7301 11.4932 25.5784C10.9565 22.8134 11.7849 20.9701 12.6015 19.8968C13.5815 18.6018 15.0282 17.7851 16.4749 17.7151C18.8665 17.5868 19.9165 18.9051 20.2432 19.4418C20.3132 19.5701 20.4765 19.6168 20.6049 19.5584C20.7682 19.4884 20.8265 19.2901 20.7449 19.1384C20.3482 18.4851 19.1232 16.9801 16.4399 17.1318C14.8182 17.2134 13.2082 18.1234 12.1349 19.5468C10.8982 21.1801 10.4782 23.3501 10.9215 25.6834Z" fill="black"/>
<path d="M20.6136 27.1888C20.4736 27.1421 20.322 27.2005 20.252 27.3288C19.9603 27.9005 19.0736 29.3121 17.1136 29.6971C15.632 29.9888 14.0453 29.0205 13.4736 28.6355C13.3453 28.5538 13.182 28.5771 13.077 28.6938C12.972 28.8221 12.9953 29.0205 13.1353 29.1138C13.6836 29.4988 15.0603 30.3388 16.5303 30.3388C16.7636 30.3388 16.997 30.3155 17.2303 30.2688C19.4353 29.8255 20.4386 28.2505 20.777 27.5855C20.847 27.4455 20.777 27.2588 20.6136 27.1888Z" fill="black"/>
<path d="M18.4346 26.2319C18.789 26.2319 19.0763 25.276 19.0763 24.0969C19.0763 22.9178 18.789 21.9619 18.4346 21.9619C18.0803 21.9619 17.793 22.9178 17.793 24.0969C17.793 25.276 18.0803 26.2319 18.4346 26.2319Z" fill="black"/>
<path d="M25.6434 19.1382C25.55 19.2898 25.62 19.4882 25.7834 19.5582C25.9117 19.6165 26.075 19.5698 26.145 19.4415C26.4717 18.9048 27.5217 17.5865 29.9134 17.7148C31.36 17.7965 32.8067 18.6132 33.7867 19.9082C34.5917 20.9815 35.4317 22.8248 34.895 25.5898C34.86 25.7415 34.965 25.8932 35.1167 25.9282C35.28 25.9632 35.4317 25.8582 35.4667 25.6948C35.9217 23.3615 35.49 21.1915 34.2534 19.5582C33.1684 18.1348 31.5584 17.2248 29.9484 17.1432C27.265 16.9798 26.04 18.4848 25.6434 19.1382Z" fill="black"/>
<path d="M25.6091 27.5972C25.9474 28.2622 26.9624 29.8372 29.1557 30.2805C29.3891 30.3272 29.6224 30.3505 29.8557 30.3505C31.3257 30.3505 32.7024 29.5105 33.2507 29.1255C33.3907 29.0322 33.4141 28.8338 33.3091 28.7055C33.2157 28.5888 33.0407 28.5655 32.9124 28.6472C32.3407 29.0438 30.7541 30.0122 29.2724 29.7088C27.3124 29.3122 26.4141 27.9005 26.1341 27.3405C26.0641 27.2121 25.9124 27.1421 25.7724 27.2005C25.6091 27.2588 25.5391 27.4455 25.6091 27.5972Z" fill="black"/>
<path d="M27.9542 26.2319C28.3085 26.2319 28.5958 25.276 28.5958 24.0969C28.5958 22.9178 28.3085 21.9619 27.9542 21.9619C27.5998 21.9619 27.3125 22.9178 27.3125 24.0969C27.3125 25.276 27.5998 26.2319 27.9542 26.2319Z" fill="black"/>
<path d="M23.4751 33.0564C23.3701 32.8114 23.0201 32.8114 22.9034 33.0564C22.8918 33.103 22.6234 34.223 21.4218 34.223C20.9084 34.223 20.5118 34.0014 20.3368 33.6397C20.2551 33.4764 20.2434 33.3014 20.2901 33.1614C20.3251 33.0447 20.3018 32.928 20.2084 32.858L20.1734 32.8347C20.0334 32.718 19.8118 32.7647 19.7418 32.9397C19.6251 33.2314 19.6484 33.5814 19.8001 33.8964C20.0684 34.468 20.6751 34.818 21.4101 34.818C22.3084 34.818 22.8684 34.3397 23.1834 33.8614C23.4984 34.3514 24.0584 34.818 24.9568 34.818C25.7034 34.818 26.2984 34.4797 26.5668 33.8964C26.7184 33.5814 26.7301 33.2314 26.6251 32.9397C26.5551 32.7647 26.3451 32.718 26.1934 32.8347L26.1584 32.858C26.0651 32.928 26.0418 33.0564 26.0768 33.1614C26.1234 33.3014 26.1118 33.4764 26.0301 33.6397C25.8551 34.0014 25.4584 34.223 24.9451 34.223C23.7551 34.2347 23.4868 33.103 23.4751 33.0564Z" fill="black"/>
<path d="M14.1274 15.1249C14.2441 15.2299 14.4308 15.2182 14.5358 15.1016C16.1924 13.2699 18.4091 11.7416 19.4941 12.1499C19.6224 12.1966 19.7624 12.1616 19.8441 12.0566C19.9491 11.9049 19.8908 11.6832 19.7158 11.6132C18.1874 11.0182 15.6441 13.0132 14.1041 14.7166C13.9874 14.8332 13.9991 15.0199 14.1274 15.1249Z" fill="black"/>
<path d="M26.8906 12.1498C27.9756 11.7415 30.1922 13.2698 31.8489 15.1015C31.9539 15.2182 32.1406 15.2298 32.2572 15.1248C32.3856 15.0198 32.3972 14.8332 32.2806 14.7048C30.7406 13.0015 28.2089 11.0065 26.6689 11.6015C26.4939 11.6715 26.4356 11.8932 26.5406 12.0448C26.6222 12.1498 26.7622 12.1965 26.8906 12.1498Z" fill="black"/>
</svg>
