<svg width="50" height="49" viewBox="0 0 50 49" fill="none" xmlns="http://www.w3.org/2000/svg">
<circle cx="24.9766" cy="24.5" r="24.5" fill="#E6F9FF"/>
<path fill-rule="evenodd" clip-rule="evenodd" d="M35.341 25.7982L26.3411 16.7964L23.9761 19.079L21.6129 16.7964L12.6113 25.7982V36.0976C12.6113 36.7189 13.1194 37.2286 13.7406 37.2321H13.7457H16.5706V30.53C16.5706 28.8034 17.6536 28.1478 18.5529 27.7616C18.1564 27.3395 17.9144 26.7731 17.9144 26.1484C17.9144 24.8457 18.9699 23.7885 20.2725 23.7885C21.5768 23.7885 22.6323 24.8457 22.6323 26.1484C22.6323 26.7731 22.3903 27.3395 21.9938 27.7616C22.725 28.0757 23.5762 28.5666 23.8714 29.6667C23.9057 29.6632 23.9417 29.6632 23.9761 29.6632C24.0121 29.6632 24.0482 29.6632 24.0825 29.6667C24.376 28.5665 25.2272 28.0757 25.9583 27.7616C25.5619 27.3395 25.3199 26.7731 25.3199 26.1484C25.3199 24.8457 26.3771 23.7885 27.6797 23.7885C28.9823 23.7885 30.0395 24.8457 30.0395 26.1484C30.0395 26.7731 29.7958 27.3395 29.4011 27.7616C30.3004 28.1478 31.3833 28.8034 31.3833 30.53V37.2321H34.2065H34.2133C34.8346 37.2286 35.3409 36.7189 35.3409 36.0976L35.341 25.7982Z" fill="white"/>
<path fill-rule="evenodd" clip-rule="evenodd" d="M29.0336 14.1978C30.3208 12.9553 30.3585 10.8837 29.116 9.59649C27.8717 8.30756 25.802 8.27154 24.5148 9.51409L23.9759 10.0324L23.4387 9.51409C22.1499 8.27154 20.0801 8.30756 18.8375 9.59649C17.595 10.8837 17.631 12.9553 18.9182 14.1978L19.2511 14.5188L21.6127 16.7963L23.9759 19.0789L26.3409 16.7963L28.7006 14.5188L29.0336 14.1978Z" fill="#D7A5FF"/>
<path fill-rule="evenodd" clip-rule="evenodd" d="M38.3921 24.2091L28.7006 14.519L26.3408 16.7965L35.3406 25.7983L36.0718 26.5295C36.7102 27.1679 37.7537 27.1679 38.3921 26.5295C39.0305 25.891 39.0288 24.8476 38.3921 24.2091Z" fill="#FFE6B4"/>
<path fill-rule="evenodd" clip-rule="evenodd" d="M12.6116 25.7984L21.6132 16.7965L19.2516 14.519L9.56185 24.2091C9.24266 24.5266 9.08476 24.9454 9.08301 25.3642V25.3745C9.0847 25.7933 9.2426 26.212 9.56185 26.5295C10.1986 27.168 11.2438 27.168 11.8822 26.5295L12.6116 25.7984Z" fill="#FFE6B4"/>
<path fill-rule="evenodd" clip-rule="evenodd" d="M22.6319 26.1485C22.6319 24.8458 21.5765 23.7886 20.2721 23.7886C18.9695 23.7886 17.9141 24.8458 17.9141 26.1485C17.9141 26.7732 18.1561 27.3396 18.5525 27.7617C18.9816 28.2217 19.5942 28.5083 20.2721 28.5083C20.9518 28.5083 21.5645 28.2217 21.9935 27.7617C22.3899 27.3396 22.6319 26.7732 22.6319 26.1485Z" fill="#FFDCD5"/>
<path fill-rule="evenodd" clip-rule="evenodd" d="M23.8711 29.6667C23.5759 28.5666 22.7247 28.0758 21.9936 27.7617C21.5645 28.2217 20.9518 28.5083 20.2722 28.5083C19.5943 28.5083 18.9816 28.2217 18.5525 27.7617C17.6532 28.1479 16.5703 28.8035 16.5703 30.5301V37.2321H21.211V34.6971C21.211 33.4065 22.0193 32.9191 22.6904 32.6291C22.3952 32.315 22.215 31.8911 22.215 31.4242C22.215 30.4871 22.9461 29.7199 23.8711 29.6667Z" fill="#D7A5FF"/>
<path fill-rule="evenodd" clip-rule="evenodd" d="M30.0399 26.1485C30.0399 24.8458 28.9828 23.7886 27.6801 23.7886C26.3775 23.7886 25.3203 24.8458 25.3203 26.1485C25.3203 26.7732 25.5623 27.3396 25.9588 27.7617C26.3895 28.2217 27.0005 28.5083 27.6802 28.5083C28.3598 28.5083 28.9708 28.2217 29.4015 27.7617C29.7962 27.3396 30.0399 26.7732 30.0399 26.1485Z" fill="#FFDCD5"/>
<path fill-rule="evenodd" clip-rule="evenodd" d="M31.3829 30.5301C31.3829 28.8035 30.2999 28.1479 29.4007 27.7617C28.9699 28.2217 28.3589 28.5083 27.6793 28.5083C26.9997 28.5083 26.3887 28.2217 25.9579 27.7617C25.2267 28.0758 24.3756 28.5667 24.082 29.6667C25.0053 29.72 25.7382 30.4871 25.7382 31.4242C25.7382 31.891 25.5562 32.315 25.2611 32.6291C25.9338 32.9191 26.7422 33.4065 26.7422 34.6971V37.2321H31.3828L31.3829 30.5301Z" fill="#A0C8FF"/>
<path fill-rule="evenodd" clip-rule="evenodd" d="M25.7382 31.424C25.7382 30.4869 25.0054 29.7197 24.0821 29.6648C24.0478 29.6631 24.0117 29.6631 23.9757 29.6631C23.9413 29.6631 23.9053 29.6631 23.871 29.6648C22.9459 29.7197 22.2148 30.4869 22.2148 31.424C22.2148 31.8908 22.395 32.3147 22.6902 32.6288C23.0129 32.972 23.4694 33.1866 23.9757 33.1866C24.4837 33.1866 24.9402 32.9721 25.2612 32.6288C25.5563 32.3147 25.7382 31.8908 25.7382 31.424Z" fill="#FFDCD5"/>
<path fill-rule="evenodd" clip-rule="evenodd" d="M26.7424 34.697C26.7424 33.4064 25.9341 32.9189 25.2613 32.6289C24.9404 32.9721 24.4838 33.1867 23.9758 33.1867C23.4695 33.1867 23.013 32.9722 22.6903 32.6289C22.0193 32.919 21.2109 33.4064 21.2109 34.697V37.2319H26.7423V34.697H26.7424Z" fill="#CE92FF"/>
<path d="M38.8204 23.7807L35.4103 20.3722C35.1738 20.1358 34.7904 20.1359 34.5541 20.3724C34.3177 20.6089 34.3178 20.9922 34.5542 21.2286L37.9637 24.6364C38.3671 25.041 38.3673 25.6981 37.9642 26.1012C37.5605 26.5049 36.9037 26.5049 36.5002 26.1013L27.2051 16.8042L28.6937 15.3675L30.7099 17.3824C30.8281 17.5006 30.983 17.5597 31.1378 17.5597C31.2929 17.5597 31.4479 17.5004 31.5661 17.3822C31.8024 17.1457 31.8023 16.7623 31.5658 16.5259L29.5622 14.5238C30.9862 13.0364 30.9936 10.6698 29.5516 9.17608C28.8377 8.43647 27.8755 8.01907 26.8423 8.00073C25.8119 7.9819 24.8334 8.36521 24.0951 9.07787L23.9766 9.19182L23.859 9.0783C23.1192 8.36508 22.1432 7.98093 21.1101 8.00073C20.0768 8.01907 19.1149 8.43659 18.402 9.17608C16.9597 10.6703 16.9664 13.037 18.3899 14.524L9.13346 23.7808C8.25769 24.6566 8.25769 26.0816 9.13292 26.9568C9.55485 27.3799 10.1183 27.6131 10.7196 27.6135H10.7212C11.1882 27.6135 11.6324 27.4725 12.0059 27.2116V36.0974C12.0059 37.0568 12.7864 37.8373 13.7457 37.8373H34.2065C35.1659 37.8373 35.9464 37.0568 35.9464 36.0974V27.2103C36.3311 27.4792 36.7815 27.6143 37.2322 27.6143C37.8073 27.6143 38.3826 27.3953 38.8204 26.9574C39.6951 26.0828 39.6954 24.658 38.8204 23.7807ZM19.2736 10.0168C19.7622 9.51004 20.422 9.22403 21.1317 9.21144C21.1481 9.21113 21.1642 9.21101 21.1805 9.21101C21.8721 9.21101 22.5233 9.47244 23.0185 9.94996L23.5557 10.4683C23.79 10.6943 24.1611 10.6947 24.3959 10.4689L24.9355 9.94983C25.4417 9.46112 26.1112 9.19872 26.821 9.2115C27.5308 9.22409 28.1913 9.51022 28.6806 10.0172C29.6946 11.0676 29.6644 12.7477 28.6134 13.7623L23.9762 18.2376L19.3389 13.7624C18.2883 12.7481 18.2589 11.068 19.2736 10.0168ZM10.7211 26.4027C10.7209 26.4027 10.7206 26.4027 10.7204 26.4027C10.4429 26.4025 10.1836 26.2957 9.98968 26.1013C9.58603 25.6976 9.58603 25.0407 9.98968 24.6371L19.2587 15.3678L20.748 16.8051L12.2007 25.3541C12.1891 25.3649 12.1779 25.376 12.1672 25.3876L11.4538 26.1011C11.2594 26.2957 10.9992 26.4027 10.7211 26.4027ZM20.2725 27.9027C19.3061 27.9027 18.5199 27.1157 18.5199 26.1482C18.5199 25.1808 19.3061 24.3938 20.2725 24.3938C21.2399 24.3938 22.0269 25.1808 22.0269 26.1482C22.0269 27.1157 21.2399 27.9027 20.2725 27.9027ZM18.4452 28.4802C18.9491 28.8764 19.5835 29.1136 20.2725 29.1136C20.9623 29.1136 21.5973 28.8762 22.1016 28.4797C22.4639 28.6653 22.7978 28.9019 23.0323 29.2548C22.196 29.62 21.6098 30.4548 21.6098 31.4241C21.6098 31.7726 21.6861 32.1034 21.8217 32.4016C21.194 32.8044 20.6058 33.4734 20.6058 34.6971V36.6266H17.1761V30.5299C17.1761 29.4268 17.6711 28.879 18.4452 28.4802ZM27.6797 27.9027C26.7123 27.9027 25.9253 27.1157 25.9253 26.1482C25.9253 25.1808 26.7123 24.3938 27.6797 24.3938C28.6471 24.3938 29.4341 25.1808 29.4341 26.1482C29.4341 27.1157 28.6471 27.9027 27.6797 27.9027ZM25.8507 28.4797C26.355 28.8762 26.9899 29.1136 27.6797 29.1136C28.3693 29.1136 29.0042 28.8763 29.5084 28.48C30.2826 28.8788 30.7779 29.4266 30.7779 30.5299V36.6265H27.3481V34.697C27.3481 33.4732 26.7601 32.8044 26.132 32.4018C26.2678 32.1035 26.3442 31.7726 26.3442 31.424C26.3442 30.4546 25.7576 29.62 24.9207 29.2547C25.1547 28.9019 25.4883 28.6653 25.8507 28.4797ZM23.9762 30.2687C24.6142 30.2687 25.1333 30.787 25.1333 31.4241C25.1333 32.0622 24.6142 32.5813 23.9762 32.5813C23.3391 32.5813 22.8208 32.0622 22.8208 31.4241C22.8207 30.787 23.3391 30.2687 23.9762 30.2687ZM22.5981 33.3473C22.9865 33.6268 23.4623 33.7922 23.9762 33.7922C24.4904 33.7922 24.9665 33.6269 25.3552 33.3473C25.8451 33.6208 26.1372 33.9872 26.1372 34.697V36.6265H21.8167V34.697C21.8167 33.9875 22.1086 33.6211 22.5981 33.3473ZM34.2065 36.6265H31.9888V30.5299C31.9888 28.8874 31.1496 28.0341 30.2998 27.5348C30.5198 27.1208 30.645 26.6489 30.645 26.1482C30.645 24.5132 29.3148 23.1829 27.6797 23.1829C26.0447 23.1829 24.7144 24.5131 24.7144 26.1482C24.7144 26.649 24.8397 27.121 25.0598 27.5351C24.6755 27.7616 24.2851 28.0668 23.9764 28.4937C23.6673 28.0668 23.2768 27.7616 22.8924 27.5351C23.1125 27.121 23.2378 26.6491 23.2378 26.1483C23.2378 24.5132 21.9075 23.183 20.2725 23.183C18.6384 23.183 17.309 24.5132 17.309 26.1483C17.309 26.649 17.4341 27.1209 17.6541 27.535C16.8043 28.0343 15.9652 28.8875 15.9652 30.5299V36.6265H13.7457C13.459 36.6265 13.2168 36.3842 13.2168 36.0975V26.0505L21.6195 17.6461L23.5557 19.5146C23.673 19.6278 23.8246 19.6844 23.9761 19.6844C24.1277 19.6844 24.2792 19.6278 24.3965 19.5146L26.3336 17.6452L34.7356 26.0488V36.0975C34.7356 36.3892 34.4982 36.6265 34.2065 36.6265Z" fill="#484848"/>
<path d="M33.0598 19.4843C32.8385 19.4843 32.6258 19.3626 32.5199 19.1509L32.5182 19.1474C32.3686 18.8483 32.4898 18.4846 32.789 18.3351C33.0878 18.1855 33.4517 18.3067 33.6013 18.6058C33.7508 18.905 33.6304 19.2704 33.3314 19.4199C33.244 19.4636 33.1511 19.4843 33.0598 19.4843Z" fill="#484848"/>
</svg>
