<svg width="47" height="47" viewBox="0 0 47 47" fill="none" xmlns="http://www.w3.org/2000/svg">
<circle cx="23.5" cy="23.5" r="23.5" fill="#E6F9FF"/>
<path fill-rule="evenodd" clip-rule="evenodd" d="M34.8624 26.7978L25.8626 17.7959L23.4976 20.0785L21.1344 17.7959L12.1328 26.7978V37.0971C12.1328 37.7184 12.6408 38.2281 13.2621 38.2316H13.2672H16.0921V31.5295C16.0921 29.8029 17.1751 29.1473 18.0743 28.7612C17.6779 28.339 17.4359 27.7726 17.4359 27.1479C17.4359 25.8452 18.4914 24.788 19.794 24.788C21.0983 24.788 22.1538 25.8452 22.1538 27.1479C22.1538 27.7726 21.9118 28.339 21.5153 28.7612C22.2464 29.0753 23.0977 29.5661 23.3929 30.6662C23.4272 30.6627 23.4632 30.6627 23.4975 30.6627C23.5336 30.6627 23.5696 30.6627 23.604 30.6662C23.8974 29.566 24.7487 29.0752 25.4798 28.7612C25.0834 28.339 24.8414 27.7726 24.8414 27.1479C24.8414 25.8452 25.8985 24.788 27.2012 24.788C28.5038 24.788 29.561 25.8452 29.561 27.1479C29.561 27.7726 29.3173 28.339 28.9226 28.7612C29.8219 29.1473 30.9048 29.8029 30.9048 31.5295V38.2316H33.728H33.7348C34.3561 38.2281 34.8624 37.7184 34.8624 37.0971L34.8624 26.7978Z" fill="white"/>
<path fill-rule="evenodd" clip-rule="evenodd" d="M28.558 15.1978C29.8452 13.9553 29.8829 11.8837 28.6404 10.5965C27.3961 9.30756 25.3264 9.27154 24.0392 10.5141L23.5003 11.0324L22.9631 10.5141C21.6743 9.27154 19.6045 9.30756 18.362 10.5965C17.1194 11.8837 17.1554 13.9553 18.4426 15.1978L18.7755 15.5188L21.1371 17.7963L23.5003 20.0789L25.8653 17.7963L28.2251 15.5188L28.558 15.1978Z" fill="#D7A5FF"/>
<path fill-rule="evenodd" clip-rule="evenodd" d="M37.9145 25.2086L28.2231 15.5186L25.8633 17.7961L34.8631 26.7979L35.5942 27.529C36.2327 28.1674 37.2761 28.1674 37.9146 27.529C38.553 26.8905 38.5513 25.8471 37.9145 25.2086Z" fill="#FFE6B4"/>
<path fill-rule="evenodd" clip-rule="evenodd" d="M12.1341 26.7979L21.1356 17.7961L18.7741 15.5186L9.08431 25.2086C8.76512 25.5261 8.60722 25.9449 8.60547 26.3637V26.374C8.60716 26.7928 8.76506 27.2115 9.08431 27.529C9.72106 28.1675 10.7662 28.1675 11.4047 27.529L12.1341 26.7979Z" fill="#FFE6B4"/>
<path fill-rule="evenodd" clip-rule="evenodd" d="M22.1554 27.148C22.1554 25.8453 21.0999 24.7881 19.7956 24.7881C18.493 24.7881 17.4375 25.8453 17.4375 27.148C17.4375 27.7727 17.6795 28.3391 18.0759 28.7613C18.505 29.2212 19.1177 29.5078 19.7956 29.5078C20.4752 29.5078 21.0879 29.2212 21.517 28.7613C21.9134 28.3391 22.1554 27.7727 22.1554 27.148Z" fill="#FFDCD5"/>
<path fill-rule="evenodd" clip-rule="evenodd" d="M23.3946 30.6667C23.0993 29.5666 22.2481 29.0758 21.517 28.7617C21.0879 29.2217 20.4753 29.5083 19.7956 29.5083C19.1177 29.5083 18.505 29.2217 18.076 28.7617C17.1766 29.1479 16.0938 29.8035 16.0938 31.5301V38.2321H20.7344V35.6971C20.7344 34.4065 21.5427 33.9191 22.2138 33.6291C21.9186 33.315 21.7384 32.8911 21.7384 32.4242C21.7384 31.4871 22.4696 30.7199 23.3946 30.6667Z" fill="#D7A5FF"/>
<path fill-rule="evenodd" clip-rule="evenodd" d="M29.5634 27.148C29.5634 25.8453 28.5062 24.7881 27.2035 24.7881C25.9009 24.7881 24.8438 25.8453 24.8438 27.148C24.8438 27.7727 25.0857 28.3391 25.4822 28.7613C25.913 29.2212 26.5239 29.5078 27.2036 29.5078C27.8832 29.5078 28.4942 29.2212 28.925 28.7613C29.3197 28.3391 29.5634 27.7727 29.5634 27.148Z" fill="#FFDCD5"/>
<path fill-rule="evenodd" clip-rule="evenodd" d="M30.9063 31.5301C30.9063 29.8035 29.8234 29.1479 28.9241 28.7617C28.4933 29.2217 27.8824 29.5083 27.2027 29.5083C26.5231 29.5083 25.9121 29.2217 25.4813 28.7617C24.7502 29.0758 23.899 29.5667 23.6055 30.6667C24.5288 30.72 25.2616 31.4871 25.2616 32.4242C25.2616 32.891 25.0797 33.315 24.7845 33.6291C25.4573 33.9191 26.2656 34.4065 26.2656 35.6971V38.2321H30.9063L30.9063 31.5301Z" fill="#A0C8FF"/>
<path fill-rule="evenodd" clip-rule="evenodd" d="M25.2617 32.424C25.2617 31.4869 24.5288 30.7197 23.6055 30.6648C23.5712 30.6631 23.5352 30.6631 23.4991 30.6631C23.4648 30.6631 23.4287 30.6631 23.3944 30.6648C22.4694 30.7197 21.7383 31.4869 21.7383 32.424C21.7383 32.8908 21.9185 33.3147 22.2137 33.6288C22.5363 33.972 22.9928 34.1866 23.4992 34.1866C24.0072 34.1866 24.4637 33.9721 24.7846 33.6288C25.0798 33.3147 25.2617 32.8908 25.2617 32.424Z" fill="#FFDCD5"/>
<path fill-rule="evenodd" clip-rule="evenodd" d="M26.2658 35.697C26.2658 34.4064 25.4575 33.9189 24.7847 33.6289C24.4638 33.9721 24.0073 34.1867 23.4993 34.1867C22.993 34.1867 22.5365 33.9722 22.2138 33.6289C21.5428 33.919 20.7344 34.4064 20.7344 35.697V38.2319H26.2658V35.697H26.2658Z" fill="#CE92FF"/>
<path d="M38.3438 24.7807L34.9337 21.3722C34.6973 21.1358 34.3139 21.1359 34.0775 21.3724C33.8411 21.6089 33.8412 21.9922 34.0777 22.2286L37.4871 25.6364C37.8905 26.041 37.8908 26.6981 37.4877 27.1012C37.0839 27.5049 36.4271 27.5049 36.0236 27.1013L26.7285 17.8042L28.2171 16.3675L30.2333 18.3824C30.3515 18.5006 30.5064 18.5597 30.6613 18.5597C30.8163 18.5597 30.9713 18.5004 31.0895 18.3822C31.3259 18.1457 31.3258 17.7623 31.0892 17.5259L29.0857 15.5238C30.5096 14.0364 30.517 11.6698 29.0751 10.1761C28.3611 9.43647 27.3989 9.01907 26.3657 9.00073C25.3353 8.9819 24.3568 9.36521 23.6186 10.0779L23.5001 10.1918L23.3824 10.0783C22.6427 9.36508 21.6666 8.98093 20.6335 9.00073C19.6002 9.01907 18.6384 9.43659 17.9255 10.1761C16.4831 11.6703 16.4898 14.037 17.9134 15.524L8.6569 24.7808C7.78112 25.6566 7.78112 27.0816 8.65635 27.9568C9.07829 28.3799 9.64177 28.6131 10.243 28.6135H10.2446C10.7116 28.6135 11.1558 28.4725 11.5293 28.2116V37.0974C11.5293 38.0568 12.3098 38.8373 13.2692 38.8373H33.73C34.6894 38.8373 35.4698 38.0568 35.4698 37.0974V28.2103C35.8545 28.4792 36.3049 28.6143 36.7556 28.6143C37.3308 28.6143 37.906 28.3953 38.3439 27.9574C39.2186 27.0828 39.2188 25.658 38.3438 24.7807ZM18.7971 11.0168C19.2856 10.51 19.9455 10.224 20.6552 10.2114C20.6715 10.2111 20.6877 10.211 20.704 10.211C21.3955 10.211 22.0467 10.4724 22.542 10.95L23.0792 11.4683C23.3135 11.6943 23.6845 11.6947 23.9193 11.4689L24.4589 10.9498C24.9651 10.4611 25.6346 10.1987 26.3444 10.2115C27.0543 10.2241 27.7147 10.5102 28.2041 11.0172C29.2181 12.0676 29.1879 13.7477 28.1369 14.7623L23.4996 19.2376L18.8624 14.7624C17.8118 13.7481 17.7823 12.068 18.7971 11.0168ZM10.2446 27.4027C10.2443 27.4027 10.2441 27.4027 10.2438 27.4027C9.96635 27.4025 9.70704 27.2957 9.51312 27.1013C9.10947 26.6976 9.10947 26.0407 9.51312 25.6371L18.7821 16.3678L20.2714 17.8051L11.7241 26.3541C11.7125 26.3649 11.7013 26.376 11.6906 26.3876L10.9772 27.1011C10.7828 27.2957 10.5226 27.4027 10.2446 27.4027ZM19.796 28.9027C18.8296 28.9027 18.0433 28.1157 18.0433 27.1482C18.0433 26.1808 18.8296 25.3938 19.796 25.3938C20.7634 25.3938 21.5504 26.1808 21.5504 27.1482C21.5504 28.1157 20.7633 28.9027 19.796 28.9027ZM17.9686 29.4802C18.4725 29.8764 19.1069 30.1136 19.796 30.1136C20.4858 30.1136 21.1208 29.8762 21.625 29.4797C21.9874 29.6653 22.3212 29.9019 22.5557 30.2548C21.7194 30.62 21.1333 31.4548 21.1333 32.4241C21.1333 32.7726 21.2095 33.1034 21.3451 33.4016C20.7174 33.8044 20.1293 34.4734 20.1293 35.6971V37.6266H16.6995V31.5299C16.6995 30.4268 17.1946 29.879 17.9686 29.4802ZM27.2032 28.9027C26.2358 28.9027 25.4488 28.1157 25.4488 27.1482C25.4488 26.1808 26.2358 25.3938 27.2032 25.3938C28.1705 25.3938 28.9576 26.1808 28.9576 27.1482C28.9576 28.1157 28.1705 28.9027 27.2032 28.9027ZM25.3741 29.4797C25.8784 29.8762 26.5134 30.1136 27.2032 30.1136C27.8928 30.1136 28.5276 29.8763 29.0318 29.48C29.8061 29.8788 30.3013 30.4266 30.3013 31.5299V37.6265H26.8716V35.697C26.8716 34.4732 26.2835 33.8044 25.6555 33.4018C25.7913 33.1035 25.8676 32.7726 25.8676 32.424C25.8676 31.4546 25.2811 30.62 24.4442 30.2547C24.6781 29.9019 25.0118 29.6653 25.3741 29.4797ZM23.4996 31.2687C24.1376 31.2687 24.6567 31.787 24.6567 32.4241C24.6567 33.0622 24.1376 33.5813 23.4996 33.5813C22.8626 33.5813 22.3442 33.0622 22.3442 32.4241C22.3442 31.787 22.8625 31.2687 23.4996 31.2687ZM22.1215 34.3473C22.5099 34.6268 22.9857 34.7922 23.4996 34.7922C24.0138 34.7922 24.4899 34.6269 24.8786 34.3473C25.3685 34.6208 25.6607 34.9872 25.6607 35.697V37.6265H21.3402V35.697C21.3402 34.9875 21.632 34.6211 22.1215 34.3473ZM33.73 37.6265H31.5122V31.5299C31.5122 29.8874 30.673 29.0341 29.8232 28.5348C30.0432 28.1208 30.1684 27.6489 30.1684 27.1482C30.1684 25.5132 28.8382 24.1829 27.2032 24.1829C25.5681 24.1829 24.2379 25.5131 24.2379 27.1482C24.2379 27.649 24.3631 28.121 24.5832 28.5351C24.1989 28.7616 23.8085 29.0668 23.4998 29.4937C23.1908 29.0668 22.8003 28.7616 22.4159 28.5351C22.6359 28.121 22.7612 27.6491 22.7612 27.1483C22.7612 25.5132 21.431 24.183 19.7959 24.183C18.1618 24.183 16.8324 25.5132 16.8324 27.1483C16.8324 27.649 16.9575 28.1209 17.1775 28.535C16.3277 29.0343 15.4886 29.8875 15.4886 31.5299V37.6265H13.2692C12.9824 37.6265 12.7402 37.3842 12.7402 37.0975V27.0505L21.1429 18.6461L23.0791 20.5146C23.1965 20.6278 23.348 20.6844 23.4995 20.6844C23.6511 20.6844 23.8027 20.6278 23.92 20.5146L25.8571 18.6452L34.259 27.0488V37.0975C34.259 37.3892 34.0217 37.6265 33.73 37.6265Z" fill="#484848"/>
<path d="M32.5823 20.4838C32.3609 20.4838 32.1482 20.3621 32.0423 20.1504L32.0406 20.147C31.8911 19.8479 32.0123 19.4841 32.3114 19.3346C32.6103 19.185 32.9742 19.3063 33.1237 19.6054C33.2733 19.9045 33.1529 20.2699 32.8538 20.4194C32.7665 20.4631 32.6736 20.4838 32.5823 20.4838Z" fill="#484848"/>
</svg>
