<svg width="97" height="111" viewBox="0 0 97 111" fill="none" xmlns="http://www.w3.org/2000/svg">
<ellipse cx="48.2857" cy="48" rx="48.2857" ry="48" fill="#E0F8FF"/>
<path d="M78.1529 64.4272C77.6879 62.1094 76.6998 60.1695 75.0432 59.6464L75.6826 59.3848C76.5472 57.2051 77.1793 51.8649 76.1984 49.2129C75.1595 46.4011 70.7783 44.6574 68.5114 48.4864C66.2445 52.3154 37.7996 50.6079 36.7025 47.7889C35.6054 44.9698 32.7936 41.8311 29.5604 42.2379C26.3272 42.6448 26.1601 43.7347 26.2545 47.1568C26.3272 50.063 26.7123 53.5287 25.1574 56.7329C23.6026 59.937 18.5312 66.1782 15.9591 73.3203C14.041 78.646 15.2762 83.1943 14.3825 85.6718C13.3072 88.6798 12.043 89.4572 12.043 89.4572C12.043 89.4572 20.8562 91.9348 26.7704 95.6039C31.5287 98.7116 35.826 102.473 39.5361 106.778C39.5361 106.778 39.8485 103.385 53.7767 98.7863C64.4136 95.2843 66.8185 87.016 68.5259 85.7082C70.2334 84.4004 74.7744 78.4425 76.1403 74.9841C77.8986 70.5521 78.6179 66.7449 78.1529 64.4272Z" fill="#FCE7CC"/>
<path d="M56.3317 67.4502L55.8086 67.6682C55.9886 67.6098 56.1635 67.5369 56.3317 67.4502Z" fill="#FCE7CC"/>
<path d="M26.8553 42.8267C26.3063 41.4685 25.8925 40.0594 25.6201 38.6199C24.3922 32.0809 27.6254 23.5656 37.0998 23.1006C44.5979 22.73 49.2261 30.032 49.2261 30.032C49.2261 30.032 53.8761 22.7663 61.3743 23.1006C70.8196 23.5656 74.0891 32.0881 72.8612 38.6199C71.6333 45.1517 67.1577 51.422 61.2943 55.7813C57.4407 58.5912 53.4095 61.1491 49.2261 63.4393C45.8786 61.5977 42.6267 59.5873 39.4829 57.4161" fill="#8A00FA"/>
<path d="M39.0566 76.5244C39.0566 76.5244 39.7395 74.2357 37.8069 68.4523C37.0294 66.12 39.4562 61.5282 39.3545 58.0915C39.2527 54.6549 37.7996 50.6079 36.7025 47.7889C35.6054 44.9698 32.7936 41.8311 29.5604 42.2379C26.3272 42.6448 26.1601 43.7347 26.2545 47.1568C26.3272 50.063 26.7123 53.5287 25.1574 56.7329C23.6026 59.937 18.5312 66.1782 15.9591 73.3203C14.041 78.646 15.2762 83.1943 14.3825 85.6718C13.3072 88.6798 12.043 89.4572 12.043 89.4572C12.043 89.4572 20.8562 91.9348 26.7704 95.6039C31.5287 98.7116 35.826 102.473 39.5361 106.778C39.5361 106.778 39.8485 103.385 53.7767 98.7863C64.4136 95.2843 66.8185 87.016 68.5259 85.7082C70.2334 84.4004 74.7744 78.4425 76.1403 74.9841C77.8986 70.5375 78.6179 66.7304 78.1529 64.4126C77.6225 61.7461 76.351 59.5737 74.2658 59.4938C71.9771 59.4139 70.9381 61.2739 70.1389 63.904C68.9328 67.8565 66.0484 72.5356 62.3066 74.4682" fill="#FCE7CC"/>
<path d="M79.5746 64.1444C79.309 62.3334 78.4951 60.6472 77.2423 59.3127C78.0851 56.6462 78.6082 51.5458 77.562 48.6831C77.1485 47.6355 76.4558 46.7213 75.5591 46.0398C74.6624 45.3584 73.5961 44.9357 72.4761 44.8178H72.3307C73.2328 42.9325 73.892 40.9403 74.2925 38.889C75.8909 30.4609 71.0229 22.1127 61.4686 21.6332C55.489 21.3353 51.2241 25.266 49.2479 27.6201C47.2789 25.3096 43.0067 21.3571 37.0343 21.6332C27.589 22.0909 22.5975 30.3519 24.1887 38.8745C24.4569 40.2644 24.8459 41.6283 25.3512 42.9505C24.7918 44.0186 24.7554 45.4426 24.799 47.2009C24.8789 50.1072 25.2132 53.2968 23.8472 56.1086C22.3941 59.1529 17.2137 65.5539 14.5836 72.8195C12.6509 78.2033 13.7262 83.1803 13.0142 85.1711C12.1786 87.5033 11.2704 88.2081 11.2777 88.2081C11.035 88.3574 10.8416 88.5747 10.7214 88.8331C10.6013 89.0915 10.5598 89.3795 10.602 89.6612C10.6409 89.9412 10.7606 90.2037 10.9465 90.4166C11.1323 90.6295 11.3762 90.7836 11.6482 90.8601C11.7354 90.8601 20.367 93.3304 25.9979 96.8469C30.6241 99.8839 34.8035 103.552 38.4148 107.745C38.5889 107.956 38.8189 108.114 39.0786 108.2C39.3383 108.286 39.617 108.297 39.8826 108.232C40.1483 108.167 40.3901 108.028 40.5803 107.831C40.7705 107.635 40.9014 107.388 40.9578 107.121C41.0813 106.859 42.6797 104.018 54.2321 100.218C65.2322 96.5854 68.2039 87.8666 69.4172 86.8785C71.3281 85.3818 76.0435 79.2205 77.4893 75.5441C79.3566 70.7997 80.0977 66.7527 79.5746 64.1444ZM37.1724 24.5394C43.7114 24.2125 47.9836 30.737 48.0272 30.8024C48.1585 31.007 48.3391 31.1755 48.5523 31.2923C48.7656 31.409 49.0047 31.4704 49.2479 31.4708C49.4922 31.4717 49.7328 31.4108 49.9475 31.294C50.1621 31.1772 50.3438 31.0081 50.4757 30.8024C50.5193 30.737 54.777 24.2633 61.3306 24.5394C69.0975 24.9173 72.694 31.7251 71.4516 38.3441C70.231 44.8832 65.7045 50.6957 60.4296 54.5901C56.8421 57.2093 53.1009 59.6113 49.2261 61.783C47.7729 60.9838 44.329 58.9858 40.6236 56.4428C40.1359 53.2977 39.2749 50.222 38.0588 47.2808C36.6565 43.6989 33.2344 40.3276 29.34 40.8144C28.8017 40.8801 28.2695 40.9895 27.7489 41.1414C27.4426 40.2317 27.1998 39.3019 27.0223 38.3587C25.8162 31.8051 29.311 24.939 37.1724 24.5394ZM74.7865 74.4543C73.4642 77.8183 69.0612 83.4419 67.6299 84.5608C65.4502 86.2464 63.5466 94.0642 53.3239 97.4282C44.8231 100.225 41.045 102.696 39.3811 104.418C35.8784 100.578 31.8956 97.2056 27.5309 94.3839C23.2442 91.7174 17.5915 89.6976 14.5618 88.7167C15.044 87.909 15.4432 87.0546 15.7533 86.1665C16.785 83.2602 15.4845 78.9444 17.3227 73.8149C19.8584 66.76 24.8063 60.7804 26.4629 57.3728C28.1194 53.9652 27.7997 50.5576 27.7053 47.121C27.6181 43.9459 27.6617 43.9387 29.7397 43.6771C32.2463 43.3647 34.5204 46.2055 35.3487 48.3198C36.3877 50.979 37.7827 54.8589 37.8772 58.1139C37.9716 61.3689 35.4359 65.9898 36.424 68.8888C38.0733 73.9457 37.6519 76.0382 37.6011 76.1254C37.5486 76.309 37.5328 76.5013 37.5546 76.691C37.5764 76.8808 37.6354 77.0644 37.7281 77.2314C37.8209 77.3984 37.9457 77.5455 38.0953 77.6642C38.2449 77.783 38.4164 77.8711 38.6001 77.9236C38.7838 77.9761 38.976 77.9919 39.1657 77.9701C39.3555 77.9483 39.5391 77.8893 39.7061 77.7965C39.8731 77.7038 40.0202 77.579 40.1389 77.4294C40.2577 77.2798 40.3458 77.1083 40.3983 76.9246C40.4782 76.6412 41.1249 74.0183 39.1341 67.9661C38.6764 66.6074 40.1949 62.8801 40.6236 59.9303C44.8667 62.7494 48.3978 64.6312 48.5649 64.7183C48.776 64.8316 49.0119 64.8908 49.2515 64.8908C49.4911 64.8908 49.7269 64.8316 49.9381 64.7183C53.9996 62.5387 60.6476 58.3391 64.1497 55.3384C63.5423 57.2484 62.6507 59.056 61.505 60.7005C57.8068 65.4522 55.4164 66.2732 55.4236 66.2732C55.2221 66.3034 55.0292 66.3756 54.8575 66.4851C54.6857 66.5946 54.5389 66.7391 54.4265 66.9091C54.3142 67.079 54.2388 67.2707 54.2054 67.4717C54.1719 67.6727 54.1811 67.8784 54.2323 68.0756C54.2835 68.2728 54.3757 68.457 54.5027 68.6163C54.6297 68.7756 54.7888 68.9064 54.9697 69.0002C55.1505 69.094 55.3491 69.1488 55.5525 69.1609C55.7558 69.173 55.9595 69.1422 56.1502 69.0705C56.4771 68.9833 59.427 68.046 63.7646 62.4878C65.4429 60.3081 66.4383 57.5108 67.3974 54.779C68.0294 52.6486 68.9303 50.6075 70.0784 48.7049C70.3155 48.3717 70.6349 48.1055 71.0054 47.9324C71.3759 47.7592 71.785 47.6849 72.1927 47.7168C72.7611 47.7847 73.3011 48.0029 73.757 48.349C74.2129 48.6951 74.5683 49.1566 74.7865 49.6858C75.5131 51.662 75.1643 55.8107 74.5322 58.0848C71.2118 57.7724 69.657 60.3662 68.7197 63.4905C67.6371 67.0433 65.007 71.4173 61.5849 73.1755C61.2536 73.3575 61.0062 73.6613 60.8953 74.0226C60.7843 74.3839 60.8184 74.7742 60.9905 75.1107C61.1625 75.4472 61.4589 75.7035 61.8168 75.8251C62.1746 75.9467 62.5658 75.9241 62.9072 75.7621C67.3901 73.4662 70.3545 68.1768 71.5243 64.3405C72.4906 61.1655 73.3915 60.9402 74.2125 60.962C75.8618 61.0274 76.5521 63.8683 76.7264 64.7111C77.1261 66.7237 76.4068 70.371 74.7865 74.4688V74.4543Z" fill="#000F8F"/>
<path d="M79.5746 64.1444C79.309 62.3334 78.4951 60.6472 77.2423 59.3127C78.0851 56.6462 78.6082 51.5458 77.562 48.6831C77.1485 47.6355 76.4558 46.7213 75.5591 46.0398C74.6624 45.3584 73.5961 44.9357 72.4761 44.8178H72.3307C73.2328 42.9325 73.892 40.9403 74.2925 38.889C75.8909 30.4609 71.0229 22.1127 61.4686 21.6332C55.489 21.3353 51.2241 25.266 49.2479 27.6201C47.2789 25.3096 43.0067 21.3571 37.0343 21.6332C27.589 22.0909 22.5975 30.3519 24.1887 38.8745C24.4569 40.2644 24.8459 41.6283 25.3512 42.9505C24.7918 44.0186 24.7554 45.4426 24.799 47.2009C24.8789 50.1072 25.2132 53.2968 23.8472 56.1086C22.3941 59.1529 17.2137 65.5539 14.5836 72.8195C12.6509 78.2033 13.7262 83.1803 13.0142 85.1711C12.1786 87.5033 11.2704 88.2081 11.2777 88.2081C11.035 88.3574 10.8416 88.5747 10.7214 88.8331C10.6013 89.0915 10.5598 89.3795 10.602 89.6612C10.6409 89.9412 10.7606 90.2037 10.9465 90.4166C11.1323 90.6295 11.3762 90.7836 11.6482 90.8601C11.7354 90.8601 20.367 93.3304 25.9979 96.8469C30.6241 99.8839 34.8035 103.552 38.4148 107.745C38.5889 107.956 38.8189 108.114 39.0786 108.2C39.3383 108.286 39.617 108.297 39.8826 108.232C40.1483 108.167 40.3901 108.028 40.5803 107.831C40.7705 107.635 40.9014 107.388 40.9578 107.121C41.0813 106.859 42.6797 104.018 54.2321 100.218C65.2322 96.5854 68.2039 87.8666 69.4172 86.8785C71.3281 85.3818 76.0435 79.2205 77.4893 75.5441C79.3566 70.7997 80.0977 66.7527 79.5746 64.1444ZM37.1724 24.5394C43.7114 24.2125 47.9836 30.737 48.0272 30.8024C48.1585 31.007 48.3391 31.1755 48.5523 31.2923C48.7656 31.409 49.0047 31.4704 49.2479 31.4708C49.4922 31.4717 49.7328 31.4108 49.9475 31.294C50.1621 31.1772 50.3438 31.0081 50.4757 30.8024C50.5193 30.737 54.777 24.2633 61.3306 24.5394C69.0975 24.9173 72.694 31.7251 71.4516 38.3441C70.231 44.8832 65.7045 50.6957 60.4296 54.5901C56.8421 57.2093 53.1009 59.6113 49.2261 61.783C47.7729 60.9838 44.329 58.9858 40.6236 56.4428C40.1359 53.2977 39.2749 50.222 38.0588 47.2808C36.6565 43.6989 33.2344 40.3276 29.34 40.8144C28.8017 40.8801 28.2695 40.9895 27.7489 41.1414C27.4426 40.2317 27.1998 39.3019 27.0223 38.3587C25.8162 31.8051 29.311 24.939 37.1724 24.5394ZM74.7865 74.4543C73.4642 77.8183 69.0612 83.4419 67.6299 84.5608C65.4502 86.2464 63.5466 94.0642 53.3239 97.4282C44.8231 100.225 41.045 102.696 39.3811 104.418C35.8784 100.578 31.8956 97.2056 27.5309 94.3839C23.2442 91.7174 17.5915 89.6976 14.5618 88.7167C15.044 87.909 15.4432 87.0546 15.7533 86.1665C16.785 83.2602 15.4845 78.9444 17.3227 73.8149C19.8584 66.76 24.8063 60.7804 26.4629 57.3728C28.1194 53.9652 27.7997 50.5576 27.7053 47.121C27.6181 43.9459 27.6617 43.9387 29.7397 43.6771C32.2463 43.3647 34.5204 46.2055 35.3487 48.3198C36.3877 50.979 37.7827 54.8589 37.8772 58.1139C37.9716 61.3689 35.4359 65.9898 36.424 68.8888C38.0733 73.9457 37.6519 76.0382 37.6011 76.1254C37.5486 76.309 37.5328 76.5013 37.5546 76.691C37.5764 76.8808 37.6354 77.0644 37.7281 77.2314C37.8209 77.3984 37.9457 77.5455 38.0953 77.6642C38.2449 77.783 38.4164 77.8711 38.6001 77.9236C38.7838 77.9761 38.976 77.9919 39.1657 77.9701C39.3555 77.9483 39.5391 77.8893 39.7061 77.7965C39.8731 77.7038 40.0202 77.579 40.1389 77.4294C40.2577 77.2798 40.3458 77.1083 40.3983 76.9246C40.4782 76.6412 41.1249 74.0183 39.1341 67.9661C38.6764 66.6074 40.1949 62.8801 40.6236 59.9303C44.8667 62.7494 48.3978 64.6312 48.5649 64.7183C48.776 64.8316 49.0119 64.8908 49.2515 64.8908C49.4911 64.8908 49.7269 64.8316 49.9381 64.7183C53.9996 62.5387 60.6476 58.3391 64.1497 55.3384C63.5423 57.2484 62.6507 59.056 61.505 60.7005C57.8068 65.4522 55.4164 66.2732 55.4236 66.2732C55.2221 66.3034 55.0292 66.3756 54.8575 66.4851C54.6857 66.5946 54.5389 66.7391 54.4265 66.9091C54.3142 67.079 54.2388 67.2707 54.2054 67.4717C54.1719 67.6727 54.1811 67.8784 54.2323 68.0756C54.2835 68.2728 54.3757 68.457 54.5027 68.6163C54.6297 68.7756 54.7888 68.9064 54.9697 69.0002C55.1505 69.094 55.3491 69.1488 55.5525 69.1609C55.7558 69.173 55.9595 69.1422 56.1502 69.0705C56.4771 68.9833 59.427 68.046 63.7646 62.4878C65.4429 60.3081 66.4383 57.5108 67.3974 54.779C68.0294 52.6486 68.9303 50.6075 70.0784 48.7049C70.3155 48.3717 70.6349 48.1055 71.0054 47.9324C71.3759 47.7592 71.785 47.6849 72.1927 47.7168C72.7611 47.7847 73.3011 48.0029 73.757 48.349C74.2129 48.6951 74.5683 49.1566 74.7865 49.6858C75.5131 51.662 75.1643 55.8107 74.5322 58.0848C71.2118 57.7724 69.657 60.3662 68.7197 63.4905C67.6371 67.0433 65.007 71.4173 61.5849 73.1755C61.2536 73.3575 61.0062 73.6613 60.8953 74.0226C60.7843 74.3839 60.8184 74.7742 60.9905 75.1107C61.1625 75.4472 61.4589 75.7035 61.8168 75.8251C62.1746 75.9467 62.5658 75.9241 62.9072 75.7621C67.3901 73.4662 70.3545 68.1768 71.5243 64.3405C72.4906 61.1655 73.3915 60.9402 74.2125 60.962C75.8618 61.0274 76.5521 63.8683 76.7264 64.7111C77.1261 66.7237 76.4068 70.371 74.7865 74.4688V74.4543Z" fill="black" fill-opacity="0.2"/>
<path d="M79.5746 64.1444C79.309 62.3334 78.4951 60.6472 77.2423 59.3127C78.0851 56.6462 78.6082 51.5458 77.562 48.6831C77.1485 47.6355 76.4558 46.7213 75.5591 46.0398C74.6624 45.3584 73.5961 44.9357 72.4761 44.8178H72.3307C73.2328 42.9325 73.892 40.9403 74.2925 38.889C75.8909 30.4609 71.0229 22.1127 61.4686 21.6332C55.489 21.3353 51.2241 25.266 49.2479 27.6201C47.2789 25.3096 43.0067 21.3571 37.0343 21.6332C27.589 22.0909 22.5975 30.3519 24.1887 38.8745C24.4569 40.2644 24.8459 41.6283 25.3512 42.9505C24.7918 44.0186 24.7554 45.4426 24.799 47.2009C24.8789 50.1072 25.2132 53.2968 23.8472 56.1086C22.3941 59.1529 17.2137 65.5539 14.5836 72.8195C12.6509 78.2033 13.7262 83.1803 13.0142 85.1711C12.1786 87.5033 11.2704 88.2081 11.2777 88.2081C11.035 88.3574 10.8416 88.5747 10.7214 88.8331C10.6013 89.0915 10.5598 89.3795 10.602 89.6612C10.6409 89.9412 10.7606 90.2037 10.9465 90.4166C11.1323 90.6295 11.3762 90.7836 11.6482 90.8601C11.7354 90.8601 20.367 93.3304 25.9979 96.8469C30.6241 99.8839 34.8035 103.552 38.4148 107.745C38.5889 107.956 38.8189 108.114 39.0786 108.2C39.3383 108.286 39.617 108.297 39.8826 108.232C40.1483 108.167 40.3901 108.028 40.5803 107.831C40.7705 107.635 40.9014 107.388 40.9578 107.121C41.0813 106.859 42.6797 104.018 54.2321 100.218C65.2322 96.5854 68.2039 87.8666 69.4172 86.8785C71.3281 85.3818 76.0435 79.2205 77.4893 75.5441C79.3566 70.7997 80.0977 66.7527 79.5746 64.1444ZM37.1724 24.5394C43.7114 24.2125 47.9836 30.737 48.0272 30.8024C48.1585 31.007 48.3391 31.1755 48.5523 31.2923C48.7656 31.409 49.0047 31.4704 49.2479 31.4708C49.4922 31.4717 49.7328 31.4108 49.9475 31.294C50.1621 31.1772 50.3438 31.0081 50.4757 30.8024C50.5193 30.737 54.777 24.2633 61.3306 24.5394C69.0975 24.9173 72.694 31.7251 71.4516 38.3441C70.231 44.8832 65.7045 50.6957 60.4296 54.5901C56.8421 57.2093 53.1009 59.6113 49.2261 61.783C47.7729 60.9838 44.329 58.9858 40.6236 56.4428C40.1359 53.2977 39.2749 50.222 38.0588 47.2808C36.6565 43.6989 33.2344 40.3276 29.34 40.8144C28.8017 40.8801 28.2695 40.9895 27.7489 41.1414C27.4426 40.2317 27.1998 39.3019 27.0223 38.3587C25.8162 31.8051 29.311 24.939 37.1724 24.5394ZM74.7865 74.4543C73.4642 77.8183 69.0612 83.4419 67.6299 84.5608C65.4502 86.2464 63.5466 94.0642 53.3239 97.4282C44.8231 100.225 41.045 102.696 39.3811 104.418C35.8784 100.578 31.8956 97.2056 27.5309 94.3839C23.2442 91.7174 17.5915 89.6976 14.5618 88.7167C15.044 87.909 15.4432 87.0546 15.7533 86.1665C16.785 83.2602 15.4845 78.9444 17.3227 73.8149C19.8584 66.76 24.8063 60.7804 26.4629 57.3728C28.1194 53.9652 27.7997 50.5576 27.7053 47.121C27.6181 43.9459 27.6617 43.9387 29.7397 43.6771C32.2463 43.3647 34.5204 46.2055 35.3487 48.3198C36.3877 50.979 37.7827 54.8589 37.8772 58.1139C37.9716 61.3689 35.4359 65.9898 36.424 68.8888C38.0733 73.9457 37.6519 76.0382 37.6011 76.1254C37.5486 76.309 37.5328 76.5013 37.5546 76.691C37.5764 76.8808 37.6354 77.0644 37.7281 77.2314C37.8209 77.3984 37.9457 77.5455 38.0953 77.6642C38.2449 77.783 38.4164 77.8711 38.6001 77.9236C38.7838 77.9761 38.976 77.9919 39.1657 77.9701C39.3555 77.9483 39.5391 77.8893 39.7061 77.7965C39.8731 77.7038 40.0202 77.579 40.1389 77.4294C40.2577 77.2798 40.3458 77.1083 40.3983 76.9246C40.4782 76.6412 41.1249 74.0183 39.1341 67.9661C38.6764 66.6074 40.1949 62.8801 40.6236 59.9303C44.8667 62.7494 48.3978 64.6312 48.5649 64.7183C48.776 64.8316 49.0119 64.8908 49.2515 64.8908C49.4911 64.8908 49.7269 64.8316 49.9381 64.7183C53.9996 62.5387 60.6476 58.3391 64.1497 55.3384C63.5423 57.2484 62.6507 59.056 61.505 60.7005C57.8068 65.4522 55.4164 66.2732 55.4236 66.2732C55.2221 66.3034 55.0292 66.3756 54.8575 66.4851C54.6857 66.5946 54.5389 66.7391 54.4265 66.9091C54.3142 67.079 54.2388 67.2707 54.2054 67.4717C54.1719 67.6727 54.1811 67.8784 54.2323 68.0756C54.2835 68.2728 54.3757 68.457 54.5027 68.6163C54.6297 68.7756 54.7888 68.9064 54.9697 69.0002C55.1505 69.094 55.3491 69.1488 55.5525 69.1609C55.7558 69.173 55.9595 69.1422 56.1502 69.0705C56.4771 68.9833 59.427 68.046 63.7646 62.4878C65.4429 60.3081 66.4383 57.5108 67.3974 54.779C68.0294 52.6486 68.9303 50.6075 70.0784 48.7049C70.3155 48.3717 70.6349 48.1055 71.0054 47.9324C71.3759 47.7592 71.785 47.6849 72.1927 47.7168C72.7611 47.7847 73.3011 48.0029 73.757 48.349C74.2129 48.6951 74.5683 49.1566 74.7865 49.6858C75.5131 51.662 75.1643 55.8107 74.5322 58.0848C71.2118 57.7724 69.657 60.3662 68.7197 63.4905C67.6371 67.0433 65.007 71.4173 61.5849 73.1755C61.2536 73.3575 61.0062 73.6613 60.8953 74.0226C60.7843 74.3839 60.8184 74.7742 60.9905 75.1107C61.1625 75.4472 61.4589 75.7035 61.8168 75.8251C62.1746 75.9467 62.5658 75.9241 62.9072 75.7621C67.3901 73.4662 70.3545 68.1768 71.5243 64.3405C72.4906 61.1655 73.3915 60.9402 74.2125 60.962C75.8618 61.0274 76.5521 63.8683 76.7264 64.7111C77.1261 66.7237 76.4068 70.371 74.7865 74.4688V74.4543Z" fill="black" fill-opacity="0.2"/>
<path d="M79.5746 64.1444C79.309 62.3334 78.4951 60.6472 77.2423 59.3127C78.0851 56.6462 78.6082 51.5458 77.562 48.6831C77.1485 47.6355 76.4558 46.7213 75.5591 46.0398C74.6624 45.3584 73.5961 44.9357 72.4761 44.8178H72.3307C73.2328 42.9325 73.892 40.9403 74.2925 38.889C75.8909 30.4609 71.0229 22.1127 61.4686 21.6332C55.489 21.3353 51.2241 25.266 49.2479 27.6201C47.2789 25.3096 43.0067 21.3571 37.0343 21.6332C27.589 22.0909 22.5975 30.3519 24.1887 38.8745C24.4569 40.2644 24.8459 41.6283 25.3512 42.9505C24.7918 44.0186 24.7554 45.4426 24.799 47.2009C24.8789 50.1072 25.2132 53.2968 23.8472 56.1086C22.3941 59.1529 17.2137 65.5539 14.5836 72.8195C12.6509 78.2033 13.7262 83.1803 13.0142 85.1711C12.1786 87.5033 11.2704 88.2081 11.2777 88.2081C11.035 88.3574 10.8416 88.5747 10.7214 88.8331C10.6013 89.0915 10.5598 89.3795 10.602 89.6612C10.6409 89.9412 10.7606 90.2037 10.9465 90.4166C11.1323 90.6295 11.3762 90.7836 11.6482 90.8601C11.7354 90.8601 20.367 93.3304 25.9979 96.8469C30.6241 99.8839 34.8035 103.552 38.4148 107.745C38.5889 107.956 38.8189 108.114 39.0786 108.2C39.3383 108.286 39.617 108.297 39.8826 108.232C40.1483 108.167 40.3901 108.028 40.5803 107.831C40.7705 107.635 40.9014 107.388 40.9578 107.121C41.0813 106.859 42.6797 104.018 54.2321 100.218C65.2322 96.5854 68.2039 87.8666 69.4172 86.8785C71.3281 85.3818 76.0435 79.2205 77.4893 75.5441C79.3566 70.7997 80.0977 66.7527 79.5746 64.1444ZM37.1724 24.5394C43.7114 24.2125 47.9836 30.737 48.0272 30.8024C48.1585 31.007 48.3391 31.1755 48.5523 31.2923C48.7656 31.409 49.0047 31.4704 49.2479 31.4708C49.4922 31.4717 49.7328 31.4108 49.9475 31.294C50.1621 31.1772 50.3438 31.0081 50.4757 30.8024C50.5193 30.737 54.777 24.2633 61.3306 24.5394C69.0975 24.9173 72.694 31.7251 71.4516 38.3441C70.231 44.8832 65.7045 50.6957 60.4296 54.5901C56.8421 57.2093 53.1009 59.6113 49.2261 61.783C47.7729 60.9838 44.329 58.9858 40.6236 56.4428C40.1359 53.2977 39.2749 50.222 38.0588 47.2808C36.6565 43.6989 33.2344 40.3276 29.34 40.8144C28.8017 40.8801 28.2695 40.9895 27.7489 41.1414C27.4426 40.2317 27.1998 39.3019 27.0223 38.3587C25.8162 31.8051 29.311 24.939 37.1724 24.5394ZM74.7865 74.4543C73.4642 77.8183 69.0612 83.4419 67.6299 84.5608C65.4502 86.2464 63.5466 94.0642 53.3239 97.4282C44.8231 100.225 41.045 102.696 39.3811 104.418C35.8784 100.578 31.8956 97.2056 27.5309 94.3839C23.2442 91.7174 17.5915 89.6976 14.5618 88.7167C15.044 87.909 15.4432 87.0546 15.7533 86.1665C16.785 83.2602 15.4845 78.9444 17.3227 73.8149C19.8584 66.76 24.8063 60.7804 26.4629 57.3728C28.1194 53.9652 27.7997 50.5576 27.7053 47.121C27.6181 43.9459 27.6617 43.9387 29.7397 43.6771C32.2463 43.3647 34.5204 46.2055 35.3487 48.3198C36.3877 50.979 37.7827 54.8589 37.8772 58.1139C37.9716 61.3689 35.4359 65.9898 36.424 68.8888C38.0733 73.9457 37.6519 76.0382 37.6011 76.1254C37.5486 76.309 37.5328 76.5013 37.5546 76.691C37.5764 76.8808 37.6354 77.0644 37.7281 77.2314C37.8209 77.3984 37.9457 77.5455 38.0953 77.6642C38.2449 77.783 38.4164 77.8711 38.6001 77.9236C38.7838 77.9761 38.976 77.9919 39.1657 77.9701C39.3555 77.9483 39.5391 77.8893 39.7061 77.7965C39.8731 77.7038 40.0202 77.579 40.1389 77.4294C40.2577 77.2798 40.3458 77.1083 40.3983 76.9246C40.4782 76.6412 41.1249 74.0183 39.1341 67.9661C38.6764 66.6074 40.1949 62.8801 40.6236 59.9303C44.8667 62.7494 48.3978 64.6312 48.5649 64.7183C48.776 64.8316 49.0119 64.8908 49.2515 64.8908C49.4911 64.8908 49.7269 64.8316 49.9381 64.7183C53.9996 62.5387 60.6476 58.3391 64.1497 55.3384C63.5423 57.2484 62.6507 59.056 61.505 60.7005C57.8068 65.4522 55.4164 66.2732 55.4236 66.2732C55.2221 66.3034 55.0292 66.3756 54.8575 66.4851C54.6857 66.5946 54.5389 66.7391 54.4265 66.9091C54.3142 67.079 54.2388 67.2707 54.2054 67.4717C54.1719 67.6727 54.1811 67.8784 54.2323 68.0756C54.2835 68.2728 54.3757 68.457 54.5027 68.6163C54.6297 68.7756 54.7888 68.9064 54.9697 69.0002C55.1505 69.094 55.3491 69.1488 55.5525 69.1609C55.7558 69.173 55.9595 69.1422 56.1502 69.0705C56.4771 68.9833 59.427 68.046 63.7646 62.4878C65.4429 60.3081 66.4383 57.5108 67.3974 54.779C68.0294 52.6486 68.9303 50.6075 70.0784 48.7049C70.3155 48.3717 70.6349 48.1055 71.0054 47.9324C71.3759 47.7592 71.785 47.6849 72.1927 47.7168C72.7611 47.7847 73.3011 48.0029 73.757 48.349C74.2129 48.6951 74.5683 49.1566 74.7865 49.6858C75.5131 51.662 75.1643 55.8107 74.5322 58.0848C71.2118 57.7724 69.657 60.3662 68.7197 63.4905C67.6371 67.0433 65.007 71.4173 61.5849 73.1755C61.2536 73.3575 61.0062 73.6613 60.8953 74.0226C60.7843 74.3839 60.8184 74.7742 60.9905 75.1107C61.1625 75.4472 61.4589 75.7035 61.8168 75.8251C62.1746 75.9467 62.5658 75.9241 62.9072 75.7621C67.3901 73.4662 70.3545 68.1768 71.5243 64.3405C72.4906 61.1655 73.3915 60.9402 74.2125 60.962C75.8618 61.0274 76.5521 63.8683 76.7264 64.7111C77.1261 66.7237 76.4068 70.371 74.7865 74.4688V74.4543Z" fill="black" fill-opacity="0.2"/>
<path d="M79.5746 64.1444C79.309 62.3334 78.4951 60.6472 77.2423 59.3127C78.0851 56.6462 78.6082 51.5458 77.562 48.6831C77.1485 47.6355 76.4558 46.7213 75.5591 46.0398C74.6624 45.3584 73.5961 44.9357 72.4761 44.8178H72.3307C73.2328 42.9325 73.892 40.9403 74.2925 38.889C75.8909 30.4609 71.0229 22.1127 61.4686 21.6332C55.489 21.3353 51.2241 25.266 49.2479 27.6201C47.2789 25.3096 43.0067 21.3571 37.0343 21.6332C27.589 22.0909 22.5975 30.3519 24.1887 38.8745C24.4569 40.2644 24.8459 41.6283 25.3512 42.9505C24.7918 44.0186 24.7554 45.4426 24.799 47.2009C24.8789 50.1072 25.2132 53.2968 23.8472 56.1086C22.3941 59.1529 17.2137 65.5539 14.5836 72.8195C12.6509 78.2033 13.7262 83.1803 13.0142 85.1711C12.1786 87.5033 11.2704 88.2081 11.2777 88.2081C11.035 88.3574 10.8416 88.5747 10.7214 88.8331C10.6013 89.0915 10.5598 89.3795 10.602 89.6612C10.6409 89.9412 10.7606 90.2037 10.9465 90.4166C11.1323 90.6295 11.3762 90.7836 11.6482 90.8601C11.7354 90.8601 20.367 93.3304 25.9979 96.8469C30.6241 99.8839 34.8035 103.552 38.4148 107.745C38.5889 107.956 38.8189 108.114 39.0786 108.2C39.3383 108.286 39.617 108.297 39.8826 108.232C40.1483 108.167 40.3901 108.028 40.5803 107.831C40.7705 107.635 40.9014 107.388 40.9578 107.121C41.0813 106.859 42.6797 104.018 54.2321 100.218C65.2322 96.5854 68.2039 87.8666 69.4172 86.8785C71.3281 85.3818 76.0435 79.2205 77.4893 75.5441C79.3566 70.7997 80.0977 66.7527 79.5746 64.1444ZM37.1724 24.5394C43.7114 24.2125 47.9836 30.737 48.0272 30.8024C48.1585 31.007 48.3391 31.1755 48.5523 31.2923C48.7656 31.409 49.0047 31.4704 49.2479 31.4708C49.4922 31.4717 49.7328 31.4108 49.9475 31.294C50.1621 31.1772 50.3438 31.0081 50.4757 30.8024C50.5193 30.737 54.777 24.2633 61.3306 24.5394C69.0975 24.9173 72.694 31.7251 71.4516 38.3441C70.231 44.8832 65.7045 50.6957 60.4296 54.5901C56.8421 57.2093 53.1009 59.6113 49.2261 61.783C47.7729 60.9838 44.329 58.9858 40.6236 56.4428C40.1359 53.2977 39.2749 50.222 38.0588 47.2808C36.6565 43.6989 33.2344 40.3276 29.34 40.8144C28.8017 40.8801 28.2695 40.9895 27.7489 41.1414C27.4426 40.2317 27.1998 39.3019 27.0223 38.3587C25.8162 31.8051 29.311 24.939 37.1724 24.5394ZM74.7865 74.4543C73.4642 77.8183 69.0612 83.4419 67.6299 84.5608C65.4502 86.2464 63.5466 94.0642 53.3239 97.4282C44.8231 100.225 41.045 102.696 39.3811 104.418C35.8784 100.578 31.8956 97.2056 27.5309 94.3839C23.2442 91.7174 17.5915 89.6976 14.5618 88.7167C15.044 87.909 15.4432 87.0546 15.7533 86.1665C16.785 83.2602 15.4845 78.9444 17.3227 73.8149C19.8584 66.76 24.8063 60.7804 26.4629 57.3728C28.1194 53.9652 27.7997 50.5576 27.7053 47.121C27.6181 43.9459 27.6617 43.9387 29.7397 43.6771C32.2463 43.3647 34.5204 46.2055 35.3487 48.3198C36.3877 50.979 37.7827 54.8589 37.8772 58.1139C37.9716 61.3689 35.4359 65.9898 36.424 68.8888C38.0733 73.9457 37.6519 76.0382 37.6011 76.1254C37.5486 76.309 37.5328 76.5013 37.5546 76.691C37.5764 76.8808 37.6354 77.0644 37.7281 77.2314C37.8209 77.3984 37.9457 77.5455 38.0953 77.6642C38.2449 77.783 38.4164 77.8711 38.6001 77.9236C38.7838 77.9761 38.976 77.9919 39.1657 77.9701C39.3555 77.9483 39.5391 77.8893 39.7061 77.7965C39.8731 77.7038 40.0202 77.579 40.1389 77.4294C40.2577 77.2798 40.3458 77.1083 40.3983 76.9246C40.4782 76.6412 41.1249 74.0183 39.1341 67.9661C38.6764 66.6074 40.1949 62.8801 40.6236 59.9303C44.8667 62.7494 48.3978 64.6312 48.5649 64.7183C48.776 64.8316 49.0119 64.8908 49.2515 64.8908C49.4911 64.8908 49.7269 64.8316 49.9381 64.7183C53.9996 62.5387 60.6476 58.3391 64.1497 55.3384C63.5423 57.2484 62.6507 59.056 61.505 60.7005C57.8068 65.4522 55.4164 66.2732 55.4236 66.2732C55.2221 66.3034 55.0292 66.3756 54.8575 66.4851C54.6857 66.5946 54.5389 66.7391 54.4265 66.9091C54.3142 67.079 54.2388 67.2707 54.2054 67.4717C54.1719 67.6727 54.1811 67.8784 54.2323 68.0756C54.2835 68.2728 54.3757 68.457 54.5027 68.6163C54.6297 68.7756 54.7888 68.9064 54.9697 69.0002C55.1505 69.094 55.3491 69.1488 55.5525 69.1609C55.7558 69.173 55.9595 69.1422 56.1502 69.0705C56.4771 68.9833 59.427 68.046 63.7646 62.4878C65.4429 60.3081 66.4383 57.5108 67.3974 54.779C68.0294 52.6486 68.9303 50.6075 70.0784 48.7049C70.3155 48.3717 70.6349 48.1055 71.0054 47.9324C71.3759 47.7592 71.785 47.6849 72.1927 47.7168C72.7611 47.7847 73.3011 48.0029 73.757 48.349C74.2129 48.6951 74.5683 49.1566 74.7865 49.6858C75.5131 51.662 75.1643 55.8107 74.5322 58.0848C71.2118 57.7724 69.657 60.3662 68.7197 63.4905C67.6371 67.0433 65.007 71.4173 61.5849 73.1755C61.2536 73.3575 61.0062 73.6613 60.8953 74.0226C60.7843 74.3839 60.8184 74.7742 60.9905 75.1107C61.1625 75.4472 61.4589 75.7035 61.8168 75.8251C62.1746 75.9467 62.5658 75.9241 62.9072 75.7621C67.3901 73.4662 70.3545 68.1768 71.5243 64.3405C72.4906 61.1655 73.3915 60.9402 74.2125 60.962C75.8618 61.0274 76.5521 63.8683 76.7264 64.7111C77.1261 66.7237 76.4068 70.371 74.7865 74.4688V74.4543Z" fill="black" fill-opacity="0.2"/>
<path d="M79.5746 64.1444C79.309 62.3334 78.4951 60.6472 77.2423 59.3127C78.0851 56.6462 78.6082 51.5458 77.562 48.6831C77.1485 47.6355 76.4558 46.7213 75.5591 46.0398C74.6624 45.3584 73.5961 44.9357 72.4761 44.8178H72.3307C73.2328 42.9325 73.892 40.9403 74.2925 38.889C75.8909 30.4609 71.0229 22.1127 61.4686 21.6332C55.489 21.3353 51.2241 25.266 49.2479 27.6201C47.2789 25.3096 43.0067 21.3571 37.0343 21.6332C27.589 22.0909 22.5975 30.3519 24.1887 38.8745C24.4569 40.2644 24.8459 41.6283 25.3512 42.9505C24.7918 44.0186 24.7554 45.4426 24.799 47.2009C24.8789 50.1072 25.2132 53.2968 23.8472 56.1086C22.3941 59.1529 17.2137 65.5539 14.5836 72.8195C12.6509 78.2033 13.7262 83.1803 13.0142 85.1711C12.1786 87.5033 11.2704 88.2081 11.2777 88.2081C11.035 88.3574 10.8416 88.5747 10.7214 88.8331C10.6013 89.0915 10.5598 89.3795 10.602 89.6612C10.6409 89.9412 10.7606 90.2037 10.9465 90.4166C11.1323 90.6295 11.3762 90.7836 11.6482 90.8601C11.7354 90.8601 20.367 93.3304 25.9979 96.8469C30.6241 99.8839 34.8035 103.552 38.4148 107.745C38.5889 107.956 38.8189 108.114 39.0786 108.2C39.3383 108.286 39.617 108.297 39.8826 108.232C40.1483 108.167 40.3901 108.028 40.5803 107.831C40.7705 107.635 40.9014 107.388 40.9578 107.121C41.0813 106.859 42.6797 104.018 54.2321 100.218C65.2322 96.5854 68.2039 87.8666 69.4172 86.8785C71.3281 85.3818 76.0435 79.2205 77.4893 75.5441C79.3566 70.7997 80.0977 66.7527 79.5746 64.1444ZM37.1724 24.5394C43.7114 24.2125 47.9836 30.737 48.0272 30.8024C48.1585 31.007 48.3391 31.1755 48.5523 31.2923C48.7656 31.409 49.0047 31.4704 49.2479 31.4708C49.4922 31.4717 49.7328 31.4108 49.9475 31.294C50.1621 31.1772 50.3438 31.0081 50.4757 30.8024C50.5193 30.737 54.777 24.2633 61.3306 24.5394C69.0975 24.9173 72.694 31.7251 71.4516 38.3441C70.231 44.8832 65.7045 50.6957 60.4296 54.5901C56.8421 57.2093 53.1009 59.6113 49.2261 61.783C47.7729 60.9838 44.329 58.9858 40.6236 56.4428C40.1359 53.2977 39.2749 50.222 38.0588 47.2808C36.6565 43.6989 33.2344 40.3276 29.34 40.8144C28.8017 40.8801 28.2695 40.9895 27.7489 41.1414C27.4426 40.2317 27.1998 39.3019 27.0223 38.3587C25.8162 31.8051 29.311 24.939 37.1724 24.5394ZM74.7865 74.4543C73.4642 77.8183 69.0612 83.4419 67.6299 84.5608C65.4502 86.2464 63.5466 94.0642 53.3239 97.4282C44.8231 100.225 41.045 102.696 39.3811 104.418C35.8784 100.578 31.8956 97.2056 27.5309 94.3839C23.2442 91.7174 17.5915 89.6976 14.5618 88.7167C15.044 87.909 15.4432 87.0546 15.7533 86.1665C16.785 83.2602 15.4845 78.9444 17.3227 73.8149C19.8584 66.76 24.8063 60.7804 26.4629 57.3728C28.1194 53.9652 27.7997 50.5576 27.7053 47.121C27.6181 43.9459 27.6617 43.9387 29.7397 43.6771C32.2463 43.3647 34.5204 46.2055 35.3487 48.3198C36.3877 50.979 37.7827 54.8589 37.8772 58.1139C37.9716 61.3689 35.4359 65.9898 36.424 68.8888C38.0733 73.9457 37.6519 76.0382 37.6011 76.1254C37.5486 76.309 37.5328 76.5013 37.5546 76.691C37.5764 76.8808 37.6354 77.0644 37.7281 77.2314C37.8209 77.3984 37.9457 77.5455 38.0953 77.6642C38.2449 77.783 38.4164 77.8711 38.6001 77.9236C38.7838 77.9761 38.976 77.9919 39.1657 77.9701C39.3555 77.9483 39.5391 77.8893 39.7061 77.7965C39.8731 77.7038 40.0202 77.579 40.1389 77.4294C40.2577 77.2798 40.3458 77.1083 40.3983 76.9246C40.4782 76.6412 41.1249 74.0183 39.1341 67.9661C38.6764 66.6074 40.1949 62.8801 40.6236 59.9303C44.8667 62.7494 48.3978 64.6312 48.5649 64.7183C48.776 64.8316 49.0119 64.8908 49.2515 64.8908C49.4911 64.8908 49.7269 64.8316 49.9381 64.7183C53.9996 62.5387 60.6476 58.3391 64.1497 55.3384C63.5423 57.2484 62.6507 59.056 61.505 60.7005C57.8068 65.4522 55.4164 66.2732 55.4236 66.2732C55.2221 66.3034 55.0292 66.3756 54.8575 66.4851C54.6857 66.5946 54.5389 66.7391 54.4265 66.9091C54.3142 67.079 54.2388 67.2707 54.2054 67.4717C54.1719 67.6727 54.1811 67.8784 54.2323 68.0756C54.2835 68.2728 54.3757 68.457 54.5027 68.6163C54.6297 68.7756 54.7888 68.9064 54.9697 69.0002C55.1505 69.094 55.3491 69.1488 55.5525 69.1609C55.7558 69.173 55.9595 69.1422 56.1502 69.0705C56.4771 68.9833 59.427 68.046 63.7646 62.4878C65.4429 60.3081 66.4383 57.5108 67.3974 54.779C68.0294 52.6486 68.9303 50.6075 70.0784 48.7049C70.3155 48.3717 70.6349 48.1055 71.0054 47.9324C71.3759 47.7592 71.785 47.6849 72.1927 47.7168C72.7611 47.7847 73.3011 48.0029 73.757 48.349C74.2129 48.6951 74.5683 49.1566 74.7865 49.6858C75.5131 51.662 75.1643 55.8107 74.5322 58.0848C71.2118 57.7724 69.657 60.3662 68.7197 63.4905C67.6371 67.0433 65.007 71.4173 61.5849 73.1755C61.2536 73.3575 61.0062 73.6613 60.8953 74.0226C60.7843 74.3839 60.8184 74.7742 60.9905 75.1107C61.1625 75.4472 61.4589 75.7035 61.8168 75.8251C62.1746 75.9467 62.5658 75.9241 62.9072 75.7621C67.3901 73.4662 70.3545 68.1768 71.5243 64.3405C72.4906 61.1655 73.3915 60.9402 74.2125 60.962C75.8618 61.0274 76.5521 63.8683 76.7264 64.7111C77.1261 66.7237 76.4068 70.371 74.7865 74.4688V74.4543Z" fill="black" fill-opacity="0.2"/>
<path d="M78.5631 42.384C78.2463 42.1651 78.0294 41.8295 77.9599 41.4508C77.8904 41.0721 77.9741 40.6813 78.1926 40.3642C79.0331 39.1494 79.4834 37.7073 79.4834 36.2301C79.4834 34.7528 79.0331 33.3107 78.1926 32.0959C77.9729 31.7789 77.8881 31.3877 77.9569 31.0082C78.0257 30.6287 78.2425 30.2921 78.5595 30.0724C78.8765 29.8528 79.2677 29.768 79.6472 29.8368C80.0267 29.9056 80.3633 30.1224 80.5829 30.4393C81.761 32.1406 82.3921 34.1607 82.3921 36.2301C82.3921 38.2994 81.761 40.3195 80.5829 42.0208C80.3629 42.3363 80.0267 42.5518 79.6481 42.6199C79.2695 42.688 78.8793 42.6032 78.5631 42.384Z" fill="#000F8F"/>
<path d="M78.5631 42.384C78.2463 42.1651 78.0294 41.8295 77.9599 41.4508C77.8904 41.0721 77.9741 40.6813 78.1926 40.3642C79.0331 39.1494 79.4834 37.7073 79.4834 36.2301C79.4834 34.7528 79.0331 33.3107 78.1926 32.0959C77.9729 31.7789 77.8881 31.3877 77.9569 31.0082C78.0257 30.6287 78.2425 30.2921 78.5595 30.0724C78.8765 29.8528 79.2677 29.768 79.6472 29.8368C80.0267 29.9056 80.3633 30.1224 80.5829 30.4393C81.761 32.1406 82.3921 34.1607 82.3921 36.2301C82.3921 38.2994 81.761 40.3195 80.5829 42.0208C80.3629 42.3363 80.0267 42.5518 79.6481 42.6199C79.2695 42.688 78.8793 42.6032 78.5631 42.384Z" fill="black" fill-opacity="0.2"/>
<path d="M78.5631 42.384C78.2463 42.1651 78.0294 41.8295 77.9599 41.4508C77.8904 41.0721 77.9741 40.6813 78.1926 40.3642C79.0331 39.1494 79.4834 37.7073 79.4834 36.2301C79.4834 34.7528 79.0331 33.3107 78.1926 32.0959C77.9729 31.7789 77.8881 31.3877 77.9569 31.0082C78.0257 30.6287 78.2425 30.2921 78.5595 30.0724C78.8765 29.8528 79.2677 29.768 79.6472 29.8368C80.0267 29.9056 80.3633 30.1224 80.5829 30.4393C81.761 32.1406 82.3921 34.1607 82.3921 36.2301C82.3921 38.2994 81.761 40.3195 80.5829 42.0208C80.3629 42.3363 80.0267 42.5518 79.6481 42.6199C79.2695 42.688 78.8793 42.6032 78.5631 42.384Z" fill="black" fill-opacity="0.2"/>
<path d="M78.5631 42.384C78.2463 42.1651 78.0294 41.8295 77.9599 41.4508C77.8904 41.0721 77.9741 40.6813 78.1926 40.3642C79.0331 39.1494 79.4834 37.7073 79.4834 36.2301C79.4834 34.7528 79.0331 33.3107 78.1926 32.0959C77.9729 31.7789 77.8881 31.3877 77.9569 31.0082C78.0257 30.6287 78.2425 30.2921 78.5595 30.0724C78.8765 29.8528 79.2677 29.768 79.6472 29.8368C80.0267 29.9056 80.3633 30.1224 80.5829 30.4393C81.761 32.1406 82.3921 34.1607 82.3921 36.2301C82.3921 38.2994 81.761 40.3195 80.5829 42.0208C80.3629 42.3363 80.0267 42.5518 79.6481 42.6199C79.2695 42.688 78.8793 42.6032 78.5631 42.384Z" fill="black" fill-opacity="0.2"/>
<path d="M78.5631 42.384C78.2463 42.1651 78.0294 41.8295 77.9599 41.4508C77.8904 41.0721 77.9741 40.6813 78.1926 40.3642C79.0331 39.1494 79.4834 37.7073 79.4834 36.2301C79.4834 34.7528 79.0331 33.3107 78.1926 32.0959C77.9729 31.7789 77.8881 31.3877 77.9569 31.0082C78.0257 30.6287 78.2425 30.2921 78.5595 30.0724C78.8765 29.8528 79.2677 29.768 79.6472 29.8368C80.0267 29.9056 80.3633 30.1224 80.5829 30.4393C81.761 32.1406 82.3921 34.1607 82.3921 36.2301C82.3921 38.2994 81.761 40.3195 80.5829 42.0208C80.3629 42.3363 80.0267 42.5518 79.6481 42.6199C79.2695 42.688 78.8793 42.6032 78.5631 42.384Z" fill="black" fill-opacity="0.2"/>
<path d="M78.5631 42.384C78.2463 42.1651 78.0294 41.8295 77.9599 41.4508C77.8904 41.0721 77.9741 40.6813 78.1926 40.3642C79.0331 39.1494 79.4834 37.7073 79.4834 36.2301C79.4834 34.7528 79.0331 33.3107 78.1926 32.0959C77.9729 31.7789 77.8881 31.3877 77.9569 31.0082C78.0257 30.6287 78.2425 30.2921 78.5595 30.0724C78.8765 29.8528 79.2677 29.768 79.6472 29.8368C80.0267 29.9056 80.3633 30.1224 80.5829 30.4393C81.761 32.1406 82.3921 34.1607 82.3921 36.2301C82.3921 38.2994 81.761 40.3195 80.5829 42.0208C80.3629 42.3363 80.0267 42.5518 79.6481 42.6199C79.2695 42.688 78.8793 42.6032 78.5631 42.384Z" fill="black" fill-opacity="0.2"/>
<path d="M83.9984 44.8832C83.8337 44.7865 83.6897 44.6582 83.5746 44.5057C83.4595 44.3533 83.3756 44.1797 83.3277 43.9948C83.2798 43.8099 83.2688 43.6173 83.2954 43.4282C83.3219 43.239 83.3855 43.057 83.4825 42.8924C84.6685 40.8803 85.294 38.5873 85.294 36.2516C85.294 33.916 84.6685 31.623 83.4825 29.6109C83.3243 29.2811 83.2963 28.9038 83.4041 28.5542C83.5119 28.2047 83.7475 27.9087 84.0639 27.7253C84.3804 27.5418 84.7543 27.4845 85.1112 27.5646C85.4681 27.6448 85.7816 27.8566 85.9891 28.1577C87.4411 30.6185 88.207 33.4235 88.207 36.2807C88.207 39.1379 87.4411 41.9429 85.9891 44.4037C85.7878 44.7302 85.4655 44.9638 85.0926 45.0537C84.7196 45.1435 84.3263 45.0822 83.9984 44.8832Z" fill="#000F8F"/>
<path d="M83.9984 44.8832C83.8337 44.7865 83.6897 44.6582 83.5746 44.5057C83.4595 44.3533 83.3756 44.1797 83.3277 43.9948C83.2798 43.8099 83.2688 43.6173 83.2954 43.4282C83.3219 43.239 83.3855 43.057 83.4825 42.8924C84.6685 40.8803 85.294 38.5873 85.294 36.2516C85.294 33.916 84.6685 31.623 83.4825 29.6109C83.3243 29.2811 83.2963 28.9038 83.4041 28.5542C83.5119 28.2047 83.7475 27.9087 84.0639 27.7253C84.3804 27.5418 84.7543 27.4845 85.1112 27.5646C85.4681 27.6448 85.7816 27.8566 85.9891 28.1577C87.4411 30.6185 88.207 33.4235 88.207 36.2807C88.207 39.1379 87.4411 41.9429 85.9891 44.4037C85.7878 44.7302 85.4655 44.9638 85.0926 45.0537C84.7196 45.1435 84.3263 45.0822 83.9984 44.8832Z" fill="black" fill-opacity="0.2"/>
<path d="M83.9984 44.8832C83.8337 44.7865 83.6897 44.6582 83.5746 44.5057C83.4595 44.3533 83.3756 44.1797 83.3277 43.9948C83.2798 43.8099 83.2688 43.6173 83.2954 43.4282C83.3219 43.239 83.3855 43.057 83.4825 42.8924C84.6685 40.8803 85.294 38.5873 85.294 36.2516C85.294 33.916 84.6685 31.623 83.4825 29.6109C83.3243 29.2811 83.2963 28.9038 83.4041 28.5542C83.5119 28.2047 83.7475 27.9087 84.0639 27.7253C84.3804 27.5418 84.7543 27.4845 85.1112 27.5646C85.4681 27.6448 85.7816 27.8566 85.9891 28.1577C87.4411 30.6185 88.207 33.4235 88.207 36.2807C88.207 39.1379 87.4411 41.9429 85.9891 44.4037C85.7878 44.7302 85.4655 44.9638 85.0926 45.0537C84.7196 45.1435 84.3263 45.0822 83.9984 44.8832Z" fill="black" fill-opacity="0.2"/>
<path d="M83.9984 44.8832C83.8337 44.7865 83.6897 44.6582 83.5746 44.5057C83.4595 44.3533 83.3756 44.1797 83.3277 43.9948C83.2798 43.8099 83.2688 43.6173 83.2954 43.4282C83.3219 43.239 83.3855 43.057 83.4825 42.8924C84.6685 40.8803 85.294 38.5873 85.294 36.2516C85.294 33.916 84.6685 31.623 83.4825 29.6109C83.3243 29.2811 83.2963 28.9038 83.4041 28.5542C83.5119 28.2047 83.7475 27.9087 84.0639 27.7253C84.3804 27.5418 84.7543 27.4845 85.1112 27.5646C85.4681 27.6448 85.7816 27.8566 85.9891 28.1577C87.4411 30.6185 88.207 33.4235 88.207 36.2807C88.207 39.1379 87.4411 41.9429 85.9891 44.4037C85.7878 44.7302 85.4655 44.9638 85.0926 45.0537C84.7196 45.1435 84.3263 45.0822 83.9984 44.8832Z" fill="black" fill-opacity="0.2"/>
<path d="M83.9984 44.8832C83.8337 44.7865 83.6897 44.6582 83.5746 44.5057C83.4595 44.3533 83.3756 44.1797 83.3277 43.9948C83.2798 43.8099 83.2688 43.6173 83.2954 43.4282C83.3219 43.239 83.3855 43.057 83.4825 42.8924C84.6685 40.8803 85.294 38.5873 85.294 36.2516C85.294 33.916 84.6685 31.623 83.4825 29.6109C83.3243 29.2811 83.2963 28.9038 83.4041 28.5542C83.5119 28.2047 83.7475 27.9087 84.0639 27.7253C84.3804 27.5418 84.7543 27.4845 85.1112 27.5646C85.4681 27.6448 85.7816 27.8566 85.9891 28.1577C87.4411 30.6185 88.207 33.4235 88.207 36.2807C88.207 39.1379 87.4411 41.9429 85.9891 44.4037C85.7878 44.7302 85.4655 44.9638 85.0926 45.0537C84.7196 45.1435 84.3263 45.0822 83.9984 44.8832Z" fill="black" fill-opacity="0.2"/>
<path d="M83.9984 44.8832C83.8337 44.7865 83.6897 44.6582 83.5746 44.5057C83.4595 44.3533 83.3756 44.1797 83.3277 43.9948C83.2798 43.8099 83.2688 43.6173 83.2954 43.4282C83.3219 43.239 83.3855 43.057 83.4825 42.8924C84.6685 40.8803 85.294 38.5873 85.294 36.2516C85.294 33.916 84.6685 31.623 83.4825 29.6109C83.3243 29.2811 83.2963 28.9038 83.4041 28.5542C83.5119 28.2047 83.7475 27.9087 84.0639 27.7253C84.3804 27.5418 84.7543 27.4845 85.1112 27.5646C85.4681 27.6448 85.7816 27.8566 85.9891 28.1577C87.4411 30.6185 88.207 33.4235 88.207 36.2807C88.207 39.1379 87.4411 41.9429 85.9891 44.4037C85.7878 44.7302 85.4655 44.9638 85.0926 45.0537C84.7196 45.1435 84.3263 45.0822 83.9984 44.8832Z" fill="black" fill-opacity="0.2"/>
<path d="M17.981 42.0208C16.803 40.3195 16.1719 38.2994 16.1719 36.23C16.1719 34.1607 16.803 32.1406 17.981 30.4393C18.2007 30.1224 18.5373 29.9056 18.9168 29.8368C19.2963 29.768 19.6875 29.8528 20.0045 30.0724C20.3215 30.2921 20.5382 30.6287 20.6071 31.0082C20.6759 31.3877 20.5911 31.7789 20.3714 32.0959C19.5309 33.3107 19.0806 34.7528 19.0806 36.23C19.0806 37.7073 19.5309 39.1494 20.3714 40.3642C20.5911 40.6812 20.6759 41.0724 20.6071 41.4519C20.5382 41.8314 20.3215 42.168 20.0045 42.3877C19.6875 42.6073 19.2963 42.6921 18.9168 42.6233C18.5373 42.5545 18.2007 42.3377 17.981 42.0208Z" fill="#000F8F"/>
<path d="M17.981 42.0208C16.803 40.3195 16.1719 38.2994 16.1719 36.23C16.1719 34.1607 16.803 32.1406 17.981 30.4393C18.2007 30.1224 18.5373 29.9056 18.9168 29.8368C19.2963 29.768 19.6875 29.8528 20.0045 30.0724C20.3215 30.2921 20.5382 30.6287 20.6071 31.0082C20.6759 31.3877 20.5911 31.7789 20.3714 32.0959C19.5309 33.3107 19.0806 34.7528 19.0806 36.23C19.0806 37.7073 19.5309 39.1494 20.3714 40.3642C20.5911 40.6812 20.6759 41.0724 20.6071 41.4519C20.5382 41.8314 20.3215 42.168 20.0045 42.3877C19.6875 42.6073 19.2963 42.6921 18.9168 42.6233C18.5373 42.5545 18.2007 42.3377 17.981 42.0208Z" fill="black" fill-opacity="0.2"/>
<path d="M17.981 42.0208C16.803 40.3195 16.1719 38.2994 16.1719 36.23C16.1719 34.1607 16.803 32.1406 17.981 30.4393C18.2007 30.1224 18.5373 29.9056 18.9168 29.8368C19.2963 29.768 19.6875 29.8528 20.0045 30.0724C20.3215 30.2921 20.5382 30.6287 20.6071 31.0082C20.6759 31.3877 20.5911 31.7789 20.3714 32.0959C19.5309 33.3107 19.0806 34.7528 19.0806 36.23C19.0806 37.7073 19.5309 39.1494 20.3714 40.3642C20.5911 40.6812 20.6759 41.0724 20.6071 41.4519C20.5382 41.8314 20.3215 42.168 20.0045 42.3877C19.6875 42.6073 19.2963 42.6921 18.9168 42.6233C18.5373 42.5545 18.2007 42.3377 17.981 42.0208Z" fill="black" fill-opacity="0.2"/>
<path d="M17.981 42.0208C16.803 40.3195 16.1719 38.2994 16.1719 36.23C16.1719 34.1607 16.803 32.1406 17.981 30.4393C18.2007 30.1224 18.5373 29.9056 18.9168 29.8368C19.2963 29.768 19.6875 29.8528 20.0045 30.0724C20.3215 30.2921 20.5382 30.6287 20.6071 31.0082C20.6759 31.3877 20.5911 31.7789 20.3714 32.0959C19.5309 33.3107 19.0806 34.7528 19.0806 36.23C19.0806 37.7073 19.5309 39.1494 20.3714 40.3642C20.5911 40.6812 20.6759 41.0724 20.6071 41.4519C20.5382 41.8314 20.3215 42.168 20.0045 42.3877C19.6875 42.6073 19.2963 42.6921 18.9168 42.6233C18.5373 42.5545 18.2007 42.3377 17.981 42.0208Z" fill="black" fill-opacity="0.2"/>
<path d="M17.981 42.0208C16.803 40.3195 16.1719 38.2994 16.1719 36.23C16.1719 34.1607 16.803 32.1406 17.981 30.4393C18.2007 30.1224 18.5373 29.9056 18.9168 29.8368C19.2963 29.768 19.6875 29.8528 20.0045 30.0724C20.3215 30.2921 20.5382 30.6287 20.6071 31.0082C20.6759 31.3877 20.5911 31.7789 20.3714 32.0959C19.5309 33.3107 19.0806 34.7528 19.0806 36.23C19.0806 37.7073 19.5309 39.1494 20.3714 40.3642C20.5911 40.6812 20.6759 41.0724 20.6071 41.4519C20.5382 41.8314 20.3215 42.168 20.0045 42.3877C19.6875 42.6073 19.2963 42.6921 18.9168 42.6233C18.5373 42.5545 18.2007 42.3377 17.981 42.0208Z" fill="black" fill-opacity="0.2"/>
<path d="M17.981 42.0208C16.803 40.3195 16.1719 38.2994 16.1719 36.23C16.1719 34.1607 16.803 32.1406 17.981 30.4393C18.2007 30.1224 18.5373 29.9056 18.9168 29.8368C19.2963 29.768 19.6875 29.8528 20.0045 30.0724C20.3215 30.2921 20.5382 30.6287 20.6071 31.0082C20.6759 31.3877 20.5911 31.7789 20.3714 32.0959C19.5309 33.3107 19.0806 34.7528 19.0806 36.23C19.0806 37.7073 19.5309 39.1494 20.3714 40.3642C20.5911 40.6812 20.6759 41.0724 20.6071 41.4519C20.5382 41.8314 20.3215 42.168 20.0045 42.3877C19.6875 42.6073 19.2963 42.6921 18.9168 42.6233C18.5373 42.5545 18.2007 42.3377 17.981 42.0208Z" fill="black" fill-opacity="0.2"/>
<path d="M12.5772 44.3532C11.1252 41.8925 10.3594 39.0875 10.3594 36.2303C10.3594 33.3731 11.1252 30.5681 12.5772 28.1073C12.7786 27.7759 13.1034 27.538 13.4801 27.446C13.6667 27.4005 13.8604 27.3921 14.0501 27.4214C14.2399 27.4508 14.422 27.5172 14.5862 27.6169C14.7503 27.7166 14.8931 27.8476 15.0066 28.0025C15.1201 28.1575 15.2019 28.3332 15.2474 28.5198C15.293 28.7063 15.3013 28.9 15.272 29.0898C15.2427 29.2796 15.1763 29.4617 15.0766 29.6258C13.8906 31.6379 13.2651 33.931 13.2651 36.2666C13.2651 38.6022 13.8906 40.8952 15.0766 42.9074C15.2348 43.2372 15.2628 43.6145 15.155 43.964C15.0472 44.3135 14.8116 44.6095 14.4952 44.793C14.1787 44.9764 13.8048 45.0338 13.4479 44.9536C13.091 44.8734 12.7775 44.6616 12.5699 44.3605L12.5772 44.3532Z" fill="#000F8F"/>
<path d="M12.5772 44.3532C11.1252 41.8925 10.3594 39.0875 10.3594 36.2303C10.3594 33.3731 11.1252 30.5681 12.5772 28.1073C12.7786 27.7759 13.1034 27.538 13.4801 27.446C13.6667 27.4005 13.8604 27.3921 14.0501 27.4214C14.2399 27.4508 14.422 27.5172 14.5862 27.6169C14.7503 27.7166 14.8931 27.8476 15.0066 28.0025C15.1201 28.1575 15.2019 28.3332 15.2474 28.5198C15.293 28.7063 15.3013 28.9 15.272 29.0898C15.2427 29.2796 15.1763 29.4617 15.0766 29.6258C13.8906 31.6379 13.2651 33.931 13.2651 36.2666C13.2651 38.6022 13.8906 40.8952 15.0766 42.9074C15.2348 43.2372 15.2628 43.6145 15.155 43.964C15.0472 44.3135 14.8116 44.6095 14.4952 44.793C14.1787 44.9764 13.8048 45.0338 13.4479 44.9536C13.091 44.8734 12.7775 44.6616 12.5699 44.3605L12.5772 44.3532Z" fill="black" fill-opacity="0.2"/>
<path d="M12.5772 44.3532C11.1252 41.8925 10.3594 39.0875 10.3594 36.2303C10.3594 33.3731 11.1252 30.5681 12.5772 28.1073C12.7786 27.7759 13.1034 27.538 13.4801 27.446C13.6667 27.4005 13.8604 27.3921 14.0501 27.4214C14.2399 27.4508 14.422 27.5172 14.5862 27.6169C14.7503 27.7166 14.8931 27.8476 15.0066 28.0025C15.1201 28.1575 15.2019 28.3332 15.2474 28.5198C15.293 28.7063 15.3013 28.9 15.272 29.0898C15.2427 29.2796 15.1763 29.4617 15.0766 29.6258C13.8906 31.6379 13.2651 33.931 13.2651 36.2666C13.2651 38.6022 13.8906 40.8952 15.0766 42.9074C15.2348 43.2372 15.2628 43.6145 15.155 43.964C15.0472 44.3135 14.8116 44.6095 14.4952 44.793C14.1787 44.9764 13.8048 45.0338 13.4479 44.9536C13.091 44.8734 12.7775 44.6616 12.5699 44.3605L12.5772 44.3532Z" fill="black" fill-opacity="0.2"/>
<path d="M12.5772 44.3532C11.1252 41.8925 10.3594 39.0875 10.3594 36.2303C10.3594 33.3731 11.1252 30.5681 12.5772 28.1073C12.7786 27.7759 13.1034 27.538 13.4801 27.446C13.6667 27.4005 13.8604 27.3921 14.0501 27.4214C14.2399 27.4508 14.422 27.5172 14.5862 27.6169C14.7503 27.7166 14.8931 27.8476 15.0066 28.0025C15.1201 28.1575 15.2019 28.3332 15.2474 28.5198C15.293 28.7063 15.3013 28.9 15.272 29.0898C15.2427 29.2796 15.1763 29.4617 15.0766 29.6258C13.8906 31.6379 13.2651 33.931 13.2651 36.2666C13.2651 38.6022 13.8906 40.8952 15.0766 42.9074C15.2348 43.2372 15.2628 43.6145 15.155 43.964C15.0472 44.3135 14.8116 44.6095 14.4952 44.793C14.1787 44.9764 13.8048 45.0338 13.4479 44.9536C13.091 44.8734 12.7775 44.6616 12.5699 44.3605L12.5772 44.3532Z" fill="black" fill-opacity="0.2"/>
<path d="M12.5772 44.3532C11.1252 41.8925 10.3594 39.0875 10.3594 36.2303C10.3594 33.3731 11.1252 30.5681 12.5772 28.1073C12.7786 27.7759 13.1034 27.538 13.4801 27.446C13.6667 27.4005 13.8604 27.3921 14.0501 27.4214C14.2399 27.4508 14.422 27.5172 14.5862 27.6169C14.7503 27.7166 14.8931 27.8476 15.0066 28.0025C15.1201 28.1575 15.2019 28.3332 15.2474 28.5198C15.293 28.7063 15.3013 28.9 15.272 29.0898C15.2427 29.2796 15.1763 29.4617 15.0766 29.6258C13.8906 31.6379 13.2651 33.931 13.2651 36.2666C13.2651 38.6022 13.8906 40.8952 15.0766 42.9074C15.2348 43.2372 15.2628 43.6145 15.155 43.964C15.0472 44.3135 14.8116 44.6095 14.4952 44.793C14.1787 44.9764 13.8048 45.0338 13.4479 44.9536C13.091 44.8734 12.7775 44.6616 12.5699 44.3605L12.5772 44.3532Z" fill="black" fill-opacity="0.2"/>
<path d="M12.5772 44.3532C11.1252 41.8925 10.3594 39.0875 10.3594 36.2303C10.3594 33.3731 11.1252 30.5681 12.5772 28.1073C12.7786 27.7759 13.1034 27.538 13.4801 27.446C13.6667 27.4005 13.8604 27.3921 14.0501 27.4214C14.2399 27.4508 14.422 27.5172 14.5862 27.6169C14.7503 27.7166 14.8931 27.8476 15.0066 28.0025C15.1201 28.1575 15.2019 28.3332 15.2474 28.5198C15.293 28.7063 15.3013 28.9 15.272 29.0898C15.2427 29.2796 15.1763 29.4617 15.0766 29.6258C13.8906 31.6379 13.2651 33.931 13.2651 36.2666C13.2651 38.6022 13.8906 40.8952 15.0766 42.9074C15.2348 43.2372 15.2628 43.6145 15.155 43.964C15.0472 44.3135 14.8116 44.6095 14.4952 44.793C14.1787 44.9764 13.8048 45.0338 13.4479 44.9536C13.091 44.8734 12.7775 44.6616 12.5699 44.3605L12.5772 44.3532Z" fill="black" fill-opacity="0.2"/>
</svg>
