<svg width="47" height="47" viewBox="0 0 47 47" fill="none" xmlns="http://www.w3.org/2000/svg">
<circle cx="23.5" cy="23.5" r="23.5" fill="#E6F9FF"/>
<g clip-path="url(#clip0_902_91250)">
<path d="M34.0581 11.9233L33.5636 10.0261C33.4032 9.41064 32.635 9.20197 32.1853 9.65173L30.0653 11.7717C29.8557 11.9813 29.775 12.2873 29.854 12.5729L30.6237 15.3577L34.0581 11.9233Z" fill="#D5A0FF"/>
<path d="M34.0594 11.9238L35.9566 12.4183C36.5721 12.5787 36.7808 13.3469 36.331 13.7966L34.211 15.9166C34.0014 16.1262 33.6954 16.2069 33.4098 16.1279L30.625 15.3582L34.0594 11.9238Z" fill="#D5A0FF"/>
<path d="M36.3305 13.7961L34.2104 15.9162C34.0011 16.126 33.695 16.2064 33.4091 16.1277L32.3242 15.8282C32.5576 15.8358 32.7882 15.7473 32.9577 15.5778L35.1652 13.3708C35.4937 13.0423 35.4844 12.5504 35.2286 12.2285L35.9561 12.4182C36.5715 12.5783 36.7803 13.3468 36.3305 13.7961Z" fill="#444444"/>
<path d="M21.18 36.5905C27.6717 36.5905 32.9343 31.328 32.9343 24.8363C32.9343 18.3446 27.6717 13.082 21.18 13.082C14.6883 13.082 9.42578 18.3446 9.42578 24.8363C9.42578 31.328 14.6883 36.5905 21.18 36.5905Z" fill="#77DAF0"/>
<path d="M32.9341 24.8357C32.9341 31.3278 27.6712 36.5901 21.1797 36.5901C18.3688 36.5901 15.7884 35.6035 13.7656 33.9567C15.6403 35.2215 17.8987 35.9599 20.3304 35.9599C26.8224 35.9599 32.0847 30.6971 32.0847 24.2055C32.0847 20.525 30.3931 17.2391 27.7445 15.084C30.8752 17.1959 32.9341 20.7753 32.9341 24.8357Z" fill="#4291AD"/>
<path d="M21.1811 33.4579C25.9432 33.4579 29.8036 29.5975 29.8036 24.8354C29.8036 20.0733 25.9432 16.2129 21.1811 16.2129C16.419 16.2129 12.5586 20.0733 12.5586 24.8354C12.5586 29.5975 16.419 33.4579 21.1811 33.4579Z" fill="#F9F7F8"/>
<path d="M29.8041 24.8356C29.8041 29.5978 25.9432 33.4582 21.1816 33.4582C19.1801 33.4582 17.3376 32.7761 15.875 31.6321C17.1698 32.4099 18.686 32.857 20.3071 32.857C25.0687 32.857 28.9296 28.9966 28.9296 24.2344C28.9296 21.4743 27.6326 19.0169 25.6147 17.4385C28.1245 18.9464 29.8041 21.6951 29.8041 24.8356Z" fill="#66B3DA"/>
<path d="M21.1817 30.3107C24.2053 30.3107 26.6564 27.8596 26.6564 24.836C26.6564 21.8124 24.2053 19.3613 21.1817 19.3613C18.1581 19.3613 15.707 21.8124 15.707 24.836C15.707 27.8596 18.1581 30.3107 21.1817 30.3107Z" fill="#77DAF0"/>
<path d="M26.6554 24.8352C26.6554 27.8588 24.2047 30.3101 21.1811 30.3101C19.8273 30.3101 18.5882 29.8188 17.6328 29.0044C18.3914 29.4023 19.2545 29.6269 20.1699 29.6269C23.1935 29.6269 25.6443 27.1756 25.6443 24.152C25.6443 22.4823 24.8966 20.9869 23.7182 19.9834C25.4645 20.8978 26.6554 22.7271 26.6554 24.8352Z" fill="#4291AD"/>
<path d="M21.1809 27.3218C22.5537 27.3218 23.6665 26.2089 23.6665 24.8362C23.6665 23.4634 22.5537 22.3506 21.1809 22.3506C19.8082 22.3506 18.6953 23.4634 18.6953 24.8362C18.6953 26.2089 19.8082 27.3218 21.1809 27.3218Z" fill="#F9F7F8"/>
<path d="M23.6648 24.8361C23.6648 26.2091 22.552 27.3219 21.1796 27.3219C20.3914 27.3219 19.6897 26.9551 19.2344 26.3834C19.5547 26.5343 19.9127 26.6185 20.2898 26.6185C21.6627 26.6185 22.7755 25.5057 22.7755 24.1333C22.7755 23.5484 22.5733 23.0106 22.235 22.5859C23.08 22.9827 23.6648 23.8414 23.6648 24.8361Z" fill="#66B3DA"/>
<path d="M13.2763 36.5896C15.4028 36.5896 17.1267 34.8657 17.1267 32.7391C17.1267 30.6126 15.4028 28.8887 13.2763 28.8887C11.1497 28.8887 9.42578 30.6126 9.42578 32.7391C9.42578 34.8657 11.1497 36.5896 13.2763 36.5896Z" fill="#FDE09B"/>
<path d="M17.1248 32.7396C17.1248 34.8663 15.401 36.5901 13.2743 36.5901C12.3397 36.5901 11.4832 36.2578 10.8164 35.7042C11.2996 35.9223 11.8352 36.0436 12.3998 36.0436C14.5265 36.0436 16.2503 34.3197 16.2503 32.1931C16.2503 31.0005 15.7081 29.9347 14.8577 29.2285C16.1946 29.8325 17.1248 31.177 17.1248 32.7396Z" fill="#FEEFCD"/>
<path d="M15.2682 31.1792C14.9667 30.9011 14.4968 30.9201 14.2187 31.2215L12.9394 32.6083C12.8843 32.668 12.7899 32.668 12.7348 32.6083L12.3347 32.1745C12.0559 31.8723 11.5848 31.8533 11.2826 32.1321C10.9815 32.4099 10.9614 32.8789 11.2378 33.1815L12.175 34.2072C12.5256 34.5911 13.1297 34.5926 13.4823 34.2104L15.3105 32.2286C15.5886 31.9272 15.5696 31.4573 15.2682 31.1792Z" fill="#F9F7F8"/>
<path d="M15.3118 32.2294L13.4836 34.2112C13.1311 34.5933 12.5266 34.5916 12.1762 34.208L12.1172 34.1435C12.3538 34.1424 12.59 34.0473 12.7649 33.8576L14.5931 31.8758C14.8227 31.6271 14.85 31.2642 14.6827 30.9882C14.8893 30.9647 15.1047 31.0281 15.2692 31.18C15.5709 31.4582 15.59 31.9277 15.3118 32.2294Z" fill="#66B3DA"/>
<path d="M36.9374 12.8914C36.8201 12.4595 36.4916 12.1343 36.0586 12.0215L34.3941 11.5877L33.9602 9.92318C33.8474 9.49014 33.5222 9.1616 33.0904 9.04431C32.6587 8.92702 32.2118 9.04584 31.8953 9.3623L29.7754 11.4823C29.4622 11.7955 29.3408 12.2555 29.4589 12.6825L30.1633 15.2312L29.4643 15.9302C28.6276 15.1514 27.683 14.4896 26.6541 13.9702C26.452 13.8683 26.2055 13.9494 26.1035 14.1514C26.0015 14.3535 26.0826 14.6 26.2847 14.7021C27.2355 15.1821 28.1092 15.7923 28.8844 16.51L27.2456 18.1489C25.6412 16.6922 23.5123 15.8034 21.1798 15.8034C16.1992 15.8034 12.1474 19.8553 12.1474 24.8358C12.1474 26.1376 12.4246 27.3758 12.9226 28.495C12.1159 28.5616 11.3723 28.8532 10.7552 29.3077C10.1638 27.9348 9.83547 26.423 9.83547 24.8358C9.83547 18.5805 14.9245 13.4915 21.1798 13.4915C22.3305 13.4915 23.4655 13.663 24.5534 14.0014C24.7698 14.0687 24.9993 13.9479 25.0665 13.7317C25.1338 13.5156 25.013 13.2858 24.7969 13.2186C23.6301 12.8556 22.4131 12.6716 21.1798 12.6716C17.9306 12.6716 14.8759 13.9369 12.5784 16.2344C10.2809 18.532 9.01562 21.5867 9.01562 24.8358C9.01562 26.6099 9.39385 28.3255 10.1103 29.892C9.43036 30.6471 9.01562 31.6458 9.01562 32.7396C9.01562 33.2082 9.09127 33.6688 9.24053 34.1088C9.31328 34.3232 9.54612 34.4381 9.76037 34.3653C9.97479 34.2926 10.0896 34.0599 10.0169 33.8455C9.89652 33.4905 9.83547 33.1184 9.83547 32.7396C9.83547 30.8425 11.3789 29.299 13.276 29.299C15.1731 29.299 16.7166 30.8425 16.7166 32.7396C16.7166 34.6367 15.1731 36.1801 13.276 36.1801C12.412 36.1801 11.586 35.8586 10.95 35.2748C10.7832 35.1217 10.524 35.1328 10.3708 35.2996C10.2177 35.4664 10.2288 35.7257 10.3956 35.8788C11.1832 36.6018 12.2061 37 13.276 37C14.3698 37 15.3684 36.5854 16.1236 35.9054C17.6901 36.6219 19.4058 37 21.1798 37C24.429 37 27.4836 35.7347 29.7812 33.4372C32.0786 31.1397 33.344 28.085 33.344 24.8358C33.344 22.5414 32.7018 20.3065 31.4869 18.3729C31.0661 17.7031 30.5822 17.0799 30.0454 16.5085L30.7388 15.8152L33.2992 16.5228C33.4073 16.5527 33.5173 16.5672 33.6266 16.5672C33.9495 16.5672 34.2654 16.4403 34.4995 16.2063L36.6195 14.0863C36.9359 13.7699 37.0548 13.3232 36.9374 12.8914ZM13.8398 28.5177C13.2818 27.4096 12.9672 26.1588 12.9672 24.8358C12.9672 20.3074 16.6514 16.6233 21.1798 16.6233C23.2863 16.6233 25.2099 17.4208 26.6651 18.7294L25.0167 20.3778C23.9857 19.4892 22.6444 18.9512 21.1798 18.9512C17.935 18.9512 15.2951 21.5911 15.2951 24.8359C15.2951 28.0807 17.935 30.7205 21.1798 30.7205C24.4246 30.7205 27.0644 28.0807 27.0644 24.8359C27.0644 23.3502 26.5107 21.9915 25.5992 20.9548L27.2472 19.3069C28.5791 20.7672 29.3924 22.7083 29.3924 24.8359C29.3924 29.3643 25.7083 33.0485 21.1798 33.0485C19.8567 33.0485 18.606 32.7331 17.4979 32.1749C17.2451 30.2765 15.7384 28.77 13.8398 28.5177ZM20.8186 25.1556C20.8986 25.2357 21.0036 25.2757 21.1085 25.2757C21.2133 25.2757 21.3183 25.2357 21.3983 25.1556L22.8911 23.6629C23.1207 23.9968 23.2555 24.4008 23.2555 24.8358C23.2555 25.9803 22.3243 26.9115 21.1798 26.9115C20.0353 26.9115 19.1041 25.9803 19.1041 24.8358C19.1041 23.6913 20.0353 22.7602 21.1798 22.7602C21.5934 22.7602 21.9789 22.8823 22.3029 23.0916L20.8186 24.5759C20.6585 24.736 20.6585 24.9955 20.8186 25.1556ZM22.8919 22.5026C22.4119 22.1495 21.82 21.9403 21.1798 21.9403C19.5832 21.9403 18.2843 23.2393 18.2843 24.8358C18.2843 26.4324 19.5832 27.7313 21.1798 27.7313C22.7763 27.7313 24.0753 26.4324 24.0753 24.8358C24.0753 24.1745 23.8519 23.5646 23.4774 23.0766L25.0184 21.5355C25.7822 22.4225 26.2445 23.5762 26.2445 24.8358C26.2445 27.6286 23.9725 29.9006 21.1797 29.9006C18.387 29.9006 16.1149 27.6286 16.1149 24.8358C16.1149 22.0431 18.387 19.771 21.1797 19.771C22.4183 19.771 23.5543 20.2181 24.4352 20.9592L22.8919 22.5026ZM30.7927 18.8091C31.9254 20.6119 32.5242 22.6959 32.5242 24.8358C32.5242 31.0911 27.4351 36.1801 21.1798 36.1801C19.5926 36.1801 18.0812 35.8512 16.7083 35.2599C17.1627 34.6427 17.4542 33.899 17.5207 33.0922C18.64 33.5903 19.8779 33.8683 21.1798 33.8683C26.1604 33.8683 30.2123 29.8164 30.2123 24.8359C30.2123 22.4823 29.307 20.3364 27.8269 18.7271L29.4654 17.0886C29.9591 17.6166 30.4047 18.1916 30.7927 18.8091ZM30.2491 12.4641C30.2095 12.3211 30.2502 12.167 30.3551 12.062L32.475 9.94203C32.5721 9.84491 32.6795 9.82053 32.7627 9.82053C32.8104 9.82053 32.8502 9.82857 32.8755 9.83545C32.9449 9.85431 33.1124 9.92077 33.1669 10.1299L33.6021 11.7998L32.5448 12.8572C32.528 12.8694 32.5117 12.8827 32.4967 12.8978L30.8296 14.5648L30.2491 12.4641ZM36.0397 13.5067L33.9197 15.6267C33.8148 15.7316 33.6608 15.7723 33.5177 15.7327L31.4111 15.1504L34.182 12.3795L35.8519 12.8148C36.061 12.8693 36.1275 13.0368 36.1463 13.1062C36.1652 13.1757 36.1925 13.3538 36.0397 13.5067Z" fill="#484848"/>
<path d="M11.8749 34.4839C12.1193 34.7514 12.4672 34.9053 12.8295 34.9062H12.8327C13.1938 34.9062 13.5412 34.7541 13.7862 34.4886L15.6144 32.5068C15.8232 32.2805 15.9313 31.9865 15.9189 31.6789C15.9065 31.3713 15.7751 31.0869 15.5489 30.8782C15.0817 30.4473 14.3511 30.4766 13.9201 30.9437L12.8398 32.1148L12.6386 31.8968C12.207 31.4289 11.4752 31.3994 11.0074 31.831C10.5418 32.2606 10.5106 32.9905 10.9378 33.4582L11.8749 34.4839ZM11.5633 32.4335C11.6275 32.3743 11.7088 32.345 11.79 32.345C11.8802 32.345 11.9702 32.3811 12.036 32.4525L12.4362 32.8863C12.5399 32.9987 12.6869 33.0631 12.8398 33.0631C12.9927 33.0631 13.1397 32.9987 13.2434 32.8863L14.5227 31.4996C14.6471 31.3647 14.8581 31.3562 14.9929 31.4806C15.0582 31.5409 15.0962 31.623 15.0997 31.7118C15.1033 31.8006 15.0721 31.8855 15.0118 31.9508L13.1836 33.9326C13.0921 34.0318 12.9676 34.0863 12.8327 34.0863C12.8323 34.0863 12.8319 34.0863 12.8315 34.0863C12.6962 34.086 12.5715 34.0308 12.4802 33.9309L11.5431 32.9051C11.4193 32.7695 11.4283 32.558 11.5633 32.4335Z" fill="#484848"/>
</g>
<defs>
<clipPath id="clip0_902_91250">
<rect width="28" height="28" fill="white" transform="translate(9 9)"/>
</clipPath>
</defs>
</svg>
