<svg width="47" height="47" viewBox="0 0 47 47" fill="none" xmlns="http://www.w3.org/2000/svg">
<circle cx="23.5" cy="23.5" r="23.5" fill="#E6F9FF"/>
<g clip-path="url(#clip0_902_48956)">
<path d="M34.8407 24.1397H28.5078V20.4988L29.5886 18.94V15.6025C29.5886 15.1884 29.9139 14.8525 30.3151 14.8525H34.8407V24.1397Z" fill="#FFDAAA"/>
<path d="M31.1022 19.315V15.6025C31.1022 15.1884 31.4276 14.8525 31.8288 14.8525H30.3151C29.9139 14.8525 29.5886 15.1884 29.5886 15.6025V18.94L28.5078 20.4988V24.1397H30.0215V20.8738L31.1022 19.315Z" fill="#FFB680"/>
<path d="M12.6362 24.1397H17.911V20.4988L16.8303 18.94V15.7275H11.5781V23.0475C11.5781 23.6507 12.0518 24.1397 12.6362 24.1397Z" fill="#EB975D"/>
<path d="M13.1335 18.8418C13.1337 18.8418 13.1337 18.2274 13.1337 18.2274C13.1337 17.1919 13.9469 16.3524 14.9501 16.3524H16.8206C17.4225 16.3524 17.9105 15.8487 17.9105 15.2274V13.7793C17.9105 13.7793 16.8296 14.3418 15.7282 14.3418H11.67C10.4085 14.3418 10.2584 15.637 10.2584 15.637C9.28508 15.637 8.49609 16.7015 8.49609 17.7062C8.49609 21.87 12.3041 24.1397 12.3041 24.1397C12.3041 24.1397 13.1337 22.2652 13.1337 21.1019C12.5389 21.1019 12.0544 20.6084 12.0467 19.9943L12.0465 19.9787C12.0385 19.3532 12.5275 18.8418 13.1335 18.8418Z" fill="#767676"/>
<path d="M33.286 18.0918C33.2858 18.0918 33.2858 17.4774 33.2858 17.4774C33.2858 16.4419 32.4726 15.6024 31.4694 15.6024H29.5898C29.5898 13.9942 32.0039 13.3418 33.0796 13.3418C35.086 13.3418 38.5289 14.3577 38.5289 17.7168C38.5289 21.6264 35.2766 22.2009 35.2766 24.1397C34.1497 24.1397 33.2857 22.6397 33.2857 20.3519C33.8806 20.3519 34.3651 19.8584 34.3728 19.2443L34.373 19.2287C34.381 18.6032 33.892 18.0918 33.286 18.0918Z" fill="#FEE95D"/>
<path d="M10.0282 18.3919C10.0282 17.3872 10.3776 16.7569 11.367 16.7569C11.367 14.996 13.1837 14.3418 13.1837 14.3418H11.67C10.4085 14.3418 10.2584 15.637 10.2584 15.637C9.28508 15.637 8.49609 16.7015 8.49609 17.7062C8.49609 21.87 12.3041 24.1397 12.3041 24.1397C12.3041 24.1397 12.4712 23.7619 12.6554 23.2407C11.5775 22 10.0282 20.1211 10.0282 18.3919Z" fill="#616161"/>
<path d="M23.5084 15.8393V15.8391L23.5042 11.6475C22.2684 11.6475 21.8767 12.7068 21.8767 12.7068C21.8767 12.7068 21.347 15.0438 21.2712 15.839V15.8393C21.0631 18.0075 20.1918 22.0487 16.3672 23.4198V23.421C16.3672 23.421 16.3444 26.0151 19.035 26.9193C22.7158 24.4665 23.2696 19.1638 23.5084 15.8393Z" fill="#EB975D"/>
<path d="M16.3681 23.4212V23.4199C15.5393 23.717 14.5724 23.8894 13.4428 23.8894C9.87172 23.8894 8.49609 26.7088 8.49609 28.6394V38H19.8825C19.8825 30.5369 17.4607 27.7125 17.4607 27.7125C18.0413 27.502 18.564 27.2339 19.0359 26.9194C16.3452 26.0154 16.3681 23.4212 16.3681 23.4212Z" fill="#A8E1F8"/>
<path d="M13.2344 23.8926C9.81832 24.0001 8.49609 26.7464 8.49609 28.639V37.9996H10.0098C10.0098 37.9996 10.0098 31.1983 10.0098 28.389C10.0098 26.8065 10.9344 24.6272 13.2344 23.8926Z" fill="#75D2F5"/>
<path d="M30.6443 23.421V23.4209C26.8171 22.0509 25.9453 18.0081 25.7372 15.8393V15.839C25.6614 15.0438 25.1317 12.7068 25.1317 12.7068C25.1317 12.7068 24.74 11.6475 23.5042 11.6475L23.5 15.8391V15.8393C23.7389 19.1642 24.2928 24.4679 27.9748 26.9203L27.9759 26.9195C30.6671 26.0156 30.6443 23.421 30.6443 23.421Z" fill="#FFDAAA"/>
<path d="M33.5687 23.8893C32.4404 23.8893 31.4746 23.7173 30.6464 23.4209V23.421C30.6464 23.421 30.6693 26.0156 27.978 26.9195L27.977 26.9203C28.4485 27.2343 28.9707 27.5021 29.5508 27.7125C29.5508 27.7125 27.1289 30.5368 27.1289 38H38.5154C38.5154 38 38.5154 31.4487 38.5154 28.6393C38.5154 26.7086 37.1397 23.8893 33.5687 23.8893Z" fill="#FBB9D7"/>
<path d="M28.648 37.9999C28.7632 30.9946 30.7911 28.1701 30.7911 28.1701C31.434 27.2273 32.5044 25.5688 32.4559 23.8291C31.7893 23.755 31.1882 23.6148 30.6464 23.4209V23.421C30.6464 23.421 30.6693 26.0156 27.978 26.9195L27.977 26.9203C28.4485 27.2343 28.9707 27.5021 29.5508 27.7125C29.5508 27.7125 27.1289 30.5368 27.1289 38L28.648 37.9999Z" fill="#F696C3"/>
<path d="M24.832 15.8393L24.6231 12.0302C24.3693 11.8225 24.0065 11.6475 23.5042 11.6475L23.5 15.8393C23.7389 19.1642 24.2928 24.4679 27.9748 26.9203L27.9759 26.9195C28.5014 26.743 28.9231 26.5018 29.262 26.2283C25.3759 23.865 25.0609 19.0251 24.832 15.8393Z" fill="#FFB680"/>
<path d="M23.0312 6H23.9395V9.61037H23.0312V6Z" fill="#484848"/>
<path d="M25.0039 9.31934L26.8203 6.95898L27.5315 7.54215L25.7151 9.9025L25.0039 9.31934Z" fill="#484848"/>
<path d="M19.4961 7.54199L20.2073 6.95883L22.0237 9.31918L21.3125 9.90235L19.4961 7.54199Z" fill="#484848"/>
<path d="M8.02734 32.1865H8.93555V38.0003H8.02734V32.1865Z" fill="#484848"/>
<path d="M38.0469 35.9883H38.9551V37.9995H38.0469V35.9883Z" fill="#484848"/>
<path d="M35.7484 23.8166C35.8612 23.3308 36.2779 22.9111 36.7867 22.4002C37.7078 21.4753 38.9694 20.2088 38.9694 17.7167C38.9694 16.0683 38.2099 14.7365 36.7731 13.8654C35.7481 13.244 34.3623 12.873 33.0661 12.873C32.5205 12.873 31.5792 13.023 30.7219 13.446C29.6754 13.9624 29.1222 14.708 29.1222 15.6023V15.6024H29.1218V18.7895L28.0411 20.3482V20.997C26.7851 19.4139 26.3348 17.3693 26.1829 15.8668L25.2796 15.9642C25.4241 17.3935 25.8428 19.4573 27.0165 21.172C27.8276 22.357 28.875 23.2143 30.148 23.7393C30.0565 24.3631 29.6677 25.7545 28.0183 26.4017C25.0113 24.2653 24.25 19.9975 23.9489 15.9384V12.189C24.4322 12.3518 24.6363 12.7429 24.6843 12.8519C24.7337 13.0718 24.9835 14.1927 25.144 15.0655L26.0362 14.8907C25.8549 13.9043 25.563 12.6131 25.56 12.6001L25.5531 12.5693L25.5421 12.5397C25.5216 12.4841 25.0212 11.1787 23.4904 11.1787C21.9595 11.1787 21.4591 12.4841 21.4386 12.5397L21.4276 12.5693L21.4207 12.6001C21.3988 12.6968 20.8831 14.9771 20.8055 15.7933C20.6388 17.5346 20.0802 19.9971 18.3499 21.6485V20.3483L17.2691 18.7895V16.7478C17.8948 16.5442 18.3499 15.9397 18.3499 15.2275L18.3493 13.0206L17.6918 13.3605C17.682 13.3656 16.6891 13.873 15.7136 13.873H11.6553C10.5845 13.873 10.0689 14.6122 9.87693 15.206C8.79671 15.4321 8.02734 16.6266 8.02734 17.7061C8.02734 20.7675 9.91374 22.8414 11.1289 23.8592C10.2716 24.2225 9.67234 24.7548 9.27195 25.2342C8.49265 26.1672 8.0274 27.4401 8.0274 28.6393V31.2487H8.93561V28.6393C8.93561 27.1542 9.82692 25.0442 12.1895 24.4938L12.4495 24.4407C12.7529 24.3872 13.0786 24.3581 13.4281 24.3581C14.3437 24.3581 15.1899 24.2505 15.9647 24.0363C16.0154 24.3119 16.105 24.6566 16.2641 25.0231C16.5313 25.6385 17.041 26.4146 18.0017 26.9707C17.7773 27.0802 17.5432 27.1803 17.298 27.2693C15.2851 27.9442 14.2136 28.5055 13.5723 29.8626L14.3886 30.2736C14.8192 29.3622 15.4863 28.8883 17.2774 28.264C17.8135 29.0791 19.4139 32.0147 19.4139 38H20.3221C20.3221 32.1433 18.86 29.0701 18.1546 27.9285C20.2277 26.995 21.7583 25.2238 22.7096 22.6549C23.0596 21.7096 23.3081 20.721 23.4904 19.7343C23.6727 20.7209 23.9211 21.7095 24.2712 22.6549C25.2226 25.2238 26.7532 26.995 28.8262 27.9285C28.1209 29.0701 26.6588 32.1433 26.6588 38H27.567C27.567 32.0122 29.1686 29.0768 29.7032 28.264C31.4945 28.8883 32.1616 29.3622 32.5922 30.2736L33.4085 29.8626C32.7672 28.5055 31.6957 27.9442 29.6828 27.2693C29.4382 27.1805 29.2048 27.0807 28.9808 26.9715C29.9425 26.4154 30.4525 25.6388 30.7198 25.0231C30.8788 24.6568 30.9685 24.3123 31.0191 24.0368C31.7933 24.2505 32.6383 24.3581 33.5527 24.3581C36.8487 24.3581 38.0452 26.9185 38.0452 28.6394V35.0513H38.9534V28.6393C38.9534 27.4401 38.4882 26.1671 37.7091 25.2343C37.2928 24.7358 36.6615 24.18 35.7484 23.8166ZM8.93561 17.7062C8.93561 16.9812 9.51928 16.1056 10.244 16.1056H10.6469L10.6949 15.6926C10.6951 15.6904 10.7287 15.4585 10.8623 15.237C11.0352 14.9501 11.2947 14.8106 11.6554 14.8106H15.7138C16.36 14.8106 16.9909 14.6389 17.4418 14.4771V15.2275C17.4418 15.5893 17.1566 15.8837 16.806 15.8837H14.9357C13.6838 15.8837 12.6652 16.9351 12.6652 18.2275V18.4427C12.4244 18.5188 12.2044 18.6559 12.0222 18.8463C11.7303 19.1516 11.5724 19.5559 11.5778 19.9787L11.5779 20.0005C11.5867 20.6922 12.0298 21.2807 12.6354 21.4895C12.5557 22.0662 12.3274 22.7988 12.0843 23.4333C11.1689 22.7425 8.93561 20.7454 8.93561 17.7062ZM13.0575 23.4306C13.3031 22.741 13.5734 21.819 13.5734 21.1018V20.6331H13.1193C12.7747 20.6331 12.4905 20.3438 12.486 19.9943L12.486 19.9726C12.4838 19.7965 12.5486 19.6303 12.6685 19.505C12.7883 19.3796 12.9483 19.3106 13.1188 19.3106C13.2938 19.3106 13.5719 19.1766 13.5731 18.8171L13.5735 18.2275C13.5735 17.452 14.1847 16.8212 14.9358 16.8212H16.3611V19.0904L17.4418 20.6491V22.3622C16.4284 23.0116 15.1193 23.4206 13.4282 23.4206C13.3015 23.4206 13.1781 23.4243 13.0575 23.4306ZM18.9635 26.4011C17.3066 25.7512 16.923 24.3652 16.8344 23.739C18.1252 23.2067 19.1839 22.3323 19.9993 21.1211C21.1641 19.3912 21.5722 17.3191 21.7094 15.8851C21.7761 15.1846 22.227 13.1609 22.2962 12.8529C22.3476 12.737 22.5546 12.3458 23.0407 12.1859V15.8214C23.0394 15.8388 23.0381 15.8562 23.0368 15.8736L23.0333 15.8739C23.0338 15.8817 23.0345 15.8897 23.035 15.8975C22.736 19.9685 21.9798 24.2573 18.9635 26.4011ZM33.0661 13.8105C34.2076 13.8105 35.4215 14.1332 36.3131 14.6738C37.473 15.377 38.0612 16.4008 38.0612 17.7167C38.0612 19.8128 37.0477 20.8303 36.1535 21.7281C35.5994 22.2843 35.0699 22.8159 34.8815 23.5193C34.2513 23.215 33.806 22.1563 33.7359 20.7462C34.3517 20.5436 34.8044 19.9498 34.8133 19.2515L34.8135 19.2347C34.819 18.8058 34.6612 18.4015 34.3694 18.0963C34.1872 17.9058 33.967 17.7687 33.7263 17.6926C33.7263 17.5752 33.7263 17.4773 33.7263 17.4773C33.7263 16.1849 32.7078 15.1335 31.4558 15.1335H30.1468C30.589 14.2736 32.1845 13.8105 33.0661 13.8105ZM30.0301 19.0904V16.0711H31.4558C32.207 16.0711 32.8181 16.7019 32.8181 17.4773L32.8183 18.066C32.8188 18.4262 33.0971 18.5605 33.2725 18.5605C33.4431 18.5605 33.6031 18.6295 33.723 18.7549C33.8429 18.8803 33.9077 19.0463 33.9055 19.2213L33.9053 19.2382C33.9008 19.5938 33.6168 19.8831 33.2722 19.8831H32.8181V20.3518C32.8181 21.5353 33.0369 22.5564 33.4507 23.3048C33.4727 23.3443 33.4954 23.3823 33.5182 23.4201C31.4958 23.4134 30.0221 22.8188 28.9493 21.9283V20.6492L30.0301 19.0904Z" fill="#484848"/>
<path d="M12.8984 34.8252H13.8066V35.7627H12.8984V34.8252Z" fill="white"/>
<path d="M14.7148 34.8252H15.623V35.7627H14.7148V34.8252Z" fill="white"/>
</g>
<defs>
<clipPath id="clip0_902_48956">
<rect width="31" height="32" fill="white" transform="translate(8 6)"/>
</clipPath>
</defs>
</svg>
