<svg width="50" height="49" viewBox="0 0 50 49" fill="none" xmlns="http://www.w3.org/2000/svg">
<circle cx="24.9766" cy="24.5" r="24.5" fill="#E6F9FF"/>
<path d="M37.2919 26.1397H30.959V22.4988L32.0397 20.94V17.6025C32.0397 17.1884 32.3651 16.8525 32.7663 16.8525H37.2919V26.1397Z" fill="#FFDAAA"/>
<path d="M33.5534 21.315V17.6025C33.5534 17.1884 33.8787 16.8525 34.28 16.8525H32.7663C32.3651 16.8525 32.0397 17.1884 32.0397 17.6025V20.94L30.959 22.4988V26.1397H32.4727V22.8738L33.5534 21.315Z" fill="#FFB680"/>
<path d="M15.0844 26.1397H20.3593V22.4988L19.2785 20.94V17.7275H14.0264V25.0475C14.0264 25.6507 14.5001 26.1397 15.0844 26.1397Z" fill="#EB975D"/>
<path d="M15.5827 20.8418C15.5829 20.8418 15.5829 20.2274 15.5829 20.2274C15.5829 19.1919 16.3961 18.3524 17.3993 18.3524H19.2698C19.8717 18.3524 20.3597 17.8487 20.3597 17.2274V15.7793C20.3597 15.7793 19.2789 16.3418 18.1774 16.3418H14.1192C12.8577 16.3418 12.7076 17.637 12.7076 17.637C11.7343 17.637 10.9453 18.7015 10.9453 19.7062C10.9453 23.87 14.7533 26.1397 14.7533 26.1397C14.7533 26.1397 15.583 24.2652 15.583 23.1019C14.9881 23.1019 14.5037 22.6084 14.4959 21.9943L14.4957 21.9787C14.4877 21.3532 14.9768 20.8418 15.5827 20.8418Z" fill="#767676"/>
<path d="M35.7362 20.0918C35.736 20.0918 35.736 19.4774 35.736 19.4774C35.736 18.4419 34.9228 17.6024 33.9196 17.6024H32.04C32.04 15.9942 34.4541 15.3418 35.5298 15.3418C37.5362 15.3418 40.9791 16.3577 40.9791 19.7168C40.9791 23.6264 37.7268 24.2009 37.7268 26.1397C36.5999 26.1397 35.7359 24.6397 35.7359 22.3519C36.3308 22.3519 36.8153 21.8584 36.823 21.2443L36.8232 21.2287C36.8312 20.6032 36.3422 20.0918 35.7362 20.0918Z" fill="#FEE95D"/>
<path d="M12.4774 20.3919C12.4774 19.3872 12.8268 18.7569 13.8162 18.7569C13.8162 16.996 15.6329 16.3418 15.6329 16.3418H14.1192C12.8577 16.3418 12.7076 17.637 12.7076 17.637C11.7343 17.637 10.9453 18.7015 10.9453 19.7062C10.9453 23.87 14.7533 26.1397 14.7533 26.1397C14.7533 26.1397 14.9204 25.7619 15.1046 25.2407C14.0267 24 12.4774 22.1211 12.4774 20.3919Z" fill="#616161"/>
<path d="M25.9586 17.8393V17.8391L25.9544 13.6475C24.7186 13.6475 24.3269 14.7068 24.3269 14.7068C24.3269 14.7068 23.7972 17.0438 23.7214 17.839V17.8393C23.5133 20.0075 22.642 24.0487 18.8174 25.4198V25.421C18.8174 25.421 18.7946 28.0151 21.4852 28.9193C25.166 26.4665 25.7198 21.1638 25.9586 17.8393Z" fill="#EB975D"/>
<path d="M18.8173 25.4212V25.4199C17.9885 25.717 17.0216 25.8894 15.892 25.8894C12.3209 25.8894 10.9453 28.7088 10.9453 30.6394V40H22.3318C22.3318 32.5369 19.9099 29.7125 19.9099 29.7125C20.4905 29.502 21.0132 29.2339 21.4851 28.9194C18.7944 28.0154 18.8173 25.4212 18.8173 25.4212Z" fill="#A8E1F8"/>
<path d="M15.6837 25.8931C12.2675 26.0006 10.9453 28.7469 10.9453 30.6394V40.0001H12.459C12.459 40.0001 12.459 33.1988 12.459 30.3894C12.459 28.8069 13.3836 26.6277 15.6837 25.8931Z" fill="#75D2F5"/>
<path d="M33.0945 25.421V25.4209C29.2673 24.0509 28.3955 20.0081 28.1874 17.8393V17.839C28.1116 17.0438 27.5819 14.7068 27.5819 14.7068C27.5819 14.7068 27.1902 13.6475 25.9544 13.6475L25.9502 17.8391V17.8393C26.1891 21.1642 26.743 26.4679 30.425 28.9203L30.4261 28.9195C33.1173 28.0156 33.0945 25.421 33.0945 25.421Z" fill="#FFDAAA"/>
<path d="M36.0169 25.8893C34.8887 25.8893 33.9228 25.7173 33.0947 25.4209V25.421C33.0947 25.421 33.1175 28.0156 30.4263 28.9195L30.4252 28.9203C30.8968 29.2343 31.419 29.5021 31.999 29.7125C31.999 29.7125 29.5771 32.5368 29.5771 40H40.9636C40.9636 40 40.9636 33.4487 40.9636 30.6393C40.9636 28.7086 39.588 25.8893 36.0169 25.8893Z" fill="#FBB9D7"/>
<path d="M31.0952 39.9999C31.2105 32.9946 33.2384 30.1701 33.2384 30.1701C33.8812 29.2273 34.9516 27.5688 34.9031 25.8291C34.2366 25.755 33.6355 25.6148 33.0937 25.4209V25.421C33.0937 25.421 33.1165 28.0156 30.4253 28.9195L30.4243 28.9203C30.8958 29.2343 31.418 29.5021 31.998 29.7125C31.998 29.7125 29.5762 32.5368 29.5762 40L31.0952 39.9999Z" fill="#F696C3"/>
<path d="M27.2822 17.8393L27.0733 14.0302C26.8195 13.8225 26.4567 13.6475 25.9544 13.6475L25.9502 17.8393C26.1891 21.1642 26.743 26.4679 30.425 28.9203L30.4261 28.9195C30.9516 28.743 31.3733 28.5018 31.7122 28.2283C27.8261 25.865 27.5111 21.0251 27.2822 17.8393Z" fill="#FFB680"/>
<path d="M25.4785 8H26.3867V11.6104H25.4785V8Z" fill="#484848"/>
<path d="M27.4551 11.3193L29.2715 8.95898L29.9827 9.54215L28.1662 11.9025L27.4551 11.3193Z" fill="#484848"/>
<path d="M21.9443 9.5415L22.6555 8.95834L24.4719 11.3187L23.7608 11.9019L21.9443 9.5415Z" fill="#484848"/>
<path d="M10.4766 34.186H11.3848V39.9998H10.4766V34.186Z" fill="#484848"/>
<path d="M40.4941 37.9888H41.4023V40H40.4941V37.9888Z" fill="#484848"/>
<path d="M38.1976 25.8166C38.3104 25.3308 38.7271 24.9111 39.236 24.4002C40.1571 23.4753 41.4186 22.2088 41.4186 19.7167C41.4186 18.0683 40.6591 16.7365 39.2223 15.8654C38.1973 15.244 36.8115 14.873 35.5153 14.873C34.9697 14.873 34.0285 15.023 33.1712 15.446C32.1246 15.9624 31.5714 16.708 31.5714 17.6023V17.6024H31.571V20.7895L30.4903 22.3482V22.997C29.2344 21.4139 28.784 19.3693 28.6321 17.8668L27.7288 17.9642C27.8733 19.3935 28.292 21.4573 29.4657 23.172C30.2768 24.357 31.3242 25.2143 32.5972 25.7393C32.5058 26.3631 32.1169 27.7545 30.4676 28.4017C27.4606 26.2653 26.6993 21.9975 26.3981 17.9384V14.189C26.8814 14.3518 27.0855 14.7429 27.1335 14.8519C27.1829 15.0718 27.4327 16.1927 27.5932 17.0655L28.4854 16.8907C28.3042 15.9043 28.0122 14.6131 28.0092 14.6001L28.0023 14.5693L27.9913 14.5397C27.9708 14.4841 27.4704 13.1787 25.9396 13.1787C24.4087 13.1787 23.9083 14.4841 23.8878 14.5397L23.8769 14.5693L23.8699 14.6001C23.848 14.6968 23.3324 16.9771 23.2547 17.7933C23.0881 19.5346 22.5294 21.9971 20.7991 23.6485V22.3483L19.7183 20.7895V18.7478C20.344 18.5442 20.7991 17.9397 20.7991 17.2275L20.7985 15.0206L20.1411 15.3605C20.1312 15.3656 19.1383 15.873 18.1629 15.873H14.1045C13.0338 15.873 12.5181 16.6122 12.3261 17.206C11.2459 17.4321 10.4766 18.6266 10.4766 19.7061C10.4766 22.7675 12.363 24.8414 13.5781 25.8592C12.7209 26.2225 12.1216 26.7548 11.7212 27.2342C10.9419 28.1672 10.4766 29.4401 10.4766 30.6393V33.2487H11.3848V30.6393C11.3848 29.1542 12.2761 27.0442 14.6387 26.4938L14.8987 26.4407C15.2021 26.3872 15.5278 26.3581 15.8773 26.3581C16.7929 26.3581 17.6391 26.2505 18.414 26.0363C18.4646 26.3119 18.5542 26.6566 18.7134 27.0231C18.9806 27.6385 19.4902 28.4146 20.4509 28.9707C20.2265 29.0802 19.9924 29.1803 19.7472 29.2693C17.7343 29.9442 16.6628 30.5055 16.0215 31.8626L16.8378 32.2736C17.2684 31.3622 17.9355 30.8883 19.7266 30.264C20.2628 31.0791 21.8631 34.0147 21.8631 40H22.7713C22.7713 34.1433 21.3092 31.0701 20.6038 29.9285C22.6769 28.995 24.2075 27.2238 25.1588 24.6549C25.5088 23.7096 25.7573 22.721 25.9396 21.7343C26.1219 22.7209 26.3704 23.7095 26.7204 24.6549C27.6718 27.2238 29.2024 28.995 31.2754 29.9285C30.5701 31.0701 29.108 34.1433 29.108 40H30.0162C30.0162 34.0122 31.6178 31.0768 32.1525 30.264C33.9437 30.8883 34.6109 31.3622 35.0415 32.2736L35.8578 31.8626C35.2164 30.5055 34.1449 29.9442 32.1321 29.2693C31.8875 29.1805 31.654 29.0807 31.43 28.9715C32.3917 28.4154 32.9017 27.6388 33.169 27.0231C33.328 26.6568 33.4177 26.3123 33.4683 26.0368C34.2425 26.2505 35.0875 26.3581 36.0019 26.3581C39.298 26.3581 40.4944 28.9185 40.4944 30.6394V37.0513H41.4026V30.6393C41.4026 29.4401 40.9375 28.1671 40.1583 27.2343C39.742 26.7358 39.1108 26.18 38.1976 25.8166ZM11.3848 19.7062C11.3848 18.9812 11.9685 18.1056 12.6932 18.1056H13.0961L13.1441 17.6926C13.1443 17.6904 13.1779 17.4585 13.3115 17.237C13.4844 16.9501 13.7439 16.8106 14.1046 16.8106H18.163C18.8093 16.8106 19.4402 16.6389 19.891 16.4771V17.2275C19.891 17.5893 19.6058 17.8837 19.2553 17.8837H17.385C16.133 17.8837 15.1145 18.9351 15.1145 20.2275V20.4427C14.8737 20.5188 14.6536 20.6559 14.4714 20.8463C14.1795 21.1516 14.0216 21.5559 14.027 21.9787L14.0271 22.0005C14.0359 22.6922 14.479 23.2807 15.0846 23.4895C15.0049 24.0662 14.7767 24.7988 14.5336 25.4333C13.6181 24.7425 11.3848 22.7454 11.3848 19.7062ZM15.5067 25.4306C15.7523 24.741 16.0227 23.819 16.0227 23.1018V22.6331H15.5686C15.2239 22.6331 14.9397 22.3438 14.9352 21.9943L14.9352 21.9726C14.933 21.7965 14.9978 21.6303 15.1177 21.505C15.2375 21.3796 15.3975 21.3106 15.568 21.3106C15.7431 21.3106 16.0211 21.1766 16.0223 20.8171L16.0227 20.2275C16.0227 19.452 16.6339 18.8212 17.385 18.8212H18.8103V21.0904L19.8911 22.6491V24.3622C18.8776 25.0116 17.5685 25.4206 15.8774 25.4206C15.7507 25.4206 15.6273 25.4243 15.5067 25.4306ZM21.4127 28.4011C19.7558 27.7512 19.3722 26.3652 19.2836 25.739C20.5744 25.2067 21.6331 24.3323 22.4486 23.1211C23.6133 21.3912 24.0214 19.3191 24.1586 17.8851C24.2253 17.1846 24.6763 15.1609 24.7454 14.8529C24.7969 14.737 25.0038 14.3458 25.4899 14.1859V17.8214C25.4886 17.8388 25.4873 17.8562 25.486 17.8736L25.4825 17.8739C25.483 17.8817 25.4837 17.8897 25.4843 17.8975C25.1852 21.9685 24.429 26.2573 21.4127 28.4011ZM35.5153 15.8105C36.6569 15.8105 37.8707 16.1332 38.7623 16.6738C39.9223 17.377 40.5104 18.4008 40.5104 19.7167C40.5104 21.8128 39.4969 22.8303 38.6027 23.7281C38.0486 24.2843 37.5192 24.8159 37.3307 25.5193C36.7006 25.215 36.2552 24.1563 36.1851 22.7462C36.801 22.5436 37.2537 21.9498 37.2625 21.2515L37.2627 21.2347C37.2682 20.8058 37.1104 20.4015 36.8186 20.0963C36.6364 19.9058 36.4162 19.7687 36.1755 19.6926C36.1755 19.5752 36.1755 19.4773 36.1755 19.4773C36.1755 18.1849 35.157 17.1335 33.905 17.1335H32.596C33.0382 16.2736 34.6337 15.8105 35.5153 15.8105ZM32.4793 21.0904V18.0711H33.9051C34.6562 18.0711 35.2674 18.7019 35.2674 19.4773L35.2675 20.066C35.268 20.4262 35.5464 20.5605 35.7217 20.5605C35.8923 20.5605 36.0524 20.6295 36.1722 20.7549C36.2921 20.8803 36.3569 21.0463 36.3547 21.2213L36.3545 21.2382C36.35 21.5938 36.066 21.8831 35.7215 21.8831H35.2674V22.3518C35.2674 23.5353 35.4861 24.5564 35.9 25.3048C35.9219 25.3443 35.9446 25.3823 35.9675 25.4201C33.945 25.4134 32.4714 24.8188 31.3985 23.9283V22.6492L32.4793 21.0904Z" fill="#484848"/>
<path d="M15.3467 36.8257H16.2549V37.7632H15.3467V36.8257Z" fill="white"/>
<path d="M17.1631 36.8257H18.0713V37.7632H17.1631V36.8257Z" fill="white"/>
</svg>
