<svg width="47" height="47" viewBox="0 0 47 47" fill="none" xmlns="http://www.w3.org/2000/svg">
<circle cx="23.5" cy="23.5" r="23.5" fill="#E6F9FF"/>
<path d="M30.2819 15.3821C30.7928 15.3821 31.2836 15.4675 31.7415 15.6238V14.6201C31.7415 14.1833 31.3873 13.8291 30.9505 13.8291H29.459C29.0221 13.8291 28.668 14.1833 28.668 14.6201V15.6796C29.1691 15.4875 29.7131 15.3821 30.2819 15.3821Z" fill="#EDC963"/>
<path d="M16.7213 15.3821C17.2901 15.3821 17.8341 15.4875 18.3352 15.6796V14.6201C18.3352 14.1833 17.9811 13.8291 17.5442 13.8291H16.0527C15.6159 13.8291 15.2617 14.1833 15.2617 14.6201V15.6238C15.7196 15.4675 16.2104 15.3821 16.7213 15.3821Z" fill="#EDC963"/>
<path d="M16.7213 15.3821C17.2901 15.3821 17.8341 15.4875 18.3352 15.6796V14.6201C18.3352 14.1833 17.9811 13.8291 17.5442 13.8291H16.0527C15.6159 13.8291 15.2617 14.1833 15.2617 14.6201V15.6238C15.7196 15.4675 16.2104 15.3821 16.7213 15.3821Z" fill="#EDC963"/>
<path d="M34.7562 19.2869L34.755 19.2879C34.4562 17.0823 32.567 15.3818 30.2794 15.3818C28.9882 15.3818 27.8246 15.9243 27.0015 16.7931H19.9985C19.1754 15.9244 18.0118 15.3818 16.7205 15.3818C14.433 15.3818 12.5438 17.0823 12.245 19.2879L12.2438 19.2869L10.4608 29.9051C10.2448 31.1911 10.9449 32.456 12.1493 32.9559C13.6486 33.5782 15.3613 32.7996 15.8781 31.2607L17.4491 26.5829C17.927 26.9312 18.5153 27.1373 19.1519 27.1373C19.9715 27.1373 20.7109 26.7961 21.2376 26.2487H25.7625C26.2891 26.7961 27.0285 27.1373 27.8481 27.1373C28.4848 27.1373 29.073 26.9313 29.5509 26.5829L31.1219 31.2607C31.6387 32.7996 33.3514 33.5782 34.8507 32.9559C36.0551 32.456 36.7551 31.1911 36.5392 29.9051L34.7562 19.2869Z" fill="#97FFFD"/>
<path d="M31.7375 15.6235V14.6743C31.2796 14.5179 30.7888 14.4326 30.2779 14.4326C29.7092 14.4326 29.1651 14.538 28.6641 14.7301V15.6793C29.1651 15.4873 29.7092 15.3818 30.2779 15.3818C30.7888 15.3818 31.2796 15.4672 31.7375 15.6235Z" fill="#E7B93E"/>
<path d="M18.3352 15.6793V14.7301C17.8342 14.538 17.2901 14.4326 16.7213 14.4326C16.2104 14.4326 15.7196 14.5179 15.2617 14.6743V15.6235C15.7196 15.4672 16.2104 15.3818 16.7213 15.3818C17.2901 15.3819 17.8342 15.4873 18.3352 15.6793Z" fill="#E7B93E"/>
<path d="M12.1493 32.0066C11.2427 31.6303 10.622 30.8205 10.4626 29.8945L10.4608 29.9051C10.2448 31.1911 10.9449 32.456 12.1493 32.9559C13.6486 33.5782 15.3613 32.7996 15.8781 31.2607L16.196 30.3142C15.6776 31.8513 13.6477 32.6286 12.1493 32.0066Z" fill="#00B7B4"/>
<path d="M36.5388 29.8945C36.3793 30.8205 35.7587 31.6303 34.8521 32.0066C33.353 32.6288 31.322 31.8506 30.8047 30.3123L31.1232 31.2607C31.6401 32.7996 33.3527 33.5782 34.8521 32.9559C36.0564 32.456 36.7564 31.1911 36.5405 29.9051L36.5388 29.8945Z" fill="#00B7B4"/>
<path d="M29.3457 25.9721C29.2901 25.8065 29.0914 25.7395 28.9473 25.8382C28.6216 26.0614 28.3481 26.1884 27.8482 26.1884C27.0651 26.1884 26.3552 25.8769 25.8341 25.3717C25.7859 25.3249 25.7206 25.2998 25.6533 25.2998H21.3468C21.2796 25.2998 21.2143 25.3249 21.166 25.3717C20.645 25.8769 19.935 26.1884 19.1519 26.1884C18.652 26.1884 18.3786 26.0614 18.0529 25.8382C17.9088 25.7395 17.7101 25.8065 17.6545 25.9721L17.4492 26.5833C17.9271 26.9316 18.5153 27.1376 19.1519 27.1376C19.9715 27.1376 20.7109 26.7965 21.2376 26.249H25.7625C26.2891 26.7965 27.0286 27.1376 27.8482 27.1376C28.4848 27.1376 29.073 26.9316 29.5509 26.5833L29.3457 25.9721Z" fill="#00B7B4"/>
<path d="M19.2511 25.5159C19.9356 25.5159 20.4906 24.961 20.4906 24.2765C20.4906 23.592 19.9356 23.0371 19.2511 23.0371C18.5666 23.0371 18.0117 23.592 18.0117 24.2765C18.0117 24.961 18.5666 25.5159 19.2511 25.5159Z" fill="#DAD8DB"/>
<path d="M27.7472 25.5159C28.4317 25.5159 28.9866 24.961 28.9866 24.2765C28.9866 23.592 28.4317 23.0371 27.7472 23.0371C27.0627 23.0371 26.5078 23.592 26.5078 24.2765C26.5078 24.961 27.0627 25.5159 27.7472 25.5159Z" fill="#DAD8DB"/>
<path d="M19.2511 24.5666C18.7348 24.5666 18.2923 24.2507 18.106 23.8018C18.0454 23.948 18.0117 24.1082 18.0117 24.2764C18.0117 24.9609 18.5666 25.5158 19.2511 25.5158C19.9356 25.5158 20.4906 24.9609 20.4906 24.2764C20.4906 24.1082 20.4569 23.948 20.3962 23.8018C20.2098 24.2507 19.7674 24.5666 19.2511 24.5666Z" fill="#C8C5C9"/>
<path d="M27.7472 24.5666C27.2309 24.5666 26.7884 24.2507 26.6021 23.8018C26.5415 23.948 26.5078 24.1082 26.5078 24.2764C26.5078 24.9609 27.0627 25.5158 27.7472 25.5158C28.4317 25.5158 28.9866 24.9609 28.9866 24.2764C28.9866 24.1082 28.953 23.948 28.8923 23.8018C28.7059 24.2507 28.2635 24.5666 27.7472 24.5666Z" fill="#C8C5C9"/>
<path d="M18.0773 19.164H17.5922V18.679C17.5922 18.2155 17.2165 17.8398 16.7531 17.8398C16.2897 17.8398 15.914 18.2155 15.914 18.679V19.164H15.429C14.9655 19.164 14.5898 19.5397 14.5898 20.0031C14.5898 20.4665 14.9655 20.8422 15.429 20.8422H15.914V21.3273C15.914 21.7907 16.2897 22.1664 16.7531 22.1664C17.2165 22.1664 17.5922 21.7907 17.5922 21.3273V20.8422H18.0773C18.5407 20.8422 18.9164 20.4665 18.9164 20.0031C18.9164 19.5397 18.5407 19.164 18.0773 19.164Z" fill="#B3E59F"/>
<path d="M18.0773 19.164H17.5922V18.679C17.5922 18.2155 17.2165 17.8398 16.7531 17.8398C16.2897 17.8398 15.914 18.2155 15.914 18.679V19.164H15.429C14.9655 19.164 14.5898 19.5397 14.5898 20.0031C14.5898 20.4665 14.9655 20.8422 15.429 20.8422H15.914V21.3273C15.914 21.7907 16.2897 22.1664 16.7531 22.1664C17.2165 22.1664 17.5922 21.7907 17.5922 21.3273V20.8422H18.0773C18.5407 20.8422 18.9164 20.4665 18.9164 20.0031C18.9164 19.5397 18.5407 19.164 18.0773 19.164Z" fill="#DAD8DB"/>
<path d="M30.5173 17.2998C30.0996 17.2998 29.7578 17.6416 29.7578 18.0593C29.7578 18.477 30.0996 18.8188 30.5173 18.8188C30.935 18.8188 31.2768 18.477 31.2768 18.0593C31.2768 17.6416 30.935 17.2998 30.5173 17.2998Z" fill="#00C2BF"/>
<path d="M30.5173 17.2998C30.0996 17.2998 29.7578 17.6416 29.7578 18.0593C29.7578 18.477 30.0996 18.8188 30.5173 18.8188C30.935 18.8188 31.2768 18.477 31.2768 18.0593C31.2768 17.6416 30.935 17.2998 30.5173 17.2998Z" fill="#B3E59F"/>
<path d="M30.5173 21.1875C30.0996 21.1875 29.7578 21.5293 29.7578 21.947C29.7578 22.3647 30.0996 22.7065 30.5173 22.7065C30.935 22.7065 31.2768 22.3647 31.2768 21.947C31.2768 21.5293 30.935 21.1875 30.5173 21.1875Z" fill="#00C2BF"/>
<path d="M33.2221 20.0036C33.2221 19.5859 32.8803 19.2441 32.4626 19.2441C32.0449 19.2441 31.7031 19.5859 31.7031 20.0036C31.7031 20.4213 32.0449 20.7631 32.4626 20.7631C32.8803 20.7631 33.2221 20.4213 33.2221 20.0036Z" fill="#EDC963"/>
<path d="M29.3354 20.0036C29.3354 19.5859 28.9936 19.2441 28.5759 19.2441C28.1582 19.2441 27.8164 19.5859 27.8164 20.0036C27.8164 20.4213 28.1582 20.7631 28.5759 20.7631C28.9936 20.7631 29.3354 20.4213 29.3354 20.0036Z" fill="#DF667C"/>
<path d="M20 16.793H27.003V17.4963C27.003 18.0788 26.5308 18.551 25.9483 18.551H21.0547C20.4722 18.551 20 18.0788 20 17.4963V16.793Z" fill="#A6AEC4"/>
<path d="M25.9483 17.6018H21.0547C20.557 17.6018 20.1409 17.2567 20.03 16.793H20V17.4963C20 18.0788 20.4722 18.551 21.0547 18.551H25.9483C26.5308 18.551 27.003 18.0788 27.003 17.4963V16.793H26.973C26.8621 17.2567 26.446 17.6018 25.9483 17.6018Z" fill="#959DB0"/>
<path d="M19.2435 22.6406C18.3403 22.6406 17.6055 23.3754 17.6055 24.2786C17.6055 25.1818 18.3403 25.9166 19.2435 25.9166C20.1466 25.9166 20.8814 25.1818 20.8814 24.2786C20.8814 23.3754 20.1466 22.6406 19.2435 22.6406ZM19.2435 25.1241C18.7773 25.1241 18.398 24.7449 18.398 24.2787C18.398 23.8125 18.7772 23.4332 19.2435 23.4332C19.7097 23.4332 20.0889 23.8125 20.0889 24.2787C20.0889 24.7448 19.7096 25.1241 19.2435 25.1241Z" fill="#484848"/>
<path d="M26.1172 24.2786C26.1172 25.1818 26.852 25.9166 27.7552 25.9166C28.6583 25.9166 29.3932 25.1818 29.3932 24.2786C29.3932 23.3754 28.6583 22.6406 27.7552 22.6406C26.852 22.6406 26.1172 23.3754 26.1172 24.2786ZM27.7552 23.4332C28.2214 23.4332 28.6007 23.8124 28.6007 24.2786C28.6007 24.7448 28.2214 25.1241 27.7552 25.1241C27.289 25.1241 26.9097 24.7448 26.9097 24.2786C26.9097 23.8124 27.289 23.4332 27.7552 23.4332Z" fill="#484848"/>
<path d="M36.954 29.8526L35.1676 19.2142C35.1665 19.2074 35.1651 19.2007 35.1637 19.194C34.9122 17.43 33.7252 15.9867 32.1502 15.3393V14.6038C32.1502 13.9483 31.617 13.415 30.9614 13.415H29.4671C28.8116 13.415 28.2783 13.9483 28.2783 14.6038V15.3994C27.7511 15.6361 27.2651 15.9667 26.841 16.3849H20.1575C19.7334 15.9667 19.2473 15.6361 18.7201 15.3994V14.6038C18.7201 13.9483 18.1869 13.415 17.5313 13.415H16.037C15.3815 13.415 14.8482 13.9483 14.8482 14.6038V15.3394C13.2734 15.9867 12.0865 17.4298 11.8349 19.1936C11.8333 19.2004 11.832 19.2073 11.8309 19.2142L11.2555 22.6402C11.2193 22.856 11.3648 23.0604 11.5807 23.0966C11.7965 23.1327 12.0009 22.9873 12.0371 22.7714L12.6069 19.3781C12.6105 19.3636 12.6134 19.3489 12.6154 19.3339C12.8912 17.2984 14.6501 15.7635 16.7068 15.7635C17.7995 15.7635 18.8186 16.1823 19.5948 16.9446V17.4858C19.5948 18.2869 20.2466 18.9387 21.0477 18.9387H22.7067C22.9255 18.9387 23.1029 18.7613 23.1029 18.5425C23.1029 18.3236 22.9255 18.1462 22.7067 18.1462H21.0477C20.6835 18.1462 20.3873 17.8499 20.3873 17.4858V17.1773H26.6111V17.4858C26.6111 17.8499 26.3148 18.1462 25.9507 18.1462H24.2917C24.0728 18.1462 23.8954 18.3236 23.8954 18.5425C23.8954 18.7613 24.0728 18.9387 24.2917 18.9387H25.9507C26.7518 18.9387 27.4036 18.2869 27.4036 17.4858V16.9446C28.1797 16.1822 29.1989 15.7635 30.2915 15.7635C32.3482 15.7635 34.1072 17.2984 34.3829 19.3339C34.3849 19.3487 34.3877 19.3633 34.3914 19.3776L36.1724 29.9838C36.3593 31.0967 35.7619 32.1761 34.7196 32.6088C34.0957 32.8678 33.4134 32.8564 32.7984 32.5768C32.1834 32.2972 31.7263 31.7905 31.5112 31.1501L31.1465 30.064C31.0768 29.8565 30.8521 29.7446 30.6446 29.8145C30.4372 29.8841 30.3255 30.1088 30.3952 30.3162L30.7599 31.4024C31.0416 32.2411 31.665 32.9321 32.4704 33.2982C32.8897 33.4888 33.3427 33.5844 33.7962 33.5844C34.2138 33.5844 34.6317 33.5033 35.0234 33.3407C36.4085 32.7659 37.2024 31.3315 36.954 29.8526ZM15.6408 15.0894V14.6038C15.6408 14.3853 15.8185 14.2076 16.037 14.2076H17.5313C17.7499 14.2076 17.9276 14.3854 17.9276 14.6038V15.1227C17.5341 15.023 17.1251 14.971 16.7069 14.971C16.342 14.971 15.9853 15.0124 15.6408 15.0894ZM29.0709 15.1227V14.6038C29.0709 14.3853 29.2487 14.2076 29.4671 14.2076H30.9615C31.18 14.2076 31.3577 14.3854 31.3577 14.6038V15.0894C31.0132 15.0124 30.6565 14.971 30.2916 14.971C29.8734 14.971 29.4644 15.023 29.0709 15.1227Z" fill="#484848"/>
<path d="M30.6422 28.5604L29.9379 26.4634C29.8978 26.3437 29.8029 26.2503 29.6826 26.212C29.5624 26.1737 29.431 26.1949 29.3289 26.2693C28.8986 26.583 28.3894 26.7487 27.8563 26.7487C27.1698 26.7487 26.5291 26.4757 26.0523 25.98C25.9775 25.9023 25.8744 25.8584 25.7667 25.8584H21.2332C21.1255 25.8584 21.0223 25.9024 20.9476 25.98C20.4708 26.4757 19.83 26.7487 19.1435 26.7487C18.6104 26.7487 18.1012 26.5829 17.671 26.2693C17.569 26.195 17.4376 26.1737 17.3173 26.212C17.197 26.2503 17.1021 26.3437 17.062 26.4634L15.4879 31.1501C15.2729 31.7905 14.8158 32.2971 14.2008 32.5767C13.5858 32.8563 12.9035 32.8676 12.2795 32.6087C11.2372 32.1761 10.6399 31.0966 10.8267 29.9837L11.7752 24.3359C11.8114 24.1201 11.6659 23.9157 11.45 23.8795C11.2339 23.8436 11.0298 23.9888 10.9936 24.2046L10.0452 29.8525C9.79684 31.3314 10.5907 32.7658 11.9758 33.3407C12.3676 33.5033 12.7854 33.5844 13.203 33.5843C13.6564 33.5843 14.1096 33.4888 14.5289 33.2982C15.3342 32.9321 15.9576 32.241 16.2393 31.4024L17.6552 27.1866C18.1138 27.4197 18.62 27.5413 19.1436 27.5413C19.9898 27.5413 20.783 27.2264 21.3959 26.651H25.6042C26.217 27.2264 27.0102 27.5413 27.8564 27.5413C28.3801 27.5413 28.8863 27.4198 29.3449 27.1866L29.891 28.8128C29.9607 29.0202 30.1853 29.1321 30.3928 29.0623C30.6002 28.9925 30.7119 28.7679 30.6422 28.5604Z" fill="#484848"/>
<path d="M16.7395 17.4336C16.0574 17.4336 15.5025 17.9885 15.5025 18.6706V18.7603H15.4128C14.7307 18.7603 14.1758 19.3152 14.1758 19.9973C14.1758 20.6793 14.7307 21.2343 15.4128 21.2343H15.5025V21.324C15.5025 22.006 16.0574 22.561 16.7395 22.561C17.4215 22.561 17.9765 22.006 17.9765 21.324V21.2343H18.0662C18.7482 21.2343 19.3031 20.6793 19.3031 19.9973C19.3031 19.3152 18.7483 18.7603 18.0662 18.7603H17.9765V18.6706C17.9764 17.9885 17.4215 17.4336 16.7395 17.4336ZM18.0662 19.5528C18.3112 19.5528 18.5106 19.7522 18.5106 19.9973C18.5106 20.2423 18.3112 20.4417 18.0662 20.4417H17.5802C17.3613 20.4417 17.1839 20.6191 17.1839 20.838V21.324C17.1839 21.5691 16.9845 21.7684 16.7395 21.7684C16.4944 21.7684 16.295 21.569 16.295 21.324V20.838C16.295 20.6191 16.1176 20.4417 15.8987 20.4417H15.4128C15.1677 20.4417 14.9683 20.2423 14.9683 19.9973C14.9683 19.7522 15.1677 19.5528 15.4128 19.5528H15.8987C16.1176 19.5528 16.295 19.3754 16.295 19.1566V18.6706C16.295 18.4255 16.4944 18.2261 16.7395 18.2261C16.9845 18.2261 17.1839 18.4255 17.1839 18.6706V19.1566C17.1839 19.3754 17.3613 19.5528 17.5802 19.5528H18.0662Z" fill="#484848"/>
<path d="M30.5322 16.8926C29.8941 16.8926 29.375 17.4117 29.375 18.0498C29.375 18.6879 29.8941 19.207 30.5322 19.207C31.1703 19.207 31.6894 18.6879 31.6894 18.0498C31.6894 17.4117 31.1703 16.8926 30.5322 16.8926ZM30.5322 18.4145C30.3311 18.4145 30.1675 18.2509 30.1675 18.0498C30.1675 17.8488 30.3311 17.6852 30.5322 17.6852C30.7333 17.6852 30.8969 17.8488 30.8969 18.0498C30.8969 18.2509 30.7333 18.4145 30.5322 18.4145Z" fill="#484848"/>
<path d="M30.5322 20.7881C29.8941 20.7881 29.375 21.3072 29.375 21.9453C29.375 22.5833 29.8941 23.1024 30.5322 23.1024C31.1703 23.1024 31.6894 22.5833 31.6894 21.9452C31.6894 21.3072 31.1703 20.7881 30.5322 20.7881ZM30.5322 22.3099C30.3311 22.3099 30.1675 22.1463 30.1675 21.9453C30.1675 21.7442 30.3311 21.5806 30.5322 21.5806C30.7333 21.5806 30.8969 21.7443 30.8969 21.9453C30.8969 22.1463 30.7333 22.3099 30.5322 22.3099Z" fill="#484848"/>
<path d="M33.6386 19.997C33.6386 19.359 33.1195 18.8398 32.4814 18.8398C31.8433 18.8398 31.3242 19.359 31.3242 19.997C31.3242 20.6351 31.8433 21.1542 32.4814 21.1542C33.1195 21.1542 33.6386 20.6351 33.6386 19.997ZM32.1168 19.997C32.1168 19.796 32.2803 19.6324 32.4814 19.6324C32.6825 19.6324 32.8461 19.796 32.8461 19.997C32.8461 20.1981 32.6825 20.3617 32.4814 20.3617C32.2803 20.3617 32.1168 20.1981 32.1168 19.997Z" fill="#484848"/>
<path d="M27.4258 19.997C27.4258 20.6351 27.9449 21.1542 28.583 21.1542C29.2211 21.1542 29.7401 20.6351 29.7401 19.997C29.7401 19.359 29.221 18.8398 28.583 18.8398C27.9449 18.8398 27.4258 19.359 27.4258 19.997ZM28.9476 19.997C28.9476 20.1981 28.7841 20.3617 28.583 20.3617C28.3819 20.3617 28.2183 20.1981 28.2183 19.997C28.2183 19.796 28.3819 19.6324 28.583 19.6324C28.7841 19.6323 28.9476 19.796 28.9476 19.997Z" fill="#484848"/>
<path d="M22.3284 21.5317C22.5472 21.5317 22.7246 21.3544 22.7246 21.1355C22.7246 20.9167 22.5472 20.7393 22.3284 20.7393H21.1423C20.9235 20.7393 20.7461 20.9167 20.7461 21.1355C20.7461 21.3544 20.9235 21.5317 21.1423 21.5317H22.3284Z" fill="#484848"/>
<path d="M25.8557 20.7393H24.6697C24.4508 20.7393 24.2734 20.9167 24.2734 21.1355C24.2734 21.3544 24.4508 21.5317 24.6697 21.5317H25.8557C26.0746 21.5317 26.252 21.3544 26.252 21.1355C26.252 20.9166 26.0746 20.7393 25.8557 20.7393Z" fill="#484848"/>
</svg>
