<svg width="47" height="47" viewBox="0 0 47 47" fill="none" xmlns="http://www.w3.org/2000/svg">
<circle cx="23.5" cy="23.5" r="23.5" fill="#E6F9FF"/>
<g clip-path="url(#clip0_902_48962)">
<path d="M11.4062 19.4023H34.596V36.6033H11.4062V19.4023Z" fill="#E7E9FF"/>
<path d="M11.4062 19.4023H34.596V22.7727H11.4062V19.4023Z" fill="#000F8F"/>
<path d="M9.43359 15.082H36.5694V20.8721H9.43359V15.082Z" fill="#E7E9FF"/>
<path d="M23.001 17.0025C22.8245 17.2076 22.6517 17.4155 22.4829 17.6259C21.8542 18.4082 21.2787 19.2281 20.7585 20.0792C19.1066 22.7789 18.0096 25.7953 17.5469 28.952C16.8516 28.0296 16.2096 27.0315 15.6324 25.9645C14.6166 26.6272 13.6239 27.3849 12.668 28.2375C13.1589 24.8889 14.2405 21.6704 15.8467 18.7269C16.7046 17.154 17.7129 15.6595 18.8611 14.2658C18.9938 14.1039 19.1286 13.9443 19.2651 13.7852C19.8453 14.2848 20.4249 14.7843 21.0051 15.2837C21.5979 15.7943 22.1909 16.3046 22.7837 16.8158C22.8563 16.8774 22.9283 16.9402 23.001 17.0025Z" fill="#CA88FF"/>
<path d="M33.3334 28.2375C32.3774 27.3849 31.3847 26.6272 30.369 25.9645C29.7917 27.0315 29.1498 28.0296 28.4545 28.952C27.9918 25.7953 26.8948 22.7789 25.2428 20.0792C24.7227 19.2281 24.1465 18.4082 23.5185 17.6259C23.3491 17.4155 23.1762 17.2076 23 17.0025C23.0724 16.9402 23.1446 16.878 23.217 16.8158C23.8105 16.3046 24.4035 15.7936 24.9963 15.2837C25.5765 14.7836 26.1567 14.2848 26.7363 13.7852C26.8728 13.9437 27.0076 14.1039 27.1402 14.2652C28.2885 15.6589 29.2968 17.1534 30.1553 18.7269C31.7609 21.6704 32.8425 24.8889 33.3334 28.2375Z" fill="#CA88FF"/>
<path d="M30.1553 18.7264L25.2428 20.0786C24.7227 19.2276 24.1465 18.4077 23.5185 17.6254L23.217 16.8153L23 16.2311L24.9963 15.2832L27.1402 14.2646C28.2885 15.6583 29.2968 17.1528 30.1553 18.7264Z" fill="#D7A5FF"/>
<path d="M22.998 16.2314L22.7808 16.8157L22.48 17.6257C21.8513 18.408 21.2758 19.2279 20.7556 20.079L15.8438 18.7267C16.7017 17.1538 17.71 15.6593 18.8582 14.2656L21.0021 15.2835L22.998 16.2314Z" fill="#D7A5FF"/>
<path d="M30.8398 9.67303L23 13.3963L24.5058 17.4464L32.8735 15.1431C33.9681 14.8419 34.5692 13.6674 34.1736 12.6035L33.483 10.7465C33.0873 9.68243 31.865 9.18618 30.8398 9.67303Z" fill="#CA88FF"/>
<path d="M15.1592 9.67303L22.9987 13.3963L21.4929 17.4464L13.1253 15.1431C12.0309 14.8419 11.4295 13.6674 11.8251 12.6035L12.5158 10.7465C12.9114 9.68243 14.1338 9.18618 15.1592 9.67303Z" fill="#CA88FF"/>
<path d="M24.2277 12.0039H21.7693C21.0964 12.0039 20.5508 12.5493 20.5508 13.2222V16.7942C20.5508 17.4671 21.0964 18.0127 21.7693 18.0127H24.2277C24.9008 18.0127 25.4462 17.4671 25.4462 16.7942V13.2222C25.4462 12.5493 24.9006 12.0039 24.2277 12.0039Z" fill="#CA88FF"/>
<path d="M20.8398 20.8721H25.1606V36.6038H20.8398V20.8721Z" fill="#CA88FF"/>
<path d="M20.8398 20.8721H25.1606V22.7731H20.8398V20.8721Z" fill="#D7A5FF"/>
<path d="M36.568 14.6497H34.2882C34.3544 14.5568 34.4144 14.4592 34.467 14.3568C34.7686 13.7677 34.8094 13.0738 34.5789 12.453L33.888 10.5962C33.6578 9.97606 33.1739 9.47746 32.561 9.22837C31.9475 8.97907 31.2526 8.99894 30.6542 9.28306L25.1867 11.8797C24.9165 11.6865 24.586 11.5725 24.2292 11.5725H21.7709C21.4141 11.5725 21.0834 11.6868 20.8132 11.8799L15.3459 9.28285C14.7476 8.99894 14.0526 8.97907 13.4391 9.22837C12.8262 9.47746 12.3424 9.97606 12.1121 10.596L11.4212 12.4532C11.1907 13.0738 11.2315 13.7677 11.5334 14.3568C11.5857 14.4592 11.6459 14.557 11.7122 14.6497H9.43216C9.19354 14.6497 9 14.8431 9 15.0819V18.1929C9 18.4315 9.19354 18.625 9.43216 18.625C9.67078 18.625 9.86432 18.4315 9.86432 18.1929V15.5138H12.866C12.914 15.5307 12.9627 15.5463 13.0121 15.56L16.64 16.5587C15.8338 17.7941 15.1227 19.0935 14.5138 20.44H9.86432V19.9213C9.86432 19.6827 9.67078 19.4894 9.43216 19.4894C9.19354 19.4894 9 19.6827 9 19.9213V20.8722C9 21.1108 9.19354 21.3043 9.43216 21.3043H10.9732V36.6034C10.9732 36.8423 11.1668 37.0356 11.4054 37.0356H34.5947C34.8333 37.0356 35.0269 36.8423 35.0269 36.6034V34.0942C35.0269 33.8556 34.8333 33.662 34.5947 33.662C34.3559 33.662 34.1625 33.8556 34.1625 34.0942V36.1715H25.5926V21.5701C26.8167 23.8885 27.6453 26.4095 28.0266 29.0142C28.0518 29.1866 28.1783 29.327 28.3473 29.3701C28.3827 29.3793 28.4186 29.3836 28.4543 29.3836C28.5878 29.3836 28.7164 29.3216 28.7993 29.2116C29.4205 28.3874 29.9982 27.5052 30.5196 26.584C31.3929 27.1788 32.2408 27.8419 33.0453 28.5596C33.1809 28.6805 33.3779 28.7038 33.5379 28.6175C33.6979 28.5314 33.787 28.3543 33.7605 28.1745C33.4155 25.821 32.7723 23.5066 31.8605 21.3043H34.1623V32.3656C34.1623 32.6044 34.3559 32.7977 34.5945 32.7977C34.8333 32.7977 35.0267 32.6044 35.0267 32.3656V21.3043H36.568C36.8066 21.3043 36.9999 21.1108 36.9999 20.8722V15.0819C37.0001 14.8431 36.8068 14.6497 36.568 14.6497ZM31.0248 10.0636C31.4104 9.88078 31.8402 9.86839 32.2357 10.029C32.6304 10.1895 32.9295 10.4977 33.078 10.8974L33.7686 12.754C33.9173 13.1539 33.8919 13.5833 33.6975 13.9629C33.5033 14.3423 33.1698 14.6136 32.7588 14.7266L25.8799 16.6204V14.5436C27.4261 13.5968 31.2808 11.644 32.2401 12.9982C32.3779 13.1928 32.6475 13.2392 32.8424 13.1012C33.0372 12.9632 33.0833 12.6934 32.9453 12.4987C32.2049 11.4535 30.6446 11.4026 28.3073 12.3479C27.3445 12.7371 26.4556 13.2122 25.8799 13.5419V13.2229C25.8799 12.9916 25.8319 12.7711 25.7456 12.5709L31.0248 10.0636ZM21.7709 12.4366H24.2292C24.6629 12.4366 25.0156 12.7895 25.0156 13.2229V16.7949C25.0156 17.2286 24.6629 17.5813 24.2292 17.5813H21.7709C21.3372 17.5813 20.9845 17.2286 20.9845 16.7949V13.2229C20.9845 12.7893 21.3372 12.4366 21.7709 12.4366ZM21.0445 20.4398C21.4579 19.753 21.9078 19.0873 22.3919 18.4456H23.6078C24.0921 19.0873 24.542 19.753 24.9551 20.4398H21.0445ZM12.3026 13.9629C12.1082 13.5833 12.0828 13.1539 12.2313 12.7542L12.9223 10.8972C13.0706 10.4977 13.3697 10.1895 13.7645 10.029C14.1597 9.86839 14.5897 9.88078 14.9751 10.0636L20.2546 12.5714C20.1683 12.7713 20.1202 12.9916 20.1202 13.2231V13.5666C19.5464 13.2364 18.6374 12.7472 17.6501 12.3479C15.313 11.4026 13.7525 11.4535 13.0121 12.4987C12.8741 12.6934 12.9202 12.9632 13.115 13.1012C13.3099 13.2392 13.5795 13.193 13.7172 12.9982C14.6856 11.6312 18.6037 13.6337 20.1202 14.5698V16.6204L13.2415 14.7268C12.8303 14.6136 12.4968 14.3423 12.3026 13.9629ZM20.3142 17.5702C20.5293 17.9726 20.9061 18.2762 21.3575 18.3931C19.3364 21.2129 17.9451 24.4529 17.2925 27.8585C16.8334 27.1877 16.4042 26.4847 16.0114 25.7586C15.9539 25.6522 15.8548 25.5749 15.7375 25.5452C15.6204 25.5155 15.4963 25.5362 15.3953 25.6022C14.6756 26.0716 13.9708 26.5864 13.2902 27.1392C13.9911 23.4602 15.4393 19.9128 17.5159 16.7998L20.3142 17.5702ZM11.8376 21.3043H14.1396C13.2278 23.5066 12.5846 25.8208 12.2394 28.1745C12.2131 28.3543 12.302 28.5314 12.462 28.6175C12.6222 28.7036 12.819 28.6805 12.9546 28.5596C13.7591 27.8419 14.607 27.1788 15.4805 26.584C16.002 27.5052 16.5794 28.3872 17.2008 29.2116C17.2837 29.3216 17.4123 29.3838 17.5458 29.3838C17.5815 29.3838 17.6174 29.3793 17.6528 29.3701C17.8218 29.327 17.9481 29.1866 17.9733 29.0142C18.3548 26.4095 19.1835 23.8883 20.4073 21.5699V36.1715H11.8376V21.3043ZM21.2716 36.1715V21.3043H24.7285V36.1715H21.2716ZM30.6049 25.6022C30.5038 25.5362 30.3795 25.5157 30.2626 25.5454C30.1456 25.5751 30.0462 25.6524 29.9888 25.7586C29.5959 26.4847 29.1667 27.188 28.7077 27.8585C28.055 24.4527 26.6637 21.2129 24.6424 18.3933C25.0938 18.2766 25.4708 17.9729 25.686 17.5702L28.4849 16.7996C30.5611 19.9132 32.0092 23.4606 32.7101 27.1392C32.0293 26.5864 31.3246 26.0716 30.6049 25.6022ZM36.1358 20.44H31.4865C30.8777 19.0935 30.1665 17.7941 29.3605 16.5587L32.988 15.56C33.0374 15.5463 33.0861 15.5307 33.1342 15.5138H36.1358V20.44Z" fill="#484848"/>
</g>
<defs>
<clipPath id="clip0_902_48962">
<rect width="28" height="28" fill="white" transform="translate(9 9)"/>
</clipPath>
</defs>
</svg>
