<svg width="56" height="55" viewBox="0 0 56 55" fill="none" xmlns="http://www.w3.org/2000/svg">
<g clip-path="url(#clip0_580_88714)">
<path d="M54.9751 27.4993C54.9751 42.4106 42.8871 54.4986 27.9758 54.4986C13.0645 54.4986 0.976562 42.4106 0.976562 27.4993C0.976562 12.588 13.0645 0.5 27.9758 0.5C42.8871 0.5 54.9751 12.588 54.9751 27.4993Z" fill="#FFD77E" stroke="black"/>
<path d="M18.8197 29.5251C21.241 29.5251 23.2039 27.5623 23.2039 25.141C23.2039 22.7197 21.241 20.7568 18.8197 20.7568C16.3984 20.7568 14.4355 22.7197 14.4355 25.141C14.4355 27.5623 16.3984 29.5251 18.8197 29.5251Z" fill="black"/>
<path d="M37.1312 29.5251C39.5525 29.5251 41.5154 27.5623 41.5154 25.141C41.5154 22.7197 39.5525 20.7568 37.1312 20.7568C34.7099 20.7568 32.7471 22.7197 32.7471 25.141C32.7471 27.5623 34.7099 29.5251 37.1312 29.5251Z" fill="black"/>
<path d="M27.9755 41.8909C22.3259 41.8909 19.5004 37.4748 19.3828 37.2862C19.02 36.7057 19.197 35.9423 19.7761 35.5795C20.3551 35.2182 21.117 35.3923 21.4798 35.9685C21.5742 36.115 23.7307 39.4137 27.9741 39.4137C32.2174 39.4137 34.4567 35.9873 34.4784 35.9525C34.8529 35.3793 35.6206 35.2182 36.1923 35.5926C36.7656 35.967 36.9267 36.7347 36.5522 37.3065C36.4303 37.4937 33.496 41.8909 27.9726 41.8909H27.9755Z" fill="black"/>
</g>
<defs>
<clipPath id="clip0_580_88714">
<rect width="55" height="55" fill="white" transform="translate(0.476562)"/>
</clipPath>
</defs>
</svg>
