<svg width="47" height="47" viewBox="0 0 47 47" fill="none" xmlns="http://www.w3.org/2000/svg">
<circle cx="23.5" cy="23.5" r="23.5" fill="#E6F9FF"/>
<path d="M23.1946 40.0953C31.9769 40.0953 39.0963 32.9759 39.0963 24.1937C39.0963 15.4114 31.9769 8.29199 23.1946 8.29199C14.4124 8.29199 7.29297 15.4114 7.29297 24.1937C7.29297 32.9759 14.4124 40.0953 23.1946 40.0953Z" fill="#FFE093"/>
<path d="M23.1946 37.0384C14.923 37.0384 8.13297 30.7267 7.36297 22.665C7.3163 23.1667 7.29297 23.68 7.29297 24.1934C7.29297 32.9784 14.4096 40.095 23.1946 40.095C31.9796 40.095 39.0963 32.9784 39.0963 24.1934C39.0963 23.68 39.073 23.1667 39.0263 22.665C38.2563 30.7267 31.4663 37.0384 23.1946 37.0384Z" fill="#FFCA6B"/>
<path d="M12.9389 29.7233C14.7043 29.7233 16.1355 29.2166 16.1355 28.5916C16.1355 27.9666 14.7043 27.46 12.9389 27.46C11.1734 27.46 9.74219 27.9666 9.74219 28.5916C9.74219 29.2166 11.1734 29.7233 12.9389 29.7233Z" fill="#F97AA4"/>
<path d="M33.4506 29.7233C35.216 29.7233 36.6472 29.2166 36.6472 28.5916C36.6472 27.9666 35.216 27.46 33.4506 27.46C31.6851 27.46 30.2539 27.9666 30.2539 28.5916C30.2539 29.2166 31.6851 29.7233 33.4506 29.7233Z" fill="#F97AA4"/>
<path d="M20.6395 18.5469C20.6395 18.5469 19.6478 16.2486 16.4628 16.4236C13.5695 16.5752 10.1045 19.6786 11.2712 24.9286C11.2712 24.9286 11.4228 25.7336 11.9245 26.4802C12.3328 27.0986 13.0795 27.7169 13.0795 27.7169C13.0795 27.7169 15.1795 29.3969 17.1745 29.0002C19.7995 28.4752 20.6395 26.2119 20.6395 26.2119C20.6395 26.2119 21.0712 24.5552 21.0712 22.3036C21.0595 19.9236 20.6395 18.5469 20.6395 18.5469Z" fill="white"/>
<path d="M25.7598 18.5469C25.7598 18.5469 26.7515 16.2486 29.9365 16.4236C32.8298 16.5752 36.2948 19.6786 35.1281 24.9286C35.1281 24.9286 34.9765 25.7336 34.4748 26.4802C34.0665 27.0986 33.3198 27.7169 33.3198 27.7169C33.3198 27.7169 31.2198 29.3969 29.2248 29.0002C26.5998 28.4752 25.7598 26.2119 25.7598 26.2119C25.7598 26.2119 25.3281 24.5552 25.3281 22.3036C25.3281 19.9236 25.7598 18.5469 25.7598 18.5469Z" fill="white"/>
<path d="M19.0059 21.2187C18.2243 21.1137 17.9793 21.8137 17.9793 21.8137C17.9793 21.8137 17.7343 21.1137 16.9526 21.2187C16.2059 21.3121 15.9609 21.9421 15.9609 22.5954C15.9609 23.4237 16.4743 24.5671 17.9909 25.2554C19.4959 24.5787 20.0209 23.4237 20.0209 22.5954C19.9976 21.9421 19.7526 21.3121 19.0059 21.2187Z" fill="#FF0049"/>
<path d="M29.4473 21.2187C28.6657 21.1137 28.4207 21.8137 28.4207 21.8137C28.4207 21.8137 28.1757 21.1137 27.394 21.2187C26.6473 21.3121 26.4023 21.9421 26.4023 22.5954C26.4023 23.4237 26.9157 24.5671 28.4323 25.2554C29.9373 24.5787 30.4623 23.4237 30.4623 22.5954C30.439 21.9421 30.194 21.3121 29.4473 21.2187Z" fill="#FF0049"/>
<path d="M23.1942 30.8438C20.7559 30.8438 20.7676 31.7187 21.0476 33.3404C21.3276 34.9387 22.0392 37.9254 23.1942 37.9254C24.3492 37.9254 25.0609 34.9504 25.3409 33.3404C25.6209 31.7304 25.6326 30.8438 23.1942 30.8438Z" fill="#F97AA4"/>
<path d="M13.2057 12.188C13.3341 12.083 13.4741 11.978 13.6024 11.873C13.7307 11.7797 13.7541 11.593 13.6491 11.4647C13.5557 11.3364 13.3691 11.313 13.2291 11.4064C13.0891 11.5114 12.9607 11.6164 12.8207 11.733C12.6924 11.838 12.6807 12.0247 12.7857 12.153C12.9024 12.2697 13.0891 12.293 13.2057 12.188Z" fill="black"/>
<path d="M23.1933 8C20.1833 8 17.255 8.82833 14.7117 10.4033C14.5717 10.485 14.5367 10.6717 14.6183 10.8117C14.7 10.9517 14.8867 10.9867 15.015 10.905C17.465 9.38833 20.2883 8.595 23.1933 8.595C31.8383 8.595 38.8733 15.665 38.8033 24.3333C38.7333 32.8267 31.8033 39.7567 23.31 39.8267C14.6533 39.8733 7.58333 32.8383 7.58333 24.1933C7.58333 20.5417 8.86667 17.0067 11.1883 14.2067C11.2933 14.0783 11.2817 13.9033 11.1533 13.7983C11.025 13.6933 10.8383 13.705 10.745 13.8333C8.31833 16.7383 7 20.4017 7 24.1933C7 33.165 14.3383 40.4567 23.3217 40.3867C32.13 40.3167 39.3283 33.13 39.3867 24.3217C39.4567 15.3267 32.165 8 23.1933 8Z" fill="black"/>
<path d="M10.9215 24.6834C10.9565 24.8468 11.1082 24.9518 11.2715 24.9168C11.4232 24.8818 11.5282 24.7301 11.4932 24.5784C10.9565 21.8134 11.7849 19.9701 12.6015 18.8968C13.5815 17.6018 15.0282 16.7851 16.4749 16.7151C18.8665 16.5868 19.9165 17.9051 20.2432 18.4418C20.3132 18.5701 20.4765 18.6168 20.6049 18.5584C20.7682 18.4884 20.8265 18.2901 20.7449 18.1384C20.3482 17.4851 19.1232 15.9801 16.4399 16.1318C14.8182 16.2134 13.2082 17.1234 12.1349 18.5468C10.8982 20.1801 10.4782 22.3501 10.9215 24.6834Z" fill="black"/>
<path d="M20.6136 26.1888C20.4736 26.1421 20.322 26.2005 20.252 26.3288C19.9603 26.9005 19.0736 28.3121 17.1136 28.6971C15.632 28.9888 14.0453 28.0205 13.4736 27.6355C13.3453 27.5538 13.182 27.5771 13.077 27.6938C12.972 27.8221 12.9953 28.0205 13.1353 28.1138C13.6836 28.4988 15.0603 29.3388 16.5303 29.3388C16.7636 29.3388 16.997 29.3155 17.2303 29.2688C19.4353 28.8255 20.4386 27.2505 20.777 26.5855C20.847 26.4455 20.777 26.2588 20.6136 26.1888Z" fill="black"/>
<path d="M35.1167 24.9168C35.28 24.9518 35.4317 24.8468 35.4667 24.6834C35.9217 22.3501 35.49 20.1801 34.2534 18.5468C33.1684 17.1234 31.5584 16.2134 29.9484 16.1318C27.265 15.9801 26.0517 17.4851 25.6434 18.1384C25.55 18.2901 25.62 18.4884 25.7834 18.5584C25.9117 18.6168 26.075 18.5701 26.145 18.4418C26.4717 17.9051 27.5217 16.5868 29.9134 16.7151C31.36 16.7968 32.8067 17.6134 33.7867 18.9084C34.5917 19.9818 35.4317 21.8251 34.895 24.5901C34.86 24.7301 34.965 24.8818 35.1167 24.9168Z" fill="black"/>
<path d="M25.6091 26.5972C25.9474 27.2622 26.9624 28.8372 29.1557 29.2805C29.3891 29.3272 29.6224 29.3505 29.8557 29.3505C31.3257 29.3505 32.7024 28.5105 33.2507 28.1255C33.3907 28.0322 33.4141 27.8338 33.3091 27.7055C33.2157 27.5888 33.0407 27.5655 32.9124 27.6472C32.3407 28.0438 30.7541 29.0122 29.2724 28.7088C27.3124 28.3122 26.4141 26.9005 26.1341 26.3405C26.0641 26.2121 25.9124 26.1421 25.7724 26.2005C25.6091 26.2588 25.5391 26.4455 25.6091 26.5972Z" fill="black"/>
<path d="M23.195 30.5518C22.0167 30.5518 21.3284 30.7501 20.955 31.1934C20.5117 31.7184 20.605 32.4651 20.7684 33.3868C21.0834 35.1834 21.8067 38.2051 23.2067 38.2051C24.595 38.2051 25.33 35.1834 25.645 33.3868C25.8084 32.4651 25.89 31.7184 25.4584 31.1934C25.0617 30.7501 24.3734 30.5518 23.195 30.5518ZM25.05 33.2934C24.595 35.8834 23.8484 37.6334 23.195 37.6334C22.53 37.6334 21.7834 35.8951 21.34 33.2934C21.2117 32.5234 21.13 31.9051 21.3984 31.5668C21.6434 31.2751 22.2267 31.1351 23.195 31.1351C24.1517 31.1351 24.7467 31.2751 24.9917 31.5668C25.2717 31.9051 25.19 32.5234 25.05 33.2934Z" fill="black"/>
<path d="M16.3913 13.0402C16.9747 12.3052 17.5697 11.9669 18.1647 12.0135C19.1563 12.0835 19.938 13.2035 20.2413 13.7052C20.323 13.8335 20.4863 13.8802 20.6263 13.8102C20.778 13.7285 20.8363 13.5419 20.743 13.4019C20.393 12.8302 19.4713 11.5352 18.2113 11.4419C17.418 11.3835 16.648 11.8035 15.9363 12.6902C15.8313 12.8185 15.8547 13.0169 15.9947 13.1102C16.123 13.1919 16.298 13.1685 16.3913 13.0402Z" fill="black"/>
<path d="M28.1743 11.4301C26.9143 11.5235 25.9926 12.8185 25.6426 13.3901C25.5493 13.5301 25.6076 13.7285 25.7593 13.7985C25.8993 13.8685 26.0626 13.8218 26.1443 13.6935C26.4476 13.2035 27.2409 12.0835 28.2209 12.0018C28.8159 11.9551 29.4109 12.3051 29.9943 13.0285C30.0876 13.1451 30.2626 13.1801 30.3909 13.0868C30.5309 12.9935 30.5543 12.7951 30.4493 12.6668C29.7376 11.7918 28.9676 11.3718 28.1743 11.4301Z" fill="black"/>
</svg>
