<svg width="47" height="47" viewBox="0 0 47 47" fill="none" xmlns="http://www.w3.org/2000/svg">
<circle cx="23.5" cy="23.5" r="23.5" fill="#E6F9FF"/>
<path d="M23.1946 39.0953C31.9769 39.0953 39.0963 31.9759 39.0963 23.1937C39.0963 14.4114 31.9769 7.29199 23.1946 7.29199C14.4124 7.29199 7.29297 14.4114 7.29297 23.1937C7.29297 31.9759 14.4124 39.0953 23.1946 39.0953Z" fill="#FFE093"/>
<path d="M23.1946 36.0384C14.923 36.0384 8.13297 29.7267 7.36297 21.665C7.3163 22.1667 7.29297 22.68 7.29297 23.1934C7.29297 31.9784 14.4096 39.095 23.1946 39.095C31.9796 39.095 39.0963 31.9784 39.0963 23.1934C39.0963 22.68 39.073 22.1667 39.0263 21.665C38.2563 29.7267 31.4663 36.0384 23.1946 36.0384Z" fill="#FFCA6B"/>
<path d="M10.9668 27.2419C11.6949 27.2419 12.2851 27.033 12.2851 26.7753C12.2851 26.5175 11.6949 26.3086 10.9668 26.3086C10.2387 26.3086 9.64844 26.5175 9.64844 26.7753C9.64844 27.033 10.2387 27.2419 10.9668 27.2419Z" fill="#F97AA4"/>
<path d="M35.4082 27.2419C36.1363 27.2419 36.7265 27.033 36.7265 26.7753C36.7265 26.5175 36.1363 26.3086 35.4082 26.3086C34.6801 26.3086 34.0898 26.5175 34.0898 26.7753C34.0898 27.033 34.6801 27.2419 35.4082 27.2419Z" fill="#F97AA4"/>
<path d="M23.1916 36.4929C25.9916 36.4929 28.9549 30.7529 28.4766 29.1079C28.0566 27.6495 26.0266 27.2412 23.1916 27.2412C20.3566 27.2412 18.3266 27.6495 17.9066 29.1079C17.4283 30.7529 20.3916 36.4929 23.1916 36.4929Z" fill="#F97AA4"/>
<path d="M13.2057 11.188C13.3341 11.083 13.4741 10.978 13.6024 10.873C13.7307 10.7797 13.7541 10.593 13.6491 10.4647C13.5557 10.3364 13.3691 10.313 13.2291 10.4064C13.0891 10.5114 12.9607 10.6164 12.8207 10.733C12.6924 10.838 12.6807 11.0247 12.7857 11.153C12.9024 11.2697 13.0891 11.293 13.2057 11.188Z" fill="black"/>
<path d="M23.1933 7C20.1833 7 17.255 7.82833 14.7117 9.40333C14.5717 9.485 14.5367 9.67167 14.6183 9.81167C14.7 9.95167 14.8867 9.98667 15.015 9.905C17.465 8.38833 20.2883 7.595 23.1933 7.595C31.8383 7.595 38.8733 14.665 38.8033 23.3333C38.7333 31.8267 31.8033 38.7567 23.31 38.8267C14.6533 38.8733 7.58333 31.8383 7.58333 23.1933C7.58333 19.5417 8.86667 16.0067 11.1883 13.2067C11.2933 13.0783 11.2817 12.9033 11.1533 12.7983C11.025 12.6933 10.8383 12.705 10.745 12.8333C8.31833 15.7383 7 19.4017 7 23.1933C7 32.165 14.3383 39.4567 23.3217 39.3867C32.13 39.3167 39.3283 32.13 39.3867 23.3217C39.4567 14.3267 32.165 7 23.1933 7Z" fill="black"/>
<path d="M12.3541 24.7212C12.4941 24.9079 12.7741 24.8495 12.8441 24.6279L12.8558 24.5929C12.8674 24.5345 14.4424 19.0862 16.9391 19.0862C19.1091 19.0862 20.6024 23.2512 20.9524 24.3362C20.9991 24.4762 21.1508 24.5579 21.2908 24.5112L21.3258 24.4995C21.4774 24.4529 21.5591 24.3012 21.5124 24.1495C21.1391 22.9712 19.5408 18.4912 16.9508 18.4912C14.5241 18.4912 12.9841 22.3762 12.4824 23.8579L12.0508 23.2629C11.9574 23.1345 11.7941 23.1112 11.6658 23.2045L11.6424 23.2279C11.5141 23.3212 11.4908 23.4845 11.5841 23.6129L12.3541 24.7212Z" fill="black"/>
<path d="M25.0715 24.523L25.1065 24.5347C25.2465 24.5814 25.3982 24.4997 25.4448 24.348C25.9698 22.668 27.4982 19.098 29.4582 19.098C31.9548 19.098 33.5298 24.5464 33.5415 24.6047L33.5532 24.6397C33.6115 24.8614 33.9032 24.908 34.0432 24.733L34.8365 23.648C34.9298 23.5197 34.8948 23.3564 34.7782 23.263L34.7548 23.2397C34.6265 23.1464 34.4632 23.1814 34.3698 23.298L33.9382 23.893C33.4365 22.4114 31.8965 18.5264 29.4698 18.5264C26.8798 18.5264 25.2815 23.0064 24.9082 24.1847C24.8382 24.313 24.9198 24.4764 25.0715 24.523Z" fill="black"/>
<path d="M17.6292 29.0269C17.3258 30.1002 18.2242 32.5152 19.6475 34.4052C20.8025 35.9452 22.0625 36.7852 23.1942 36.7852C24.3258 36.7852 25.5858 35.9335 26.7408 34.4052C28.1642 32.5152 29.0742 30.1002 28.7592 29.0269C28.2342 27.1835 25.5042 26.9502 23.1942 26.9502C20.8842 26.9502 18.1542 27.1835 17.6292 29.0269ZM28.1992 29.1902C28.4208 29.9835 27.6508 32.2235 26.2742 34.0552C25.2242 35.4435 24.1392 36.2019 23.1942 36.2019C22.2492 36.2019 21.1525 35.4435 20.1142 34.0552C18.7375 32.2235 17.9675 29.9835 18.1892 29.1902C18.5158 28.0469 20.0675 27.5335 23.1942 27.5335C26.3325 27.5335 27.8725 28.0352 28.1992 29.1902Z" fill="black"/>
<path d="M25.1058 17.8853C25.2341 17.9553 25.3974 17.8969 25.4674 17.7686C25.8758 17.0219 26.7624 15.6219 27.5908 15.3536C27.7191 15.3069 27.8358 15.2953 27.9524 15.3186C28.0808 15.3419 28.1974 15.2836 28.2558 15.1786L28.2674 15.1436C28.3491 14.9803 28.2558 14.7819 28.0808 14.7469C27.8708 14.7003 27.6491 14.7236 27.4158 14.7936C26.3191 15.1553 25.3158 16.8353 24.9658 17.4769C24.8958 17.6169 24.9424 17.7803 25.0824 17.8503L25.1058 17.8853Z" fill="black"/>
<path d="M18.4436 15.3188C18.5603 15.2955 18.6769 15.3071 18.8053 15.3538C19.6219 15.6221 20.5203 17.0221 20.9286 17.7688C20.9986 17.8971 21.1619 17.9438 21.2903 17.8855L21.3136 17.8738C21.4536 17.8038 21.5119 17.6288 21.4303 17.5005C21.0803 16.8471 20.0769 15.1788 18.9803 14.8171C18.7469 14.7355 18.5253 14.7238 18.3153 14.7705C18.1403 14.8055 18.0353 15.0038 18.1286 15.1671L18.1403 15.2021C18.1986 15.2955 18.3153 15.3421 18.4436 15.3188Z" fill="black"/>
</svg>
