<svg width="50" height="49" viewBox="0 0 50 49" fill="none" xmlns="http://www.w3.org/2000/svg">
<circle cx="24.9766" cy="24.5" r="24.5" fill="#E6F9FF"/>
<g clip-path="url(#clip0_841_86005)">
<path d="M18.3824 21.8242L16.542 16.7266C16.4642 16.428 16.2719 16.1688 16.0038 16.0007C15.7356 15.8327 15.4113 15.7683 15.0958 15.8203C14.934 15.8535 14.7809 15.9179 14.6458 16.0097C14.5107 16.1014 14.3963 16.2186 14.3097 16.3541C14.2231 16.4896 14.166 16.6407 14.1419 16.798C14.1178 16.9554 14.1272 17.1158 14.1695 17.2696L16.0627 22.8907L18.3824 21.8242Z" fill="#FFAC96"/>
<path d="M31.6182 21.8242L33.4585 16.7266C33.5363 16.428 33.7286 16.1688 33.9968 16.0007C34.2649 15.8327 34.5892 15.7683 34.9047 15.8203C35.0665 15.8535 35.2196 15.9179 35.3547 16.0097C35.4898 16.1014 35.6042 16.2186 35.6908 16.3541C35.7774 16.4896 35.8345 16.6407 35.8586 16.798C35.8827 16.9554 35.8733 17.1158 35.831 17.2696L33.9379 22.8907L31.6182 21.8242Z" fill="#FFAC96"/>
<path d="M22.1751 23.9383L18.5839 21.9141C18.3353 21.7761 18.0441 21.727 17.7616 21.7756C17.4791 21.8241 17.2235 21.9671 17.0401 22.1793L15.7295 18.2891C15.6517 17.9905 15.4594 17.7313 15.1913 17.5632C14.9231 17.3952 14.5988 17.3308 14.2833 17.3828C14.1215 17.416 13.9684 17.4804 13.8333 17.5722C13.6982 17.6639 13.5838 17.7811 13.4972 17.9166C13.4106 18.0521 13.3535 18.2032 13.3294 18.3605C13.3053 18.5179 13.3147 18.6783 13.357 18.8321L15.1242 25.1719C15.2053 25.4684 15.3764 25.735 15.6158 25.9375L18.362 28.2852C18.5334 28.4319 18.6705 28.6118 18.7643 28.8131C18.8581 29.0144 18.9066 29.2326 18.9064 29.4532V30.7032H23.7814V26.6344C23.7815 26.0893 23.6332 25.5537 23.3514 25.0808C23.0697 24.6078 22.6641 24.214 22.1751 23.9383Z" fill="#FFBCAB"/>
<path d="M35.7169 17.3828C35.4014 17.3308 35.0771 17.3952 34.8089 17.5632C34.5407 17.7313 34.3485 17.9905 34.2706 18.2891L32.9584 22.1793C32.775 21.9671 32.5195 21.8241 32.237 21.7756C31.9544 21.727 31.6632 21.7761 31.4147 21.9141L27.8234 23.9383C27.3347 24.2142 26.9295 24.6081 26.648 25.0811C26.3665 25.554 26.2185 26.0895 26.2188 26.6344V30.7032H31.0938V29.4532C31.0936 29.2326 31.142 29.0144 31.2359 28.8131C31.3297 28.6118 31.4668 28.4319 31.6381 28.2852L34.3844 25.9375C34.6237 25.735 34.7949 25.4684 34.8759 25.1719L36.6431 18.8321C36.6854 18.6783 36.6948 18.5179 36.6707 18.3605C36.6466 18.2032 36.5895 18.0521 36.5029 17.9166C36.4163 17.7811 36.302 17.6639 36.1669 17.5722C36.0317 17.4804 35.8787 17.416 35.7169 17.3828Z" fill="#FFBCAB"/>
<path d="M25.8125 30.7031V33.8281H31.5V30.7031H31.0938H26.2188H25.8125Z" fill="#006DF0"/>
<path d="M24.1875 30.7031H23.7812H18.9062H18.5V33.8281H24.1875V30.7031Z" fill="#006DF0"/>
<path d="M30.4599 17.2501L30.1715 17.5274L24.9999 22.5001L19.8283 17.5274L19.5399 17.2501C19.1886 16.9261 18.908 16.5381 18.7147 16.1085C18.5214 15.679 18.4193 15.2167 18.4143 14.7487C18.4092 14.2807 18.5014 13.8164 18.6855 13.3832C18.8695 12.9499 19.1417 12.5563 19.486 12.2255C19.8303 11.8947 20.2398 11.6333 20.6906 11.4567C21.1413 11.2801 21.6242 11.1918 22.1109 11.197C22.5976 11.2022 23.0784 11.3008 23.5249 11.487C23.9715 11.6732 24.3749 11.9432 24.7115 12.2813L24.9999 12.5586L25.2883 12.2813C25.6249 11.9432 26.0283 11.6732 26.4749 11.487C26.9214 11.3008 27.4022 11.2022 27.8889 11.197C28.3756 11.1918 28.8585 11.2801 29.3092 11.4567C29.76 11.6333 30.1695 11.8947 30.5138 12.2255C30.8581 12.5563 31.1303 12.9499 31.3143 13.3832C31.4983 13.8164 31.5906 14.2807 31.5855 14.7487C31.5805 15.2167 31.4784 15.679 31.2851 16.1085C31.0918 16.5381 30.8112 16.9261 30.4599 17.2501Z" fill="#FF87CF"/>
<path d="M30.46 12.2813C30.0735 11.9057 29.603 11.6198 29.0844 11.4452C28.5657 11.2706 28.0125 11.2121 27.4667 11.2739C28.151 11.3468 28.7998 11.6041 29.3386 12.0161C29.8774 12.4281 30.2841 12.9781 30.512 13.6027C30.7399 14.2273 30.7797 14.901 30.6268 15.5464C30.4738 16.1918 30.1343 16.7825 29.6475 17.2505L29.3591 17.5278L24.5938 22.1094L25 22.5001L30.1716 17.5274L30.46 17.2501C31.1447 16.5909 31.5293 15.6973 31.5293 14.7657C31.5293 13.834 31.1447 12.9405 30.46 12.2813Z" fill="#EC72FF"/>
<path d="M25.8125 18.5938V17.0312H27.4375V15.4688H25.8125V13.9062H24.1875V15.4688H22.5625V17.0312H24.1875V18.5938H25.8125Z" fill="#F1F2F2"/>
<path d="M32.6352 23.1642L29.9199 24.6095C29.8422 24.6527 29.7847 24.7227 29.759 24.8053C29.7332 24.8879 29.7412 24.9769 29.7813 25.054C29.8028 25.0953 29.8328 25.1318 29.8694 25.1615C29.9061 25.1912 29.9488 25.2134 29.9947 25.2266C30.0406 25.2399 30.0889 25.2439 30.1365 25.2386C30.1842 25.2332 30.2302 25.2185 30.2717 25.1954L32.6352 23.9454C32.882 23.8079 33.0708 23.5914 33.1687 23.3338C33.2666 23.0762 33.2674 22.7938 33.1711 22.5356C33.0771 22.8004 32.8868 23.0236 32.6352 23.1642Z" fill="#FFAC96"/>
<path d="M17.3653 23.1642L20.0807 24.6095C20.1583 24.6527 20.2158 24.7227 20.2416 24.8053C20.2673 24.8879 20.2593 24.9769 20.2192 25.054C20.1978 25.0953 20.1678 25.1318 20.1311 25.1615C20.0944 25.1912 20.0518 25.2134 20.0058 25.2266C19.9599 25.2399 19.9116 25.2439 19.864 25.2386C19.8164 25.2332 19.7704 25.2185 19.7289 25.1954L17.3653 23.9454C17.1186 23.8079 16.9298 23.5914 16.8319 23.3338C16.734 23.0762 16.7331 22.7938 16.8295 22.5356C16.9235 22.8004 17.1138 23.0236 17.3653 23.1642Z" fill="#FFAC96"/>
<path d="M27.4375 15.0781H26.2188V13.9062C26.2188 13.8026 26.1759 13.7033 26.0998 13.63C26.0236 13.5568 25.9202 13.5156 25.8125 13.5156H24.1875C24.0798 13.5156 23.9764 13.5568 23.9002 13.63C23.8241 13.7033 23.7812 13.8026 23.7812 13.9062V15.0781H22.5625C22.4548 15.0781 22.3514 15.1193 22.2752 15.1925C22.1991 15.2658 22.1562 15.3651 22.1562 15.4688V17.0312C22.1562 17.1349 22.1991 17.2342 22.2752 17.3075C22.3514 17.3807 22.4548 17.4219 22.5625 17.4219H23.7812V18.5938C23.7812 18.6974 23.8241 18.7967 23.9002 18.87C23.9764 18.9432 24.0798 18.9844 24.1875 18.9844H25.8125C25.9202 18.9844 26.0236 18.9432 26.0998 18.87C26.1759 18.7967 26.2188 18.6974 26.2188 18.5938V17.4219H27.4375C27.5452 17.4219 27.6486 17.3807 27.7248 17.3075C27.8009 17.2342 27.8438 17.1349 27.8438 17.0312V15.4688C27.8438 15.3651 27.8009 15.2658 27.7248 15.1925C27.6486 15.1193 27.5452 15.0781 27.4375 15.0781ZM27.0312 16.6406H25.8125C25.7048 16.6406 25.6014 16.6818 25.5252 16.755C25.4491 16.8283 25.4062 16.9276 25.4062 17.0312V18.2031H24.5938V17.0312C24.5938 16.9276 24.5509 16.8283 24.4748 16.755C24.3986 16.6818 24.2952 16.6406 24.1875 16.6406H22.9688V15.8594H24.1875C24.2952 15.8594 24.3986 15.8182 24.4748 15.745C24.5509 15.6717 24.5938 15.5724 24.5938 15.4688V14.2969H25.4062V15.4688C25.4062 15.5724 25.4491 15.6717 25.5252 15.745C25.6014 15.8182 25.7048 15.8594 25.8125 15.8594H27.0312V16.6406Z" fill="#231F20"/>
<path d="M36.2653 17.1721C36.2735 17.1034 36.2776 17.0342 36.2775 16.9651C36.2755 16.607 36.1464 16.2604 35.9114 15.9826C35.6764 15.7048 35.3498 15.5125 34.9856 15.4377C34.5737 15.3623 34.1474 15.4402 33.7929 15.6556C33.4384 15.871 33.1823 16.2078 33.0763 16.5979L31.2887 21.5432C31.2623 21.5533 31.2365 21.565 31.2116 21.5783L27.6203 23.6018C27.0708 23.9122 26.615 24.355 26.2979 24.8867C25.9809 25.4183 25.8136 26.0202 25.8125 26.633V30.3127C25.7048 30.3127 25.6014 30.3539 25.5252 30.4271C25.4491 30.5004 25.4062 30.5997 25.4062 30.7033V33.8283C25.4062 33.9319 25.4491 34.0313 25.5252 34.1046C25.6014 34.1778 25.7048 34.219 25.8125 34.219H31.5C31.6077 34.219 31.7111 34.1778 31.7873 34.1046C31.8634 34.0313 31.9062 33.9319 31.9062 33.8283V30.7033C31.9062 30.5997 31.8634 30.5004 31.7873 30.4271C31.7111 30.3539 31.6077 30.3127 31.5 30.3127V29.4533C31.5008 29.2884 31.5373 29.1253 31.6072 28.9747C31.6772 28.824 31.779 28.689 31.9062 28.5783L34.6525 26.2307C34.9529 25.978 35.1679 25.6447 35.27 25.2737L37.0331 18.9338C37.0708 18.8014 37.0899 18.6648 37.09 18.5276C37.0884 18.2519 37.0113 17.9815 36.8666 17.7436C36.7218 17.5056 36.5144 17.3085 36.2653 17.1721ZM33.8522 16.8283C33.9021 16.6263 34.0293 16.4498 34.2085 16.334C34.3877 16.2181 34.6057 16.1715 34.8191 16.2033C35.0012 16.24 35.1646 16.3357 35.2822 16.4743C35.3998 16.6129 35.4643 16.7862 35.465 16.9651V16.9729C35.1021 16.9794 34.7514 17.0996 34.4661 17.3154C34.1808 17.5312 33.9767 17.8306 33.8847 18.1682L32.7513 21.5315C32.5796 21.4532 32.3957 21.403 32.2069 21.383L33.8522 16.8283ZM31.0938 33.4377H26.2188V31.094H31.0938V33.4377ZM36.2491 18.7307L34.4819 25.0744C34.4207 25.2949 34.2936 25.4932 34.1162 25.6448L31.3659 27.9924C31.1531 28.1769 30.9828 28.4023 30.866 28.6539C30.7491 28.9055 30.6883 29.1778 30.6875 29.4533V30.3127H26.625V26.633C26.627 26.1564 26.7576 25.6885 27.004 25.275C27.2503 24.8614 27.6041 24.5164 28.0306 24.2737L31.6178 22.2541C31.7103 22.2023 31.8125 22.1686 31.9186 22.1549C32.0247 22.1412 32.1326 22.1477 32.236 22.1742C32.3395 22.2007 32.4364 22.2466 32.5214 22.3093C32.6063 22.3719 32.6775 22.4501 32.7309 22.5393C32.8365 22.7198 32.8656 22.9324 32.8122 23.133C32.784 23.2321 32.7357 23.3248 32.6702 23.4059C32.6047 23.487 32.5232 23.5549 32.4303 23.6057L30.1025 24.8987C30.0141 24.9527 29.9508 25.0375 29.9259 25.1354C29.9009 25.2332 29.9163 25.3366 29.9687 25.4238C30.0212 25.511 30.1066 25.5754 30.2073 25.6035C30.3079 25.6315 30.4159 25.6211 30.5088 25.5744L32.8366 24.2815C33.0226 24.18 33.1857 24.0437 33.3162 23.8807C33.4466 23.7177 33.5419 23.5312 33.5962 23.3323C33.7068 22.9326 33.6484 22.5071 33.4337 22.1487L33.4094 22.1135L34.6647 18.3908C34.7146 18.1888 34.8418 18.0123 35.021 17.8965C35.2002 17.7806 35.4182 17.734 35.6316 17.7658C35.8137 17.8025 35.9771 17.8982 36.0947 18.0368C36.2123 18.1754 36.2768 18.3487 36.2775 18.5276C36.2789 18.5963 36.2693 18.6648 36.2491 18.7307Z" fill="#231F20"/>
<path d="M24.1877 30.3124V26.6327C24.1866 26.0199 24.0193 25.4179 23.7022 24.8863C23.3852 24.3547 22.9294 23.9118 22.3798 23.6014L18.7886 21.5741C18.7642 21.5624 18.7358 21.5545 18.7114 21.5428L16.9361 16.6249C16.8329 16.2291 16.5768 15.886 16.2198 15.6654C15.8628 15.4447 15.4318 15.3632 15.0145 15.4374C14.6504 15.5122 14.3237 15.7044 14.0888 15.9822C13.8538 16.26 13.7246 16.6066 13.7227 16.9647C13.7226 17.0339 13.7266 17.103 13.7348 17.1717C13.4857 17.3082 13.2783 17.5052 13.1336 17.7432C12.9888 17.9811 12.9118 18.2515 12.9102 18.5272C12.9109 18.6642 12.9287 18.8005 12.963 18.9334L14.7302 25.2694C14.8311 25.642 15.0463 25.9768 15.3477 26.2303L18.0898 28.578C18.2184 28.6879 18.3213 28.8226 18.392 28.9734C18.4627 29.1242 18.4996 29.2876 18.5002 29.453V30.3124C18.3924 30.3124 18.2891 30.3535 18.2129 30.4268C18.1367 30.5 18.0939 30.5994 18.0939 30.703V33.828C18.0939 33.9316 18.1367 34.0309 18.2129 34.1042C18.2891 34.1775 18.3924 34.2186 18.5002 34.2186H24.1877C24.2954 34.2186 24.3987 34.1775 24.4749 34.1042C24.5511 34.0309 24.5939 33.9316 24.5939 33.828V30.703C24.5939 30.5994 24.5511 30.5 24.4749 30.4268C24.3987 30.3535 24.2954 30.3124 24.1877 30.3124ZM14.5352 16.9647C14.5357 16.7864 14.5996 16.6135 14.7164 16.475C14.8331 16.3364 14.9957 16.2404 15.177 16.203C15.3963 16.1724 15.6194 16.2226 15.8018 16.3436C15.9841 16.4646 16.1121 16.6474 16.1602 16.8553L17.7933 21.3827C17.6045 21.4027 17.4205 21.4528 17.2489 21.5311L16.1236 18.1874C16.032 17.8464 15.8275 17.5435 15.5409 17.3243C15.2543 17.1051 14.9012 16.9816 14.5352 16.9725V16.9647ZM18.6302 27.992L15.8839 25.6444C15.7056 25.492 15.5783 25.2922 15.5183 25.0702L13.747 18.7303C13.7302 18.6638 13.722 18.5956 13.7227 18.5272C13.7232 18.3489 13.7871 18.176 13.9039 18.0375C14.0206 17.8989 14.1832 17.8029 14.3645 17.7655C14.5822 17.7341 14.8042 17.7831 14.9859 17.9027C15.1675 18.0222 15.2953 18.2035 15.3436 18.41L16.5908 22.1131L16.5664 22.1483C16.3517 22.5067 16.2933 22.9322 16.4039 23.3319C16.4583 23.5308 16.5535 23.7173 16.684 23.8803C16.8145 24.0433 16.9775 24.1796 17.1636 24.2811L19.4914 25.5741C19.5843 25.6208 19.6923 25.6312 19.7929 25.6031C19.8935 25.575 19.979 25.5107 20.0314 25.4234C20.0839 25.3362 20.0992 25.2329 20.0743 25.135C20.0494 25.0372 19.9861 24.9523 19.8977 24.8983L17.5698 23.6053C17.477 23.5545 17.3955 23.4867 17.33 23.4056C17.2644 23.3245 17.2162 23.2317 17.188 23.1327C17.1346 22.9321 17.1637 22.7194 17.2692 22.5389C17.3223 22.4499 17.3931 22.3718 17.4776 22.3091C17.562 22.2464 17.6585 22.2004 17.7615 22.1735C17.8645 22.1467 17.9719 22.1396 18.0778 22.1527C18.1836 22.1658 18.2857 22.1988 18.3783 22.2499L21.9695 24.2733C22.3961 24.516 22.7498 24.8611 22.9962 25.2746C23.2426 25.6881 23.3731 26.1561 23.3752 26.6327V30.3124H19.3127V29.453C19.312 29.177 19.2508 28.9043 19.1332 28.6526C19.0156 28.4009 18.8442 28.1758 18.6302 27.992ZM23.7814 33.4374H18.9064V31.0936H23.7814V33.4374Z" fill="#231F20"/>
<path d="M30.7478 12.0047C30.3707 11.6415 29.9227 11.3533 29.4296 11.1567C28.9365 10.96 28.408 10.8589 27.8741 10.8589C27.3403 10.8589 26.8117 10.9602 26.3187 11.1569C25.8256 11.3536 25.3777 11.6418 25.0006 12.0051C24.6236 11.6418 24.1757 11.3535 23.6826 11.1569C23.1896 10.9602 22.661 10.859 22.1272 10.859C21.5934 10.859 21.0648 10.9602 20.5718 11.1569C20.0787 11.3535 19.6308 11.6418 19.2538 12.0051C18.4934 12.7378 18.0664 13.7306 18.0664 14.7657C18.0664 15.8007 18.4934 16.7935 19.2538 17.5262L24.7138 22.7762C24.79 22.8494 24.8933 22.8906 25.001 22.8906C25.1087 22.8906 25.212 22.8494 25.2882 22.7762L30.7482 17.5262C31.5086 16.7934 31.9355 15.8005 31.9355 14.7654C31.9354 13.7303 31.5083 12.7374 30.7478 12.0047ZM25.0006 21.9477L19.8278 16.9739C19.3737 16.5366 19.0646 15.9797 18.9396 15.3735C18.8146 14.7674 18.8793 14.1392 19.1255 13.5684C19.3717 12.9976 19.7884 12.5098 20.3229 12.1667C20.8574 11.8235 21.4857 11.6405 22.1284 11.6407C22.5553 11.6393 22.9783 11.7196 23.3726 11.877C23.7669 12.0344 24.1246 12.2657 24.425 12.5575L24.7134 12.8348C24.7896 12.908 24.8929 12.9492 25.0006 12.9492C25.1083 12.9492 25.2116 12.908 25.2878 12.8348L25.5771 12.5567C25.8787 12.2662 26.2369 12.0357 26.6312 11.8784C27.0256 11.7211 27.4483 11.6402 27.8752 11.6402C28.3021 11.6402 28.7249 11.7211 29.1192 11.8784C29.5136 12.0357 29.8718 12.2662 30.1734 12.5567C30.7819 13.1426 31.1237 13.9368 31.1237 14.7649C31.1237 15.5929 30.7819 16.3872 30.1734 16.9731L25.0006 21.9477Z" fill="#231F20"/>
</g>
<defs>
<clipPath id="clip0_841_86005">
<rect width="26" height="25" fill="white" transform="translate(12 10)"/>
</clipPath>
</defs>
</svg>
