<svg width="47" height="47" viewBox="0 0 47 47" fill="none" xmlns="http://www.w3.org/2000/svg">
<circle cx="23.5" cy="23.5" r="23.5" fill="#E6F9FF"/>
<g clip-path="url(#clip0_902_48951)">
<path d="M10.2535 39.5299C10.2535 40.3533 9.59475 41.0121 8.77127 41.0121C7.94787 41.0121 7.28906 40.3534 7.28906 39.5299V26.1629C7.28906 25.3395 7.9478 24.6807 8.77127 24.6807C9.59467 24.6807 10.2535 25.3394 10.2535 26.1629V39.5299Z" fill="#80C3FF"/>
<path d="M8.77344 24.6807C9.59684 24.6807 10.2556 25.3394 10.2556 26.1629V39.5299C10.2556 40.3533 9.59691 41.0121 8.77344 41.0121" fill="#2A8BF4"/>
<path d="M8.77278 41.4243C7.72978 41.4243 6.87891 40.5735 6.87891 39.5305V26.1634C6.87891 25.1204 7.72978 24.2695 8.77278 24.2695C9.81578 24.2695 10.6667 25.1204 10.6667 26.1634V39.5305C10.6667 40.5735 9.81578 41.4243 8.77278 41.4243ZM8.77278 25.0929C8.16891 25.0929 7.70231 25.587 7.70231 26.1634V39.5305C7.70231 40.1343 8.19638 40.6009 8.77278 40.6009C9.34918 40.6009 9.84325 40.1069 9.84325 39.5305V26.1634C9.84325 25.587 9.37665 25.0929 8.77278 25.0929Z" fill="#33363A"/>
<path d="M8.77111 39.1734C8.55151 39.1734 8.35938 38.9813 8.35938 38.7617V38.4049C8.35938 38.1853 8.55151 37.9932 8.77111 37.9932C8.99072 37.9932 9.18285 38.1853 9.18285 38.4049V38.7617C9.18285 38.9813 9.01811 39.1734 8.77111 39.1734Z" fill="#33363A"/>
<path d="M8.77111 19.1638C8.55151 19.1638 8.35938 18.9717 8.35938 18.7521V12.9332C8.35938 12.7136 8.55151 12.5215 8.77111 12.5215C8.99072 12.5215 9.18285 12.7136 9.18285 12.9332V18.7521C9.18285 18.9992 9.01811 19.1638 8.77111 19.1638Z" fill="#33363A"/>
<path d="M8.77214 25.0377C8.38787 25.0377 8.08594 24.7358 8.08594 24.3515V19.905C8.08594 19.5207 8.38787 19.2188 8.77214 19.2188C9.15641 19.2188 9.45835 19.5207 9.45835 19.905V24.3515C9.45835 24.7083 9.15641 25.0377 8.77214 25.0377Z" fill="#33363A"/>
<path d="M8.77045 19.0544C7.50785 19.0544 6.46484 18.0114 6.46484 16.7488V13.0983C6.46484 12.8787 6.65698 12.6865 6.87658 12.6865C7.09618 12.6865 7.28832 12.8787 7.28832 13.0983V16.7488C7.28832 17.5722 7.94705 18.231 8.77053 18.231C9.594 18.231 10.2527 17.5723 10.2527 16.7488V13.0983C10.2527 12.8787 10.4449 12.6865 10.6645 12.6865C10.8841 12.6865 11.0762 12.8787 11.0762 13.0983V16.7488C11.0761 18.0389 10.0605 19.0544 8.77045 19.0544Z" fill="#33363A"/>
<path d="M10.8006 19.6579C10.8006 20.2891 10.279 20.8107 9.64776 20.8107H7.89109C7.25982 20.8107 6.73828 20.2891 6.73828 19.6579V17.5444C6.73828 16.9131 7.25982 16.3916 7.89109 16.3916H9.64776C10.279 16.3916 10.8006 16.9131 10.8006 17.5444V19.6579Z" fill="#33363A"/>
<path d="M9.64934 21.1947H7.89267C7.0418 21.1947 6.32812 20.5085 6.32812 19.6302V17.5167C6.32812 16.6658 7.01433 15.9521 7.89267 15.9521H9.64934C10.5002 15.9521 11.2139 16.6384 11.2139 17.5167V19.6302C11.2138 20.5085 10.5002 21.1947 9.64934 21.1947ZM7.89267 16.8031C7.48093 16.8031 7.1516 17.1325 7.1516 17.5442V19.6576C7.1516 20.0694 7.481 20.3987 7.89267 20.3987H9.64934C10.0611 20.3987 10.3904 20.0693 10.3904 19.6576V17.5442C10.3904 17.1324 10.061 16.8031 9.64934 16.8031H7.89267Z" fill="#33363A"/>
<path d="M40.2278 27.5075C40.2278 35.3027 33.9149 41.6157 26.1197 41.6157C18.3245 41.6157 12.0391 35.3027 12.0391 27.5075C12.0391 19.7124 18.352 13.3994 26.1197 13.3994C33.9149 13.3994 40.2278 19.7124 40.2278 27.5075Z" fill="white"/>
<path d="M26.1484 13.3994C33.9436 13.3994 40.2566 19.7124 40.2566 27.5075C40.2566 35.3027 33.9436 41.6157 26.1484 41.6157" fill="#C8DBDB"/>
<path d="M26.1486 41.9997C18.1613 41.9997 11.6562 35.4946 11.6562 27.4798C11.6562 19.4925 18.1613 12.96 26.1486 12.96C34.1359 12.96 40.6685 19.465 40.6685 27.4798C40.641 35.4946 34.1359 41.9997 26.1486 41.9997ZM26.1486 13.8109C18.6005 13.8109 12.4796 19.9592 12.4796 27.5073C12.4796 35.0554 18.6279 41.2037 26.1486 41.2037C33.6967 41.2037 39.845 35.0554 39.845 27.5073C39.8176 19.9592 33.6967 13.8109 26.1486 13.8109Z" fill="#33363A"/>
<path d="M26.1488 36.8669C31.318 36.8669 35.5085 32.6764 35.5085 27.5072C35.5085 22.3379 31.318 18.1475 26.1488 18.1475C20.9795 18.1475 16.7891 22.3379 16.7891 27.5072C16.7891 32.6764 20.9795 36.8669 26.1488 36.8669Z" fill="white"/>
<path d="M16.7891 27.5072C16.7891 22.347 20.9885 18.1475 26.1488 18.1475C31.309 18.1475 35.5085 22.3469 35.5085 27.5072" fill="#C8DBDB"/>
<path d="M26.1464 37.2791C20.7666 37.2791 16.375 32.8874 16.375 27.5077C16.375 22.1279 20.7666 17.7363 26.1464 17.7363C31.5261 17.7363 35.9177 22.1279 35.9177 27.5077C35.9177 32.8874 31.5261 37.2791 26.1464 37.2791ZM26.1464 18.5597C21.2057 18.5597 17.1984 22.5671 17.1984 27.5077C17.1984 32.4483 21.2057 36.4557 26.1464 36.4557C31.087 36.4557 35.0943 32.4483 35.0943 27.5077C35.0943 22.5671 31.087 18.5597 26.1464 18.5597Z" fill="#33363A"/>
<path d="M26.1464 33.162C29.2691 33.162 31.8006 30.6305 31.8006 27.5077C31.8006 24.385 29.2691 21.8535 26.1464 21.8535C23.0237 21.8535 20.4922 24.385 20.4922 27.5077C20.4922 30.6305 23.0237 33.162 26.1464 33.162Z" fill="#C8DBDB"/>
<path d="M26.1464 33.162C23.0174 33.162 20.4922 30.6367 20.4922 27.5077C20.4922 24.3787 23.0174 21.8535 26.1464 21.8535" fill="white"/>
<path d="M39.5971 22.1831C37.6483 13.3723 28.9474 7.82789 20.1367 9.77669L23.65 25.7238L39.5971 22.1831Z" fill="#D2FFD4"/>
<path d="M37.8389 22.5674C36.1097 14.7448 28.3695 9.80425 20.5469 11.5335L23.6759 25.6965L37.8389 22.5674Z" fill="#B5FFD9"/>
<path d="M36.744 22.8137C35.1521 15.595 28.0156 11.0387 20.7969 12.6306L23.6789 25.6958L36.744 22.8137Z" fill="#FFA3AA"/>
<path d="M23.6758 25.6961L36.7409 22.8141C35.9449 19.2184 33.7491 16.254 30.8671 14.415L23.6758 25.6961Z" fill="#FC4259"/>
<path d="M35.8382 23.0059L36.744 22.8137C35.1521 15.595 28.0156 11.0387 20.7969 12.6306L20.989 13.5364C27.6039 12.5208 33.9718 16.5831 35.8382 23.0059Z" fill="#FF8599"/>
<path d="M36.0301 20.6182C34.9596 18.0106 33.1206 15.8697 30.8425 14.415L30.1562 15.4855C32.8187 17.1872 34.8773 19.7948 35.8105 23.0062L36.7163 22.8141C36.6065 22.2651 36.4418 21.7161 36.2497 21.1947C36.1947 21.0025 36.1124 20.8103 36.0301 20.6182Z" fill="#FFA3AA"/>
<path d="M20.7656 12.6582L23.6751 25.6958L36.7402 22.8138L24.6906 24.1039L20.7656 12.6582Z" fill="#FC4259"/>
<path d="M24.6913 24.1045L23.6758 25.6965L36.7409 22.8145L24.6913 24.1045Z" fill="#FFCCD5"/>
<path d="M23.678 26.1078C23.4858 26.1078 23.3212 25.9705 23.2662 25.7784L19.753 9.83125C19.7255 9.72145 19.753 9.61165 19.8078 9.52932C19.8627 9.44699 19.9725 9.36465 20.0548 9.33719C29.0577 7.33351 38.0057 13.0427 40.0094 22.0455C40.0368 22.1553 40.0094 22.2651 39.9545 22.3474C39.8997 22.4298 39.7898 22.5121 39.7075 22.5396L23.7879 26.0528C23.7328 26.1078 23.7054 26.1078 23.678 26.1078ZM20.6312 10.1057L23.9798 25.2295L39.1036 21.8808C37.0724 13.6739 28.9205 8.48632 20.6312 10.1057Z" fill="#33363A"/>
<path d="M36.7421 23.2259C36.5499 23.2259 36.3853 23.0887 36.3303 22.8965C34.7932 15.9248 27.8489 11.5058 20.8773 13.0428C20.6577 13.0977 20.4381 12.9605 20.3832 12.7409C20.3283 12.5213 20.4655 12.3018 20.6851 12.2468C28.1235 10.5999 35.4794 15.321 37.1263 22.7319C37.1812 22.9515 37.044 23.171 36.8244 23.2259C36.7969 23.2259 36.7694 23.2259 36.7421 23.2259Z" fill="#33363A"/>
<path d="M28.3998 22.3749C28.3998 26.7391 24.859 30.2798 20.4948 30.2798C16.1306 30.2798 12.5898 26.7391 12.5898 22.3749C12.5898 18.0106 16.1306 14.4699 20.4948 14.4699C24.859 14.4424 28.3998 17.9832 28.3998 22.3749Z" fill="#A07F3C"/>
<path d="M28.3998 22.375C28.3998 26.7392 24.859 30.28 20.4948 30.28C16.1306 30.28 12.5898 26.7392 12.5898 22.375" fill="#FFE19C"/>
<path d="M20.4961 14.4424V30.2797C24.8603 30.2797 28.4011 26.739 28.4011 22.3747C28.4011 18.0105 24.8602 14.4424 20.4961 14.4424Z" fill="#FFE19C"/>
<path d="M20.4922 22.375V30.28C24.8564 30.28 28.3972 26.7392 28.3972 22.375H20.4922Z" fill="#E3D3B2"/>
<path d="M20.4924 30.6919C15.9087 30.6919 12.1758 26.959 12.1758 22.3752C12.1758 17.7915 15.9087 14.0586 20.4924 14.0586C22.7157 14.0586 24.8017 14.9369 26.3662 16.5015C27.9308 18.066 28.8091 20.152 28.8091 22.3753C28.809 26.959 25.0762 30.6919 20.4924 30.6919ZM20.4924 14.8545C16.3478 14.8545 12.9992 18.2306 12.9992 22.3478C12.9992 26.4924 16.3753 29.841 20.4924 29.841C24.637 29.841 27.9856 26.4649 27.9856 22.3478C27.9856 20.3441 27.2171 18.4502 25.7898 17.0503C24.3626 15.6505 22.4961 14.8545 20.4924 14.8545Z" fill="#33363A"/>
<path d="M20.4929 27.6996C23.4337 27.6996 25.8178 25.3156 25.8178 22.3747C25.8178 19.4338 23.4337 17.0498 20.4929 17.0498C17.552 17.0498 15.168 19.4338 15.168 22.3747C15.168 25.3156 17.552 27.6996 20.4929 27.6996Z" fill="#CB8BFF"/>
<path d="M15.168 22.3747C15.168 19.4378 17.5559 17.0498 20.4929 17.0498L15.168 22.3747Z" fill="#D198FF"/>
<path d="M15.168 22.375C15.168 25.3119 17.5559 27.6999 20.4929 27.6999C23.4298 27.6999 25.8178 25.3119 25.8178 22.375H15.168Z" fill="#CB8BFF"/>
<path d="M15.168 22.375C15.168 25.3119 17.5559 27.6999 20.4929 27.6999L15.168 22.375Z" fill="#E1BCFF"/>
<path d="M20.4922 17.0498V27.6995C23.4291 27.6995 25.8171 25.3116 25.8171 22.3746C25.7896 19.4377 23.4291 17.0498 20.4922 17.0498Z" fill="#CB8BFF"/>
<path d="M25.7897 22.3747C25.7897 19.4378 23.4018 17.0498 20.4648 17.0498L25.7897 22.3747Z" fill="#DDB3FF"/>
<path d="M20.4922 22.375V27.6999C23.4291 27.6999 25.8171 25.3119 25.8171 22.375H20.4922Z" fill="#DDB3FF"/>
<path d="M20.4922 27.6725C23.4291 27.6725 25.8171 25.2846 25.8171 22.3477L20.4922 27.6725Z" fill="#D6A3FF"/>
<path d="M20.4915 24.2692C21.5375 24.2692 22.3854 23.4213 22.3854 22.3753C22.3854 21.3294 21.5375 20.4814 20.4915 20.4814C19.4456 20.4814 18.5977 21.3294 18.5977 22.3753C18.5977 23.4213 19.4456 24.2692 20.4915 24.2692Z" fill="#E1BCFF"/>
<path d="M20.4922 24.2409C21.5352 24.2409 22.3861 23.39 22.3861 22.347C22.3861 21.304 21.5352 20.4531 20.4922 20.4531C20.4922 20.4805 20.4922 24.2409 20.4922 24.2409Z" fill="#CB8BFF"/>
<path d="M18.5977 22.3743H22.3855C22.3855 21.3313 21.5346 20.4805 20.4916 20.4805C19.4485 20.4804 18.5977 21.3313 18.5977 22.3743Z" fill="#CB8BFF"/>
<path d="M20.4922 22.3753H22.3861C22.3861 21.3323 21.5352 20.4814 20.4922 20.4814V22.3753Z" fill="#DDB3FF"/>
<path d="M20.4925 23.5007C21.114 23.5007 21.6179 22.9968 21.6179 22.3753C21.6179 21.7538 21.114 21.25 20.4925 21.25C19.871 21.25 19.3672 21.7538 19.3672 22.3753C19.3672 22.9968 19.871 23.5007 20.4925 23.5007Z" fill="#E1BCFF"/>
<path d="M21.6179 22.3744C21.6179 21.7431 21.1238 21.249 20.4925 21.249C19.8613 21.249 19.3672 21.7431 19.3672 22.3744H21.6179Z" fill="#CB8BFF"/>
<path d="M20.4936 23.4998V21.2217C19.8623 21.2217 19.3682 21.7157 19.3682 22.347C19.3408 22.9783 19.8622 23.4998 20.4936 23.4998Z" fill="#CB8BFF"/>
<path d="M20.4925 22.3745V21.2217C19.8613 21.2217 19.3672 21.7157 19.3672 22.347H20.4925V22.3745Z" fill="#DDB3FF"/>
<path d="M20.4944 28.0844C17.3379 28.0844 14.7578 25.5044 14.7578 22.3479C14.7578 19.1914 17.3379 16.6113 20.4944 16.6113C23.6508 16.6113 26.2309 19.1914 26.2309 22.3479C26.2035 25.5318 23.6508 28.0844 20.4944 28.0844ZM20.4944 17.4622C17.777 17.4622 15.5812 19.658 15.5812 22.3754C15.5812 25.0927 17.777 27.2885 20.4944 27.2885C23.2117 27.2885 25.4075 25.0927 25.4075 22.3754C25.38 19.658 23.1842 17.4622 20.4944 17.4622Z" fill="#33363A"/>
<path d="M30.4573 16.3092C29.7711 18.3678 25.8186 35.5226 27.8772 36.2088C29.9358 36.895 37.2369 20.8929 37.9231 18.8344C38.6092 16.7759 37.3192 15.129 35.2607 14.4428C33.2021 13.7565 31.171 14.2506 30.4573 16.3092Z" fill="#FFF293"/>
<path d="M30.4573 16.3085C29.7711 18.3671 25.8186 35.5219 27.8772 36.2081C29.9358 36.8943 37.2369 20.8923 37.9231 18.8337C38.6092 16.7752 36.9075 16.3085 34.8489 15.6223C32.7904 14.9086 31.171 14.2499 30.4573 16.3085Z" fill="#FFD068"/>
<path d="M30.4573 16.3086C29.7711 18.3672 25.8186 35.522 27.8772 36.2082C29.9358 36.8944 37.2369 20.8923 37.9231 18.8338" fill="#FFA953"/>
<path d="M27.8755 36.2088C26.311 35.6872 28.2049 25.7237 29.5224 20.0146L36.4117 22.3477C33.9963 27.6999 29.4401 36.7577 27.8755 36.2088Z" fill="#FFC49B"/>
<path d="M27.8772 36.2085C26.7244 35.8243 27.4655 30.1975 28.4811 24.9824L34.2451 26.9312C31.8572 31.6796 29.03 36.6202 27.8772 36.2085Z" fill="#FFCAB5"/>
<path d="M27.8755 36.2085C27.0521 35.934 27.1893 33.1069 27.6834 29.6484L32.0201 31.1306C30.3184 34.1773 28.6715 36.4829 27.8755 36.2085Z" fill="#FFC9B9"/>
<path d="M28.0393 36.6751C27.902 36.6751 27.8197 36.6477 27.7374 36.6203C27.2433 36.4556 26.0905 36.0439 27.7374 26.7116C28.5608 22.0455 29.7136 17.2422 30.0705 16.1991C30.7841 14.0856 32.925 13.2348 35.3953 14.0582C37.8656 14.8816 39.0184 16.8853 38.3048 18.9713C37.948 20.0418 35.9443 24.5432 33.7759 28.7427C30.1254 35.7968 28.698 36.6751 28.0393 36.6751ZM30.8665 16.4461C30.5097 17.4616 29.3842 22.1553 28.5608 26.7665C27.0512 35.3027 28.0119 35.8243 28.0119 35.8243C28.0119 35.8243 29.1099 35.9889 33.0897 28.3036C35.2307 24.1589 37.2069 19.7399 37.5363 18.6969C38.2225 16.6657 36.6579 15.3482 35.1209 14.8267C33.5838 14.3052 31.5527 14.415 30.8665 16.4461Z" fill="#33363A"/>
<path d="M35.3704 14.6076C35.7547 14.5252 36.0017 14.1684 35.9193 13.7842C35.6174 12.3019 36.5781 10.8473 38.0603 10.5727C38.4445 10.4904 38.6915 10.1336 38.6092 9.74934C38.5269 9.36507 38.1701 9.11807 37.7858 9.2004C35.5625 9.63954 34.1078 11.8354 34.547 14.0586C34.6293 14.4429 34.9861 14.69 35.3704 14.6076Z" fill="#92FC6B"/>
<path d="M37.9771 10.1336C38.1692 10.1061 38.3888 10.1336 38.526 10.2709C38.4162 10.4355 38.279 10.5453 38.0594 10.6003C36.5772 10.9022 35.6165 12.3295 35.9185 13.8117C36.0008 14.196 35.7538 14.5528 35.3695 14.6351C35.0951 14.69 34.8206 14.5802 34.6559 14.3606C34.5735 12.3294 35.9459 10.5179 37.9771 10.1336Z" fill="#CB8BFF"/>
<path d="M35.2307 15.0463C35.0111 15.0463 34.7915 14.9915 34.6268 14.8542C34.3798 14.6895 34.2151 14.4424 34.1602 14.1405C33.6661 11.6976 35.2581 9.2823 37.7284 8.78823C38.3323 8.67843 38.9087 9.06269 39.0185 9.66657C39.1283 10.2704 38.744 10.8468 38.1401 10.9566C36.8775 11.2036 36.0541 12.4389 36.3011 13.7014C36.356 14.0033 36.3011 14.2778 36.1365 14.5248C35.9718 14.7718 35.7247 14.9365 35.4228 14.9914C35.3679 15.0463 35.2856 15.0463 35.2307 15.0463ZM37.9205 9.61163C37.8931 9.61163 37.8931 9.61163 37.8657 9.61163C35.862 10.0234 34.5445 11.9721 34.9562 13.9758C34.9837 14.0582 35.0111 14.1131 35.066 14.168C35.1209 14.2228 35.2033 14.2228 35.2856 14.2228C35.3679 14.1954 35.4229 14.168 35.4777 14.113C35.5326 14.0582 35.5326 13.9758 35.5326 13.8934C35.2032 12.1917 36.3011 10.5174 38.0029 10.188C38.1675 10.1606 38.2499 9.9959 38.2225 9.85863C38.1676 9.69404 38.0578 9.61163 37.9205 9.61163Z" fill="#33363A"/>
<path d="M35.6976 14.47C35.9996 14.2231 36.027 13.7838 35.7525 13.4819C34.7644 12.3566 34.8742 10.5999 35.9995 9.61176C36.274 9.36476 36.3289 8.92555 36.0544 8.62362C35.8074 8.32168 35.3682 8.29421 35.0662 8.56875C33.3645 10.0784 33.1724 12.6859 34.682 14.3876C34.984 14.6897 35.4231 14.717 35.6976 14.47Z" fill="#92FC6B"/>
<path d="M35.7274 9.25455C35.8921 9.11728 36.0842 9.06241 36.2764 9.08988C36.2764 9.28202 36.194 9.47415 36.0294 9.61142C34.904 10.5996 34.7942 12.3562 35.7824 13.4816C36.0294 13.7835 36.002 14.2226 35.7275 14.4697C35.5079 14.6618 35.206 14.6893 34.959 14.5795C33.8884 12.8776 34.163 10.627 35.7274 9.25455Z" fill="#CB8BFF"/>
<path d="M35.26 15.0463C35.2325 15.0463 35.2051 15.0463 35.1777 15.0463C34.8757 15.0188 34.6013 14.8816 34.4091 14.662C33.6131 13.7562 33.2015 12.576 33.2838 11.3683C33.3661 10.1606 33.9151 9.03521 34.8209 8.23928C35.2875 7.82754 35.9737 7.88248 36.3854 8.34908C36.7971 8.81568 36.7422 9.50189 36.2756 9.91362C35.809 10.3254 35.5345 10.9018 35.4796 11.5056C35.4521 12.1368 35.6443 12.7132 36.056 13.1799C36.2481 13.3995 36.3579 13.674 36.3305 13.9759C36.303 14.2778 36.1658 14.5523 35.9462 14.7444C35.7815 14.964 35.5071 15.0463 35.26 15.0463ZM35.5619 8.81568C35.5071 8.81568 35.4247 8.84315 35.3698 8.89802C34.6287 9.55675 34.1895 10.4626 34.1072 11.4506C34.0523 12.4388 34.3542 13.3994 35.013 14.1405C35.0679 14.1954 35.1228 14.2228 35.2051 14.2503C35.2875 14.2503 35.3424 14.2228 35.4247 14.168C35.4796 14.1131 35.5071 14.0582 35.5071 13.9758C35.5071 13.8935 35.4796 13.8386 35.4247 13.7837C34.8758 13.1524 34.6013 12.329 34.6562 11.5056C34.7111 10.6547 35.0953 9.88616 35.7267 9.33722C35.8365 9.22742 35.8639 9.06276 35.7541 8.92548C35.7266 8.84308 35.6443 8.81568 35.5619 8.81568Z" fill="#33363A"/>
<path d="M35.4232 13.4269C35.1762 13.125 35.2036 12.6859 35.4781 12.4388C36.6034 11.4506 36.7132 9.69404 35.7251 8.56863C35.4781 8.2667 35.5055 7.82757 35.78 7.5805C36.0544 7.33342 36.521 7.36089 36.7681 7.63536C38.2777 9.3371 38.113 11.9721 36.3838 13.4542C36.1094 13.7563 35.6703 13.7289 35.4232 13.4269Z" fill="#92FC6B"/>
<path d="M36.083 8.29387C35.9457 8.12921 35.7536 8.07427 35.5614 8.04688C35.5339 8.23901 35.5889 8.43114 35.7261 8.59581C36.7142 9.72114 36.6044 11.4778 35.4791 12.466C35.1772 12.713 35.1497 13.1522 35.4242 13.4541C35.6164 13.6737 35.9183 13.7286 36.1653 13.6462C37.4279 12.1091 37.4553 9.83094 36.083 8.29387Z" fill="#CB8BFF"/>
<path d="M35.9459 14.0857C35.9185 14.0857 35.8911 14.0857 35.8636 14.0857C35.5617 14.0583 35.2872 13.9211 35.0951 13.7015C34.9029 13.4819 34.7931 13.2074 34.8206 12.9055C34.8481 12.6035 34.9853 12.3291 35.2049 12.1369C36.1655 11.2861 36.2753 9.80386 35.4245 8.84319C35.0127 8.37659 35.0677 7.69038 35.5343 7.27865C35.7539 7.08651 36.0283 6.97671 36.3303 7.00418C36.6322 7.03165 36.9067 7.16884 37.0988 7.38845C37.8948 8.29425 38.3065 9.47445 38.2241 10.6822C38.1418 11.8899 37.5929 13.0153 36.6871 13.8112C36.4675 14.0034 36.2204 14.0857 35.9459 14.0857ZM36.2753 7.85512C36.193 7.85512 36.1381 7.88259 36.0832 7.93746C35.9734 8.04726 35.9459 8.21192 36.0557 8.34919C37.2085 9.66666 37.0713 11.6429 35.7538 12.7957C35.644 12.9055 35.6165 13.0702 35.7263 13.2075C35.7812 13.2623 35.8361 13.2898 35.9185 13.2898C36.0008 13.2898 36.0557 13.2623 36.1106 13.2075C36.8517 12.5487 37.2909 11.6429 37.3732 10.6549C37.4555 9.66674 37.1262 8.70607 36.4674 7.965C36.44 7.88252 36.3577 7.85512 36.2753 7.85512Z" fill="#33363A"/>
<path d="M35.258 13.0977C35.1757 12.7134 35.4227 12.3566 35.807 12.2743C37.2892 11.9723 38.2498 10.5451 37.9479 9.06287C37.8656 8.6786 38.1126 8.3218 38.4968 8.23947C38.8811 8.15713 39.2379 8.40413 39.3202 8.7884C39.7594 11.0117 38.3047 13.2075 36.0814 13.6466C35.6972 13.729 35.313 13.482 35.258 13.0977Z" fill="#92FC6B"/>
<path d="M38.3872 8.98027C38.3598 8.78814 38.2226 8.62347 38.0578 8.51367C37.948 8.67834 37.8932 8.87047 37.9206 9.0626C38.2225 10.5448 37.2618 11.9995 35.7796 12.274C35.3953 12.3564 35.1483 12.7132 35.2307 13.0974C35.2855 13.3719 35.5051 13.5915 35.7796 13.6464C37.6461 12.9602 38.7989 10.9839 38.3872 8.98027Z" fill="#CB8BFF"/>
<path d="M35.9174 14.0861C35.3959 14.0861 34.9293 13.7293 34.8195 13.2078C34.7097 12.6039 35.0939 12.0275 35.6978 11.9177C36.9604 11.6707 37.7838 10.4355 37.5368 9.17295C37.427 8.56908 37.8113 7.99268 38.4152 7.88288C38.7171 7.82801 38.9916 7.88288 39.2386 8.04754C39.4856 8.21221 39.6503 8.45928 39.7052 8.76122C40.1992 11.2041 38.6072 13.6194 36.1369 14.1135C36.0822 14.0861 35.9998 14.0861 35.9174 14.0861ZM35.643 13.0431C35.6704 13.2078 35.8351 13.2901 35.9724 13.2627C37.976 12.851 39.2935 10.9022 38.8818 8.89849C38.8544 8.81615 38.827 8.76122 38.772 8.70635C38.7172 8.65149 38.6348 8.65149 38.5524 8.65149C38.3878 8.67896 38.3054 8.84362 38.3328 8.98089C38.6622 10.6826 37.5643 12.357 35.8626 12.6863C35.7253 12.7137 35.6155 12.8784 35.643 13.0431Z" fill="#33363A"/>
<path d="M34.9585 15.2662C34.6017 15.1564 34.4096 14.7447 34.5194 14.3879C35.0134 12.9606 34.2449 11.3961 32.8176 10.902C32.4608 10.7922 32.2687 10.3805 32.3785 10.0237C32.5158 9.66687 32.9 9.47474 33.2568 9.58454C35.4252 10.3256 36.578 12.6587 35.8369 14.827C35.727 15.1838 35.3428 15.376 34.9585 15.2662Z" fill="#92FC6B"/>
<path d="M32.9552 10.4621C32.7631 10.4073 32.5709 10.4347 32.4062 10.517C32.4886 10.6817 32.6259 10.8464 32.818 10.9013C34.2453 11.3953 35.0138 12.9324 34.5197 14.3872C34.4099 14.744 34.6021 15.1557 34.9589 15.2655C35.2333 15.3478 35.5078 15.2655 35.6999 15.0734C36.0293 13.0971 34.904 11.1209 32.9552 10.4621Z" fill="#CB8BFF"/>
<path d="M35.1792 15.7054C35.0694 15.7054 34.9322 15.6779 34.8224 15.6505C34.246 15.4584 33.9441 14.8271 34.1362 14.2507C34.3283 13.6743 34.3009 13.043 34.0264 12.4666C33.7519 11.9177 33.2853 11.4785 32.6815 11.2864C32.1051 11.0942 31.8031 10.463 31.9953 9.88655C32.1874 9.31015 32.8187 9.00821 33.3951 9.20035C34.5479 9.58461 35.4811 10.408 36.0026 11.506C36.5515 12.6039 36.6339 13.839 36.2222 14.9644C36.1399 15.2388 35.9203 15.4584 35.6733 15.5956C35.536 15.6779 35.3713 15.7054 35.1792 15.7054ZM33.0383 9.96881C32.9285 9.96881 32.8187 10.0511 32.7638 10.1609C32.7089 10.2982 32.7913 10.4629 32.9285 10.5177C33.7245 10.7922 34.3557 11.3411 34.74 12.1097C35.1243 12.8782 35.1791 13.7291 34.9047 14.5251C34.8498 14.6624 34.9321 14.827 35.0693 14.8819C35.1517 14.9094 35.2066 14.9094 35.2889 14.8544C35.3438 14.8269 35.3987 14.7721 35.4262 14.6898C35.7556 13.7565 35.6732 12.7409 35.2341 11.8626C34.7949 10.9843 34.0264 10.2981 33.0931 9.99613C33.0932 9.96881 33.0657 9.96881 33.0383 9.96881Z" fill="#33363A"/>
<path d="M34.9855 15.2662C35.3423 15.376 35.7541 15.1839 35.8639 14.8271C36.358 13.3998 37.895 12.6313 39.3498 13.0979C39.7066 13.2077 40.1183 13.0156 40.2281 12.6588C40.3379 12.302 40.1458 11.8902 39.789 11.7804C37.6206 11.0394 35.2876 12.2196 34.5465 14.3605C34.4366 14.7447 34.6287 15.1564 34.9855 15.2662Z" fill="#92FC6B"/>
<path d="M39.4875 12.6862C39.6797 12.741 39.817 12.9058 39.8993 13.0704C39.7346 13.1528 39.5425 13.1802 39.3504 13.1253C37.9231 12.6312 36.3585 13.3998 35.8645 14.8545C35.7547 15.2113 35.3429 15.4034 34.9861 15.2936C34.7117 15.2113 34.547 14.9642 34.5195 14.6898C35.4527 12.9058 37.5387 12.0274 39.4875 12.6862Z" fill="#CB8BFF"/>
<path d="M35.2046 15.7321C35.0948 15.7321 34.9576 15.7046 34.8478 15.6772C34.5734 15.5949 34.3538 15.3753 34.2166 15.1283C34.0793 14.8813 34.0793 14.5519 34.1617 14.2774C34.9577 11.917 37.5378 10.6269 39.9257 11.4229C40.5021 11.615 40.8041 12.2463 40.6119 12.8227C40.4198 13.3991 39.7885 13.701 39.2121 13.5089C38.0045 13.0972 36.6595 13.7559 36.2478 14.9636C36.1104 15.4302 35.6712 15.7321 35.2046 15.7321ZM35.1223 14.8812C35.2596 14.9361 35.4242 14.8538 35.4791 14.7166C36.028 13.0697 37.8396 12.1914 39.4865 12.7404C39.6237 12.7952 39.7884 12.7129 39.8433 12.5757C39.8981 12.4384 39.8158 12.2738 39.6511 12.2189C37.7023 11.5602 35.5888 12.6032 34.9301 14.552C34.9026 14.6343 34.9026 14.6893 34.9576 14.7716C34.985 14.7988 35.0399 14.8538 35.1223 14.8812Z" fill="#33363A"/>
<path d="M37.649 19.1626C37.5941 19.1626 37.5666 19.1626 37.5117 19.1351L35.7001 18.5313C35.4805 18.4489 35.3707 18.2293 35.4532 18.0097C35.5355 17.7901 35.7551 17.6803 35.9747 17.7627L37.7862 18.3666C38.0058 18.4489 38.1156 18.6685 38.0332 18.8881C37.9784 19.0528 37.8137 19.1626 37.649 19.1626Z" fill="#33363A"/>
<path d="M34.5206 18.0654C34.4658 18.0654 34.4383 18.0654 34.3834 18.038L34.0814 17.9282C33.8618 17.8458 33.752 17.6262 33.807 17.4066C33.8893 17.187 34.1089 17.0772 34.3285 17.1322L34.6305 17.242C34.8501 17.3243 34.9599 17.5439 34.9049 17.7635C34.85 17.9557 34.6853 18.0654 34.5206 18.0654Z" fill="#33363A"/>
<path d="M32.981 17.571C32.9261 17.571 32.8987 17.571 32.8437 17.5435L32.7064 17.5161C32.4868 17.4337 32.377 17.2141 32.432 16.9945C32.5143 16.7749 32.7339 16.6651 32.9535 16.7201L33.0908 16.7475C33.3104 16.8299 33.4202 17.0495 33.3653 17.2691C33.3103 17.4612 33.1456 17.571 32.981 17.571Z" fill="#33363A"/>
<path d="M31.8013 17.1589C31.7464 17.1589 31.719 17.1589 31.664 17.1314L31.5268 17.104C31.3072 17.0216 31.1973 16.802 31.2523 16.5824C31.3346 16.3628 31.5542 16.253 31.7738 16.308L31.9111 16.3354C32.1307 16.4178 32.2405 16.6374 32.1856 16.857C32.1581 17.0491 31.9934 17.1589 31.8013 17.1589Z" fill="#33363A"/>
<path d="M36.9068 21.3315C36.8519 21.3315 36.8244 21.3315 36.7695 21.3041L34.958 20.7002C34.7384 20.6179 34.6286 20.3983 34.711 20.1787C34.7933 19.9591 35.0129 19.8493 35.2325 19.9317L37.044 20.5355C37.2636 20.6179 37.3734 20.8375 37.291 21.0571C37.2362 21.2218 37.0714 21.3315 36.9068 21.3315Z" fill="#33363A"/>
<path d="M33.7785 20.2608C33.7236 20.2608 33.6961 20.2608 33.6412 20.2333L33.3393 20.1235C33.1197 20.0412 33.0098 19.8216 33.0648 19.6019C33.1471 19.3823 33.3667 19.2725 33.5863 19.3275L33.8883 19.4373C34.1079 19.5196 34.2177 19.7392 34.1627 19.9588C34.1078 20.151 33.9431 20.2608 33.7785 20.2608Z" fill="#33363A"/>
<path d="M32.2427 19.739C32.2152 19.739 32.1604 19.739 32.1054 19.7115L31.9682 19.684C31.7486 19.6292 31.6388 19.3821 31.6937 19.1625C31.7486 18.9429 31.9956 18.8331 32.2152 18.888L32.3525 18.9155C32.5721 18.9704 32.6819 19.2174 32.627 19.437C32.572 19.6292 32.4074 19.739 32.2427 19.739Z" fill="#33363A"/>
<path d="M31.0591 19.3552C31.0316 19.3552 30.9768 19.3552 30.9218 19.3277L30.7846 19.3002C30.565 19.2179 30.4552 18.9983 30.5101 18.7787C30.565 18.5591 30.812 18.4493 31.0316 18.5042L31.1689 18.5317C31.3885 18.614 31.4983 18.8336 31.4434 19.0532C31.4159 19.2454 31.2512 19.3552 31.0591 19.3552Z" fill="#33363A"/>
<path d="M36.0552 23.4722C36.0003 23.4722 35.9729 23.4722 35.9179 23.4447L34.1064 22.8408C33.8868 22.7585 33.777 22.5389 33.8594 22.3193C33.9417 22.0997 34.1613 21.9899 34.3809 22.0723L36.1925 22.6762C36.4121 22.7585 36.5219 22.9781 36.4395 23.1977C36.3845 23.3898 36.2199 23.4722 36.0552 23.4722Z" fill="#33363A"/>
<path d="M32.9269 22.4014C32.8994 22.4014 32.8446 22.4014 32.7896 22.3739L32.4877 22.2641C32.2681 22.1818 32.1583 21.9622 32.2132 21.7426C32.2956 21.523 32.5152 21.4132 32.7348 21.4681L33.0367 21.5779C33.2563 21.6602 33.3661 21.8798 33.3112 22.0994C33.2563 22.2916 33.0916 22.4014 32.9269 22.4014Z" fill="#33363A"/>
<path d="M31.3911 21.9079C31.3363 21.9079 31.3088 21.9079 31.2539 21.8805L31.1166 21.853C30.897 21.7706 30.7872 21.551 30.8421 21.3314C30.9245 21.1118 31.1441 21.002 31.3637 21.057L31.5009 21.0844C31.7205 21.1668 31.8303 21.3864 31.7754 21.606C31.7205 21.7707 31.5559 21.9079 31.3911 21.9079Z" fill="#33363A"/>
<path d="M30.2115 21.4958C30.184 21.4958 30.1291 21.4958 30.0742 21.4683L29.9369 21.4409C29.7173 21.386 29.6075 21.1389 29.6624 20.9193C29.7448 20.6997 29.9644 20.5899 30.184 20.6449L30.3213 20.6723C30.5409 20.7272 30.6507 20.9743 30.5957 21.1939C30.5683 21.386 30.4036 21.4958 30.2115 21.4958Z" fill="#33363A"/>
<path d="M35.0396 25.5581C34.9847 25.5581 34.9573 25.5581 34.9023 25.5306L33.0908 24.9268C32.8712 24.8444 32.7614 24.6248 32.8438 24.4052C32.9261 24.1856 33.1457 24.0758 33.3653 24.1582L35.1769 24.7621C35.3965 24.8444 35.5063 25.064 35.4239 25.2836C35.369 25.4758 35.2043 25.5581 35.0396 25.5581Z" fill="#33363A"/>
<path d="M31.9114 24.4883C31.8565 24.4883 31.8291 24.4883 31.7741 24.4608L31.4447 24.351C31.2251 24.2687 31.1153 24.0491 31.1703 23.8295C31.2526 23.6099 31.4722 23.5001 31.6918 23.555L32.0212 23.6648C32.2408 23.7472 32.3506 23.9668 32.2957 24.1864C32.2408 24.3785 32.0761 24.4883 31.9114 24.4883Z" fill="#33363A"/>
<path d="M30.3755 23.9939C30.3207 23.9939 30.2932 23.9939 30.2382 23.9664L30.101 23.9389C29.8814 23.8566 29.7716 23.637 29.8265 23.4174C29.9088 23.1978 30.1284 23.088 30.348 23.1429L30.4853 23.1704C30.7049 23.2527 30.8147 23.4723 30.7598 23.6919C30.7049 23.8566 30.5402 23.9939 30.3755 23.9939Z" fill="#33363A"/>
<path d="M29.1958 23.5817C29.141 23.5817 29.1135 23.5817 29.0586 23.5543L28.9213 23.5268C28.7017 23.4445 28.5919 23.2249 28.6468 23.0053C28.7292 22.7857 28.9488 22.6759 29.1684 22.7308L29.3056 22.7583C29.5252 22.8406 29.635 23.0602 29.5801 23.2798C29.5252 23.4719 29.388 23.5817 29.1958 23.5817Z" fill="#33363A"/>
<path d="M33.9962 27.6722C33.9413 27.6722 33.9139 27.6722 33.8589 27.6448L32.1572 27.0684C31.9376 26.986 31.8278 26.7664 31.9102 26.5468C31.9925 26.3272 32.2121 26.2174 32.4317 26.2998L34.1335 26.8762C34.3531 26.9586 34.4629 27.1782 34.3805 27.3978C34.3256 27.5625 34.1883 27.6722 33.9962 27.6722Z" fill="#33363A"/>
<path d="M31.0871 26.6561C31.0596 26.6561 31.0047 26.6561 30.9498 26.6287L30.6478 26.5463C30.4282 26.4915 30.3184 26.2444 30.3734 26.0248C30.4282 25.8052 30.6753 25.6954 30.8949 25.7503L31.1969 25.8327C31.4165 25.8875 31.5263 26.1346 31.4713 26.3542C31.4164 26.5463 31.2517 26.6561 31.0871 26.6561Z" fill="#33363A"/>
<path d="M29.6605 26.1901C29.6331 26.1901 29.5782 26.1901 29.5233 26.1627L29.4135 26.1352C29.1939 26.0529 29.0841 25.8333 29.139 25.6137C29.1939 25.3941 29.4409 25.2843 29.6605 25.3392L29.7703 25.3667C29.99 25.449 30.0998 25.6686 30.0448 25.8882C29.99 26.0529 29.8527 26.1901 29.6605 26.1901Z" fill="#33363A"/>
<path d="M28.5629 25.8054C28.5354 25.8054 28.4806 25.8054 28.4256 25.7779L28.3158 25.7504C28.0962 25.6681 27.9864 25.4485 28.0414 25.2289C28.0962 25.0093 28.3433 24.8995 28.5629 24.9544L28.6727 24.9819C28.8923 25.0642 29.0021 25.2838 28.9472 25.5034C28.9197 25.6956 28.755 25.8054 28.5629 25.8054Z" fill="#33363A"/>
<path d="M32.9263 29.73C32.8714 29.73 32.844 29.73 32.789 29.7025L30.9775 29.0986C30.7579 29.0163 30.6481 28.7967 30.7305 28.5771C30.8128 28.3575 31.0324 28.2477 31.252 28.3301L33.0636 28.934C33.2832 29.0163 33.393 29.2359 33.3106 29.4555C33.2557 29.6202 33.091 29.73 32.9263 29.73Z" fill="#33363A"/>
<path d="M29.798 28.6328C29.7705 28.6328 29.7157 28.6328 29.6607 28.6054L29.3588 28.4956C29.1392 28.4132 29.0294 28.1936 29.0843 27.974C29.1392 27.7544 29.3863 27.6446 29.6059 27.6996L29.9078 27.8094C30.1274 27.8917 30.2372 28.1113 30.1823 28.3309C30.1274 28.5231 29.9627 28.6328 29.798 28.6328Z" fill="#33363A"/>
<path d="M28.2622 28.1384C28.2074 28.1384 28.1799 28.1384 28.125 28.1109L27.9877 28.0835C27.7681 28.0011 27.6583 27.7815 27.7132 27.5619C27.7956 27.3423 28.0152 27.2325 28.2348 27.2874L28.372 27.3149C28.5916 27.3972 28.7014 27.6168 28.6465 27.8365C28.619 28.0286 28.4544 28.1384 28.2622 28.1384Z" fill="#33363A"/>
<path d="M31.8013 31.7886C31.7464 31.7886 31.719 31.7886 31.664 31.7611L29.8525 31.1572C29.6329 31.0749 29.5231 30.8553 29.6055 30.6357C29.6878 30.4161 29.9074 30.3063 30.127 30.3887L31.9386 30.9926C32.1582 31.0749 32.268 31.2945 32.1856 31.5141C32.1307 31.6788 31.966 31.7886 31.8013 31.7886Z" fill="#33363A"/>
<path d="M28.673 30.6914C28.6455 30.6914 28.5907 30.6914 28.5357 30.664L28.2338 30.5542C28.0142 30.4718 27.9044 30.2522 27.9593 30.0326C28.0142 29.813 28.2613 29.7032 28.4809 29.7581L28.7828 29.8679C29.0024 29.9503 29.1122 30.1699 29.0573 30.3895C29.0023 30.5816 28.8377 30.6914 28.673 30.6914Z" fill="#33363A"/>
<path d="M30.5943 33.7925C30.5394 33.7925 30.5119 33.7925 30.457 33.765L28.6455 33.1611C28.4259 33.0788 28.3161 32.8592 28.3985 32.6396C28.4808 32.42 28.7004 32.3102 28.92 32.3926L30.7315 32.9965C30.9511 33.0788 31.0609 33.2984 30.9785 33.518C30.9236 33.6827 30.7589 33.7925 30.5943 33.7925Z" fill="#33363A"/>
<path d="M27.7394 32.8047C27.6845 32.8047 27.6571 32.8047 27.6021 32.7772L27.3002 32.6674C27.0806 32.5851 26.9708 32.3655 27.0257 32.1459C27.1081 31.9263 27.3277 31.8165 27.5473 31.8714L27.8492 31.9812C28.0688 32.0636 28.1786 32.2832 28.1237 32.5028C28.0688 32.6949 27.9041 32.8047 27.7394 32.8047Z" fill="#33363A"/>
<path d="M29.2505 35.769C29.1957 35.769 29.1682 35.769 29.1133 35.7416L27.3017 35.1377C27.0821 35.0554 26.9723 34.8358 27.0547 34.6162C27.137 34.3966 27.3567 34.2868 27.5763 34.3692L29.3878 34.973C29.6074 35.0554 29.7172 35.275 29.6348 35.4946C29.5799 35.6592 29.4152 35.769 29.2505 35.769Z" fill="#33363A"/>
<path d="M36.1382 33.1894C36.1382 37.883 31.6642 38.0751 26.1472 38.0751C20.6302 38.0751 16.1562 37.883 16.1562 33.1894C16.1562 28.4959 20.6302 24.6807 26.1472 24.6807C31.6642 24.6807 36.1382 28.4959 36.1382 33.1894Z" fill="#C17E25"/>
<path d="M36.1382 33.1894C36.1382 37.883 31.6642 38.0751 26.1472 38.0751C20.6302 38.0751 16.1562 37.883 16.1562 33.1894C16.1562 28.4959 20.6302 24.6807 26.1472 24.6807C31.6642 24.6807 36.1382 28.4959 36.1382 33.1894Z" fill="white"/>
<path d="M36.1382 33.1893C36.1382 37.8828 31.6642 38.075 26.1472 38.075C20.6302 38.075 16.1562 37.8828 16.1562 33.1893C16.1562 28.4957 20.6302 33.2167 26.1472 33.2167C31.6642 33.2167 36.1382 28.4957 36.1382 33.1893Z" fill="#F4F3E9"/>
<path d="M26.1468 35.6324C21.1788 35.6324 17.0616 31.8172 16.2656 34.4521C17.0342 37.9105 21.1788 38.0478 26.1468 38.0478C31.1148 38.0478 35.232 37.8831 36.028 34.4521C35.232 31.8446 31.1148 35.6324 26.1468 35.6324Z" fill="#E0DECE"/>
<path d="M26.1488 38.4865C21.016 38.4865 15.7461 38.4865 15.7461 33.1891C15.7461 28.2759 20.4122 24.2686 26.1488 24.2686C31.8854 24.2686 36.5515 28.2759 36.5515 33.1891C36.5515 38.4865 31.2541 38.4865 26.1488 38.4865ZM26.1488 25.092C20.8514 25.092 16.5696 28.715 16.5696 33.1891C16.5696 37.3611 20.3574 37.663 26.1488 37.663C31.9402 37.663 35.728 37.3611 35.728 33.1891C35.728 28.7151 31.4462 25.092 26.1488 25.092Z" fill="#33363A"/>
<path d="M30.978 31.8167C30.978 36.3456 28.8097 36.8396 26.1472 36.8396C23.4848 36.8396 21.3164 36.3456 21.3164 31.8167C21.3164 29.4836 23.4847 27.6172 26.1472 27.6172C28.8096 27.6172 30.978 29.4837 30.978 31.8167Z" fill="#D3D1C1"/>
<path d="M30.978 31.8167C30.978 34.1497 28.8097 35.1653 26.1472 35.1653C23.4848 35.1653 21.3164 34.1497 21.3164 31.8167C21.3164 29.4836 23.4847 27.6172 26.1472 27.6172C28.8096 27.6172 30.978 29.4837 30.978 31.8167Z" fill="#FFC82E"/>
<path d="M26.1472 28.4132C28.6724 28.4132 30.7309 30.0876 30.978 32.2011C31.0054 32.0638 31.0054 31.9266 31.0054 31.7893C31.0054 29.4562 28.8371 27.5898 26.1746 27.5898C23.5122 27.5898 21.3164 29.4837 21.3164 31.7893C21.3164 31.9266 21.3164 32.0638 21.3439 32.2011C21.5634 30.0875 23.6219 28.4132 26.1472 28.4132Z" fill="#FFDD4E"/>
<path d="M30.978 31.8172C30.978 34.1503 28.8097 35.1658 26.1472 35.1658C23.4848 35.1658 21.3164 34.1503 21.3164 31.8172C21.3164 29.4841 23.4847 31.8172 26.1472 31.8172C28.8096 31.8172 30.978 29.4842 30.978 31.8172Z" fill="#FFD092"/>
<path d="M26.1487 35.5776C22.9099 35.5776 20.9062 34.1504 20.9062 31.8173C20.9062 29.2647 23.2667 27.2061 26.1487 27.2061C29.0582 27.2061 31.4187 29.2647 31.4187 31.8173C31.3912 34.1229 29.3875 35.5776 26.1487 35.5776ZM26.1487 28.0295C23.7059 28.0295 21.7297 29.7313 21.7297 31.8173C21.7297 34.5347 25.1332 34.7542 26.1487 34.7542C27.1643 34.7542 30.5953 34.5346 30.5953 31.8173C30.5678 29.7313 28.5916 28.0295 26.1487 28.0295Z" fill="#33363A"/>
<path d="M22.7449 31.0754C22.7174 31.0754 22.69 31.0754 22.6625 31.0754C22.3606 31.0206 22.141 30.746 22.1959 30.4442C22.4156 28.9071 24.5839 27.9189 25.6544 27.9189C25.9563 27.9189 26.2033 28.1659 26.2033 28.4679C26.2033 28.7698 25.9563 29.0168 25.6544 29.0168C24.9407 29.0168 23.4036 29.7305 23.2664 30.5814C23.239 30.8833 22.992 31.0754 22.7449 31.0754Z" fill="#FFF8BB"/>
<path d="M22.6629 32.3102C22.6354 32.3102 22.608 32.3102 22.5805 32.3102C22.2786 32.2553 22.059 31.9808 22.1139 31.6789C22.1688 31.3221 22.4982 31.1025 22.8001 31.1025C23.1021 31.1025 23.3491 31.3495 23.3491 31.6515C23.3491 31.8711 23.2118 32.0632 23.0471 32.1455C22.9373 32.2553 22.8001 32.3102 22.6629 32.3102Z" fill="#FFF8BB"/>
<path d="M22.7162 32.9415C22.7162 32.9415 22.6887 32.9415 22.6613 32.9415C22.5241 32.914 22.4143 32.7768 22.4417 32.6396C22.4692 32.4749 22.6064 32.3926 22.7437 32.3926C22.9083 32.3926 23.0181 32.5024 23.0181 32.667C23.0181 32.7768 22.9633 32.8592 22.8809 32.914C22.8534 32.914 22.7985 32.9415 22.7162 32.9415Z" fill="#FFF8BB"/>
</g>
<defs>
<clipPath id="clip0_902_48951">
<rect width="35" height="35" fill="white" transform="translate(6 7)"/>
</clipPath>
</defs>
</svg>
