<svg width="52" height="52" viewBox="0 0 52 52" fill="none" xmlns="http://www.w3.org/2000/svg">
<circle cx="26" cy="26" r="26" fill="#E6F9FF"/>
<g clip-path="url(#clip0_902_48944)">
<path d="M25.5 38.625C32.7487 38.625 38.625 32.7487 38.625 25.5C38.625 18.2513 32.7487 12.375 25.5 12.375C18.2513 12.375 12.375 18.2513 12.375 25.5C12.375 32.7487 18.2513 38.625 25.5 38.625Z" fill="#CBCFD7"/>
<path d="M25.5 36.4375C31.5406 36.4375 36.4375 31.5406 36.4375 25.5C36.4375 19.4594 31.5406 14.5625 25.5 14.5625C19.4594 14.5625 14.5625 19.4594 14.5625 25.5C14.5625 31.5406 19.4594 36.4375 25.5 36.4375Z" fill="#BCE4F8"/>
<path d="M15.6562 41.9062C19.2806 41.9062 22.2188 38.9681 22.2188 35.3438C22.2188 31.7194 19.2806 28.7812 15.6562 28.7812C12.0319 28.7812 9.09375 31.7194 9.09375 35.3438C9.09375 38.9681 12.0319 41.9062 15.6562 41.9062Z" fill="#B9ABA5"/>
<path d="M20.4567 30.8786C19.8574 30.2312 19.1336 29.7115 18.3287 29.3505C17.5237 28.9894 16.6542 28.7946 15.7721 28.7776C14.8901 28.7606 14.0137 28.9218 13.1954 29.2515C12.3771 29.5813 11.6338 30.0727 11.01 30.6966C10.3862 31.3204 9.89473 32.0637 9.56499 32.8819C9.23526 33.7002 9.07406 34.5766 9.09106 35.4586C9.10806 36.3407 9.30291 37.2102 9.66393 38.0152C10.025 38.8201 10.5447 39.5439 11.1921 40.1432C13.5303 39.808 15.6969 38.724 17.3672 37.0537C19.0375 35.3834 20.1215 33.2168 20.4567 30.8786Z" fill="#C7BCB7"/>
<path d="M35.3438 22.2188C38.9681 22.2188 41.9062 19.2806 41.9062 15.6562C41.9062 12.0319 38.9681 9.09375 35.3438 9.09375C31.7194 9.09375 28.7812 12.0319 28.7812 15.6562C28.7812 19.2806 31.7194 22.2188 35.3438 22.2188Z" fill="#7CB1F7"/>
<path d="M40.2649 12.1012C40.2638 11.8236 40.2472 11.5462 40.2151 11.2705C39.1494 10.0836 37.6875 9.32607 36.1034 9.13966C34.5192 8.95325 32.9214 9.35079 31.6093 10.2578C30.2972 11.1648 29.3607 12.5191 28.9754 14.067C28.5901 15.6149 28.7823 17.2501 29.5161 18.6664C30.6408 19.2454 31.8956 19.5252 33.1598 19.4791C34.4239 19.4329 35.655 19.0624 36.7345 18.403C37.8141 17.7436 38.7059 16.8176 39.3242 15.7139C39.9424 14.6103 40.2664 13.3662 40.2649 12.1012Z" fill="#96C1F9"/>
<path d="M19.0317 36.9844C18.1013 36.972 17.2138 36.5905 16.5645 35.9239C15.9153 35.2573 15.5573 34.3602 15.5695 33.4297C15.5684 32.753 15.7579 32.0896 16.1163 31.5156H16.1016C15.0863 31.5156 14.1126 31.9189 13.3947 32.6369C12.6768 33.3548 12.2734 34.3285 12.2734 35.3438C12.2734 36.359 12.6768 37.3327 13.3947 38.0506C14.1126 38.7686 15.0863 39.1719 16.1016 39.1719C16.8193 39.1672 17.5204 38.9551 18.1203 38.561C18.7203 38.167 19.1935 37.6079 19.4829 36.951C19.3334 36.9721 19.1827 36.9832 19.0317 36.9844Z" fill="#F7CA70"/>
<path d="M42.4529 15.6561C42.4516 14.0718 41.9211 12.5333 40.9456 11.2849C39.9702 10.0365 38.6056 9.14964 37.0686 8.76521C35.5317 8.38077 33.9103 8.52075 32.462 9.16292C31.0136 9.80509 29.8213 10.9126 29.0742 12.3098C26.752 11.676 24.3035 11.6674 21.977 12.285C19.6505 12.9027 17.5286 14.1244 15.8265 15.8265C14.1244 17.5286 12.9026 19.6505 12.285 21.977C11.6674 24.3036 11.6759 26.7521 12.3097 29.0742C11.3286 29.5961 10.4834 30.3408 9.84214 31.2484C9.20085 32.1561 8.78127 33.2014 8.61708 34.3005C8.45289 35.3997 8.54867 36.522 8.89672 37.5774C9.24477 38.6328 9.8354 39.592 10.6212 40.3778C11.407 41.1637 12.3661 41.7544 13.4215 42.1025C14.4769 42.4506 15.5992 42.5464 16.6984 42.3823C17.7975 42.2182 18.8429 41.7987 19.7506 41.1574C20.6582 40.5162 21.4029 39.6711 21.9249 38.6899C24.2471 39.3239 26.6957 39.3325 29.0223 38.7149C31.3489 38.0974 33.4709 36.8756 35.173 35.1735C36.8752 33.4714 38.097 31.3495 38.7147 29.0229C39.3323 26.6963 39.3238 24.2477 38.6899 21.9255C39.8258 21.3189 40.7758 20.4154 41.4385 19.3112C42.1012 18.2071 42.4518 16.9438 42.4529 15.6561ZM35.5169 22.7567C35.7128 23.4741 35.831 24.2104 35.8697 24.953H33.7029V26.0467H35.8626C35.7397 28.4188 34.8032 30.6762 33.2108 32.4386L31.901 31.1261L31.1277 31.8994L32.4402 33.2092C30.6776 34.8025 28.4196 35.7396 26.0467 35.8626V33.703H24.9529V35.8697C24.2103 35.8312 23.474 35.7128 22.7567 35.5164C22.7567 35.4585 22.7654 35.4021 22.7654 35.3436C22.7633 33.4588 22.0136 31.6517 20.6808 30.3189C19.348 28.9861 17.5409 28.2364 15.6561 28.2342C15.5976 28.2342 15.5412 28.2413 15.4827 28.243C15.2866 27.5257 15.1684 26.7894 15.13 26.0467H17.2967V24.953H15.1371C15.26 22.5809 16.1965 20.3236 17.7889 18.5611L19.0986 19.8709L19.8719 19.0976L18.5611 17.7889C20.3235 16.1965 22.5808 15.26 24.9529 15.1371V17.2967H26.0467V15.1306C26.7893 15.169 27.5256 15.2871 28.2429 15.4828C28.2429 15.5413 28.2342 15.5976 28.2342 15.6561C28.2364 17.541 28.9861 19.348 30.3189 20.6808C31.6517 22.0136 33.4587 22.7633 35.3436 22.7655C35.4021 22.7655 35.4584 22.7584 35.5169 22.7567ZM12.9217 25.4999C12.9188 23.5802 13.3559 21.6855 14.1995 19.9612C15.0432 18.2369 16.2709 16.7289 17.7883 15.5531C19.3057 14.3774 21.0724 13.5651 22.9527 13.1787C24.8331 12.7923 26.777 12.8421 28.6351 13.3242C28.5146 13.6679 28.4212 14.0204 28.3556 14.3786C26.4229 13.879 24.3932 13.8925 22.4672 14.4177C20.5413 14.9429 18.7858 15.9618 17.3743 17.3734C15.9628 18.7851 14.9442 20.5407 14.4192 22.4667C13.8941 24.3927 13.8809 26.4224 14.3808 28.3551C14.0218 28.4208 13.6686 28.5144 13.3242 28.6351C13.0589 27.6111 12.9237 26.5577 12.9217 25.4999ZM15.6561 41.3592C14.4663 41.3592 13.3032 41.0064 12.314 40.3454C11.3247 39.6844 10.5537 38.7449 10.0984 37.6457C9.64305 36.5465 9.52392 35.3369 9.75603 34.17C9.98815 33.0031 10.5611 31.9312 11.4024 31.0899C12.2437 30.2486 13.3156 29.6757 14.4825 29.4436C15.6494 29.2115 16.8589 29.3306 17.9581 29.7859C19.0574 30.2412 19.9969 31.0122 20.6579 32.0015C21.3189 32.9908 21.6717 34.1538 21.6717 35.3436C21.6698 36.9385 21.0354 38.4675 19.9077 39.5952C18.7799 40.723 17.2509 41.3574 15.6561 41.3592ZM38.0779 25.4999C38.0809 27.4195 37.6437 29.3142 36.8001 31.0385C35.9565 32.7628 34.7288 34.2708 33.2114 35.4466C31.694 36.6224 29.9272 37.4346 28.0469 37.821C26.1666 38.2074 24.2227 38.1576 22.3646 37.6755C22.4853 37.3311 22.5789 36.9779 22.6446 36.6189C24.5771 37.1188 26.6067 37.1055 28.5325 36.5805C30.4584 36.0555 32.2139 35.0369 33.6254 33.6254C35.0369 32.2139 36.0555 30.4585 36.5805 28.5326C37.1055 26.6067 37.1187 24.5772 36.6189 22.6446C36.9778 22.5789 37.3311 22.4853 37.6754 22.3646C37.9407 23.3887 38.076 24.442 38.0779 25.4999ZM35.3436 21.6717C34.1538 21.6717 32.9907 21.3189 32.0015 20.6579C31.0122 19.9969 30.2412 19.0574 29.7859 17.9582C29.3306 16.859 29.2114 15.6494 29.4435 14.4825C29.6756 13.3156 30.2486 12.2437 31.0899 11.4024C31.9312 10.5611 33.0031 9.98819 34.17 9.75608C35.3369 9.52396 36.5464 9.64309 37.6457 10.0984C38.7449 10.5537 39.6844 11.3247 40.3454 12.314C41.0064 13.3033 41.3592 14.4663 41.3592 15.6561C41.3573 17.251 40.7229 18.78 39.5952 19.9077C38.4674 21.0355 36.9384 21.6699 35.3436 21.6717Z" fill="#484848"/>
<path d="M19.9237 36.6245C19.8656 36.5463 19.7876 36.485 19.6978 36.447C19.608 36.409 19.5096 36.3957 19.413 36.4085C19.2874 36.4268 19.1608 36.4365 19.034 36.4375C18.2489 36.4241 17.5011 36.1 16.9546 35.5362C16.4081 34.9723 16.1075 34.2148 16.1186 33.4297C16.1183 32.8555 16.2792 32.2928 16.5829 31.8055C16.6334 31.7221 16.6607 31.6267 16.662 31.5292C16.6632 31.4317 16.6384 31.3356 16.59 31.2509C16.5413 31.1653 16.4709 31.0941 16.3858 31.0445C16.3007 30.995 16.204 30.9688 16.1055 30.9688C14.9451 30.9688 13.8323 31.4297 13.0119 32.2502C12.1914 33.0706 11.7305 34.1834 11.7305 35.3438C11.7305 36.5041 12.1914 37.6169 13.0119 38.4373C13.8323 39.2578 14.9451 39.7188 16.1055 39.7188C16.9279 39.7121 17.731 39.4688 18.4188 39.0179C19.1067 38.5671 19.6502 37.9278 19.9845 37.1763C20.0245 37.0873 20.04 36.9892 20.0293 36.8922C20.0186 36.7951 19.9822 36.7027 19.9237 36.6245ZM16.1055 38.625C15.2488 38.6108 14.4327 38.2573 13.8362 37.6422C13.2398 37.0271 12.9116 36.2005 12.9238 35.3438C12.9179 34.6433 13.1372 33.9595 13.5492 33.393C13.9612 32.8265 14.5442 32.4073 15.2124 32.197C15.0887 32.5962 15.0258 33.0118 15.0259 33.4297C15.0182 34.4124 15.3656 35.3649 16.0043 36.1119C16.6429 36.8589 17.5299 37.3501 18.5019 37.4952C18.2085 37.8462 17.8421 38.1292 17.4283 38.3243C17.0144 38.5194 16.563 38.622 16.1055 38.625Z" fill="#484848"/>
<path d="M34.0898 16.0429C34.1662 15.9664 34.2183 15.869 34.2394 15.7629C34.2605 15.6568 34.2496 15.5469 34.2083 15.447C34.1669 15.3471 34.0968 15.2617 34.0069 15.2016C33.917 15.1415 33.8113 15.1094 33.7031 15.1094H30.9688V16.2031H32.383L31.129 17.4571C31.0525 17.5336 31.0005 17.631 30.9794 17.7371C30.9583 17.8432 30.9691 17.9531 31.0105 18.053C31.0519 18.1529 31.1219 18.2383 31.2119 18.2984C31.3018 18.3585 31.4075 18.3906 31.5156 18.3906H34.25V17.2969H32.8358L34.0898 16.0429Z" fill="#484848"/>
<path d="M37.2108 16.2031L39.5585 13.8554C39.635 13.7789 39.687 13.6815 39.7081 13.5754C39.7292 13.4693 39.7184 13.3594 39.677 13.2595C39.6356 13.1596 39.5656 13.0742 39.4756 13.0141C39.3857 12.954 39.28 12.9219 39.1719 12.9219H35.3438V14.0156H37.8517L35.504 16.3634C35.4275 16.4398 35.3755 16.5373 35.3544 16.6433C35.3333 16.7494 35.3441 16.8593 35.3855 16.9593C35.4269 17.0592 35.4969 17.1446 35.5869 17.2047C35.6768 17.2648 35.7825 17.2969 35.8906 17.2969H39.7188V16.2031H37.2108Z" fill="#484848"/>
<path d="M26.0469 19.4844H24.9531V25.5C24.9532 25.645 25.0108 25.7841 25.1134 25.8866L28.9415 29.7148L29.7148 28.9415L26.0469 25.2736V19.4844Z" fill="#484848"/>
</g>
<defs>
<clipPath id="clip0_902_48944">
<rect width="35" height="35" fill="white" transform="translate(8 8)"/>
</clipPath>
</defs>
</svg>
