<svg width="47" height="47" viewBox="0 0 47 47" fill="none" xmlns="http://www.w3.org/2000/svg">
<circle cx="23.5" cy="23.5" r="23.5" fill="#E6F9FF"/>
<g clip-path="url(#clip0_902_91303)">
<path d="M8.6626 33.625C7.7962 33.625 7.09375 34.2861 7.09375 35.1016C7.09375 35.9172 7.7962 36.5784 8.6626 36.5784C7.7962 36.5784 7.09375 37.2395 7.09375 38.0549C7.09375 38.8706 7.7962 39.5317 8.6626 39.5317H24.2341V33.625H8.6626Z" fill="#C073FF"/>
<path d="M15.8594 39.5317H24.2362V33.625H15.0664C15.1131 35.6353 15.3289 37.7217 15.8594 39.5317Z" fill="#E4C2FF"/>
<path d="M22.665 27.7178C23.5316 27.7178 24.2341 28.3789 24.2341 29.1943C24.2341 30.01 23.5316 30.6711 22.665 30.6711C23.5316 30.6711 24.2341 31.3323 24.2341 32.1477C24.2341 32.9634 23.5316 33.6245 22.665 33.6245H10.2317C8.49866 33.6245 7.09375 32.3022 7.09375 30.6711C7.09375 29.04 8.49866 27.7178 10.2317 27.7178H22.665Z" fill="#FFD4A3"/>
<path d="M24.2346 32.1477C24.2346 31.3323 23.5321 30.6711 22.6655 30.6711C23.5321 30.6711 24.2346 30.01 24.2346 29.1943C24.2346 28.3789 23.5321 27.7178 22.6655 27.7178H15.333C15.1678 29.2761 15.0132 31.4038 15.0648 33.6245H22.6655C23.5321 33.6245 24.2346 32.9634 24.2346 32.1477Z" fill="#FFBE73"/>
<path d="M32.908 15.0566H25.0487C25.0487 15.0566 18.4641 20.1731 19.0262 29.3889C19.2055 32.323 19.3344 34.4167 19.4275 35.908C19.5541 37.9426 21.3442 39.5308 23.5097 39.5308H34.447C36.6125 39.5308 38.4026 37.9426 38.5294 35.908C38.6223 34.4167 38.7515 32.323 38.9305 29.3889C39.4928 20.1731 32.908 15.0566 32.908 15.0566ZM33.3256 27.8335C31.8771 26.9038 30.9674 25.7168 30.4504 24.8621C30.0678 24.2288 30.0956 23.4473 30.5171 22.8362L31.921 20.8008C32.4294 20.0635 33.5946 20.1255 34.0159 20.9102C35.2073 23.1296 35.5105 25.2349 35.5349 26.7117C35.5531 27.791 34.2732 28.4417 33.3256 27.8335Z" fill="#C2EAFB"/>
<path d="M27.5294 19.3406C31.3721 19.397 33.7539 18.0989 34.9645 17.1648C33.8356 15.7773 32.908 15.0566 32.908 15.0566H25.0487C25.0487 15.0566 22.7699 16.8279 21.0078 20.1616C22.4776 19.717 24.6446 19.2981 27.5294 19.3406Z" fill="#91D4F2"/>
<path d="M32.9765 14.3965H25.1172V10.1394C25.1172 9.2168 25.912 8.46875 26.8923 8.46875H31.2017C32.1819 8.46875 32.9767 9.2168 32.9767 10.1394V14.3965H32.9765Z" fill="#E4C2FF"/>
<path d="M33.131 15.7173H24.9664C24.191 15.7173 23.5625 15.126 23.5625 14.3962C23.5625 13.6667 24.191 13.0752 24.9664 13.0752H33.131C33.9061 13.0752 34.5346 13.6667 34.5346 14.3962C34.5346 15.126 33.9061 15.7173 33.131 15.7173Z" fill="#C073FF"/>
<path d="M25.2619 21.7871C24.0225 21.7871 22.9579 22.6106 22.7117 23.7537C22.4466 24.9827 22.1836 26.7222 22.1836 28.7834C22.1836 30.6006 22.2858 32.1868 22.4007 33.396C22.5346 34.8022 23.7898 35.8784 25.2902 35.8784H30.8034C32.4057 35.8784 33.7046 34.656 33.7046 33.1479V31.6646C33.7046 30.9963 33.3129 30.385 32.6888 30.0669C31.088 29.2517 28.2203 27.312 27.8569 24.0737C27.6006 21.7871 25.2619 21.7871 25.2619 21.7871Z" fill="#2EDDDA"/>
<path d="M31.0918 31.4092C30.8168 31.4092 30.5938 31.6191 30.5938 31.8779V32.6562C30.5938 32.915 30.8168 33.125 31.0918 33.125C31.367 33.125 31.5898 32.915 31.5898 32.6562V31.8779C31.5898 31.6191 31.367 31.4092 31.0918 31.4092Z" fill="#484848"/>
<path d="M24.7949 31.4092C24.5197 31.4092 24.2969 31.6191 24.2969 31.8779V32.6562C24.2969 32.915 24.5197 33.125 24.7949 33.125C25.0699 33.125 25.293 32.915 25.293 32.6562V31.8779C25.293 31.6191 25.0699 31.4092 24.7949 31.4092Z" fill="#484848"/>
<path d="M28.9718 32.0535C28.8878 32.0015 28.515 31.8665 28.2823 32.188C28.1705 32.3421 28.0082 32.3606 27.942 32.3606C27.8761 32.3606 27.7106 32.3438 27.6019 32.188C27.4507 31.9717 27.142 31.9114 26.9122 32.0535C26.6824 32.1956 26.6183 32.4864 26.7693 32.7027C27.0294 33.0757 27.4678 33.2981 27.942 33.2981C28.4162 33.2981 28.8546 33.0757 29.1148 32.7027C29.2657 32.4864 29.2019 32.1956 28.9718 32.0535Z" fill="#484848"/>
<path d="M32.9239 29.6548C29.1507 27.7329 28.4684 25.0769 28.3504 24.0244C28.1102 21.884 26.2239 21.3184 25.2599 21.3184C23.7917 21.3184 22.5139 22.3035 22.2216 23.6606C21.9762 24.7991 21.6836 26.6121 21.6836 28.7834C21.6836 30.342 21.7573 31.908 21.9028 33.4377C22.0605 35.0964 23.516 36.3472 25.2882 36.3472H30.8015C32.6759 36.3472 34.2007 34.9119 34.2007 33.1477V31.6646C34.2007 30.8262 33.7114 30.0559 32.9239 29.6548ZM33.2046 33.1477C33.2046 34.395 32.1265 35.4097 30.8015 35.4097H25.2882C24.0353 35.4097 23.0065 34.5261 22.895 33.3542C22.7521 31.8523 22.6797 30.3142 22.6797 28.7834C22.6797 26.6899 22.9614 24.9434 23.1977 23.8469C23.3964 22.925 24.2638 22.2559 25.2599 22.2559C25.3372 22.2559 27.1528 22.2771 27.3598 24.1228C27.7642 27.7258 31.0541 29.7683 32.4497 30.4792C32.9153 30.7166 33.2048 31.1707 33.2048 31.6646V33.1477H33.2046Z" fill="#484848"/>
<path d="M36.0311 26.7049C36.0073 25.2566 35.7147 23.0391 34.4587 20.6993C34.179 20.1783 33.6426 19.8484 33.0242 19.8169C32.4068 19.7852 31.838 20.0582 31.5015 20.5459L30.0976 22.5816C29.5713 23.3443 29.5399 24.3072 30.0157 25.0943C30.5493 25.9769 31.5075 27.2356 33.0431 28.2212C33.3679 28.4297 34.2008 28.7198 35.0257 28.3191C35.6631 28.0096 36.0426 27.3807 36.0311 26.7049ZM34.5534 27.4937C34.247 27.649 33.8921 27.6314 33.6045 27.4468C32.2263 26.5621 31.363 25.4271 30.8816 24.6307C30.5905 24.1495 30.6102 23.5596 30.9329 23.0921L32.3368 21.0564C32.6673 20.5633 33.3334 20.6678 33.5694 21.1219C34.7108 23.3167 35.0127 25.3697 35.0353 26.7195C35.0408 27.0486 34.8605 27.3379 34.5534 27.4937Z" fill="#484848"/>
<path d="M34.3643 15.7561C34.7723 15.4277 35.0315 14.9402 35.0315 14.3965C35.0315 13.5208 34.3594 12.7903 33.4751 12.637V10.1394C33.4751 8.95972 32.4556 8 31.2022 8H26.8928C25.6394 8 24.6197 8.95972 24.6197 10.1394V12.637C23.7357 12.7903 23.0636 13.5208 23.0636 14.3965C23.0636 14.9053 23.2905 15.3647 23.6537 15.6909C22.8073 16.5603 21.5562 18.0381 20.5043 20.0613C18.9915 22.9702 18.3267 26.1177 18.528 29.4163C18.5443 29.6853 18.5604 29.9473 18.5759 30.2024H11.286C11.0111 30.2024 10.788 30.4121 10.788 30.6711C10.788 30.9302 11.0111 31.1399 11.286 31.1399H18.6333C18.6781 31.8733 18.7191 32.5435 18.757 33.1558H10.2337C8.77817 33.1558 7.59375 32.041 7.59375 30.6711C7.59375 29.301 8.77817 28.1865 10.2337 28.1865H16.7345C17.0097 28.1865 17.2325 27.9766 17.2325 27.7178C17.2325 27.4587 17.0097 27.249 16.7345 27.249H10.2337C8.22876 27.249 6.59766 28.7842 6.59766 30.6711C6.59766 31.7231 7.10504 32.6655 7.9014 33.2937C7.1385 33.5803 6.59766 34.2822 6.59766 35.1013C6.59766 35.6912 6.87833 36.2209 7.32034 36.5779C6.87833 36.9351 6.59766 37.4646 6.59766 38.0547C6.59766 39.1272 7.52501 40 8.66455 40H34.4457C36.8719 40 38.8833 38.2148 39.0252 35.9358L39.0706 35.2085C39.0864 34.95 38.8771 34.7283 38.6024 34.7131C38.3277 34.6978 38.0921 34.8953 38.076 35.1538L38.0309 35.8811C37.9199 37.665 36.3451 39.0625 34.4457 39.0625H23.5084C21.6094 39.0625 20.0345 37.665 19.9235 35.8811C19.8846 35.2576 19.6218 30.9946 19.5222 29.3625C19.3308 26.2268 19.9624 23.2358 21.399 20.4731C22.476 18.4016 23.7691 16.9358 24.5644 16.146C24.6936 16.1721 33.3189 16.1794 33.4107 16.1665C35.2009 17.9487 38.8527 22.47 38.4319 29.3625C38.3443 30.8 38.2685 32.0359 38.2031 33.0981C38.1871 33.3564 38.3793 33.6069 38.7007 33.594C38.9624 33.5835 39.1821 33.4016 39.1974 33.1523C39.2628 32.0901 39.3385 30.854 39.4265 29.4163C39.8516 22.449 36.3163 17.7783 34.3643 15.7561ZM20.6576 39.0625H8.66455C8.07416 39.0625 7.59375 38.6104 7.59375 38.0544C7.59375 37.4988 8.07416 37.0466 8.66455 37.0466C8.93977 37.0466 9.1626 36.8369 9.1626 36.5779C9.1626 36.3188 8.93977 36.1091 8.66455 36.1091C8.07416 36.1091 7.59375 35.657 7.59375 35.1011C7.59375 34.5454 8.07416 34.0933 8.66455 34.0933H18.8148C18.8579 34.7915 18.9383 36.0515 18.9443 36.1091H11.286C11.0111 36.1091 10.788 36.3188 10.788 36.5779C10.788 36.8369 11.0111 37.0466 11.286 37.0466H19.1567C19.4416 37.8508 19.9697 38.5479 20.6576 39.0625ZM26.8928 8.9375H31.2022C31.9062 8.9375 32.479 9.47656 32.479 10.1394V12.6067H25.6158V10.1394C25.6158 9.47656 26.1885 8.9375 26.8928 8.9375ZM24.9652 15.2488C24.4659 15.2488 24.0596 14.8665 24.0596 14.3965C24.0596 13.9265 24.4659 13.5442 24.9652 13.5442H33.1298C33.6292 13.5442 34.0354 13.9265 34.0354 14.3965C34.0354 14.8665 33.6292 15.2488 33.1298 15.2488H24.9652Z" fill="#484848"/>
</g>
<defs>
<clipPath id="clip0_902_91303">
<rect width="34" height="32" fill="white" transform="translate(6 8)"/>
</clipPath>
</defs>
</svg>
