<svg width="47" height="47" viewBox="0 0 47 47" fill="none" xmlns="http://www.w3.org/2000/svg">
<circle cx="23.5" cy="23.5" r="23.5" fill="#E6F9FF"/>
<g clip-path="url(#clip0_902_48958)">
<path d="M30.0077 24.8548C28.8131 27.1243 26.0554 28.5929 22.9995 29.6143C21.7566 27.1917 21.0835 24.7002 22.3209 22.3494C23.8466 19.4508 27.4369 16.6928 30.3741 15.6045C31.4732 18.0083 31.4907 22.0376 30.0077 24.8548Z" fill="#EEBFDB"/>
<path d="M15.9918 24.8548C17.1865 27.1243 19.9442 28.5929 23 29.6143C24.243 27.1917 24.9161 24.7002 23.6787 22.3494C22.1529 19.4508 18.5626 16.6928 15.6254 15.6045C14.5264 18.0083 14.5089 22.0376 15.9918 24.8548Z" fill="#EEBFDB"/>
<path d="M35.1364 27.0424C32.9228 26.0606 30.3263 25.2783 28.3304 25.2783L23.7773 28.9805C24.3339 29.7068 25.6452 30.1935 27.196 30.1935C30.0459 30.1935 33.6272 28.7722 35.1364 27.0424Z" fill="#CCE8B0"/>
<path d="M27.1976 29.6667C25.6468 29.6667 24.4832 29.294 23.7789 28.9811L23 29.6145C23 29.6145 24.5255 30.7214 27.1976 30.7214C30.474 30.7214 33.4184 29.3758 36.2499 27.5684C35.8943 27.3892 35.5217 27.2131 35.1379 27.043C32.6463 28.5287 30.0475 29.6667 27.1976 29.6667Z" fill="#ACD980"/>
<path d="M10.8633 27.0424C13.0768 26.0606 15.6733 25.2783 17.6693 25.2783L22.2223 28.9805C21.6658 29.7068 20.3544 30.1935 18.8036 30.1935C15.9538 30.1935 12.3725 28.7722 10.8633 27.0424Z" fill="#CCE8B0"/>
<path d="M18.8023 29.6667C20.353 29.6667 21.5166 29.294 22.2209 28.9811L22.9999 29.6145C22.9999 29.6145 21.4744 30.7214 18.8023 30.7214C15.5259 30.7214 12.5814 29.3758 9.75 27.5684C10.1056 27.3892 10.4781 27.2131 10.8619 27.043C13.3536 28.5287 15.9523 29.6667 18.8023 29.6667Z" fill="#ACD980"/>
<path d="M14.7761 27.1907C17.33 28.5882 20.2776 29.0676 23 29.0868C25.5421 29.0689 29.1482 28.3925 31.1641 26.8062C33.5201 24.9523 35.4231 21.917 36.0126 18.9554C33.3916 19.1679 30.039 20.1636 27.457 21.6678C27.124 18.5604 25.156 15.0518 23 13.1865C20.8383 15.0569 18.8655 18.4996 18.5404 21.6721C15.7947 20.086 12.0909 19.0204 9.41016 18.9205C9.497 20.3626 10.1321 22.1614 11.1775 23.8522C12.0967 25.0257 13.3253 26.3967 14.7761 27.1907Z" fill="#F9DBEB"/>
<path d="M36.0109 18.9559C35.1436 21.3508 33.5184 24.4254 31.1623 26.2793C29.1465 27.8656 25.5403 28.542 22.9982 28.56C20.2758 28.5407 17.3282 28.0613 14.7744 26.6638C13.3236 25.8699 12.0879 24.789 11.1758 23.8526C11.9751 25.1455 13.0142 26.3753 14.2325 27.334C16.5129 29.1284 19.6872 29.5912 22.9982 29.6146C26.3092 29.5912 29.5624 29.0663 31.7638 27.334C34.4966 25.1836 36.4347 21.4658 36.588 18.9209C36.4003 18.9279 36.2075 18.9399 36.0109 18.9559Z" fill="#EEBFDB"/>
<path d="M20.1007 22.7163C19.6331 22.3484 19.1061 21.9993 18.5393 21.6719C18.5085 21.9723 18.4922 22.2702 18.4922 22.5641C18.4922 24.8324 19.8376 26.7737 21.7183 28.5153C22.1706 28.7689 22.7526 28.7602 22.9489 28.5586C22.7596 26.3296 22.0036 24.2138 20.1007 22.7163Z" fill="#EEBFDB"/>
<path d="M21.7188 28.5156C22.1237 28.8906 22.5529 29.2565 22.9994 29.6142C22.9954 29.261 22.9791 28.9086 22.9494 28.5589C22.5434 28.5552 22.1326 28.5414 21.7188 28.5156Z" fill="#E8A2CB"/>
<path d="M27.5071 22.5645C27.5071 22.2708 27.4899 21.9712 27.4574 21.668C26.8966 21.9947 26.3713 22.3448 25.8987 22.7167C23.9284 24.267 23.2219 26.3426 23.0469 28.5589C23.3997 28.8044 23.8361 28.7083 24.2907 28.4993C26.1664 26.7394 27.5071 24.7505 27.5071 22.5645Z" fill="#EEBFDB"/>
<path d="M23 29.6141C23.45 29.2535 23.8826 28.8816 24.2904 28.499C23.8573 28.5352 23.4396 28.5547 23.0465 28.5587C23.0189 28.9076 23.004 29.2598 23 29.6141Z" fill="#E8A2CB"/>
<path d="M23 34.1626C20.6091 34.1626 18.9369 33.6027 17.1665 33.01C15.1155 32.3232 12.9947 31.6131 9.41016 31.6131C9.18364 31.6131 9 31.436 9 31.2176C9 30.9991 9.18364 30.8221 9.41016 30.8221C13.1331 30.8221 15.4189 31.5874 17.4356 32.2627C20.7475 33.3716 21.8416 33.3716 23 33.3716C25.2525 33.3716 26.8612 32.8329 28.5643 32.2627C30.5811 31.5874 32.8669 30.8221 36.5898 30.8221C36.8164 30.8221 37 30.9991 37 31.2176C37 31.436 36.8164 31.6131 36.5898 31.6131C33.0053 31.6131 30.8845 32.3232 28.8335 33.0099C27.0631 33.6027 25.3909 34.1626 23 34.1626ZM27.1976 31.1167C25.0102 31.1167 23.5529 30.4107 23 30.0872C22.4471 30.4107 20.9898 31.1167 18.8024 31.1167C15.8726 31.1167 13.011 30.124 9.52374 27.8979C9.40272 27.8206 9.33305 27.6874 9.34054 27.5477C9.34803 27.4079 9.43159 27.2824 9.56022 27.2176C10.4274 26.7807 11.3649 26.3749 12.2964 26.0327C11.7689 25.4286 11.2776 24.7613 10.8372 24.0475C10.7213 23.8598 10.7853 23.6171 10.9799 23.5054C11.1745 23.3937 11.4263 23.4554 11.5421 23.6431C12.375 24.993 13.3956 26.1631 14.4936 27.0272C16.1483 28.3293 18.5677 29.0401 21.8671 29.1896C20.7218 28.1849 19.8619 27.2255 19.2533 26.2757C19.1342 26.0899 19.1939 25.8461 19.3866 25.7313C19.5793 25.6165 19.8321 25.6741 19.9511 25.8599C20.5429 26.7834 21.3986 27.725 22.5546 28.7224C22.4824 27.6838 22.3021 26.7853 22.0087 25.9945C21.5619 24.7904 20.8533 23.8184 19.8424 23.023C19.5478 22.7912 19.2343 22.569 18.9061 22.3569C18.9043 22.4264 18.9034 22.4956 18.9034 22.5644C18.9034 23.1377 18.9976 23.7143 19.1835 24.278C19.2521 24.4862 19.1327 24.7086 18.9169 24.7747C18.7011 24.841 18.4703 24.7258 18.4018 24.5177C18.1903 23.8763 18.0832 23.2191 18.0832 22.5644C18.0832 22.3387 18.0921 22.1095 18.1097 21.8775C15.5024 20.4132 12.2291 19.5232 9.86434 19.3426C9.98284 20.2036 10.2945 21.2001 10.7615 22.1996C10.8546 22.3987 10.7626 22.6329 10.5561 22.7227C10.3495 22.8125 10.1067 22.7237 10.0136 22.5246C9.41491 21.2433 9.06464 20.005 9.00077 18.9434C8.99404 18.832 9.03642 18.7231 9.11741 18.6435C9.19835 18.5638 9.30931 18.5211 9.42612 18.5252C10.9217 18.581 12.6768 18.9093 14.4287 19.4571C14.4602 17.9544 14.747 16.5453 15.2502 15.4448C15.3384 15.2517 15.5684 15.1596 15.7726 15.2351C16.9513 15.6719 18.2498 16.3803 19.4651 17.2468C19.4733 17.2302 19.4815 17.2136 19.4899 17.197C20.3432 15.4882 21.4926 13.9593 22.7263 12.892C22.8821 12.7572 23.1183 12.7572 23.2741 12.892C23.5265 13.1104 23.7801 13.3536 24.0277 13.6151C24.1804 13.7765 24.1687 14.0266 24.0014 14.1739C23.8341 14.3212 23.5747 14.3099 23.422 14.1486C23.2825 14.0013 23.1413 13.8606 22.9998 13.7276C21.9481 14.7112 20.9727 16.051 20.229 17.5402C19.5629 18.8739 19.138 20.2085 18.9769 21.4585C19.4786 21.7619 19.9419 22.0801 20.3613 22.41C21.846 23.5783 22.6139 25.0214 23.0078 26.4296C23.4791 24.7516 24.3513 23.4235 25.6392 22.41C25.8147 22.272 26.0731 22.2971 26.2163 22.4664C26.3596 22.6356 26.3334 22.8848 26.1579 23.0229C24.5298 24.304 23.639 26.1727 23.4484 28.7181C25.9017 26.5879 27.0969 24.569 27.0969 22.5643C27.0969 20.4127 26.1052 17.695 24.5088 15.4719C24.3799 15.2924 24.4263 15.0459 24.6125 14.9216C24.7987 14.7972 25.0543 14.842 25.1832 15.0216C25.6954 15.7348 26.1458 16.487 26.5256 17.2538C27.7436 16.3841 29.0458 15.6731 30.2278 15.2351C30.4322 15.1595 30.6619 15.2517 30.7503 15.4448C31.2548 16.5482 31.5419 17.9619 31.5719 19.4691C33.3022 18.925 35.0666 18.5814 36.5743 18.5251C36.6892 18.521 36.802 18.5638 36.883 18.6434C36.964 18.7231 37.0064 18.8319 36.9997 18.9433C36.9189 20.284 36.3994 21.8803 35.5368 23.4379C35.0138 24.3823 34.3978 25.2577 33.7125 26.0356C34.6412 26.3773 35.5757 26.7818 36.4402 27.2174C36.5688 27.2822 36.6524 27.4078 36.6599 27.5475C36.6674 27.6873 36.5977 27.8205 36.4766 27.8977C35.9063 28.2618 35.3739 28.5807 34.8491 28.8726C34.6528 28.9817 34.4021 28.9169 34.2889 28.7277C34.1757 28.5385 34.243 28.2967 34.4392 28.1875C34.7626 28.0076 35.0893 27.8169 35.4268 27.611C34.6793 27.2614 33.8946 26.94 33.1201 26.6665C32.769 27.017 32.4032 27.3424 32.0254 27.6398C29.9091 29.305 27.0804 29.81 24.7008 29.9553C25.343 30.1563 26.1845 30.3254 27.1979 30.3254C29.025 30.3254 30.8677 29.8925 32.8311 29.0019C33.0359 28.9089 33.2804 28.9938 33.3768 29.1914C33.4732 29.3891 33.3852 29.6247 33.1802 29.7176C31.1049 30.6592 29.1481 31.1167 27.1976 31.1167ZM10.5739 27.6111C13.6493 29.4847 16.2095 30.3257 18.8024 30.3257C19.823 30.3257 20.6692 30.1542 21.3132 29.9513C18.0907 29.7427 15.6799 28.9815 13.9751 27.6401C13.6016 27.3462 13.237 27.0198 12.8849 26.6651C12.109 26.9389 11.3229 27.2609 10.5739 27.6111ZM27.8896 21.886C27.9077 22.116 27.9169 22.3423 27.9169 22.5644C27.9169 24.7668 26.6753 26.942 24.1285 29.1908C27.4633 29.0458 29.8258 28.3496 31.5063 27.0272C34.1792 24.9239 35.8265 21.6146 36.1361 19.3423C33.5586 19.5354 30.3292 20.5271 27.8896 21.886ZM26.8682 17.9944C27.3086 19.0153 27.6208 20.0475 27.7846 21.0349C28.7009 20.548 29.7125 20.1106 30.754 19.7424C30.755 18.4022 30.5432 17.1379 30.149 16.1196C29.088 16.557 27.9423 17.2113 26.8682 17.9944ZM15.246 19.729C16.3159 20.106 17.3135 20.5421 18.212 21.0235C18.3717 20.0394 18.678 19.0158 19.1219 17.9872C18.0507 17.2072 16.9087 16.5557 15.851 16.1196C15.4582 17.1345 15.2464 18.3938 15.246 19.729ZM23 11.6816C22.7588 11.6816 22.5625 11.4924 22.5625 11.2598C22.5625 11.0272 22.7588 10.8379 23 10.8379C23.2412 10.8379 23.4375 11.0272 23.4375 11.2598C23.4375 11.4924 23.2412 11.6816 23 11.6816Z" fill="#484848"/>
</g>
<defs>
<clipPath id="clip0_902_48958">
<rect width="28" height="27" fill="white" transform="translate(9 9)"/>
</clipPath>
</defs>
</svg>
