<svg width="60" height="60" viewBox="0 0 60 60" fill="none" xmlns="http://www.w3.org/2000/svg">
<path d="M33.1923 51.7159C33.1923 55.6506 30.0117 58.8409 26.0771 58.8409C22.1327 58.8409 18.9521 55.6506 18.9521 51.7159C18.9521 47.7909 22.1327 44.6104 26.0771 44.6104C30.0117 44.6104 33.1923 47.7909 33.1923 51.7159Z" fill="#42DEF4"/>
<path d="M33.1916 51.7153C33.0853 51.7153 33.037 51.29 32.7856 50.4972C32.5439 49.7238 32.0895 48.5347 30.9488 47.3843C29.8467 46.2629 27.9325 45.1995 25.535 45.4605C24.3652 45.5862 23.1181 46.0599 22.074 46.9589C21.03 47.8483 20.2082 49.1825 19.9569 50.7486C19.7152 52.3147 20.0632 53.8808 20.8366 55.0796C21.6003 56.288 22.7121 57.1775 23.9109 57.6222C25.0903 58.1055 26.3374 58.1442 27.4298 57.9702C28.5222 57.7672 29.4697 57.3128 30.2141 56.7618C31.7222 55.6403 32.3892 54.2095 32.7179 53.2525C33.037 52.276 33.0756 51.7057 33.1916 51.7153C33.2593 51.7153 33.4237 52.2857 33.2883 53.3878C33.1336 54.4706 32.6213 56.1817 30.9681 57.6802C30.1464 58.4052 29.054 59.0433 27.7295 59.3816C26.4147 59.691 24.8679 59.72 23.3405 59.169C21.813 58.6662 20.3436 57.5738 19.3381 56.0367C18.3134 54.5092 17.83 52.4791 18.149 50.4586C18.4681 48.4187 19.5605 46.7076 20.9333 45.5862C22.3061 44.4647 23.9302 43.904 25.4093 43.817C26.8981 43.73 28.2612 44.0394 29.3343 44.6001C30.4267 45.1415 31.2485 45.8762 31.8382 46.6109C33.0273 48.0997 33.3076 49.5208 33.3656 50.4006C33.414 51.29 33.2496 51.7153 33.1916 51.7153Z" fill="#000F8F"/>
<path d="M33.1916 51.7153C33.0853 51.7153 33.037 51.29 32.7856 50.4972C32.5439 49.7238 32.0895 48.5347 30.9488 47.3843C29.8467 46.2629 27.9325 45.1995 25.535 45.4605C24.3652 45.5862 23.1181 46.0599 22.074 46.9589C21.03 47.8483 20.2082 49.1825 19.9569 50.7486C19.7152 52.3147 20.0632 53.8808 20.8366 55.0796C21.6003 56.288 22.7121 57.1775 23.9109 57.6222C25.0903 58.1055 26.3374 58.1442 27.4298 57.9702C28.5222 57.7672 29.4697 57.3128 30.2141 56.7618C31.7222 55.6403 32.3892 54.2095 32.7179 53.2525C33.037 52.276 33.0756 51.7057 33.1916 51.7153C33.2593 51.7153 33.4237 52.2857 33.2883 53.3878C33.1336 54.4706 32.6213 56.1817 30.9681 57.6802C30.1464 58.4052 29.054 59.0433 27.7295 59.3816C26.4147 59.691 24.8679 59.72 23.3405 59.169C21.813 58.6662 20.3436 57.5738 19.3381 56.0367C18.3134 54.5092 17.83 52.4791 18.149 50.4586C18.4681 48.4187 19.5605 46.7076 20.9333 45.5862C22.3061 44.4647 23.9302 43.904 25.4093 43.817C26.8981 43.73 28.2612 44.0394 29.3343 44.6001C30.4267 45.1415 31.2485 45.8762 31.8382 46.6109C33.0273 48.0997 33.3076 49.5208 33.3656 50.4006C33.414 51.29 33.2496 51.7153 33.1916 51.7153Z" fill="black" fill-opacity="0.2"/>
<path d="M33.1916 51.7153C33.0853 51.7153 33.037 51.29 32.7856 50.4972C32.5439 49.7238 32.0895 48.5347 30.9488 47.3843C29.8467 46.2629 27.9325 45.1995 25.535 45.4605C24.3652 45.5862 23.1181 46.0599 22.074 46.9589C21.03 47.8483 20.2082 49.1825 19.9569 50.7486C19.7152 52.3147 20.0632 53.8808 20.8366 55.0796C21.6003 56.288 22.7121 57.1775 23.9109 57.6222C25.0903 58.1055 26.3374 58.1442 27.4298 57.9702C28.5222 57.7672 29.4697 57.3128 30.2141 56.7618C31.7222 55.6403 32.3892 54.2095 32.7179 53.2525C33.037 52.276 33.0756 51.7057 33.1916 51.7153C33.2593 51.7153 33.4237 52.2857 33.2883 53.3878C33.1336 54.4706 32.6213 56.1817 30.9681 57.6802C30.1464 58.4052 29.054 59.0433 27.7295 59.3816C26.4147 59.691 24.8679 59.72 23.3405 59.169C21.813 58.6662 20.3436 57.5738 19.3381 56.0367C18.3134 54.5092 17.83 52.4791 18.149 50.4586C18.4681 48.4187 19.5605 46.7076 20.9333 45.5862C22.3061 44.4647 23.9302 43.904 25.4093 43.817C26.8981 43.73 28.2612 44.0394 29.3343 44.6001C30.4267 45.1415 31.2485 45.8762 31.8382 46.6109C33.0273 48.0997 33.3076 49.5208 33.3656 50.4006C33.414 51.29 33.2496 51.7153 33.1916 51.7153Z" fill="black" fill-opacity="0.2"/>
<path d="M33.1916 51.7153C33.0853 51.7153 33.037 51.29 32.7856 50.4972C32.5439 49.7238 32.0895 48.5347 30.9488 47.3843C29.8467 46.2629 27.9325 45.1995 25.535 45.4605C24.3652 45.5862 23.1181 46.0599 22.074 46.9589C21.03 47.8483 20.2082 49.1825 19.9569 50.7486C19.7152 52.3147 20.0632 53.8808 20.8366 55.0796C21.6003 56.288 22.7121 57.1775 23.9109 57.6222C25.0903 58.1055 26.3374 58.1442 27.4298 57.9702C28.5222 57.7672 29.4697 57.3128 30.2141 56.7618C31.7222 55.6403 32.3892 54.2095 32.7179 53.2525C33.037 52.276 33.0756 51.7057 33.1916 51.7153C33.2593 51.7153 33.4237 52.2857 33.2883 53.3878C33.1336 54.4706 32.6213 56.1817 30.9681 57.6802C30.1464 58.4052 29.054 59.0433 27.7295 59.3816C26.4147 59.691 24.8679 59.72 23.3405 59.169C21.813 58.6662 20.3436 57.5738 19.3381 56.0367C18.3134 54.5092 17.83 52.4791 18.149 50.4586C18.4681 48.4187 19.5605 46.7076 20.9333 45.5862C22.3061 44.4647 23.9302 43.904 25.4093 43.817C26.8981 43.73 28.2612 44.0394 29.3343 44.6001C30.4267 45.1415 31.2485 45.8762 31.8382 46.6109C33.0273 48.0997 33.3076 49.5208 33.3656 50.4006C33.414 51.29 33.2496 51.7153 33.1916 51.7153Z" fill="black" fill-opacity="0.2"/>
<path d="M33.1916 51.7153C33.0853 51.7153 33.037 51.29 32.7856 50.4972C32.5439 49.7238 32.0895 48.5347 30.9488 47.3843C29.8467 46.2629 27.9325 45.1995 25.535 45.4605C24.3652 45.5862 23.1181 46.0599 22.074 46.9589C21.03 47.8483 20.2082 49.1825 19.9569 50.7486C19.7152 52.3147 20.0632 53.8808 20.8366 55.0796C21.6003 56.288 22.7121 57.1775 23.9109 57.6222C25.0903 58.1055 26.3374 58.1442 27.4298 57.9702C28.5222 57.7672 29.4697 57.3128 30.2141 56.7618C31.7222 55.6403 32.3892 54.2095 32.7179 53.2525C33.037 52.276 33.0756 51.7057 33.1916 51.7153C33.2593 51.7153 33.4237 52.2857 33.2883 53.3878C33.1336 54.4706 32.6213 56.1817 30.9681 57.6802C30.1464 58.4052 29.054 59.0433 27.7295 59.3816C26.4147 59.691 24.8679 59.72 23.3405 59.169C21.813 58.6662 20.3436 57.5738 19.3381 56.0367C18.3134 54.5092 17.83 52.4791 18.149 50.4586C18.4681 48.4187 19.5605 46.7076 20.9333 45.5862C22.3061 44.4647 23.9302 43.904 25.4093 43.817C26.8981 43.73 28.2612 44.0394 29.3343 44.6001C30.4267 45.1415 31.2485 45.8762 31.8382 46.6109C33.0273 48.0997 33.3076 49.5208 33.3656 50.4006C33.414 51.29 33.2496 51.7153 33.1916 51.7153Z" fill="black" fill-opacity="0.2"/>
<path d="M33.1916 51.7153C33.0853 51.7153 33.037 51.29 32.7856 50.4972C32.5439 49.7238 32.0895 48.5347 30.9488 47.3843C29.8467 46.2629 27.9325 45.1995 25.535 45.4605C24.3652 45.5862 23.1181 46.0599 22.074 46.9589C21.03 47.8483 20.2082 49.1825 19.9569 50.7486C19.7152 52.3147 20.0632 53.8808 20.8366 55.0796C21.6003 56.288 22.7121 57.1775 23.9109 57.6222C25.0903 58.1055 26.3374 58.1442 27.4298 57.9702C28.5222 57.7672 29.4697 57.3128 30.2141 56.7618C31.7222 55.6403 32.3892 54.2095 32.7179 53.2525C33.037 52.276 33.0756 51.7057 33.1916 51.7153C33.2593 51.7153 33.4237 52.2857 33.2883 53.3878C33.1336 54.4706 32.6213 56.1817 30.9681 57.6802C30.1464 58.4052 29.054 59.0433 27.7295 59.3816C26.4147 59.691 24.8679 59.72 23.3405 59.169C21.813 58.6662 20.3436 57.5738 19.3381 56.0367C18.3134 54.5092 17.83 52.4791 18.149 50.4586C18.4681 48.4187 19.5605 46.7076 20.9333 45.5862C22.3061 44.4647 23.9302 43.904 25.4093 43.817C26.8981 43.73 28.2612 44.0394 29.3343 44.6001C30.4267 45.1415 31.2485 45.8762 31.8382 46.6109C33.0273 48.0997 33.3076 49.5208 33.3656 50.4006C33.414 51.29 33.2496 51.7153 33.1916 51.7153Z" fill="black" fill-opacity="0.2"/>
<path d="M30.766 8.09584C30.766 10.3774 28.7938 12.2142 26.3576 12.2142C23.1384 12.2142 20.6925 8.58888 22.7323 5.77565C25.0235 2.63372 30.766 3.98717 30.766 8.09584Z" fill="#42DEF4"/>
<path d="M30.7651 8.09597C30.6781 8.09597 30.5524 7.84462 30.4074 7.39025C30.1947 6.96488 29.9047 6.31716 29.199 5.76611C28.5222 5.21506 27.3911 4.75103 26.057 4.89604C25.3996 4.96371 24.7036 5.18606 24.1332 5.64043C23.5172 6.12512 23.0953 6.81452 22.9441 7.58359C22.6831 9.2174 23.9302 10.7255 25.216 11.1896C26.5211 11.7116 27.8938 11.3926 28.7639 10.8415C29.663 10.2808 30.127 9.51709 30.359 8.98538C30.6007 8.43433 30.6684 8.09597 30.7651 8.09597C30.8328 8.09597 30.9778 8.43433 30.9198 9.12072C30.8521 9.78778 30.5234 10.8705 29.46 11.7793C28.4449 12.6687 26.6564 13.3551 24.6552 12.7364C23.6885 12.427 22.7217 11.8083 22.0354 10.8609C21.3296 9.93279 20.9139 8.63735 21.1169 7.27423C21.3481 6.0413 22.0393 4.94233 23.0504 4.19998C23.9785 3.52326 25.0226 3.26223 25.941 3.23323C27.8068 3.1849 29.2376 4.00663 30.011 4.9057C30.8134 5.81445 30.9488 6.74252 30.9681 7.27423C30.9391 7.85428 30.8521 8.09597 30.7651 8.09597Z" fill="#000F8F"/>
<path d="M30.7651 8.09597C30.6781 8.09597 30.5524 7.84462 30.4074 7.39025C30.1947 6.96488 29.9047 6.31716 29.199 5.76611C28.5222 5.21506 27.3911 4.75103 26.057 4.89604C25.3996 4.96371 24.7036 5.18606 24.1332 5.64043C23.5172 6.12512 23.0953 6.81452 22.9441 7.58359C22.6831 9.2174 23.9302 10.7255 25.216 11.1896C26.5211 11.7116 27.8938 11.3926 28.7639 10.8415C29.663 10.2808 30.127 9.51709 30.359 8.98538C30.6007 8.43433 30.6684 8.09597 30.7651 8.09597C30.8328 8.09597 30.9778 8.43433 30.9198 9.12072C30.8521 9.78778 30.5234 10.8705 29.46 11.7793C28.4449 12.6687 26.6564 13.3551 24.6552 12.7364C23.6885 12.427 22.7217 11.8083 22.0354 10.8609C21.3296 9.93279 20.9139 8.63735 21.1169 7.27423C21.3481 6.0413 22.0393 4.94233 23.0504 4.19998C23.9785 3.52326 25.0226 3.26223 25.941 3.23323C27.8068 3.1849 29.2376 4.00663 30.011 4.9057C30.8134 5.81445 30.9488 6.74252 30.9681 7.27423C30.9391 7.85428 30.8521 8.09597 30.7651 8.09597Z" fill="black" fill-opacity="0.2"/>
<path d="M30.7651 8.09597C30.6781 8.09597 30.5524 7.84462 30.4074 7.39025C30.1947 6.96488 29.9047 6.31716 29.199 5.76611C28.5222 5.21506 27.3911 4.75103 26.057 4.89604C25.3996 4.96371 24.7036 5.18606 24.1332 5.64043C23.5172 6.12512 23.0953 6.81452 22.9441 7.58359C22.6831 9.2174 23.9302 10.7255 25.216 11.1896C26.5211 11.7116 27.8938 11.3926 28.7639 10.8415C29.663 10.2808 30.127 9.51709 30.359 8.98538C30.6007 8.43433 30.6684 8.09597 30.7651 8.09597C30.8328 8.09597 30.9778 8.43433 30.9198 9.12072C30.8521 9.78778 30.5234 10.8705 29.46 11.7793C28.4449 12.6687 26.6564 13.3551 24.6552 12.7364C23.6885 12.427 22.7217 11.8083 22.0354 10.8609C21.3296 9.93279 20.9139 8.63735 21.1169 7.27423C21.3481 6.0413 22.0393 4.94233 23.0504 4.19998C23.9785 3.52326 25.0226 3.26223 25.941 3.23323C27.8068 3.1849 29.2376 4.00663 30.011 4.9057C30.8134 5.81445 30.9488 6.74252 30.9681 7.27423C30.9391 7.85428 30.8521 8.09597 30.7651 8.09597Z" fill="black" fill-opacity="0.2"/>
<path d="M30.7651 8.09597C30.6781 8.09597 30.5524 7.84462 30.4074 7.39025C30.1947 6.96488 29.9047 6.31716 29.199 5.76611C28.5222 5.21506 27.3911 4.75103 26.057 4.89604C25.3996 4.96371 24.7036 5.18606 24.1332 5.64043C23.5172 6.12512 23.0953 6.81452 22.9441 7.58359C22.6831 9.2174 23.9302 10.7255 25.216 11.1896C26.5211 11.7116 27.8938 11.3926 28.7639 10.8415C29.663 10.2808 30.127 9.51709 30.359 8.98538C30.6007 8.43433 30.6684 8.09597 30.7651 8.09597C30.8328 8.09597 30.9778 8.43433 30.9198 9.12072C30.8521 9.78778 30.5234 10.8705 29.46 11.7793C28.4449 12.6687 26.6564 13.3551 24.6552 12.7364C23.6885 12.427 22.7217 11.8083 22.0354 10.8609C21.3296 9.93279 20.9139 8.63735 21.1169 7.27423C21.3481 6.0413 22.0393 4.94233 23.0504 4.19998C23.9785 3.52326 25.0226 3.26223 25.941 3.23323C27.8068 3.1849 29.2376 4.00663 30.011 4.9057C30.8134 5.81445 30.9488 6.74252 30.9681 7.27423C30.9391 7.85428 30.8521 8.09597 30.7651 8.09597Z" fill="black" fill-opacity="0.2"/>
<path d="M30.7651 8.09597C30.6781 8.09597 30.5524 7.84462 30.4074 7.39025C30.1947 6.96488 29.9047 6.31716 29.199 5.76611C28.5222 5.21506 27.3911 4.75103 26.057 4.89604C25.3996 4.96371 24.7036 5.18606 24.1332 5.64043C23.5172 6.12512 23.0953 6.81452 22.9441 7.58359C22.6831 9.2174 23.9302 10.7255 25.216 11.1896C26.5211 11.7116 27.8938 11.3926 28.7639 10.8415C29.663 10.2808 30.127 9.51709 30.359 8.98538C30.6007 8.43433 30.6684 8.09597 30.7651 8.09597C30.8328 8.09597 30.9778 8.43433 30.9198 9.12072C30.8521 9.78778 30.5234 10.8705 29.46 11.7793C28.4449 12.6687 26.6564 13.3551 24.6552 12.7364C23.6885 12.427 22.7217 11.8083 22.0354 10.8609C21.3296 9.93279 20.9139 8.63735 21.1169 7.27423C21.3481 6.0413 22.0393 4.94233 23.0504 4.19998C23.9785 3.52326 25.0226 3.26223 25.941 3.23323C27.8068 3.1849 29.2376 4.00663 30.011 4.9057C30.8134 5.81445 30.9488 6.74252 30.9681 7.27423C30.9391 7.85428 30.8521 8.09597 30.7651 8.09597Z" fill="black" fill-opacity="0.2"/>
<path d="M30.7651 8.09597C30.6781 8.09597 30.5524 7.84462 30.4074 7.39025C30.1947 6.96488 29.9047 6.31716 29.199 5.76611C28.5222 5.21506 27.3911 4.75103 26.057 4.89604C25.3996 4.96371 24.7036 5.18606 24.1332 5.64043C23.5172 6.12512 23.0953 6.81452 22.9441 7.58359C22.6831 9.2174 23.9302 10.7255 25.216 11.1896C26.5211 11.7116 27.8938 11.3926 28.7639 10.8415C29.663 10.2808 30.127 9.51709 30.359 8.98538C30.6007 8.43433 30.6684 8.09597 30.7651 8.09597C30.8328 8.09597 30.9778 8.43433 30.9198 9.12072C30.8521 9.78778 30.5234 10.8705 29.46 11.7793C28.4449 12.6687 26.6564 13.3551 24.6552 12.7364C23.6885 12.427 22.7217 11.8083 22.0354 10.8609C21.3296 9.93279 20.9139 8.63735 21.1169 7.27423C21.3481 6.0413 22.0393 4.94233 23.0504 4.19998C23.9785 3.52326 25.0226 3.26223 25.941 3.23323C27.8068 3.1849 29.2376 4.00663 30.011 4.9057C30.8134 5.81445 30.9488 6.74252 30.9681 7.27423C30.9391 7.85428 30.8521 8.09597 30.7651 8.09597Z" fill="black" fill-opacity="0.2"/>
<path d="M6.40318 43.5951C7.96931 40.7239 8.79104 37.5046 8.81038 34.237V34.1887C8.82004 30.9501 8.59769 27.6051 9.21641 24.4052C10.1155 19.7262 12.803 15.4725 16.7957 12.8139C19.754 10.8514 23.2729 9.875 26.8112 9.875C31.819 9.875 36.9234 11.9535 40.4037 15.6658C43.5746 19.0591 44.7444 23.6125 45.0054 28.1465C45.0827 29.587 45.1021 31.8782 45.0827 34.005C45.0537 37.466 45.9431 40.8689 47.6543 43.8755L48.4083 45.1903H5.52344L6.40318 43.5951Z" fill="#D4D9FF"/>
<path d="M6.40301 43.5948C6.45134 43.6238 6.22899 44.1749 5.69728 45.2866L5.52327 44.9966C10.1733 44.7259 24.1235 44.4262 48.4082 44.3102L47.6444 45.625C46.9194 44.3779 46.088 42.9858 45.5273 41.4583C44.9472 39.9405 44.5218 38.3067 44.3188 36.6052C44.2125 35.7545 44.1642 34.8844 44.1642 34.0047C44.1545 33.1733 44.1351 32.3322 44.1255 31.4815C44.0868 29.78 44.1448 28.0205 43.9128 26.2997C43.6034 23.6508 42.8977 21.1373 41.6893 18.9815C40.5002 16.8256 38.731 15.1048 36.7782 13.7804C32.8339 11.1411 28.1451 10.2807 24.0268 10.9091C21.958 11.2088 20.0245 11.8662 18.3133 12.7943C16.6119 13.7223 15.1521 14.9211 13.9436 16.2552C11.5364 18.9428 10.212 22.104 9.69961 25.0236C9.19691 27.9722 9.29358 30.7081 9.24524 33.0766C9.27425 35.4645 8.93588 37.5237 8.47185 39.0898C8.01747 40.6656 7.4761 41.8063 7.07973 42.5411C6.69303 43.2661 6.43201 43.6142 6.40301 43.5948C6.287 43.5465 7.19574 42.0577 7.9208 38.9448C8.26883 37.3786 8.49118 35.4355 8.3655 33.0863C8.31717 30.7274 8.10448 27.9722 8.53952 24.8303C8.99389 21.698 10.328 18.2661 12.8705 15.2981C14.2061 13.7521 15.7949 12.4445 17.5689 11.4312C19.4251 10.3871 21.5229 9.63301 23.7851 9.27531C28.2805 8.53091 33.4236 9.41065 37.774 12.2819C39.9298 13.703 41.931 15.6365 43.2941 18.0727C44.6572 20.4896 45.4113 23.2545 45.7496 26.0677C46.001 27.9239 45.9333 29.693 45.972 31.4332L46.001 34.0047C45.9913 34.8071 46.0396 35.5998 46.1266 36.3732C46.3103 37.9297 46.6874 39.4185 47.2094 40.8009C47.7218 42.2027 48.4372 43.4305 49.1719 44.7356C49.4136 45.1513 49.2686 45.6927 48.8432 45.9247C48.7105 46 48.5607 46.04 48.4082 46.0407C24.1331 45.9344 10.1733 45.625 5.52327 45.3543H5.50393C5.39759 45.3446 5.32025 45.2576 5.32992 45.161C5.32992 45.132 5.33959 45.103 5.35892 45.074C6.00664 44.0492 6.35467 43.5658 6.40301 43.5948Z" fill="#000F8F"/>
<path d="M6.40301 43.5948C6.45134 43.6238 6.22899 44.1749 5.69728 45.2866L5.52327 44.9966C10.1733 44.7259 24.1235 44.4262 48.4082 44.3102L47.6444 45.625C46.9194 44.3779 46.088 42.9858 45.5273 41.4583C44.9472 39.9405 44.5218 38.3067 44.3188 36.6052C44.2125 35.7545 44.1642 34.8844 44.1642 34.0047C44.1545 33.1733 44.1351 32.3322 44.1255 31.4815C44.0868 29.78 44.1448 28.0205 43.9128 26.2997C43.6034 23.6508 42.8977 21.1373 41.6893 18.9815C40.5002 16.8256 38.731 15.1048 36.7782 13.7804C32.8339 11.1411 28.1451 10.2807 24.0268 10.9091C21.958 11.2088 20.0245 11.8662 18.3133 12.7943C16.6119 13.7223 15.1521 14.9211 13.9436 16.2552C11.5364 18.9428 10.212 22.104 9.69961 25.0236C9.19691 27.9722 9.29358 30.7081 9.24524 33.0766C9.27425 35.4645 8.93588 37.5237 8.47185 39.0898C8.01747 40.6656 7.4761 41.8063 7.07973 42.5411C6.69303 43.2661 6.43201 43.6142 6.40301 43.5948C6.287 43.5465 7.19574 42.0577 7.9208 38.9448C8.26883 37.3786 8.49118 35.4355 8.3655 33.0863C8.31717 30.7274 8.10448 27.9722 8.53952 24.8303C8.99389 21.698 10.328 18.2661 12.8705 15.2981C14.2061 13.7521 15.7949 12.4445 17.5689 11.4312C19.4251 10.3871 21.5229 9.63301 23.7851 9.27531C28.2805 8.53091 33.4236 9.41065 37.774 12.2819C39.9298 13.703 41.931 15.6365 43.2941 18.0727C44.6572 20.4896 45.4113 23.2545 45.7496 26.0677C46.001 27.9239 45.9333 29.693 45.972 31.4332L46.001 34.0047C45.9913 34.8071 46.0396 35.5998 46.1266 36.3732C46.3103 37.9297 46.6874 39.4185 47.2094 40.8009C47.7218 42.2027 48.4372 43.4305 49.1719 44.7356C49.4136 45.1513 49.2686 45.6927 48.8432 45.9247C48.7105 46 48.5607 46.04 48.4082 46.0407C24.1331 45.9344 10.1733 45.625 5.52327 45.3543H5.50393C5.39759 45.3446 5.32025 45.2576 5.32992 45.161C5.32992 45.132 5.33959 45.103 5.35892 45.074C6.00664 44.0492 6.35467 43.5658 6.40301 43.5948Z" fill="black" fill-opacity="0.2"/>
<path d="M6.40301 43.5948C6.45134 43.6238 6.22899 44.1749 5.69728 45.2866L5.52327 44.9966C10.1733 44.7259 24.1235 44.4262 48.4082 44.3102L47.6444 45.625C46.9194 44.3779 46.088 42.9858 45.5273 41.4583C44.9472 39.9405 44.5218 38.3067 44.3188 36.6052C44.2125 35.7545 44.1642 34.8844 44.1642 34.0047C44.1545 33.1733 44.1351 32.3322 44.1255 31.4815C44.0868 29.78 44.1448 28.0205 43.9128 26.2997C43.6034 23.6508 42.8977 21.1373 41.6893 18.9815C40.5002 16.8256 38.731 15.1048 36.7782 13.7804C32.8339 11.1411 28.1451 10.2807 24.0268 10.9091C21.958 11.2088 20.0245 11.8662 18.3133 12.7943C16.6119 13.7223 15.1521 14.9211 13.9436 16.2552C11.5364 18.9428 10.212 22.104 9.69961 25.0236C9.19691 27.9722 9.29358 30.7081 9.24524 33.0766C9.27425 35.4645 8.93588 37.5237 8.47185 39.0898C8.01747 40.6656 7.4761 41.8063 7.07973 42.5411C6.69303 43.2661 6.43201 43.6142 6.40301 43.5948C6.287 43.5465 7.19574 42.0577 7.9208 38.9448C8.26883 37.3786 8.49118 35.4355 8.3655 33.0863C8.31717 30.7274 8.10448 27.9722 8.53952 24.8303C8.99389 21.698 10.328 18.2661 12.8705 15.2981C14.2061 13.7521 15.7949 12.4445 17.5689 11.4312C19.4251 10.3871 21.5229 9.63301 23.7851 9.27531C28.2805 8.53091 33.4236 9.41065 37.774 12.2819C39.9298 13.703 41.931 15.6365 43.2941 18.0727C44.6572 20.4896 45.4113 23.2545 45.7496 26.0677C46.001 27.9239 45.9333 29.693 45.972 31.4332L46.001 34.0047C45.9913 34.8071 46.0396 35.5998 46.1266 36.3732C46.3103 37.9297 46.6874 39.4185 47.2094 40.8009C47.7218 42.2027 48.4372 43.4305 49.1719 44.7356C49.4136 45.1513 49.2686 45.6927 48.8432 45.9247C48.7105 46 48.5607 46.04 48.4082 46.0407C24.1331 45.9344 10.1733 45.625 5.52327 45.3543H5.50393C5.39759 45.3446 5.32025 45.2576 5.32992 45.161C5.32992 45.132 5.33959 45.103 5.35892 45.074C6.00664 44.0492 6.35467 43.5658 6.40301 43.5948Z" fill="black" fill-opacity="0.2"/>
<path d="M6.40301 43.5948C6.45134 43.6238 6.22899 44.1749 5.69728 45.2866L5.52327 44.9966C10.1733 44.7259 24.1235 44.4262 48.4082 44.3102L47.6444 45.625C46.9194 44.3779 46.088 42.9858 45.5273 41.4583C44.9472 39.9405 44.5218 38.3067 44.3188 36.6052C44.2125 35.7545 44.1642 34.8844 44.1642 34.0047C44.1545 33.1733 44.1351 32.3322 44.1255 31.4815C44.0868 29.78 44.1448 28.0205 43.9128 26.2997C43.6034 23.6508 42.8977 21.1373 41.6893 18.9815C40.5002 16.8256 38.731 15.1048 36.7782 13.7804C32.8339 11.1411 28.1451 10.2807 24.0268 10.9091C21.958 11.2088 20.0245 11.8662 18.3133 12.7943C16.6119 13.7223 15.1521 14.9211 13.9436 16.2552C11.5364 18.9428 10.212 22.104 9.69961 25.0236C9.19691 27.9722 9.29358 30.7081 9.24524 33.0766C9.27425 35.4645 8.93588 37.5237 8.47185 39.0898C8.01747 40.6656 7.4761 41.8063 7.07973 42.5411C6.69303 43.2661 6.43201 43.6142 6.40301 43.5948C6.287 43.5465 7.19574 42.0577 7.9208 38.9448C8.26883 37.3786 8.49118 35.4355 8.3655 33.0863C8.31717 30.7274 8.10448 27.9722 8.53952 24.8303C8.99389 21.698 10.328 18.2661 12.8705 15.2981C14.2061 13.7521 15.7949 12.4445 17.5689 11.4312C19.4251 10.3871 21.5229 9.63301 23.7851 9.27531C28.2805 8.53091 33.4236 9.41065 37.774 12.2819C39.9298 13.703 41.931 15.6365 43.2941 18.0727C44.6572 20.4896 45.4113 23.2545 45.7496 26.0677C46.001 27.9239 45.9333 29.693 45.972 31.4332L46.001 34.0047C45.9913 34.8071 46.0396 35.5998 46.1266 36.3732C46.3103 37.9297 46.6874 39.4185 47.2094 40.8009C47.7218 42.2027 48.4372 43.4305 49.1719 44.7356C49.4136 45.1513 49.2686 45.6927 48.8432 45.9247C48.7105 46 48.5607 46.04 48.4082 46.0407C24.1331 45.9344 10.1733 45.625 5.52327 45.3543H5.50393C5.39759 45.3446 5.32025 45.2576 5.32992 45.161C5.32992 45.132 5.33959 45.103 5.35892 45.074C6.00664 44.0492 6.35467 43.5658 6.40301 43.5948Z" fill="black" fill-opacity="0.2"/>
<path d="M6.40301 43.5948C6.45134 43.6238 6.22899 44.1749 5.69728 45.2866L5.52327 44.9966C10.1733 44.7259 24.1235 44.4262 48.4082 44.3102L47.6444 45.625C46.9194 44.3779 46.088 42.9858 45.5273 41.4583C44.9472 39.9405 44.5218 38.3067 44.3188 36.6052C44.2125 35.7545 44.1642 34.8844 44.1642 34.0047C44.1545 33.1733 44.1351 32.3322 44.1255 31.4815C44.0868 29.78 44.1448 28.0205 43.9128 26.2997C43.6034 23.6508 42.8977 21.1373 41.6893 18.9815C40.5002 16.8256 38.731 15.1048 36.7782 13.7804C32.8339 11.1411 28.1451 10.2807 24.0268 10.9091C21.958 11.2088 20.0245 11.8662 18.3133 12.7943C16.6119 13.7223 15.1521 14.9211 13.9436 16.2552C11.5364 18.9428 10.212 22.104 9.69961 25.0236C9.19691 27.9722 9.29358 30.7081 9.24524 33.0766C9.27425 35.4645 8.93588 37.5237 8.47185 39.0898C8.01747 40.6656 7.4761 41.8063 7.07973 42.5411C6.69303 43.2661 6.43201 43.6142 6.40301 43.5948C6.287 43.5465 7.19574 42.0577 7.9208 38.9448C8.26883 37.3786 8.49118 35.4355 8.3655 33.0863C8.31717 30.7274 8.10448 27.9722 8.53952 24.8303C8.99389 21.698 10.328 18.2661 12.8705 15.2981C14.2061 13.7521 15.7949 12.4445 17.5689 11.4312C19.4251 10.3871 21.5229 9.63301 23.7851 9.27531C28.2805 8.53091 33.4236 9.41065 37.774 12.2819C39.9298 13.703 41.931 15.6365 43.2941 18.0727C44.6572 20.4896 45.4113 23.2545 45.7496 26.0677C46.001 27.9239 45.9333 29.693 45.972 31.4332L46.001 34.0047C45.9913 34.8071 46.0396 35.5998 46.1266 36.3732C46.3103 37.9297 46.6874 39.4185 47.2094 40.8009C47.7218 42.2027 48.4372 43.4305 49.1719 44.7356C49.4136 45.1513 49.2686 45.6927 48.8432 45.9247C48.7105 46 48.5607 46.04 48.4082 46.0407C24.1331 45.9344 10.1733 45.625 5.52327 45.3543H5.50393C5.39759 45.3446 5.32025 45.2576 5.32992 45.161C5.32992 45.132 5.33959 45.103 5.35892 45.074C6.00664 44.0492 6.35467 43.5658 6.40301 43.5948Z" fill="black" fill-opacity="0.2"/>
<path d="M6.40301 43.5948C6.45134 43.6238 6.22899 44.1749 5.69728 45.2866L5.52327 44.9966C10.1733 44.7259 24.1235 44.4262 48.4082 44.3102L47.6444 45.625C46.9194 44.3779 46.088 42.9858 45.5273 41.4583C44.9472 39.9405 44.5218 38.3067 44.3188 36.6052C44.2125 35.7545 44.1642 34.8844 44.1642 34.0047C44.1545 33.1733 44.1351 32.3322 44.1255 31.4815C44.0868 29.78 44.1448 28.0205 43.9128 26.2997C43.6034 23.6508 42.8977 21.1373 41.6893 18.9815C40.5002 16.8256 38.731 15.1048 36.7782 13.7804C32.8339 11.1411 28.1451 10.2807 24.0268 10.9091C21.958 11.2088 20.0245 11.8662 18.3133 12.7943C16.6119 13.7223 15.1521 14.9211 13.9436 16.2552C11.5364 18.9428 10.212 22.104 9.69961 25.0236C9.19691 27.9722 9.29358 30.7081 9.24524 33.0766C9.27425 35.4645 8.93588 37.5237 8.47185 39.0898C8.01747 40.6656 7.4761 41.8063 7.07973 42.5411C6.69303 43.2661 6.43201 43.6142 6.40301 43.5948C6.287 43.5465 7.19574 42.0577 7.9208 38.9448C8.26883 37.3786 8.49118 35.4355 8.3655 33.0863C8.31717 30.7274 8.10448 27.9722 8.53952 24.8303C8.99389 21.698 10.328 18.2661 12.8705 15.2981C14.2061 13.7521 15.7949 12.4445 17.5689 11.4312C19.4251 10.3871 21.5229 9.63301 23.7851 9.27531C28.2805 8.53091 33.4236 9.41065 37.774 12.2819C39.9298 13.703 41.931 15.6365 43.2941 18.0727C44.6572 20.4896 45.4113 23.2545 45.7496 26.0677C46.001 27.9239 45.9333 29.693 45.972 31.4332L46.001 34.0047C45.9913 34.8071 46.0396 35.5998 46.1266 36.3732C46.3103 37.9297 46.6874 39.4185 47.2094 40.8009C47.7218 42.2027 48.4372 43.4305 49.1719 44.7356C49.4136 45.1513 49.2686 45.6927 48.8432 45.9247C48.7105 46 48.5607 46.04 48.4082 46.0407C24.1331 45.9344 10.1733 45.625 5.52327 45.3543H5.50393C5.39759 45.3446 5.32025 45.2576 5.32992 45.161C5.32992 45.132 5.33959 45.103 5.35892 45.074C6.00664 44.0492 6.35467 43.5658 6.40301 43.5948Z" fill="black" fill-opacity="0.2"/>
<path d="M53.0103 47.9649C53.0103 50.5751 50.5451 50.9618 48.4763 50.9618C33.627 50.9522 18.7681 50.9522 3.91889 50.9522C2.27542 50.9522 0.931641 49.6084 0.931641 47.9649C0.931641 46.3214 2.27542 44.9777 3.91889 44.9777H4.92431C18.7778 44.9777 32.6506 44.736 46.5138 44.6103C48.8533 44.591 53.0103 44.7746 53.0103 47.9649Z" fill="#7684FF"/>
<path d="M53.0104 47.9645C52.9524 47.9645 52.933 47.6938 52.7687 47.2298C52.614 46.7657 52.208 46.0987 51.2992 45.683C50.4098 45.2479 49.1047 45.0642 47.5386 45.0642C45.9725 45.0933 44.0583 45.1803 41.9025 45.2383C37.5714 45.3736 32.119 45.4993 25.4968 45.6153C22.1808 45.6636 18.5748 45.7216 14.6692 45.7796C12.7164 45.799 10.6862 45.828 8.58835 45.8473L5.37875 45.8763C4.85671 45.8763 4.325 45.886 3.78362 45.886C3.39692 45.9053 3.02955 46.0407 2.71053 46.2727C2.06281 46.7271 1.73411 47.5488 1.86946 48.3029C1.98547 49.0569 2.56552 49.7046 3.27124 49.9367C3.44526 49.985 3.62894 50.0333 3.81262 50.0333C3.9963 50.043 4.325 50.0333 4.56668 50.043H6.14248C7.18657 50.043 8.21132 50.0527 9.2264 50.0527C13.2867 50.0817 17.1054 50.101 20.6824 50.1203C27.8363 50.1783 33.9945 50.2653 39.0216 50.362C41.5351 50.42 43.7683 50.4684 45.7114 50.507C47.6546 50.5264 49.2981 50.7101 50.5258 50.4587C51.7923 50.2557 52.498 49.521 52.7107 48.9119C52.9524 48.3319 52.9427 47.9645 53.0104 47.9645C53.0297 47.9645 53.049 48.0515 53.0587 48.2255C53.0781 48.3995 53.0684 48.6702 52.9814 49.0182C52.904 49.3663 52.701 49.7916 52.3047 50.1783C51.918 50.565 51.3379 50.8551 50.6709 51.0387C50.0038 51.2321 49.2304 51.3094 48.399 51.3288C47.5773 51.3481 46.6879 51.3771 45.7211 51.4061C43.7876 51.4448 41.5544 51.4931 39.0312 51.5511C34.0041 51.6381 27.846 51.7251 20.692 51.7831C17.1151 51.8025 13.2867 51.8218 9.23607 51.8508C8.22099 51.8508 7.19623 51.8605 6.15215 51.8605H4.57635C4.29599 51.8605 4.08331 51.8702 3.73528 51.8508C3.38672 51.8384 3.04169 51.7766 2.71053 51.6671C1.36675 51.2514 0.29366 50.043 0.0616402 48.6122C-0.209049 47.1911 0.429004 45.6346 1.63744 44.7839C2.23682 44.3585 2.95221 44.0975 3.67727 44.0588C3.87062 44.0492 4.01564 44.0492 4.15098 44.0492H5.38842C6.48084 44.0395 7.54426 44.0298 8.59802 44.0298C10.6959 44.0202 12.726 44.0105 14.6789 43.9912L25.4968 43.9622C32.119 43.9622 37.5811 44.0008 41.9025 44.0492C44.0776 44.0878 45.9338 44.0878 47.5773 44.1652C49.2111 44.2715 50.6032 44.5615 51.5796 45.1609C52.585 45.7313 52.9814 46.6207 53.0491 47.1524C53.1167 47.7035 53.0394 47.9742 53.0104 47.9645Z" fill="#000F8F"/>
<path d="M53.0104 47.9645C52.9524 47.9645 52.933 47.6938 52.7687 47.2298C52.614 46.7657 52.208 46.0987 51.2992 45.683C50.4098 45.2479 49.1047 45.0642 47.5386 45.0642C45.9725 45.0933 44.0583 45.1803 41.9025 45.2383C37.5714 45.3736 32.119 45.4993 25.4968 45.6153C22.1808 45.6636 18.5748 45.7216 14.6692 45.7796C12.7164 45.799 10.6862 45.828 8.58835 45.8473L5.37875 45.8763C4.85671 45.8763 4.325 45.886 3.78362 45.886C3.39692 45.9053 3.02955 46.0407 2.71053 46.2727C2.06281 46.7271 1.73411 47.5488 1.86946 48.3029C1.98547 49.0569 2.56552 49.7046 3.27124 49.9367C3.44526 49.985 3.62894 50.0333 3.81262 50.0333C3.9963 50.043 4.325 50.0333 4.56668 50.043H6.14248C7.18657 50.043 8.21132 50.0527 9.2264 50.0527C13.2867 50.0817 17.1054 50.101 20.6824 50.1203C27.8363 50.1783 33.9945 50.2653 39.0216 50.362C41.5351 50.42 43.7683 50.4684 45.7114 50.507C47.6546 50.5264 49.2981 50.7101 50.5258 50.4587C51.7923 50.2557 52.498 49.521 52.7107 48.9119C52.9524 48.3319 52.9427 47.9645 53.0104 47.9645C53.0297 47.9645 53.049 48.0515 53.0587 48.2255C53.0781 48.3995 53.0684 48.6702 52.9814 49.0182C52.904 49.3663 52.701 49.7916 52.3047 50.1783C51.918 50.565 51.3379 50.8551 50.6709 51.0387C50.0038 51.2321 49.2304 51.3094 48.399 51.3288C47.5773 51.3481 46.6879 51.3771 45.7211 51.4061C43.7876 51.4448 41.5544 51.4931 39.0312 51.5511C34.0041 51.6381 27.846 51.7251 20.692 51.7831C17.1151 51.8025 13.2867 51.8218 9.23607 51.8508C8.22099 51.8508 7.19623 51.8605 6.15215 51.8605H4.57635C4.29599 51.8605 4.08331 51.8702 3.73528 51.8508C3.38672 51.8384 3.04169 51.7766 2.71053 51.6671C1.36675 51.2514 0.29366 50.043 0.0616402 48.6122C-0.209049 47.1911 0.429004 45.6346 1.63744 44.7839C2.23682 44.3585 2.95221 44.0975 3.67727 44.0588C3.87062 44.0492 4.01564 44.0492 4.15098 44.0492H5.38842C6.48084 44.0395 7.54426 44.0298 8.59802 44.0298C10.6959 44.0202 12.726 44.0105 14.6789 43.9912L25.4968 43.9622C32.119 43.9622 37.5811 44.0008 41.9025 44.0492C44.0776 44.0878 45.9338 44.0878 47.5773 44.1652C49.2111 44.2715 50.6032 44.5615 51.5796 45.1609C52.585 45.7313 52.9814 46.6207 53.0491 47.1524C53.1167 47.7035 53.0394 47.9742 53.0104 47.9645Z" fill="black" fill-opacity="0.2"/>
<path d="M53.0104 47.9645C52.9524 47.9645 52.933 47.6938 52.7687 47.2298C52.614 46.7657 52.208 46.0987 51.2992 45.683C50.4098 45.2479 49.1047 45.0642 47.5386 45.0642C45.9725 45.0933 44.0583 45.1803 41.9025 45.2383C37.5714 45.3736 32.119 45.4993 25.4968 45.6153C22.1808 45.6636 18.5748 45.7216 14.6692 45.7796C12.7164 45.799 10.6862 45.828 8.58835 45.8473L5.37875 45.8763C4.85671 45.8763 4.325 45.886 3.78362 45.886C3.39692 45.9053 3.02955 46.0407 2.71053 46.2727C2.06281 46.7271 1.73411 47.5488 1.86946 48.3029C1.98547 49.0569 2.56552 49.7046 3.27124 49.9367C3.44526 49.985 3.62894 50.0333 3.81262 50.0333C3.9963 50.043 4.325 50.0333 4.56668 50.043H6.14248C7.18657 50.043 8.21132 50.0527 9.2264 50.0527C13.2867 50.0817 17.1054 50.101 20.6824 50.1203C27.8363 50.1783 33.9945 50.2653 39.0216 50.362C41.5351 50.42 43.7683 50.4684 45.7114 50.507C47.6546 50.5264 49.2981 50.7101 50.5258 50.4587C51.7923 50.2557 52.498 49.521 52.7107 48.9119C52.9524 48.3319 52.9427 47.9645 53.0104 47.9645C53.0297 47.9645 53.049 48.0515 53.0587 48.2255C53.0781 48.3995 53.0684 48.6702 52.9814 49.0182C52.904 49.3663 52.701 49.7916 52.3047 50.1783C51.918 50.565 51.3379 50.8551 50.6709 51.0387C50.0038 51.2321 49.2304 51.3094 48.399 51.3288C47.5773 51.3481 46.6879 51.3771 45.7211 51.4061C43.7876 51.4448 41.5544 51.4931 39.0312 51.5511C34.0041 51.6381 27.846 51.7251 20.692 51.7831C17.1151 51.8025 13.2867 51.8218 9.23607 51.8508C8.22099 51.8508 7.19623 51.8605 6.15215 51.8605H4.57635C4.29599 51.8605 4.08331 51.8702 3.73528 51.8508C3.38672 51.8384 3.04169 51.7766 2.71053 51.6671C1.36675 51.2514 0.29366 50.043 0.0616402 48.6122C-0.209049 47.1911 0.429004 45.6346 1.63744 44.7839C2.23682 44.3585 2.95221 44.0975 3.67727 44.0588C3.87062 44.0492 4.01564 44.0492 4.15098 44.0492H5.38842C6.48084 44.0395 7.54426 44.0298 8.59802 44.0298C10.6959 44.0202 12.726 44.0105 14.6789 43.9912L25.4968 43.9622C32.119 43.9622 37.5811 44.0008 41.9025 44.0492C44.0776 44.0878 45.9338 44.0878 47.5773 44.1652C49.2111 44.2715 50.6032 44.5615 51.5796 45.1609C52.585 45.7313 52.9814 46.6207 53.0491 47.1524C53.1167 47.7035 53.0394 47.9742 53.0104 47.9645Z" fill="black" fill-opacity="0.2"/>
<path d="M53.0104 47.9645C52.9524 47.9645 52.933 47.6938 52.7687 47.2298C52.614 46.7657 52.208 46.0987 51.2992 45.683C50.4098 45.2479 49.1047 45.0642 47.5386 45.0642C45.9725 45.0933 44.0583 45.1803 41.9025 45.2383C37.5714 45.3736 32.119 45.4993 25.4968 45.6153C22.1808 45.6636 18.5748 45.7216 14.6692 45.7796C12.7164 45.799 10.6862 45.828 8.58835 45.8473L5.37875 45.8763C4.85671 45.8763 4.325 45.886 3.78362 45.886C3.39692 45.9053 3.02955 46.0407 2.71053 46.2727C2.06281 46.7271 1.73411 47.5488 1.86946 48.3029C1.98547 49.0569 2.56552 49.7046 3.27124 49.9367C3.44526 49.985 3.62894 50.0333 3.81262 50.0333C3.9963 50.043 4.325 50.0333 4.56668 50.043H6.14248C7.18657 50.043 8.21132 50.0527 9.2264 50.0527C13.2867 50.0817 17.1054 50.101 20.6824 50.1203C27.8363 50.1783 33.9945 50.2653 39.0216 50.362C41.5351 50.42 43.7683 50.4684 45.7114 50.507C47.6546 50.5264 49.2981 50.7101 50.5258 50.4587C51.7923 50.2557 52.498 49.521 52.7107 48.9119C52.9524 48.3319 52.9427 47.9645 53.0104 47.9645C53.0297 47.9645 53.049 48.0515 53.0587 48.2255C53.0781 48.3995 53.0684 48.6702 52.9814 49.0182C52.904 49.3663 52.701 49.7916 52.3047 50.1783C51.918 50.565 51.3379 50.8551 50.6709 51.0387C50.0038 51.2321 49.2304 51.3094 48.399 51.3288C47.5773 51.3481 46.6879 51.3771 45.7211 51.4061C43.7876 51.4448 41.5544 51.4931 39.0312 51.5511C34.0041 51.6381 27.846 51.7251 20.692 51.7831C17.1151 51.8025 13.2867 51.8218 9.23607 51.8508C8.22099 51.8508 7.19623 51.8605 6.15215 51.8605H4.57635C4.29599 51.8605 4.08331 51.8702 3.73528 51.8508C3.38672 51.8384 3.04169 51.7766 2.71053 51.6671C1.36675 51.2514 0.29366 50.043 0.0616402 48.6122C-0.209049 47.1911 0.429004 45.6346 1.63744 44.7839C2.23682 44.3585 2.95221 44.0975 3.67727 44.0588C3.87062 44.0492 4.01564 44.0492 4.15098 44.0492H5.38842C6.48084 44.0395 7.54426 44.0298 8.59802 44.0298C10.6959 44.0202 12.726 44.0105 14.6789 43.9912L25.4968 43.9622C32.119 43.9622 37.5811 44.0008 41.9025 44.0492C44.0776 44.0878 45.9338 44.0878 47.5773 44.1652C49.2111 44.2715 50.6032 44.5615 51.5796 45.1609C52.585 45.7313 52.9814 46.6207 53.0491 47.1524C53.1167 47.7035 53.0394 47.9742 53.0104 47.9645Z" fill="black" fill-opacity="0.2"/>
<path d="M53.0104 47.9645C52.9524 47.9645 52.933 47.6938 52.7687 47.2298C52.614 46.7657 52.208 46.0987 51.2992 45.683C50.4098 45.2479 49.1047 45.0642 47.5386 45.0642C45.9725 45.0933 44.0583 45.1803 41.9025 45.2383C37.5714 45.3736 32.119 45.4993 25.4968 45.6153C22.1808 45.6636 18.5748 45.7216 14.6692 45.7796C12.7164 45.799 10.6862 45.828 8.58835 45.8473L5.37875 45.8763C4.85671 45.8763 4.325 45.886 3.78362 45.886C3.39692 45.9053 3.02955 46.0407 2.71053 46.2727C2.06281 46.7271 1.73411 47.5488 1.86946 48.3029C1.98547 49.0569 2.56552 49.7046 3.27124 49.9367C3.44526 49.985 3.62894 50.0333 3.81262 50.0333C3.9963 50.043 4.325 50.0333 4.56668 50.043H6.14248C7.18657 50.043 8.21132 50.0527 9.2264 50.0527C13.2867 50.0817 17.1054 50.101 20.6824 50.1203C27.8363 50.1783 33.9945 50.2653 39.0216 50.362C41.5351 50.42 43.7683 50.4684 45.7114 50.507C47.6546 50.5264 49.2981 50.7101 50.5258 50.4587C51.7923 50.2557 52.498 49.521 52.7107 48.9119C52.9524 48.3319 52.9427 47.9645 53.0104 47.9645C53.0297 47.9645 53.049 48.0515 53.0587 48.2255C53.0781 48.3995 53.0684 48.6702 52.9814 49.0182C52.904 49.3663 52.701 49.7916 52.3047 50.1783C51.918 50.565 51.3379 50.8551 50.6709 51.0387C50.0038 51.2321 49.2304 51.3094 48.399 51.3288C47.5773 51.3481 46.6879 51.3771 45.7211 51.4061C43.7876 51.4448 41.5544 51.4931 39.0312 51.5511C34.0041 51.6381 27.846 51.7251 20.692 51.7831C17.1151 51.8025 13.2867 51.8218 9.23607 51.8508C8.22099 51.8508 7.19623 51.8605 6.15215 51.8605H4.57635C4.29599 51.8605 4.08331 51.8702 3.73528 51.8508C3.38672 51.8384 3.04169 51.7766 2.71053 51.6671C1.36675 51.2514 0.29366 50.043 0.0616402 48.6122C-0.209049 47.1911 0.429004 45.6346 1.63744 44.7839C2.23682 44.3585 2.95221 44.0975 3.67727 44.0588C3.87062 44.0492 4.01564 44.0492 4.15098 44.0492H5.38842C6.48084 44.0395 7.54426 44.0298 8.59802 44.0298C10.6959 44.0202 12.726 44.0105 14.6789 43.9912L25.4968 43.9622C32.119 43.9622 37.5811 44.0008 41.9025 44.0492C44.0776 44.0878 45.9338 44.0878 47.5773 44.1652C49.2111 44.2715 50.6032 44.5615 51.5796 45.1609C52.585 45.7313 52.9814 46.6207 53.0491 47.1524C53.1167 47.7035 53.0394 47.9742 53.0104 47.9645Z" fill="black" fill-opacity="0.2"/>
<path d="M53.0104 47.9645C52.9524 47.9645 52.933 47.6938 52.7687 47.2298C52.614 46.7657 52.208 46.0987 51.2992 45.683C50.4098 45.2479 49.1047 45.0642 47.5386 45.0642C45.9725 45.0933 44.0583 45.1803 41.9025 45.2383C37.5714 45.3736 32.119 45.4993 25.4968 45.6153C22.1808 45.6636 18.5748 45.7216 14.6692 45.7796C12.7164 45.799 10.6862 45.828 8.58835 45.8473L5.37875 45.8763C4.85671 45.8763 4.325 45.886 3.78362 45.886C3.39692 45.9053 3.02955 46.0407 2.71053 46.2727C2.06281 46.7271 1.73411 47.5488 1.86946 48.3029C1.98547 49.0569 2.56552 49.7046 3.27124 49.9367C3.44526 49.985 3.62894 50.0333 3.81262 50.0333C3.9963 50.043 4.325 50.0333 4.56668 50.043H6.14248C7.18657 50.043 8.21132 50.0527 9.2264 50.0527C13.2867 50.0817 17.1054 50.101 20.6824 50.1203C27.8363 50.1783 33.9945 50.2653 39.0216 50.362C41.5351 50.42 43.7683 50.4684 45.7114 50.507C47.6546 50.5264 49.2981 50.7101 50.5258 50.4587C51.7923 50.2557 52.498 49.521 52.7107 48.9119C52.9524 48.3319 52.9427 47.9645 53.0104 47.9645C53.0297 47.9645 53.049 48.0515 53.0587 48.2255C53.0781 48.3995 53.0684 48.6702 52.9814 49.0182C52.904 49.3663 52.701 49.7916 52.3047 50.1783C51.918 50.565 51.3379 50.8551 50.6709 51.0387C50.0038 51.2321 49.2304 51.3094 48.399 51.3288C47.5773 51.3481 46.6879 51.3771 45.7211 51.4061C43.7876 51.4448 41.5544 51.4931 39.0312 51.5511C34.0041 51.6381 27.846 51.7251 20.692 51.7831C17.1151 51.8025 13.2867 51.8218 9.23607 51.8508C8.22099 51.8508 7.19623 51.8605 6.15215 51.8605H4.57635C4.29599 51.8605 4.08331 51.8702 3.73528 51.8508C3.38672 51.8384 3.04169 51.7766 2.71053 51.6671C1.36675 51.2514 0.29366 50.043 0.0616402 48.6122C-0.209049 47.1911 0.429004 45.6346 1.63744 44.7839C2.23682 44.3585 2.95221 44.0975 3.67727 44.0588C3.87062 44.0492 4.01564 44.0492 4.15098 44.0492H5.38842C6.48084 44.0395 7.54426 44.0298 8.59802 44.0298C10.6959 44.0202 12.726 44.0105 14.6789 43.9912L25.4968 43.9622C32.119 43.9622 37.5811 44.0008 41.9025 44.0492C44.0776 44.0878 45.9338 44.0878 47.5773 44.1652C49.2111 44.2715 50.6032 44.5615 51.5796 45.1609C52.585 45.7313 52.9814 46.6207 53.0491 47.1524C53.1167 47.7035 53.0394 47.9742 53.0104 47.9645Z" fill="black" fill-opacity="0.2"/>
<path d="M59.5169 11.3247V20.5184C59.5169 21.5722 59.1012 22.5969 58.3471 23.3413L51.8506 29.8379C51.1062 30.5823 50.0911 31.0076 49.0277 31.0076H39.8339C38.7802 31.0076 37.7554 30.5919 37.011 29.8379L30.5145 23.3413C29.7659 22.5925 29.3452 21.5772 29.3447 20.5184V11.3247C29.3447 10.2709 29.7604 9.24615 30.5145 8.50175L37.011 2.00521C37.7554 1.26082 38.7705 0.835449 39.8339 0.835449H49.0277C50.0815 0.835449 51.1062 1.25115 51.8506 2.00521L58.3471 8.50175C58.7196 8.87116 59.0149 9.31099 59.2157 9.79564C59.4166 10.2803 59.5189 10.8001 59.5169 11.3247Z" fill="#AE49FF"/>
<path d="M59.5169 11.3249C59.4686 11.3249 59.4396 11.0929 59.3139 10.6578C59.1882 10.2325 58.9465 9.57509 58.3472 8.93704C56.9937 7.68994 54.8669 5.74677 52.0923 3.08822C51.7443 2.76919 51.3769 2.37283 51.0579 2.14081C50.7099 1.88945 50.2942 1.6961 49.8591 1.59943C49.4241 1.48342 48.9697 1.51242 48.351 1.52209C45.7924 1.56516 43.2338 1.60383 40.675 1.6381C40.3463 1.64777 39.921 1.6381 39.6503 1.65743C39.0624 1.69561 38.4968 1.89643 38.0165 2.23748C37.7748 2.40183 37.5814 2.61451 37.2914 2.91421L35.6383 4.59635C34.5072 5.73711 33.3374 6.92621 32.1193 8.15397C31.81 8.46333 31.5103 8.77269 31.1912 9.09172C30.9302 9.35274 30.7369 9.62343 30.5725 9.93279C30.4178 10.2421 30.3115 10.5805 30.2728 10.9382C30.2342 11.2476 30.2535 11.7503 30.2535 12.2143C30.2535 14.0801 30.2535 16.0136 30.2632 18.0245V19.5133C30.2728 19.987 30.2438 20.5573 30.2825 20.8764C30.3792 21.6401 30.7079 22.2878 31.3169 22.8582C32.6607 24.2116 33.9658 25.5264 35.2419 26.8025C35.88 27.4406 36.4987 28.0786 37.1174 28.6974L37.5814 29.1614C37.7265 29.3064 37.8328 29.4031 37.9681 29.5094C38.2388 29.7124 38.5385 29.8768 38.8479 29.9831C39.1669 30.0895 39.4956 30.1475 39.8243 30.1475C40.24 30.1475 40.6557 30.1571 41.0617 30.1571C41.8835 30.1668 42.6955 30.1668 43.4883 30.1765C45.0737 30.1958 46.6109 30.2055 48.09 30.2248C48.4477 30.2248 48.8054 30.2345 49.1534 30.2345C49.4434 30.2248 49.7334 30.1765 50.0138 30.0991C50.5842 29.9251 51.0386 29.6351 51.4736 29.1904C53.4361 27.2956 55.2246 25.5748 56.8294 24.0183C57.2257 23.6316 57.6221 23.2642 57.9991 22.8969C58.3278 22.5778 58.5792 22.2008 58.7435 21.8044C58.9175 21.4081 59.0142 20.9924 59.0336 20.5863C59.0432 20.1223 59.0626 19.6873 59.0722 19.2619C59.1302 17.5411 59.1882 16.0813 59.2269 14.9115C59.3332 12.5527 59.4299 11.3249 59.5169 11.3249C59.6039 11.3249 59.7103 12.5623 59.807 14.9115C59.8456 16.091 59.9036 17.5411 59.9616 19.2619C59.9713 19.6969 59.981 20.1416 60.0003 20.6153C60.0003 21.1374 59.9133 21.6788 59.7103 22.2008C59.5169 22.7229 59.2076 23.2352 58.8015 23.6703L57.6704 24.8594C56.114 26.4642 54.3932 28.2526 52.4983 30.2151C52.0053 30.7565 51.2706 31.2786 50.4778 31.5299C50.0815 31.6653 49.6561 31.7426 49.2211 31.7619C48.844 31.7716 48.4767 31.7716 48.09 31.7813C46.6109 31.8006 45.0834 31.8103 43.4883 31.8296C42.6955 31.8393 41.8835 31.8393 41.0617 31.8489C40.646 31.8489 40.2303 31.8586 39.8146 31.8586C39.3119 31.8586 38.7995 31.7813 38.3065 31.6169C37.8135 31.4622 37.3494 31.2109 36.9241 30.9015C36.7225 30.7436 36.5289 30.5759 36.344 30.3988L35.88 29.9348C35.2612 29.3161 34.6232 28.6974 33.9851 28.0593C32.709 26.7929 31.3943 25.4781 30.0408 24.1343C29.2481 23.4189 28.5907 22.2588 28.4747 21.0794C28.407 20.4317 28.4457 20.0063 28.436 19.4939V18.0051C28.436 16.004 28.436 14.0705 28.4457 12.195C28.4553 11.7213 28.4167 11.2959 28.494 10.6965C28.5617 10.1358 28.7357 9.59443 28.9871 9.10139C29.2287 8.60835 29.5768 8.15397 29.9441 7.79628C30.2535 7.48692 30.5725 7.17756 30.8819 6.8682C32.1193 5.6501 33.2987 4.48034 34.4395 3.34924L36.1217 1.6961C36.373 1.45442 36.7017 1.10639 37.0884 0.845366C37.4654 0.584345 37.8715 0.390996 38.2872 0.245983C38.7125 0.100971 39.1476 0.0236316 39.5729 0.00429665C40.0273 -0.00537082 40.3173 0.00429665 40.6847 0.00429665C43.2434 0.0391823 45.8021 0.0778521 48.3607 0.120306C48.6604 0.129974 48.9504 0.129974 49.2404 0.139641C49.5691 0.158976 49.8881 0.216981 50.1878 0.294321C50.7969 0.458668 51.3576 0.748692 51.8216 1.11606C52.305 1.51242 52.595 1.87979 52.943 2.21815C55.6016 5.01205 57.5351 7.06155 58.8015 8.52134C59.4203 9.33341 59.5653 10.0971 59.6039 10.5708C59.6233 11.0929 59.5556 11.3249 59.5169 11.3249Z" fill="#000F8F"/>
<path d="M59.5169 11.3249C59.4686 11.3249 59.4396 11.0929 59.3139 10.6578C59.1882 10.2325 58.9465 9.57509 58.3472 8.93704C56.9937 7.68994 54.8669 5.74677 52.0923 3.08822C51.7443 2.76919 51.3769 2.37283 51.0579 2.14081C50.7099 1.88945 50.2942 1.6961 49.8591 1.59943C49.4241 1.48342 48.9697 1.51242 48.351 1.52209C45.7924 1.56516 43.2338 1.60383 40.675 1.6381C40.3463 1.64777 39.921 1.6381 39.6503 1.65743C39.0624 1.69561 38.4968 1.89643 38.0165 2.23748C37.7748 2.40183 37.5814 2.61451 37.2914 2.91421L35.6383 4.59635C34.5072 5.73711 33.3374 6.92621 32.1193 8.15397C31.81 8.46333 31.5103 8.77269 31.1912 9.09172C30.9302 9.35274 30.7369 9.62343 30.5725 9.93279C30.4178 10.2421 30.3115 10.5805 30.2728 10.9382C30.2342 11.2476 30.2535 11.7503 30.2535 12.2143C30.2535 14.0801 30.2535 16.0136 30.2632 18.0245V19.5133C30.2728 19.987 30.2438 20.5573 30.2825 20.8764C30.3792 21.6401 30.7079 22.2878 31.3169 22.8582C32.6607 24.2116 33.9658 25.5264 35.2419 26.8025C35.88 27.4406 36.4987 28.0786 37.1174 28.6974L37.5814 29.1614C37.7265 29.3064 37.8328 29.4031 37.9681 29.5094C38.2388 29.7124 38.5385 29.8768 38.8479 29.9831C39.1669 30.0895 39.4956 30.1475 39.8243 30.1475C40.24 30.1475 40.6557 30.1571 41.0617 30.1571C41.8835 30.1668 42.6955 30.1668 43.4883 30.1765C45.0737 30.1958 46.6109 30.2055 48.09 30.2248C48.4477 30.2248 48.8054 30.2345 49.1534 30.2345C49.4434 30.2248 49.7334 30.1765 50.0138 30.0991C50.5842 29.9251 51.0386 29.6351 51.4736 29.1904C53.4361 27.2956 55.2246 25.5748 56.8294 24.0183C57.2257 23.6316 57.6221 23.2642 57.9991 22.8969C58.3278 22.5778 58.5792 22.2008 58.7435 21.8044C58.9175 21.4081 59.0142 20.9924 59.0336 20.5863C59.0432 20.1223 59.0626 19.6873 59.0722 19.2619C59.1302 17.5411 59.1882 16.0813 59.2269 14.9115C59.3332 12.5527 59.4299 11.3249 59.5169 11.3249C59.6039 11.3249 59.7103 12.5623 59.807 14.9115C59.8456 16.091 59.9036 17.5411 59.9616 19.2619C59.9713 19.6969 59.981 20.1416 60.0003 20.6153C60.0003 21.1374 59.9133 21.6788 59.7103 22.2008C59.5169 22.7229 59.2076 23.2352 58.8015 23.6703L57.6704 24.8594C56.114 26.4642 54.3932 28.2526 52.4983 30.2151C52.0053 30.7565 51.2706 31.2786 50.4778 31.5299C50.0815 31.6653 49.6561 31.7426 49.2211 31.7619C48.844 31.7716 48.4767 31.7716 48.09 31.7813C46.6109 31.8006 45.0834 31.8103 43.4883 31.8296C42.6955 31.8393 41.8835 31.8393 41.0617 31.8489C40.646 31.8489 40.2303 31.8586 39.8146 31.8586C39.3119 31.8586 38.7995 31.7813 38.3065 31.6169C37.8135 31.4622 37.3494 31.2109 36.9241 30.9015C36.7225 30.7436 36.5289 30.5759 36.344 30.3988L35.88 29.9348C35.2612 29.3161 34.6232 28.6974 33.9851 28.0593C32.709 26.7929 31.3943 25.4781 30.0408 24.1343C29.2481 23.4189 28.5907 22.2588 28.4747 21.0794C28.407 20.4317 28.4457 20.0063 28.436 19.4939V18.0051C28.436 16.004 28.436 14.0705 28.4457 12.195C28.4553 11.7213 28.4167 11.2959 28.494 10.6965C28.5617 10.1358 28.7357 9.59443 28.9871 9.10139C29.2287 8.60835 29.5768 8.15397 29.9441 7.79628C30.2535 7.48692 30.5725 7.17756 30.8819 6.8682C32.1193 5.6501 33.2987 4.48034 34.4395 3.34924L36.1217 1.6961C36.373 1.45442 36.7017 1.10639 37.0884 0.845366C37.4654 0.584345 37.8715 0.390996 38.2872 0.245983C38.7125 0.100971 39.1476 0.0236316 39.5729 0.00429665C40.0273 -0.00537082 40.3173 0.00429665 40.6847 0.00429665C43.2434 0.0391823 45.8021 0.0778521 48.3607 0.120306C48.6604 0.129974 48.9504 0.129974 49.2404 0.139641C49.5691 0.158976 49.8881 0.216981 50.1878 0.294321C50.7969 0.458668 51.3576 0.748692 51.8216 1.11606C52.305 1.51242 52.595 1.87979 52.943 2.21815C55.6016 5.01205 57.5351 7.06155 58.8015 8.52134C59.4203 9.33341 59.5653 10.0971 59.6039 10.5708C59.6233 11.0929 59.5556 11.3249 59.5169 11.3249Z" fill="black" fill-opacity="0.2"/>
<path d="M59.5169 11.3249C59.4686 11.3249 59.4396 11.0929 59.3139 10.6578C59.1882 10.2325 58.9465 9.57509 58.3472 8.93704C56.9937 7.68994 54.8669 5.74677 52.0923 3.08822C51.7443 2.76919 51.3769 2.37283 51.0579 2.14081C50.7099 1.88945 50.2942 1.6961 49.8591 1.59943C49.4241 1.48342 48.9697 1.51242 48.351 1.52209C45.7924 1.56516 43.2338 1.60383 40.675 1.6381C40.3463 1.64777 39.921 1.6381 39.6503 1.65743C39.0624 1.69561 38.4968 1.89643 38.0165 2.23748C37.7748 2.40183 37.5814 2.61451 37.2914 2.91421L35.6383 4.59635C34.5072 5.73711 33.3374 6.92621 32.1193 8.15397C31.81 8.46333 31.5103 8.77269 31.1912 9.09172C30.9302 9.35274 30.7369 9.62343 30.5725 9.93279C30.4178 10.2421 30.3115 10.5805 30.2728 10.9382C30.2342 11.2476 30.2535 11.7503 30.2535 12.2143C30.2535 14.0801 30.2535 16.0136 30.2632 18.0245V19.5133C30.2728 19.987 30.2438 20.5573 30.2825 20.8764C30.3792 21.6401 30.7079 22.2878 31.3169 22.8582C32.6607 24.2116 33.9658 25.5264 35.2419 26.8025C35.88 27.4406 36.4987 28.0786 37.1174 28.6974L37.5814 29.1614C37.7265 29.3064 37.8328 29.4031 37.9681 29.5094C38.2388 29.7124 38.5385 29.8768 38.8479 29.9831C39.1669 30.0895 39.4956 30.1475 39.8243 30.1475C40.24 30.1475 40.6557 30.1571 41.0617 30.1571C41.8835 30.1668 42.6955 30.1668 43.4883 30.1765C45.0737 30.1958 46.6109 30.2055 48.09 30.2248C48.4477 30.2248 48.8054 30.2345 49.1534 30.2345C49.4434 30.2248 49.7334 30.1765 50.0138 30.0991C50.5842 29.9251 51.0386 29.6351 51.4736 29.1904C53.4361 27.2956 55.2246 25.5748 56.8294 24.0183C57.2257 23.6316 57.6221 23.2642 57.9991 22.8969C58.3278 22.5778 58.5792 22.2008 58.7435 21.8044C58.9175 21.4081 59.0142 20.9924 59.0336 20.5863C59.0432 20.1223 59.0626 19.6873 59.0722 19.2619C59.1302 17.5411 59.1882 16.0813 59.2269 14.9115C59.3332 12.5527 59.4299 11.3249 59.5169 11.3249C59.6039 11.3249 59.7103 12.5623 59.807 14.9115C59.8456 16.091 59.9036 17.5411 59.9616 19.2619C59.9713 19.6969 59.981 20.1416 60.0003 20.6153C60.0003 21.1374 59.9133 21.6788 59.7103 22.2008C59.5169 22.7229 59.2076 23.2352 58.8015 23.6703L57.6704 24.8594C56.114 26.4642 54.3932 28.2526 52.4983 30.2151C52.0053 30.7565 51.2706 31.2786 50.4778 31.5299C50.0815 31.6653 49.6561 31.7426 49.2211 31.7619C48.844 31.7716 48.4767 31.7716 48.09 31.7813C46.6109 31.8006 45.0834 31.8103 43.4883 31.8296C42.6955 31.8393 41.8835 31.8393 41.0617 31.8489C40.646 31.8489 40.2303 31.8586 39.8146 31.8586C39.3119 31.8586 38.7995 31.7813 38.3065 31.6169C37.8135 31.4622 37.3494 31.2109 36.9241 30.9015C36.7225 30.7436 36.5289 30.5759 36.344 30.3988L35.88 29.9348C35.2612 29.3161 34.6232 28.6974 33.9851 28.0593C32.709 26.7929 31.3943 25.4781 30.0408 24.1343C29.2481 23.4189 28.5907 22.2588 28.4747 21.0794C28.407 20.4317 28.4457 20.0063 28.436 19.4939V18.0051C28.436 16.004 28.436 14.0705 28.4457 12.195C28.4553 11.7213 28.4167 11.2959 28.494 10.6965C28.5617 10.1358 28.7357 9.59443 28.9871 9.10139C29.2287 8.60835 29.5768 8.15397 29.9441 7.79628C30.2535 7.48692 30.5725 7.17756 30.8819 6.8682C32.1193 5.6501 33.2987 4.48034 34.4395 3.34924L36.1217 1.6961C36.373 1.45442 36.7017 1.10639 37.0884 0.845366C37.4654 0.584345 37.8715 0.390996 38.2872 0.245983C38.7125 0.100971 39.1476 0.0236316 39.5729 0.00429665C40.0273 -0.00537082 40.3173 0.00429665 40.6847 0.00429665C43.2434 0.0391823 45.8021 0.0778521 48.3607 0.120306C48.6604 0.129974 48.9504 0.129974 49.2404 0.139641C49.5691 0.158976 49.8881 0.216981 50.1878 0.294321C50.7969 0.458668 51.3576 0.748692 51.8216 1.11606C52.305 1.51242 52.595 1.87979 52.943 2.21815C55.6016 5.01205 57.5351 7.06155 58.8015 8.52134C59.4203 9.33341 59.5653 10.0971 59.6039 10.5708C59.6233 11.0929 59.5556 11.3249 59.5169 11.3249Z" fill="black" fill-opacity="0.2"/>
<path d="M59.5169 11.3249C59.4686 11.3249 59.4396 11.0929 59.3139 10.6578C59.1882 10.2325 58.9465 9.57509 58.3472 8.93704C56.9937 7.68994 54.8669 5.74677 52.0923 3.08822C51.7443 2.76919 51.3769 2.37283 51.0579 2.14081C50.7099 1.88945 50.2942 1.6961 49.8591 1.59943C49.4241 1.48342 48.9697 1.51242 48.351 1.52209C45.7924 1.56516 43.2338 1.60383 40.675 1.6381C40.3463 1.64777 39.921 1.6381 39.6503 1.65743C39.0624 1.69561 38.4968 1.89643 38.0165 2.23748C37.7748 2.40183 37.5814 2.61451 37.2914 2.91421L35.6383 4.59635C34.5072 5.73711 33.3374 6.92621 32.1193 8.15397C31.81 8.46333 31.5103 8.77269 31.1912 9.09172C30.9302 9.35274 30.7369 9.62343 30.5725 9.93279C30.4178 10.2421 30.3115 10.5805 30.2728 10.9382C30.2342 11.2476 30.2535 11.7503 30.2535 12.2143C30.2535 14.0801 30.2535 16.0136 30.2632 18.0245V19.5133C30.2728 19.987 30.2438 20.5573 30.2825 20.8764C30.3792 21.6401 30.7079 22.2878 31.3169 22.8582C32.6607 24.2116 33.9658 25.5264 35.2419 26.8025C35.88 27.4406 36.4987 28.0786 37.1174 28.6974L37.5814 29.1614C37.7265 29.3064 37.8328 29.4031 37.9681 29.5094C38.2388 29.7124 38.5385 29.8768 38.8479 29.9831C39.1669 30.0895 39.4956 30.1475 39.8243 30.1475C40.24 30.1475 40.6557 30.1571 41.0617 30.1571C41.8835 30.1668 42.6955 30.1668 43.4883 30.1765C45.0737 30.1958 46.6109 30.2055 48.09 30.2248C48.4477 30.2248 48.8054 30.2345 49.1534 30.2345C49.4434 30.2248 49.7334 30.1765 50.0138 30.0991C50.5842 29.9251 51.0386 29.6351 51.4736 29.1904C53.4361 27.2956 55.2246 25.5748 56.8294 24.0183C57.2257 23.6316 57.6221 23.2642 57.9991 22.8969C58.3278 22.5778 58.5792 22.2008 58.7435 21.8044C58.9175 21.4081 59.0142 20.9924 59.0336 20.5863C59.0432 20.1223 59.0626 19.6873 59.0722 19.2619C59.1302 17.5411 59.1882 16.0813 59.2269 14.9115C59.3332 12.5527 59.4299 11.3249 59.5169 11.3249C59.6039 11.3249 59.7103 12.5623 59.807 14.9115C59.8456 16.091 59.9036 17.5411 59.9616 19.2619C59.9713 19.6969 59.981 20.1416 60.0003 20.6153C60.0003 21.1374 59.9133 21.6788 59.7103 22.2008C59.5169 22.7229 59.2076 23.2352 58.8015 23.6703L57.6704 24.8594C56.114 26.4642 54.3932 28.2526 52.4983 30.2151C52.0053 30.7565 51.2706 31.2786 50.4778 31.5299C50.0815 31.6653 49.6561 31.7426 49.2211 31.7619C48.844 31.7716 48.4767 31.7716 48.09 31.7813C46.6109 31.8006 45.0834 31.8103 43.4883 31.8296C42.6955 31.8393 41.8835 31.8393 41.0617 31.8489C40.646 31.8489 40.2303 31.8586 39.8146 31.8586C39.3119 31.8586 38.7995 31.7813 38.3065 31.6169C37.8135 31.4622 37.3494 31.2109 36.9241 30.9015C36.7225 30.7436 36.5289 30.5759 36.344 30.3988L35.88 29.9348C35.2612 29.3161 34.6232 28.6974 33.9851 28.0593C32.709 26.7929 31.3943 25.4781 30.0408 24.1343C29.2481 23.4189 28.5907 22.2588 28.4747 21.0794C28.407 20.4317 28.4457 20.0063 28.436 19.4939V18.0051C28.436 16.004 28.436 14.0705 28.4457 12.195C28.4553 11.7213 28.4167 11.2959 28.494 10.6965C28.5617 10.1358 28.7357 9.59443 28.9871 9.10139C29.2287 8.60835 29.5768 8.15397 29.9441 7.79628C30.2535 7.48692 30.5725 7.17756 30.8819 6.8682C32.1193 5.6501 33.2987 4.48034 34.4395 3.34924L36.1217 1.6961C36.373 1.45442 36.7017 1.10639 37.0884 0.845366C37.4654 0.584345 37.8715 0.390996 38.2872 0.245983C38.7125 0.100971 39.1476 0.0236316 39.5729 0.00429665C40.0273 -0.00537082 40.3173 0.00429665 40.6847 0.00429665C43.2434 0.0391823 45.8021 0.0778521 48.3607 0.120306C48.6604 0.129974 48.9504 0.129974 49.2404 0.139641C49.5691 0.158976 49.8881 0.216981 50.1878 0.294321C50.7969 0.458668 51.3576 0.748692 51.8216 1.11606C52.305 1.51242 52.595 1.87979 52.943 2.21815C55.6016 5.01205 57.5351 7.06155 58.8015 8.52134C59.4203 9.33341 59.5653 10.0971 59.6039 10.5708C59.6233 11.0929 59.5556 11.3249 59.5169 11.3249Z" fill="black" fill-opacity="0.2"/>
<path d="M59.5169 11.3249C59.4686 11.3249 59.4396 11.0929 59.3139 10.6578C59.1882 10.2325 58.9465 9.57509 58.3472 8.93704C56.9937 7.68994 54.8669 5.74677 52.0923 3.08822C51.7443 2.76919 51.3769 2.37283 51.0579 2.14081C50.7099 1.88945 50.2942 1.6961 49.8591 1.59943C49.4241 1.48342 48.9697 1.51242 48.351 1.52209C45.7924 1.56516 43.2338 1.60383 40.675 1.6381C40.3463 1.64777 39.921 1.6381 39.6503 1.65743C39.0624 1.69561 38.4968 1.89643 38.0165 2.23748C37.7748 2.40183 37.5814 2.61451 37.2914 2.91421L35.6383 4.59635C34.5072 5.73711 33.3374 6.92621 32.1193 8.15397C31.81 8.46333 31.5103 8.77269 31.1912 9.09172C30.9302 9.35274 30.7369 9.62343 30.5725 9.93279C30.4178 10.2421 30.3115 10.5805 30.2728 10.9382C30.2342 11.2476 30.2535 11.7503 30.2535 12.2143C30.2535 14.0801 30.2535 16.0136 30.2632 18.0245V19.5133C30.2728 19.987 30.2438 20.5573 30.2825 20.8764C30.3792 21.6401 30.7079 22.2878 31.3169 22.8582C32.6607 24.2116 33.9658 25.5264 35.2419 26.8025C35.88 27.4406 36.4987 28.0786 37.1174 28.6974L37.5814 29.1614C37.7265 29.3064 37.8328 29.4031 37.9681 29.5094C38.2388 29.7124 38.5385 29.8768 38.8479 29.9831C39.1669 30.0895 39.4956 30.1475 39.8243 30.1475C40.24 30.1475 40.6557 30.1571 41.0617 30.1571C41.8835 30.1668 42.6955 30.1668 43.4883 30.1765C45.0737 30.1958 46.6109 30.2055 48.09 30.2248C48.4477 30.2248 48.8054 30.2345 49.1534 30.2345C49.4434 30.2248 49.7334 30.1765 50.0138 30.0991C50.5842 29.9251 51.0386 29.6351 51.4736 29.1904C53.4361 27.2956 55.2246 25.5748 56.8294 24.0183C57.2257 23.6316 57.6221 23.2642 57.9991 22.8969C58.3278 22.5778 58.5792 22.2008 58.7435 21.8044C58.9175 21.4081 59.0142 20.9924 59.0336 20.5863C59.0432 20.1223 59.0626 19.6873 59.0722 19.2619C59.1302 17.5411 59.1882 16.0813 59.2269 14.9115C59.3332 12.5527 59.4299 11.3249 59.5169 11.3249C59.6039 11.3249 59.7103 12.5623 59.807 14.9115C59.8456 16.091 59.9036 17.5411 59.9616 19.2619C59.9713 19.6969 59.981 20.1416 60.0003 20.6153C60.0003 21.1374 59.9133 21.6788 59.7103 22.2008C59.5169 22.7229 59.2076 23.2352 58.8015 23.6703L57.6704 24.8594C56.114 26.4642 54.3932 28.2526 52.4983 30.2151C52.0053 30.7565 51.2706 31.2786 50.4778 31.5299C50.0815 31.6653 49.6561 31.7426 49.2211 31.7619C48.844 31.7716 48.4767 31.7716 48.09 31.7813C46.6109 31.8006 45.0834 31.8103 43.4883 31.8296C42.6955 31.8393 41.8835 31.8393 41.0617 31.8489C40.646 31.8489 40.2303 31.8586 39.8146 31.8586C39.3119 31.8586 38.7995 31.7813 38.3065 31.6169C37.8135 31.4622 37.3494 31.2109 36.9241 30.9015C36.7225 30.7436 36.5289 30.5759 36.344 30.3988L35.88 29.9348C35.2612 29.3161 34.6232 28.6974 33.9851 28.0593C32.709 26.7929 31.3943 25.4781 30.0408 24.1343C29.2481 23.4189 28.5907 22.2588 28.4747 21.0794C28.407 20.4317 28.4457 20.0063 28.436 19.4939V18.0051C28.436 16.004 28.436 14.0705 28.4457 12.195C28.4553 11.7213 28.4167 11.2959 28.494 10.6965C28.5617 10.1358 28.7357 9.59443 28.9871 9.10139C29.2287 8.60835 29.5768 8.15397 29.9441 7.79628C30.2535 7.48692 30.5725 7.17756 30.8819 6.8682C32.1193 5.6501 33.2987 4.48034 34.4395 3.34924L36.1217 1.6961C36.373 1.45442 36.7017 1.10639 37.0884 0.845366C37.4654 0.584345 37.8715 0.390996 38.2872 0.245983C38.7125 0.100971 39.1476 0.0236316 39.5729 0.00429665C40.0273 -0.00537082 40.3173 0.00429665 40.6847 0.00429665C43.2434 0.0391823 45.8021 0.0778521 48.3607 0.120306C48.6604 0.129974 48.9504 0.129974 49.2404 0.139641C49.5691 0.158976 49.8881 0.216981 50.1878 0.294321C50.7969 0.458668 51.3576 0.748692 51.8216 1.11606C52.305 1.51242 52.595 1.87979 52.943 2.21815C55.6016 5.01205 57.5351 7.06155 58.8015 8.52134C59.4203 9.33341 59.5653 10.0971 59.6039 10.5708C59.6233 11.0929 59.5556 11.3249 59.5169 11.3249Z" fill="black" fill-opacity="0.2"/>
<path d="M59.5169 11.3249C59.4686 11.3249 59.4396 11.0929 59.3139 10.6578C59.1882 10.2325 58.9465 9.57509 58.3472 8.93704C56.9937 7.68994 54.8669 5.74677 52.0923 3.08822C51.7443 2.76919 51.3769 2.37283 51.0579 2.14081C50.7099 1.88945 50.2942 1.6961 49.8591 1.59943C49.4241 1.48342 48.9697 1.51242 48.351 1.52209C45.7924 1.56516 43.2338 1.60383 40.675 1.6381C40.3463 1.64777 39.921 1.6381 39.6503 1.65743C39.0624 1.69561 38.4968 1.89643 38.0165 2.23748C37.7748 2.40183 37.5814 2.61451 37.2914 2.91421L35.6383 4.59635C34.5072 5.73711 33.3374 6.92621 32.1193 8.15397C31.81 8.46333 31.5103 8.77269 31.1912 9.09172C30.9302 9.35274 30.7369 9.62343 30.5725 9.93279C30.4178 10.2421 30.3115 10.5805 30.2728 10.9382C30.2342 11.2476 30.2535 11.7503 30.2535 12.2143C30.2535 14.0801 30.2535 16.0136 30.2632 18.0245V19.5133C30.2728 19.987 30.2438 20.5573 30.2825 20.8764C30.3792 21.6401 30.7079 22.2878 31.3169 22.8582C32.6607 24.2116 33.9658 25.5264 35.2419 26.8025C35.88 27.4406 36.4987 28.0786 37.1174 28.6974L37.5814 29.1614C37.7265 29.3064 37.8328 29.4031 37.9681 29.5094C38.2388 29.7124 38.5385 29.8768 38.8479 29.9831C39.1669 30.0895 39.4956 30.1475 39.8243 30.1475C40.24 30.1475 40.6557 30.1571 41.0617 30.1571C41.8835 30.1668 42.6955 30.1668 43.4883 30.1765C45.0737 30.1958 46.6109 30.2055 48.09 30.2248C48.4477 30.2248 48.8054 30.2345 49.1534 30.2345C49.4434 30.2248 49.7334 30.1765 50.0138 30.0991C50.5842 29.9251 51.0386 29.6351 51.4736 29.1904C53.4361 27.2956 55.2246 25.5748 56.8294 24.0183C57.2257 23.6316 57.6221 23.2642 57.9991 22.8969C58.3278 22.5778 58.5792 22.2008 58.7435 21.8044C58.9175 21.4081 59.0142 20.9924 59.0336 20.5863C59.0432 20.1223 59.0626 19.6873 59.0722 19.2619C59.1302 17.5411 59.1882 16.0813 59.2269 14.9115C59.3332 12.5527 59.4299 11.3249 59.5169 11.3249C59.6039 11.3249 59.7103 12.5623 59.807 14.9115C59.8456 16.091 59.9036 17.5411 59.9616 19.2619C59.9713 19.6969 59.981 20.1416 60.0003 20.6153C60.0003 21.1374 59.9133 21.6788 59.7103 22.2008C59.5169 22.7229 59.2076 23.2352 58.8015 23.6703L57.6704 24.8594C56.114 26.4642 54.3932 28.2526 52.4983 30.2151C52.0053 30.7565 51.2706 31.2786 50.4778 31.5299C50.0815 31.6653 49.6561 31.7426 49.2211 31.7619C48.844 31.7716 48.4767 31.7716 48.09 31.7813C46.6109 31.8006 45.0834 31.8103 43.4883 31.8296C42.6955 31.8393 41.8835 31.8393 41.0617 31.8489C40.646 31.8489 40.2303 31.8586 39.8146 31.8586C39.3119 31.8586 38.7995 31.7813 38.3065 31.6169C37.8135 31.4622 37.3494 31.2109 36.9241 30.9015C36.7225 30.7436 36.5289 30.5759 36.344 30.3988L35.88 29.9348C35.2612 29.3161 34.6232 28.6974 33.9851 28.0593C32.709 26.7929 31.3943 25.4781 30.0408 24.1343C29.2481 23.4189 28.5907 22.2588 28.4747 21.0794C28.407 20.4317 28.4457 20.0063 28.436 19.4939V18.0051C28.436 16.004 28.436 14.0705 28.4457 12.195C28.4553 11.7213 28.4167 11.2959 28.494 10.6965C28.5617 10.1358 28.7357 9.59443 28.9871 9.10139C29.2287 8.60835 29.5768 8.15397 29.9441 7.79628C30.2535 7.48692 30.5725 7.17756 30.8819 6.8682C32.1193 5.6501 33.2987 4.48034 34.4395 3.34924L36.1217 1.6961C36.373 1.45442 36.7017 1.10639 37.0884 0.845366C37.4654 0.584345 37.8715 0.390996 38.2872 0.245983C38.7125 0.100971 39.1476 0.0236316 39.5729 0.00429665C40.0273 -0.00537082 40.3173 0.00429665 40.6847 0.00429665C43.2434 0.0391823 45.8021 0.0778521 48.3607 0.120306C48.6604 0.129974 48.9504 0.129974 49.2404 0.139641C49.5691 0.158976 49.8881 0.216981 50.1878 0.294321C50.7969 0.458668 51.3576 0.748692 51.8216 1.11606C52.305 1.51242 52.595 1.87979 52.943 2.21815C55.6016 5.01205 57.5351 7.06155 58.8015 8.52134C59.4203 9.33341 59.5653 10.0971 59.6039 10.5708C59.6233 11.0929 59.5556 11.3249 59.5169 11.3249Z" fill="black" fill-opacity="0.2"/>
<path d="M47.9158 6.31725L47.0554 16.6711C46.9974 17.5122 46.3014 18.1696 45.4506 18.1696H43.4205C42.5794 18.1696 41.864 17.5122 41.806 16.6711L40.9456 6.31725C40.8876 5.3795 41.6223 4.59644 42.5697 4.59644H46.311C47.2488 4.59644 47.9932 5.3795 47.9158 6.31725Z" fill="white"/>
<path d="M47.9152 6.3169C47.8089 6.3169 47.8089 5.9302 47.4125 5.4855C47.2192 5.27281 46.9001 5.0698 46.5038 5.06013C46.3491 5.05046 46.0204 5.0988 45.711 5.11813C45.4017 5.13747 45.0633 5.16647 44.7056 5.18581C44.3479 5.20514 43.9709 5.23414 43.5649 5.25348L42.9365 5.28248L42.6078 5.30182C42.5014 5.31148 42.4628 5.31148 42.3951 5.33082C42.2059 5.37622 42.0373 5.48375 41.9164 5.63622C41.7955 5.78869 41.7292 5.97729 41.728 6.17189C41.757 6.40391 41.7764 6.63593 41.8054 6.87761C42.0471 9.05279 42.2984 11.6243 42.5401 14.5923C42.5981 15.3076 42.6561 15.994 42.7141 16.6804C42.7528 16.9801 43.0332 17.2411 43.3328 17.2701C43.9709 17.2798 44.5896 17.2895 45.189 17.3088H45.5467C45.624 17.3088 45.6917 17.2895 45.7594 17.2605C45.8962 17.2045 46.0148 17.1115 46.1018 16.992C46.1889 16.8725 46.241 16.7312 46.2524 16.5838C46.2814 16.3034 46.3201 16.023 46.3491 15.7524C46.4168 15.2013 46.4748 14.6793 46.5328 14.1766C46.6681 13.1711 46.7841 12.2527 46.8905 11.4213C47.3642 8.11505 47.7412 6.29757 47.9152 6.3169C48.0892 6.32657 48.1666 8.18272 48.0796 11.5083C48.0506 12.3397 48.0119 13.2678 47.9829 14.2829C47.9636 14.7856 47.9346 15.3173 47.9056 15.8684C47.8862 16.1391 47.8766 16.4194 47.8572 16.7094C47.8476 17.0865 47.7219 17.5602 47.4705 17.9275C47.2288 18.3046 46.8808 18.6236 46.4554 18.8169C46.2428 18.9136 46.0107 18.991 45.7787 19.02C45.6627 19.0393 45.5274 19.0393 45.4307 19.049H45.1987C44.8796 19.0586 44.5606 19.0586 44.2319 19.0683L43.7389 19.078C43.5745 19.078 43.4392 19.0876 43.1395 19.0683C42.0954 18.9716 41.1287 18.1402 40.9353 17.0188C40.887 16.7094 40.887 16.5934 40.8676 16.4001L40.8193 15.8587C40.7903 15.501 40.7613 15.1336 40.7226 14.7566C40.4713 11.7887 40.2973 9.20747 40.1716 7.02263L40.1522 6.59726L40.1426 6.39424V6.10422C40.1716 5.71752 40.2876 5.34049 40.4809 5.02146C40.6612 4.722 40.9055 4.46614 41.1963 4.27226C41.4872 4.07837 41.8173 3.95125 42.1631 3.90003C42.3178 3.87103 42.5111 3.8807 42.6174 3.8807L42.9461 3.90003L43.5745 3.92903C43.9806 3.94837 44.3576 3.97737 44.7153 3.99671C45.073 4.02571 45.4113 4.04504 45.7207 4.06438C46.0397 4.09338 46.2911 4.09338 46.6585 4.17072C47.3255 4.33507 47.7219 4.77977 47.9056 5.14714C48.2439 5.94954 47.9636 6.33624 47.9152 6.3169Z" fill="#000F8F"/>
<path d="M47.9152 6.3169C47.8089 6.3169 47.8089 5.9302 47.4125 5.4855C47.2192 5.27281 46.9001 5.0698 46.5038 5.06013C46.3491 5.05046 46.0204 5.0988 45.711 5.11813C45.4017 5.13747 45.0633 5.16647 44.7056 5.18581C44.3479 5.20514 43.9709 5.23414 43.5649 5.25348L42.9365 5.28248L42.6078 5.30182C42.5014 5.31148 42.4628 5.31148 42.3951 5.33082C42.2059 5.37622 42.0373 5.48375 41.9164 5.63622C41.7955 5.78869 41.7292 5.97729 41.728 6.17189C41.757 6.40391 41.7764 6.63593 41.8054 6.87761C42.0471 9.05279 42.2984 11.6243 42.5401 14.5923C42.5981 15.3076 42.6561 15.994 42.7141 16.6804C42.7528 16.9801 43.0332 17.2411 43.3328 17.2701C43.9709 17.2798 44.5896 17.2895 45.189 17.3088H45.5467C45.624 17.3088 45.6917 17.2895 45.7594 17.2605C45.8962 17.2045 46.0148 17.1115 46.1018 16.992C46.1889 16.8725 46.241 16.7312 46.2524 16.5838C46.2814 16.3034 46.3201 16.023 46.3491 15.7524C46.4168 15.2013 46.4748 14.6793 46.5328 14.1766C46.6681 13.1711 46.7841 12.2527 46.8905 11.4213C47.3642 8.11505 47.7412 6.29757 47.9152 6.3169C48.0892 6.32657 48.1666 8.18272 48.0796 11.5083C48.0506 12.3397 48.0119 13.2678 47.9829 14.2829C47.9636 14.7856 47.9346 15.3173 47.9056 15.8684C47.8862 16.1391 47.8766 16.4194 47.8572 16.7094C47.8476 17.0865 47.7219 17.5602 47.4705 17.9275C47.2288 18.3046 46.8808 18.6236 46.4554 18.8169C46.2428 18.9136 46.0107 18.991 45.7787 19.02C45.6627 19.0393 45.5274 19.0393 45.4307 19.049H45.1987C44.8796 19.0586 44.5606 19.0586 44.2319 19.0683L43.7389 19.078C43.5745 19.078 43.4392 19.0876 43.1395 19.0683C42.0954 18.9716 41.1287 18.1402 40.9353 17.0188C40.887 16.7094 40.887 16.5934 40.8676 16.4001L40.8193 15.8587C40.7903 15.501 40.7613 15.1336 40.7226 14.7566C40.4713 11.7887 40.2973 9.20747 40.1716 7.02263L40.1522 6.59726L40.1426 6.39424V6.10422C40.1716 5.71752 40.2876 5.34049 40.4809 5.02146C40.6612 4.722 40.9055 4.46614 41.1963 4.27226C41.4872 4.07837 41.8173 3.95125 42.1631 3.90003C42.3178 3.87103 42.5111 3.8807 42.6174 3.8807L42.9461 3.90003L43.5745 3.92903C43.9806 3.94837 44.3576 3.97737 44.7153 3.99671C45.073 4.02571 45.4113 4.04504 45.7207 4.06438C46.0397 4.09338 46.2911 4.09338 46.6585 4.17072C47.3255 4.33507 47.7219 4.77977 47.9056 5.14714C48.2439 5.94954 47.9636 6.33624 47.9152 6.3169Z" fill="black" fill-opacity="0.2"/>
<path d="M47.9152 6.3169C47.8089 6.3169 47.8089 5.9302 47.4125 5.4855C47.2192 5.27281 46.9001 5.0698 46.5038 5.06013C46.3491 5.05046 46.0204 5.0988 45.711 5.11813C45.4017 5.13747 45.0633 5.16647 44.7056 5.18581C44.3479 5.20514 43.9709 5.23414 43.5649 5.25348L42.9365 5.28248L42.6078 5.30182C42.5014 5.31148 42.4628 5.31148 42.3951 5.33082C42.2059 5.37622 42.0373 5.48375 41.9164 5.63622C41.7955 5.78869 41.7292 5.97729 41.728 6.17189C41.757 6.40391 41.7764 6.63593 41.8054 6.87761C42.0471 9.05279 42.2984 11.6243 42.5401 14.5923C42.5981 15.3076 42.6561 15.994 42.7141 16.6804C42.7528 16.9801 43.0332 17.2411 43.3328 17.2701C43.9709 17.2798 44.5896 17.2895 45.189 17.3088H45.5467C45.624 17.3088 45.6917 17.2895 45.7594 17.2605C45.8962 17.2045 46.0148 17.1115 46.1018 16.992C46.1889 16.8725 46.241 16.7312 46.2524 16.5838C46.2814 16.3034 46.3201 16.023 46.3491 15.7524C46.4168 15.2013 46.4748 14.6793 46.5328 14.1766C46.6681 13.1711 46.7841 12.2527 46.8905 11.4213C47.3642 8.11505 47.7412 6.29757 47.9152 6.3169C48.0892 6.32657 48.1666 8.18272 48.0796 11.5083C48.0506 12.3397 48.0119 13.2678 47.9829 14.2829C47.9636 14.7856 47.9346 15.3173 47.9056 15.8684C47.8862 16.1391 47.8766 16.4194 47.8572 16.7094C47.8476 17.0865 47.7219 17.5602 47.4705 17.9275C47.2288 18.3046 46.8808 18.6236 46.4554 18.8169C46.2428 18.9136 46.0107 18.991 45.7787 19.02C45.6627 19.0393 45.5274 19.0393 45.4307 19.049H45.1987C44.8796 19.0586 44.5606 19.0586 44.2319 19.0683L43.7389 19.078C43.5745 19.078 43.4392 19.0876 43.1395 19.0683C42.0954 18.9716 41.1287 18.1402 40.9353 17.0188C40.887 16.7094 40.887 16.5934 40.8676 16.4001L40.8193 15.8587C40.7903 15.501 40.7613 15.1336 40.7226 14.7566C40.4713 11.7887 40.2973 9.20747 40.1716 7.02263L40.1522 6.59726L40.1426 6.39424V6.10422C40.1716 5.71752 40.2876 5.34049 40.4809 5.02146C40.6612 4.722 40.9055 4.46614 41.1963 4.27226C41.4872 4.07837 41.8173 3.95125 42.1631 3.90003C42.3178 3.87103 42.5111 3.8807 42.6174 3.8807L42.9461 3.90003L43.5745 3.92903C43.9806 3.94837 44.3576 3.97737 44.7153 3.99671C45.073 4.02571 45.4113 4.04504 45.7207 4.06438C46.0397 4.09338 46.2911 4.09338 46.6585 4.17072C47.3255 4.33507 47.7219 4.77977 47.9056 5.14714C48.2439 5.94954 47.9636 6.33624 47.9152 6.3169Z" fill="black" fill-opacity="0.2"/>
<path d="M47.9152 6.3169C47.8089 6.3169 47.8089 5.9302 47.4125 5.4855C47.2192 5.27281 46.9001 5.0698 46.5038 5.06013C46.3491 5.05046 46.0204 5.0988 45.711 5.11813C45.4017 5.13747 45.0633 5.16647 44.7056 5.18581C44.3479 5.20514 43.9709 5.23414 43.5649 5.25348L42.9365 5.28248L42.6078 5.30182C42.5014 5.31148 42.4628 5.31148 42.3951 5.33082C42.2059 5.37622 42.0373 5.48375 41.9164 5.63622C41.7955 5.78869 41.7292 5.97729 41.728 6.17189C41.757 6.40391 41.7764 6.63593 41.8054 6.87761C42.0471 9.05279 42.2984 11.6243 42.5401 14.5923C42.5981 15.3076 42.6561 15.994 42.7141 16.6804C42.7528 16.9801 43.0332 17.2411 43.3328 17.2701C43.9709 17.2798 44.5896 17.2895 45.189 17.3088H45.5467C45.624 17.3088 45.6917 17.2895 45.7594 17.2605C45.8962 17.2045 46.0148 17.1115 46.1018 16.992C46.1889 16.8725 46.241 16.7312 46.2524 16.5838C46.2814 16.3034 46.3201 16.023 46.3491 15.7524C46.4168 15.2013 46.4748 14.6793 46.5328 14.1766C46.6681 13.1711 46.7841 12.2527 46.8905 11.4213C47.3642 8.11505 47.7412 6.29757 47.9152 6.3169C48.0892 6.32657 48.1666 8.18272 48.0796 11.5083C48.0506 12.3397 48.0119 13.2678 47.9829 14.2829C47.9636 14.7856 47.9346 15.3173 47.9056 15.8684C47.8862 16.1391 47.8766 16.4194 47.8572 16.7094C47.8476 17.0865 47.7219 17.5602 47.4705 17.9275C47.2288 18.3046 46.8808 18.6236 46.4554 18.8169C46.2428 18.9136 46.0107 18.991 45.7787 19.02C45.6627 19.0393 45.5274 19.0393 45.4307 19.049H45.1987C44.8796 19.0586 44.5606 19.0586 44.2319 19.0683L43.7389 19.078C43.5745 19.078 43.4392 19.0876 43.1395 19.0683C42.0954 18.9716 41.1287 18.1402 40.9353 17.0188C40.887 16.7094 40.887 16.5934 40.8676 16.4001L40.8193 15.8587C40.7903 15.501 40.7613 15.1336 40.7226 14.7566C40.4713 11.7887 40.2973 9.20747 40.1716 7.02263L40.1522 6.59726L40.1426 6.39424V6.10422C40.1716 5.71752 40.2876 5.34049 40.4809 5.02146C40.6612 4.722 40.9055 4.46614 41.1963 4.27226C41.4872 4.07837 41.8173 3.95125 42.1631 3.90003C42.3178 3.87103 42.5111 3.8807 42.6174 3.8807L42.9461 3.90003L43.5745 3.92903C43.9806 3.94837 44.3576 3.97737 44.7153 3.99671C45.073 4.02571 45.4113 4.04504 45.7207 4.06438C46.0397 4.09338 46.2911 4.09338 46.6585 4.17072C47.3255 4.33507 47.7219 4.77977 47.9056 5.14714C48.2439 5.94954 47.9636 6.33624 47.9152 6.3169Z" fill="black" fill-opacity="0.2"/>
<path d="M47.9152 6.3169C47.8089 6.3169 47.8089 5.9302 47.4125 5.4855C47.2192 5.27281 46.9001 5.0698 46.5038 5.06013C46.3491 5.05046 46.0204 5.0988 45.711 5.11813C45.4017 5.13747 45.0633 5.16647 44.7056 5.18581C44.3479 5.20514 43.9709 5.23414 43.5649 5.25348L42.9365 5.28248L42.6078 5.30182C42.5014 5.31148 42.4628 5.31148 42.3951 5.33082C42.2059 5.37622 42.0373 5.48375 41.9164 5.63622C41.7955 5.78869 41.7292 5.97729 41.728 6.17189C41.757 6.40391 41.7764 6.63593 41.8054 6.87761C42.0471 9.05279 42.2984 11.6243 42.5401 14.5923C42.5981 15.3076 42.6561 15.994 42.7141 16.6804C42.7528 16.9801 43.0332 17.2411 43.3328 17.2701C43.9709 17.2798 44.5896 17.2895 45.189 17.3088H45.5467C45.624 17.3088 45.6917 17.2895 45.7594 17.2605C45.8962 17.2045 46.0148 17.1115 46.1018 16.992C46.1889 16.8725 46.241 16.7312 46.2524 16.5838C46.2814 16.3034 46.3201 16.023 46.3491 15.7524C46.4168 15.2013 46.4748 14.6793 46.5328 14.1766C46.6681 13.1711 46.7841 12.2527 46.8905 11.4213C47.3642 8.11505 47.7412 6.29757 47.9152 6.3169C48.0892 6.32657 48.1666 8.18272 48.0796 11.5083C48.0506 12.3397 48.0119 13.2678 47.9829 14.2829C47.9636 14.7856 47.9346 15.3173 47.9056 15.8684C47.8862 16.1391 47.8766 16.4194 47.8572 16.7094C47.8476 17.0865 47.7219 17.5602 47.4705 17.9275C47.2288 18.3046 46.8808 18.6236 46.4554 18.8169C46.2428 18.9136 46.0107 18.991 45.7787 19.02C45.6627 19.0393 45.5274 19.0393 45.4307 19.049H45.1987C44.8796 19.0586 44.5606 19.0586 44.2319 19.0683L43.7389 19.078C43.5745 19.078 43.4392 19.0876 43.1395 19.0683C42.0954 18.9716 41.1287 18.1402 40.9353 17.0188C40.887 16.7094 40.887 16.5934 40.8676 16.4001L40.8193 15.8587C40.7903 15.501 40.7613 15.1336 40.7226 14.7566C40.4713 11.7887 40.2973 9.20747 40.1716 7.02263L40.1522 6.59726L40.1426 6.39424V6.10422C40.1716 5.71752 40.2876 5.34049 40.4809 5.02146C40.6612 4.722 40.9055 4.46614 41.1963 4.27226C41.4872 4.07837 41.8173 3.95125 42.1631 3.90003C42.3178 3.87103 42.5111 3.8807 42.6174 3.8807L42.9461 3.90003L43.5745 3.92903C43.9806 3.94837 44.3576 3.97737 44.7153 3.99671C45.073 4.02571 45.4113 4.04504 45.7207 4.06438C46.0397 4.09338 46.2911 4.09338 46.6585 4.17072C47.3255 4.33507 47.7219 4.77977 47.9056 5.14714C48.2439 5.94954 47.9636 6.33624 47.9152 6.3169Z" fill="black" fill-opacity="0.2"/>
<path d="M47.9152 6.3169C47.8089 6.3169 47.8089 5.9302 47.4125 5.4855C47.2192 5.27281 46.9001 5.0698 46.5038 5.06013C46.3491 5.05046 46.0204 5.0988 45.711 5.11813C45.4017 5.13747 45.0633 5.16647 44.7056 5.18581C44.3479 5.20514 43.9709 5.23414 43.5649 5.25348L42.9365 5.28248L42.6078 5.30182C42.5014 5.31148 42.4628 5.31148 42.3951 5.33082C42.2059 5.37622 42.0373 5.48375 41.9164 5.63622C41.7955 5.78869 41.7292 5.97729 41.728 6.17189C41.757 6.40391 41.7764 6.63593 41.8054 6.87761C42.0471 9.05279 42.2984 11.6243 42.5401 14.5923C42.5981 15.3076 42.6561 15.994 42.7141 16.6804C42.7528 16.9801 43.0332 17.2411 43.3328 17.2701C43.9709 17.2798 44.5896 17.2895 45.189 17.3088H45.5467C45.624 17.3088 45.6917 17.2895 45.7594 17.2605C45.8962 17.2045 46.0148 17.1115 46.1018 16.992C46.1889 16.8725 46.241 16.7312 46.2524 16.5838C46.2814 16.3034 46.3201 16.023 46.3491 15.7524C46.4168 15.2013 46.4748 14.6793 46.5328 14.1766C46.6681 13.1711 46.7841 12.2527 46.8905 11.4213C47.3642 8.11505 47.7412 6.29757 47.9152 6.3169C48.0892 6.32657 48.1666 8.18272 48.0796 11.5083C48.0506 12.3397 48.0119 13.2678 47.9829 14.2829C47.9636 14.7856 47.9346 15.3173 47.9056 15.8684C47.8862 16.1391 47.8766 16.4194 47.8572 16.7094C47.8476 17.0865 47.7219 17.5602 47.4705 17.9275C47.2288 18.3046 46.8808 18.6236 46.4554 18.8169C46.2428 18.9136 46.0107 18.991 45.7787 19.02C45.6627 19.0393 45.5274 19.0393 45.4307 19.049H45.1987C44.8796 19.0586 44.5606 19.0586 44.2319 19.0683L43.7389 19.078C43.5745 19.078 43.4392 19.0876 43.1395 19.0683C42.0954 18.9716 41.1287 18.1402 40.9353 17.0188C40.887 16.7094 40.887 16.5934 40.8676 16.4001L40.8193 15.8587C40.7903 15.501 40.7613 15.1336 40.7226 14.7566C40.4713 11.7887 40.2973 9.20747 40.1716 7.02263L40.1522 6.59726L40.1426 6.39424V6.10422C40.1716 5.71752 40.2876 5.34049 40.4809 5.02146C40.6612 4.722 40.9055 4.46614 41.1963 4.27226C41.4872 4.07837 41.8173 3.95125 42.1631 3.90003C42.3178 3.87103 42.5111 3.8807 42.6174 3.8807L42.9461 3.90003L43.5745 3.92903C43.9806 3.94837 44.3576 3.97737 44.7153 3.99671C45.073 4.02571 45.4113 4.04504 45.7207 4.06438C46.0397 4.09338 46.2911 4.09338 46.6585 4.17072C47.3255 4.33507 47.7219 4.77977 47.9056 5.14714C48.2439 5.94954 47.9636 6.33624 47.9152 6.3169Z" fill="black" fill-opacity="0.2"/>
<path d="M44.3769 26.2609C45.7598 26.2609 46.8808 25.1399 46.8808 23.757C46.8808 22.3742 45.7598 21.2532 44.3769 21.2532C42.9941 21.2532 41.873 22.3742 41.873 23.757C41.873 25.1399 42.9941 26.2609 44.3769 26.2609Z" fill="white"/>
<path d="M46.8907 23.7576C46.6877 23.7769 46.5813 23.1002 45.8176 22.4912C45.4406 22.2011 44.8799 21.9691 44.2418 22.0851C43.6231 22.1818 42.9464 22.6942 42.8207 23.5062C42.6757 24.328 43.1881 25.0627 43.8068 25.3334C44.4352 25.6331 45.1312 25.5171 45.6049 25.2367C46.5813 24.647 46.6877 23.7189 46.8907 23.7576C46.968 23.7576 47.0937 23.9606 47.1034 24.3956C47.1034 24.8113 46.968 25.5171 46.3397 26.1551C45.7403 26.7835 44.5415 27.3056 43.2267 26.8802C42.579 26.6772 41.9506 26.2325 41.5156 25.5847C41.0709 24.937 40.8582 24.0766 41.0032 23.2162C41.1386 22.3461 41.6123 21.6211 42.202 21.1474C42.7917 20.6737 43.4781 20.4513 44.1065 20.432C45.3826 20.3933 46.2913 21.0797 46.6973 21.6984C47.1324 22.3365 47.1711 22.9165 47.1324 23.2549C47.0937 23.6126 46.968 23.7576 46.8907 23.7576Z" fill="#000F8F"/>
<path d="M46.8907 23.7576C46.6877 23.7769 46.5813 23.1002 45.8176 22.4912C45.4406 22.2011 44.8799 21.9691 44.2418 22.0851C43.6231 22.1818 42.9464 22.6942 42.8207 23.5062C42.6757 24.328 43.1881 25.0627 43.8068 25.3334C44.4352 25.6331 45.1312 25.5171 45.6049 25.2367C46.5813 24.647 46.6877 23.7189 46.8907 23.7576C46.968 23.7576 47.0937 23.9606 47.1034 24.3956C47.1034 24.8113 46.968 25.5171 46.3397 26.1551C45.7403 26.7835 44.5415 27.3056 43.2267 26.8802C42.579 26.6772 41.9506 26.2325 41.5156 25.5847C41.0709 24.937 40.8582 24.0766 41.0032 23.2162C41.1386 22.3461 41.6123 21.6211 42.202 21.1474C42.7917 20.6737 43.4781 20.4513 44.1065 20.432C45.3826 20.3933 46.2913 21.0797 46.6973 21.6984C47.1324 22.3365 47.1711 22.9165 47.1324 23.2549C47.0937 23.6126 46.968 23.7576 46.8907 23.7576Z" fill="black" fill-opacity="0.2"/>
<path d="M46.8907 23.7576C46.6877 23.7769 46.5813 23.1002 45.8176 22.4912C45.4406 22.2011 44.8799 21.9691 44.2418 22.0851C43.6231 22.1818 42.9464 22.6942 42.8207 23.5062C42.6757 24.328 43.1881 25.0627 43.8068 25.3334C44.4352 25.6331 45.1312 25.5171 45.6049 25.2367C46.5813 24.647 46.6877 23.7189 46.8907 23.7576C46.968 23.7576 47.0937 23.9606 47.1034 24.3956C47.1034 24.8113 46.968 25.5171 46.3397 26.1551C45.7403 26.7835 44.5415 27.3056 43.2267 26.8802C42.579 26.6772 41.9506 26.2325 41.5156 25.5847C41.0709 24.937 40.8582 24.0766 41.0032 23.2162C41.1386 22.3461 41.6123 21.6211 42.202 21.1474C42.7917 20.6737 43.4781 20.4513 44.1065 20.432C45.3826 20.3933 46.2913 21.0797 46.6973 21.6984C47.1324 22.3365 47.1711 22.9165 47.1324 23.2549C47.0937 23.6126 46.968 23.7576 46.8907 23.7576Z" fill="black" fill-opacity="0.2"/>
<path d="M46.8907 23.7576C46.6877 23.7769 46.5813 23.1002 45.8176 22.4912C45.4406 22.2011 44.8799 21.9691 44.2418 22.0851C43.6231 22.1818 42.9464 22.6942 42.8207 23.5062C42.6757 24.328 43.1881 25.0627 43.8068 25.3334C44.4352 25.6331 45.1312 25.5171 45.6049 25.2367C46.5813 24.647 46.6877 23.7189 46.8907 23.7576C46.968 23.7576 47.0937 23.9606 47.1034 24.3956C47.1034 24.8113 46.968 25.5171 46.3397 26.1551C45.7403 26.7835 44.5415 27.3056 43.2267 26.8802C42.579 26.6772 41.9506 26.2325 41.5156 25.5847C41.0709 24.937 40.8582 24.0766 41.0032 23.2162C41.1386 22.3461 41.6123 21.6211 42.202 21.1474C42.7917 20.6737 43.4781 20.4513 44.1065 20.432C45.3826 20.3933 46.2913 21.0797 46.6973 21.6984C47.1324 22.3365 47.1711 22.9165 47.1324 23.2549C47.0937 23.6126 46.968 23.7576 46.8907 23.7576Z" fill="black" fill-opacity="0.2"/>
<path d="M46.8907 23.7576C46.6877 23.7769 46.5813 23.1002 45.8176 22.4912C45.4406 22.2011 44.8799 21.9691 44.2418 22.0851C43.6231 22.1818 42.9464 22.6942 42.8207 23.5062C42.6757 24.328 43.1881 25.0627 43.8068 25.3334C44.4352 25.6331 45.1312 25.5171 45.6049 25.2367C46.5813 24.647 46.6877 23.7189 46.8907 23.7576C46.968 23.7576 47.0937 23.9606 47.1034 24.3956C47.1034 24.8113 46.968 25.5171 46.3397 26.1551C45.7403 26.7835 44.5415 27.3056 43.2267 26.8802C42.579 26.6772 41.9506 26.2325 41.5156 25.5847C41.0709 24.937 40.8582 24.0766 41.0032 23.2162C41.1386 22.3461 41.6123 21.6211 42.202 21.1474C42.7917 20.6737 43.4781 20.4513 44.1065 20.432C45.3826 20.3933 46.2913 21.0797 46.6973 21.6984C47.1324 22.3365 47.1711 22.9165 47.1324 23.2549C47.0937 23.6126 46.968 23.7576 46.8907 23.7576Z" fill="black" fill-opacity="0.2"/>
<path d="M46.8907 23.7576C46.6877 23.7769 46.5813 23.1002 45.8176 22.4912C45.4406 22.2011 44.8799 21.9691 44.2418 22.0851C43.6231 22.1818 42.9464 22.6942 42.8207 23.5062C42.6757 24.328 43.1881 25.0627 43.8068 25.3334C44.4352 25.6331 45.1312 25.5171 45.6049 25.2367C46.5813 24.647 46.6877 23.7189 46.8907 23.7576C46.968 23.7576 47.0937 23.9606 47.1034 24.3956C47.1034 24.8113 46.968 25.5171 46.3397 26.1551C45.7403 26.7835 44.5415 27.3056 43.2267 26.8802C42.579 26.6772 41.9506 26.2325 41.5156 25.5847C41.0709 24.937 40.8582 24.0766 41.0032 23.2162C41.1386 22.3461 41.6123 21.6211 42.202 21.1474C42.7917 20.6737 43.4781 20.4513 44.1065 20.432C45.3826 20.3933 46.2913 21.0797 46.6973 21.6984C47.1324 22.3365 47.1711 22.9165 47.1324 23.2549C47.0937 23.6126 46.968 23.7576 46.8907 23.7576Z" fill="black" fill-opacity="0.2"/>
</svg>
