<svg width="47" height="47" viewBox="0 0 47 47" fill="none" xmlns="http://www.w3.org/2000/svg">
<circle cx="23.5" cy="23.5" r="23.5" fill="#E6F9FF"/>
<path d="M23.1946 40.0953C31.9769 40.0953 39.0963 32.9759 39.0963 24.1937C39.0963 15.4114 31.9769 8.29199 23.1946 8.29199C14.4124 8.29199 7.29297 15.4114 7.29297 24.1937C7.29297 32.9759 14.4124 40.0953 23.1946 40.0953Z" fill="#FFE093"/>
<path d="M23.1946 37.0384C14.923 37.0384 8.13297 30.7267 7.36297 22.665C7.3163 23.1667 7.29297 23.68 7.29297 24.1934C7.29297 32.9784 14.4096 40.095 23.1946 40.095C31.9796 40.095 39.0963 32.9784 39.0963 24.1934C39.0963 23.68 39.073 23.1667 39.0263 22.665C38.2563 30.7267 31.4663 37.0384 23.1946 37.0384Z" fill="#FFCA6B"/>
<path d="M11.2597 29.7585C11.9878 29.7585 12.5781 29.5496 12.5781 29.2919C12.5781 29.0341 11.9878 28.8252 11.2597 28.8252C10.5316 28.8252 9.94141 29.0341 9.94141 29.2919C9.94141 29.5496 10.5316 29.7585 11.2597 29.7585Z" fill="#F97AA4"/>
<path d="M35.1191 29.7585C35.8472 29.7585 36.4374 29.5496 36.4374 29.2919C36.4374 29.0341 35.8472 28.8252 35.1191 28.8252C34.391 28.8252 33.8008 29.0341 33.8008 29.2919C33.8008 29.5496 34.391 29.7585 35.1191 29.7585Z" fill="#F97AA4"/>
<path d="M13.2057 12.188C13.3341 12.083 13.4741 11.978 13.6024 11.873C13.7307 11.7797 13.7541 11.593 13.6491 11.4647C13.5557 11.3364 13.3691 11.313 13.2291 11.4064C13.0891 11.5114 12.9607 11.6164 12.8207 11.733C12.6924 11.838 12.6807 12.0247 12.7857 12.153C12.9024 12.2697 13.0891 12.293 13.2057 12.188Z" fill="black"/>
<path d="M23.1933 8C20.1833 8 17.255 8.82833 14.7117 10.4033C14.5717 10.485 14.5367 10.6717 14.6183 10.8117C14.7 10.9517 14.8867 10.9867 15.015 10.905C17.465 9.38833 20.2883 8.595 23.1933 8.595C31.8383 8.595 38.8733 15.665 38.8033 24.3333C38.7333 32.8267 31.8033 39.7567 23.31 39.8267C14.6533 39.8733 7.58333 32.8383 7.58333 24.1933C7.58333 20.5417 8.86667 17.0067 11.1883 14.2067C11.2933 14.0783 11.2817 13.9033 11.1533 13.7983C11.025 13.6933 10.8383 13.705 10.745 13.8333C8.31833 16.7383 7 20.4017 7 24.1933C7 33.165 14.3383 40.4567 23.3217 40.3867C32.13 40.3167 39.3283 33.13 39.3867 24.3217C39.4567 15.3267 32.165 8 23.1933 8Z" fill="black"/>
<path d="M34.1139 19.9353C33.1339 19.3286 29.5872 17.252 27.7556 17.252C27.0089 17.252 26.4372 17.4736 26.0406 17.9286C25.5972 18.4303 25.5156 19.0836 25.5039 19.4686C25.5039 19.6436 25.6556 19.7836 25.8306 19.7603C25.9706 19.737 26.0872 19.6203 26.0872 19.4803C26.0989 19.177 26.1572 18.6753 26.4839 18.3136C26.7639 17.9986 27.1839 17.847 27.7556 17.847C29.4239 17.847 32.8656 19.877 33.8106 20.4486C33.9506 20.5303 34.1256 20.4953 34.2072 20.3553C34.2889 20.2036 34.2539 20.0286 34.1139 19.9353Z" fill="black"/>
<path d="M19.1085 20.892C19.5052 20.892 19.9019 20.8687 20.3219 20.822C20.4852 20.7987 20.6019 20.6587 20.5785 20.4954C20.5552 20.3437 20.4152 20.227 20.2635 20.2504C16.0985 20.717 13.3569 18.477 12.6335 17.7887C12.5169 17.6837 12.3535 17.6837 12.2369 17.7887C12.1085 17.9054 12.1085 18.1037 12.2369 18.2204C12.9485 18.897 15.3635 20.892 19.1085 20.892Z" fill="black"/>
<path d="M35.2935 24.1938C35.2935 24.0305 35.1652 23.9021 35.0019 23.9021H26.3102V23.4588C26.3102 23.3188 26.1935 23.2021 26.0535 23.2021C25.9135 23.2021 25.7969 23.3188 25.7969 23.4588V24.1938C25.7969 24.3571 25.9252 24.4855 26.0885 24.4855H31.0469V24.6605C31.0469 26.7021 31.8285 28.3588 32.7969 28.3588C33.7652 28.3588 34.5469 26.7021 34.5469 24.6605C34.5469 24.6021 34.5469 24.5438 34.5469 24.4855H35.0019C35.1652 24.4855 35.2935 24.3571 35.2935 24.1938Z" fill="black"/>
<path d="M11.0938 24.1938C11.0938 24.3571 11.2221 24.4855 11.3854 24.4855H16.3438V24.6605C16.3438 26.7021 17.1254 28.3588 18.0938 28.3588C19.0621 28.3588 19.8438 26.7021 19.8438 24.6605C19.8438 24.6021 19.8438 24.5438 19.8438 24.4855H20.2987C20.4621 24.4855 20.5904 24.3571 20.5904 24.1938V23.4588C20.5904 23.3188 20.4738 23.2021 20.3337 23.2021C20.1937 23.2021 20.0771 23.3188 20.0771 23.4588V23.9021H11.3854C11.2221 23.9021 11.0938 24.0305 11.0938 24.1938Z" fill="black"/>
<path d="M23.1949 35.0198C24.3382 35.0198 25.1782 33.0248 25.4699 32.2431C25.5282 32.0914 25.4466 31.9164 25.2832 31.8698C25.1316 31.8231 24.9682 31.9048 24.9216 32.0448C24.5249 33.1181 23.8016 34.4364 23.1949 34.4364C22.5882 34.4364 21.8532 33.1181 21.4682 32.0448C21.4099 31.8931 21.2582 31.8231 21.1066 31.8698C20.9549 31.9164 20.8616 32.0914 20.9199 32.2431C21.2116 33.0248 22.0516 35.0198 23.1949 35.0198Z" fill="black"/>
<path d="M33.9393 24.4854V24.602C33.9393 25.0804 33.8926 25.547 33.7993 25.9437C33.1576 25.6987 32.6909 25.1504 32.5859 24.4854H33.9393Z" fill="white"/>
<path d="M19.2869 24.4854V24.602C19.2869 25.0804 19.2403 25.547 19.1469 25.9437C18.5053 25.6987 18.0386 25.1504 17.9336 24.4854H19.2869Z" fill="white"/>
</svg>
