<svg width="47" height="47" viewBox="0 0 47 47" fill="none" xmlns="http://www.w3.org/2000/svg">
<circle cx="23.5" cy="23.5" r="23.5" fill="#E6F9FF"/>
<path d="M37.211 26.1324C37.211 29.9996 35.5207 33.4719 32.8387 35.851C30.5463 37.8844 27.7849 38.2653 24.4797 38.2653C17.3072 38.2653 11.8984 33.2624 11.8984 26.0899C11.8984 23.2927 12.1217 20.7444 13.626 18.6247C15.979 15.3091 19.8489 13.1455 24.2242 13.1455C31.3966 13.1455 37.211 18.9599 37.211 26.1324Z" fill="#FFE093"/>
<path d="M32.427 36.2018C30.1908 38.0252 27.3359 39.1186 24.2252 39.1186C17.0524 39.1186 11.2383 33.3045 11.2383 26.1318C11.2383 22.0825 13.091 18.4668 15.9947 16.085C14.1578 18.3257 13.0546 21.1913 13.0546 24.3154C13.0546 31.4882 18.8688 37.3023 26.0415 37.3023C28.2499 37.3023 30.3292 36.751 32.1499 35.7791C32.9047 35.376 33.1016 35.6517 32.427 36.2018Z" fill="#FFCA6B"/>
<path d="M19.497 14.0876C17.7933 17.3778 16.0265 19.1428 12.6311 20.6627C12.5011 20.721 12.349 20.653 12.3038 20.5179L8.92359 10.3854C8.74656 9.8567 8.83223 9.29587 9.35407 9.49846L11.6389 10.3857L12.4687 11.457L14.4643 11.4829L17.2887 12.5797L19.3702 13.7491C19.505 13.8015 19.5635 13.9593 19.497 14.0876Z" fill="#FCF7ED"/>
<path d="M19.6929 14.0877C18.8686 15.6798 17.98 16.6164 16.7368 17.7847C15.7317 18.7293 14.8851 19.8639 13.6316 20.5418C13.2311 20.7584 12.8184 20.9617 12.394 21.1517C12.2638 21.2099 12.1118 21.1414 12.067 21.0064L11.2032 18.4266L10.8561 15.5698L9.81288 14.2749L8.48821 10.3191C8.31142 9.7905 8.83393 9.29585 9.35582 9.49867L9.54351 9.57132L12.6842 19.4019C12.7429 19.586 12.9561 19.6677 13.124 19.5721C15.4845 18.2296 17.8631 15.5204 19.221 13.3293L19.5657 13.7492C19.7008 13.8019 19.7589 13.9593 19.6929 14.0877Z" fill="#F7E5C1"/>
<path d="M19.4329 14.2014C17.9226 17.1185 17.5103 17.9152 14.6541 19.4338L14.4062 18.7157L17.2892 12.5801L19.22 13.3297L19.642 13.9187C19.4329 14.2014 19.4993 14.0729 19.4329 14.2014Z" fill="#E1BBFF"/>
<path d="M14.4654 11.4829L11.2022 18.4269L10.8555 15.5701L9.8125 14.2751L11.64 10.3857L14.4654 11.4829Z" fill="#E1BBFF"/>
<path d="M20.1569 13.918C20.1174 14.0327 20.0461 14.1368 19.9922 14.2449C20.0461 14.1368 20.1158 14.0324 20.1569 13.918Z" fill="#FFCA6B"/>
<path d="M20.1625 13.8613C18.801 16.7627 16.3372 19.1047 13.5195 20.6005L14.4053 18.7152C16.3137 17.2615 18.1082 15.1218 19.2192 13.3291L20.0081 13.6355C20.1 13.6703 20.1631 13.7634 20.1625 13.8613Z" fill="#8A00FA"/>
<path d="M11.8989 16.945L11.2026 18.4265L9.8125 14.2749L10.5469 12.7129L11.8989 16.945Z" fill="#8A00FA"/>
<path d="M27.9922 29.0808L35.0149 26.4609L36.1098 28.4204L35.8349 31.1117L32.4823 30.3371L28.2585 30.9397L27.9922 29.0808Z" fill="#E1BBFF"/>
<path d="M35.8352 31.111L28.2586 30.939L27.9922 29.0803L28.1569 29.0186L28.2586 29.7281L35.6208 29.8952L36.0688 30.4807L35.8352 31.111Z" fill="#8A00FA"/>
<path d="M37.4939 32.2332C36.7695 32.361 36.385 32.2363 36.2573 31.5118L35.4534 26.3591C35.3424 25.7293 35.1992 24.8928 35.7688 24.6617C35.8545 24.6269 35.945 24.6006 36.0396 24.5839C36.7641 24.4562 37.4549 24.9399 37.5826 25.6644L38.5288 31.0306C38.5655 31.2383 38.5519 31.4432 38.4967 31.6329C38.3596 32.1049 38.0108 32.1421 37.4939 32.2332Z" fill="#E1BBFF"/>
<path d="M38.4955 31.6326C38.3587 32.1049 37.9639 32.4827 37.4475 32.5735C36.7228 32.7013 36.0319 32.2175 35.9042 31.4928L34.9579 26.1267C34.8471 25.497 35.1982 24.8922 35.768 24.6621L36.8124 30.5846C36.9401 31.3093 37.6309 31.7931 38.3556 31.6653C38.4035 31.6569 38.4501 31.646 38.4955 31.6326Z" fill="#8A00FA"/>
<path d="M12.7514 27.2192L14.1106 29.7042C14.1217 29.7246 14.1383 29.7413 14.1587 29.7524L16.6437 31.1115C16.7277 31.1574 16.7277 31.278 16.6437 31.3239L14.1587 32.683C14.1383 32.6942 14.1217 32.7108 14.1106 32.7312L14.0724 32.801L12.7674 34.7808C12.7214 34.8648 12.6008 34.8648 12.5549 34.7808L11.3521 32.5487C11.3409 32.5284 11.3243 32.5117 11.3039 32.5006L8.89111 31.3239C8.80713 31.278 8.80713 31.1574 8.89111 31.1115L11.099 29.7703L11.1318 29.7524C11.1521 29.7412 11.1687 29.7246 11.1799 29.7042L12.539 27.2192C12.5849 27.1353 12.7055 27.1353 12.7514 27.2192Z" fill="#E1BBFF"/>
<path d="M14.0745 32.8014L12.7534 35.2165C12.708 35.3007 12.5869 35.3007 12.5415 35.2165L11.1823 32.7318C11.1707 32.7112 11.1544 32.6948 11.1338 32.6833L8.64906 31.3241C8.5649 31.2787 8.5649 31.1576 8.64906 31.1122L11.1011 29.7705C11.646 31.1352 12.7225 32.2304 14.0745 32.8014Z" fill="#8A00FA"/>
<path d="M32.4758 33.2886L33.4336 35.0397C33.4447 35.0601 33.4614 35.0768 33.4817 35.0878L35.2328 36.0456C35.3168 36.0916 35.3168 36.2122 35.2328 36.2581L33.4817 37.2158C33.4614 37.227 33.4447 37.2436 33.4336 37.2639L33.3898 37.344L32.4694 38.7405C32.4234 38.8244 32.3028 38.8244 32.2569 38.7405L31.3873 37.1482C31.3762 37.1279 31.3595 37.1112 31.3392 37.1001L29.9497 36.2581C29.8657 36.2121 29.8657 36.0915 29.9497 36.0456L31.2575 35.0878C31.2778 35.0767 31.2945 35.0601 31.3056 35.0397L32.2634 33.2886C32.3093 33.2046 32.4299 33.2046 32.4758 33.2886Z" fill="#86BFF2"/>
<path d="M33.3879 37.3446L32.4736 39.0157C32.4282 39.0998 32.3071 39.0998 32.2617 39.0157L31.3039 37.2647C31.2924 37.2441 31.2761 37.2278 31.2555 37.2163L29.5045 36.2584C29.4204 36.213 29.4204 36.0919 29.5045 36.0465L31.2555 35.0887C31.2652 35.0833 31.2736 35.0772 31.2815 35.0693C31.7035 36.0471 32.4512 36.8506 33.3879 37.3446Z" fill="#62A4FB"/>
<path d="M29.0859 11.6743L30.0009 13.3472C30.012 13.3675 30.0287 13.3841 30.049 13.3953L31.7219 14.3102C31.8059 14.3562 31.8059 14.4768 31.7219 14.5227L30.049 15.4377C30.0287 15.4488 30.012 15.4654 30.0009 15.4858L29.9669 15.5479L29.086 16.9343C29.04 17.0182 28.9194 17.0182 28.8735 16.9343L28.0709 15.3677C28.0598 15.3474 28.0431 15.3307 28.0228 15.3196L26.5161 14.4841C26.4321 14.4382 26.4321 14.3176 26.5161 14.2717L27.87 13.4175L27.9105 13.3954C27.9308 13.3842 27.9475 13.3676 27.9586 13.3472L28.8735 11.6744C28.9194 11.5903 29.04 11.5903 29.0859 11.6743Z" fill="#8A00FA"/>
<path d="M29.9646 15.5485L29.083 17.159C29.0376 17.2432 28.9165 17.2432 28.8711 17.159L27.9557 15.4862C27.9448 15.4662 27.9278 15.4492 27.9078 15.4384L26.235 14.5229C26.1508 14.4775 26.1508 14.3564 26.235 14.311L27.8673 13.418C28.2693 14.3679 29.0231 15.1326 29.9646 15.5485Z" fill="#8A00FA"/>
<path d="M20.6541 23.7075C21.879 22.5936 23.4009 22.5936 24.6258 23.7075C24.7126 23.8022 25.0432 23.9067 25.2672 23.677C25.436 23.4915 25.4223 23.2043 25.2368 23.0356C24.4693 22.3376 23.5714 21.9688 22.6399 21.9688C21.7085 21.9688 20.8106 22.3376 20.0431 23.0356C19.8576 23.2043 19.8439 23.4915 20.0127 23.677C20.1815 23.8627 20.4686 23.8762 20.6541 23.7075Z" fill="#484848"/>
<path d="M29.6151 23.7075C30.8399 22.5936 32.3619 22.5936 33.5868 23.7075C33.6736 23.8022 34.0042 23.9067 34.2282 23.677C34.397 23.4915 34.3833 23.2043 34.1978 23.0356C33.4303 22.3376 32.5324 21.9688 31.6009 21.9688C30.6695 21.9688 29.7715 22.3376 29.0041 23.0356C28.8185 23.2043 28.8049 23.4915 28.9736 23.677C29.1425 23.8627 29.4296 23.8762 29.6151 23.7075Z" fill="#484848"/>
<path d="M38.9716 30.951L38.5606 28.6202C38.517 28.3732 38.2814 28.2081 38.0346 28.2519C37.7876 28.2954 37.6227 28.5309 37.6663 28.7779L38.0773 31.1087C38.1515 31.4832 37.8825 32.0456 37.3653 32.1256C36.9908 32.1997 36.4284 31.9308 36.3484 31.4135C36.2654 30.9427 35.474 26.4547 35.4023 26.0479C35.3281 25.6734 35.5972 25.1112 36.1143 25.0312C36.5918 24.9472 37.0472 25.2666 37.1312 25.7432L37.2984 26.6913C37.342 26.9383 37.5777 27.1033 37.8244 27.0596C38.0714 27.0161 38.2363 26.7805 38.1927 26.5336L38.0255 25.5854C37.9645 25.2397 37.807 24.9348 37.5859 24.6931C37.1683 20.7819 35.0216 17.2236 31.7728 15.0121L32.1303 14.8166C32.2759 14.737 32.3665 14.5842 32.3665 14.4182C32.3665 14.2523 32.2759 14.0995 32.1303 14.0199L30.349 13.0456L29.3748 11.2643C29.2951 11.1187 29.1423 11.0281 28.9764 11.0281C28.8104 11.0281 28.6576 11.1187 28.578 11.2643L27.6037 13.0456L27.5088 13.0975C26.4401 12.8291 25.3362 12.6929 24.2242 12.6929C22.8836 12.6929 21.5618 12.8899 20.292 13.2779L9.52089 9.07721C9.11263 8.91877 8.66212 9.00795 8.34547 9.31001C8.03051 9.61037 7.92069 10.0531 8.05921 10.4669L11.7076 21.2294C11.5071 21.7411 11.3367 22.2685 11.2011 22.8001C11.1391 23.0432 11.2858 23.2904 11.5289 23.3524C11.7157 23.4004 11.9869 23.3057 12.0811 23.0247C12.2057 22.5363 12.3617 22.0516 12.5451 21.581C14.8631 20.5546 16.8159 19.1551 18.3492 17.4173C18.5151 17.2293 18.4972 16.9422 18.3092 16.7763C18.1211 16.6104 17.8342 16.6283 17.6682 16.8164C16.7777 17.8256 15.7346 18.7145 14.552 19.4763L17.5153 13.1697L19.624 13.9921C19.4062 14.3981 19.1722 14.792 18.9256 15.1676C18.7879 15.3772 18.8462 15.6587 19.0559 15.7964C19.2655 15.934 19.5471 15.8757 19.6847 15.6661C20.0019 15.183 20.2976 14.6708 20.5683 14.1429C21.7487 13.7835 22.9775 13.601 24.2241 13.601C24.9155 13.601 25.6034 13.6576 26.2804 13.7693L25.8224 14.0198C25.6768 14.0994 25.5862 14.2522 25.5862 14.4182C25.5862 14.5841 25.6768 14.7369 25.8224 14.8166L27.6037 15.7909L28.578 17.5721C28.6576 17.7178 28.8104 17.8083 28.9764 17.8083C29.1423 17.8083 29.2951 17.7178 29.3748 17.5721L30.349 15.7909L30.8684 15.5068C33.9316 17.4271 36.0272 20.5979 36.597 24.1405C36.3911 24.1016 36.175 24.0982 35.9567 24.1368C35.0775 24.2763 34.3403 25.1924 34.5022 26.167L28.2658 28.4935C28.1411 28.1576 27.9811 27.8384 27.7878 27.5434C27.6504 27.3335 27.3688 27.2749 27.1592 27.4124C26.9494 27.5498 26.8907 27.8312 27.0282 28.041C27.3818 28.5809 27.5995 29.2238 27.6575 29.9003C27.7224 30.655 27.5869 31.3911 27.2657 32.029C27.153 32.2531 27.2432 32.5261 27.4672 32.6388C27.5327 32.6718 27.6023 32.6874 27.671 32.6874C27.8371 32.6874 27.9972 32.5959 28.0769 32.4374C28.2424 32.1086 28.3675 31.7595 28.452 31.3974L31.4181 31.4648C31.4217 31.4649 31.4251 31.465 31.4286 31.465C31.6746 31.465 31.8768 31.2684 31.8824 31.0212C31.8881 30.7704 31.6894 30.5626 31.4387 30.5569L28.5762 30.4919C28.586 30.2708 28.5816 30.0472 28.5623 29.8226C28.5494 29.6716 28.5296 29.5219 28.5037 29.3741L34.6616 27.0768L35.2907 30.6443L33.5572 30.605C33.3077 30.601 33.0986 30.7979 33.0929 31.0486C33.0872 31.2994 33.2859 31.5072 33.5366 31.5129L35.4515 31.5564C35.4594 31.6011 35.4524 31.5638 35.4723 31.6611C34.9788 32.6633 34.3557 33.5921 33.6145 34.4298L32.7648 32.8761C32.6852 32.7305 32.5324 32.6399 32.3664 32.6399C32.2004 32.6399 32.0476 32.7305 31.968 32.8761L30.9509 34.7357L29.0913 35.7528C28.9457 35.8324 28.8552 35.9852 28.8552 36.1512C28.8552 36.3171 28.9457 36.47 29.0913 36.5496L30.1936 37.1524C28.368 38.1429 26.3203 38.6634 24.2241 38.6634C20.2594 38.6634 16.5178 36.7731 14.1569 33.5938L14.463 33.0342L17.0564 31.6158C17.202 31.5362 17.2925 31.3833 17.2925 31.2174C17.2925 31.0514 17.202 30.8986 17.0564 30.819L14.463 29.4006L13.0447 26.8073C12.965 26.6617 12.8123 26.5711 12.6463 26.5711C12.4803 26.5711 12.3275 26.6617 12.2479 26.8073L11.7854 27.6528C11.7246 27.1495 11.6929 26.6413 11.6929 26.1322C11.6929 25.7808 11.7076 25.4261 11.7366 25.0779C11.7574 24.828 11.5717 24.6085 11.3217 24.5877C11.0716 24.5666 10.8523 24.7526 10.8315 25.0026C10.8004 25.3757 10.7847 25.7558 10.7847 26.1322C10.7847 27.0791 10.885 28.0233 11.0803 28.9421L10.8296 29.4006L8.23619 30.819C8.09058 30.8986 8 31.0514 8 31.2174C8 31.3833 8.09058 31.5362 8.23619 31.6158L10.8296 33.0342L12.2479 35.6275C12.3275 35.7731 12.4803 35.8637 12.6463 35.8637C12.8123 35.8637 12.965 35.7731 13.0447 35.6275L13.6806 34.4648C16.2219 37.6747 20.1109 39.5716 24.2241 39.5716C26.6297 39.5716 28.9759 38.9322 31.0347 37.7198L31.968 39.4262C32.0476 39.5718 32.2004 39.6624 32.3664 39.6624C32.5324 39.6624 32.6852 39.5718 32.7648 39.4262L33.7819 37.5667L35.6415 36.5496C35.7871 36.47 35.8776 36.3171 35.8776 36.1512C35.8776 35.9852 35.7871 35.8324 35.6415 35.7528L34.3038 35.0212C34.9642 34.2732 35.5371 33.4578 36.0152 32.5856C36.3908 32.9093 36.9347 33.1293 37.5229 33.0199C38.4169 32.8779 39.1558 31.939 38.9716 30.951ZM10.3121 14.284L11.8701 10.9682L13.8452 11.7385L11.2914 17.173L10.3121 14.284ZM8.97229 9.96716C9.00117 9.93962 9.08048 9.88058 9.19158 9.92357L11.0221 10.6375L9.89154 13.0434L8.91986 10.177C8.88456 10.0715 8.93754 10.0003 8.97229 9.96716ZM13.1738 20.2741C12.9406 20.3948 12.7034 20.5117 12.4612 20.6238L11.712 18.4135L14.6932 12.0692L16.6673 12.839L13.1738 20.2741ZM29.7965 15.0579C29.7203 15.0996 29.6577 15.1622 29.616 15.2384L28.9764 16.4079L28.3367 15.2384C28.2951 15.1622 28.2324 15.0996 28.1562 15.0579L26.9867 14.4182L28.1562 13.7786C28.2325 13.7369 28.2951 13.6743 28.3367 13.5981L28.9764 12.4286L29.616 13.5981C29.6577 13.6743 29.7204 13.7369 29.7965 13.7786L30.9661 14.4182C30.7564 14.5329 30.0241 14.9334 29.7965 15.0579ZM12.6463 34.4633L11.5626 32.4817C11.5209 32.4055 11.4583 32.3429 11.3821 32.3012L9.40052 31.2174L11.3821 30.1337C11.4583 30.092 11.5209 30.0294 11.5626 29.9532L12.6463 27.9716L13.7301 29.9532C13.7718 30.0294 13.8345 30.092 13.9106 30.1337L15.8922 31.2174L13.9106 32.3012C13.8344 32.3429 13.7718 32.4055 13.7301 32.4817L12.6463 34.4633ZM33.2295 36.8337C33.1532 36.8754 33.0906 36.938 33.049 37.0142L32.3665 38.262L31.6841 37.0142C31.6424 36.938 31.5797 36.8754 31.5036 36.8337L31.3407 36.7446C31.3397 36.744 31.3388 36.7436 31.3378 36.743L30.2557 36.1512L31.5036 35.4687C31.5798 35.4271 31.6424 35.3644 31.6841 35.2882L32.3665 34.0404L33.049 35.2882C33.0906 35.3645 33.1533 35.4271 33.2295 35.4687L34.4773 36.1512L33.2295 36.8337Z" fill="#484848"/>
</svg>
