<svg width="47" height="47" viewBox="0 0 47 47" fill="none" xmlns="http://www.w3.org/2000/svg">
<circle cx="23.5" cy="23.5" r="23.5" fill="#E6F9FF"/>
<path d="M21.3876 10.3955C16.8588 10.3955 13.1875 14.0668 13.1875 18.5955V31.1219C13.1875 34.1798 15.6665 36.6044 18.7245 36.6044C21.1681 36.6044 22.6608 35.3428 23.5435 32.2266C25.035 26.9615 29.5876 25.6789 29.5876 18.5955C29.5876 14.0668 25.9163 10.3955 21.3876 10.3955Z" fill="#F5D7B7"/>
<path opacity="0.05" d="M22.9263 33.9005C13.0198 34.8651 13.6585 19.1732 14.5738 14.0322C13.6984 15.3368 13.1875 16.9064 13.1875 18.5955V31.1218C13.1875 34.1798 15.6665 36.6044 18.7245 36.6044C20.6714 36.6044 22.0142 35.8022 22.9263 33.9005Z" fill="#484848"/>
<path opacity="0.05" d="M16.3197 22.5311C17.5121 22.5311 18.4821 23.5011 18.4821 24.6935C18.4821 25.271 18.2572 25.8141 17.8488 26.2225C17.2505 26.8207 17.0564 27.7138 17.3419 28.5532C17.6194 29.3689 18.2905 29.9218 19.1371 30.0321C20.7848 30.2469 21.4888 28.9488 22.1693 27.6934C22.3543 27.3522 22.5291 27.0299 22.7206 26.7429C22.9979 26.3051 23.2922 25.8788 23.5769 25.4665C24.8113 23.6793 25.9771 21.9912 25.9771 19.175C25.9771 16.4426 23.7542 14.2197 21.0218 14.2197C19.5713 14.2197 18.2644 14.8462 17.3574 15.8427C18.5784 15.6519 20.1107 16.0161 21.2502 16.8645C22.0209 17.4383 22.5633 18.1997 22.8186 19.0666C23.1137 20.0684 23.0352 21.1957 22.5854 22.4174C22.5283 22.5726 22.3814 22.6688 22.2251 22.6688C22.181 22.6688 22.1362 22.6611 22.0925 22.645C21.8935 22.5718 21.7916 22.3511 21.8649 22.1521C22.2828 21.0169 22.6991 18.9005 20.7917 17.4804C19.4077 16.4501 17.4818 16.3367 16.6156 16.9093C16.2648 17.5887 16.0665 18.3592 16.0665 19.1751C16.0665 19.3867 15.8952 19.5583 15.6836 19.5589C15.6897 20.4574 15.7325 22.046 16.032 22.6614C16.1024 22.5817 16.205 22.5311 16.3197 22.5311Z" fill="#484848"/>
<path d="M24.5918 14.6923C23.5808 13.885 22.3119 13.4404 21.0188 13.4404C17.8567 13.4404 15.2841 16.013 15.2841 19.1752C15.2841 19.3936 15.4612 19.5707 15.6796 19.5707C15.898 19.5707 16.0751 19.3936 16.0751 19.1752C16.0751 18.3622 16.2725 17.5945 16.6216 16.9173C17.4857 16.3488 19.403 16.4633 20.7818 17.4898C22.6832 18.9054 22.2679 21.0161 21.851 22.1482C21.7755 22.3532 21.8805 22.5805 22.0855 22.656C22.1306 22.6726 22.1767 22.6805 22.2221 22.6805C22.3831 22.6805 22.5344 22.5814 22.5933 22.4215C23.0439 21.1975 23.1225 20.0677 22.8267 19.0635C22.5707 18.1941 22.0269 17.4305 21.2541 16.8553C20.1224 16.0127 18.6038 15.6472 17.3849 15.827C18.2889 14.8467 19.5833 14.2314 21.0188 14.2314C22.1494 14.2314 23.2142 14.6045 24.0982 15.3104C24.9565 15.9957 25.5699 16.9567 25.8254 18.016C25.8766 18.2284 26.0902 18.3591 26.3026 18.3078C26.5149 18.2566 26.6455 18.0429 26.5943 17.8306C26.2979 16.6013 25.5867 15.4867 24.5918 14.6923ZM16.601 28.8043C16.9762 29.9075 17.8855 30.6555 19.0333 30.8051C19.1935 30.826 19.3492 30.8364 19.5007 30.8364C20.2742 30.8364 20.9383 30.5637 21.5199 30.0095C22.0936 29.463 22.4962 28.7202 22.8515 28.0649C23.0285 27.7384 23.1957 27.43 23.3682 27.1721C23.37 27.1693 23.3718 27.1666 23.3735 27.1638C23.6428 26.7384 23.9336 26.3173 24.2152 25.9095C25.4401 24.1361 26.597 22.4609 26.7392 19.7324C26.7506 19.5143 26.5829 19.3282 26.3648 19.3168C26.1471 19.3057 25.9606 19.4731 25.9492 19.6913C25.8187 22.1959 24.7236 23.7814 23.5639 25.4606C23.2791 25.8729 22.9847 26.2993 22.7078 26.7366C22.516 27.024 22.3412 27.3465 22.1561 27.6879C21.4774 28.9398 20.7762 30.2344 19.1355 30.0207C18.2934 29.9109 17.6259 29.361 17.3498 28.5495C17.0657 27.7143 17.2588 26.8257 17.8538 26.2307C18.2645 25.8202 18.4906 25.2742 18.4906 24.6935C18.4906 23.4948 17.5154 22.5196 16.3166 22.5196C16.0982 22.5196 15.9211 22.6966 15.9211 22.9151C15.9211 23.1335 16.0982 23.3106 16.3166 23.3106C17.0792 23.3106 17.6996 23.9309 17.6996 24.6935C17.6996 25.0629 17.5557 25.4102 17.2945 25.6714C16.4848 26.4812 16.219 27.6816 16.601 28.8043ZM36.0925 26.1863C35.7396 25.8334 35.5453 25.3651 35.5453 24.8676C35.5453 24.3702 35.7396 23.9019 36.0925 23.549C36.247 23.3945 36.247 23.1441 36.0925 22.9897C35.9381 22.8352 35.6876 22.8352 35.5332 22.9897C35.0309 23.4919 34.7542 24.1589 34.7542 24.8677C34.7542 25.5764 35.0309 26.2433 35.5332 26.7456C35.6104 26.8228 35.7116 26.8615 35.8128 26.8615C35.914 26.8615 36.0153 26.8229 36.0925 26.7456C36.247 26.5911 36.247 26.3407 36.0925 26.1863ZM21.3847 10C16.6451 10 12.7891 13.856 12.7891 18.5956V31.1219C12.7891 32.2857 13.1267 33.4077 13.7653 34.3669C13.8864 34.5487 14.1319 34.5978 14.3138 34.4768C14.4955 34.3557 14.5448 34.1102 14.4237 33.9284C13.8718 33.0996 13.58 32.1291 13.58 31.1219V18.5956C13.5801 14.2922 17.0812 10.791 21.3847 10.791C25.6881 10.791 29.1892 14.2922 29.1892 18.5956C29.1892 22.6822 27.6558 24.7348 26.0324 26.908C24.9267 28.3882 23.7833 29.9187 23.16 32.1189C22.7402 33.6009 22.1818 34.6379 21.4528 35.2892C20.7505 35.9167 19.8826 36.209 18.7215 36.209C17.5793 36.209 16.4999 35.8508 15.5998 35.1733C15.4251 35.0419 15.1773 35.0769 15.0459 35.2514C14.9145 35.4259 14.9495 35.6739 15.124 35.8053C16.1623 36.5868 17.4063 37 18.7215 37C21.4035 37 23.0071 35.5611 23.9211 32.3345C24.5045 30.275 25.5545 28.8695 26.6662 27.3814C28.2955 25.2004 29.9803 22.945 29.9803 18.5955C29.9802 13.856 26.1243 10 21.3847 10ZM34.4223 21.3194C34.2679 21.1649 34.0174 21.1649 33.863 21.3194C32.9138 22.2685 32.3911 23.5287 32.3911 24.8676C32.3911 26.2065 32.9138 27.4666 33.863 28.4157C33.9402 28.4929 34.0414 28.5316 34.1426 28.5316C34.2439 28.5316 34.3451 28.4929 34.4223 28.4157C34.5767 28.2613 34.5767 28.0108 34.4223 27.8564C33.6225 27.0566 33.1821 25.9952 33.1821 24.8675C33.1821 23.7398 33.6225 22.6784 34.4223 21.8786C34.5768 21.7243 34.5768 21.4738 34.4223 21.3194ZM30.819 24.8676C30.819 23.1068 31.5047 21.4513 32.7498 20.2062C32.9043 20.0518 32.9043 19.8013 32.7498 19.6469C32.5954 19.4924 32.3449 19.4924 32.1905 19.6469C30.796 21.0414 30.028 22.8955 30.028 24.8676C30.028 26.8397 30.796 28.6938 32.1905 30.0883C32.2677 30.1655 32.3689 30.2042 32.4701 30.2042C32.5713 30.2042 32.6726 30.1656 32.7498 30.0883C32.9042 29.9339 32.9042 29.6834 32.7498 29.529C31.5047 28.2839 30.819 26.6285 30.819 24.8676Z" fill="#484848"/>
</svg>
