<svg width="52" height="52" viewBox="0 0 52 52" fill="none" xmlns="http://www.w3.org/2000/svg">
<circle cx="26" cy="26" r="26" fill="#E6F9FF"/>
<path d="M42.0197 31.3445L40.6994 30.5061C41.2575 28.7008 41.5637 26.7502 41.5637 24.7139C41.5637 22.6776 41.2575 20.727 40.6994 18.9216L42.0197 18.0832C43.0876 17.405 43.2522 15.9119 42.3576 15.0174C41.4631 14.1229 39.9701 14.2875 39.2919 15.3554L38.6397 16.3823C35.388 14.419 31.5772 13.2881 27.5015 13.2881C23.4258 13.2881 19.615 14.419 16.3633 16.3823L15.7112 15.3554C15.033 14.2875 13.5399 14.1229 12.6454 15.0174C11.7508 15.912 11.9154 17.405 12.9833 18.0832L14.3036 18.9216C13.7455 20.727 13.4393 22.6776 13.4393 24.7139C13.4393 26.7502 13.7455 28.7007 14.3036 30.5061L12.9833 31.3445C11.9154 32.0227 11.7508 33.5158 12.6454 34.4103C13.5399 35.3049 15.0329 35.1403 15.7112 34.0723L16.3633 33.0454C19.6151 35.0088 23.4258 36.1397 27.5015 36.1397C31.5772 36.1397 35.388 35.0088 38.6397 33.0454L39.2919 34.0723C39.97 35.1403 41.4631 35.3049 42.3576 34.4103C43.2522 33.5158 43.0876 32.0228 42.0197 31.3445Z" fill="white"/>
<path d="M24.653 34.1953C24.653 35.3045 23.845 36.2483 22.7491 36.4194L20.8172 36.7208C18.4093 37.0966 16.4885 38.9293 16 41.3169H39.0036C38.5151 38.9293 36.5943 37.0966 34.1864 36.7208L32.2545 36.4194C31.1586 36.2483 30.3506 35.3045 30.3506 34.1953H24.653Z" fill="#6D92AC"/>
<path d="M23.6035 36.0988C24.5625 37.1672 25.9542 37.8393 27.5028 37.8393C29.0515 37.8393 30.4432 37.1672 31.4022 36.0988C31.4022 36.0988 31.4032 36.0975 31.4035 36.0971C30.7667 35.6953 30.3516 34.9881 30.3516 34.1943H24.654C24.654 34.9883 24.2388 35.6958 23.6016 36.0975L23.6035 36.0988Z" fill="#FFD0C7"/>
<path d="M33.5231 27.3224C34.2292 26.2154 34.6384 24.9005 34.6384 23.4901C34.6384 19.5492 31.4437 16.3545 27.5028 16.3545C23.5619 16.3545 20.3672 19.5492 20.3672 23.4901C20.3672 24.9006 20.7764 26.2155 21.4826 27.3225L33.5231 27.3224Z" fill="#C68A65"/>
<path d="M33.5207 24.8852C33.5031 24.8585 33.4863 24.8312 33.4684 24.8047C30.5114 24.7916 27.8158 23.6726 25.7734 21.8398C23.9858 22.2804 22.462 23.3893 21.4805 24.8858V28.4561C21.4805 31.7809 24.1757 34.4762 27.5005 34.4762C30.8253 34.4762 33.5206 31.7809 33.5206 28.4561V24.8852H33.5207Z" fill="#FFD0C7"/>
<path d="M41.3264 21.6377C41.1805 20.7028 40.9694 19.7953 40.6994 18.9217L42.0197 18.0832C43.0876 17.405 43.2522 15.9119 42.3576 15.0174C41.4631 14.1229 39.9701 14.2875 39.2919 15.3554L38.6397 16.3823C35.388 14.419 31.5772 13.2881 27.5015 13.2881C23.4258 13.2881 19.615 14.419 16.3633 16.3823L15.7112 15.3554C15.033 14.2875 13.5399 14.1229 12.6454 15.0174C11.7508 15.912 11.9154 17.405 12.9833 18.0832L14.3036 18.9217C13.7455 20.727 13.4393 22.6776 13.4393 24.7139C13.4393 26.7502 13.7455 28.7007 14.3036 30.5061L12.9833 31.3445C11.9154 32.0227 11.7508 33.5158 12.6454 34.4103C13.5399 35.3049 15.0329 35.1403 15.7112 34.0723L16.3633 33.0454C18.5989 34.3953 21.0987 35.3516 23.7672 35.8175" stroke="#484848" stroke-miterlimit="10" stroke-linecap="round" stroke-linejoin="round"/>
<path d="M31.1875 35.826C33.8747 35.3634 36.3918 34.4035 38.6413 33.0453L39.2935 34.0722C39.9717 35.1401 41.4647 35.3047 42.3593 34.4102C43.2538 33.5156 43.0892 32.0227 42.0213 31.3444L40.701 30.506C40.972 29.6294 41.1836 28.7185 41.3296 27.7803" stroke="#484848" stroke-miterlimit="10" stroke-linecap="round" stroke-linejoin="round"/>
<path d="M33.5207 24.8852C33.5031 24.8585 33.4863 24.8312 33.4684 24.8047C30.5114 24.7916 27.8158 23.6726 25.7734 21.8398C23.9858 22.2804 22.462 23.3893 21.4805 24.8858V28.4561C21.4805 31.7809 24.1757 34.4762 27.5005 34.4762C30.8253 34.4762 33.5206 31.7809 33.5206 28.4561V24.8852H33.5207Z" stroke="#484848" stroke-miterlimit="10" stroke-linecap="round" stroke-linejoin="round"/>
<path d="M33.5231 27.3224C34.2292 26.2154 34.6384 24.9005 34.6384 23.4901C34.6384 19.5492 31.4437 16.3545 27.5028 16.3545C23.5619 16.3545 20.3672 19.5492 20.3672 23.4901C20.3672 24.9006 20.7764 26.2155 21.4826 27.3225" stroke="#484848" stroke-miterlimit="10" stroke-linecap="round" stroke-linejoin="round"/>
<path d="M24.653 34.1953C24.653 35.3045 23.845 36.2483 22.7491 36.4194L20.8172 36.7209C18.4093 37.0966 16.4885 38.9293 16 41.3169H39.0036C38.5151 38.9293 36.5943 37.0966 34.1864 36.7209L32.2545 36.4194C31.1586 36.2483 30.3506 35.3045 30.3506 34.1953" stroke="#484848" stroke-miterlimit="10" stroke-linecap="round" stroke-linejoin="round"/>
<path d="M31.4002 36.0996C30.4413 37.1681 29.0495 37.8402 27.5008 37.8402C25.9522 37.8402 24.5605 37.1681 23.6016 36.0997" stroke="#484848" stroke-miterlimit="10" stroke-linecap="round" stroke-linejoin="round"/>
<path d="M25.8151 27.1387C25.6526 27.6184 25.1321 27.8756 24.6523 27.7132" stroke="#484848" stroke-miterlimit="10" stroke-linecap="round" stroke-linejoin="round"/>
<path d="M29.1914 27.1387C29.3538 27.6184 29.8744 27.8756 30.3541 27.7132" stroke="#484848" stroke-miterlimit="10" stroke-linecap="round" stroke-linejoin="round"/>
<path d="M28.6135 30.7924C27.9997 30.1786 27.0045 30.1786 26.3906 30.7924" stroke="#484848" stroke-miterlimit="10" stroke-linecap="round" stroke-linejoin="round"/>
<path d="M28.2609 7.68359L26.4492 10.3166H28.5507L26.8115 13.2878" stroke="#484848" stroke-miterlimit="10" stroke-linecap="round" stroke-linejoin="round"/>
<path d="M38.764 7.68359L36.761 9.85558L38.6842 10.1311L36.7031 12.622" stroke="#484848" stroke-miterlimit="10" stroke-linecap="round" stroke-linejoin="round"/>
<path d="M16.2383 7.68359L18.2413 9.85558L16.3181 10.1311L18.2992 12.622" stroke="#484848" stroke-miterlimit="10" stroke-linecap="round" stroke-linejoin="round"/>
<circle cx="41.5625" cy="24.7139" r="0.683594" fill="#484848"/>
</svg>
