<svg width="186" height="180" viewBox="0 0 186 180" fill="none" xmlns="http://www.w3.org/2000/svg">
<circle cx="95.4688" cy="90.5" r="70.5" fill="#B9EFFF"/>
<circle cx="178.434" cy="27.5" r="7.5" fill="#B9EFFF"/>
<circle cx="20" cy="10" r="10" fill="#B9EFFF"/>
<circle cx="10" cy="133" r="5" fill="#B9EFFF"/>
<circle cx="165.5" cy="160.5" r="2.5" fill="#B9EFFF"/>
<circle cx="106.5" cy="4.5" r="2.5" fill="#B9EFFF"/>
<circle cx="62.5" cy="176.5" r="3.5" fill="#B9EFFF"/>
<circle cx="122" cy="171" r="1" fill="#B9EFFF"/>
<circle cx="170.5" cy="110.5" r="2.5" fill="#B9EFFF"/>
<circle cx="1" cy="75" r="1" fill="#B9EFFF"/>
<path fill-rule="evenodd" clip-rule="evenodd" d="M72.4129 34.0469C72.4129 32.1511 72.1732 30.6316 73.5687 29.2364C73.9337 28.87 74.3674 28.5793 74.8449 28.381C75.3225 28.1826 75.8345 28.0805 76.3517 28.0805H81.6759C83.2786 20.3891 92.7577 17.3027 98.5657 22.7579C100.085 24.1829 101.129 26.0413 101.555 28.0805H106.879C107.923 28.0826 108.924 28.4983 109.662 29.2366C110.401 29.9748 110.816 30.9755 110.819 32.0196V34.0469H134.166C135.243 34.0484 136.277 34.4771 137.039 35.2392C137.801 36.0012 138.23 37.0343 138.231 38.112V77.2399C141.795 78.8208 145.122 80.8917 148.113 83.3927C148.3 83.52 148.457 83.687 148.572 83.8818C148.687 84.0767 148.757 84.2945 148.778 84.5198C148.799 84.7451 148.77 84.9722 148.692 85.1848C148.615 85.3975 148.492 85.5904 148.331 85.7499L139.791 94.2831C139.59 94.4832 139.339 94.624 139.063 94.6899C138.788 94.7558 138.5 94.7442 138.231 94.6565V150.306C138.229 151.384 137.801 152.417 137.039 153.179C136.277 153.942 135.244 154.371 134.166 154.372H49.0656C47.9878 154.371 46.9546 153.942 46.1924 153.18C45.4303 152.418 45.0015 151.384 45 150.307V38.112C45.0016 37.0342 45.4305 36.0011 46.1926 35.2391C46.9547 34.4771 47.9879 34.0484 49.0656 34.0469H72.4129ZM159.976 131.509C161.614 127.556 162.632 123.374 162.995 119.111C163.012 118.899 162.985 118.686 162.916 118.485C162.846 118.285 162.736 118.1 162.592 117.944C162.448 117.788 162.274 117.663 162.079 117.578C161.885 117.492 161.675 117.448 161.462 117.447H149.39C149.006 117.447 148.637 117.59 148.354 117.848C148.07 118.106 147.893 118.461 147.857 118.842C147.351 123.534 145.277 128.3 142.411 131.969C142.181 132.264 142.066 132.633 142.089 133.006C142.112 133.38 142.271 133.732 142.535 133.997L151.068 142.537C151.228 142.698 151.42 142.821 151.633 142.899C151.846 142.976 152.073 143.005 152.298 142.984C152.523 142.963 152.741 142.893 152.936 142.778C153.131 142.663 153.298 142.506 153.425 142.319C156.144 139.068 158.352 135.424 159.976 131.51L159.976 131.509ZM147.857 112.181C147.893 112.563 148.07 112.917 148.354 113.175C148.637 113.433 149.006 113.577 149.39 113.577H161.462C161.675 113.576 161.885 113.532 162.079 113.446C162.274 113.361 162.448 113.236 162.592 113.08C162.736 112.923 162.846 112.739 162.916 112.538C162.985 112.337 163.012 112.125 162.995 111.913C162.266 103.377 158.925 95.2738 153.425 88.7055C153.298 88.5184 153.131 88.3617 152.936 88.2467C152.741 88.1317 152.523 88.0613 152.298 88.0404C152.073 88.0195 151.846 88.0488 151.633 88.126C151.42 88.2032 151.228 88.3266 151.068 88.4871L142.535 97.0279C142.271 97.2925 142.112 97.6448 142.089 98.0182C142.066 98.3917 142.181 98.7607 142.411 99.0555C145.385 102.855 147.268 107.393 147.857 112.182V112.181ZM92.5506 28.6695C91.4333 27.5522 89.7366 29.249 90.8538 30.3662C91.9711 31.4835 93.667 29.7867 92.5506 28.6695Z" fill="black"/>
<path fill-rule="evenodd" clip-rule="evenodd" d="M76.5633 42.7636H106.838C107.1 42.7626 107.351 42.6581 107.536 42.4729C107.721 42.2878 107.825 42.037 107.826 41.7751V32.0202C107.825 31.7922 107.733 31.5739 107.572 31.4126C107.411 31.2514 107.192 31.1601 106.964 31.1586H100.302C99.8938 31.1586 99.5026 30.9968 99.2139 30.7087C98.9253 30.4206 98.7627 30.0298 98.7619 29.622C98.6296 27.8561 97.8385 26.2045 96.5456 24.9945C92.1858 20.8978 84.9912 23.7731 84.6312 29.7102C84.6082 30.101 84.4368 30.4683 84.1519 30.7369C83.8671 31.0055 83.4903 31.1552 83.0988 31.1552L76.4362 31.1586C76.2081 31.1601 75.9898 31.2514 75.8285 31.4126C75.6672 31.5739 75.5758 31.7922 75.5742 32.0202V41.7751C75.5753 42.037 75.6797 42.2878 75.8649 42.473C76.05 42.6581 76.3009 42.7626 76.5627 42.7636H76.5633ZM91.7006 25.2392C95.4966 25.2392 97.4129 29.8512 94.724 32.5398C92.0351 35.2284 87.4231 33.3122 87.4231 29.5164C87.4235 28.3822 87.8743 27.2946 88.6765 26.4928C89.4786 25.6909 90.5664 25.2405 91.7006 25.2406V25.2392Z" fill="#3397E9"/>
<path fill-rule="evenodd" clip-rule="evenodd" d="M127.776 74.1567V44.0889H110.182C109.808 44.6293 109.309 45.0711 108.727 45.3763C108.145 45.6816 107.498 45.8412 106.84 45.8416H76.5657C75.9086 45.8413 75.2612 45.6817 74.6792 45.3764C74.0973 45.0711 73.5979 44.6293 73.2241 44.0889H55.5742V144.333H111.495V129.59C111.495 129.182 111.657 128.79 111.945 128.501C112.234 128.213 112.626 128.05 113.034 128.05H127.777V115.219C127.301 116.677 127.342 116.782 126.72 118.044C125.741 120.164 123.809 121.547 121.395 121.547C120.506 121.548 119.629 121.345 118.831 120.952C118.034 120.56 117.337 119.989 116.796 119.284C116.254 118.579 115.882 117.759 115.708 116.887C115.534 116.015 115.564 115.115 115.794 114.257C115.885 113.769 116.024 113.292 116.21 112.832L126.978 89.3344L124.727 88.9623C124.346 88.9269 123.991 88.7502 123.732 88.4669C123.474 88.1836 123.33 87.814 123.33 87.4305V75.3574C123.331 75.145 123.375 74.935 123.461 74.7405C123.546 74.5461 123.671 74.3715 123.827 74.2275C123.983 74.0836 124.168 73.9736 124.368 73.9042C124.569 73.8349 124.782 73.8078 124.994 73.8247C125.93 73.9048 126.858 74.0154 127.776 74.1567H127.776ZM117.733 73.8303C117.949 73.8034 118.169 73.8229 118.377 73.8873C118.585 73.9518 118.777 74.0599 118.941 74.2043C119.104 74.3487 119.235 74.5262 119.324 74.725C119.414 74.9238 119.46 75.1394 119.459 75.3574V87.4305C119.459 87.8061 119.321 88.1685 119.072 88.4497C118.823 88.7308 118.48 88.9113 118.107 88.957C113.345 89.5355 108.828 91.3929 105.036 94.3319C104.744 94.6006 104.359 94.7461 103.962 94.738C103.566 94.7299 103.187 94.5687 102.906 94.2882L94.374 85.7463C94.2247 85.5959 94.108 85.4163 94.0315 85.2186C93.9549 85.0209 93.9201 84.8095 93.9292 84.5978C93.9384 84.386 93.9912 84.1784 94.0845 83.988C94.1778 83.7977 94.3094 83.6287 94.4712 83.4917C101.043 77.9497 109.168 74.5751 117.733 73.83V73.8303ZM79.7115 111.852C80.4557 103.287 83.8305 95.1618 89.3731 88.59C89.5104 88.4281 89.6797 88.2962 89.8703 88.2027C90.0608 88.1091 90.2687 88.0559 90.4808 88.0463C90.6929 88.0368 90.9046 88.0711 91.1029 88.1471C91.3011 88.2231 91.4815 88.3392 91.6328 88.4881L100.171 97.0264C100.452 97.3073 100.613 97.6857 100.621 98.0826C100.629 98.4795 100.484 98.8643 100.215 99.1565C97.2758 102.948 95.4184 107.465 94.8399 112.228C94.794 112.6 94.6135 112.943 94.3324 113.192C94.0512 113.441 93.6888 113.579 93.3133 113.579H81.2402C81.0224 113.579 80.807 113.533 80.6084 113.443C80.4098 113.353 80.2324 113.223 80.0881 113.059C79.9438 112.896 79.8357 112.704 79.7711 112.496C79.7064 112.288 79.6867 112.069 79.7131 111.852L79.7115 111.852ZM89.2768 142.32C83.7783 135.751 80.4369 127.648 79.7073 119.112C79.6904 118.901 79.7174 118.688 79.7867 118.487C79.856 118.286 79.966 118.102 80.1099 117.946C80.2538 117.789 80.4284 117.665 80.6229 117.579C80.8173 117.493 81.0273 117.449 81.2397 117.448H93.3128C93.696 117.449 94.0653 117.592 94.3486 117.85C94.6319 118.108 94.8087 118.462 94.8446 118.844C95.3519 123.536 97.4249 128.301 100.291 131.971C100.521 132.266 100.636 132.635 100.613 133.008C100.59 133.381 100.431 133.734 100.167 133.998L91.634 142.539C91.4741 142.699 91.281 142.821 91.0685 142.898C90.856 142.974 90.6292 143.003 90.4042 142.982C90.1793 142.961 89.9616 142.891 89.7668 142.777C89.572 142.663 89.4047 142.507 89.2768 142.321V142.32ZM59.8778 116.638H75.6408C76.0492 116.638 76.4408 116.8 76.7295 117.089C77.0183 117.377 77.1805 117.769 77.1805 118.177V133.94C77.1805 134.349 77.0183 134.74 76.7295 135.029C76.4408 135.318 76.0492 135.48 75.6408 135.48H59.8778C59.4694 135.48 59.0778 135.318 58.7891 135.029C58.5003 134.74 58.3381 134.349 58.3381 133.94V118.176C58.3381 117.767 58.5003 117.376 58.7891 117.087C59.0778 116.798 59.4694 116.636 59.8778 116.636V116.638ZM59.8778 84.8102H75.6408C76.0492 84.8102 76.4408 84.9724 76.7295 85.2612C77.0183 85.5499 77.1805 85.9416 77.1805 86.3499V102.113C77.1805 102.521 77.0183 102.913 76.7295 103.202C76.4408 103.49 76.0492 103.653 75.6408 103.653H59.8778C59.4694 103.653 59.0778 103.49 58.7891 103.202C58.5003 102.913 58.3381 102.521 58.3381 102.113V86.3488C58.3381 85.9404 58.5003 85.5488 58.7891 85.2601C59.0778 84.9713 59.4694 84.8091 59.8778 84.8091V84.8102ZM59.8778 52.9829H75.6408C76.0492 52.9829 76.4408 53.1452 76.7295 53.4339C77.0183 53.7226 77.1805 54.1143 77.1805 54.5226V70.2854C77.1805 70.6937 77.0183 71.0853 76.7295 71.3741C76.4408 71.6628 76.0492 71.8251 75.6408 71.8251H59.8778C59.4694 71.8251 59.0778 71.6628 58.7891 71.3741C58.5003 71.0853 58.3381 70.6937 58.3381 70.2854V54.5215C58.3381 54.1132 58.5003 53.7215 58.7891 53.4328C59.0778 53.144 59.4694 52.9818 59.8778 52.9818V52.9829ZM85.4956 63.9416C85.2887 63.9495 85.0822 63.9155 84.8887 63.8418C84.6951 63.768 84.5184 63.656 84.3692 63.5123C84.2199 63.3687 84.1012 63.1964 84.0201 63.0058C83.939 62.8152 83.8972 62.6102 83.8972 62.403C83.8972 62.1959 83.939 61.9909 84.0201 61.8003C84.1012 61.6097 84.2199 61.4374 84.3692 61.2937C84.5184 61.1501 84.6951 61.038 84.8887 60.9643C85.0822 60.8905 85.2887 60.8566 85.4956 60.8645H102.261C102.659 60.8796 103.035 61.0484 103.311 61.3353C103.588 61.6221 103.742 62.0048 103.742 62.403C103.742 62.8012 103.588 63.1839 103.311 63.4708C103.035 63.7577 102.659 63.9264 102.261 63.9416H85.4956ZM85.4956 69.6883C85.0978 69.6731 84.7212 69.5043 84.4451 69.2174C84.1689 68.9306 84.0147 68.5479 84.0147 68.1497C84.0147 67.7515 84.1689 67.3688 84.4451 67.0819C84.7212 66.795 85.0978 66.6263 85.4956 66.6111H102.261C102.659 66.6263 103.036 66.795 103.312 67.0819C103.588 67.3688 103.742 67.7515 103.742 68.1497C103.742 68.5479 103.588 68.9306 103.312 69.2174C103.036 69.5043 102.659 69.6731 102.261 69.6883H85.4956ZM85.4956 58.1946C85.0978 58.1795 84.7212 58.0107 84.4451 57.7238C84.1689 57.437 84.0147 57.0543 84.0147 56.6561C84.0147 56.2579 84.1689 55.8752 84.4451 55.5883C84.7212 55.3014 85.0978 55.1327 85.4956 55.1175H108.843C109.241 55.1327 109.617 55.3014 109.893 55.5883C110.17 55.8752 110.324 56.2579 110.324 56.6561C110.324 57.0543 110.17 57.437 109.893 57.7238C109.617 58.0107 109.241 58.1795 108.843 58.1946H85.4956Z" fill="white"/>
<path fill-rule="evenodd" clip-rule="evenodd" d="M63.0657 94.6444C62.9334 94.4908 62.8328 94.3125 62.7697 94.1198C62.7067 93.9271 62.6824 93.7238 62.6983 93.5217C62.7143 93.3196 62.7701 93.1226 62.8625 92.9422C62.955 92.7617 63.0823 92.6014 63.2371 92.4704C63.3918 92.3395 63.571 92.2404 63.7642 92.1791C63.9575 92.1177 64.161 92.0953 64.3629 92.113C64.5649 92.1307 64.7614 92.1883 64.941 92.2823C65.1206 92.3764 65.2798 92.5051 65.4094 92.661L66.7968 94.3059L70.2004 90.9573C70.344 90.816 70.514 90.7044 70.7008 90.6288C70.8876 90.5533 71.0874 90.5152 71.2888 90.5169C71.4903 90.5186 71.6895 90.5599 71.875 90.6385C72.0604 90.7171 72.2286 90.8315 72.3699 90.9752C72.5112 91.1188 72.6228 91.2889 72.6984 91.4756C72.7739 91.6624 72.8119 91.8622 72.8103 92.0637C72.8086 92.2651 72.7673 92.4643 72.6887 92.6498C72.61 92.8353 72.4956 93.0035 72.352 93.1447L67.8071 97.6165C67.6586 97.7732 67.4787 97.8969 67.2792 97.9794C67.0797 98.062 66.865 98.1016 66.6492 98.0956C66.4334 98.0897 66.2212 98.0383 66.0266 97.9449C65.8319 97.8515 65.6591 97.7182 65.5194 97.5536L63.0657 94.6444ZM74.0997 87.8868H61.4141V100.573H74.0997V87.8868ZM63.0657 126.472C62.9355 126.318 62.8369 126.14 62.7755 125.948C62.7141 125.756 62.6911 125.554 62.7078 125.353C62.7416 124.947 62.9352 124.571 63.246 124.308C63.5568 124.045 63.9593 123.917 64.365 123.95C64.7708 123.984 65.1464 124.178 65.4094 124.489L66.7968 126.133L70.2004 122.785C70.3434 122.64 70.5136 122.526 70.7012 122.448C70.8887 122.371 71.0898 122.331 71.2928 122.331C71.4958 122.332 71.6967 122.373 71.8838 122.451C72.071 122.53 72.2406 122.645 72.383 122.79C72.5253 122.935 72.6376 123.106 72.7131 123.295C72.7887 123.483 72.8261 123.685 72.8233 123.888C72.8204 124.091 72.7772 124.291 72.6963 124.477C72.6154 124.663 72.4984 124.832 72.352 124.972L67.8071 129.444C67.6586 129.601 67.4787 129.724 67.2792 129.807C67.0797 129.89 66.865 129.929 66.6492 129.923C66.4334 129.917 66.2212 129.866 66.0266 129.773C65.8319 129.679 65.6591 129.546 65.5194 129.381L63.0657 126.472ZM74.0997 119.715H61.4141V132.401H74.0997V119.715ZM63.0657 62.8171C62.9334 62.6635 62.8328 62.4852 62.7697 62.2925C62.7067 62.0998 62.6824 61.8966 62.6983 61.6944C62.7143 61.4923 62.7701 61.2953 62.8625 61.1149C62.955 60.9345 63.0823 60.7741 63.2371 60.6432C63.3918 60.5122 63.571 60.4132 63.7642 60.3518C63.9575 60.2905 64.161 60.268 64.3629 60.2857C64.5649 60.3034 64.7614 60.361 64.941 60.455C65.1206 60.5491 65.2798 60.6778 65.4094 60.8337L66.7968 62.4787L70.2004 59.1297C70.3434 58.9857 70.5136 58.8714 70.7012 58.7936C70.8887 58.7159 71.0898 58.6761 71.2928 58.6766C71.4958 58.6771 71.6967 58.7178 71.8838 58.7965C72.071 58.8752 72.2406 58.9903 72.383 59.135C72.5253 59.2798 72.6376 59.4513 72.7131 59.6398C72.7887 59.8282 72.8261 60.0297 72.8233 60.2327C72.8204 60.4357 72.7772 60.6361 72.6963 60.8223C72.6154 61.0085 72.4984 61.1768 72.352 61.3175L67.8071 65.7893C67.6586 65.946 67.4787 66.0696 67.2792 66.1522C67.0797 66.2347 66.865 66.2743 66.6492 66.2683C66.4334 66.2624 66.2212 66.2111 66.0266 66.1177C65.8319 66.0243 65.6591 65.8909 65.5194 65.7263L63.0657 62.8171ZM74.0997 56.0596H61.4141V68.7452H74.0997V56.0596Z" fill="#F3FEFF"/>
<path fill-rule="evenodd" clip-rule="evenodd" d="M110.902 41.0119H129.311C129.719 41.0119 130.111 41.1741 130.4 41.4628C130.689 41.7516 130.851 42.1432 130.851 42.5516V74.7484C132.336 75.0923 133.801 75.5176 135.239 76.0224V38.1142C135.238 37.8525 135.133 37.6018 134.948 37.4167C134.763 37.2316 134.512 37.1272 134.251 37.126H110.903L110.902 41.0119Z" fill="#8794FF"/>
<path fill-rule="evenodd" clip-rule="evenodd" d="M126.402 77.0674V86.1039L128.278 86.4849L128.685 85.5967C129.205 84.5966 130.004 83.7696 130.987 83.2172C131.47 82.9439 132.009 82.7813 132.563 82.7412C133.117 82.7011 133.673 82.7845 134.19 82.9854C134.708 83.1862 135.175 83.4996 135.557 83.9027C135.939 84.3059 136.227 84.7888 136.4 85.3167C136.758 86.4156 136.776 87.597 136.452 88.7063L136.164 89.5929L138.64 91.1754L145.035 84.7804C139.616 80.606 133.186 77.9444 126.402 77.0674Z" fill="#FEBD00"/>
<path fill-rule="evenodd" clip-rule="evenodd" d="M133.508 87.8325C133.802 86.816 133.508 85.3578 132.419 85.9344C131.435 86.4563 131.031 87.9254 130.493 89.0138L120.887 109.976C121.77 109.898 122.659 110.024 123.485 110.345C124.312 110.665 125.054 111.171 125.654 111.824C128.272 103.826 130.89 95.8293 133.508 87.8325Z" fill="#C7C1B3"/>
<path fill-rule="evenodd" clip-rule="evenodd" d="M130.852 105.821V129.59C130.853 129.796 130.812 129.999 130.732 130.188C130.652 130.378 130.535 130.549 130.388 130.692C128.68 132.378 114.259 146.909 113.879 147.156C113.628 147.323 113.334 147.411 113.032 147.41H54.035C53.6267 147.41 53.2351 147.248 52.9463 146.959C52.6576 146.671 52.4953 146.279 52.4953 145.871V42.5504C52.4953 42.1421 52.6576 41.7505 52.9463 41.4617C53.2351 41.173 53.6267 41.0107 54.035 41.0107H72.4995V37.126H49.1523C48.8905 37.1271 48.6398 37.2316 48.4547 37.4166C48.2696 37.6017 48.1652 37.8524 48.1641 38.1142V150.308C48.1652 150.57 48.2696 150.821 48.4547 151.006C48.6398 151.191 48.8905 151.295 49.1523 151.296H134.252C134.514 151.295 134.765 151.191 134.95 151.006C135.135 150.821 135.24 150.57 135.241 150.308V92.6084L135.189 92.5771L130.852 105.821Z" fill="#8794FF"/>
<path fill-rule="evenodd" clip-rule="evenodd" d="M125.599 131.129H114.57V142.158L125.599 131.129Z" fill="#808080"/>
<path fill-rule="evenodd" clip-rule="evenodd" d="M118.774 115.012C118.472 117.399 120.34 119.226 122.51 118.077C123.095 117.758 123.586 117.291 123.933 116.722C124.064 116.379 124.124 116.013 124.11 115.645C124.096 115.278 124.008 114.917 123.85 114.585C123.693 114.253 123.47 113.956 123.194 113.713C122.919 113.469 122.597 113.284 122.248 113.168C121.899 113.053 121.531 113.009 121.164 113.04C120.798 113.071 120.442 113.175 120.117 113.348C119.792 113.52 119.506 113.756 119.275 114.043C119.045 114.329 118.874 114.659 118.774 115.012Z" fill="#808080"/>
<path fill-rule="evenodd" clip-rule="evenodd" d="M116.382 77.0674C109.596 77.9396 103.166 80.6021 97.75 84.7815L104.145 91.1762C107.79 88.5858 111.973 86.8509 116.382 86.1006V77.0674Z" fill="#FAA001"/>
<path fill-rule="evenodd" clip-rule="evenodd" d="M148.96 104.108C149.812 106.163 150.431 108.308 150.803 110.502H159.837C158.964 103.717 156.301 97.286 152.121 91.8701L145.727 98.2649C147.02 100.085 148.104 102.045 148.96 104.108Z" fill="#BBD502"/>
<path fill-rule="evenodd" clip-rule="evenodd" d="M152.124 139.156C156.303 133.74 158.966 127.309 159.838 120.524H150.806C150.056 124.933 148.321 129.115 145.73 132.76L152.124 139.156Z" fill="#48C100"/>
<path fill-rule="evenodd" clip-rule="evenodd" d="M90.6625 139.157L97.0583 132.761C94.4679 129.116 92.7329 124.933 91.9827 120.524H82.9492C83.822 127.309 86.4841 133.74 90.6625 139.157Z" fill="#FF1B18"/>
<path fill-rule="evenodd" clip-rule="evenodd" d="M82.9492 110.502H91.9824C92.7327 106.093 94.4677 101.91 97.0583 98.2649L90.6625 91.8701C86.4843 97.2866 83.8222 103.717 82.9492 110.502Z" fill="#FF7701"/>
</svg>
