<svg width="47" height="47" viewBox="0 0 47 47" fill="none" xmlns="http://www.w3.org/2000/svg">
<circle cx="23.5" cy="23.5" r="23.5" fill="#E6F9FF"/>
<g clip-path="url(#clip0_902_91306)">
<mask id="mask0_902_91306" style="mask-type:luminance" maskUnits="userSpaceOnUse" x="11" y="9" width="25" height="25">
<path d="M11 9H36V34H11V9Z" fill="white"/>
</mask>
<g mask="url(#mask0_902_91306)">
<path d="M35.1465 17.3492H11.8555C11.5858 17.3492 11.3672 17.5678 11.3672 17.8375V33.1455C11.3672 33.4152 11.5858 33.6338 11.8555 33.6338H22.5673C22.7813 33.352 23.1198 33.1699 23.501 33.1699C23.8821 33.1699 24.2207 33.352 24.4347 33.6338H35.1465C35.4162 33.6338 35.6348 33.4152 35.6348 33.1455V17.8375C35.6348 17.5678 35.4162 17.3492 35.1465 17.3492Z" fill="#D096FF"/>
<path d="M35.1484 17.3492H33.1953C33.465 17.3492 33.6836 17.5678 33.6836 17.8375V33.1455C33.6836 33.4152 33.465 33.6338 33.1953 33.6338H35.1484C35.4181 33.6338 35.6367 33.4152 35.6367 33.1455V17.8375C35.6367 17.5678 35.4181 17.3492 35.1484 17.3492Z" fill="#AB43FF"/>
<path d="M34.0402 32.1162H12.9609V19.6446H34.0402V32.1162Z" fill="#C5D7E6"/>
<path d="M23.5006 16.8951V31.957C23.5006 31.957 19.5283 28.6701 12.9609 30.9805V16.8951C12.9609 16.8951 18.2572 14.4054 23.5006 16.8951Z" fill="#E4ECF2"/>
<path d="M23.5006 17.1352C23.5006 17.1352 21.213 12.0049 15.4023 10.7875V25.6094C21.213 26.8267 23.5006 31.957 23.5006 31.957V17.1352Z" fill="#F0F5FA"/>
<path d="M23.501 17.1352C23.501 17.1352 23.6544 10.5832 17.8438 9.36582V24.1877C23.6544 25.4051 23.501 31.957 23.501 31.957V17.1352Z" fill="#E4ECF2"/>
<path d="M23.5 16.8951V31.957C23.5 31.957 27.4723 28.6701 34.0396 30.9805V16.8951C34.0396 16.8951 28.7434 14.4054 23.5 16.8951Z" fill="#E4ECF2"/>
<path d="M23.5 17.1352C23.5 17.1352 26.6897 13.7172 32.5749 13.7172V28.5391C26.6897 28.5391 23.5 31.957 23.5 31.957V17.1352Z" fill="#F0F5FA"/>
<path d="M11.3672 31.2656V33.1455C11.3672 33.4152 11.5858 33.6338 11.8555 33.6338H22.5673C22.7813 33.352 23.1198 33.1699 23.501 33.1699C23.8821 33.1699 24.2207 33.352 24.4347 33.6338H35.1465C35.4162 33.6338 35.6348 33.4152 35.6348 33.1455V17.8375C35.6348 17.5678 35.4162 17.3492 35.1465 17.3492H34.3072" stroke="#484848" stroke-miterlimit="10" stroke-linecap="round" stroke-linejoin="round"/>
<path d="M12.9613 17.3494H11.8555C11.5858 17.3494 11.3672 17.5681 11.3672 17.8377V29.0361" stroke="#484848" stroke-miterlimit="10" stroke-linecap="round" stroke-linejoin="round"/>
<path d="M34.0402 19.6446V32.1162H12.9609V19.6446" stroke="#484848" stroke-miterlimit="10" stroke-linecap="round" stroke-linejoin="round"/>
<path d="M23.5006 31.957C23.5006 31.957 19.5283 28.6701 12.9609 30.9805V16.8951C12.9609 16.8951 13.91 16.4489 15.4023 16.1232" stroke="#484848" stroke-miterlimit="10" stroke-linecap="round" stroke-linejoin="round"/>
<path d="M17.8438 11.5967C17.1107 11.2561 16.2984 10.9752 15.4023 10.7875V25.6094C21.213 26.8268 23.5006 31.957 23.5006 31.957" stroke="#484848" stroke-miterlimit="10" stroke-linecap="round" stroke-linejoin="round"/>
<path d="M23.501 17.1352C23.501 17.1352 23.6544 10.5832 17.8438 9.36582V24.1877C23.6544 25.4051 23.501 31.957 23.501 31.957V17.1352Z" stroke="#484848" stroke-miterlimit="10" stroke-linecap="round" stroke-linejoin="round"/>
<path d="M23.5 31.957C23.5 31.957 27.4723 28.6701 34.0396 30.9805V16.8951C34.0396 16.8951 33.4924 16.6378 32.5756 16.3714" stroke="#484848" stroke-miterlimit="10" stroke-linecap="round" stroke-linejoin="round"/>
<path d="M32.5749 20.0836V28.5391C26.6897 28.5391 23.5 31.957 23.5 31.957V17.1352C23.5 17.1352 26.6897 13.7172 32.5749 13.7172V17.8375" stroke="#484848" stroke-miterlimit="10" stroke-linecap="round" stroke-linejoin="round"/>
</g>
</g>
<defs>
<clipPath id="clip0_902_91306">
<rect width="25" height="25" fill="white" transform="translate(11 9)"/>
</clipPath>
</defs>
</svg>
