<svg width="50" height="49" viewBox="0 0 50 49" fill="none" xmlns="http://www.w3.org/2000/svg">
<circle cx="24.9766" cy="24.5" r="24.5" fill="#E6F9FF"/>
<g clip-path="url(#clip0_841_85997)">
<path d="M26.2067 22.1797C25.2272 22.1807 24.8269 22.9437 24.7969 22.9772C24.6835 23.1028 24.5327 23.1285 24.3798 22.9744C23.5564 21.5739 21.3568 22.1614 21.3584 23.7468C21.3603 25.4945 22.9545 26.8743 24.5206 27.5889C24.5441 27.5996 24.5693 27.6049 24.5946 27.6049C24.62 27.6049 24.6454 27.5995 24.6689 27.5887C24.9179 27.4745 25.5672 27.1518 26.2168 26.6242C27.2838 25.7575 27.8243 24.7873 27.8232 23.7404C27.8222 22.8798 27.0971 22.1797 26.2067 22.1797Z" fill="#CE93FF"/>
<path d="M23.5703 22.2937C22.4883 21.881 21.3573 22.6626 21.3584 23.7466C21.3603 25.4943 22.9545 26.8741 24.5206 27.5887C24.544 27.5994 24.5693 27.6047 24.5945 27.6047C24.6199 27.6047 24.6453 27.5993 24.6688 27.5885C24.777 27.5389 24.9609 27.4499 25.1873 27.3219C22.1518 25.6384 21.9367 22.924 23.5703 22.2937Z" fill="#8A00FA"/>
<path d="M30.1363 29.0648L26.2988 30.5943C26.3459 30.4603 26.4193 30.3324 26.5211 30.2188L28.7253 27.757C29.147 27.286 29.884 27.2346 30.3713 27.6423C30.7443 27.9544 30.8619 28.4448 30.7078 28.8691C30.4089 28.9216 30.1766 29.0455 30.1363 29.0648Z" fill="#FFBA98"/>
<path d="M27.5766 29.0402L26.5211 30.2191C26.4194 30.3327 26.3459 30.4606 26.2988 30.5946L30.1363 29.0652C30.1766 29.0458 30.4089 28.922 30.7078 28.8694C30.8311 28.53 30.78 28.1485 30.5639 27.8496L27.5766 29.0402Z" fill="#FFC4AA"/>
<path d="M19.651 33.8922C19.2085 33.9498 18.7923 34.1301 18.4543 34.4121L17.922 34.8564L14.7666 31.324C15.5478 30.6771 16.3865 30.0973 17.278 29.6013C18.2751 29.0465 18.6759 28.9896 20.8009 28.7694L20.801 28.7695C21.4964 28.7105 21.8427 28.8567 24.6998 29.6401C25.7307 29.9226 25.5035 30.8838 25.5035 30.8838L30.1317 29.0392C30.2225 28.9956 31.2971 28.4164 31.8916 29.3538C32.4128 30.2381 31.5304 30.8783 31.3532 30.9898L25.4564 34.2526C25.4564 34.2526 25.4562 34.2528 25.4557 34.253C24.5823 34.8027 23.6717 34.6911 23.2709 34.601L20.9816 33.9733C20.4445 33.826 20.0866 33.8355 19.651 33.8922Z" fill="#FFDBC7"/>
<path d="M15.7599 30.562C15.4195 30.8043 15.0879 31.0582 14.7666 31.3242L17.922 34.8567L18.4543 34.4124C18.599 34.2916 18.7588 34.1907 18.9282 34.1089L15.7599 30.562Z" fill="#FFBA98"/>
<path d="M18.3816 35.2846L14.418 30.8473C14.2521 30.6616 13.9618 30.641 13.7698 30.8013L10.6951 33.3677C10.5141 33.5188 10.4951 33.7837 10.6529 33.9575L14.7051 38.4214C14.849 38.5799 15.1007 38.6071 15.2673 38.4709C15.2685 38.4699 15.2698 38.4689 15.271 38.4678L18.3341 35.9111C18.5262 35.7508 18.5475 35.4703 18.3816 35.2846Z" fill="#0083B2"/>
<path d="M11.3007 32.8623L10.6951 33.3678C10.5141 33.5189 10.4951 33.7838 10.6529 33.9576L14.7051 38.4215C14.849 38.58 15.1007 38.6072 15.2673 38.471C15.2685 38.47 15.2698 38.469 15.271 38.4679L15.9072 37.9369L11.3007 32.8623Z" fill="#000F8F"/>
<path d="M11.3007 32.8623L10.6951 33.3678C10.5141 33.5189 10.4951 33.7838 10.6529 33.9576L14.7051 38.4215C14.849 38.58 15.1007 38.6072 15.2673 38.471C15.2685 38.47 15.2698 38.469 15.271 38.4679L15.9072 37.9369L11.3007 32.8623Z" fill="black" fill-opacity="0.2"/>
<path d="M11.3007 32.8623L10.6951 33.3678C10.5141 33.5189 10.4951 33.7838 10.6529 33.9576L14.7051 38.4215C14.849 38.58 15.1007 38.6072 15.2673 38.471C15.2685 38.47 15.2698 38.469 15.271 38.4679L15.9072 37.9369L11.3007 32.8623Z" fill="black" fill-opacity="0.2"/>
<path d="M11.3007 32.8623L10.6951 33.3678C10.5141 33.5189 10.4951 33.7838 10.6529 33.9576L14.7051 38.4215C14.849 38.58 15.1007 38.6072 15.2673 38.471C15.2685 38.47 15.2698 38.469 15.271 38.4679L15.9072 37.9369L11.3007 32.8623Z" fill="black" fill-opacity="0.2"/>
<path d="M11.3007 32.8623L10.6951 33.3678C10.5141 33.5189 10.4951 33.7838 10.6529 33.9576L14.7051 38.4215C14.849 38.58 15.1007 38.6072 15.2673 38.471C15.2685 38.47 15.2698 38.469 15.271 38.4679L15.9072 37.9369L11.3007 32.8623Z" fill="black" fill-opacity="0.2"/>
<path d="M11.3007 32.8623L10.6951 33.3678C10.5141 33.5189 10.4951 33.7838 10.6529 33.9576L14.7051 38.4215C14.849 38.58 15.1007 38.6072 15.2673 38.471C15.2685 38.47 15.2698 38.469 15.271 38.4679L15.9072 37.9369L11.3007 32.8623Z" fill="black" fill-opacity="0.2"/>
<path d="M22.8831 18.3687C22.7851 18.6479 22.8731 18.507 20.4567 21.206C20.0349 21.677 19.2979 21.7283 18.8106 21.3206C18.4376 21.0085 18.32 20.5181 18.4741 20.0939C18.6938 20.0552 18.2559 20.2128 22.8831 18.3687Z" fill="#FFBA98"/>
<path d="M21.6603 19.8614C22.7502 18.6441 22.7878 18.6396 22.8829 18.3687C18.257 20.2124 18.694 20.0552 18.474 20.0939C18.356 20.4186 18.3978 20.7819 18.5909 21.0745C18.767 21.0312 18.46 21.137 21.6603 19.8614Z" fill="#FFC4AA"/>
<path d="M30.7279 14.5507L31.2602 14.1064L34.4156 17.6389C33.6344 18.2858 32.7957 18.8656 31.9041 19.3616C30.9071 19.9164 30.5063 19.9733 28.3813 20.1934L28.3812 20.1934C27.6857 20.2524 27.3395 20.1062 24.4824 19.3228C23.4515 19.0402 23.6787 18.079 23.6787 18.079L19.0505 19.9237C18.9597 19.9673 17.8851 20.5464 17.2906 19.609C16.7694 18.7248 17.6518 18.0846 17.829 17.9731L23.7257 14.7102C23.7257 14.7102 23.726 14.7101 23.7264 14.7098C24.5998 14.1602 25.5104 14.2718 25.9112 14.3618L28.2005 14.9896C29.0783 15.2303 30.0453 15.1205 30.7279 14.5507Z" fill="#FFDBC7"/>
<path d="M29.3728 15.2205C30.2429 15.459 31.1975 15.3528 31.8784 14.7984L31.2604 14.1064L30.7281 14.5507C30.2348 14.9626 29.6298 15.1218 28.9639 15.1083L29.3728 15.2205Z" fill="#FFBA98"/>
<path d="M19.001 18.2039L24.8976 14.941C24.8976 14.941 24.8979 14.9408 24.8983 14.9405C25.4605 14.5867 26.0378 14.5071 26.4849 14.5191L25.9111 14.3618C25.5102 14.2718 24.5997 14.1602 23.7263 14.7098C23.7259 14.7101 23.7256 14.7102 23.7256 14.7102L17.829 17.9731C17.6518 18.0846 16.7694 18.7248 17.2906 19.6091C17.6768 20.218 18.2655 20.1869 18.6555 20.0784C18.0377 19.4822 18.2739 18.6616 19.001 18.2039Z" fill="#FFBA98"/>
<path d="M30.8002 13.6788L34.7638 18.116C34.9297 18.3017 35.22 18.3223 35.4121 18.162L38.4867 15.5957C38.6678 15.4445 38.6868 15.1796 38.529 15.0059L34.4767 10.5419C34.3329 10.3834 34.0811 10.3562 33.9146 10.4924C33.9134 10.4934 33.9121 10.4944 33.9108 10.4955L30.8477 13.0523C30.6556 13.2126 30.6343 13.4931 30.8002 13.6788Z" fill="#00C3FF"/>
<path d="M31.4639 12.5376L30.8477 13.052C30.6556 13.2123 30.6343 13.4928 30.8002 13.6786L34.7638 18.1158C34.9297 18.3015 35.2199 18.3221 35.412 18.1618L36.0282 17.6474L31.4639 12.5376Z" fill="#06B0F2"/>
<path d="M38.6594 14.6111L34.8154 10.2804C34.8081 10.2722 34.8005 10.2642 34.7926 10.2566C34.4569 9.93215 33.9126 9.91295 33.5534 10.2128L30.4903 12.7695C30.3085 12.9212 30.1987 13.1323 30.1812 13.3638C30.1638 13.5953 30.2405 13.8196 30.3974 13.9953L30.5173 14.1296L30.3197 14.2945C29.7954 14.7323 29.0062 14.8632 28.209 14.6447C28.1928 14.6402 25.9242 14.0179 25.9078 14.0142C25.4943 13.9213 24.4245 13.7746 23.4028 14.4118C23.3863 14.4209 17.5323 17.6597 17.5165 17.6698C16.9822 18.0063 16.2379 18.8475 16.8381 19.8659C16.8404 19.8699 16.8428 19.8738 16.8453 19.8777C17.1024 20.2831 17.4732 20.5246 17.9059 20.5915C17.9221 21.0072 18.1135 21.4056 18.4543 21.6907C19.1163 22.2446 20.1214 22.1747 20.6945 21.5346L22.8642 19.1113C22.9522 19.0131 23.0259 18.9053 23.0852 18.7898L23.1747 18.7541C23.2916 19.1781 23.6114 19.6001 24.2648 19.7791C26.987 20.5255 27.5537 20.7417 28.3159 20.6602C30.4407 20.4401 30.9277 20.3727 31.9979 19.7773C32.7676 19.3491 33.5168 18.8484 34.2303 18.2866L34.3608 18.4327C34.686 18.7968 35.2536 18.8359 35.629 18.5225L38.5448 16.0887C38.9966 15.7118 39.0479 15.0489 38.6594 14.6111ZM21.3818 19.4687L20.03 20.9785C19.5905 21.4694 18.7608 21.1439 18.7851 20.5072C18.7851 20.5072 21.3816 19.4688 21.3818 19.4687ZM31.5595 19.0409C30.649 19.5475 30.3425 19.5956 28.2314 19.8144C27.6533 19.8743 27.2003 19.7007 24.5047 18.9617C24.1594 18.867 24.0692 18.6886 24.0315 18.5626C23.9799 18.3905 24.0128 18.226 24.0127 18.226C24.0132 18.224 24.0132 18.222 24.0137 18.22C24.0145 18.2164 24.0156 18.2128 24.0163 18.2091C24.0166 18.208 24.0441 18.0945 24.1199 17.9957C24.1854 17.9103 24.284 17.8271 24.5199 17.8586C25.3515 17.9692 27.3319 18.2251 27.3517 18.2277C27.593 18.2588 27.8135 18.0955 27.8456 17.8629C27.8778 17.6304 27.7089 17.4166 27.4683 17.3855C27.4483 17.3829 25.4697 17.1272 24.6397 17.0168C23.8627 16.9133 23.4048 17.3772 23.2244 17.8153L22.5834 18.0708C17.5239 20.0874 18.6646 19.6496 18.289 19.7544C17.5823 19.8503 17.098 18.9612 17.9867 18.3881L23.8494 15.144C23.8498 15.1438 23.8502 15.1436 23.8506 15.1434C23.8577 15.1394 23.8647 15.1353 23.8716 15.131C24.6057 14.669 25.3871 14.7712 25.6991 14.8399L27.9692 15.4624C29.0518 15.7591 30.1454 15.563 30.8942 14.9379L31.0918 14.7729C31.427 15.1482 33.3582 17.3102 33.656 17.6436C32.9849 18.1702 32.2814 18.6392 31.5595 19.0409ZM37.9705 15.4456C37.9612 15.4533 35.0523 17.8855 35.04 17.884C35.0232 17.8829 31.0384 13.4346 31.0647 13.4127L34.1278 10.856H34.1279C34.1338 10.851 34.1412 10.8486 34.1485 10.8486C34.1545 10.8486 34.1604 10.8502 34.1656 10.8534L37.9922 15.1645C38.0662 15.2477 38.0564 15.3738 37.9705 15.4456Z" fill="#484848"/>
<path d="M31.1317 28.428C31.0787 27.058 29.2903 26.4271 28.3431 27.485L26.1733 29.9085C26.0854 30.0067 26.0117 30.1143 25.9525 30.2298L25.863 30.2655C25.746 29.8416 25.4263 29.4195 24.7729 29.2405C21.8911 28.4504 21.5154 28.292 20.7303 28.3586C20.7275 28.3588 20.7247 28.3591 20.7219 28.3594C18.597 28.5796 18.11 28.647 17.0398 29.2423C16.27 29.6706 15.5208 30.1713 14.8074 30.733L14.6769 30.587C14.3528 30.2242 13.7839 30.1839 13.4087 30.4972L10.334 33.0635C9.96779 33.369 9.92953 33.9035 10.2486 34.2551L14.3008 38.7191C14.6041 39.0532 15.1318 39.0951 15.4762 38.8135C15.4777 38.8123 15.4829 38.808 15.4844 38.8068L18.5475 36.2501C18.9236 35.9361 18.9653 35.3878 18.6404 35.0242L18.5205 34.8899L18.7181 34.725C19.2425 34.2872 20.0317 34.1564 20.8288 34.3749L22.8669 34.9337C23.1003 34.9975 23.3434 34.8666 23.4097 34.6409C23.4759 34.4151 23.3402 34.1802 23.1067 34.1162L21.0686 33.5574C19.986 33.2607 18.8926 33.4568 18.1436 34.0819L17.946 34.2467L15.3819 31.3761C16.0528 30.8494 16.7563 30.3804 17.4783 29.9787C18.3895 29.4717 18.6955 29.4239 20.8112 29.2047C21.3058 29.1631 21.615 29.2492 23.3104 29.72C24.6241 30.0848 24.8953 30.0867 25.0063 30.457C25.0579 30.6291 25.025 30.7936 25.0251 30.7936C25.0035 30.8849 24.9629 30.9654 24.918 31.024C24.8524 31.1094 24.7534 31.1925 24.518 31.1611C23.6863 31.0505 21.706 30.7945 21.6861 30.7919C21.445 30.761 21.2244 30.9241 21.1922 31.1568C21.1601 31.3893 21.329 31.6031 21.5696 31.6342C21.5895 31.6367 23.5682 31.8925 24.3981 32.0029C25.0846 32.0943 25.5936 31.7372 25.8131 31.2045C25.835 31.1957 30.239 29.4411 30.2602 29.4309C30.7243 29.2031 31.1628 29.1509 31.4394 29.5801C31.7576 30.1298 31.1933 30.5399 31.0511 30.6316L25.1885 33.8756C25.1858 33.8771 25.1832 33.8786 25.1807 33.88C25.176 33.8827 25.1708 33.8859 25.1663 33.8887C25.0693 33.9497 24.9658 34.0041 24.8585 34.0504C24.6369 34.1461 24.5375 34.3974 24.6365 34.6116C24.7355 34.8259 24.9956 34.922 25.217 34.8263C25.363 34.7632 25.5045 34.6892 25.6354 34.6073C25.6528 34.5977 31.5044 31.3602 31.5212 31.3496C33.1152 30.3463 32.3485 28.6163 31.1317 28.428ZM14.942 38.1369L10.9152 33.701L13.9832 31.1402C13.9851 31.1386 13.9901 31.1346 13.9978 31.1355C14.0061 31.1361 14.0099 31.1404 14.0115 31.1422C14.4254 31.6056 17.5508 35.1044 17.9752 35.5795C17.9768 35.5813 17.9806 35.5855 17.98 35.5936C17.979 35.6061 14.9517 38.1287 14.942 38.1369ZM29.0078 28.0411C29.4419 27.5562 30.2772 27.8674 30.2527 28.5124C30.2527 28.5124 27.6565 29.5507 27.6561 29.5508L29.0078 28.0411Z" fill="#484848"/>
<path d="M24.0164 23.2016C24.0986 23.3418 24.3413 23.5297 24.6283 23.523C24.8656 23.5176 25.0854 23.3809 25.2044 23.1956C25.7705 22.3164 26.9549 22.5145 27.3085 23.3149C27.4038 23.5307 27.662 23.631 27.8853 23.5388C28.1086 23.4466 28.2122 23.1969 28.1169 22.9812C27.5166 21.6228 25.6027 21.3151 24.6105 22.5362C23.4076 21.0464 20.9357 21.8927 20.9375 23.7647C20.9396 25.7329 22.7025 27.2381 24.3518 27.9906C24.5215 28.068 24.7147 28.0641 24.8759 27.99C26.0616 27.4462 27.3222 26.4813 27.9056 25.3159C28.0114 25.1047 27.9199 24.8506 27.7015 24.7484C27.4828 24.6461 27.2202 24.7346 27.1145 24.9458C26.6391 25.8952 25.5863 26.6944 24.6125 27.1686C23.2408 26.5129 21.8182 25.2928 21.8166 23.7639C21.8155 22.6109 23.4161 22.1806 24.0164 23.2016Z" fill="#484848"/>
</g>
<defs>
<clipPath id="clip0_841_85997">
<rect width="30" height="29" fill="white" transform="translate(9.47656 10)"/>
</clipPath>
</defs>
</svg>
