<svg width="47" height="47" viewBox="0 0 47 47" fill="none" xmlns="http://www.w3.org/2000/svg">
<circle cx="23.5" cy="23.5" r="23.5" fill="#E6F9FF"/>
<path d="M23.1946 40.0953C31.9769 40.0953 39.0963 32.9759 39.0963 24.1937C39.0963 15.4114 31.9769 8.29199 23.1946 8.29199C14.4124 8.29199 7.29297 15.4114 7.29297 24.1937C7.29297 32.9759 14.4124 40.0953 23.1946 40.0953Z" fill="#FFE093"/>
<path d="M23.1946 37.0384C14.923 37.0384 8.13297 30.7267 7.36297 22.665C7.3163 23.1667 7.29297 23.68 7.29297 24.1934C7.29297 32.9784 14.4096 40.095 23.1946 40.095C31.9796 40.095 39.0963 32.9784 39.0963 24.1934C39.0963 23.68 39.073 23.1667 39.0263 22.665C38.2563 30.7267 31.4663 37.0384 23.1946 37.0384Z" fill="#FFCA6B"/>
<path d="M11.6198 28.2416C12.741 28.2416 13.6498 27.9177 13.6498 27.5183C13.6498 27.1188 12.741 26.7949 11.6198 26.7949C10.4987 26.7949 9.58984 27.1188 9.58984 27.5183C9.58984 27.9177 10.4987 28.2416 11.6198 28.2416Z" fill="#F97AA4"/>
<path d="M34.7683 28.2416C35.8894 28.2416 36.7983 27.9177 36.7983 27.5183C36.7983 27.1188 35.8894 26.7949 34.7683 26.7949C33.6471 26.7949 32.7383 27.1188 32.7383 27.5183C32.7383 27.9177 33.6471 28.2416 34.7683 28.2416Z" fill="#F97AA4"/>
<path d="M27.3457 31.7296C27.3457 31.2163 25.4907 30.4463 23.1924 30.4463C20.8941 30.4463 19.0391 31.2163 19.0391 31.7296C19.0391 32.243 20.8941 32.313 23.1924 32.313C23.8574 32.313 24.2541 32.3013 24.8141 32.2896V32.698C24.8141 33.0246 25.0707 33.2813 25.3857 33.2813C25.7241 33.2813 25.9574 33.0246 25.9574 32.698V32.2313C26.8091 32.1496 27.3457 32.0096 27.3457 31.7296Z" fill="#F97AA4"/>
<path d="M13.2057 12.188C13.3341 12.083 13.4741 11.978 13.6024 11.873C13.7307 11.7797 13.7541 11.593 13.6491 11.4647C13.5557 11.3364 13.3691 11.313 13.2291 11.4064C13.0891 11.5114 12.9607 11.6164 12.8207 11.733C12.6924 11.838 12.6807 12.0247 12.7857 12.153C12.9024 12.2697 13.0891 12.293 13.2057 12.188Z" fill="black"/>
<path d="M23.1933 8C20.1833 8 17.255 8.82833 14.7117 10.4033C14.5717 10.485 14.5367 10.6717 14.6183 10.8117C14.7 10.9517 14.8867 10.9867 15.015 10.905C17.465 9.38833 20.2883 8.595 23.1933 8.595C31.8383 8.595 38.8733 15.665 38.8033 24.3333C38.7333 32.8267 31.8033 39.7567 23.31 39.8267C14.6533 39.8733 7.58333 32.8383 7.58333 24.1933C7.58333 20.5417 8.86667 17.0067 11.1883 14.2067C11.2933 14.0783 11.2817 13.9033 11.1533 13.7983C11.025 13.6933 10.8383 13.705 10.745 13.8333C8.31833 16.7383 7 20.4017 7 24.1933C7 33.165 14.3383 40.4567 23.3217 40.3867C32.13 40.3167 39.3283 33.13 39.3867 24.3217C39.4567 15.3267 32.165 8 23.1933 8Z" fill="black"/>
<path d="M18.75 31.7303C18.75 32.4769 20.1267 32.6053 23.195 32.6053C23.755 32.6053 24.1283 32.6053 24.525 32.5936V32.6986C24.525 33.1769 24.91 33.5736 25.3883 33.5736C25.8783 33.5736 26.2517 33.1886 26.2517 32.6986V32.5003C26.9983 32.4186 27.6283 32.2436 27.6283 31.7303C27.6283 30.8436 25.2367 30.1553 23.1833 30.1553C21.13 30.1553 18.75 30.8436 18.75 31.7303ZM27.045 31.7069C26.975 31.7536 26.7183 31.8703 25.9483 31.9403L25.68 31.9636V32.6869C25.68 32.8269 25.5867 32.9786 25.4 32.9786C25.2483 32.9786 25.12 32.8503 25.12 32.6869V31.9753L24.8167 31.9869C24.28 32.0103 23.8833 32.0103 23.195 32.0103C22.3317 32.0103 19.7417 32.0103 19.345 31.6953C19.5433 31.3803 21.1067 30.7269 23.195 30.7269C25.2717 30.7386 26.835 31.3919 27.045 31.7069Z" fill="black"/>
<path d="M11.6888 25.0918C12.2838 25.5118 13.8704 26.4685 16.0988 26.4685C17.9188 26.4685 19.2838 25.9085 20.0888 25.4535C19.8904 25.7801 19.5988 26.1301 19.1788 26.3985C19.0504 26.4801 19.0154 26.6435 19.0738 26.7718C19.1554 26.9235 19.3421 26.9818 19.4938 26.8885C20.7071 26.1301 20.9988 24.7885 21.0104 24.7301C21.0688 24.4501 20.7421 24.2635 20.5321 24.4501C20.5204 24.4618 18.8754 25.8968 16.0988 25.8968C14.0454 25.8968 12.5521 24.9985 12.0271 24.6251C11.8988 24.5435 11.7354 24.5668 11.6421 24.6718C11.5138 24.7885 11.5488 24.9868 11.6888 25.0918Z" fill="black"/>
<path d="M25.3741 24.718C25.3857 24.7763 25.6774 26.118 26.8907 26.8763C27.0424 26.9697 27.2291 26.9113 27.3107 26.7597C27.3807 26.6313 27.3341 26.468 27.2057 26.3863C26.7857 26.1297 26.4941 25.768 26.2957 25.4413C27.1007 25.8963 28.4541 26.4563 30.2741 26.4563C32.5024 26.4563 34.0891 25.4997 34.6841 25.0797C34.8241 24.9747 34.8474 24.788 34.7424 24.648C34.6491 24.5313 34.4741 24.508 34.3574 24.6013C33.8324 24.9747 32.3391 25.873 30.2857 25.873C27.5207 25.873 25.8641 24.4497 25.8524 24.4263C25.6424 24.2513 25.3157 24.438 25.3741 24.718Z" fill="black"/>
<path d="M13.4391 19.7832L13.4624 19.8299C13.5324 19.9582 13.6957 19.9932 13.8241 19.9232C17.7557 17.6832 19.7741 19.0715 20.3341 19.5849C20.4274 19.6782 20.5791 19.6782 20.6841 19.5965L20.7191 19.5615C20.8474 19.4565 20.8591 19.2699 20.7307 19.1532C20.0541 18.5232 17.7791 16.9832 13.5324 19.3982C13.4041 19.4799 13.3574 19.6549 13.4391 19.7832Z" fill="black"/>
<path d="M25.703 19.5967C25.808 19.6783 25.948 19.6783 26.0414 19.585C26.6014 19.0833 28.643 17.695 32.5514 19.9117C32.6797 19.9817 32.8314 19.935 32.913 19.8183L32.9364 19.7717C33.018 19.6433 32.9714 19.48 32.843 19.3983C28.5847 16.9717 26.3097 18.5233 25.6447 19.1533C25.528 19.27 25.528 19.4567 25.6564 19.5617L25.703 19.5967Z" fill="black"/>
</svg>
