<svg width="50" height="49" viewBox="0 0 50 49" fill="none" xmlns="http://www.w3.org/2000/svg">
<circle cx="24.9766" cy="24.5" r="24.5" fill="#E6F9FF"/>
<path d="M18.2186 40.5638V43.3242C18.2186 43.4709 18.0959 43.5897 17.9445 43.5897H15.2029C15.0515 43.5897 14.9287 43.4709 14.9287 43.3242V40.5638C14.9287 40.4172 15.0515 40.2983 15.2029 40.2983H17.9445C18.0959 40.2983 18.2186 40.4172 18.2186 40.5638ZM32.7493 40.2983H30.0077C29.8563 40.2983 29.7336 40.4172 29.7336 40.5638V43.3242C29.7336 43.4709 29.8563 43.5897 30.0077 43.5897H32.7493C32.9007 43.5897 33.0235 43.4709 33.0235 43.3242V40.5638C33.0235 40.4172 32.9007 40.2983 32.7493 40.2983Z" fill="#9855CF"/>
<path d="M33.0424 41.8912H14.9102C14.2845 41.8912 13.7773 41.4015 13.7773 40.7974V37.1455C13.7773 36.5414 14.2845 36.0518 14.9102 36.0518H33.0424C33.668 36.0518 34.1752 36.5414 34.1752 37.1455V40.7974C34.1752 41.4014 33.668 41.8912 33.0424 41.8912Z" fill="#B355FF"/>
<path d="M30.191 41.8912H14.9102C14.2845 41.8912 13.7773 41.4015 13.7773 40.7974V37.1455C13.7773 36.5414 14.2845 36.0518 14.9102 36.0518H30.191C30.8167 36.0518 31.3238 36.5414 31.3238 37.1455V40.7974C31.3238 41.4014 30.8167 41.8912 30.191 41.8912Z" fill="#DAADFF"/>
<path d="M36.3687 31.3803V36.0518C36.3687 37.2245 35.3868 38.1752 34.1755 38.1752H13.7776C12.5663 38.1752 11.5843 37.2245 11.5843 36.0518V31.3803C11.2745 30.981 11.0908 30.4848 11.0908 29.947C11.0908 28.6276 12.1955 27.5581 13.5583 27.5581C14.4137 27.5581 15.1674 27.9797 15.61 28.6198H32.3431C32.7857 27.9797 33.5393 27.5581 34.3948 27.5581C35.7575 27.5581 36.8623 28.6276 36.8623 29.947C36.8623 30.4848 36.6786 30.981 36.3687 31.3803Z" fill="#C783FF"/>
<path d="M36.8627 29.947C36.8627 30.4848 36.679 30.981 36.3691 31.3803V36.0518C36.3691 37.2245 35.3872 38.1752 34.1759 38.1752H31.9277C33.139 38.1752 34.121 37.2245 34.121 36.0518V31.3803C34.4308 30.981 34.6145 30.4848 34.6145 29.947C34.6145 29.02 34.0687 28.2169 33.2716 27.8209C33.6088 27.6535 33.9902 27.5581 34.3952 27.5581C35.7579 27.5582 36.8627 28.6277 36.8627 29.947Z" fill="#DAADFF"/>
<path d="M30.265 33.3974H17.6885C16.4372 33.3974 15.4229 32.418 15.4229 31.2099V18.5977C15.4229 17.3896 16.4372 16.4102 17.6885 16.4102H30.2651C31.5163 16.4102 32.5307 17.3896 32.5307 18.5977V31.2099C32.5307 32.418 31.5163 33.3974 30.265 33.3974Z" fill="#DEB5FF"/>
<path d="M32.5309 18.5336V31.274C32.5309 32.4467 31.5489 33.3974 30.3376 33.3974H17.6164C17.3522 33.3974 17.0989 33.3521 16.8643 33.2692C24.1606 32.3275 29.7893 26.2796 29.7893 18.9583V18.5336C29.7893 17.3608 28.8073 16.4102 27.596 16.4102H30.3376C31.5489 16.4102 32.5309 17.3608 32.5309 18.5336Z" fill="#C47BFF"/>
<path d="M32.2197 34.99H15.7324C15.1068 34.99 14.5996 34.5003 14.5996 33.8962V31.8369C14.5996 31.2328 15.1068 30.7432 15.7324 30.7432H32.2196C32.8453 30.7432 33.3524 31.2328 33.3524 31.8369V33.8962C33.3525 34.5003 32.8453 34.99 32.2197 34.99Z" fill="#BA65FF"/>
<path d="M29.6787 34.99H15.6963C15.0906 34.99 14.5996 34.5146 14.5996 33.9283V31.8049C14.5996 31.2185 15.0906 30.7432 15.6963 30.7432H29.6787C30.2843 30.7432 30.7753 31.2185 30.7753 31.8049V33.9283C30.7753 34.5146 30.2843 34.99 29.6787 34.99Z" fill="#DDB4FF"/>
<path d="M34.3948 27.1479C33.8844 27.1479 33.3891 27.2792 32.9553 27.5202V21.7541C32.9553 21.5275 32.7652 21.3439 32.5305 21.3439C32.2958 21.3439 32.1057 21.5275 32.1057 21.7541V30.333H20.6592C20.4245 30.333 20.2344 30.5166 20.2344 30.7432C20.2344 30.9697 20.4245 31.1533 20.6592 31.1533H32.2563C32.2809 31.1533 32.3051 31.1548 32.3289 31.1573C32.3861 31.1871 32.4511 31.2043 32.5203 31.2059C32.7598 31.3056 32.9282 31.5365 32.9282 31.8049V33.9283C32.9282 34.2875 32.6268 34.5798 32.2563 34.5798H15.6968C15.3263 34.5798 15.0249 34.2875 15.0249 33.9283V31.8049C15.0249 31.4456 15.3263 31.1533 15.6968 31.1533H18.4932C18.7279 31.1533 18.918 30.9697 18.918 30.7432C18.918 30.5166 18.7279 30.333 18.4932 30.333H15.8474V18.5336C15.8474 17.5889 16.6407 16.8203 17.6159 16.8203H30.3372C31.3123 16.8203 32.1057 17.5889 32.1057 18.5336V19.9667C32.1057 20.1933 32.2958 20.3769 32.5305 20.3769C32.7652 20.3769 32.9553 20.1933 32.9553 19.9667V18.5336C32.9552 17.1365 31.7808 16 30.3372 16H17.6159C16.1723 16 14.9978 17.1365 14.9978 18.5336V27.5201C14.5638 27.2791 14.0681 27.1479 13.5583 27.1479C11.9635 27.1479 10.666 28.4035 10.666 29.9469C10.666 30.5105 10.8362 31.0483 11.1595 31.5111V36.0517C11.1595 37.3088 12.1106 38.3544 13.3529 38.5514V40.8294C13.3529 41.5176 13.8437 42.0967 14.5043 42.257V43.3244C14.5043 43.6969 14.8179 44 15.2033 44H17.9449C18.3304 44 18.6439 43.6969 18.6439 43.3244V42.3012H29.3092V43.3244C29.3092 43.6969 29.6227 44 30.0082 44H32.7498C33.1353 44 33.4488 43.6969 33.4488 43.3244V42.257C34.1095 42.0967 34.6003 41.5175 34.6003 40.8294V38.5514C35.8426 38.3544 36.7936 37.3088 36.7936 36.0517V31.5111C37.117 31.0483 37.2871 30.5105 37.2871 29.9469C37.2871 28.4035 35.9896 27.1479 34.3948 27.1479ZM17.7943 43.1796H15.3539V42.3012H17.7943V43.1796ZM30.1588 43.1796V42.3012H32.5991V43.1796H30.1588ZM33.0788 41.4809H14.8743C14.5039 41.4809 14.2025 41.1886 14.2025 40.8294V38.5853H33.7507V40.8294C33.7506 41.1886 33.4492 41.4809 33.0788 41.4809ZM36.0287 31.1344C35.9737 31.2053 35.9439 31.2916 35.9439 31.3802V36.0517C35.9439 36.9964 35.1506 37.7649 34.1754 37.7649H13.7777C12.8025 37.7649 12.0091 36.9964 12.0091 36.0517V31.3802C12.0091 31.2916 11.9794 31.2053 11.9243 31.1344C11.6569 30.7897 11.5156 30.3791 11.5156 29.9469C11.5156 28.8559 12.432 27.9682 13.5583 27.9682C14.0984 27.9682 14.6163 28.1768 14.9978 28.5438V30.4982C14.5096 30.7435 14.1753 31.2369 14.1753 31.8049V33.9283C14.1753 34.7399 14.8579 35.4001 15.6968 35.4001H32.2562C33.0952 35.4001 33.7777 34.7399 33.7777 33.9283V31.8049C33.7777 31.237 33.4433 30.7436 32.9552 30.4982V28.544C33.3368 28.1768 33.854 27.9682 34.3948 27.9682C35.5211 27.9682 36.4374 28.8558 36.4374 29.9469C36.4375 30.3791 36.2961 30.7897 36.0287 31.1344ZM21.3712 20.4157L21.122 20.657L21.3712 20.8982C21.5369 21.0586 21.5365 21.3183 21.3703 21.4782C21.2874 21.558 21.1789 21.5979 21.0704 21.5979C20.9614 21.5979 20.8525 21.5578 20.7696 21.4774L20.522 21.2377L20.2745 21.4774C20.1915 21.5577 20.0826 21.5979 19.9737 21.5979C19.8652 21.5979 19.7566 21.558 19.6737 21.4782C19.5076 21.3182 19.5073 21.0585 19.6729 20.8982L19.922 20.657L19.6729 20.4157C19.5072 20.2553 19.5076 19.9956 19.6737 19.8357C19.8399 19.6757 20.1088 19.6761 20.2745 19.8365L20.522 20.0762L20.7695 19.8365C20.9351 19.6761 21.2041 19.6758 21.3702 19.8357C21.5365 19.9956 21.5369 20.2554 21.3712 20.4157ZM28.2801 20.4157L28.0309 20.657L28.2801 20.8982C28.4458 21.0586 28.4454 21.3183 28.2792 21.4782C28.1963 21.558 28.0878 21.5979 27.9793 21.5979C27.8703 21.5979 27.7614 21.5578 27.6784 21.4774L27.4309 21.2377L27.1834 21.4774C27.1004 21.5577 26.9915 21.5979 26.8826 21.5979C26.7741 21.5979 26.6655 21.558 26.5826 21.4782C26.4165 21.3182 26.4162 21.0585 26.5818 20.8982L26.8309 20.657L26.5818 20.4157C26.4161 20.2553 26.4165 19.9956 26.5826 19.8357C26.7488 19.6757 27.0178 19.6761 27.1834 19.8365L27.4309 20.0762L27.6784 19.8365C27.844 19.6761 28.113 19.6758 28.2791 19.8357C28.4454 19.9956 28.4458 20.2554 28.2801 20.4157ZM21.3712 25.7242L21.122 25.9655L21.3712 26.2067C21.5369 26.3671 21.5365 26.6268 21.3703 26.7867C21.2874 26.8665 21.1789 26.9064 21.0704 26.9064C20.9614 26.9064 20.8525 26.8663 20.7696 26.7859L20.522 26.5462L20.2745 26.7859C20.1915 26.8662 20.0826 26.9064 19.9737 26.9064C19.8652 26.9064 19.7566 26.8665 19.6737 26.7867C19.5076 26.6267 19.5073 26.367 19.6729 26.2067L19.922 25.9655L19.6729 25.7242C19.5072 25.5638 19.5076 25.3041 19.6737 25.1442C19.8399 24.9842 20.1088 24.9846 20.2745 25.145L20.522 25.3847L20.7695 25.145C20.9351 24.9846 21.2041 24.9843 21.3702 25.1442C21.5365 25.3042 21.5369 25.5639 21.3712 25.7242ZM28.2801 25.7242L28.0309 25.9655L28.2801 26.2067C28.4458 26.3671 28.4454 26.6268 28.2792 26.7867C28.1963 26.8665 28.0878 26.9064 27.9793 26.9064C27.8703 26.9064 27.7614 26.8663 27.6784 26.7859L27.4309 26.5462L27.1834 26.7859C27.1004 26.8662 26.9915 26.9064 26.8826 26.9064C26.7741 26.9064 26.6655 26.8665 26.5826 26.7867C26.4165 26.6267 26.4162 26.367 26.5818 26.2067L26.8309 25.9655L26.5818 25.7242C26.4161 25.5638 26.4165 25.3041 26.5826 25.1442C26.7488 24.9842 27.0178 24.9846 27.1834 25.145L27.4309 25.3847L27.6784 25.145C27.844 24.9846 28.113 24.9843 28.2791 25.1442C28.4454 25.3042 28.4458 25.5639 28.2801 25.7242Z" fill="#484848"/>
</svg>
