<svg width="47" height="47" viewBox="0 0 47 47" fill="none" xmlns="http://www.w3.org/2000/svg">
<circle cx="23.5" cy="23.5" r="23.5" fill="#E6F9FF"/>
<path d="M23.2664 40.2614C31.5468 40.2614 38.2594 33.5488 38.2594 25.2684C38.2594 16.988 31.5468 10.2754 23.2664 10.2754C14.986 10.2754 8.27344 16.988 8.27344 25.2684C8.27344 33.5488 14.986 40.2614 23.2664 40.2614Z" fill="#FFE093"/>
<path d="M38.2594 25.2681C38.2594 30.1961 35.8834 34.5631 32.2204 37.2911C30.9004 38.2811 29.4044 39.0512 27.7984 39.5682C26.3684 40.0191 24.8394 40.2611 23.2664 40.2611C21.6934 40.2611 20.1644 40.0191 18.7344 39.5682C17.1284 39.0622 15.6324 38.2811 14.3124 37.2911C10.6384 34.5631 8.27344 30.1961 8.27344 25.2681C8.27344 24.7841 8.29544 24.3001 8.33944 23.8271C8.75744 28.1501 11.0014 31.9452 14.3014 34.4092C15.6214 35.3992 17.1174 36.1692 18.7234 36.6862C20.1534 37.1371 21.6824 37.3792 23.2554 37.3792C24.8284 37.3792 26.3574 37.1371 27.7874 36.6862C29.3934 36.1802 30.8894 35.3992 32.2094 34.4092C35.5094 31.9452 37.7644 28.1611 38.1714 23.8271C38.2374 24.3001 38.2594 24.7841 38.2594 25.2681Z" fill="#FFCA6B"/>
<path d="M18.7345 25.8066V39.5676C17.1285 39.0616 15.6325 38.2806 14.3125 37.2906V26.3786L18.7345 25.8066Z" fill="#7785FF"/>
<path d="M11.7391 29.0851C12.4256 29.0851 12.9821 28.8881 12.9821 28.6451C12.9821 28.4021 12.4256 28.2051 11.7391 28.2051C11.0526 28.2051 10.4961 28.4021 10.4961 28.6451C10.4961 28.8881 11.0526 29.0851 11.7391 29.0851Z" fill="#F97AA4"/>
<path d="M34.786 29.0851C35.4725 29.0851 36.029 28.8881 36.029 28.6451C36.029 28.4021 35.4725 28.2051 34.786 28.2051C34.0995 28.2051 33.543 28.4021 33.543 28.6451C33.543 28.8881 34.0995 29.0851 34.786 29.0851Z" fill="#F97AA4"/>
<path d="M27.8008 25.8066V39.5676C29.4068 39.0616 30.9028 38.2806 32.2228 37.2906V26.3786L27.8008 25.8066Z" fill="#7785FF"/>
<path d="M13.8535 13.9487C13.9745 13.8497 14.1065 13.7507 14.2275 13.6517C14.3485 13.5637 14.3704 13.3877 14.2714 13.2667C14.1834 13.1457 14.0074 13.1237 13.8754 13.2117C13.7434 13.3107 13.6224 13.4097 13.4904 13.5197C13.3694 13.6187 13.3585 13.7947 13.4575 13.9157C13.5675 14.0257 13.7435 14.0477 13.8535 13.9487Z" fill="black"/>
<path d="M20.4413 31.5927C20.5733 31.6477 20.7273 31.5927 20.7823 31.4607C20.9473 31.1307 21.3103 30.5477 21.8493 30.4157C22.2233 30.3277 22.6413 30.4817 23.0923 30.8777C23.1913 30.9657 23.3453 30.9657 23.4553 30.8777C23.9063 30.4817 24.3243 30.3277 24.6983 30.4157C25.2263 30.5477 25.6003 31.1307 25.7653 31.4607C25.8313 31.5817 25.9743 31.6367 26.1063 31.5927H26.1173C26.2713 31.5377 26.3373 31.3618 26.2603 31.2188C26.0513 30.8117 25.5893 30.0747 24.8413 29.8877C24.3353 29.7667 23.8183 29.9097 23.2903 30.3167C22.8833 29.9977 22.4763 29.8438 22.0913 29.8438C21.9703 29.8438 21.8603 29.8547 21.7393 29.8877C20.9913 30.0747 20.5293 30.8117 20.3203 31.2188C20.2213 31.3618 20.2873 31.5377 20.4413 31.5927Z" fill="black"/>
<path d="M15.0075 19.5256C15.7885 19.5586 18.2525 19.8336 19.8365 22.0776C19.9245 22.1986 20.0785 22.2206 20.1995 22.1436H20.2105C20.3425 22.0556 20.3755 21.8796 20.2875 21.7586C18.5495 19.3056 15.9095 19.0086 15.0295 18.9756C14.8755 18.9756 14.7435 19.0966 14.7545 19.2616V19.2726C14.7545 19.4046 14.8645 19.5146 15.0075 19.5256Z" fill="black"/>
<path d="M26.3056 22.0121C26.4266 22.1001 26.5916 22.0781 26.6796 21.9681C28.3626 19.8121 30.8376 19.6361 31.6296 19.6471C31.7726 19.6471 31.8826 19.5371 31.9046 19.4051V19.3941C31.9156 19.2401 31.7946 19.0971 31.6406 19.0971C30.7606 19.0861 28.1096 19.2621 26.2616 21.6381C26.1626 21.7481 26.1846 21.9241 26.3056 22.0121Z" fill="black"/>
<path d="M23.268 10C20.43 10 17.669 10.781 15.271 12.266C15.139 12.343 15.106 12.519 15.183 12.651C15.26 12.783 15.436 12.816 15.557 12.739C17.878 11.298 20.529 10.55 23.268 10.55C31.419 10.55 38.052 17.216 37.986 25.389C37.953 29.954 35.819 34.035 32.497 36.719V26.698L34.191 26.929C34.345 26.951 34.477 26.841 34.499 26.698V26.687C34.521 26.544 34.411 26.401 34.268 26.379L32.497 26.137L31.947 26.06L28.075 25.532L27.525 25.455L26.953 25.378C26.59 25.334 26.37 25.213 26.249 24.993C26.183 24.883 26.062 24.817 25.941 24.85H25.93C25.765 24.894 25.677 25.081 25.754 25.235C26.051 25.807 26.667 25.895 26.887 25.917L27.536 26.005V39.348C26.216 39.744 24.83 39.964 23.389 39.975C21.871 39.986 20.397 39.766 19.011 39.348V26.016L19.66 25.928C19.88 25.895 20.485 25.818 20.793 25.246C20.87 25.092 20.782 24.905 20.617 24.861H20.606C20.485 24.828 20.364 24.894 20.298 25.004C20.177 25.224 19.957 25.345 19.594 25.389L19.022 25.466L18.472 25.543L14.578 26.06L14.028 26.137L12.268 26.379C12.125 26.401 12.015 26.533 12.037 26.687V26.698C12.059 26.852 12.191 26.951 12.345 26.929L14.039 26.698V36.73C10.684 34.024 8.55 29.888 8.55 25.268C8.55 21.825 9.76 18.492 11.949 15.852C12.048 15.731 12.037 15.566 11.916 15.467C11.795 15.368 11.619 15.379 11.531 15.5C9.243 18.239 8 21.693 8 25.268C8 30.218 10.365 34.629 14.039 37.423C14.215 37.566 14.402 37.698 14.589 37.819C15.777 38.644 17.075 39.293 18.461 39.755C18.637 39.821 18.824 39.876 19.011 39.931C20.397 40.338 21.871 40.547 23.389 40.536C24.819 40.525 26.216 40.316 27.525 39.931C27.712 39.876 27.899 39.821 28.075 39.755C29.461 39.293 30.77 38.633 31.947 37.808V37.819C32.134 37.687 32.321 37.555 32.497 37.423V37.412C36.127 34.64 38.492 30.284 38.536 25.389C38.602 16.908 31.727 10 23.268 10ZM18.461 39.183C17.053 38.699 15.755 38.006 14.578 37.148V26.621L18.45 26.093V39.183H18.461ZM31.958 37.137C30.781 37.995 29.483 38.699 28.086 39.183V26.093L31.958 26.621V37.137Z" fill="black"/>
</svg>
