<svg width="186" height="180" viewBox="0 0 186 180" fill="none" xmlns="http://www.w3.org/2000/svg">
<circle cx="95.4688" cy="90.5" r="70.5" fill="#EED9FF"/>
<circle cx="178.434" cy="27.5" r="7.5" fill="#EED9FF"/>
<circle cx="20" cy="10" r="10" fill="#EED9FF"/>
<circle cx="10" cy="133" r="5" fill="#EED9FF"/>
<circle cx="165.5" cy="160.5" r="2.5" fill="#EED9FF"/>
<circle cx="106.5" cy="4.5" r="2.5" fill="#EED9FF"/>
<circle cx="62.5" cy="176.5" r="3.5" fill="#EED9FF"/>
<circle cx="122" cy="171" r="1" fill="#EED9FF"/>
<circle cx="170.5" cy="110.5" r="2.5" fill="#EED9FF"/>
<circle cx="1" cy="75" r="1" fill="#EED9FF"/>
<path d="M130.416 77.8354V124.469C130.416 126.839 128.495 128.76 126.125 128.76H63.1931C60.8234 128.76 58.9023 126.839 58.9023 124.469V77.8354H130.416Z" fill="white"/>
<path opacity="0.4" d="M130.416 77.8337V124.468C130.416 126.838 128.495 128.758 126.126 128.758H63.1923C60.8225 128.758 58.9023 126.838 58.9023 124.468V91.5268C63.543 105.669 76.855 115.888 92.5522 115.888C112.12 115.888 127.977 100.031 127.977 80.4777C127.977 79.5862 127.947 78.7099 127.878 77.8335H130.416V77.8337Z" fill="white"/>
<path d="M130.416 77.8359V66.3005C130.416 63.9309 128.495 62.0098 126.125 62.0098H63.1931C60.8234 62.0098 58.9023 63.9309 58.9023 66.3005V77.8359H130.416Z" fill="#000F8F"/>
<path d="M130.416 77.8359V66.3005C130.416 63.9309 128.495 62.0098 126.125 62.0098H63.1931C60.8234 62.0098 58.9023 63.9309 58.9023 66.3005V77.8359H130.416Z" fill="black" fill-opacity="0.2"/>
<path d="M130.416 77.8359V66.3005C130.416 63.9309 128.495 62.0098 126.125 62.0098H63.1931C60.8234 62.0098 58.9023 63.9309 58.9023 66.3005V77.8359H130.416Z" fill="black" fill-opacity="0.2"/>
<path d="M130.416 77.8359V66.3005C130.416 63.9309 128.495 62.0098 126.125 62.0098H63.1931C60.8234 62.0098 58.9023 63.9309 58.9023 66.3005V77.8359H130.416Z" fill="black" fill-opacity="0.2"/>
<path d="M130.416 77.8359V66.3005C130.416 63.9309 128.495 62.0098 126.125 62.0098H63.1931C60.8234 62.0098 58.9023 63.9309 58.9023 66.3005V77.8359H130.416Z" fill="black" fill-opacity="0.2"/>
<path d="M130.416 77.8359V66.3005C130.416 63.9309 128.495 62.0098 126.125 62.0098H63.1931C60.8234 62.0098 58.9023 63.9309 58.9023 66.3005V77.8359H130.416Z" fill="black" fill-opacity="0.2"/>
<path opacity="0.4" d="M130.416 66.2972V77.8339H58.9023V66.2972C58.9023 64.7656 59.7025 63.4245 60.9141 62.6625C68.5264 69.8176 78.783 74.1992 90.0528 74.1992C101.666 74.1992 112.196 69.5509 119.877 62.0073H126.126C128.495 62.0072 130.416 63.9273 130.416 66.2972Z" fill="white"/>
<path d="M74.9392 86.9233V91.0496C74.9392 92.2344 73.9787 93.195 72.7937 93.195H66.3291C65.1442 93.195 64.1836 92.2346 64.1836 91.0496V86.9233C64.1836 85.7385 65.1441 84.7778 66.3291 84.7778H72.7939C73.9788 84.7778 74.9392 85.7385 74.9392 86.9233Z" fill="#65CEF8"/>
<path d="M91.6698 86.9233V91.0496C91.6698 92.2344 90.7094 93.195 89.5244 93.195H83.0595C81.8747 93.195 80.9141 92.2346 80.9141 91.0496V86.9233C80.9141 85.7385 81.8745 84.7778 83.0595 84.7778H89.5244C90.7094 84.7778 91.6698 85.7385 91.6698 86.9233Z" fill="#65CEF8"/>
<path d="M108.404 86.9233V91.0496C108.404 92.2344 107.444 93.195 106.259 93.195H99.7939C98.6091 93.195 97.6484 92.2346 97.6484 91.0496V86.9233C97.6484 85.7385 98.6089 84.7778 99.7939 84.7778H106.259C107.444 84.7778 108.404 85.7385 108.404 86.9233Z" fill="#65CEF8"/>
<path d="M125.135 86.9233V91.0496C125.135 92.2344 124.174 93.195 122.989 93.195H116.524C115.34 93.195 114.379 92.2346 114.379 91.0496V86.9233C114.379 85.7385 115.339 84.7778 116.524 84.7778H122.989C124.174 84.7778 125.135 85.7385 125.135 86.9233Z" fill="#65CEF8"/>
<path d="M74.9392 101.235V105.361C74.9392 106.546 73.9787 107.507 72.7937 107.507H66.3291C65.1442 107.507 64.1836 106.546 64.1836 105.361V101.235C64.1836 100.05 65.1441 99.0894 66.3291 99.0894H72.7939C73.9788 99.0894 74.9392 100.05 74.9392 101.235Z" fill="#65CEF8"/>
<path d="M91.6698 101.235V105.361C91.6698 106.546 90.7094 107.507 89.5244 107.507H83.0595C81.8747 107.507 80.9141 106.546 80.9141 105.361V101.235C80.9141 100.05 81.8745 99.0894 83.0595 99.0894H89.5244C90.7094 99.0894 91.6698 100.05 91.6698 101.235Z" fill="#65CEF8"/>
<path d="M108.404 101.235V105.361C108.404 106.546 107.444 107.507 106.259 107.507H99.7939C98.6091 107.507 97.6484 106.546 97.6484 105.361V101.235C97.6484 100.05 98.6089 99.0894 99.7939 99.0894H106.259C107.444 99.0894 108.404 100.05 108.404 101.235Z" fill="#65CEF8"/>
<path d="M125.135 101.235V105.361C125.135 106.546 124.174 107.507 122.989 107.507H116.524C115.34 107.507 114.379 106.546 114.379 105.361V101.235C114.379 100.05 115.339 99.0894 116.524 99.0894H122.989C124.174 99.0894 125.135 100.05 125.135 101.235Z" fill="#65CEF8"/>
<path d="M74.9392 115.546V119.673C74.9392 120.858 73.9787 121.818 72.7937 121.818H66.3291C65.1442 121.818 64.1836 120.858 64.1836 119.673V115.546C64.1836 114.362 65.1441 113.401 66.3291 113.401H72.7939C73.9788 113.401 74.9392 114.362 74.9392 115.546Z" fill="#65CEF8"/>
<path d="M91.6698 115.546V119.673C91.6698 120.858 90.7094 121.818 89.5244 121.818H83.0595C81.8747 121.818 80.9141 120.858 80.9141 119.673V115.546C80.9141 114.362 81.8745 113.401 83.0595 113.401H89.5244C90.7094 113.401 91.6698 114.362 91.6698 115.546Z" fill="#65CEF8"/>
<path d="M108.404 115.546V119.673C108.404 120.858 107.444 121.818 106.259 121.818H99.7939C98.6091 121.818 97.6484 120.858 97.6484 119.673V115.546C97.6484 114.362 98.6089 113.401 99.7939 113.401H106.259C107.444 113.401 108.404 114.362 108.404 115.546Z" fill="#65CEF8"/>
<path d="M135.1 119.665C135.1 124.689 131.029 128.76 126.005 128.76C120.985 128.76 116.914 124.689 116.914 119.665C116.914 114.641 120.985 110.57 126.005 110.57C131.029 110.57 135.1 114.641 135.1 119.665Z" fill="#C986FF"/>
<path opacity="0.4" d="M135.099 119.667C135.099 124.689 131.03 128.758 126.001 128.758C122.427 128.758 119.334 126.693 117.848 123.691C119.059 124.277 120.416 124.613 121.856 124.613C126.877 124.613 130.954 120.544 130.954 115.514C130.954 114.074 130.619 112.718 130.017 111.506C133.027 112.985 135.099 116.079 135.099 119.667Z" fill="white"/>
<path d="M76.8617 57.6789V66.3403C76.8617 68.7906 74.8753 70.777 72.425 70.777C69.9747 70.777 67.9883 68.7906 67.9883 66.3403V57.6789C67.9883 55.2286 69.9747 53.2422 72.425 53.2422C74.8753 53.2422 76.8617 55.2286 76.8617 57.6789Z" fill="#333C54"/>
<path d="M121.327 57.6789V66.3403C121.327 68.7906 119.34 70.777 116.89 70.777C114.44 70.777 112.453 68.7906 112.453 66.3403V57.6789C112.453 55.2286 114.44 53.2422 116.89 53.2422C119.34 53.2422 121.327 55.2286 121.327 57.6789Z" fill="#333C54"/>
<path opacity="0.4" d="M121.325 57.679V66.343C121.325 68.7889 119.344 70.7778 116.891 70.7778C115.671 70.7778 114.559 70.2825 113.759 69.4748C113.294 69.0176 112.936 68.4537 112.715 67.8289C116.487 65.9239 119.062 62.0073 119.062 57.4962C119.062 56.0942 118.811 54.7454 118.361 53.5034C118.994 53.7169 119.565 54.075 120.03 54.5397C120.83 55.3398 121.325 56.4523 121.325 57.679Z" fill="white"/>
<path opacity="0.4" d="M76.7317 57.679V66.343C76.7317 68.7889 74.7505 70.7778 72.2969 70.7778C71.0777 70.7778 69.9652 70.2825 69.165 69.4748C68.7002 69.0176 68.342 68.4537 68.1211 67.8289C71.893 65.9239 74.4686 62.0073 74.4686 57.4962C74.4686 56.0942 74.2172 54.7454 73.7675 53.5034C74.4 53.7169 74.9714 54.075 75.4363 54.5397C76.2364 55.3398 76.7317 56.4523 76.7317 57.679Z" fill="white"/>
<path d="M75.8908 86.923C75.8908 85.2149 74.5011 83.8252 72.793 83.8252H66.3283C64.6202 83.8252 63.2305 85.2149 63.2305 86.923V91.0493C63.2305 92.7574 64.6202 94.1471 66.3283 94.1471H72.793C74.5011 94.1471 75.8908 92.7574 75.8908 91.0493V86.923ZM73.9859 91.0493C73.9859 91.7071 73.4509 92.2421 72.7931 92.2421H66.3283C65.6705 92.2421 65.1355 91.7071 65.1355 91.0493V86.923C65.1355 86.2652 65.6705 85.7302 66.3283 85.7302H72.793C73.4508 85.7302 73.9858 86.2652 73.9858 86.923L73.9859 91.0493Z" fill="black"/>
<path d="M92.6213 86.923C92.6213 85.2149 91.2316 83.8252 89.5234 83.8252H83.0587C81.3506 83.8252 79.9609 85.2149 79.9609 86.923V91.0493C79.9609 92.7574 81.3506 94.1471 83.0587 94.1471H89.5234C91.2316 94.1471 92.6213 92.7574 92.6213 91.0493V86.923ZM90.7162 91.0493C90.7162 91.7071 90.1812 92.2421 89.5234 92.2421H83.0587C82.4009 92.2421 81.8659 91.7071 81.8659 91.0493V86.923C81.8659 86.2652 82.4009 85.7302 83.0587 85.7302H89.5234C90.1812 85.7302 90.7162 86.2652 90.7162 86.923V91.0493Z" fill="black"/>
<path d="M109.356 86.923C109.356 85.2149 107.966 83.8252 106.258 83.8252H99.7931C98.085 83.8252 96.6953 85.2149 96.6953 86.923V91.0493C96.6953 92.7574 98.085 94.1471 99.7931 94.1471H106.258C107.966 94.1471 109.356 92.7574 109.356 91.0493V86.923ZM107.451 91.0493C107.451 91.7071 106.916 92.2421 106.258 92.2421H99.7931C99.1353 92.2421 98.6003 91.7071 98.6003 91.0493V86.923C98.6003 86.2652 99.1353 85.7302 99.7931 85.7302H106.258C106.916 85.7302 107.451 86.2652 107.451 86.923V91.0493Z" fill="black"/>
<path d="M126.087 86.923C126.087 85.2149 124.697 83.8252 122.989 83.8252H116.524C114.815 83.8252 113.426 85.2149 113.426 86.923V91.0493C113.426 92.7574 114.815 94.1471 116.524 94.1471H122.989C124.697 94.1471 126.087 92.7574 126.087 91.0493V86.923ZM124.182 91.0493C124.182 91.7071 123.647 92.2421 122.989 92.2421H116.524C115.866 92.2421 115.331 91.7071 115.331 91.0493V86.923C115.331 86.2652 115.866 85.7302 116.524 85.7302H122.989C123.647 85.7302 124.182 86.2652 124.182 86.923V91.0493Z" fill="black"/>
<path d="M75.8908 101.235C75.8908 99.5269 74.5011 98.1372 72.793 98.1372H66.3283C64.6202 98.1372 63.2305 99.5269 63.2305 101.235V105.361C63.2305 107.069 64.6202 108.459 66.3283 108.459H72.793C74.5011 108.459 75.8908 107.069 75.8908 105.361V101.235ZM73.9859 105.361C73.9859 106.019 73.4509 106.554 72.7931 106.554H66.3283C65.6705 106.554 65.1355 106.019 65.1355 105.361V101.235C65.1355 100.577 65.6705 100.042 66.3283 100.042H72.793C73.4508 100.042 73.9858 100.577 73.9858 101.235L73.9859 105.361Z" fill="black"/>
<path d="M92.6213 101.235C92.6213 99.5269 91.2316 98.1372 89.5234 98.1372H83.0587C81.3506 98.1372 79.9609 99.5269 79.9609 101.235V105.361C79.9609 107.069 81.3506 108.459 83.0587 108.459H89.5234C91.2316 108.459 92.6213 107.069 92.6213 105.361V101.235ZM90.7162 105.361C90.7162 106.019 90.1812 106.554 89.5234 106.554H83.0587C82.4009 106.554 81.8659 106.019 81.8659 105.361V101.235C81.8659 100.577 82.4009 100.042 83.0587 100.042H89.5234C90.1812 100.042 90.7162 100.577 90.7162 101.235V105.361Z" fill="black"/>
<path d="M109.356 101.235C109.356 99.5269 107.966 98.1372 106.258 98.1372H99.7931C98.085 98.1372 96.6953 99.5269 96.6953 101.235V105.361C96.6953 107.069 98.085 108.459 99.7931 108.459H106.258C107.966 108.459 109.356 107.069 109.356 105.361V101.235ZM107.451 105.361C107.451 106.019 106.916 106.554 106.258 106.554H99.7931C99.1353 106.554 98.6003 106.019 98.6003 105.361V101.235C98.6003 100.577 99.1353 100.042 99.7931 100.042H106.258C106.916 100.042 107.451 100.577 107.451 101.235V105.361Z" fill="black"/>
<path d="M122.989 98.1372H116.524C114.815 98.1372 113.426 99.5269 113.426 101.235V105.361C113.426 107.069 114.815 108.459 116.524 108.459H122.989C124.697 108.459 126.087 107.069 126.087 105.361V101.235C126.087 99.5269 124.697 98.1372 122.989 98.1372ZM124.182 105.361C124.182 106.019 123.647 106.554 122.989 106.554H116.524C115.866 106.554 115.331 106.019 115.331 105.361V101.235C115.331 100.577 115.866 100.042 116.524 100.042H122.989C123.647 100.042 124.182 100.577 124.182 101.235V105.361Z" fill="black"/>
<path d="M72.793 112.449H66.3283C64.6202 112.449 63.2305 113.838 63.2305 115.547V119.673C63.2305 121.381 64.6202 122.771 66.3283 122.771H72.793C74.5011 122.771 75.8908 121.381 75.8908 119.673V115.547C75.8908 113.838 74.5012 112.449 72.793 112.449ZM73.9859 119.673C73.9859 120.331 73.4509 120.866 72.7931 120.866H66.3283C65.6705 120.866 65.1355 120.331 65.1355 119.673V115.547C65.1355 114.889 65.6705 114.354 66.3283 114.354H72.793C73.4508 114.354 73.9858 114.889 73.9858 115.547L73.9859 119.673Z" fill="black"/>
<path d="M89.5234 112.449H83.0587C81.3506 112.449 79.9609 113.838 79.9609 115.547V119.673C79.9609 121.381 81.3506 122.771 83.0587 122.771H89.5234C91.2316 122.771 92.6213 121.381 92.6213 119.673V115.547C92.6213 113.838 91.2316 112.449 89.5234 112.449ZM90.7162 119.673C90.7162 120.331 90.1812 120.866 89.5234 120.866H83.0587C82.4009 120.866 81.8659 120.331 81.8659 119.673V115.547C81.8659 114.889 82.4009 114.354 83.0587 114.354H89.5234C90.1812 114.354 90.7162 114.889 90.7162 115.547V119.673Z" fill="black"/>
<path d="M106.258 112.449H99.7931C98.085 112.449 96.6953 113.838 96.6953 115.547V119.673C96.6953 121.381 98.085 122.771 99.7931 122.771H106.258C107.966 122.771 109.356 121.381 109.356 119.673V115.547C109.356 113.838 107.966 112.449 106.258 112.449ZM107.451 119.673C107.451 120.331 106.916 120.866 106.258 120.866H99.7933C99.1355 120.866 98.6005 120.331 98.6005 119.673V115.547C98.6005 114.889 99.1355 114.354 99.7933 114.354H106.258C106.916 114.354 107.451 114.889 107.451 115.547V119.673Z" fill="black"/>
<path d="M136.054 119.665C136.054 116.096 134.178 112.965 131.367 111.182V97.4553C131.367 96.9292 130.941 96.5028 130.415 96.5028C129.889 96.5028 129.462 96.9292 129.462 97.4553V110.243C128.383 109.845 127.222 109.617 126.006 109.617C120.468 109.617 115.963 114.124 115.963 119.665C115.963 123.015 117.616 125.979 120.142 127.805H63.1916C61.3513 127.805 59.8541 126.308 59.8541 124.468V78.788H129.462V88.9283C129.462 89.4544 129.889 89.8808 130.415 89.8808C130.941 89.8808 131.367 89.4544 131.367 88.9283C131.367 81.1091 131.367 74.7225 131.367 66.2999C131.367 63.4089 129.015 61.0567 126.124 61.0567H122.28V57.6786C122.28 54.7072 119.862 52.2896 116.891 52.2896C113.919 52.2896 111.502 54.7072 111.502 57.6786V61.0571H77.8145V57.6786C77.8145 54.7072 75.3969 52.2896 72.4252 52.2896C69.4534 52.2896 67.0358 54.7072 67.0358 57.6786V61.0571H63.1923C60.3014 61.0571 57.9492 63.4092 57.9492 66.3002V124.468C57.9492 127.358 60.3011 129.71 63.1917 129.71C79.2186 129.708 125.74 129.717 126.298 129.698C131.703 129.542 136.054 125.107 136.054 119.665ZM113.407 57.6786C113.407 55.7577 114.97 54.1946 116.891 54.1946C118.812 54.1946 120.375 55.7577 120.375 57.6786V66.3403C120.375 68.2613 118.812 69.8244 116.891 69.8244C114.97 69.8244 113.407 68.2613 113.407 66.3403V57.6786ZM68.9408 57.6786C68.9408 55.7577 70.5039 54.1946 72.4252 54.1946C74.3464 54.1946 75.9095 55.7577 75.9095 57.6786V66.3403C75.9095 68.2613 74.3464 69.8244 72.4252 69.8244C70.5039 69.8244 68.9408 68.2613 68.9408 66.3403V57.6786ZM63.1923 62.9621H67.0358V66.3405C67.0358 69.3119 69.4534 71.7296 72.4252 71.7296C75.3969 71.7296 77.8145 69.3119 77.8145 66.3405V62.9621H111.502V66.3405C111.502 69.3119 113.919 71.7296 116.891 71.7296C119.863 71.7296 122.28 69.3119 122.28 66.3405V62.9621H126.124C127.965 62.9621 129.462 64.4596 129.462 66.3002V76.8814H59.8541V66.3002C59.8541 64.4596 61.3517 62.9621 63.1923 62.9621ZM126.006 127.808C121.519 127.808 117.868 124.155 117.868 119.665C117.868 115.175 121.519 111.522 126.006 111.522C130.496 111.522 134.149 115.175 134.149 119.665C134.149 124.155 130.496 127.808 126.006 127.808Z" fill="black"/>
<path d="M129.386 116.085L124.246 121.225L122.63 119.609C122.258 119.237 121.655 119.237 121.283 119.609C120.911 119.981 120.911 120.583 121.283 120.955L123.573 123.245C123.759 123.431 124.002 123.524 124.246 123.524C124.49 123.524 124.733 123.431 124.919 123.245L130.733 117.432C131.105 117.06 131.105 116.457 130.733 116.085C130.361 115.713 129.758 115.713 129.386 116.085Z" fill="black"/>
</svg>
