<svg width="186" height="180" viewBox="0 0 186 180" fill="none" xmlns="http://www.w3.org/2000/svg">
<circle cx="95.4688" cy="90.5" r="70.5" fill="url(#paint0_linear_902_91308)"/>
<circle cx="178.434" cy="27.5" r="7.5" fill="#86DFFF"/>
<circle cx="20" cy="10" r="10" fill="#86DFFF"/>
<circle cx="10" cy="133" r="5" fill="#86DFFF"/>
<circle cx="165.5" cy="160.5" r="2.5" fill="#86DFFF"/>
<circle cx="106.5" cy="4.5" r="2.5" fill="#86DFFF"/>
<circle cx="62.5" cy="176.5" r="3.5" fill="#86DFFF"/>
<circle cx="122" cy="171" r="1" fill="#86DFFF"/>
<circle cx="170.5" cy="110.5" r="2.5" fill="#86DFFF"/>
<circle cx="1" cy="75" r="1" fill="#86DFFF"/>
<path d="M95.0006 141.675C122.436 141.675 144.677 119.434 144.677 91.9987C144.677 64.5631 122.436 42.3223 95.0006 42.3223C67.5651 42.3223 45.3242 64.5631 45.3242 91.9987C45.3242 119.434 67.5651 141.675 95.0006 141.675Z" fill="#3CCBFF"/>
<path d="M99.8077 96.8038C97.1539 99.4576 92.8513 99.4576 90.1974 96.8038C87.5436 94.15 87.5436 89.8473 90.1974 87.1935C92.8513 84.5397 97.1539 84.5397 99.8077 87.1935C102.462 89.8473 102.462 94.15 99.8077 96.8038Z" fill="#21C4FF"/>
<path d="M95.0002 46.8921C93.8767 46.8921 92.7632 46.9346 91.6602 47.0154C115.012 48.7248 133.427 68.2108 133.427 91.9991C133.427 115.788 115.012 135.273 91.6604 136.983C92.7632 137.063 93.8767 137.106 95.0002 137.106C119.912 137.106 140.107 116.911 140.107 91.9991C140.107 67.0872 119.912 46.8923 95.0002 46.8921Z" fill="#21C4FF"/>
<path d="M95.0006 42.3223C67.5651 42.3223 45.324 64.5632 45.3242 91.9987L95.0008 91.9984L119.602 135.156L119.614 135.157C134.586 126.6 144.677 110.478 144.677 91.9987C144.677 64.5632 122.436 42.3223 95.0006 42.3223Z" fill="#CB8AFF"/>
<path d="M95.0002 46.8921C93.8767 46.8921 92.7632 46.9346 91.6602 47.0154C115.012 48.7248 133.427 68.2108 133.427 91.9991C133.427 106.697 126.397 119.752 115.515 127.988L117.339 131.187L117.35 131.188C130.944 123.418 140.107 108.779 140.107 91.9993C140.107 67.0872 119.912 46.8923 95.0002 46.8921Z" fill="#8A00FA"/>
<path d="M90.1974 87.1935C88.8703 88.5203 88.2068 90.2595 88.207 91.9986H95.0025L98.3677 97.9024C98.8827 97.6085 99.3681 97.2433 99.8076 96.8038C102.461 94.15 102.461 89.8473 99.8076 87.1935C97.1538 84.5397 92.8512 84.5397 90.1974 87.1935Z" fill="#8A00FA"/>
<path d="M134.126 52.8742C112.518 31.2665 77.4853 31.2665 55.8776 52.8742C34.27 74.4819 34.27 109.515 55.8776 131.123C77.4853 152.73 112.518 152.73 134.126 131.123C155.734 109.515 155.734 74.4819 134.126 52.8742ZM95.0014 137.106C70.0896 137.106 49.8946 116.911 49.8946 91.9987C49.8946 67.0868 70.0896 46.8919 95.0014 46.8919C119.913 46.8921 140.108 67.087 140.108 91.9987C140.108 116.911 119.913 137.106 95.0014 137.106Z" fill="#EFEDEF"/>
<path d="M134.124 52.8743C122.471 41.2205 106.912 35.856 91.6602 36.7727C104.687 37.5558 117.491 42.9202 127.445 52.8743C149.052 74.482 149.052 109.515 127.445 131.123C117.491 141.077 104.687 146.441 91.6602 147.224C106.912 148.141 122.471 142.777 134.124 131.123C155.732 109.515 155.732 74.482 134.124 52.8743Z" fill="#CACACA"/>
<path d="M98.6347 95.6303C96.629 97.636 93.3771 97.636 91.3715 95.6303C89.3658 93.6246 89.3658 90.3727 91.3715 88.3671C93.3771 86.3614 96.629 86.3614 98.6347 88.3671C100.64 90.3725 100.64 93.6244 98.6347 95.6303Z" fill="#EFEDEF"/>
<path d="M98.6337 88.3668C97.4318 87.1649 95.7833 86.6888 94.2227 86.9273C95.2665 87.0867 96.2711 87.5628 97.0751 88.3668C99.0808 90.3725 99.0808 93.6244 97.0751 95.6301C96.2713 96.4341 95.2665 96.9099 94.2227 97.0695C95.7833 97.308 97.4318 96.832 98.6337 95.6301C100.639 93.6244 100.639 90.3725 98.6337 88.3668Z" fill="white"/>
<path d="M135.305 51.692C130.617 47.0035 125.225 43.2076 119.279 40.4095C113.533 37.7056 107.404 35.9927 101.061 35.3183C88.3553 33.9667 75.4365 36.9486 64.6836 43.7135C63.9029 44.2047 63.6683 45.2356 64.1594 46.0162C64.6504 46.7969 65.6815 47.0313 66.4621 46.5404C76.5832 40.1731 88.7456 37.3678 100.708 38.6394C112.847 39.9301 124.295 45.4044 132.944 54.0537C143.079 64.1885 148.66 77.6639 148.66 91.997C148.66 106.33 143.079 119.805 132.944 129.94C122.808 140.076 109.333 145.657 95 145.657C80.667 145.657 67.1916 140.076 57.0565 129.94C46.9214 119.805 41.3398 106.33 41.3398 91.997C41.3398 77.6637 46.9214 64.1888 57.0565 54.0537C58.2334 52.8767 59.4754 51.7436 60.7479 50.686C61.4573 50.0966 61.5544 49.0437 60.9648 48.3343C60.3754 47.6251 59.3225 47.5278 58.6131 48.1177C57.2622 49.2405 55.9439 50.4431 54.695 51.6922C43.9291 62.4578 38 76.7717 38 91.997C38 107.222 43.9291 121.536 54.695 132.302C65.4606 143.068 79.7748 148.997 95 148.997C110.225 148.997 124.539 143.068 135.305 132.302C146.071 121.536 152 107.222 152 91.997C152 76.7715 146.071 62.4578 135.305 51.692Z" fill="#000F8F"/>
<path d="M135.305 51.692C130.617 47.0035 125.225 43.2076 119.279 40.4095C113.533 37.7056 107.404 35.9927 101.061 35.3183C88.3553 33.9667 75.4365 36.9486 64.6836 43.7135C63.9029 44.2047 63.6683 45.2356 64.1594 46.0162C64.6504 46.7969 65.6815 47.0313 66.4621 46.5404C76.5832 40.1731 88.7456 37.3678 100.708 38.6394C112.847 39.9301 124.295 45.4044 132.944 54.0537C143.079 64.1885 148.66 77.6639 148.66 91.997C148.66 106.33 143.079 119.805 132.944 129.94C122.808 140.076 109.333 145.657 95 145.657C80.667 145.657 67.1916 140.076 57.0565 129.94C46.9214 119.805 41.3398 106.33 41.3398 91.997C41.3398 77.6637 46.9214 64.1888 57.0565 54.0537C58.2334 52.8767 59.4754 51.7436 60.7479 50.686C61.4573 50.0966 61.5544 49.0437 60.9648 48.3343C60.3754 47.6251 59.3225 47.5278 58.6131 48.1177C57.2622 49.2405 55.9439 50.4431 54.695 51.6922C43.9291 62.4578 38 76.7717 38 91.997C38 107.222 43.9291 121.536 54.695 132.302C65.4606 143.068 79.7748 148.997 95 148.997C110.225 148.997 124.539 143.068 135.305 132.302C146.071 121.536 152 107.222 152 91.997C152 76.7715 146.071 62.4578 135.305 51.692Z" fill="black" fill-opacity="0.2"/>
<path d="M135.305 51.692C130.617 47.0035 125.225 43.2076 119.279 40.4095C113.533 37.7056 107.404 35.9927 101.061 35.3183C88.3553 33.9667 75.4365 36.9486 64.6836 43.7135C63.9029 44.2047 63.6683 45.2356 64.1594 46.0162C64.6504 46.7969 65.6815 47.0313 66.4621 46.5404C76.5832 40.1731 88.7456 37.3678 100.708 38.6394C112.847 39.9301 124.295 45.4044 132.944 54.0537C143.079 64.1885 148.66 77.6639 148.66 91.997C148.66 106.33 143.079 119.805 132.944 129.94C122.808 140.076 109.333 145.657 95 145.657C80.667 145.657 67.1916 140.076 57.0565 129.94C46.9214 119.805 41.3398 106.33 41.3398 91.997C41.3398 77.6637 46.9214 64.1888 57.0565 54.0537C58.2334 52.8767 59.4754 51.7436 60.7479 50.686C61.4573 50.0966 61.5544 49.0437 60.9648 48.3343C60.3754 47.6251 59.3225 47.5278 58.6131 48.1177C57.2622 49.2405 55.9439 50.4431 54.695 51.6922C43.9291 62.4578 38 76.7717 38 91.997C38 107.222 43.9291 121.536 54.695 132.302C65.4606 143.068 79.7748 148.997 95 148.997C110.225 148.997 124.539 143.068 135.305 132.302C146.071 121.536 152 107.222 152 91.997C152 76.7715 146.071 62.4578 135.305 51.692Z" fill="black" fill-opacity="0.2"/>
<path d="M135.305 51.692C130.617 47.0035 125.225 43.2076 119.279 40.4095C113.533 37.7056 107.404 35.9927 101.061 35.3183C88.3553 33.9667 75.4365 36.9486 64.6836 43.7135C63.9029 44.2047 63.6683 45.2356 64.1594 46.0162C64.6504 46.7969 65.6815 47.0313 66.4621 46.5404C76.5832 40.1731 88.7456 37.3678 100.708 38.6394C112.847 39.9301 124.295 45.4044 132.944 54.0537C143.079 64.1885 148.66 77.6639 148.66 91.997C148.66 106.33 143.079 119.805 132.944 129.94C122.808 140.076 109.333 145.657 95 145.657C80.667 145.657 67.1916 140.076 57.0565 129.94C46.9214 119.805 41.3398 106.33 41.3398 91.997C41.3398 77.6637 46.9214 64.1888 57.0565 54.0537C58.2334 52.8767 59.4754 51.7436 60.7479 50.686C61.4573 50.0966 61.5544 49.0437 60.9648 48.3343C60.3754 47.6251 59.3225 47.5278 58.6131 48.1177C57.2622 49.2405 55.9439 50.4431 54.695 51.6922C43.9291 62.4578 38 76.7717 38 91.997C38 107.222 43.9291 121.536 54.695 132.302C65.4606 143.068 79.7748 148.997 95 148.997C110.225 148.997 124.539 143.068 135.305 132.302C146.071 121.536 152 107.222 152 91.997C152 76.7715 146.071 62.4578 135.305 51.692Z" fill="black" fill-opacity="0.2"/>
<path d="M135.305 51.692C130.617 47.0035 125.225 43.2076 119.279 40.4095C113.533 37.7056 107.404 35.9927 101.061 35.3183C88.3553 33.9667 75.4365 36.9486 64.6836 43.7135C63.9029 44.2047 63.6683 45.2356 64.1594 46.0162C64.6504 46.7969 65.6815 47.0313 66.4621 46.5404C76.5832 40.1731 88.7456 37.3678 100.708 38.6394C112.847 39.9301 124.295 45.4044 132.944 54.0537C143.079 64.1885 148.66 77.6639 148.66 91.997C148.66 106.33 143.079 119.805 132.944 129.94C122.808 140.076 109.333 145.657 95 145.657C80.667 145.657 67.1916 140.076 57.0565 129.94C46.9214 119.805 41.3398 106.33 41.3398 91.997C41.3398 77.6637 46.9214 64.1888 57.0565 54.0537C58.2334 52.8767 59.4754 51.7436 60.7479 50.686C61.4573 50.0966 61.5544 49.0437 60.9648 48.3343C60.3754 47.6251 59.3225 47.5278 58.6131 48.1177C57.2622 49.2405 55.9439 50.4431 54.695 51.6922C43.9291 62.4578 38 76.7717 38 91.997C38 107.222 43.9291 121.536 54.695 132.302C65.4606 143.068 79.7748 148.997 95 148.997C110.225 148.997 124.539 143.068 135.305 132.302C146.071 121.536 152 107.222 152 91.997C152 76.7715 146.071 62.4578 135.305 51.692Z" fill="black" fill-opacity="0.2"/>
<path d="M135.305 51.692C130.617 47.0035 125.225 43.2076 119.279 40.4095C113.533 37.7056 107.404 35.9927 101.061 35.3183C88.3553 33.9667 75.4365 36.9486 64.6836 43.7135C63.9029 44.2047 63.6683 45.2356 64.1594 46.0162C64.6504 46.7969 65.6815 47.0313 66.4621 46.5404C76.5832 40.1731 88.7456 37.3678 100.708 38.6394C112.847 39.9301 124.295 45.4044 132.944 54.0537C143.079 64.1885 148.66 77.6639 148.66 91.997C148.66 106.33 143.079 119.805 132.944 129.94C122.808 140.076 109.333 145.657 95 145.657C80.667 145.657 67.1916 140.076 57.0565 129.94C46.9214 119.805 41.3398 106.33 41.3398 91.997C41.3398 77.6637 46.9214 64.1888 57.0565 54.0537C58.2334 52.8767 59.4754 51.7436 60.7479 50.686C61.4573 50.0966 61.5544 49.0437 60.9648 48.3343C60.3754 47.6251 59.3225 47.5278 58.6131 48.1177C57.2622 49.2405 55.9439 50.4431 54.695 51.6922C43.9291 62.4578 38 76.7717 38 91.997C38 107.222 43.9291 121.536 54.695 132.302C65.4606 143.068 79.7748 148.997 95 148.997C110.225 148.997 124.539 143.068 135.305 132.302C146.071 121.536 152 107.222 152 91.997C152 76.7715 146.071 62.4578 135.305 51.692Z" fill="black" fill-opacity="0.2"/>
<path d="M59.139 61.9608C52.0995 70.3567 48.2227 81.024 48.2227 91.9974C48.2229 96.1626 48.7708 100.294 49.8514 104.277C50.0531 105.02 50.7269 105.51 51.4621 105.51C51.6068 105.51 51.754 105.491 51.9005 105.451C52.7907 105.209 53.3161 104.292 53.0748 103.402C52.216 100.237 51.7226 96.9695 51.5972 93.6671L88.3983 93.6668C88.6944 94.846 89.3043 95.9272 90.1865 96.8094C91.5133 98.1362 93.2562 98.7997 94.999 98.7997C95.6101 98.7997 96.2209 98.7162 96.814 98.5532L104.23 111.563C104.538 112.103 105.102 112.406 105.682 112.406C105.963 112.406 106.247 112.336 106.508 112.187C107.309 111.73 107.589 110.711 107.132 109.909L99.7161 96.9003C99.7478 96.8698 99.7803 96.8408 99.8114 96.8096C100.711 95.9103 101.304 94.8195 101.594 93.6675H115.514C116.437 93.6675 117.184 92.9198 117.184 91.9976C117.184 91.0753 116.437 90.3277 115.514 90.3277H101.594C101.305 89.1752 100.711 88.0842 99.8114 87.1846C98.9121 86.2853 97.8216 85.6917 96.6695 85.4021V62.0986C96.6695 61.1764 95.9219 60.4287 94.9996 60.4287C94.0774 60.4287 93.3297 61.1764 93.3297 62.0986V85.4016C92.1772 85.6913 91.0862 86.2849 90.1865 87.1846C89.3045 88.0666 88.6944 89.148 88.3983 90.3272L51.5968 90.3274C51.8453 83.8936 53.5228 77.614 56.4641 71.9534L60.196 74.0807C60.4569 74.2294 60.7411 74.3002 61.0216 74.3002C61.6018 74.3002 62.1661 73.9972 62.4738 73.457C62.9304 72.6557 62.6512 71.6359 61.8501 71.1792L58.1191 69.0524C59.1907 67.3288 60.3841 65.6747 61.6985 64.107C62.2912 63.4003 62.1986 62.3469 61.4919 61.7544C60.7847 61.1613 59.7315 61.2541 59.139 61.9608ZM92.5479 89.5461C93.2237 88.8704 94.1112 88.5326 94.9987 88.5326C95.8865 88.5326 96.774 88.8706 97.4497 89.5461C98.801 90.8974 98.801 93.0964 97.4497 94.4479C96.0984 95.7992 93.8995 95.7994 92.5479 94.4479C91.8933 93.7933 91.5326 92.9227 91.5326 91.9971C91.5326 91.0711 91.8931 90.2007 92.5479 89.5461Z" fill="#000F8F"/>
<path d="M59.139 61.9608C52.0995 70.3567 48.2227 81.024 48.2227 91.9974C48.2229 96.1626 48.7708 100.294 49.8514 104.277C50.0531 105.02 50.7269 105.51 51.4621 105.51C51.6068 105.51 51.754 105.491 51.9005 105.451C52.7907 105.209 53.3161 104.292 53.0748 103.402C52.216 100.237 51.7226 96.9695 51.5972 93.6671L88.3983 93.6668C88.6944 94.846 89.3043 95.9272 90.1865 96.8094C91.5133 98.1362 93.2562 98.7997 94.999 98.7997C95.6101 98.7997 96.2209 98.7162 96.814 98.5532L104.23 111.563C104.538 112.103 105.102 112.406 105.682 112.406C105.963 112.406 106.247 112.336 106.508 112.187C107.309 111.73 107.589 110.711 107.132 109.909L99.7161 96.9003C99.7478 96.8698 99.7803 96.8408 99.8114 96.8096C100.711 95.9103 101.304 94.8195 101.594 93.6675H115.514C116.437 93.6675 117.184 92.9198 117.184 91.9976C117.184 91.0753 116.437 90.3277 115.514 90.3277H101.594C101.305 89.1752 100.711 88.0842 99.8114 87.1846C98.9121 86.2853 97.8216 85.6917 96.6695 85.4021V62.0986C96.6695 61.1764 95.9219 60.4287 94.9996 60.4287C94.0774 60.4287 93.3297 61.1764 93.3297 62.0986V85.4016C92.1772 85.6913 91.0862 86.2849 90.1865 87.1846C89.3045 88.0666 88.6944 89.148 88.3983 90.3272L51.5968 90.3274C51.8453 83.8936 53.5228 77.614 56.4641 71.9534L60.196 74.0807C60.4569 74.2294 60.7411 74.3002 61.0216 74.3002C61.6018 74.3002 62.1661 73.9972 62.4738 73.457C62.9304 72.6557 62.6512 71.6359 61.8501 71.1792L58.1191 69.0524C59.1907 67.3288 60.3841 65.6747 61.6985 64.107C62.2912 63.4003 62.1986 62.3469 61.4919 61.7544C60.7847 61.1613 59.7315 61.2541 59.139 61.9608ZM92.5479 89.5461C93.2237 88.8704 94.1112 88.5326 94.9987 88.5326C95.8865 88.5326 96.774 88.8706 97.4497 89.5461C98.801 90.8974 98.801 93.0964 97.4497 94.4479C96.0984 95.7992 93.8995 95.7994 92.5479 94.4479C91.8933 93.7933 91.5326 92.9227 91.5326 91.9971C91.5326 91.0711 91.8931 90.2007 92.5479 89.5461Z" fill="black" fill-opacity="0.2"/>
<path d="M59.139 61.9608C52.0995 70.3567 48.2227 81.024 48.2227 91.9974C48.2229 96.1626 48.7708 100.294 49.8514 104.277C50.0531 105.02 50.7269 105.51 51.4621 105.51C51.6068 105.51 51.754 105.491 51.9005 105.451C52.7907 105.209 53.3161 104.292 53.0748 103.402C52.216 100.237 51.7226 96.9695 51.5972 93.6671L88.3983 93.6668C88.6944 94.846 89.3043 95.9272 90.1865 96.8094C91.5133 98.1362 93.2562 98.7997 94.999 98.7997C95.6101 98.7997 96.2209 98.7162 96.814 98.5532L104.23 111.563C104.538 112.103 105.102 112.406 105.682 112.406C105.963 112.406 106.247 112.336 106.508 112.187C107.309 111.73 107.589 110.711 107.132 109.909L99.7161 96.9003C99.7478 96.8698 99.7803 96.8408 99.8114 96.8096C100.711 95.9103 101.304 94.8195 101.594 93.6675H115.514C116.437 93.6675 117.184 92.9198 117.184 91.9976C117.184 91.0753 116.437 90.3277 115.514 90.3277H101.594C101.305 89.1752 100.711 88.0842 99.8114 87.1846C98.9121 86.2853 97.8216 85.6917 96.6695 85.4021V62.0986C96.6695 61.1764 95.9219 60.4287 94.9996 60.4287C94.0774 60.4287 93.3297 61.1764 93.3297 62.0986V85.4016C92.1772 85.6913 91.0862 86.2849 90.1865 87.1846C89.3045 88.0666 88.6944 89.148 88.3983 90.3272L51.5968 90.3274C51.8453 83.8936 53.5228 77.614 56.4641 71.9534L60.196 74.0807C60.4569 74.2294 60.7411 74.3002 61.0216 74.3002C61.6018 74.3002 62.1661 73.9972 62.4738 73.457C62.9304 72.6557 62.6512 71.6359 61.8501 71.1792L58.1191 69.0524C59.1907 67.3288 60.3841 65.6747 61.6985 64.107C62.2912 63.4003 62.1986 62.3469 61.4919 61.7544C60.7847 61.1613 59.7315 61.2541 59.139 61.9608ZM92.5479 89.5461C93.2237 88.8704 94.1112 88.5326 94.9987 88.5326C95.8865 88.5326 96.774 88.8706 97.4497 89.5461C98.801 90.8974 98.801 93.0964 97.4497 94.4479C96.0984 95.7992 93.8995 95.7994 92.5479 94.4479C91.8933 93.7933 91.5326 92.9227 91.5326 91.9971C91.5326 91.0711 91.8931 90.2007 92.5479 89.5461Z" fill="black" fill-opacity="0.2"/>
<path d="M59.139 61.9608C52.0995 70.3567 48.2227 81.024 48.2227 91.9974C48.2229 96.1626 48.7708 100.294 49.8514 104.277C50.0531 105.02 50.7269 105.51 51.4621 105.51C51.6068 105.51 51.754 105.491 51.9005 105.451C52.7907 105.209 53.3161 104.292 53.0748 103.402C52.216 100.237 51.7226 96.9695 51.5972 93.6671L88.3983 93.6668C88.6944 94.846 89.3043 95.9272 90.1865 96.8094C91.5133 98.1362 93.2562 98.7997 94.999 98.7997C95.6101 98.7997 96.2209 98.7162 96.814 98.5532L104.23 111.563C104.538 112.103 105.102 112.406 105.682 112.406C105.963 112.406 106.247 112.336 106.508 112.187C107.309 111.73 107.589 110.711 107.132 109.909L99.7161 96.9003C99.7478 96.8698 99.7803 96.8408 99.8114 96.8096C100.711 95.9103 101.304 94.8195 101.594 93.6675H115.514C116.437 93.6675 117.184 92.9198 117.184 91.9976C117.184 91.0753 116.437 90.3277 115.514 90.3277H101.594C101.305 89.1752 100.711 88.0842 99.8114 87.1846C98.9121 86.2853 97.8216 85.6917 96.6695 85.4021V62.0986C96.6695 61.1764 95.9219 60.4287 94.9996 60.4287C94.0774 60.4287 93.3297 61.1764 93.3297 62.0986V85.4016C92.1772 85.6913 91.0862 86.2849 90.1865 87.1846C89.3045 88.0666 88.6944 89.148 88.3983 90.3272L51.5968 90.3274C51.8453 83.8936 53.5228 77.614 56.4641 71.9534L60.196 74.0807C60.4569 74.2294 60.7411 74.3002 61.0216 74.3002C61.6018 74.3002 62.1661 73.9972 62.4738 73.457C62.9304 72.6557 62.6512 71.6359 61.8501 71.1792L58.1191 69.0524C59.1907 67.3288 60.3841 65.6747 61.6985 64.107C62.2912 63.4003 62.1986 62.3469 61.4919 61.7544C60.7847 61.1613 59.7315 61.2541 59.139 61.9608ZM92.5479 89.5461C93.2237 88.8704 94.1112 88.5326 94.9987 88.5326C95.8865 88.5326 96.774 88.8706 97.4497 89.5461C98.801 90.8974 98.801 93.0964 97.4497 94.4479C96.0984 95.7992 93.8995 95.7994 92.5479 94.4479C91.8933 93.7933 91.5326 92.9227 91.5326 91.9971C91.5326 91.0711 91.8931 90.2007 92.5479 89.5461Z" fill="black" fill-opacity="0.2"/>
<path d="M59.139 61.9608C52.0995 70.3567 48.2227 81.024 48.2227 91.9974C48.2229 96.1626 48.7708 100.294 49.8514 104.277C50.0531 105.02 50.7269 105.51 51.4621 105.51C51.6068 105.51 51.754 105.491 51.9005 105.451C52.7907 105.209 53.3161 104.292 53.0748 103.402C52.216 100.237 51.7226 96.9695 51.5972 93.6671L88.3983 93.6668C88.6944 94.846 89.3043 95.9272 90.1865 96.8094C91.5133 98.1362 93.2562 98.7997 94.999 98.7997C95.6101 98.7997 96.2209 98.7162 96.814 98.5532L104.23 111.563C104.538 112.103 105.102 112.406 105.682 112.406C105.963 112.406 106.247 112.336 106.508 112.187C107.309 111.73 107.589 110.711 107.132 109.909L99.7161 96.9003C99.7478 96.8698 99.7803 96.8408 99.8114 96.8096C100.711 95.9103 101.304 94.8195 101.594 93.6675H115.514C116.437 93.6675 117.184 92.9198 117.184 91.9976C117.184 91.0753 116.437 90.3277 115.514 90.3277H101.594C101.305 89.1752 100.711 88.0842 99.8114 87.1846C98.9121 86.2853 97.8216 85.6917 96.6695 85.4021V62.0986C96.6695 61.1764 95.9219 60.4287 94.9996 60.4287C94.0774 60.4287 93.3297 61.1764 93.3297 62.0986V85.4016C92.1772 85.6913 91.0862 86.2849 90.1865 87.1846C89.3045 88.0666 88.6944 89.148 88.3983 90.3272L51.5968 90.3274C51.8453 83.8936 53.5228 77.614 56.4641 71.9534L60.196 74.0807C60.4569 74.2294 60.7411 74.3002 61.0216 74.3002C61.6018 74.3002 62.1661 73.9972 62.4738 73.457C62.9304 72.6557 62.6512 71.6359 61.8501 71.1792L58.1191 69.0524C59.1907 67.3288 60.3841 65.6747 61.6985 64.107C62.2912 63.4003 62.1986 62.3469 61.4919 61.7544C60.7847 61.1613 59.7315 61.2541 59.139 61.9608ZM92.5479 89.5461C93.2237 88.8704 94.1112 88.5326 94.9987 88.5326C95.8865 88.5326 96.774 88.8706 97.4497 89.5461C98.801 90.8974 98.801 93.0964 97.4497 94.4479C96.0984 95.7992 93.8995 95.7994 92.5479 94.4479C91.8933 93.7933 91.5326 92.9227 91.5326 91.9971C91.5326 91.0711 91.8931 90.2007 92.5479 89.5461Z" fill="black" fill-opacity="0.2"/>
<path d="M59.139 61.9608C52.0995 70.3567 48.2227 81.024 48.2227 91.9974C48.2229 96.1626 48.7708 100.294 49.8514 104.277C50.0531 105.02 50.7269 105.51 51.4621 105.51C51.6068 105.51 51.754 105.491 51.9005 105.451C52.7907 105.209 53.3161 104.292 53.0748 103.402C52.216 100.237 51.7226 96.9695 51.5972 93.6671L88.3983 93.6668C88.6944 94.846 89.3043 95.9272 90.1865 96.8094C91.5133 98.1362 93.2562 98.7997 94.999 98.7997C95.6101 98.7997 96.2209 98.7162 96.814 98.5532L104.23 111.563C104.538 112.103 105.102 112.406 105.682 112.406C105.963 112.406 106.247 112.336 106.508 112.187C107.309 111.73 107.589 110.711 107.132 109.909L99.7161 96.9003C99.7478 96.8698 99.7803 96.8408 99.8114 96.8096C100.711 95.9103 101.304 94.8195 101.594 93.6675H115.514C116.437 93.6675 117.184 92.9198 117.184 91.9976C117.184 91.0753 116.437 90.3277 115.514 90.3277H101.594C101.305 89.1752 100.711 88.0842 99.8114 87.1846C98.9121 86.2853 97.8216 85.6917 96.6695 85.4021V62.0986C96.6695 61.1764 95.9219 60.4287 94.9996 60.4287C94.0774 60.4287 93.3297 61.1764 93.3297 62.0986V85.4016C92.1772 85.6913 91.0862 86.2849 90.1865 87.1846C89.3045 88.0666 88.6944 89.148 88.3983 90.3272L51.5968 90.3274C51.8453 83.8936 53.5228 77.614 56.4641 71.9534L60.196 74.0807C60.4569 74.2294 60.7411 74.3002 61.0216 74.3002C61.6018 74.3002 62.1661 73.9972 62.4738 73.457C62.9304 72.6557 62.6512 71.6359 61.8501 71.1792L58.1191 69.0524C59.1907 67.3288 60.3841 65.6747 61.6985 64.107C62.2912 63.4003 62.1986 62.3469 61.4919 61.7544C60.7847 61.1613 59.7315 61.2541 59.139 61.9608ZM92.5479 89.5461C93.2237 88.8704 94.1112 88.5326 94.9987 88.5326C95.8865 88.5326 96.774 88.8706 97.4497 89.5461C98.801 90.8974 98.801 93.0964 97.4497 94.4479C96.0984 95.7992 93.8995 95.7994 92.5479 94.4479C91.8933 93.7933 91.5326 92.9227 91.5326 91.9971C91.5326 91.0711 91.8931 90.2007 92.5479 89.5461Z" fill="black" fill-opacity="0.2"/>
<path d="M62.4752 110.537C62.0183 109.736 60.9987 109.457 60.1974 109.913L56.4623 112.043C56.1252 111.395 55.7982 110.742 55.4931 110.076C55.1086 109.238 54.1173 108.869 53.2793 109.254C52.4407 109.638 52.0727 110.63 52.457 111.468C56.1388 119.501 62.0029 126.311 69.4149 131.163C77.0224 136.142 85.8699 138.774 95.0013 138.774C103.338 138.774 111.171 136.579 117.958 132.741C118.103 132.684 118.239 132.606 118.361 132.512C132.348 124.416 141.778 109.288 141.778 91.9974C141.778 66.2047 120.794 45.2207 95.0013 45.2207C84.0321 45.2207 73.368 49.0947 64.9738 56.1293C64.2669 56.7218 64.1743 57.775 64.7665 58.4819C65.359 59.1886 66.412 59.2814 67.1191 58.6892C68.6842 57.3775 70.3356 56.1865 72.0559 55.1169L74.1827 58.8479C74.4906 59.3881 75.0546 59.6911 75.6348 59.6911C75.9152 59.6911 76.1993 59.6203 76.4602 59.4716C77.2613 59.0149 77.5408 57.9952 77.0839 57.1938L74.9566 53.4619C80.6172 50.5206 86.8968 48.8429 93.3304 48.5944V52.889C93.3304 53.8112 94.0781 54.5589 95.0004 54.5589C95.9226 54.5589 96.6703 53.8112 96.6703 52.889V48.5957C103.275 48.8467 109.506 50.578 115.041 53.4686L112.917 57.1943C112.46 57.9956 112.739 59.0154 113.541 59.472C113.801 59.6208 114.086 59.6916 114.366 59.6916C114.946 59.6916 115.51 59.3885 115.818 58.8484L117.939 55.1278C123.575 58.6473 128.35 63.4217 131.87 69.0583L128.149 71.1793C127.348 71.636 127.068 72.6557 127.525 73.4569C127.833 73.9972 128.397 74.3003 128.977 74.3003C129.258 74.3003 129.542 74.2297 129.803 74.0807L133.529 71.9568C136.42 77.4918 138.151 83.7229 138.402 90.3273H134.108C133.186 90.3273 132.438 91.075 132.438 91.9972C132.438 92.9195 133.186 93.6671 134.108 93.6671H138.402C138.151 100.272 136.42 106.503 133.529 112.038L129.803 109.914C129.001 109.457 127.982 109.736 127.525 110.538C127.068 111.339 127.348 112.358 128.149 112.815L131.87 114.936C128.351 120.573 123.576 125.348 117.94 128.867L110.737 116.232C110.28 115.431 109.261 115.152 108.459 115.608C107.658 116.065 107.379 117.085 107.836 117.886L115.041 130.526C109.506 133.417 103.275 135.148 96.6701 135.399V131.105C96.6701 130.183 95.9224 129.435 95.0001 129.435C94.0779 129.435 93.3302 130.183 93.3302 131.105V135.402C86.8836 135.157 80.6261 133.496 74.9522 130.539L77.0837 126.8C77.5403 125.999 77.2611 124.979 76.46 124.522C75.6587 124.066 74.6389 124.344 74.1822 125.146L72.0518 128.883C71.7811 128.714 71.5112 128.543 71.2436 128.368C65.913 124.879 61.4498 120.295 58.1169 114.944L61.8511 112.815C62.6526 112.358 62.9321 111.338 62.4752 110.537Z" fill="#000F8F"/>
<path d="M62.4752 110.537C62.0183 109.736 60.9987 109.457 60.1974 109.913L56.4623 112.043C56.1252 111.395 55.7982 110.742 55.4931 110.076C55.1086 109.238 54.1173 108.869 53.2793 109.254C52.4407 109.638 52.0727 110.63 52.457 111.468C56.1388 119.501 62.0029 126.311 69.4149 131.163C77.0224 136.142 85.8699 138.774 95.0013 138.774C103.338 138.774 111.171 136.579 117.958 132.741C118.103 132.684 118.239 132.606 118.361 132.512C132.348 124.416 141.778 109.288 141.778 91.9974C141.778 66.2047 120.794 45.2207 95.0013 45.2207C84.0321 45.2207 73.368 49.0947 64.9738 56.1293C64.2669 56.7218 64.1743 57.775 64.7665 58.4819C65.359 59.1886 66.412 59.2814 67.1191 58.6892C68.6842 57.3775 70.3356 56.1865 72.0559 55.1169L74.1827 58.8479C74.4906 59.3881 75.0546 59.6911 75.6348 59.6911C75.9152 59.6911 76.1993 59.6203 76.4602 59.4716C77.2613 59.0149 77.5408 57.9952 77.0839 57.1938L74.9566 53.4619C80.6172 50.5206 86.8968 48.8429 93.3304 48.5944V52.889C93.3304 53.8112 94.0781 54.5589 95.0004 54.5589C95.9226 54.5589 96.6703 53.8112 96.6703 52.889V48.5957C103.275 48.8467 109.506 50.578 115.041 53.4686L112.917 57.1943C112.46 57.9956 112.739 59.0154 113.541 59.472C113.801 59.6208 114.086 59.6916 114.366 59.6916C114.946 59.6916 115.51 59.3885 115.818 58.8484L117.939 55.1278C123.575 58.6473 128.35 63.4217 131.87 69.0583L128.149 71.1793C127.348 71.636 127.068 72.6557 127.525 73.4569C127.833 73.9972 128.397 74.3003 128.977 74.3003C129.258 74.3003 129.542 74.2297 129.803 74.0807L133.529 71.9568C136.42 77.4918 138.151 83.7229 138.402 90.3273H134.108C133.186 90.3273 132.438 91.075 132.438 91.9972C132.438 92.9195 133.186 93.6671 134.108 93.6671H138.402C138.151 100.272 136.42 106.503 133.529 112.038L129.803 109.914C129.001 109.457 127.982 109.736 127.525 110.538C127.068 111.339 127.348 112.358 128.149 112.815L131.87 114.936C128.351 120.573 123.576 125.348 117.94 128.867L110.737 116.232C110.28 115.431 109.261 115.152 108.459 115.608C107.658 116.065 107.379 117.085 107.836 117.886L115.041 130.526C109.506 133.417 103.275 135.148 96.6701 135.399V131.105C96.6701 130.183 95.9224 129.435 95.0001 129.435C94.0779 129.435 93.3302 130.183 93.3302 131.105V135.402C86.8836 135.157 80.6261 133.496 74.9522 130.539L77.0837 126.8C77.5403 125.999 77.2611 124.979 76.46 124.522C75.6587 124.066 74.6389 124.344 74.1822 125.146L72.0518 128.883C71.7811 128.714 71.5112 128.543 71.2436 128.368C65.913 124.879 61.4498 120.295 58.1169 114.944L61.8511 112.815C62.6526 112.358 62.9321 111.338 62.4752 110.537Z" fill="black" fill-opacity="0.2"/>
<path d="M62.4752 110.537C62.0183 109.736 60.9987 109.457 60.1974 109.913L56.4623 112.043C56.1252 111.395 55.7982 110.742 55.4931 110.076C55.1086 109.238 54.1173 108.869 53.2793 109.254C52.4407 109.638 52.0727 110.63 52.457 111.468C56.1388 119.501 62.0029 126.311 69.4149 131.163C77.0224 136.142 85.8699 138.774 95.0013 138.774C103.338 138.774 111.171 136.579 117.958 132.741C118.103 132.684 118.239 132.606 118.361 132.512C132.348 124.416 141.778 109.288 141.778 91.9974C141.778 66.2047 120.794 45.2207 95.0013 45.2207C84.0321 45.2207 73.368 49.0947 64.9738 56.1293C64.2669 56.7218 64.1743 57.775 64.7665 58.4819C65.359 59.1886 66.412 59.2814 67.1191 58.6892C68.6842 57.3775 70.3356 56.1865 72.0559 55.1169L74.1827 58.8479C74.4906 59.3881 75.0546 59.6911 75.6348 59.6911C75.9152 59.6911 76.1993 59.6203 76.4602 59.4716C77.2613 59.0149 77.5408 57.9952 77.0839 57.1938L74.9566 53.4619C80.6172 50.5206 86.8968 48.8429 93.3304 48.5944V52.889C93.3304 53.8112 94.0781 54.5589 95.0004 54.5589C95.9226 54.5589 96.6703 53.8112 96.6703 52.889V48.5957C103.275 48.8467 109.506 50.578 115.041 53.4686L112.917 57.1943C112.46 57.9956 112.739 59.0154 113.541 59.472C113.801 59.6208 114.086 59.6916 114.366 59.6916C114.946 59.6916 115.51 59.3885 115.818 58.8484L117.939 55.1278C123.575 58.6473 128.35 63.4217 131.87 69.0583L128.149 71.1793C127.348 71.636 127.068 72.6557 127.525 73.4569C127.833 73.9972 128.397 74.3003 128.977 74.3003C129.258 74.3003 129.542 74.2297 129.803 74.0807L133.529 71.9568C136.42 77.4918 138.151 83.7229 138.402 90.3273H134.108C133.186 90.3273 132.438 91.075 132.438 91.9972C132.438 92.9195 133.186 93.6671 134.108 93.6671H138.402C138.151 100.272 136.42 106.503 133.529 112.038L129.803 109.914C129.001 109.457 127.982 109.736 127.525 110.538C127.068 111.339 127.348 112.358 128.149 112.815L131.87 114.936C128.351 120.573 123.576 125.348 117.94 128.867L110.737 116.232C110.28 115.431 109.261 115.152 108.459 115.608C107.658 116.065 107.379 117.085 107.836 117.886L115.041 130.526C109.506 133.417 103.275 135.148 96.6701 135.399V131.105C96.6701 130.183 95.9224 129.435 95.0001 129.435C94.0779 129.435 93.3302 130.183 93.3302 131.105V135.402C86.8836 135.157 80.6261 133.496 74.9522 130.539L77.0837 126.8C77.5403 125.999 77.2611 124.979 76.46 124.522C75.6587 124.066 74.6389 124.344 74.1822 125.146L72.0518 128.883C71.7811 128.714 71.5112 128.543 71.2436 128.368C65.913 124.879 61.4498 120.295 58.1169 114.944L61.8511 112.815C62.6526 112.358 62.9321 111.338 62.4752 110.537Z" fill="black" fill-opacity="0.2"/>
<path d="M62.4752 110.537C62.0183 109.736 60.9987 109.457 60.1974 109.913L56.4623 112.043C56.1252 111.395 55.7982 110.742 55.4931 110.076C55.1086 109.238 54.1173 108.869 53.2793 109.254C52.4407 109.638 52.0727 110.63 52.457 111.468C56.1388 119.501 62.0029 126.311 69.4149 131.163C77.0224 136.142 85.8699 138.774 95.0013 138.774C103.338 138.774 111.171 136.579 117.958 132.741C118.103 132.684 118.239 132.606 118.361 132.512C132.348 124.416 141.778 109.288 141.778 91.9974C141.778 66.2047 120.794 45.2207 95.0013 45.2207C84.0321 45.2207 73.368 49.0947 64.9738 56.1293C64.2669 56.7218 64.1743 57.775 64.7665 58.4819C65.359 59.1886 66.412 59.2814 67.1191 58.6892C68.6842 57.3775 70.3356 56.1865 72.0559 55.1169L74.1827 58.8479C74.4906 59.3881 75.0546 59.6911 75.6348 59.6911C75.9152 59.6911 76.1993 59.6203 76.4602 59.4716C77.2613 59.0149 77.5408 57.9952 77.0839 57.1938L74.9566 53.4619C80.6172 50.5206 86.8968 48.8429 93.3304 48.5944V52.889C93.3304 53.8112 94.0781 54.5589 95.0004 54.5589C95.9226 54.5589 96.6703 53.8112 96.6703 52.889V48.5957C103.275 48.8467 109.506 50.578 115.041 53.4686L112.917 57.1943C112.46 57.9956 112.739 59.0154 113.541 59.472C113.801 59.6208 114.086 59.6916 114.366 59.6916C114.946 59.6916 115.51 59.3885 115.818 58.8484L117.939 55.1278C123.575 58.6473 128.35 63.4217 131.87 69.0583L128.149 71.1793C127.348 71.636 127.068 72.6557 127.525 73.4569C127.833 73.9972 128.397 74.3003 128.977 74.3003C129.258 74.3003 129.542 74.2297 129.803 74.0807L133.529 71.9568C136.42 77.4918 138.151 83.7229 138.402 90.3273H134.108C133.186 90.3273 132.438 91.075 132.438 91.9972C132.438 92.9195 133.186 93.6671 134.108 93.6671H138.402C138.151 100.272 136.42 106.503 133.529 112.038L129.803 109.914C129.001 109.457 127.982 109.736 127.525 110.538C127.068 111.339 127.348 112.358 128.149 112.815L131.87 114.936C128.351 120.573 123.576 125.348 117.94 128.867L110.737 116.232C110.28 115.431 109.261 115.152 108.459 115.608C107.658 116.065 107.379 117.085 107.836 117.886L115.041 130.526C109.506 133.417 103.275 135.148 96.6701 135.399V131.105C96.6701 130.183 95.9224 129.435 95.0001 129.435C94.0779 129.435 93.3302 130.183 93.3302 131.105V135.402C86.8836 135.157 80.6261 133.496 74.9522 130.539L77.0837 126.8C77.5403 125.999 77.2611 124.979 76.46 124.522C75.6587 124.066 74.6389 124.344 74.1822 125.146L72.0518 128.883C71.7811 128.714 71.5112 128.543 71.2436 128.368C65.913 124.879 61.4498 120.295 58.1169 114.944L61.8511 112.815C62.6526 112.358 62.9321 111.338 62.4752 110.537Z" fill="black" fill-opacity="0.2"/>
<path d="M62.4752 110.537C62.0183 109.736 60.9987 109.457 60.1974 109.913L56.4623 112.043C56.1252 111.395 55.7982 110.742 55.4931 110.076C55.1086 109.238 54.1173 108.869 53.2793 109.254C52.4407 109.638 52.0727 110.63 52.457 111.468C56.1388 119.501 62.0029 126.311 69.4149 131.163C77.0224 136.142 85.8699 138.774 95.0013 138.774C103.338 138.774 111.171 136.579 117.958 132.741C118.103 132.684 118.239 132.606 118.361 132.512C132.348 124.416 141.778 109.288 141.778 91.9974C141.778 66.2047 120.794 45.2207 95.0013 45.2207C84.0321 45.2207 73.368 49.0947 64.9738 56.1293C64.2669 56.7218 64.1743 57.775 64.7665 58.4819C65.359 59.1886 66.412 59.2814 67.1191 58.6892C68.6842 57.3775 70.3356 56.1865 72.0559 55.1169L74.1827 58.8479C74.4906 59.3881 75.0546 59.6911 75.6348 59.6911C75.9152 59.6911 76.1993 59.6203 76.4602 59.4716C77.2613 59.0149 77.5408 57.9952 77.0839 57.1938L74.9566 53.4619C80.6172 50.5206 86.8968 48.8429 93.3304 48.5944V52.889C93.3304 53.8112 94.0781 54.5589 95.0004 54.5589C95.9226 54.5589 96.6703 53.8112 96.6703 52.889V48.5957C103.275 48.8467 109.506 50.578 115.041 53.4686L112.917 57.1943C112.46 57.9956 112.739 59.0154 113.541 59.472C113.801 59.6208 114.086 59.6916 114.366 59.6916C114.946 59.6916 115.51 59.3885 115.818 58.8484L117.939 55.1278C123.575 58.6473 128.35 63.4217 131.87 69.0583L128.149 71.1793C127.348 71.636 127.068 72.6557 127.525 73.4569C127.833 73.9972 128.397 74.3003 128.977 74.3003C129.258 74.3003 129.542 74.2297 129.803 74.0807L133.529 71.9568C136.42 77.4918 138.151 83.7229 138.402 90.3273H134.108C133.186 90.3273 132.438 91.075 132.438 91.9972C132.438 92.9195 133.186 93.6671 134.108 93.6671H138.402C138.151 100.272 136.42 106.503 133.529 112.038L129.803 109.914C129.001 109.457 127.982 109.736 127.525 110.538C127.068 111.339 127.348 112.358 128.149 112.815L131.87 114.936C128.351 120.573 123.576 125.348 117.94 128.867L110.737 116.232C110.28 115.431 109.261 115.152 108.459 115.608C107.658 116.065 107.379 117.085 107.836 117.886L115.041 130.526C109.506 133.417 103.275 135.148 96.6701 135.399V131.105C96.6701 130.183 95.9224 129.435 95.0001 129.435C94.0779 129.435 93.3302 130.183 93.3302 131.105V135.402C86.8836 135.157 80.6261 133.496 74.9522 130.539L77.0837 126.8C77.5403 125.999 77.2611 124.979 76.46 124.522C75.6587 124.066 74.6389 124.344 74.1822 125.146L72.0518 128.883C71.7811 128.714 71.5112 128.543 71.2436 128.368C65.913 124.879 61.4498 120.295 58.1169 114.944L61.8511 112.815C62.6526 112.358 62.9321 111.338 62.4752 110.537Z" fill="black" fill-opacity="0.2"/>
<path d="M62.4752 110.537C62.0183 109.736 60.9987 109.457 60.1974 109.913L56.4623 112.043C56.1252 111.395 55.7982 110.742 55.4931 110.076C55.1086 109.238 54.1173 108.869 53.2793 109.254C52.4407 109.638 52.0727 110.63 52.457 111.468C56.1388 119.501 62.0029 126.311 69.4149 131.163C77.0224 136.142 85.8699 138.774 95.0013 138.774C103.338 138.774 111.171 136.579 117.958 132.741C118.103 132.684 118.239 132.606 118.361 132.512C132.348 124.416 141.778 109.288 141.778 91.9974C141.778 66.2047 120.794 45.2207 95.0013 45.2207C84.0321 45.2207 73.368 49.0947 64.9738 56.1293C64.2669 56.7218 64.1743 57.775 64.7665 58.4819C65.359 59.1886 66.412 59.2814 67.1191 58.6892C68.6842 57.3775 70.3356 56.1865 72.0559 55.1169L74.1827 58.8479C74.4906 59.3881 75.0546 59.6911 75.6348 59.6911C75.9152 59.6911 76.1993 59.6203 76.4602 59.4716C77.2613 59.0149 77.5408 57.9952 77.0839 57.1938L74.9566 53.4619C80.6172 50.5206 86.8968 48.8429 93.3304 48.5944V52.889C93.3304 53.8112 94.0781 54.5589 95.0004 54.5589C95.9226 54.5589 96.6703 53.8112 96.6703 52.889V48.5957C103.275 48.8467 109.506 50.578 115.041 53.4686L112.917 57.1943C112.46 57.9956 112.739 59.0154 113.541 59.472C113.801 59.6208 114.086 59.6916 114.366 59.6916C114.946 59.6916 115.51 59.3885 115.818 58.8484L117.939 55.1278C123.575 58.6473 128.35 63.4217 131.87 69.0583L128.149 71.1793C127.348 71.636 127.068 72.6557 127.525 73.4569C127.833 73.9972 128.397 74.3003 128.977 74.3003C129.258 74.3003 129.542 74.2297 129.803 74.0807L133.529 71.9568C136.42 77.4918 138.151 83.7229 138.402 90.3273H134.108C133.186 90.3273 132.438 91.075 132.438 91.9972C132.438 92.9195 133.186 93.6671 134.108 93.6671H138.402C138.151 100.272 136.42 106.503 133.529 112.038L129.803 109.914C129.001 109.457 127.982 109.736 127.525 110.538C127.068 111.339 127.348 112.358 128.149 112.815L131.87 114.936C128.351 120.573 123.576 125.348 117.94 128.867L110.737 116.232C110.28 115.431 109.261 115.152 108.459 115.608C107.658 116.065 107.379 117.085 107.836 117.886L115.041 130.526C109.506 133.417 103.275 135.148 96.6701 135.399V131.105C96.6701 130.183 95.9224 129.435 95.0001 129.435C94.0779 129.435 93.3302 130.183 93.3302 131.105V135.402C86.8836 135.157 80.6261 133.496 74.9522 130.539L77.0837 126.8C77.5403 125.999 77.2611 124.979 76.46 124.522C75.6587 124.066 74.6389 124.344 74.1822 125.146L72.0518 128.883C71.7811 128.714 71.5112 128.543 71.2436 128.368C65.913 124.879 61.4498 120.295 58.1169 114.944L61.8511 112.815C62.6526 112.358 62.9321 111.338 62.4752 110.537Z" fill="black" fill-opacity="0.2"/>
<defs>
<linearGradient id="paint0_linear_902_91308" x1="165.969" y1="161" x2="-1.80859" y2="112.355" gradientUnits="userSpaceOnUse">
<stop stop-color="#E0F8FF"/>
<stop offset="1" stop-color="#9FE0F4"/>
</linearGradient>
</defs>
</svg>
