<svg width="47" height="47" viewBox="0 0 47 47" fill="none" xmlns="http://www.w3.org/2000/svg">
<circle cx="23.5" cy="23.5" r="23.5" fill="#E6F9FF"/>
<path d="M26.6094 33.8906H12.2656L13.1094 17.0156H25.7656L26.6094 33.8906Z" fill="#DFB7FF"/>
<path d="M29.9844 33.8906H26.6094L25.7656 17.0156H29.1406L29.9844 33.8906Z" fill="#BE6DFF"/>
<path d="M36.7344 33.8906H33.3594L33.3066 33.2088V33.2082L32.5156 22.9219H35.8906L36.6685 33.0305V33.0311L36.7344 33.8906Z" fill="#FFC866"/>
<path d="M17.75 24.6094H15.2188V21.2344L16.4844 20.3906L17.75 21.2344V24.6094Z" fill="#FFDD9E"/>
<path d="M33.3594 33.8906H22.3906L23.2344 22.9219H32.5156L33.3594 33.8906Z" fill="#FFDD9E"/>
<path d="M36.3113 22.8895C36.3031 22.7835 36.2553 22.6845 36.1773 22.6123C36.0993 22.5401 35.9969 22.5 35.8906 22.5H29.8372L29.562 16.9945C29.5566 16.8864 29.5098 16.7846 29.4314 16.71C29.353 16.6354 29.2489 16.5938 29.1406 16.5938H26.1875V14.4844C26.1877 13.8769 26.0421 13.2782 25.7629 12.7387C25.4837 12.1992 25.0791 11.7345 24.5831 11.3838C24.0871 11.0331 23.5141 10.8066 22.9123 10.7233C22.3106 10.6401 21.6976 10.7024 21.125 10.9052C20.5524 10.7024 19.9394 10.6401 19.3377 10.7233C18.7359 10.8066 18.1629 11.0331 17.6669 11.3838C17.1709 11.7345 16.7663 12.1992 16.4871 12.7387C16.2079 13.2782 16.0623 13.8769 16.0625 14.4844V16.5938H13.1094C13.0011 16.5938 12.897 16.6354 12.8186 16.71C12.7402 16.7846 12.6934 16.8864 12.688 16.9945L11.8443 33.8695C11.8414 33.9266 11.8502 33.9837 11.8701 34.0373C11.89 34.091 11.9205 34.14 11.9599 34.1814C11.9994 34.2228 12.0468 34.2558 12.0993 34.2783C12.1519 34.3009 12.2084 34.3125 12.2656 34.3125H36.7344C36.7925 34.3125 36.85 34.3005 36.9033 34.2772C36.9566 34.254 37.0044 34.2199 37.0439 34.1773C37.0834 34.1346 37.1137 34.0843 37.1328 34.0294C37.1519 33.9745 37.1595 33.9162 37.155 33.8583L36.3113 22.8895ZM35.0469 32.1199L35.9461 33.4688H34.1479L35.0469 32.1199ZM36.1899 32.3134L35.4562 31.2128L34.6693 23.3438H35.5L36.1899 32.3134ZM33.8213 23.3438L34.6123 31.2511L33.6863 32.6398L32.9712 23.3438H33.8213ZM28.9924 22.5H28.1984L27.9006 17.4375H28.7391L28.9924 22.5ZM27.0553 17.4375L27.3532 22.5H26.462L26.2089 17.4375H27.0553ZM22.3906 11.5313C23.1736 11.5322 23.9242 11.8436 24.4778 12.3972C25.0314 12.9508 25.3429 13.7014 25.3438 14.4844V16.5938H23.6562V14.4844C23.6563 13.9187 23.5297 13.3603 23.2858 12.8499C23.0419 12.3395 22.6869 11.8902 22.2468 11.5349C22.2945 11.5326 22.3424 11.5313 22.3906 11.5313ZM21.125 11.8168C21.6296 12.0566 22.0559 12.4344 22.3545 12.9065C22.6532 13.3787 22.812 13.9257 22.8125 14.4844V16.5938H19.4375V14.4844C19.438 13.9257 19.5968 13.3787 19.8955 12.9065C20.1941 12.4344 20.6204 12.0566 21.125 11.8168ZM16.9063 14.4844C16.9071 13.7014 17.2186 12.9508 17.7722 12.3972C18.3258 11.8436 19.0764 11.5322 19.8594 11.5313C19.9076 11.5313 19.9555 11.5326 20.0032 11.5349C19.5631 11.8902 19.2081 12.3395 18.9642 12.8499C18.7203 13.3603 18.5937 13.9187 18.5938 14.4844V16.5938H16.9063V14.4844ZM22 33.4688H12.7091L13.5107 17.4375H16.0625V20.1649L14.9847 20.8834C14.9269 20.9219 14.8796 20.9741 14.8468 21.0353C14.814 21.0966 14.7969 21.1649 14.7969 21.2344V24.6094C14.7969 24.7213 14.8413 24.8286 14.9204 24.9077C14.9996 24.9868 15.1069 25.0313 15.2188 25.0313H17.75C17.8619 25.0313 17.9692 24.9868 18.0483 24.9077C18.1274 24.8286 18.1719 24.7213 18.1719 24.6094V21.2344C18.1719 21.1649 18.1547 21.0966 18.122 21.0353C18.0892 20.9741 18.0418 20.9219 17.984 20.8834L16.9063 20.1649V17.4375H22.8125V18.7031C22.8125 18.815 22.8569 18.9223 22.9361 19.0014C23.0152 19.0806 23.1225 19.125 23.2344 19.125C23.3463 19.125 23.4536 19.0806 23.5327 19.0014C23.6118 18.9223 23.6562 18.815 23.6562 18.7031V17.4375H25.3643L25.6174 22.5H23.2344C23.1281 22.5 23.0257 22.5401 22.9477 22.6123C22.8697 22.6845 22.8219 22.7835 22.8137 22.8895L22 33.4688ZM16.4844 20.8977L17.3281 21.4601V24.1875H15.6406V21.4601L16.4844 20.8977ZM23.625 23.3438H32.125L32.9038 33.4688H22.8462L23.625 23.3438Z" fill="#484848"/>
<path d="M29.9844 25.0312C29.8725 25.0312 29.7652 25.0757 29.6861 25.1548C29.6069 25.2339 29.5625 25.3412 29.5625 25.4531V28.8281C29.5621 29.1637 29.4287 29.4854 29.1914 29.7226C28.9541 29.9599 28.6324 30.0934 28.2969 30.0938H27.4531C27.1176 30.0934 26.7959 29.9599 26.5586 29.7226C26.3213 29.4854 26.1879 29.1637 26.1875 28.8281V25.4531C26.1875 25.3412 26.1431 25.2339 26.0639 25.1548C25.9848 25.0757 25.8775 25.0312 25.7656 25.0312C25.6537 25.0312 25.5464 25.0757 25.4673 25.1548C25.3882 25.2339 25.3438 25.3412 25.3438 25.4531V28.8281C25.3444 29.3874 25.5668 29.9235 25.9623 30.319C26.3577 30.7144 26.8939 30.9369 27.4531 30.9375H28.2969C28.8561 30.9369 29.3923 30.7144 29.7877 30.319C30.1832 29.9235 30.4056 29.3874 30.4062 28.8281V25.4531C30.4062 25.3412 30.3618 25.2339 30.2827 25.1548C30.2036 25.0757 30.0963 25.0312 29.9844 25.0312Z" fill="#484848"/>
</svg>
