<svg width="97" height="96" viewBox="0 0 97 96" fill="none" xmlns="http://www.w3.org/2000/svg">
<ellipse cx="48.2857" cy="48" rx="48.2857" ry="48" fill="#EDF6F9"/>
<path d="M48.0013 86.3332C69.1722 86.3332 86.3346 69.1708 86.3346 47.9998C86.3346 26.8289 69.1722 9.6665 48.0013 9.6665C26.8304 9.6665 9.66797 26.8289 9.66797 47.9998C9.66797 69.1708 26.8304 86.3332 48.0013 86.3332Z" fill="white"/>
<path d="M86.3333 47.9998C86.3333 58.1665 82.2947 67.9167 75.1058 75.1056C67.9169 82.2945 58.1666 86.3332 48 86.3332V9.6665C53.034 9.6665 58.0187 10.658 62.6695 12.5845C67.3203 14.5109 71.5462 17.3345 75.1058 20.8941C78.6653 24.4537 81.489 28.6795 83.4154 33.3303C85.3418 37.9811 86.3333 42.9658 86.3333 47.9998Z" fill="#87DFFF" fill-opacity="0.5"/>
<path d="M47.9998 88.25C42.2902 88.2427 36.6475 87.0209 31.4465 84.6655C26.2454 82.3101 21.6049 78.8752 17.8332 74.5888C14.0616 70.3023 11.245 65.2625 9.57056 59.804C7.89613 54.3455 7.40217 48.5932 8.12148 42.9291C8.8408 37.2651 10.7569 31.8189 13.7426 26.9522C16.7283 22.0855 20.7152 17.9097 25.4386 14.7021C30.162 11.4945 35.5137 9.32852 41.1384 8.34799C46.7632 7.36746 52.5322 7.59482 58.0623 9.01497L57.1039 12.7333C48.4687 10.5029 39.3152 11.5189 31.3793 15.5886C23.4434 19.6583 17.2768 26.4988 14.0489 34.8128C10.8211 43.1268 10.7564 52.3362 13.8671 60.6947C16.9779 69.0533 23.0478 75.9796 30.9258 80.1604C38.8038 84.3412 47.9421 85.4856 56.6078 83.3768C65.2735 81.2679 72.864 76.0524 77.94 68.7191C83.0159 61.3859 85.2244 52.4449 84.1465 43.5917C83.0687 34.7385 78.7795 26.5886 72.0923 20.6875L74.6223 17.8125C80.754 23.2201 85.0935 30.3668 87.0635 38.3015C89.0334 46.2362 88.5404 54.5827 85.6499 62.2303C82.7594 69.8779 77.6086 76.464 70.8829 81.112C64.1571 85.7601 56.1754 88.2499 47.9998 88.25Z" fill="#000F8F"/>
<path d="M47.9998 88.25C42.2902 88.2427 36.6475 87.0209 31.4465 84.6655C26.2454 82.3101 21.6049 78.8752 17.8332 74.5888C14.0616 70.3023 11.245 65.2625 9.57056 59.804C7.89613 54.3455 7.40217 48.5932 8.12148 42.9291C8.8408 37.2651 10.7569 31.8189 13.7426 26.9522C16.7283 22.0855 20.7152 17.9097 25.4386 14.7021C30.162 11.4945 35.5137 9.32852 41.1384 8.34799C46.7632 7.36746 52.5322 7.59482 58.0623 9.01497L57.1039 12.7333C48.4687 10.5029 39.3152 11.5189 31.3793 15.5886C23.4434 19.6583 17.2768 26.4988 14.0489 34.8128C10.8211 43.1268 10.7564 52.3362 13.8671 60.6947C16.9779 69.0533 23.0478 75.9796 30.9258 80.1604C38.8038 84.3412 47.9421 85.4856 56.6078 83.3768C65.2735 81.2679 72.864 76.0524 77.94 68.7191C83.0159 61.3859 85.2244 52.4449 84.1465 43.5917C83.0687 34.7385 78.7795 26.5886 72.0923 20.6875L74.6223 17.8125C80.754 23.2201 85.0935 30.3668 87.0635 38.3015C89.0334 46.2362 88.5404 54.5827 85.6499 62.2303C82.7594 69.8779 77.6086 76.464 70.8829 81.112C64.1571 85.7601 56.1754 88.2499 47.9998 88.25Z" fill="black" fill-opacity="0.2"/>
<path d="M47.9998 88.25C42.2902 88.2427 36.6475 87.0209 31.4465 84.6655C26.2454 82.3101 21.6049 78.8752 17.8332 74.5888C14.0616 70.3023 11.245 65.2625 9.57056 59.804C7.89613 54.3455 7.40217 48.5932 8.12148 42.9291C8.8408 37.2651 10.7569 31.8189 13.7426 26.9522C16.7283 22.0855 20.7152 17.9097 25.4386 14.7021C30.162 11.4945 35.5137 9.32852 41.1384 8.34799C46.7632 7.36746 52.5322 7.59482 58.0623 9.01497L57.1039 12.7333C48.4687 10.5029 39.3152 11.5189 31.3793 15.5886C23.4434 19.6583 17.2768 26.4988 14.0489 34.8128C10.8211 43.1268 10.7564 52.3362 13.8671 60.6947C16.9779 69.0533 23.0478 75.9796 30.9258 80.1604C38.8038 84.3412 47.9421 85.4856 56.6078 83.3768C65.2735 81.2679 72.864 76.0524 77.94 68.7191C83.0159 61.3859 85.2244 52.4449 84.1465 43.5917C83.0687 34.7385 78.7795 26.5886 72.0923 20.6875L74.6223 17.8125C80.754 23.2201 85.0935 30.3668 87.0635 38.3015C89.0334 46.2362 88.5404 54.5827 85.6499 62.2303C82.7594 69.8779 77.6086 76.464 70.8829 81.112C64.1571 85.7601 56.1754 88.2499 47.9998 88.25Z" fill="black" fill-opacity="0.2"/>
<path d="M47.9998 88.25C42.2902 88.2427 36.6475 87.0209 31.4465 84.6655C26.2454 82.3101 21.6049 78.8752 17.8332 74.5888C14.0616 70.3023 11.245 65.2625 9.57056 59.804C7.89613 54.3455 7.40217 48.5932 8.12148 42.9291C8.8408 37.2651 10.7569 31.8189 13.7426 26.9522C16.7283 22.0855 20.7152 17.9097 25.4386 14.7021C30.162 11.4945 35.5137 9.32852 41.1384 8.34799C46.7632 7.36746 52.5322 7.59482 58.0623 9.01497L57.1039 12.7333C48.4687 10.5029 39.3152 11.5189 31.3793 15.5886C23.4434 19.6583 17.2768 26.4988 14.0489 34.8128C10.8211 43.1268 10.7564 52.3362 13.8671 60.6947C16.9779 69.0533 23.0478 75.9796 30.9258 80.1604C38.8038 84.3412 47.9421 85.4856 56.6078 83.3768C65.2735 81.2679 72.864 76.0524 77.94 68.7191C83.0159 61.3859 85.2244 52.4449 84.1465 43.5917C83.0687 34.7385 78.7795 26.5886 72.0923 20.6875L74.6223 17.8125C80.754 23.2201 85.0935 30.3668 87.0635 38.3015C89.0334 46.2362 88.5404 54.5827 85.6499 62.2303C82.7594 69.8779 77.6086 76.464 70.8829 81.112C64.1571 85.7601 56.1754 88.2499 47.9998 88.25Z" fill="black" fill-opacity="0.2"/>
<path d="M47.9998 88.25C42.2902 88.2427 36.6475 87.0209 31.4465 84.6655C26.2454 82.3101 21.6049 78.8752 17.8332 74.5888C14.0616 70.3023 11.245 65.2625 9.57056 59.804C7.89613 54.3455 7.40217 48.5932 8.12148 42.9291C8.8408 37.2651 10.7569 31.8189 13.7426 26.9522C16.7283 22.0855 20.7152 17.9097 25.4386 14.7021C30.162 11.4945 35.5137 9.32852 41.1384 8.34799C46.7632 7.36746 52.5322 7.59482 58.0623 9.01497L57.1039 12.7333C48.4687 10.5029 39.3152 11.5189 31.3793 15.5886C23.4434 19.6583 17.2768 26.4988 14.0489 34.8128C10.8211 43.1268 10.7564 52.3362 13.8671 60.6947C16.9779 69.0533 23.0478 75.9796 30.9258 80.1604C38.8038 84.3412 47.9421 85.4856 56.6078 83.3768C65.2735 81.2679 72.864 76.0524 77.94 68.7191C83.0159 61.3859 85.2244 52.4449 84.1465 43.5917C83.0687 34.7385 78.7795 26.5886 72.0923 20.6875L74.6223 17.8125C80.754 23.2201 85.0935 30.3668 87.0635 38.3015C89.0334 46.2362 88.5404 54.5827 85.6499 62.2303C82.7594 69.8779 77.6086 76.464 70.8829 81.112C64.1571 85.7601 56.1754 88.2499 47.9998 88.25Z" fill="black" fill-opacity="0.2"/>
<path d="M47.9998 88.25C42.2902 88.2427 36.6475 87.0209 31.4465 84.6655C26.2454 82.3101 21.6049 78.8752 17.8332 74.5888C14.0616 70.3023 11.245 65.2625 9.57056 59.804C7.89613 54.3455 7.40217 48.5932 8.12148 42.9291C8.8408 37.2651 10.7569 31.8189 13.7426 26.9522C16.7283 22.0855 20.7152 17.9097 25.4386 14.7021C30.162 11.4945 35.5137 9.32852 41.1384 8.34799C46.7632 7.36746 52.5322 7.59482 58.0623 9.01497L57.1039 12.7333C48.4687 10.5029 39.3152 11.5189 31.3793 15.5886C23.4434 19.6583 17.2768 26.4988 14.0489 34.8128C10.8211 43.1268 10.7564 52.3362 13.8671 60.6947C16.9779 69.0533 23.0478 75.9796 30.9258 80.1604C38.8038 84.3412 47.9421 85.4856 56.6078 83.3768C65.2735 81.2679 72.864 76.0524 77.94 68.7191C83.0159 61.3859 85.2244 52.4449 84.1465 43.5917C83.0687 34.7385 78.7795 26.5886 72.0923 20.6875L74.6223 17.8125C80.754 23.2201 85.0935 30.3668 87.0635 38.3015C89.0334 46.2362 88.5404 54.5827 85.6499 62.2303C82.7594 69.8779 77.6086 76.464 70.8829 81.112C64.1571 85.7601 56.1754 88.2499 47.9998 88.25Z" fill="black" fill-opacity="0.2"/>
<path d="M40.3333 38.4165C39.825 38.4165 39.3375 38.6184 38.978 38.9779C38.6186 39.3373 38.4167 39.8248 38.4167 40.3332C38.4167 42.9398 36.27 46.0832 33.625 46.0832C30.98 46.0832 28.8333 42.9398 28.8333 40.3332C28.8333 39.8248 28.6314 39.3373 28.272 38.9779C27.9125 38.6184 27.425 38.4165 26.9167 38.4165C26.4083 38.4165 25.9208 38.6184 25.5614 38.9779C25.2019 39.3373 25 39.8248 25 40.3332C25 44.8565 28.68 49.9165 33.625 49.9165C38.57 49.9165 42.25 44.8565 42.25 40.3332C42.25 39.8248 42.0481 39.3373 41.6886 38.9779C41.3292 38.6184 40.8417 38.4165 40.3333 38.4165ZM67.1667 70.3865C65.6678 66.5463 63.0258 63.259 59.5978 60.9691C56.1699 58.6793 52.1215 57.4973 48 57.5832C43.8947 57.5171 39.8674 58.7082 36.4586 60.9968C33.0497 63.2854 30.4224 66.5618 28.9292 70.3865C28.7665 70.8694 28.8023 71.3972 29.0288 71.8537C29.2552 72.3102 29.6538 72.658 30.1367 72.8207C30.6196 72.9833 31.1473 72.9475 31.6038 72.7211C32.0603 72.4946 32.4082 72.0961 32.5708 71.6132C33.7688 68.5241 35.897 65.8837 38.6611 64.057C41.4252 62.2303 44.6886 61.3076 48 61.4165C51.2953 61.3276 54.5375 62.2598 57.2824 64.0851C60.0274 65.9105 62.1408 68.5399 63.3333 71.6132C63.4667 72.0099 63.7262 72.352 64.0723 72.5874C64.4184 72.8227 64.832 72.9383 65.25 72.9165C65.4536 72.9428 65.6597 72.9428 65.8633 72.9165C66.1227 72.8479 66.3647 72.7257 66.5739 72.5577C66.783 72.3897 66.9546 72.1797 67.0774 71.9412C67.2002 71.7028 67.2717 71.4412 67.287 71.1733C67.3024 70.9055 67.2614 70.6375 67.1667 70.3865ZM69.0833 38.4165C68.575 38.4165 68.0875 38.6184 67.728 38.9779C67.3686 39.3373 67.1667 39.8248 67.1667 40.3332C67.1667 42.9398 65.02 46.0832 62.375 46.0832C59.73 46.0832 57.5833 42.9398 57.5833 40.3332C57.5833 39.8248 57.3814 39.3373 57.022 38.9779C56.6625 38.6184 56.175 38.4165 55.6667 38.4165C55.1583 38.4165 54.6708 38.6184 54.3114 38.9779C53.9519 39.3373 53.75 39.8248 53.75 40.3332C53.75 44.8565 57.43 49.9165 62.375 49.9165C67.32 49.9165 71 44.8565 71 40.3332C71 39.8248 70.7981 39.3373 70.4386 38.9779C70.0792 38.6184 69.5917 38.4165 69.0833 38.4165Z" fill="#000F8F"/>
<path d="M40.3333 38.4165C39.825 38.4165 39.3375 38.6184 38.978 38.9779C38.6186 39.3373 38.4167 39.8248 38.4167 40.3332C38.4167 42.9398 36.27 46.0832 33.625 46.0832C30.98 46.0832 28.8333 42.9398 28.8333 40.3332C28.8333 39.8248 28.6314 39.3373 28.272 38.9779C27.9125 38.6184 27.425 38.4165 26.9167 38.4165C26.4083 38.4165 25.9208 38.6184 25.5614 38.9779C25.2019 39.3373 25 39.8248 25 40.3332C25 44.8565 28.68 49.9165 33.625 49.9165C38.57 49.9165 42.25 44.8565 42.25 40.3332C42.25 39.8248 42.0481 39.3373 41.6886 38.9779C41.3292 38.6184 40.8417 38.4165 40.3333 38.4165ZM67.1667 70.3865C65.6678 66.5463 63.0258 63.259 59.5978 60.9691C56.1699 58.6793 52.1215 57.4973 48 57.5832C43.8947 57.5171 39.8674 58.7082 36.4586 60.9968C33.0497 63.2854 30.4224 66.5618 28.9292 70.3865C28.7665 70.8694 28.8023 71.3972 29.0288 71.8537C29.2552 72.3102 29.6538 72.658 30.1367 72.8207C30.6196 72.9833 31.1473 72.9475 31.6038 72.7211C32.0603 72.4946 32.4082 72.0961 32.5708 71.6132C33.7688 68.5241 35.897 65.8837 38.6611 64.057C41.4252 62.2303 44.6886 61.3076 48 61.4165C51.2953 61.3276 54.5375 62.2598 57.2824 64.0851C60.0274 65.9105 62.1408 68.5399 63.3333 71.6132C63.4667 72.0099 63.7262 72.352 64.0723 72.5874C64.4184 72.8227 64.832 72.9383 65.25 72.9165C65.4536 72.9428 65.6597 72.9428 65.8633 72.9165C66.1227 72.8479 66.3647 72.7257 66.5739 72.5577C66.783 72.3897 66.9546 72.1797 67.0774 71.9412C67.2002 71.7028 67.2717 71.4412 67.287 71.1733C67.3024 70.9055 67.2614 70.6375 67.1667 70.3865ZM69.0833 38.4165C68.575 38.4165 68.0875 38.6184 67.728 38.9779C67.3686 39.3373 67.1667 39.8248 67.1667 40.3332C67.1667 42.9398 65.02 46.0832 62.375 46.0832C59.73 46.0832 57.5833 42.9398 57.5833 40.3332C57.5833 39.8248 57.3814 39.3373 57.022 38.9779C56.6625 38.6184 56.175 38.4165 55.6667 38.4165C55.1583 38.4165 54.6708 38.6184 54.3114 38.9779C53.9519 39.3373 53.75 39.8248 53.75 40.3332C53.75 44.8565 57.43 49.9165 62.375 49.9165C67.32 49.9165 71 44.8565 71 40.3332C71 39.8248 70.7981 39.3373 70.4386 38.9779C70.0792 38.6184 69.5917 38.4165 69.0833 38.4165Z" fill="black" fill-opacity="0.2"/>
<path d="M40.3333 38.4165C39.825 38.4165 39.3375 38.6184 38.978 38.9779C38.6186 39.3373 38.4167 39.8248 38.4167 40.3332C38.4167 42.9398 36.27 46.0832 33.625 46.0832C30.98 46.0832 28.8333 42.9398 28.8333 40.3332C28.8333 39.8248 28.6314 39.3373 28.272 38.9779C27.9125 38.6184 27.425 38.4165 26.9167 38.4165C26.4083 38.4165 25.9208 38.6184 25.5614 38.9779C25.2019 39.3373 25 39.8248 25 40.3332C25 44.8565 28.68 49.9165 33.625 49.9165C38.57 49.9165 42.25 44.8565 42.25 40.3332C42.25 39.8248 42.0481 39.3373 41.6886 38.9779C41.3292 38.6184 40.8417 38.4165 40.3333 38.4165ZM67.1667 70.3865C65.6678 66.5463 63.0258 63.259 59.5978 60.9691C56.1699 58.6793 52.1215 57.4973 48 57.5832C43.8947 57.5171 39.8674 58.7082 36.4586 60.9968C33.0497 63.2854 30.4224 66.5618 28.9292 70.3865C28.7665 70.8694 28.8023 71.3972 29.0288 71.8537C29.2552 72.3102 29.6538 72.658 30.1367 72.8207C30.6196 72.9833 31.1473 72.9475 31.6038 72.7211C32.0603 72.4946 32.4082 72.0961 32.5708 71.6132C33.7688 68.5241 35.897 65.8837 38.6611 64.057C41.4252 62.2303 44.6886 61.3076 48 61.4165C51.2953 61.3276 54.5375 62.2598 57.2824 64.0851C60.0274 65.9105 62.1408 68.5399 63.3333 71.6132C63.4667 72.0099 63.7262 72.352 64.0723 72.5874C64.4184 72.8227 64.832 72.9383 65.25 72.9165C65.4536 72.9428 65.6597 72.9428 65.8633 72.9165C66.1227 72.8479 66.3647 72.7257 66.5739 72.5577C66.783 72.3897 66.9546 72.1797 67.0774 71.9412C67.2002 71.7028 67.2717 71.4412 67.287 71.1733C67.3024 70.9055 67.2614 70.6375 67.1667 70.3865ZM69.0833 38.4165C68.575 38.4165 68.0875 38.6184 67.728 38.9779C67.3686 39.3373 67.1667 39.8248 67.1667 40.3332C67.1667 42.9398 65.02 46.0832 62.375 46.0832C59.73 46.0832 57.5833 42.9398 57.5833 40.3332C57.5833 39.8248 57.3814 39.3373 57.022 38.9779C56.6625 38.6184 56.175 38.4165 55.6667 38.4165C55.1583 38.4165 54.6708 38.6184 54.3114 38.9779C53.9519 39.3373 53.75 39.8248 53.75 40.3332C53.75 44.8565 57.43 49.9165 62.375 49.9165C67.32 49.9165 71 44.8565 71 40.3332C71 39.8248 70.7981 39.3373 70.4386 38.9779C70.0792 38.6184 69.5917 38.4165 69.0833 38.4165Z" fill="black" fill-opacity="0.2"/>
<path d="M40.3333 38.4165C39.825 38.4165 39.3375 38.6184 38.978 38.9779C38.6186 39.3373 38.4167 39.8248 38.4167 40.3332C38.4167 42.9398 36.27 46.0832 33.625 46.0832C30.98 46.0832 28.8333 42.9398 28.8333 40.3332C28.8333 39.8248 28.6314 39.3373 28.272 38.9779C27.9125 38.6184 27.425 38.4165 26.9167 38.4165C26.4083 38.4165 25.9208 38.6184 25.5614 38.9779C25.2019 39.3373 25 39.8248 25 40.3332C25 44.8565 28.68 49.9165 33.625 49.9165C38.57 49.9165 42.25 44.8565 42.25 40.3332C42.25 39.8248 42.0481 39.3373 41.6886 38.9779C41.3292 38.6184 40.8417 38.4165 40.3333 38.4165ZM67.1667 70.3865C65.6678 66.5463 63.0258 63.259 59.5978 60.9691C56.1699 58.6793 52.1215 57.4973 48 57.5832C43.8947 57.5171 39.8674 58.7082 36.4586 60.9968C33.0497 63.2854 30.4224 66.5618 28.9292 70.3865C28.7665 70.8694 28.8023 71.3972 29.0288 71.8537C29.2552 72.3102 29.6538 72.658 30.1367 72.8207C30.6196 72.9833 31.1473 72.9475 31.6038 72.7211C32.0603 72.4946 32.4082 72.0961 32.5708 71.6132C33.7688 68.5241 35.897 65.8837 38.6611 64.057C41.4252 62.2303 44.6886 61.3076 48 61.4165C51.2953 61.3276 54.5375 62.2598 57.2824 64.0851C60.0274 65.9105 62.1408 68.5399 63.3333 71.6132C63.4667 72.0099 63.7262 72.352 64.0723 72.5874C64.4184 72.8227 64.832 72.9383 65.25 72.9165C65.4536 72.9428 65.6597 72.9428 65.8633 72.9165C66.1227 72.8479 66.3647 72.7257 66.5739 72.5577C66.783 72.3897 66.9546 72.1797 67.0774 71.9412C67.2002 71.7028 67.2717 71.4412 67.287 71.1733C67.3024 70.9055 67.2614 70.6375 67.1667 70.3865ZM69.0833 38.4165C68.575 38.4165 68.0875 38.6184 67.728 38.9779C67.3686 39.3373 67.1667 39.8248 67.1667 40.3332C67.1667 42.9398 65.02 46.0832 62.375 46.0832C59.73 46.0832 57.5833 42.9398 57.5833 40.3332C57.5833 39.8248 57.3814 39.3373 57.022 38.9779C56.6625 38.6184 56.175 38.4165 55.6667 38.4165C55.1583 38.4165 54.6708 38.6184 54.3114 38.9779C53.9519 39.3373 53.75 39.8248 53.75 40.3332C53.75 44.8565 57.43 49.9165 62.375 49.9165C67.32 49.9165 71 44.8565 71 40.3332C71 39.8248 70.7981 39.3373 70.4386 38.9779C70.0792 38.6184 69.5917 38.4165 69.0833 38.4165Z" fill="black" fill-opacity="0.2"/>
<path d="M40.3333 38.4165C39.825 38.4165 39.3375 38.6184 38.978 38.9779C38.6186 39.3373 38.4167 39.8248 38.4167 40.3332C38.4167 42.9398 36.27 46.0832 33.625 46.0832C30.98 46.0832 28.8333 42.9398 28.8333 40.3332C28.8333 39.8248 28.6314 39.3373 28.272 38.9779C27.9125 38.6184 27.425 38.4165 26.9167 38.4165C26.4083 38.4165 25.9208 38.6184 25.5614 38.9779C25.2019 39.3373 25 39.8248 25 40.3332C25 44.8565 28.68 49.9165 33.625 49.9165C38.57 49.9165 42.25 44.8565 42.25 40.3332C42.25 39.8248 42.0481 39.3373 41.6886 38.9779C41.3292 38.6184 40.8417 38.4165 40.3333 38.4165ZM67.1667 70.3865C65.6678 66.5463 63.0258 63.259 59.5978 60.9691C56.1699 58.6793 52.1215 57.4973 48 57.5832C43.8947 57.5171 39.8674 58.7082 36.4586 60.9968C33.0497 63.2854 30.4224 66.5618 28.9292 70.3865C28.7665 70.8694 28.8023 71.3972 29.0288 71.8537C29.2552 72.3102 29.6538 72.658 30.1367 72.8207C30.6196 72.9833 31.1473 72.9475 31.6038 72.7211C32.0603 72.4946 32.4082 72.0961 32.5708 71.6132C33.7688 68.5241 35.897 65.8837 38.6611 64.057C41.4252 62.2303 44.6886 61.3076 48 61.4165C51.2953 61.3276 54.5375 62.2598 57.2824 64.0851C60.0274 65.9105 62.1408 68.5399 63.3333 71.6132C63.4667 72.0099 63.7262 72.352 64.0723 72.5874C64.4184 72.8227 64.832 72.9383 65.25 72.9165C65.4536 72.9428 65.6597 72.9428 65.8633 72.9165C66.1227 72.8479 66.3647 72.7257 66.5739 72.5577C66.783 72.3897 66.9546 72.1797 67.0774 71.9412C67.2002 71.7028 67.2717 71.4412 67.287 71.1733C67.3024 70.9055 67.2614 70.6375 67.1667 70.3865ZM69.0833 38.4165C68.575 38.4165 68.0875 38.6184 67.728 38.9779C67.3686 39.3373 67.1667 39.8248 67.1667 40.3332C67.1667 42.9398 65.02 46.0832 62.375 46.0832C59.73 46.0832 57.5833 42.9398 57.5833 40.3332C57.5833 39.8248 57.3814 39.3373 57.022 38.9779C56.6625 38.6184 56.175 38.4165 55.6667 38.4165C55.1583 38.4165 54.6708 38.6184 54.3114 38.9779C53.9519 39.3373 53.75 39.8248 53.75 40.3332C53.75 44.8565 57.43 49.9165 62.375 49.9165C67.32 49.9165 71 44.8565 71 40.3332C71 39.8248 70.7981 39.3373 70.4386 38.9779C70.0792 38.6184 69.5917 38.4165 69.0833 38.4165Z" fill="black" fill-opacity="0.2"/>
<path d="M40.3333 38.4165C39.825 38.4165 39.3375 38.6184 38.978 38.9779C38.6186 39.3373 38.4167 39.8248 38.4167 40.3332C38.4167 42.9398 36.27 46.0832 33.625 46.0832C30.98 46.0832 28.8333 42.9398 28.8333 40.3332C28.8333 39.8248 28.6314 39.3373 28.272 38.9779C27.9125 38.6184 27.425 38.4165 26.9167 38.4165C26.4083 38.4165 25.9208 38.6184 25.5614 38.9779C25.2019 39.3373 25 39.8248 25 40.3332C25 44.8565 28.68 49.9165 33.625 49.9165C38.57 49.9165 42.25 44.8565 42.25 40.3332C42.25 39.8248 42.0481 39.3373 41.6886 38.9779C41.3292 38.6184 40.8417 38.4165 40.3333 38.4165ZM67.1667 70.3865C65.6678 66.5463 63.0258 63.259 59.5978 60.9691C56.1699 58.6793 52.1215 57.4973 48 57.5832C43.8947 57.5171 39.8674 58.7082 36.4586 60.9968C33.0497 63.2854 30.4224 66.5618 28.9292 70.3865C28.7665 70.8694 28.8023 71.3972 29.0288 71.8537C29.2552 72.3102 29.6538 72.658 30.1367 72.8207C30.6196 72.9833 31.1473 72.9475 31.6038 72.7211C32.0603 72.4946 32.4082 72.0961 32.5708 71.6132C33.7688 68.5241 35.897 65.8837 38.6611 64.057C41.4252 62.2303 44.6886 61.3076 48 61.4165C51.2953 61.3276 54.5375 62.2598 57.2824 64.0851C60.0274 65.9105 62.1408 68.5399 63.3333 71.6132C63.4667 72.0099 63.7262 72.352 64.0723 72.5874C64.4184 72.8227 64.832 72.9383 65.25 72.9165C65.4536 72.9428 65.6597 72.9428 65.8633 72.9165C66.1227 72.8479 66.3647 72.7257 66.5739 72.5577C66.783 72.3897 66.9546 72.1797 67.0774 71.9412C67.2002 71.7028 67.2717 71.4412 67.287 71.1733C67.3024 70.9055 67.2614 70.6375 67.1667 70.3865ZM69.0833 38.4165C68.575 38.4165 68.0875 38.6184 67.728 38.9779C67.3686 39.3373 67.1667 39.8248 67.1667 40.3332C67.1667 42.9398 65.02 46.0832 62.375 46.0832C59.73 46.0832 57.5833 42.9398 57.5833 40.3332C57.5833 39.8248 57.3814 39.3373 57.022 38.9779C56.6625 38.6184 56.175 38.4165 55.6667 38.4165C55.1583 38.4165 54.6708 38.6184 54.3114 38.9779C53.9519 39.3373 53.75 39.8248 53.75 40.3332C53.75 44.8565 57.43 49.9165 62.375 49.9165C67.32 49.9165 71 44.8565 71 40.3332C71 39.8248 70.7981 39.3373 70.4386 38.9779C70.0792 38.6184 69.5917 38.4165 69.0833 38.4165Z" fill="black" fill-opacity="0.2"/>
<path d="M59.5 26.9165C59.5186 27.0114 59.5186 27.1091 59.5 27.204C59.5 27.204 59.5 27.0507 59.5 26.9165Z" fill="black"/>
<path d="M59.5013 7.74967C59.5013 6.69113 58.6432 5.83301 57.5846 5.83301C56.5261 5.83301 55.668 6.69113 55.668 7.74967V26.9163C55.668 27.9749 56.5261 28.833 57.5846 28.833C58.6432 28.833 59.5013 27.9749 59.5013 26.9163V7.74967Z" fill="#8A00FA"/>
<path d="M67.1693 5.83317C67.1693 4.77462 66.3112 3.9165 65.2526 3.9165C64.1941 3.9165 63.3359 4.77462 63.3359 5.83317V26.9165C63.3359 27.975 64.1941 28.8332 65.2526 28.8332C66.3112 28.8332 67.1693 27.975 67.1693 26.9165V5.83317Z" fill="#8A00FA"/>
<path d="M74.8333 7.74967C74.8333 6.69113 73.9752 5.83301 72.9167 5.83301C71.8581 5.83301 71 6.69113 71 7.74967V30.7497C71 31.8082 71.8581 32.6663 72.9167 32.6663C73.9752 32.6663 74.8333 31.8082 74.8333 30.7497V7.74967Z" fill="#8A00FA"/>
<path d="M67.1667 70.3863C67.2614 70.6373 67.3024 70.9053 67.2871 71.1731C67.2717 71.441 67.2003 71.7026 67.0774 71.941C66.9546 72.1795 66.783 72.3895 66.5739 72.5575C66.3647 72.7255 66.1227 72.8478 65.8633 72.9163C65.6597 72.9426 65.4536 72.9426 65.25 72.9163C64.832 72.9381 64.4184 72.8225 64.0723 72.5872C63.7262 72.3518 63.4667 72.0097 63.3333 71.613C62.1408 68.5397 60.0274 65.9103 57.2824 64.085C54.5375 62.2596 51.2953 61.3275 48 61.4163V57.583C52.1215 57.4971 56.1699 58.6791 59.5978 60.9689C63.0258 63.2588 65.6678 66.5461 67.1667 70.3863Z" fill="#000F8F"/>
<path d="M67.1667 70.3863C67.2614 70.6373 67.3024 70.9053 67.2871 71.1731C67.2717 71.441 67.2003 71.7026 67.0774 71.941C66.9546 72.1795 66.783 72.3895 66.5739 72.5575C66.3647 72.7255 66.1227 72.8478 65.8633 72.9163C65.6597 72.9426 65.4536 72.9426 65.25 72.9163C64.832 72.9381 64.4184 72.8225 64.0723 72.5872C63.7262 72.3518 63.4667 72.0097 63.3333 71.613C62.1408 68.5397 60.0274 65.9103 57.2824 64.085C54.5375 62.2596 51.2953 61.3275 48 61.4163V57.583C52.1215 57.4971 56.1699 58.6791 59.5978 60.9689C63.0258 63.2588 65.6678 66.5461 67.1667 70.3863Z" fill="black" fill-opacity="0.2"/>
<path d="M67.1667 70.3863C67.2614 70.6373 67.3024 70.9053 67.2871 71.1731C67.2717 71.441 67.2003 71.7026 67.0774 71.941C66.9546 72.1795 66.783 72.3895 66.5739 72.5575C66.3647 72.7255 66.1227 72.8478 65.8633 72.9163C65.6597 72.9426 65.4536 72.9426 65.25 72.9163C64.832 72.9381 64.4184 72.8225 64.0723 72.5872C63.7262 72.3518 63.4667 72.0097 63.3333 71.613C62.1408 68.5397 60.0274 65.9103 57.2824 64.085C54.5375 62.2596 51.2953 61.3275 48 61.4163V57.583C52.1215 57.4971 56.1699 58.6791 59.5978 60.9689C63.0258 63.2588 65.6678 66.5461 67.1667 70.3863Z" fill="black" fill-opacity="0.2"/>
<path d="M67.1667 70.3863C67.2614 70.6373 67.3024 70.9053 67.2871 71.1731C67.2717 71.441 67.2003 71.7026 67.0774 71.941C66.9546 72.1795 66.783 72.3895 66.5739 72.5575C66.3647 72.7255 66.1227 72.8478 65.8633 72.9163C65.6597 72.9426 65.4536 72.9426 65.25 72.9163C64.832 72.9381 64.4184 72.8225 64.0723 72.5872C63.7262 72.3518 63.4667 72.0097 63.3333 71.613C62.1408 68.5397 60.0274 65.9103 57.2824 64.085C54.5375 62.2596 51.2953 61.3275 48 61.4163V57.583C52.1215 57.4971 56.1699 58.6791 59.5978 60.9689C63.0258 63.2588 65.6678 66.5461 67.1667 70.3863Z" fill="black" fill-opacity="0.2"/>
<path d="M67.1667 70.3863C67.2614 70.6373 67.3024 70.9053 67.2871 71.1731C67.2717 71.441 67.2003 71.7026 67.0774 71.941C66.9546 72.1795 66.783 72.3895 66.5739 72.5575C66.3647 72.7255 66.1227 72.8478 65.8633 72.9163C65.6597 72.9426 65.4536 72.9426 65.25 72.9163C64.832 72.9381 64.4184 72.8225 64.0723 72.5872C63.7262 72.3518 63.4667 72.0097 63.3333 71.613C62.1408 68.5397 60.0274 65.9103 57.2824 64.085C54.5375 62.2596 51.2953 61.3275 48 61.4163V57.583C52.1215 57.4971 56.1699 58.6791 59.5978 60.9689C63.0258 63.2588 65.6678 66.5461 67.1667 70.3863Z" fill="black" fill-opacity="0.2"/>
<path d="M67.1667 70.3863C67.2614 70.6373 67.3024 70.9053 67.2871 71.1731C67.2717 71.441 67.2003 71.7026 67.0774 71.941C66.9546 72.1795 66.783 72.3895 66.5739 72.5575C66.3647 72.7255 66.1227 72.8478 65.8633 72.9163C65.6597 72.9426 65.4536 72.9426 65.25 72.9163C64.832 72.9381 64.4184 72.8225 64.0723 72.5872C63.7262 72.3518 63.4667 72.0097 63.3333 71.613C62.1408 68.5397 60.0274 65.9103 57.2824 64.085C54.5375 62.2596 51.2953 61.3275 48 61.4163V57.583C52.1215 57.4971 56.1699 58.6791 59.5978 60.9689C63.0258 63.2588 65.6678 66.5461 67.1667 70.3863Z" fill="black" fill-opacity="0.2"/>
<path d="M71 40.3332C71 44.8565 67.32 49.9165 62.375 49.9165C57.43 49.9165 53.75 44.8565 53.75 40.3332C53.75 39.8248 53.9519 39.3373 54.3114 38.9779C54.6708 38.6184 55.1583 38.4165 55.6667 38.4165C56.175 38.4165 56.6625 38.6184 57.022 38.9779C57.3814 39.3373 57.5833 39.8248 57.5833 40.3332C57.5833 42.9398 59.73 46.0832 62.375 46.0832C65.02 46.0832 67.1667 42.9398 67.1667 40.3332C67.1667 39.8248 67.3686 39.3373 67.728 38.9779C68.0875 38.6184 68.575 38.4165 69.0833 38.4165C69.5917 38.4165 70.0792 38.6184 70.4386 38.9779C70.7981 39.3373 71 39.8248 71 40.3332Z" fill="#000F8F"/>
<path d="M71 40.3332C71 44.8565 67.32 49.9165 62.375 49.9165C57.43 49.9165 53.75 44.8565 53.75 40.3332C53.75 39.8248 53.9519 39.3373 54.3114 38.9779C54.6708 38.6184 55.1583 38.4165 55.6667 38.4165C56.175 38.4165 56.6625 38.6184 57.022 38.9779C57.3814 39.3373 57.5833 39.8248 57.5833 40.3332C57.5833 42.9398 59.73 46.0832 62.375 46.0832C65.02 46.0832 67.1667 42.9398 67.1667 40.3332C67.1667 39.8248 67.3686 39.3373 67.728 38.9779C68.0875 38.6184 68.575 38.4165 69.0833 38.4165C69.5917 38.4165 70.0792 38.6184 70.4386 38.9779C70.7981 39.3373 71 39.8248 71 40.3332Z" fill="black" fill-opacity="0.2"/>
<path d="M71 40.3332C71 44.8565 67.32 49.9165 62.375 49.9165C57.43 49.9165 53.75 44.8565 53.75 40.3332C53.75 39.8248 53.9519 39.3373 54.3114 38.9779C54.6708 38.6184 55.1583 38.4165 55.6667 38.4165C56.175 38.4165 56.6625 38.6184 57.022 38.9779C57.3814 39.3373 57.5833 39.8248 57.5833 40.3332C57.5833 42.9398 59.73 46.0832 62.375 46.0832C65.02 46.0832 67.1667 42.9398 67.1667 40.3332C67.1667 39.8248 67.3686 39.3373 67.728 38.9779C68.0875 38.6184 68.575 38.4165 69.0833 38.4165C69.5917 38.4165 70.0792 38.6184 70.4386 38.9779C70.7981 39.3373 71 39.8248 71 40.3332Z" fill="black" fill-opacity="0.2"/>
<path d="M71 40.3332C71 44.8565 67.32 49.9165 62.375 49.9165C57.43 49.9165 53.75 44.8565 53.75 40.3332C53.75 39.8248 53.9519 39.3373 54.3114 38.9779C54.6708 38.6184 55.1583 38.4165 55.6667 38.4165C56.175 38.4165 56.6625 38.6184 57.022 38.9779C57.3814 39.3373 57.5833 39.8248 57.5833 40.3332C57.5833 42.9398 59.73 46.0832 62.375 46.0832C65.02 46.0832 67.1667 42.9398 67.1667 40.3332C67.1667 39.8248 67.3686 39.3373 67.728 38.9779C68.0875 38.6184 68.575 38.4165 69.0833 38.4165C69.5917 38.4165 70.0792 38.6184 70.4386 38.9779C70.7981 39.3373 71 39.8248 71 40.3332Z" fill="black" fill-opacity="0.2"/>
<path d="M71 40.3332C71 44.8565 67.32 49.9165 62.375 49.9165C57.43 49.9165 53.75 44.8565 53.75 40.3332C53.75 39.8248 53.9519 39.3373 54.3114 38.9779C54.6708 38.6184 55.1583 38.4165 55.6667 38.4165C56.175 38.4165 56.6625 38.6184 57.022 38.9779C57.3814 39.3373 57.5833 39.8248 57.5833 40.3332C57.5833 42.9398 59.73 46.0832 62.375 46.0832C65.02 46.0832 67.1667 42.9398 67.1667 40.3332C67.1667 39.8248 67.3686 39.3373 67.728 38.9779C68.0875 38.6184 68.575 38.4165 69.0833 38.4165C69.5917 38.4165 70.0792 38.6184 70.4386 38.9779C70.7981 39.3373 71 39.8248 71 40.3332Z" fill="black" fill-opacity="0.2"/>
<path d="M71 40.3332C71 44.8565 67.32 49.9165 62.375 49.9165C57.43 49.9165 53.75 44.8565 53.75 40.3332C53.75 39.8248 53.9519 39.3373 54.3114 38.9779C54.6708 38.6184 55.1583 38.4165 55.6667 38.4165C56.175 38.4165 56.6625 38.6184 57.022 38.9779C57.3814 39.3373 57.5833 39.8248 57.5833 40.3332C57.5833 42.9398 59.73 46.0832 62.375 46.0832C65.02 46.0832 67.1667 42.9398 67.1667 40.3332C67.1667 39.8248 67.3686 39.3373 67.728 38.9779C68.0875 38.6184 68.575 38.4165 69.0833 38.4165C69.5917 38.4165 70.0792 38.6184 70.4386 38.9779C70.7981 39.3373 71 39.8248 71 40.3332Z" fill="black" fill-opacity="0.2"/>
</svg>
