<svg width="47" height="47" viewBox="0 0 47 47" fill="none" xmlns="http://www.w3.org/2000/svg">
<circle cx="23.5" cy="23.5" r="23.5" fill="#E6F9FF"/>
<g clip-path="url(#clip0_902_91304)">
<path d="M20.1967 31.8224C26.5854 31.8224 31.7644 26.8159 31.7644 20.6402C31.7644 14.4644 26.5854 9.45801 20.1967 9.45801C13.808 9.45801 8.62891 14.4644 8.62891 20.6402C8.62891 26.8159 13.808 31.8224 20.1967 31.8224Z" fill="#C782FF"/>
<path d="M23.9422 10.0576C26.006 15.9064 22.7742 22.265 16.7237 24.26C14.301 25.0589 11.6727 25.0589 9.25 24.26C11.3188 30.104 17.8967 33.2202 23.9422 31.2204C29.9876 29.2206 33.2113 22.8619 31.1425 17.018C29.9844 13.7467 27.3262 11.1771 23.9422 10.0576Z" fill="#9B4FD9"/>
<path d="M36.1131 29.0386C36.3362 28.4211 36.5076 27.7873 36.6255 27.1432C36.7193 26.622 36.4936 26.0954 36.0461 25.791C35.4915 25.4161 34.9065 25.0849 34.2969 24.8008L34.7207 26.9197L36.1131 29.0386Z" fill="#B56959"/>
<path d="M19.087 36.7377C18.0906 36.3674 17.1469 35.8761 16.2788 35.2756C15.8444 34.9725 15.6241 34.4584 15.7096 33.9471C15.8838 32.9317 16.1905 31.9418 16.6225 31.001L18.459 33.8693L19.087 36.7377Z" fill="#A85B4A"/>
<path d="M21.0524 37.2989C23.1403 37.7176 25.7378 37.6911 28.6813 36.5126C32.1137 35.1382 34.086 32.9702 35.2181 30.9853L34.2981 27.2126L32.2435 24.0377C29.9908 23.4074 27.0092 23.2218 23.5754 24.5967C20.6318 25.7754 18.7755 27.5323 17.6055 29.2557L18.8378 33.4679L21.0524 37.2989Z" fill="#B56959"/>
<path d="M29.1023 35.1644C24.1853 35.1644 20.1679 31.3691 20.0548 26.6172C19.1058 27.3724 18.2801 28.2617 17.6055 29.255L18.8378 33.4672L21.0524 37.2982C23.1403 37.7169 25.7379 37.6904 28.6814 36.5118C29.821 36.0615 30.8942 35.4678 31.8731 34.7461C30.9777 35.024 30.0428 35.1651 29.1023 35.1644Z" fill="#A85B4A"/>
<path d="M32.2383 24.0371L35.2154 30.985C35.5707 30.3615 35.8708 29.71 36.1124 29.0375L34.2971 24.8011C33.6344 24.4907 32.9457 24.2352 32.2383 24.0371Z" fill="#F2F2FF"/>
<path d="M19.0775 36.7343C19.718 36.974 20.3779 37.1624 21.0503 37.2975L17.6041 29.2549C17.2274 29.8101 16.8986 30.3943 16.6211 31.0016L19.0775 36.7343Z" fill="#CCCCF0"/>
<path d="M12.3122 36.2519C15.0497 36.2519 17.2689 34.1067 17.2689 31.4604C17.2689 28.8142 15.0497 26.6689 12.3122 26.6689C9.57466 26.6689 7.35547 28.8142 7.35547 31.4604C7.35547 34.1067 9.57466 36.2519 12.3122 36.2519Z" fill="#F2F2FF"/>
<path d="M14.5454 27.1816C14.1048 30.5433 11.1652 33.0747 7.66016 33.1111C8.6035 35.5953 11.4515 36.87 14.0215 35.9581C16.5914 35.0462 17.91 32.2931 16.9666 29.8088C16.5334 28.668 15.6679 27.7289 14.5454 27.1816Z" fill="#E6E6FF"/>
<path d="M36.2496 25.5104C35.6794 25.1245 35.0778 24.7839 34.4508 24.4919C33.7733 24.175 33.0695 23.9136 32.3468 23.7108C32.3445 23.71 32.3425 23.7088 32.3402 23.7082C32.1387 23.6518 31.9369 23.6004 31.7347 23.5539C31.9908 22.6026 32.1202 21.6236 32.1199 20.6405C32.1199 14.2855 26.7714 9.11523 20.1971 9.11523C13.6229 9.11523 8.27439 14.2855 8.27439 20.6406C8.2703 22.8162 8.90679 24.9479 10.1096 26.7868C9.71732 26.9605 9.34833 27.1794 9.01051 27.4388C6.7124 29.2012 6.3275 32.4309 8.15073 34.6524C9.97396 36.8738 13.3149 37.2459 15.6131 35.4835C15.6788 35.4331 15.7432 35.3812 15.8064 35.3279C16.0208 35.5522 21.368 39.8116 28.8152 36.8296C31.8018 35.6338 34.0599 33.7232 35.5269 31.1511L35.5264 31.1508C35.8911 30.5105 36.1992 29.8416 36.4474 29.1511C36.6771 28.5162 36.8534 27.8643 36.9745 27.202C37.09 26.5502 36.8081 25.8922 36.2496 25.5104ZM36.2751 27.0843C36.2191 27.3949 36.1477 27.7088 36.0619 28.0236L35.0033 25.5531C35.2943 25.7171 35.5744 25.8903 35.8411 26.0717C36.1754 26.3003 36.3442 26.6941 36.2751 27.0843ZM31.0389 23.4123C30.7621 23.3635 30.4848 23.3236 30.2069 23.2927C30.1159 19.2392 27.9233 16.809 26.3924 15.0296C25.6657 14.1849 25.0223 13.436 24.6466 12.6908C26.4153 12.7772 27.8049 13.3069 29.0081 13.9441C31.1848 16.6171 31.9367 20.123 31.0389 23.4123ZM24.5951 23.867C24.5226 21.1574 23.9212 17.0435 20.9021 13.1147C21.8694 12.86 22.864 12.7148 23.866 12.682C24.2526 13.6145 24.9956 14.4792 25.8467 15.4684C27.4732 17.359 29.3947 19.5936 29.4987 23.2334C27.8375 23.1459 26.1741 23.3608 24.5951 23.867ZM27.7417 12.6291C26.6667 12.229 25.5285 12.0106 24.3769 11.9833C24.2656 11.5206 24.258 11.0402 24.3546 10.5745C25.6016 11.0581 26.7488 11.754 27.7417 12.6291ZM23.6801 10.3375C23.552 10.8804 23.5422 11.4431 23.6514 11.9898C22.5586 12.0441 21.4764 12.2234 20.4273 12.524C19.6656 11.6068 18.8009 10.7742 17.8492 10.0414C19.7858 9.64111 21.7975 9.7433 23.6801 10.3375ZM16.9642 10.2615C17.338 10.5133 18.4602 11.3241 19.693 12.7426C18.9586 12.9766 17.8699 13.3188 16.2316 14.3581C14.8869 13.1786 13.3491 12.9593 12.2581 12.9938C13.5687 11.7206 15.1858 10.7817 16.9642 10.2615ZM11.5467 13.7515C12.3902 13.622 14.1428 13.5486 15.6294 14.7605C11.8706 17.3963 10.1533 21.0614 9.45222 23.7456C8.38419 20.2849 9.16956 16.5375 11.5467 13.7515ZM9.90926 24.9586C10.2259 23.1995 11.4853 18.4625 16.1423 15.2497C17.0994 16.3462 16.8037 17.5024 16.333 19.3423C15.8207 21.3448 15.1662 23.908 15.8335 27.6213C14.4596 26.4415 12.5522 26.0324 10.791 26.5397C10.4522 26.0373 10.1573 25.5084 9.90926 24.9586ZM7.74043 30.9521C7.85847 29.9368 8.3371 28.9925 9.09481 28.2802C9.18865 28.5317 9.26761 28.788 9.33128 29.0481L8.81335 29.3569C8.40981 29.5976 8.79057 30.1766 9.18604 29.9411L9.47795 29.767C9.53305 30.1131 9.56827 30.462 9.58355 30.8119L9.07345 30.7552C8.60726 30.7034 8.52541 31.385 8.99222 31.4369L9.58934 31.5034C9.5773 31.9404 9.53748 32.3764 9.47006 32.8087L9.00142 32.548C8.59431 32.3211 8.24065 32.9164 8.64719 33.1427L9.33435 33.5251C9.24006 33.9468 9.13826 34.2942 9.04164 34.5905C8.05695 33.6328 7.57775 32.2932 7.74043 30.9521ZM11.7854 35.8803C11.0061 35.7949 10.2626 35.5174 9.62615 35.0742C9.7313 34.7711 9.85973 34.3747 9.9797 33.8841L10.2746 34.0482C10.6778 34.2729 11.0398 33.6823 10.6289 33.4535L10.1303 33.176C10.2263 32.6495 10.2839 32.1171 10.3029 31.5828L10.8324 31.6417C11.2987 31.6938 11.3806 31.0119 10.9137 30.96L10.3033 30.8921C10.2875 30.383 10.2315 29.8758 10.1356 29.3749L10.8233 28.9649C11.2228 28.7266 10.8507 28.1425 10.4506 28.3807L9.96851 28.6682C9.88933 28.3789 9.79032 28.095 9.67216 27.8183C11.5792 26.5247 14.1861 26.8158 15.7379 28.4956C15.5583 28.7385 15.3957 28.9927 15.2509 29.2564L14.849 28.8705C14.5157 28.5502 14.0156 29.0376 14.3487 29.3573L14.9224 29.9083C14.7113 30.3748 14.5375 30.8563 14.4025 31.3485L13.7915 31.2805C13.3253 31.228 13.2434 31.9103 13.7103 31.9622L14.2411 32.0213C14.1335 32.5457 14.0641 33.0768 14.0336 33.6106L13.4825 33.7713C13.0313 33.903 13.2395 34.5593 13.6876 34.4284L14.0135 34.3333C14.0149 34.8388 14.0454 35.2376 14.078 35.5698C13.354 35.8614 12.5645 35.9683 11.7854 35.8803ZM14.7607 35.227C14.7367 34.9194 14.7199 34.5608 14.7278 34.1249L15.4852 33.904C15.9356 33.7726 15.7286 33.1159 15.2801 33.2469L14.7647 33.3972C14.8012 32.9617 14.8653 32.5288 14.9567 32.1009L15.5505 32.167C16.0168 32.2191 16.0987 31.5372 15.6317 31.4853L15.1253 31.4289C15.2225 31.0924 15.3387 30.7613 15.4733 30.4371L15.7135 30.6677C16.0425 30.9838 16.551 30.5045 16.2139 30.1809L15.7847 29.7687C15.9071 29.5302 16.0433 29.2984 16.1924 29.0745C17.5575 31.1433 16.9291 33.8902 14.789 35.2097C14.7795 35.2155 14.7701 35.2213 14.7607 35.227ZM16.3089 34.8428C16.7076 34.4047 17.0251 33.9034 17.2476 33.3609L18.4167 36.0893C17.4188 35.6376 16.492 35.0446 16.3089 34.8428ZM19.3469 36.467L17.5546 32.2843C17.6738 31.5786 17.6383 30.8566 17.4503 30.1651C17.4807 30.1124 17.5106 30.0594 17.5419 30.0071L20.4567 36.8096C20.0822 36.7127 19.711 36.5981 19.3469 36.467ZM28.5434 36.1956C26.1155 37.1678 23.6814 37.4371 21.3059 36.998L18.005 29.2945C18.4864 28.6088 19.0432 27.9754 19.6656 27.4056C20.0069 27.0935 19.5186 26.5949 19.1777 26.9071C18.4696 27.5548 17.8416 28.2797 17.3066 29.0675C17.3053 29.0695 17.3046 29.0717 17.3033 29.0737C17.2478 29.1556 17.1932 29.2385 17.1394 29.3224C17.041 29.1166 16.9287 28.9173 16.8032 28.7258C15.7947 24.6251 16.3919 21.9707 17.0221 19.5071C17.4888 17.6827 17.8635 16.2137 16.7316 14.8636C18.3199 13.8745 19.4217 13.543 20.1709 13.3178C23.2217 17.1609 23.8349 21.25 23.8876 24.1079C23.0551 24.4109 22.2518 24.7842 21.487 25.2233C21.0794 25.4587 21.4525 26.0427 21.8511 25.8124C24.012 24.5646 27.7228 23.1929 31.976 24.3227L34.8213 30.9629C33.4324 33.3229 31.3214 35.0832 28.5434 36.1956ZM35.2496 30.1688L32.8598 24.5915C33.2541 24.727 33.6424 24.8818 34.0212 25.0544L35.7324 29.0477C35.5906 29.4286 35.4293 29.8034 35.2496 30.1688Z" fill="#484848"/>
<path d="M20.5073 26.615C20.7034 26.615 20.8623 26.4614 20.8623 26.2718C20.8623 26.0823 20.7034 25.9287 20.5073 25.9287C20.3113 25.9287 20.1523 26.0823 20.1523 26.2718C20.1523 26.4614 20.3113 26.615 20.5073 26.615Z" fill="#484848"/>
<path d="M30.8285 25.9918C30.0537 26.1148 29.2683 26.2797 28.4724 26.4868L28.2396 25.9437C28.06 25.5246 27.4039 25.7866 27.5837 26.2063L27.7845 26.6749C26.9518 26.9145 26.1129 27.1978 25.2678 27.5249L25.074 27.0728C24.8942 26.6529 24.2386 26.9164 24.4182 27.3354L24.6119 27.7873C23.777 28.1325 22.9765 28.5055 22.2105 28.9065L22.0097 28.4382C21.8296 28.0178 21.1745 28.2823 21.3539 28.7007L21.5864 29.2433C21.1122 29.5076 20.6545 29.782 20.2131 30.0665C19.8176 30.3215 20.2215 30.8862 20.6071 30.6373C21.0101 30.3775 21.4279 30.1262 21.8606 29.8832L22.1274 30.5059C22.3068 30.9248 22.9639 30.6646 22.7832 30.2433L22.4835 29.5439C23.2458 29.1423 24.0458 28.7681 24.8835 28.4214L25.1917 29.1405C25.3711 29.5594 26.0282 29.2993 25.8475 28.8779L25.5394 28.1589C26.3844 27.8317 27.2238 27.5494 28.0576 27.3121L28.3572 28.0114C28.5369 28.4306 29.1936 28.1698 29.0131 27.7488L28.7463 27.1261C29.4876 26.9366 30.2199 26.7842 30.9436 26.6689C31.4067 26.5955 31.2927 25.9185 30.8285 25.9918Z" fill="#484848"/>
</g>
<defs>
<clipPath id="clip0_902_91304">
<rect width="30" height="29" fill="white" transform="translate(7 9)"/>
</clipPath>
</defs>
</svg>
