<svg width="50" height="49" viewBox="0 0 50 49" fill="none" xmlns="http://www.w3.org/2000/svg">
<circle cx="24.9766" cy="24.5" r="24.5" fill="#E6F9FF"/>
<path d="M25.1977 33.7076C31.5864 33.7076 36.7654 28.7012 36.7654 22.5254C36.7654 16.3497 31.5864 11.3433 25.1977 11.3433C18.8089 11.3433 13.6299 16.3497 13.6299 22.5254C13.6299 28.7012 18.8089 33.7076 25.1977 33.7076Z" fill="#C782FF"/>
<path d="M28.9412 11.9424C31.005 17.7912 27.7732 24.1498 21.7227 26.1448C19.3 26.9436 16.6717 26.9436 14.249 26.1448C16.3178 31.9887 22.8957 35.105 28.9412 33.1052C34.9866 31.1054 38.2103 24.7467 36.1415 18.9028C34.9835 15.6314 32.3253 13.0618 28.9412 11.9424Z" fill="#9B4FD9"/>
<path d="M41.1121 30.9234C41.3353 30.3059 41.5066 29.6721 41.6245 29.028C41.7183 28.5068 41.4926 27.9802 41.0451 27.6758C40.4905 27.3008 39.9055 26.9697 39.2959 26.6855L39.7198 28.8045L41.1121 30.9234Z" fill="#B56959"/>
<path d="M24.086 38.6235C23.0896 38.2532 22.146 37.7619 21.2778 37.1614C20.8434 36.8583 20.6232 36.3442 20.7086 35.8329C20.8828 34.8175 21.1896 33.8275 21.6215 32.8867L23.4581 35.7551L24.086 38.6235Z" fill="#A85B4A"/>
<path d="M26.0504 39.1837C28.1383 39.6024 30.7358 39.5759 33.6794 38.3973C37.1117 37.023 39.084 34.855 40.2161 32.87L39.2962 29.0974L37.2416 25.9225C34.9888 25.2921 32.0073 25.1065 28.5735 26.4814C25.6298 27.6601 23.7736 29.4171 22.6035 31.1404L23.8359 35.3527L26.0504 39.1837Z" fill="#B56959"/>
<path d="M34.1004 37.0502C29.1833 37.0501 25.1659 33.2549 25.0528 28.5029C24.1039 29.2582 23.2781 30.1474 22.6035 31.1407L23.8359 35.3529L26.0505 39.1839C28.1384 39.6026 30.7359 39.5762 33.6794 38.3976C34.819 37.9472 35.8922 37.3536 36.8712 36.6319C35.9757 36.9098 35.0409 37.0509 34.1004 37.0502Z" fill="#A85B4A"/>
<path d="M37.2383 25.9224L40.2154 32.8702C40.5707 32.2467 40.8708 31.5952 41.1124 30.9227L39.2971 26.6863C38.6344 26.376 37.9457 26.1204 37.2383 25.9224Z" fill="#F2F2FF"/>
<path d="M24.0775 38.62C24.718 38.8597 25.3779 39.0481 26.0503 39.1832L22.6041 31.1406C22.2274 31.6958 21.8986 32.28 21.6211 32.8873L24.0775 38.62Z" fill="#CCCCF0"/>
<path d="M17.3122 38.1372C20.0497 38.1372 22.2689 35.9919 22.2689 33.3457C22.2689 30.6994 20.0497 28.5542 17.3122 28.5542C14.5747 28.5542 12.3555 30.6994 12.3555 33.3457C12.3555 35.9919 14.5747 38.1372 17.3122 38.1372Z" fill="#F2F2FF"/>
<path d="M19.5444 29.0664C19.1038 32.428 16.1643 34.9595 12.6592 34.9959C13.6025 37.4801 16.4506 38.7547 19.0205 37.8428C21.5904 36.9309 22.909 34.1779 21.9656 31.6936C21.5324 30.5528 20.6669 29.6136 19.5444 29.0664Z" fill="#E6E6FF"/>
<path d="M41.2496 27.3952C40.6794 27.0093 40.0778 26.6687 39.4508 26.3767C38.7733 26.0597 38.0695 25.7984 37.3468 25.5955C37.3445 25.5948 37.3425 25.5936 37.3402 25.5929C37.1387 25.5365 36.9369 25.4851 36.7347 25.4387C36.9908 24.4874 37.1202 23.5083 37.1199 22.5253C37.1199 16.1703 31.7714 11 25.1971 11C18.6229 11 13.2744 16.1703 13.2744 22.5254C13.2703 24.7009 13.9068 26.8327 15.1096 28.6716C14.7173 28.8453 14.3483 29.0642 14.0105 29.3235C11.7124 31.086 11.3275 34.3157 13.1507 36.5371C14.974 38.7586 18.3149 39.1307 20.6131 37.3683C20.6788 37.3178 20.7432 37.266 20.8064 37.2126C21.0208 37.437 26.368 41.6963 33.8152 38.7143C36.8018 37.5185 39.0599 35.608 40.5269 33.0358L40.5264 33.0355C40.8911 32.3953 41.1992 31.7263 41.4474 31.0359C41.6771 30.4009 41.8534 29.7491 41.9745 29.0868C42.09 28.435 41.8081 27.777 41.2496 27.3952ZM41.2751 28.969C41.2191 29.2796 41.1477 29.5935 41.0619 29.9084L40.0033 27.4379C40.2943 27.6019 40.5744 27.7751 40.8411 27.9564C41.1754 28.185 41.3442 28.5789 41.2751 28.969ZM36.0389 25.2971C35.7621 25.2483 35.4848 25.2084 35.2069 25.1775C35.1159 21.124 32.9233 18.6937 31.3924 16.9143C30.6657 16.0697 30.0223 15.3208 29.6466 14.5756C31.4153 14.6619 32.8049 15.1916 34.0081 15.8288C36.1848 18.5019 36.9367 22.0078 36.0389 25.2971ZM29.5951 25.7517C29.5226 23.0422 28.9212 18.9283 25.9021 14.9995C26.8694 14.7448 27.864 14.5996 28.866 14.5668C29.2526 15.4993 29.9956 16.364 30.8467 17.3532C32.4732 19.2438 34.3947 21.4783 34.4987 25.1181C32.8375 25.0307 31.1741 25.2456 29.5951 25.7517ZM32.7417 14.5138C31.6667 14.1138 30.5285 13.8954 29.3769 13.8681C29.2656 13.4054 29.258 12.925 29.3546 12.4592C30.6016 12.9428 31.7488 13.6387 32.7417 14.5138ZM28.6801 12.2223C28.552 12.7652 28.5422 13.3279 28.6514 13.8746C27.5586 13.9289 26.4764 14.1082 25.4273 14.4087C24.6656 13.4916 23.8009 12.659 22.8492 11.9261C24.7858 11.5259 26.7975 11.6281 28.6801 12.2223ZM21.9642 12.1463C22.338 12.3981 23.4602 13.2089 24.693 14.6274C23.9586 14.8614 22.8699 15.2036 21.2316 16.2428C19.8869 15.0634 18.3491 14.8441 17.2581 14.8785C18.5687 13.6053 20.1858 12.6665 21.9642 12.1463ZM16.5467 15.6363C17.3902 15.5068 19.1428 15.4334 20.6294 16.6453C16.8706 19.2811 15.1533 22.9461 14.4522 25.6303C13.3842 22.1697 14.1696 18.4222 16.5467 15.6363ZM14.9093 26.8434C15.2259 25.0843 16.4853 20.3473 21.1423 17.1344C22.0994 18.231 21.8037 19.3872 21.333 21.2271C20.8207 23.2296 20.1662 25.7928 20.8335 29.506C19.4596 28.3263 17.5522 27.9171 15.791 28.4244C15.4522 27.922 15.1573 27.3931 14.9093 26.8434ZM12.7404 32.8369C12.8585 31.8216 13.3371 30.8773 14.0948 30.165C14.1886 30.4164 14.2676 30.6728 14.3313 30.9329L13.8133 31.2417C13.4098 31.4824 13.7906 32.0613 14.186 31.8258L14.478 31.6518C14.5331 31.9979 14.5683 32.3468 14.5835 32.6967L14.0735 32.6399C13.6073 32.5882 13.5254 33.2697 13.9922 33.3216L14.5893 33.3881C14.5773 33.8252 14.5375 34.2611 14.4701 34.6935L14.0014 34.4327C13.5943 34.2059 13.2406 34.8011 13.6472 35.0275L14.3344 35.4099C14.2401 35.8315 14.1383 36.179 14.0416 36.4752C13.0569 35.5176 12.5777 34.178 12.7404 32.8369ZM16.7854 37.765C16.0061 37.6797 15.2626 37.4021 14.6262 36.959C14.7313 36.6559 14.8597 36.2595 14.9797 35.7689L15.2746 35.933C15.6778 36.1576 16.0398 35.567 15.6289 35.3383L15.1303 35.0608C15.2263 34.5343 15.2839 34.0019 15.3029 33.4675L15.8324 33.5265C16.2987 33.5786 16.3806 32.8967 15.9137 32.8448L15.3033 32.7769C15.2875 32.2677 15.2315 31.7605 15.1356 31.2597L15.8233 30.8496C16.2228 30.6114 15.8507 30.0273 15.4506 30.2655L14.9685 30.5529C14.8893 30.2636 14.7903 29.9797 14.6722 29.7031C16.5792 28.4095 19.1861 28.7005 20.7379 30.3804C20.5583 30.6233 20.3957 30.8775 20.2509 31.1412L19.849 30.7552C19.5157 30.4349 19.0156 30.9224 19.3487 31.2421L19.9224 31.793C19.7113 32.2596 19.5375 32.7411 19.4025 33.2333L18.7915 33.1652C18.3253 33.1128 18.2434 33.7951 18.7103 33.847L19.2411 33.9061C19.1335 34.4305 19.0641 34.9615 19.0336 35.4954L18.4825 35.6561C18.0313 35.7878 18.2395 36.4441 18.6876 36.3132L19.0135 36.2181C19.0149 36.7236 19.0454 37.1224 19.078 37.4545C18.354 37.7461 17.5645 37.8531 16.7854 37.765ZM19.7607 37.1118C19.7367 36.8042 19.7199 36.4455 19.7278 36.0097L20.4852 35.7888C20.9356 35.6574 20.7286 35.0006 20.2801 35.1317L19.7647 35.282C19.8012 34.8465 19.8653 34.4136 19.9567 33.9857L20.5505 34.0518C21.0168 34.1039 21.0987 33.422 20.6317 33.3701L20.1253 33.3137C20.2225 32.9772 20.3387 32.6461 20.4733 32.3218L20.7135 32.5525C21.0425 32.8686 21.551 32.3893 21.2139 32.0657L20.7847 31.6535C20.9071 31.4149 21.0433 31.1831 21.1924 30.9593C22.5575 33.0281 21.9291 35.7749 19.789 37.0945C19.7795 37.1003 19.7701 37.1061 19.7607 37.1118ZM21.3089 36.7276C21.7076 36.2895 22.0251 35.7882 22.2476 35.2457L23.4167 37.9741C22.4188 37.5223 21.492 36.9294 21.3089 36.7276ZM24.3469 38.3518L22.5546 34.1691C22.6738 33.4634 22.6383 32.7414 22.4503 32.0499C22.4807 31.9972 22.5106 31.9442 22.5419 31.8919L25.4567 38.6943C25.0822 38.5974 24.711 38.4829 24.3469 38.3518ZM33.5434 38.0803C31.1155 39.0525 28.6814 39.3219 26.3059 38.8828L23.005 31.1792C23.4864 30.4935 24.0432 29.8602 24.6656 29.2903C25.0069 28.9782 24.5186 28.4797 24.1777 28.7919C23.4696 29.4395 22.8416 30.1645 22.3066 30.9523C22.3053 30.9543 22.3046 30.9564 22.3033 30.9585C22.2478 31.0403 22.1932 31.1232 22.1394 31.2071C22.041 31.0013 21.9287 30.8021 21.8032 30.6106C20.7947 26.5098 21.3919 23.8555 22.0221 21.3919C22.4888 19.5675 22.8635 18.0985 21.7316 16.7484C23.3199 15.7592 24.4217 15.4278 25.1709 15.2026C28.2217 19.0456 28.8349 23.1348 28.8876 25.9927C28.0551 26.2957 27.2518 26.669 26.487 27.1081C26.0794 27.3435 26.4525 27.9275 26.8511 27.6972C29.012 26.4493 32.7228 25.0777 36.976 26.2074L39.8213 32.8477C38.4324 35.2077 36.3214 36.968 33.5434 38.0803ZM40.2496 32.0535L37.8598 26.4762C38.2541 26.6118 38.6424 26.7665 39.0212 26.9391L40.7324 30.9325C40.5906 31.3134 40.4293 31.6882 40.2496 32.0535Z" fill="#484848"/>
<path d="M25.5073 28.4993C25.7034 28.4993 25.8623 28.3456 25.8623 28.1561C25.8623 27.9666 25.7034 27.813 25.5073 27.813C25.3113 27.813 25.1523 27.9666 25.1523 28.1561C25.1523 28.3456 25.3113 28.4993 25.5073 28.4993Z" fill="#484848"/>
<path d="M35.8276 27.8766C35.0527 27.9996 34.2673 28.1645 33.4714 28.3716L33.2387 27.8285C33.059 27.4094 32.4029 27.6714 32.5828 28.091L32.7836 28.5597C31.9508 28.7992 31.1119 29.0826 30.2668 29.4097L30.073 28.9576C29.8933 28.5376 29.2376 28.8012 29.4172 29.2202L29.6109 29.6721C28.776 30.0172 27.9755 30.3903 27.2095 30.7913L27.0088 30.3229C26.8286 29.9026 26.1736 30.1671 26.3529 30.5855L26.5854 31.1281C26.1112 31.3924 25.6535 31.6667 25.2122 31.9512C24.8166 32.2062 25.2205 32.771 25.6061 32.5221C26.0091 32.2623 26.4269 32.0109 26.8596 31.768L27.1264 32.3906C27.3058 32.8095 27.9629 32.5494 27.7823 32.1281L27.4826 31.4287C28.2449 31.0271 29.0448 30.6529 29.8825 30.3061L30.1907 31.0253C30.3701 31.4442 31.0272 31.184 30.8465 30.7627L30.5384 30.0437C31.3834 29.7164 32.2228 29.4342 33.0566 29.1969L33.3563 29.8962C33.5359 30.3153 34.1926 30.0546 34.0122 29.6336L33.7454 29.0109C34.4866 28.8213 35.219 28.669 35.9426 28.5537C36.4057 28.4803 36.2917 27.8033 35.8276 27.8766Z" fill="#484848"/>
</svg>
