<svg width="47" height="47" viewBox="0 0 47 47" fill="none" xmlns="http://www.w3.org/2000/svg">
<circle cx="23.5" cy="23.5" r="23.5" fill="#E6F9FF"/>
<path d="M22.7325 40.0953C31.2638 40.0953 38.1798 32.9759 38.1798 24.1937C38.1798 15.4114 31.2638 8.29199 22.7325 8.29199C14.2012 8.29199 7.28516 15.4114 7.28516 24.1937C7.28516 32.9759 14.2012 40.0953 22.7325 40.0953Z" fill="#FFE093"/>
<path d="M22.7325 37.0384C14.6972 37.0384 8.10116 30.7267 7.35316 22.665C7.30782 23.1667 7.28516 23.68 7.28516 24.1934C7.28516 32.9784 14.1985 40.095 22.7325 40.095C31.2665 40.095 38.1798 32.9784 38.1798 24.1934C38.1798 23.68 38.1572 23.1667 38.1118 22.665C37.3638 30.7267 30.7678 37.0384 22.7325 37.0384Z" fill="#FFCA6B"/>
<path d="M10.8549 27.0749C11.5622 27.0749 12.1356 26.866 12.1356 26.6083C12.1356 26.3505 11.5622 26.1416 10.8549 26.1416C10.1476 26.1416 9.57422 26.3505 9.57422 26.6083C9.57422 26.866 10.1476 27.0749 10.8549 27.0749Z" fill="#F97AA4"/>
<path d="M34.5971 27.0749C35.3044 27.0749 35.8777 26.866 35.8777 26.6083C35.8777 26.3505 35.3044 26.1416 34.5971 26.1416C33.8898 26.1416 33.3164 26.3505 33.3164 26.6083C33.3164 26.866 33.8898 27.0749 34.5971 27.0749Z" fill="#F97AA4"/>
<path d="M27.0697 27.7754C25.177 27.7754 25.177 28.9887 22.729 28.9887C20.281 28.9887 20.2697 27.7754 18.3884 27.7754C16.0424 27.7754 11.8264 34.6587 13.5264 36.6887C15.4417 38.9637 18.3884 36.0821 22.729 36.0821C27.0697 36.0821 30.0164 38.9754 31.9317 36.6887C33.643 34.6587 29.4157 27.7754 27.0697 27.7754Z" fill="#F97AA4"/>
<path d="M14.9343 25.9551C14.9343 25.9551 17.5523 26.2468 19.9323 25.3485C19.9323 25.3485 20.3629 24.4268 20.4536 22.6651C20.5443 20.7051 20.2496 19.2818 20.2496 19.2818C20.2496 19.2818 18.9123 16.1551 16.2829 16.5868C13.8463 16.9835 12.0783 20.8335 12.5543 24.3451C12.5543 24.3451 12.9849 24.9751 13.5063 25.3485C14.1863 25.8385 14.9343 25.9551 14.9343 25.9551Z" fill="white"/>
<path d="M30.5288 25.9551C30.5288 25.9551 27.9108 26.2468 25.5308 25.3485C25.5308 25.3485 25.1002 24.4268 25.0095 22.6651C24.9188 20.7051 25.2135 19.2818 25.2135 19.2818C25.2135 19.2818 26.5508 16.1551 29.1802 16.5868C31.6168 16.9835 33.3848 20.8335 32.9088 24.3451C32.9088 24.3451 32.4782 24.9751 31.9568 25.3485C31.2768 25.8385 30.5288 25.9551 30.5288 25.9551Z" fill="white"/>
<path d="M13.0276 12.188C13.1523 12.083 13.2883 11.978 13.413 11.873C13.5376 11.7797 13.5603 11.593 13.4583 11.4647C13.3676 11.3364 13.1863 11.313 13.0503 11.4064C12.9143 11.5114 12.7896 11.6164 12.6536 11.733C12.529 11.838 12.5176 12.0247 12.6196 12.153C12.733 12.2697 12.9143 12.293 13.0276 12.188Z" fill="black"/>
<path d="M22.7307 8C19.8067 8 16.962 8.82833 14.4913 10.4033C14.3553 10.485 14.3213 10.6717 14.4007 10.8117C14.48 10.9517 14.6613 10.9867 14.786 10.905C17.166 9.38833 19.9087 8.595 22.7307 8.595C31.1287 8.595 37.9627 15.665 37.8947 24.3333C37.8607 29.035 35.7867 33.2467 32.534 36.0933C32.806 34.95 32.2847 33.4567 31.8767 32.5583C30.8 30.12 28.6467 27.495 27.06 27.495C26.108 27.495 25.5753 27.7867 25.0653 28.0783C24.51 28.3933 23.9433 28.7083 22.708 28.7083C21.4727 28.7083 20.906 28.3817 20.3507 28.0783C19.8407 27.7867 19.3193 27.495 18.356 27.495C16.7693 27.495 14.6273 30.12 13.5393 32.5583C13.1313 33.4683 12.61 34.9733 12.8933 36.1167C9.618 33.2467 7.53267 28.9767 7.53267 24.2167C7.53267 20.565 8.77933 17.03 11.0347 14.23C11.1367 14.1017 11.1253 13.9267 11.0007 13.8217C10.876 13.7167 10.6947 13.7283 10.604 13.8567C8.28067 16.7383 7 20.4017 7 24.1933C7 33.165 14.1287 40.4567 22.8553 40.3867C31.412 40.3167 38.4047 33.13 38.4613 24.3217C38.5293 15.3267 31.446 8 22.7307 8ZM22.844 39.8033C20.1353 39.8267 17.5967 39.115 15.3867 37.855H15.398C16.2367 37.855 17.166 37.5633 18.1747 37.2483C19.5007 36.84 20.9967 36.3733 22.7193 36.3733C24.442 36.3733 25.9493 36.84 27.264 37.2483C28.2613 37.5633 29.202 37.855 30.0407 37.855C27.91 39.08 25.462 39.7917 22.844 39.8033ZM31.718 36.5017C30.698 37.715 29.338 37.2833 27.4453 36.7C26.0853 36.28 24.544 35.8017 22.7307 35.8017C20.9173 35.8017 19.376 36.28 18.016 36.7C16.1233 37.2833 14.752 37.715 13.7433 36.5017C13.2107 35.8717 13.3353 34.4717 14.0947 32.78C15.2167 30.2717 17.2227 28.0667 18.39 28.0667C19.1947 28.0667 19.6253 28.3 20.1127 28.58C20.702 28.9067 21.3593 29.28 22.742 29.28C24.1247 29.28 24.782 28.9067 25.3713 28.58C25.8587 28.3 26.278 28.0667 27.094 28.0667C28.2613 28.0667 30.2787 30.2717 31.3893 32.78C32.126 34.4717 32.2507 35.86 31.718 36.5017Z" fill="black"/>
<path d="M15.227 25.6868C15.0797 25.6751 14.9437 25.7918 14.9324 25.9435C14.9097 26.1068 15.0344 26.2585 15.193 26.2701C15.3857 26.2818 15.6464 26.2935 15.975 26.2935C16.9157 26.2935 18.3437 26.2001 19.749 25.7218C19.8964 25.6751 19.987 25.5001 19.9304 25.3485C19.8737 25.1968 19.7264 25.1268 19.579 25.1735C17.7884 25.7685 15.907 25.7335 15.227 25.6868Z" fill="black"/>
<path d="M18.5132 23.5747C18.87 23.5747 19.1592 22.9113 19.1592 22.093C19.1592 21.2747 18.87 20.6113 18.5132 20.6113C18.1564 20.6113 17.8672 21.2747 17.8672 22.093C17.8672 22.9113 18.1564 23.5747 18.5132 23.5747Z" fill="black"/>
<path d="M32.4189 17.2747C32.5889 17.2747 32.7136 17.1231 32.6909 16.9481C32.6796 16.7964 32.5549 16.6914 32.4076 16.6914C31.4556 16.7031 28.0669 16.4697 25.3809 12.7831C25.2903 12.6547 25.1203 12.6314 24.9956 12.7247C24.8709 12.8181 24.8369 13.0047 24.9389 13.1447C26.0609 14.6847 27.2963 15.6647 28.4409 16.2714C26.5936 16.4231 25.4716 18.1847 25.0976 18.8847C25.0183 19.0364 25.0749 19.2231 25.2336 19.2931C25.3696 19.3514 25.5283 19.3047 25.5963 19.1647C25.9589 18.4764 27.1716 16.5514 29.1436 16.8781C31.3083 17.2281 33.0083 20.7281 32.6683 24.0414C32.6569 24.1931 32.7589 24.3331 32.9063 24.3564C33.0649 24.3797 33.2123 24.2631 33.2236 24.0997C33.5069 21.3347 32.4869 18.5347 30.9003 17.1464C31.4783 17.2514 31.9543 17.2864 32.2716 17.2864C32.3283 17.2747 32.3736 17.2747 32.4189 17.2747Z" fill="black"/>
<path d="M25.53 25.3482C25.4733 25.4999 25.5526 25.6749 25.7113 25.7215C27.1166 26.1999 28.5446 26.2932 29.4853 26.2932C29.814 26.2932 30.086 26.2815 30.2673 26.2699C30.426 26.2582 30.5506 26.1182 30.528 25.9432C30.5166 25.7915 30.3806 25.6749 30.2333 25.6865C29.5533 25.7332 27.672 25.7682 25.8813 25.1615C25.7453 25.1149 25.5866 25.1965 25.53 25.3482Z" fill="black"/>
<path d="M26.9468 23.5747C27.3036 23.5747 27.5928 22.9113 27.5928 22.093C27.5928 21.2747 27.3036 20.6113 26.9468 20.6113C26.59 20.6113 26.3008 21.2747 26.3008 22.093C26.3008 22.9113 26.59 23.5747 26.9468 23.5747Z" fill="black"/>
<path d="M12.5526 24.3447C12.6999 24.3214 12.8132 24.1814 12.7906 24.0297C12.4619 20.7164 14.1506 17.2164 16.3152 16.8664C18.2872 16.5514 19.4999 18.4647 19.8626 19.1531C19.9306 19.2814 20.0892 19.3397 20.2252 19.2814L19.9759 19.3981L20.2366 19.2814V19.2931C20.3839 19.2231 20.4519 19.0364 20.3726 18.8847C19.9986 18.1847 18.8766 16.4231 17.0292 16.2714C18.1739 15.6647 19.4092 14.6847 20.5312 13.1447C20.6219 13.0164 20.5992 12.8297 20.4746 12.7247C20.3499 12.6314 20.1799 12.6547 20.0892 12.7831C17.4032 16.4581 14.0032 16.6914 13.0512 16.6914C12.9039 16.6914 12.7792 16.7964 12.7679 16.9481C12.7452 17.1231 12.8812 17.2631 13.0399 17.2747H13.1759C13.4932 17.2747 13.9692 17.2514 14.5472 17.1347C12.9606 18.5114 11.9519 21.3231 12.2239 24.0881C12.2466 24.2514 12.3939 24.3681 12.5526 24.3447Z" fill="black"/>
</svg>
