<svg width="50" height="49" viewBox="0 0 50 49" fill="none" xmlns="http://www.w3.org/2000/svg">
<circle cx="24.9766" cy="24.5" r="24.5" fill="#E6F9FF"/>
<path d="M39.5078 20.6019V33.0939C39.5079 33.3294 39.4616 33.5626 39.3715 33.7802C39.2815 33.9977 39.1494 34.1955 38.9829 34.362C38.8164 34.5285 38.6188 34.6606 38.4012 34.7508C38.1837 34.8409 37.9505 34.8873 37.715 34.8873H11.6332C11.1576 34.8873 10.7014 34.6984 10.3651 34.362C10.0288 34.0257 9.83984 33.5695 9.83984 33.0939V20.6019C9.84 20.1263 10.029 19.6703 10.3653 19.3341C10.7016 18.9979 11.1577 18.8091 11.6332 18.8091H11.85V30.7241C11.85 31.9302 12.958 32.7827 14.017 32.3825C15.4034 31.8572 16.875 31.5932 18.3576 31.6038C21.4279 31.6287 23.6778 32.8348 24.6738 33.4542C25.6704 32.8348 28.0039 31.5772 31.182 31.6038C32.5965 31.6168 33.9975 31.8798 35.3204 32.3807C36.3842 32.7809 37.5001 31.9375 37.5001 30.7265V18.8091H37.7168C38.192 18.8096 38.6475 18.9987 38.9834 19.3348C39.3192 19.671 39.5078 20.1267 39.5078 20.6019Z" fill="#46D0FF"/>
<path d="M27.5234 16.2588V23.5759C27.524 23.7483 27.5744 23.9168 27.6684 24.0613C27.7625 24.2058 27.8962 24.3201 28.0536 24.3904C28.211 24.4607 28.3854 24.4841 28.5558 24.4578C28.7261 24.4314 28.8853 24.3565 29.0141 24.2419L30.4914 22.9268C30.6553 22.7808 30.8672 22.7002 31.0866 22.7002C31.3061 22.7002 31.5179 22.7808 31.6818 22.9268L33.1591 24.2419C33.288 24.3565 33.4471 24.4314 33.6175 24.4578C33.7879 24.4841 33.9622 24.4607 34.1196 24.3904C34.277 24.3201 34.4108 24.2058 34.5048 24.0613C34.5989 23.9168 34.6492 23.7483 34.6498 23.5759V16.2588C34.6498 16.0216 34.5557 15.7941 34.3882 15.6262C34.2206 15.4583 33.9933 15.3638 33.7561 15.3633H28.4183C28.1809 15.3634 27.9533 15.4579 27.7855 15.6258C27.6177 15.7937 27.5234 16.0214 27.5234 16.2588Z" fill="#46D0FF"/>
<path d="M37.715 35.2506H11.6332C11.0615 35.2499 10.5133 35.0225 10.1089 34.6182C9.70463 34.2139 9.4772 33.6657 9.47656 33.0939V23.6601C9.47656 23.5638 9.51484 23.4713 9.58297 23.4032C9.65109 23.3351 9.7435 23.2968 9.83984 23.2968C9.93619 23.2968 10.0286 23.3351 10.0967 23.4032C10.1649 23.4713 10.2031 23.5638 10.2031 23.6601V33.0939C10.2036 33.473 10.3544 33.8365 10.6225 34.1046C10.8906 34.3727 11.2541 34.5235 11.6332 34.524H37.715C38.0941 34.5235 38.4575 34.3727 38.7255 34.1046C38.9935 33.8365 39.1442 33.473 39.1445 33.0939V20.6019C39.1441 20.2482 39.0127 19.9073 38.7758 19.6447C38.539 19.3821 38.2133 19.2164 37.8615 19.1796V30.7241C37.8651 31.0707 37.7846 31.4129 37.627 31.7216C37.4693 32.0302 37.2392 32.296 36.9564 32.4963C36.7031 32.6751 36.4098 32.7889 36.1022 32.8275C35.7946 32.8662 35.4822 32.8285 35.1926 32.7179C33.9096 32.2327 32.5507 31.9785 31.179 31.9671C28.9473 31.9579 26.7586 32.5803 24.8658 33.7623C24.8082 33.7982 24.7417 33.8172 24.6738 33.8172C24.606 33.8172 24.5395 33.7982 24.4819 33.7623C22.643 32.6128 20.5231 31.9917 18.3546 31.9671C16.9167 31.9568 15.4894 32.2136 14.1453 32.7246C13.8579 32.834 13.548 32.8711 13.2429 32.8327C12.9378 32.7943 12.6468 32.6815 12.3955 32.5042C12.1117 32.3034 11.8808 32.0368 11.7226 31.7271C11.5644 31.4175 11.4837 31.0742 11.4873 30.7265V19.1796C11.1354 19.2163 10.8095 19.3818 10.5724 19.6444C10.3353 19.907 10.2038 20.2481 10.2031 20.6019V20.8265C10.2031 20.9229 10.1649 21.0153 10.0967 21.0834C10.0286 21.1515 9.93619 21.1898 9.83984 21.1898C9.7435 21.1898 9.65109 21.1515 9.58297 21.0834C9.51484 21.0153 9.47656 20.9229 9.47656 20.8265V20.6019C9.4772 20.0301 9.70465 19.482 10.109 19.0778C10.5133 18.6736 11.0615 18.4463 11.6332 18.4458H11.85C11.9463 18.4458 12.0388 18.4841 12.1069 18.5522C12.175 18.6203 12.2133 18.7127 12.2133 18.8091V30.7241C12.2092 30.9545 12.2611 31.1824 12.3644 31.3884C12.4678 31.5943 12.6195 31.7721 12.8066 31.9066C12.9615 32.0166 13.141 32.0867 13.3294 32.1108C13.5178 32.1349 13.7093 32.1121 13.8868 32.0446C15.3156 31.5027 16.8325 31.2301 18.3606 31.2406C20.5863 31.2641 22.7655 31.8804 24.6738 33.0261C26.6108 31.863 28.8264 31.246 31.0857 31.2406H31.185C32.643 31.2523 34.0874 31.5222 35.4512 32.038C35.631 32.1064 35.8248 32.1294 36.0156 32.1051C36.2064 32.0808 36.3883 32.01 36.5453 31.8987C36.7315 31.7654 36.8827 31.5888 36.9858 31.3843C37.089 31.1797 37.141 30.9532 37.1374 30.7241V18.8091C37.1374 18.7127 37.1757 18.6203 37.2438 18.5522C37.3119 18.4841 37.4043 18.4458 37.5007 18.4458H37.7174C38.2887 18.4469 38.8362 18.6745 39.2399 19.0787C39.6436 19.4829 39.8706 20.0306 39.8711 20.6019V33.0939C39.8706 33.6656 39.6433 34.2138 39.2391 34.6182C38.8349 35.0225 38.2868 35.2499 37.715 35.2506Z" fill="#484848"/>
<path d="M9.83984 22.8789C9.7435 22.8789 9.65109 22.8406 9.58297 22.7725C9.51484 22.7044 9.47656 22.612 9.47656 22.5156V21.9707C9.47656 21.8744 9.51484 21.782 9.58297 21.7138C9.65109 21.6457 9.7435 21.6074 9.83984 21.6074C9.93619 21.6074 10.0286 21.6457 10.0967 21.7138C10.1649 21.782 10.2031 21.8744 10.2031 21.9707V22.5156C10.2031 22.612 10.1649 22.7044 10.0967 22.7725C10.0286 22.8406 9.93619 22.8789 9.83984 22.8789Z" fill="#484848"/>
<path d="M24.6739 33.8141C24.6063 33.8141 24.5401 33.7952 24.4826 33.7596C23.1839 32.9525 21.0665 31.9862 18.3546 31.9644C16.9168 31.9545 15.4896 32.2113 14.1454 32.7218C13.858 32.8313 13.5481 32.8684 13.243 32.83C12.9379 32.7915 12.6469 32.6787 12.3956 32.5014C12.1118 32.3006 11.8809 32.034 11.7227 31.7244C11.5645 31.4148 11.4838 31.0714 11.4874 30.7238V18.1331C11.4874 17.2751 11.9718 16.5074 12.7153 16.1786C14.4918 15.3878 16.4168 14.9861 18.3613 15.0004C20.6292 15.0236 22.8567 15.6032 24.8483 16.6884C24.9057 16.7197 24.9537 16.7659 24.987 16.8222C25.0204 16.8785 25.0379 16.9427 25.0378 17.0081V33.4508C25.0378 33.5472 24.9995 33.6396 24.9314 33.7077C24.8633 33.7758 24.7709 33.8141 24.6745 33.8141H24.6739ZM18.2626 31.2403H18.3607C20.4442 31.2608 22.4896 31.802 24.3106 32.8145V17.2261C22.4724 16.2614 20.4311 15.7476 18.3553 15.7269C16.5136 15.714 14.6904 16.0947 13.0078 16.8434C12.5234 17.0565 12.2134 17.5627 12.2134 18.1331V30.7268C12.2097 30.9567 12.2617 31.1841 12.365 31.3895C12.4684 31.5949 12.6199 31.7722 12.8067 31.9063C12.9617 32.0163 13.1414 32.0864 13.3299 32.1105C13.5183 32.1345 13.7099 32.1118 13.8875 32.0443C15.2851 31.5134 16.7676 31.241 18.2626 31.2403Z" fill="#484848"/>
<path d="M24.6738 33.8151C24.6121 33.8152 24.5514 33.7993 24.4976 33.769C24.441 33.7376 24.3938 33.6917 24.3609 33.6359C24.328 33.5801 24.3106 33.5165 24.3105 33.4518V17.0085C24.3106 16.9431 24.3283 16.8789 24.3617 16.8228C24.3952 16.7666 24.4432 16.7205 24.5007 16.6894C25.4634 16.1656 26.4844 15.7567 27.5425 15.4712C27.6116 15.4526 27.6846 15.4548 27.7523 15.4776C27.8201 15.5003 27.8797 15.5425 27.9236 15.599C27.9675 15.6554 27.9937 15.7235 27.9991 15.7948C28.0044 15.8661 27.9886 15.9374 27.9537 15.9997C27.9093 16.0789 27.8862 16.1682 27.8864 16.2589V23.576C27.8862 23.6787 27.9157 23.7793 27.9713 23.8656C28.027 23.9519 28.1064 24.0203 28.2001 24.0625C28.2937 24.1046 28.3976 24.1188 28.4991 24.1033C28.6006 24.0878 28.6955 24.0432 28.7722 23.975L30.2496 22.6599C30.4799 22.4546 30.7778 22.3411 31.0863 22.3411C31.3949 22.3411 31.6927 22.4546 31.9231 22.6599L33.4004 23.975C33.4771 24.0431 33.5718 24.0877 33.6732 24.1032C33.7745 24.1188 33.8782 24.1048 33.9718 24.0628C34.0654 24.0209 34.1448 23.9528 34.2006 23.8667C34.2564 23.7807 34.2861 23.6803 34.2863 23.5778V16.2589C34.2865 16.1682 34.2634 16.0789 34.219 15.9997C34.1839 15.9374 34.1679 15.866 34.1732 15.7946C34.1784 15.7232 34.2047 15.655 34.2486 15.5984C34.2925 15.5419 34.3522 15.4996 34.4201 15.4768C34.4879 15.4541 34.561 15.4519 34.6302 15.4706C35.3156 15.6561 35.9859 15.8933 36.6355 16.1802C37.3802 16.5083 37.8615 17.2749 37.8615 18.1334V30.7272C37.8651 31.0736 37.7846 31.4158 37.6271 31.7245C37.4696 32.0331 37.2396 32.299 36.957 32.4994C36.7036 32.6782 36.4102 32.7919 36.1025 32.8306C35.7948 32.8692 35.4823 32.8316 35.1926 32.721C33.9097 32.2347 32.5509 31.9795 31.179 31.9672C28.9473 31.9577 26.7586 32.5801 24.8658 33.7624C24.8079 33.7975 24.7415 33.8157 24.6738 33.8151ZM25.0371 17.2252V32.8148C26.9167 31.7695 29.0344 31.2273 31.185 31.2406C32.643 31.2523 34.0874 31.5223 35.4512 32.038C35.6311 32.1064 35.825 32.1295 36.0159 32.1052C36.2068 32.0809 36.3888 32.01 36.5459 31.8987C36.732 31.7653 36.883 31.5887 36.986 31.3841C37.089 31.1796 37.1409 30.9531 37.1374 30.7241V18.1334C37.1374 17.5625 36.8262 17.0569 36.3448 16.845C35.91 16.6535 35.4654 16.4851 35.0128 16.3406V23.576C35.0127 23.8186 34.9424 24.0561 34.8105 24.2597C34.6785 24.4634 34.4905 24.6246 34.2691 24.7238C34.0477 24.8231 33.8023 24.8563 33.5624 24.8194C33.3226 24.7824 33.0986 24.677 32.9173 24.5157L31.4399 23.2006C31.3426 23.1137 31.2168 23.0657 31.0863 23.0657C30.9559 23.0657 30.8301 23.1137 30.7328 23.2006L29.2554 24.5157C29.0741 24.677 28.8501 24.7824 28.6102 24.8194C28.3704 24.8563 28.125 24.8231 27.9036 24.7238C27.6822 24.6246 27.4942 24.4634 27.3622 24.2597C27.2303 24.0561 27.16 23.8186 27.1599 23.576V16.3406C26.4281 16.5742 25.7179 16.8705 25.0371 17.2264V17.2252Z" fill="#484848"/>
<path d="M28.4232 24.8364C28.244 24.8361 28.067 24.7977 27.9037 24.7238C27.6807 24.626 27.4914 24.4648 27.3592 24.2603C27.227 24.0558 27.1578 23.8169 27.1602 23.5734V16.2588C27.1605 15.9251 27.2932 15.6052 27.529 15.3693C27.7649 15.1333 28.0847 15.0005 28.4184 15H33.7562C34.0899 15.0005 34.4098 15.1333 34.6457 15.3692C34.8817 15.6052 35.0145 15.9251 35.015 16.2588V23.5759C35.0148 23.8185 34.9446 24.056 34.8126 24.2596C34.6807 24.4633 34.4927 24.6244 34.2712 24.7237C34.0498 24.823 33.8044 24.8562 33.5646 24.8193C33.3248 24.7823 33.1007 24.6769 32.9194 24.5155L31.4421 23.2005C31.3447 23.1139 31.2188 23.066 31.0885 23.066C30.9581 23.066 30.8323 23.1139 30.7349 23.2005L29.2576 24.5155C29.0286 24.7219 28.7314 24.8362 28.4232 24.8364ZM31.0873 22.3395C31.3959 22.3391 31.6938 22.4525 31.924 22.658L33.4008 23.9749C33.4774 24.043 33.5721 24.0875 33.6735 24.1031C33.7748 24.1187 33.8786 24.1047 33.9721 24.0627C34.0657 24.0208 34.1452 23.9527 34.2009 23.8666C34.2567 23.7806 34.2865 23.6802 34.2866 23.5777V16.2588C34.2864 16.1177 34.2303 15.9824 34.1305 15.8826C34.0308 15.7828 33.8955 15.7267 33.7544 15.7266H28.4184C28.2773 15.7267 28.1421 15.7829 28.0424 15.8827C27.9428 15.9824 27.8868 16.1177 27.8868 16.2588V23.5759C27.8865 23.6786 27.916 23.7791 27.9717 23.8655C28.0273 23.9518 28.1068 24.0202 28.2004 24.0624C28.294 24.1045 28.3979 24.1187 28.4994 24.1032C28.601 24.0877 28.6958 24.0431 28.7726 23.9749L30.2499 22.6598C30.48 22.4539 30.7779 22.3401 31.0867 22.3401L31.0873 22.3395Z" fill="#484848"/>
<path d="M22.2724 20.2622H14.2529C14.1566 20.2622 14.0642 20.2239 13.9961 20.1558C13.9279 20.0877 13.8896 19.9953 13.8896 19.8989C13.8896 19.8026 13.9279 19.7102 13.9961 19.642C14.0642 19.5739 14.1566 19.5356 14.2529 19.5356H22.2724C22.3687 19.5356 22.4611 19.5739 22.5292 19.642C22.5974 19.7102 22.6356 19.8026 22.6356 19.8989C22.6356 19.9953 22.5974 20.0877 22.5292 20.1558C22.4611 20.2239 22.3687 20.2622 22.2724 20.2622Z" fill="#484848"/>
<path d="M22.2724 22.7188H14.2529C14.1566 22.7188 14.0642 22.6805 13.9961 22.6123C13.9279 22.5442 13.8896 22.4518 13.8896 22.3555C13.8896 22.2591 13.9279 22.1667 13.9961 22.0986C14.0642 22.0305 14.1566 21.9922 14.2529 21.9922H22.2724C22.3687 21.9922 22.4611 22.0305 22.5292 22.0986C22.5974 22.1667 22.6356 22.2591 22.6356 22.3555C22.6356 22.4518 22.5974 22.5442 22.5292 22.6123C22.4611 22.6805 22.3687 22.7188 22.2724 22.7188Z" fill="#484848"/>
<path d="M22.2724 25.1748H14.2529C14.1566 25.1748 14.0642 25.1365 13.9961 25.0684C13.9279 25.0003 13.8896 24.9079 13.8896 24.8115C13.8896 24.7152 13.9279 24.6228 13.9961 24.5546C14.0642 24.4865 14.1566 24.4482 14.2529 24.4482H22.2724C22.3687 24.4482 22.4611 24.4865 22.5292 24.5546C22.5974 24.6228 22.6356 24.7152 22.6356 24.8115C22.6356 24.9079 22.5974 25.0003 22.5292 25.0684C22.4611 25.1365 22.3687 25.1748 22.2724 25.1748Z" fill="#484848"/>
<path d="M22.2724 27.6313H14.2529C14.1566 27.6313 14.0642 27.5931 13.9961 27.5249C13.9279 27.4568 13.8896 27.3644 13.8896 27.2681C13.8896 27.1717 13.9279 27.0793 13.9961 27.0112C14.0642 26.9431 14.1566 26.9048 14.2529 26.9048H22.2724C22.3687 26.9048 22.4611 26.9431 22.5292 27.0112C22.5974 27.0793 22.6356 27.1717 22.6356 27.2681C22.6356 27.3644 22.5974 27.4568 22.5292 27.5249C22.4611 27.5931 22.3687 27.6313 22.2724 27.6313Z" fill="#484848"/>
</svg>
