<svg width="47" height="47" viewBox="0 0 47 47" fill="none" xmlns="http://www.w3.org/2000/svg">
<circle cx="23.5" cy="23.5" r="23.5" fill="#E6F9FF"/>
<path d="M38.0312 20.6014V33.0934C38.0313 33.3289 37.985 33.5621 37.895 33.7797C37.8049 33.9973 37.6729 34.195 37.5064 34.3615C37.3399 34.528 37.1422 34.6602 36.9247 34.7503C36.7071 34.8404 36.4739 34.8868 36.2385 34.8868H10.1567C9.68104 34.8868 9.22488 34.6979 8.88856 34.3615C8.55223 34.0252 8.36328 33.5691 8.36328 33.0934V20.6014C8.36344 20.1259 8.55246 19.6699 8.88877 19.3337C9.22508 18.9975 9.68115 18.8086 10.1567 18.8086H10.3734V30.7236C10.3734 31.9297 11.4814 32.7822 12.5404 32.382C13.9268 31.8567 15.3985 31.5927 16.881 31.6034C19.9513 31.6282 22.2013 32.8343 23.1973 33.4537C24.1939 32.8343 26.5273 31.5767 29.7054 31.6034C31.1199 31.6163 32.5209 31.8793 33.8438 32.3802C34.9076 32.7804 36.0235 31.937 36.0235 30.726V18.8086H36.2403C36.7154 18.8091 37.171 18.9982 37.5068 19.3343C37.8426 19.6705 38.0312 20.1262 38.0312 20.6014Z" fill="#46D0FF"/>
<path d="M26.0469 16.2588V23.5759C26.0475 23.7483 26.0978 23.9168 26.1919 24.0613C26.2859 24.2058 26.4197 24.3201 26.5771 24.3904C26.7345 24.4607 26.9088 24.4841 27.0792 24.4578C27.2496 24.4314 27.4087 24.3565 27.5375 24.2419L29.0149 22.9268C29.1788 22.7808 29.3906 22.7002 29.6101 22.7002C29.8295 22.7002 30.0413 22.7808 30.2052 22.9268L31.6826 24.2419C31.8114 24.3565 31.9705 24.4314 32.1409 24.4578C32.3113 24.4841 32.4856 24.4607 32.6431 24.3904C32.8005 24.3201 32.9342 24.2058 33.0283 24.0613C33.1223 23.9168 33.1727 23.7483 33.1732 23.5759V16.2588C33.1732 16.0216 33.0791 15.7941 32.9116 15.6262C32.7441 15.4583 32.5168 15.3638 32.2796 15.3633H26.9418C26.7044 15.3634 26.4767 15.4579 26.3089 15.6258C26.1411 15.7937 26.0469 16.0214 26.0469 16.2588Z" fill="#46D0FF"/>
<path d="M36.2385 35.2501H10.1567C9.58489 35.2495 9.0367 35.022 8.63238 34.6177C8.22807 34.2134 8.00064 33.6652 8 33.0934V23.6596C8 23.5633 8.03827 23.4709 8.1064 23.4027C8.17453 23.3346 8.26693 23.2963 8.36328 23.2963C8.45963 23.2963 8.55203 23.3346 8.62016 23.4027C8.68829 23.4709 8.72656 23.5633 8.72656 23.6596V33.0934C8.72704 33.4726 8.87787 33.836 9.14596 34.1041C9.41406 34.3722 9.77754 34.5231 10.1567 34.5235H36.2385C36.6175 34.5231 36.981 34.3722 37.249 34.1041C37.517 33.836 37.6676 33.4725 37.668 33.0934V20.6014C37.6675 20.2477 37.5362 19.9068 37.2993 19.6442C37.0624 19.3816 36.7367 19.2159 36.385 19.1791V30.7236C36.3885 31.0702 36.308 31.4124 36.1504 31.7211C35.9927 32.0297 35.7627 32.2955 35.4798 32.4958C35.2266 32.6746 34.9332 32.7884 34.6256 32.827C34.318 32.8657 34.0057 32.828 33.7161 32.7174C32.433 32.2322 31.0741 31.978 29.7024 31.9666C27.4708 31.9574 25.2821 32.5798 23.3892 33.7619C23.3316 33.7977 23.2651 33.8167 23.1973 33.8167C23.1294 33.8167 23.0629 33.7977 23.0053 33.7619C21.1664 32.6123 19.0465 31.9913 16.878 31.9666C15.4401 31.9563 14.0128 32.2131 12.6688 32.7241C12.3814 32.8335 12.0715 32.8706 11.7664 32.8322C11.4613 32.7938 11.1703 32.681 10.919 32.5037C10.6351 32.3029 10.4042 32.0363 10.246 31.7267C10.0879 31.417 10.0071 31.0737 10.0108 30.726V19.1791C9.65886 19.2158 9.33296 19.3813 9.09586 19.6439C8.85875 19.9065 8.7272 20.2476 8.72656 20.6014V20.826C8.72656 20.9224 8.68829 21.0148 8.62016 21.0829C8.55203 21.151 8.45963 21.1893 8.36328 21.1893C8.26693 21.1893 8.17453 21.151 8.1064 21.0829C8.03827 21.0148 8 20.9224 8 20.826V20.6014C8.00064 20.0297 8.22809 19.4815 8.63242 19.0773C9.03676 18.6731 9.58494 18.4458 10.1567 18.4453H10.3734C10.4698 18.4453 10.5622 18.4836 10.6303 18.5517C10.6984 18.6198 10.7367 18.7122 10.7367 18.8086V30.7236C10.7327 30.954 10.7845 31.1819 10.8879 31.3879C10.9912 31.5938 11.143 31.7716 11.3301 31.9061C11.4849 32.0161 11.6645 32.0862 11.8529 32.1103C12.0413 32.1344 12.2327 32.1116 12.4102 32.0441C13.8391 31.5022 15.3559 31.2296 16.884 31.2401C19.1097 31.2636 21.2889 31.88 23.1973 33.0256C25.1342 31.8625 27.3499 31.2455 29.6092 31.2401H29.7085C31.1665 31.2518 32.6108 31.5217 33.9746 32.0375C34.1544 32.1059 34.3482 32.1289 34.5391 32.1046C34.7299 32.0804 34.9118 32.0095 35.0687 31.8982C35.255 31.7649 35.4062 31.5883 35.5093 31.3838C35.6124 31.1792 35.6644 30.9527 35.6608 30.7236V18.8086C35.6608 18.7122 35.6991 18.6198 35.7672 18.5517C35.8354 18.4836 35.9278 18.4453 36.0241 18.4453H36.2409C36.8121 18.4464 37.3596 18.674 37.7634 19.0782C38.1671 19.4824 38.3941 20.0301 38.3945 20.6014V33.0934C38.3941 33.6652 38.1668 34.2133 37.7625 34.6177C37.3583 35.022 36.8102 35.2495 36.2385 35.2501Z" fill="#484848"/>
<path d="M8.36328 22.8789C8.26693 22.8789 8.17453 22.8406 8.1064 22.7725C8.03827 22.7044 8 22.612 8 22.5156V21.9707C8 21.8744 8.03827 21.782 8.1064 21.7138C8.17453 21.6457 8.26693 21.6074 8.36328 21.6074C8.45963 21.6074 8.55203 21.6457 8.62016 21.7138C8.68829 21.782 8.72656 21.8744 8.72656 21.9707V22.5156C8.72656 22.612 8.68829 22.7044 8.62016 22.7725C8.55203 22.8406 8.45963 22.8789 8.36328 22.8789Z" fill="#484848"/>
<path d="M23.1983 33.8141C23.1307 33.8141 23.0645 33.7952 23.007 33.7596C21.7083 32.9525 19.591 31.9862 16.8791 31.9644C15.4412 31.9545 14.014 32.2113 12.6698 32.7218C12.3824 32.8313 12.0726 32.8684 11.7674 32.83C11.4623 32.7915 11.1713 32.6787 10.92 32.5014C10.6362 32.3006 10.4053 32.034 10.2471 31.7244C10.0889 31.4148 10.0082 31.0714 10.0118 30.7238V18.1331C10.0118 17.2751 10.4962 16.5074 11.2397 16.1786C13.0162 15.3878 14.9412 14.9861 16.8857 15.0004C19.1536 15.0236 21.3812 15.6032 23.3727 16.6884C23.4302 16.7197 23.4781 16.7659 23.5114 16.8222C23.5448 16.8785 23.5623 16.9427 23.5622 17.0081V33.4508C23.5622 33.5472 23.524 33.6396 23.4558 33.7077C23.3877 33.7758 23.2953 33.8141 23.1989 33.8141H23.1983ZM16.787 31.2403H16.8851C18.9686 31.2608 21.014 31.802 22.8351 32.8145V17.2261C20.9968 16.2614 18.9556 15.7476 16.8797 15.7269C15.038 15.714 13.2148 16.0947 11.5322 16.8434C11.0478 17.0565 10.7378 17.5627 10.7378 18.1331V30.7268C10.7341 30.9567 10.7861 31.1841 10.8895 31.3895C10.9928 31.5949 11.1443 31.7722 11.3312 31.9063C11.4861 32.0163 11.6658 32.0864 11.8543 32.1105C12.0428 32.1345 12.2343 32.1118 12.4119 32.0443C13.8095 31.5134 15.292 31.241 16.787 31.2403Z" fill="#484848"/>
<path d="M23.1992 33.8151C23.1375 33.8152 23.0768 33.7993 23.023 33.769C22.9664 33.7376 22.9192 33.6917 22.8863 33.6359C22.8534 33.5801 22.836 33.5165 22.8359 33.4518V17.0085C22.836 16.9431 22.8537 16.8789 22.8871 16.8228C22.9206 16.7666 22.9686 16.7205 23.0261 16.6894C23.9888 16.1656 25.0098 15.7567 26.0679 15.4712C26.137 15.4526 26.21 15.4548 26.2777 15.4776C26.3455 15.5003 26.4051 15.5425 26.449 15.599C26.4929 15.6554 26.5191 15.7235 26.5245 15.7948C26.5298 15.8661 26.514 15.9374 26.479 15.9997C26.4347 16.0789 26.4115 16.1682 26.4118 16.2589V23.576C26.4116 23.6787 26.4411 23.7793 26.4967 23.8656C26.5524 23.9519 26.6318 24.0203 26.7255 24.0625C26.8191 24.1046 26.923 24.1188 27.0245 24.1033C27.126 24.0878 27.2209 24.0432 27.2976 23.975L28.775 22.6599C29.0053 22.4546 29.3032 22.3411 29.6117 22.3411C29.9203 22.3411 30.2181 22.4546 30.4485 22.6599L31.9258 23.975C32.0025 24.0431 32.0972 24.0877 32.1985 24.1032C32.2999 24.1188 32.4036 24.1048 32.4972 24.0628C32.5908 24.0209 32.6702 23.9528 32.726 23.8667C32.7818 23.7807 32.8115 23.6803 32.8116 23.5778V16.2589C32.8119 16.1682 32.7888 16.0789 32.7444 15.9997C32.7093 15.9374 32.6933 15.866 32.6986 15.7946C32.7038 15.7232 32.7301 15.655 32.774 15.5984C32.8179 15.5419 32.8776 15.4996 32.9454 15.4768C33.0133 15.4541 33.0864 15.4519 33.1555 15.4706C33.841 15.6561 34.5113 15.8933 35.1609 16.1802C35.9056 16.5083 36.3869 17.2749 36.3869 18.1334V30.7272C36.3904 31.0736 36.31 31.4158 36.1525 31.7245C35.9949 32.0331 35.765 32.299 35.4824 32.4994C35.229 32.6782 34.9356 32.7919 34.6279 32.8306C34.3202 32.8692 34.0077 32.8316 33.718 32.721C32.4351 32.2347 31.0763 31.9795 29.7044 31.9672C27.4727 31.9577 25.284 32.5801 23.3912 33.7624C23.3333 33.7975 23.2669 33.8157 23.1992 33.8151ZM23.5625 17.2252V32.8148C25.4421 31.7695 27.5598 31.2273 29.7104 31.2406C31.1684 31.2523 32.6128 31.5223 33.9766 32.038C34.1565 32.1064 34.3504 32.1295 34.5413 32.1052C34.7322 32.0809 34.9142 32.01 35.0712 31.8987C35.2573 31.7653 35.4083 31.5887 35.5114 31.3841C35.6144 31.1796 35.6663 30.9531 35.6628 30.7241V18.1334C35.6628 17.5625 35.3516 17.0569 34.8702 16.845C34.4354 16.6535 33.9908 16.4851 33.5382 16.3406V23.576C33.5381 23.8186 33.4678 24.0561 33.3358 24.2597C33.2039 24.4634 33.0159 24.6246 32.7945 24.7238C32.5731 24.8231 32.3277 24.8563 32.0878 24.8194C31.848 24.7824 31.624 24.677 31.4427 24.5157L29.9653 23.2006C29.868 23.1137 29.7422 23.0657 29.6117 23.0657C29.4813 23.0657 29.3554 23.1137 29.2581 23.2006L27.7808 24.5157C27.5995 24.677 27.3755 24.7824 27.1356 24.8194C26.8958 24.8563 26.6504 24.8231 26.429 24.7238C26.2076 24.6246 26.0196 24.4634 25.8876 24.2597C25.7557 24.0561 25.6854 23.8186 25.6853 23.576V16.3406C24.9535 16.5742 24.2432 16.8705 23.5625 17.2264V17.2252Z" fill="#484848"/>
<path d="M26.9467 24.8364C26.7675 24.8361 26.5904 24.7977 26.4272 24.7238C26.2042 24.626 26.0148 24.4648 25.8827 24.2603C25.7505 24.0558 25.6813 23.8169 25.6837 23.5734V16.2588C25.684 15.9251 25.8166 15.6052 26.0525 15.3693C26.2883 15.1333 26.6082 15.0005 26.9418 15H32.2796C32.6133 15.0005 32.9332 15.1333 33.1692 15.3692C33.4051 15.6052 33.5379 15.9251 33.5384 16.2588V23.5759C33.5383 23.8185 33.468 24.056 33.336 24.2596C33.2041 24.4633 33.0161 24.6244 32.7947 24.7237C32.5733 24.823 32.3279 24.8562 32.088 24.8193C31.8482 24.7823 31.6242 24.6769 31.4429 24.5155L29.9655 23.2005C29.8681 23.1139 29.7423 23.066 29.6119 23.066C29.4816 23.066 29.3558 23.1139 29.2583 23.2005L27.781 24.5155C27.5521 24.7219 27.2549 24.8362 26.9467 24.8364ZM29.6107 22.3395C29.9193 22.3391 30.2172 22.4525 30.4475 22.658L31.9242 23.9749C32.0009 24.043 32.0956 24.0875 32.1969 24.1031C32.2983 24.1187 32.402 24.1047 32.4956 24.0627C32.5891 24.0208 32.6686 23.9527 32.7244 23.8666C32.7802 23.7806 32.8099 23.6802 32.81 23.5777V16.2588C32.8099 16.1177 32.7537 15.9824 32.654 15.8826C32.5542 15.7828 32.4189 15.7267 32.2778 15.7266H26.9418C26.8008 15.7267 26.6656 15.7829 26.5659 15.8827C26.4662 15.9824 26.4102 16.1177 26.4102 16.2588V23.5759C26.41 23.6786 26.4395 23.7791 26.4951 23.8655C26.5508 23.9518 26.6302 24.0202 26.7238 24.0624C26.8175 24.1045 26.9213 24.1187 27.0229 24.1032C27.1244 24.0877 27.2193 24.0431 27.296 23.9749L28.7734 22.6598C29.0034 22.4539 29.3014 22.3401 29.6101 22.3401L29.6107 22.3395Z" fill="#484848"/>
<path d="M20.7968 20.2617H12.7773C12.681 20.2617 12.5886 20.2234 12.5205 20.1553C12.4523 20.0872 12.4141 19.9948 12.4141 19.8984C12.4141 19.8021 12.4523 19.7097 12.5205 19.6416C12.5886 19.5734 12.681 19.5352 12.7773 19.5352H20.7968C20.8931 19.5352 20.9855 19.5734 21.0537 19.6416C21.1218 19.7097 21.1601 19.8021 21.1601 19.8984C21.1601 19.9948 21.1218 20.0872 21.0537 20.1553C20.9855 20.2234 20.8931 20.2617 20.7968 20.2617Z" fill="#484848"/>
<path d="M20.7968 22.7188H12.7773C12.681 22.7188 12.5886 22.6805 12.5205 22.6123C12.4523 22.5442 12.4141 22.4518 12.4141 22.3555C12.4141 22.2591 12.4523 22.1667 12.5205 22.0986C12.5886 22.0305 12.681 21.9922 12.7773 21.9922H20.7968C20.8931 21.9922 20.9855 22.0305 21.0537 22.0986C21.1218 22.1667 21.1601 22.2591 21.1601 22.3555C21.1601 22.4518 21.1218 22.5442 21.0537 22.6123C20.9855 22.6805 20.8931 22.7188 20.7968 22.7188Z" fill="#484848"/>
<path d="M20.7968 25.1748H12.7773C12.681 25.1748 12.5886 25.1365 12.5205 25.0684C12.4523 25.0003 12.4141 24.9079 12.4141 24.8115C12.4141 24.7152 12.4523 24.6228 12.5205 24.5546C12.5886 24.4865 12.681 24.4482 12.7773 24.4482H20.7968C20.8931 24.4482 20.9855 24.4865 21.0537 24.5546C21.1218 24.6228 21.1601 24.7152 21.1601 24.8115C21.1601 24.9079 21.1218 25.0003 21.0537 25.0684C20.9855 25.1365 20.8931 25.1748 20.7968 25.1748Z" fill="#484848"/>
<path d="M20.7968 27.6309H12.7773C12.681 27.6309 12.5886 27.5926 12.5205 27.5245C12.4523 27.4563 12.4141 27.3639 12.4141 27.2676C12.4141 27.1712 12.4523 27.0788 12.5205 27.0107C12.5886 26.9426 12.681 26.9043 12.7773 26.9043H20.7968C20.8931 26.9043 20.9855 26.9426 21.0537 27.0107C21.1218 27.0788 21.1601 27.1712 21.1601 27.2676C21.1601 27.3639 21.1218 27.4563 21.0537 27.5245C20.9855 27.5926 20.8931 27.6309 20.7968 27.6309Z" fill="#484848"/>
</svg>
