<svg width="47" height="47" viewBox="0 0 47 47" fill="none" xmlns="http://www.w3.org/2000/svg">
<circle cx="23.5" cy="23.5" r="23.5" fill="#E6F9FF"/>
<g clip-path="url(#clip0_902_48959)">
<path d="M24.7311 21.1797C23.7516 21.1807 23.3513 21.9437 23.3213 21.9772C23.208 22.1028 23.0571 22.1285 22.9042 21.9744C22.0808 20.5739 19.8812 21.1614 19.8828 22.7468C19.8847 24.4945 21.4789 25.8743 23.0451 26.5889C23.0685 26.5996 23.0938 26.6049 23.119 26.6049C23.1444 26.6049 23.1698 26.5995 23.1933 26.5887C23.4423 26.4745 24.0917 26.1518 24.7412 25.6242C25.8082 24.7575 26.3487 23.7873 26.3476 22.7404C26.3466 21.8798 25.6215 21.1797 24.7311 21.1797Z" fill="#CE93FF"/>
<path d="M22.0947 21.2937C21.0127 20.881 19.8817 21.6626 19.8828 22.7466C19.8847 24.4943 21.4789 25.8741 23.045 26.5887C23.0684 26.5994 23.0937 26.6047 23.1189 26.6047C23.1443 26.6047 23.1697 26.5993 23.1932 26.5885C23.3014 26.5389 23.4853 26.4499 23.7117 26.3219C20.6762 24.6384 20.4611 21.924 22.0947 21.2937Z" fill="#8A00FA"/>
<path d="M28.6577 28.0648L24.8203 29.5943C24.8674 29.4603 24.9408 29.3324 25.0426 29.2188L27.2467 26.757C27.6685 26.286 28.4055 26.2346 28.8928 26.6423C29.2658 26.9544 29.3834 27.4448 29.2293 27.8691C28.9304 27.9216 28.698 28.0455 28.6577 28.0648Z" fill="#FFBA98"/>
<path d="M26.0981 28.0402L25.0426 29.2191C24.9408 29.3327 24.8674 29.4606 24.8203 29.5946L28.6577 28.0652C28.698 28.0458 28.9304 27.922 29.2293 27.8694C29.3525 27.53 29.3014 27.1485 29.0854 26.8496L26.0981 28.0402Z" fill="#FFC4AA"/>
<path d="M18.1735 32.8922C17.7309 32.9498 17.3147 33.1301 16.9767 33.4121L16.4445 33.8564L13.2891 30.324C14.0703 29.6771 14.9089 29.0973 15.8005 28.6013C16.7975 28.0465 17.1984 27.9896 19.3233 27.7694L19.3235 27.7695C20.0189 27.7105 20.3652 27.8567 23.2223 28.6401C24.2531 28.9226 24.026 29.8838 24.026 29.8838L28.6542 28.0392C28.7449 27.9956 29.8195 27.4164 30.4141 28.3538C30.9352 29.2381 30.0529 29.8783 29.8757 29.9898L23.9789 33.2526C23.9789 33.2526 23.9786 33.2528 23.9781 33.253C23.1047 33.8027 22.1942 33.6911 21.7934 33.601L19.504 32.9733C18.967 32.826 18.609 32.8355 18.1735 32.8922Z" fill="#FFDBC7"/>
<path d="M14.2823 29.5615C13.9419 29.8038 13.6103 30.0577 13.2891 30.3237L16.4445 33.8562L16.9767 33.412C17.1214 33.2911 17.2812 33.1902 17.4506 33.1084L14.2823 29.5615Z" fill="#FFBA98"/>
<path d="M16.906 34.2846L12.9424 29.8473C12.7765 29.6616 12.4863 29.641 12.2942 29.8013L9.21954 32.3677C9.03848 32.5188 9.0195 32.7837 9.17729 32.9575L13.2295 37.4214C13.3734 37.5799 13.6251 37.6071 13.7917 37.4709C13.7929 37.4699 13.7942 37.4689 13.7954 37.4678L16.8585 34.9111C17.0507 34.7508 17.0719 34.4703 16.906 34.2846Z" fill="#0083B2"/>
<path d="M9.82511 31.8623L9.21954 32.3678C9.03848 32.5189 9.0195 32.7838 9.17729 32.9576L13.2295 37.4215C13.3734 37.58 13.6251 37.6072 13.7917 37.471C13.7929 37.47 13.7942 37.469 13.7954 37.4679L14.4316 36.9369L9.82511 31.8623Z" fill="#000F8F"/>
<path d="M9.82511 31.8623L9.21954 32.3678C9.03848 32.5189 9.0195 32.7838 9.17729 32.9576L13.2295 37.4215C13.3734 37.58 13.6251 37.6072 13.7917 37.471C13.7929 37.47 13.7942 37.469 13.7954 37.4679L14.4316 36.9369L9.82511 31.8623Z" fill="black" fill-opacity="0.2"/>
<path d="M9.82511 31.8623L9.21954 32.3678C9.03848 32.5189 9.0195 32.7838 9.17729 32.9576L13.2295 37.4215C13.3734 37.58 13.6251 37.6072 13.7917 37.471C13.7929 37.47 13.7942 37.469 13.7954 37.4679L14.4316 36.9369L9.82511 31.8623Z" fill="black" fill-opacity="0.2"/>
<path d="M9.82511 31.8623L9.21954 32.3678C9.03848 32.5189 9.0195 32.7838 9.17729 32.9576L13.2295 37.4215C13.3734 37.58 13.6251 37.6072 13.7917 37.471C13.7929 37.47 13.7942 37.469 13.7954 37.4679L14.4316 36.9369L9.82511 31.8623Z" fill="black" fill-opacity="0.2"/>
<path d="M9.82511 31.8623L9.21954 32.3678C9.03848 32.5189 9.0195 32.7838 9.17729 32.9576L13.2295 37.4215C13.3734 37.58 13.6251 37.6072 13.7917 37.471C13.7929 37.47 13.7942 37.469 13.7954 37.4679L14.4316 36.9369L9.82511 31.8623Z" fill="black" fill-opacity="0.2"/>
<path d="M9.82511 31.8623L9.21954 32.3678C9.03848 32.5189 9.0195 32.7838 9.17729 32.9576L13.2295 37.4215C13.3734 37.58 13.6251 37.6072 13.7917 37.471C13.7929 37.47 13.7942 37.469 13.7954 37.4679L14.4316 36.9369L9.82511 31.8623Z" fill="black" fill-opacity="0.2"/>
<path d="M21.4085 17.3691C21.3105 17.6484 21.3985 17.5075 18.9821 20.2064C18.5603 20.6775 17.8233 20.7288 17.336 20.3211C16.963 20.009 16.8454 19.5186 16.9995 19.0944C17.2192 19.0557 16.7813 19.2133 21.4085 17.3691Z" fill="#FFBA98"/>
<path d="M20.1857 18.8619C21.2756 17.6446 21.3132 17.6401 21.4083 17.3691C16.7824 19.2128 17.2194 19.0557 16.9993 19.0944C16.8814 19.4191 16.9232 19.7824 17.1163 20.075C17.2924 20.0316 16.9853 20.1375 20.1857 18.8619Z" fill="#FFC4AA"/>
<path d="M29.2523 13.5507L29.7846 13.1064L32.94 16.6389C32.1588 17.2858 31.3201 17.8656 30.4286 18.3616C29.4315 18.9164 29.0307 18.9733 26.9057 19.1934L26.9056 19.1934C26.2102 19.2524 25.8639 19.1062 23.0068 18.3228C21.9759 18.0402 22.2031 17.079 22.2031 17.079L17.5749 18.9237C17.4841 18.9673 16.4095 19.5464 15.815 18.609C15.2938 17.7248 16.1762 17.0846 16.3534 16.9731L22.2501 13.7102C22.2501 13.7102 22.2504 13.7101 22.2509 13.7098C23.1243 13.1602 24.0348 13.2718 24.4356 13.3618L26.725 13.9896C27.6027 14.2303 28.5697 14.1205 29.2523 13.5507Z" fill="#FFDBC7"/>
<path d="M27.8972 14.2205C28.7673 14.459 29.7219 14.3528 30.4028 13.7984L29.7848 13.1064L29.2525 13.5507C28.7592 13.9626 28.1542 14.1218 27.4883 14.1083L27.8972 14.2205Z" fill="#FFBA98"/>
<path d="M17.5254 17.2039L23.422 13.941C23.422 13.941 23.4223 13.9408 23.4227 13.9405C23.9849 13.5867 24.5622 13.5071 25.0093 13.5191L24.4355 13.3618C24.0346 13.2718 23.1241 13.1602 22.2507 13.7098C22.2503 13.7101 22.25 13.7102 22.25 13.7102L16.3534 16.9731C16.1762 17.0846 15.2938 17.7248 15.815 18.6091C16.2012 19.218 16.7899 19.1869 17.1799 19.0784C16.5621 18.4822 16.7983 17.6616 17.5254 17.2039Z" fill="#FFBA98"/>
<path d="M29.3227 12.6783L33.2863 17.1156C33.4522 17.3012 33.7425 17.3218 33.9345 17.1615L37.0092 14.5952C37.1902 14.444 37.2092 14.1791 37.0514 14.0054L32.9992 9.5414C32.8553 9.38292 32.6036 9.35574 32.437 9.4919C32.4358 9.49292 32.4345 9.49394 32.4333 9.49501L29.3702 12.0518C29.1781 12.2121 29.1568 12.4926 29.3227 12.6783Z" fill="#00C3FF"/>
<path d="M29.9864 11.5381L29.3701 12.0524C29.1781 12.2128 29.1568 12.4933 29.3226 12.6791L33.2863 17.1163C33.4521 17.302 33.7424 17.3226 33.9345 17.1623L34.5507 16.6479L29.9864 11.5381Z" fill="#06B0F2"/>
<path d="M37.1848 13.6111L33.3408 9.28038C33.3335 9.27217 33.3259 9.26424 33.318 9.25665C32.9823 8.93215 32.438 8.91295 32.0788 9.21281L29.0157 11.7695C28.8339 11.9212 28.7241 12.1323 28.7066 12.3638C28.6891 12.5953 28.7659 12.8196 28.9228 12.9953L29.0427 13.1296L28.8451 13.2945C28.3208 13.7323 27.5316 13.8632 26.7344 13.6447C26.7182 13.6402 24.4496 13.0179 24.4332 13.0142C24.0197 12.9213 22.9499 12.7746 21.9282 13.4118C21.9117 13.4209 16.0577 16.6597 16.0419 16.6698C15.5075 17.0063 14.7633 17.8475 15.3635 18.8659C15.3658 18.8699 15.3682 18.8738 15.3707 18.8777C15.6278 19.2831 15.9986 19.5246 16.4313 19.5915C16.4474 20.0072 16.6389 20.4056 16.9797 20.6907C17.6416 21.2446 18.6468 21.1747 19.2199 20.5346L21.3896 18.1113C21.4775 18.0131 21.5513 17.9053 21.6106 17.7898L21.7001 17.7541C21.817 18.1781 22.1368 18.6001 22.7902 18.7791C25.5124 19.5255 26.0791 19.7417 26.8413 19.6602C28.9661 19.4401 29.4531 19.3727 30.5232 18.7773C31.293 18.3491 32.0422 17.8484 32.7557 17.2866L32.8862 17.4327C33.2114 17.7968 33.779 17.8359 34.1544 17.5225L37.0702 15.0887C37.522 14.7118 37.5733 14.0489 37.1848 13.6111ZM19.9072 18.4687L18.5554 19.9785C18.1158 20.4694 17.2862 20.1439 17.3105 19.5072C17.3105 19.5072 19.907 18.4688 19.9072 18.4687ZM30.0849 18.0409C29.1744 18.5475 28.8679 18.5956 26.7568 18.8144C26.1787 18.8743 25.7256 18.7007 23.0301 17.9617C22.6848 17.867 22.5946 17.6886 22.5569 17.5626C22.5053 17.3905 22.5382 17.226 22.5381 17.226C22.5386 17.224 22.5386 17.222 22.5391 17.22C22.5399 17.2164 22.541 17.2128 22.5417 17.2091C22.542 17.208 22.5695 17.0945 22.6453 16.9957C22.7108 16.9103 22.8094 16.8271 23.0453 16.8586C23.8769 16.9692 25.8573 17.2251 25.8771 17.2277C26.1183 17.2588 26.3389 17.0955 26.371 16.8629C26.4032 16.6304 26.2342 16.4166 25.9937 16.3855C25.9737 16.3829 23.9951 16.1272 23.1651 16.0168C22.3881 15.9133 21.9302 16.3772 21.7498 16.8153L21.1088 17.0708C16.0493 19.0874 17.1899 18.6496 16.8144 18.7544C16.1077 18.8503 15.6234 17.9612 16.5121 17.3881L22.3748 14.144C22.3752 14.1438 22.3756 14.1436 22.376 14.1434C22.3831 14.1394 22.3901 14.1353 22.397 14.131C23.1311 13.669 23.9125 13.7712 24.2245 13.8399L26.4946 14.4624C27.5772 14.7591 28.6707 14.563 29.4196 13.9379L29.6172 13.7729C29.9524 14.1482 31.8836 16.3102 32.1814 16.6436C31.5103 17.1702 30.8068 17.6392 30.0849 18.0409ZM36.4959 14.4456C36.4866 14.4533 33.5777 16.8855 33.5654 16.884C33.5486 16.8829 29.5638 12.4346 29.5901 12.4127L32.6532 9.85596H32.6532C32.6592 9.85103 32.6665 9.8486 32.6739 9.8486C32.6799 9.8486 32.6858 9.85018 32.691 9.85336L36.5176 14.1645C36.5916 14.2477 36.5818 14.3738 36.4959 14.4456Z" fill="#484848"/>
<path d="M29.6541 27.428C29.6012 26.058 27.8127 25.4271 26.8656 26.485L24.6958 28.9085C24.6078 29.0067 24.5342 29.1143 24.475 29.2298L24.3854 29.2655C24.2685 28.8416 23.9487 28.4195 23.2954 28.2405C20.4136 27.4504 20.0378 27.292 19.2528 27.3586C19.2499 27.3588 19.2471 27.3591 19.2443 27.3594C17.1195 27.5796 16.6324 27.647 15.5623 28.2423C14.7925 28.6706 14.0433 29.1713 13.3299 29.733L13.1994 29.587C12.8752 29.2242 12.3063 29.1839 11.9312 29.4972L8.85646 32.0635C8.49025 32.369 8.45199 32.9035 8.77103 33.2551L12.8233 37.7191C13.1266 38.0532 13.6543 38.0951 13.9987 37.8135C14.0001 37.8123 14.0054 37.808 14.0069 37.8068L17.07 35.2501C17.4461 34.9361 17.4877 34.3878 17.1629 34.0242L17.0429 33.8899L17.2405 33.725C17.7649 33.2872 18.5542 33.1564 19.3512 33.3749L21.3893 33.9337C21.6228 33.9975 21.8659 33.8666 21.9321 33.6409C21.9983 33.4151 21.8627 33.1802 21.6292 33.1162L19.5911 32.5574C18.5085 32.2607 17.415 32.4568 16.6661 33.0819L16.4685 33.2467L13.9043 30.3761C14.5753 29.8494 15.2788 29.3804 16.0007 28.9787C16.912 28.4717 17.218 28.4239 19.3337 28.2047C19.8283 28.1631 20.1375 28.2492 21.8329 28.72C23.1466 29.0848 23.4178 29.0867 23.5287 29.457C23.5804 29.6291 23.5474 29.7936 23.5476 29.7936C23.5259 29.8849 23.4853 29.9654 23.4404 30.024C23.3749 30.1094 23.2759 30.1925 23.0405 30.1611C22.2087 30.0505 20.2285 29.7945 20.2086 29.7919C19.9674 29.761 19.7469 29.9241 19.7147 30.1568C19.6825 30.3893 19.8515 30.6031 20.092 30.6342C20.112 30.6367 22.0906 30.8925 22.9206 31.0029C23.6071 31.0943 24.116 30.7372 24.3356 30.2045C24.3575 30.1957 28.7615 28.4411 28.7826 28.4309C29.2468 28.2031 29.6853 28.1509 29.9618 28.5801C30.28 29.1298 29.7157 29.5399 29.5736 29.6316L23.7109 32.8756C23.7083 32.8771 23.7057 32.8786 23.7031 32.88C23.6985 32.8827 23.6932 32.8859 23.6888 32.8887C23.5918 32.9497 23.4883 33.0041 23.381 33.0504C23.1594 33.1461 23.0599 33.3974 23.159 33.6116C23.2579 33.8259 23.5181 33.922 23.7395 33.8263C23.8855 33.7632 24.0269 33.6892 24.1579 33.6073C24.1753 33.5977 30.0269 30.3602 30.0437 30.3496C31.6377 29.3463 30.871 27.6163 29.6541 27.428ZM13.4645 37.1369L9.43765 32.701L12.5057 30.1402C12.5076 30.1386 12.5126 30.1346 12.5202 30.1355C12.5286 30.1361 12.5324 30.1404 12.534 30.1422C12.9479 30.6056 16.0733 34.1044 16.4976 34.5795C16.4993 34.5813 16.5031 34.5855 16.5025 34.5936C16.5015 34.6061 13.4742 37.1287 13.4645 37.1369ZM27.5303 27.0411C27.9644 26.5562 28.7997 26.8674 28.7752 27.5124C28.7752 27.5124 26.1789 28.5507 26.1785 28.5508L27.5303 27.0411Z" fill="#484848"/>
<path d="M22.5398 22.2021C22.622 22.3423 22.8648 22.5302 23.1517 22.5235C23.3891 22.5181 23.6088 22.3813 23.7279 22.1961C24.294 21.3168 25.4783 21.515 25.8319 22.3154C25.9272 22.5312 26.1854 22.6315 26.4088 22.5393C26.632 22.4471 26.7356 22.1974 26.6403 21.9817C26.0401 20.6233 24.1262 20.3156 23.1339 21.5367C21.9311 20.0469 19.4591 20.8932 19.4609 22.7652C19.463 24.7333 21.226 26.2386 22.8752 26.991C23.0449 27.0685 23.2382 27.0646 23.3993 26.9905C24.5851 26.4467 25.8457 25.4817 26.4291 24.3164C26.5348 24.1052 26.4434 23.8511 26.2249 23.7489C26.0063 23.6466 25.7436 23.7351 25.6379 23.9463C25.1625 24.8957 24.1097 25.6949 23.1359 26.1691C21.7642 25.5134 20.3417 24.2933 20.34 22.7644C20.339 21.6114 21.9395 21.1811 22.5398 22.2021Z" fill="#484848"/>
</g>
<defs>
<clipPath id="clip0_902_48959">
<rect width="30" height="29" fill="white" transform="translate(8 9)"/>
</clipPath>
</defs>
</svg>
