<svg width="47" height="47" viewBox="0 0 47 47" fill="none" xmlns="http://www.w3.org/2000/svg">
<circle cx="23.5" cy="23.5" r="23.5" fill="#E6F9FF"/>
<path d="M17.743 33.5643V36.3247C17.743 36.4714 17.6203 36.5902 17.4689 36.5902H14.7273C14.5759 36.5902 14.4531 36.4714 14.4531 36.3247V33.5643C14.4531 33.4177 14.5759 33.2988 14.7273 33.2988H17.4689C17.6203 33.2988 17.743 33.4177 17.743 33.5643ZM32.2738 33.2988H29.5321C29.3807 33.2988 29.258 33.4177 29.258 33.5643V36.3247C29.258 36.4714 29.3807 36.5902 29.5321 36.5902H32.2738C32.4252 36.5902 32.5479 36.4714 32.5479 36.3247V33.5643C32.5479 33.4177 32.4252 33.2988 32.2738 33.2988Z" fill="#9855CF"/>
<path d="M32.5658 34.8912H14.4336C13.8079 34.8912 13.3008 34.4015 13.3008 33.7974V30.1455C13.3008 29.5414 13.8079 29.0518 14.4336 29.0518H32.5658C33.1915 29.0518 33.6986 29.5414 33.6986 30.1455V33.7974C33.6986 34.4014 33.1915 34.8912 32.5658 34.8912Z" fill="#B355FF"/>
<path d="M29.7145 34.8912H14.4336C13.8079 34.8912 13.3008 34.4015 13.3008 33.7974V30.1455C13.3008 29.5414 13.8079 29.0518 14.4336 29.0518H29.7145C30.3401 29.0518 30.8473 29.5414 30.8473 30.1455V33.7974C30.8473 34.4014 30.3401 34.8912 29.7145 34.8912Z" fill="#DAADFF"/>
<path d="M35.8912 24.3798V29.0513C35.8912 30.224 34.9092 31.1747 33.6979 31.1747H13.3001C12.0888 31.1747 11.1068 30.224 11.1068 29.0513V24.3798C10.797 23.9806 10.6133 23.4843 10.6133 22.9465C10.6133 21.6271 11.718 20.5576 13.0808 20.5576C13.9362 20.5576 14.6898 20.9792 15.1325 21.6193H31.8655C32.3082 20.9792 33.0618 20.5576 33.9172 20.5576C35.28 20.5576 36.3847 21.6271 36.3847 22.9465C36.3847 23.4843 36.201 23.9806 35.8912 24.3798Z" fill="#C783FF"/>
<path d="M36.3841 22.9465C36.3841 23.4843 36.2005 23.9806 35.8906 24.3798V29.0513C35.8906 30.224 34.9087 31.1747 33.6973 31.1747H31.4492C32.6605 31.1747 33.6425 30.224 33.6425 29.0513V24.3798C33.9523 23.9806 34.136 23.4843 34.136 22.9465C34.136 22.0195 33.5902 21.2164 32.7931 20.8204C33.1303 20.653 33.5117 20.5576 33.9167 20.5576C35.2794 20.5577 36.3841 21.6272 36.3841 22.9465Z" fill="#DAADFF"/>
<path d="M29.7875 26.3974H17.2109C15.9597 26.3974 14.9453 25.418 14.9453 24.2099V11.5977C14.9453 10.3896 15.9597 9.41016 17.2109 9.41016H29.7876C31.0388 9.41016 32.0532 10.3896 32.0532 11.5977V24.2099C32.0531 25.418 31.0388 26.3974 29.7875 26.3974Z" fill="#DEB5FF"/>
<path d="M32.0534 11.5336V24.274C32.0534 25.4467 31.0714 26.3974 29.8601 26.3974H17.1388C16.8746 26.3974 16.6213 26.3521 16.3867 26.2692C23.683 25.3275 29.3117 19.2796 29.3117 11.9583V11.5336C29.3117 10.3608 28.3298 9.41016 27.1185 9.41016H29.8601C31.0714 9.41016 32.0534 10.3608 32.0534 11.5336Z" fill="#C47BFF"/>
<path d="M31.7451 27.99H15.2578C14.6322 27.99 14.125 27.5003 14.125 26.8962V24.8369C14.125 24.2328 14.6322 23.7432 15.2578 23.7432H31.745C32.3707 23.7432 32.8778 24.2328 32.8778 24.8369V26.8962C32.8779 27.5003 32.3707 27.99 31.7451 27.99Z" fill="#BA65FF"/>
<path d="M29.2041 27.99H15.2217C14.616 27.99 14.125 27.5146 14.125 26.9283V24.8049C14.125 24.2185 14.616 23.7432 15.2217 23.7432H29.2041C29.8097 23.7432 30.3007 24.2185 30.3007 24.8049V26.9283C30.3007 27.5146 29.8097 27.99 29.2041 27.99Z" fill="#DDB4FF"/>
<path d="M33.9163 20.1479C33.4059 20.1479 32.9105 20.2792 32.4768 20.5202V14.7541C32.4768 14.5275 32.2866 14.3439 32.052 14.3439C31.8173 14.3439 31.6272 14.5275 31.6272 14.7541V23.333H20.1806C19.946 23.333 19.7558 23.5166 19.7558 23.7432C19.7558 23.9697 19.946 24.1533 20.1806 24.1533H31.7778C31.8024 24.1533 31.8266 24.1548 31.8504 24.1573C31.9076 24.1871 31.9726 24.2043 32.0417 24.2059C32.2813 24.3056 32.4497 24.5365 32.4497 24.8049V26.9283C32.4497 27.2875 32.1483 27.5798 31.7778 27.5798H15.2183C14.8478 27.5798 14.5464 27.2875 14.5464 26.9283V24.8049C14.5464 24.4456 14.8478 24.1533 15.2183 24.1533H18.0147C18.2494 24.1533 18.4395 23.9697 18.4395 23.7432C18.4395 23.5166 18.2494 23.333 18.0147 23.333H15.3689V11.5336C15.3689 10.5889 16.1622 9.82031 17.1374 9.82031H29.8586C30.8338 9.82031 31.6272 10.5889 31.6272 11.5336V12.9667C31.6272 13.1933 31.8173 13.3769 32.052 13.3769C32.2866 13.3769 32.4768 13.1933 32.4768 12.9667V11.5336C32.4767 10.1365 31.3023 9 29.8586 9H17.1374C15.6938 9 14.5193 10.1365 14.5193 11.5336V20.5201C14.0853 20.2791 13.5896 20.1479 13.0797 20.1479C11.485 20.1479 10.1875 21.4035 10.1875 22.9469C10.1875 23.5105 10.3576 24.0483 10.681 24.5111V29.0517C10.681 30.3088 11.6321 31.3544 12.8744 31.5514V33.8294C12.8744 34.5176 13.3651 35.0967 14.0258 35.257V36.3244C14.0258 36.6969 14.3394 37 14.7248 37H17.4664C17.8519 37 18.1654 36.6969 18.1654 36.3244V35.3012H28.8307V36.3244C28.8307 36.6969 29.1442 37 29.5297 37H32.2713C32.6567 37 32.9703 36.6969 32.9703 36.3244V35.257C33.631 35.0967 34.1217 34.5175 34.1217 33.8294V31.5514C35.364 31.3544 36.3151 30.3088 36.3151 29.0517V24.5111C36.6385 24.0483 36.8086 23.5105 36.8086 22.9469C36.8085 21.4035 35.5111 20.1479 33.9163 20.1479ZM17.3158 36.1796H14.8754V35.3012H17.3158V36.1796ZM29.6803 36.1796V35.3012H32.1206V36.1796H29.6803ZM32.6003 34.4809H14.3958C14.0253 34.4809 13.724 34.1886 13.724 33.8294V31.5853H33.2721V33.8294C33.2721 34.1886 32.9707 34.4809 32.6003 34.4809ZM35.5502 24.1344C35.4952 24.2053 35.4654 24.2916 35.4654 24.3802V29.0517C35.4654 29.9964 34.6721 30.7649 33.6969 30.7649H13.2992C12.324 30.7649 11.5306 29.9964 11.5306 29.0517V24.3802C11.5306 24.2916 11.5009 24.2053 11.4458 24.1344C11.1784 23.7897 11.0371 23.3791 11.0371 22.9469C11.0371 21.8559 11.9534 20.9682 13.0797 20.9682C13.6199 20.9682 14.1378 21.1767 14.5193 21.5438V23.4982C14.0311 23.7435 13.6968 24.2369 13.6968 24.8049V26.9283C13.6968 27.7399 14.3794 28.4001 15.2183 28.4001H31.7777C32.6167 28.4001 33.2992 27.7399 33.2992 26.9283V24.8049C33.2992 24.237 32.9648 23.7436 32.4767 23.4982V21.544C32.8583 21.1768 33.3754 20.9682 33.9163 20.9682C35.0426 20.9682 35.9589 21.8558 35.9589 22.9469C35.9589 23.3791 35.8176 23.7897 35.5502 24.1344ZM20.8927 13.4157L20.6435 13.657L20.8927 13.8982C21.0583 14.0586 21.0579 14.3183 20.8918 14.4782C20.8089 14.558 20.7004 14.5979 20.5919 14.5979C20.4829 14.5979 20.374 14.5578 20.291 14.4774L20.0435 14.2377L19.796 14.4774C19.713 14.5577 19.6041 14.5979 19.4952 14.5979C19.3867 14.5979 19.2781 14.558 19.1952 14.4782C19.0291 14.3182 19.0287 14.0585 19.1944 13.8982L19.4435 13.657L19.1944 13.4157C19.0287 13.2553 19.0291 12.9956 19.1952 12.8357C19.3613 12.6757 19.6303 12.6761 19.7959 12.8365L20.0435 13.0762L20.291 12.8365C20.4566 12.6761 20.7256 12.6758 20.8917 12.8357C21.0579 12.9956 21.0583 13.2554 20.8927 13.4157ZM27.8016 13.4157L27.5524 13.657L27.8016 13.8982C27.9672 14.0586 27.9668 14.3183 27.8007 14.4782C27.7178 14.558 27.6093 14.5979 27.5008 14.5979C27.3918 14.5979 27.2829 14.5578 27.1999 14.4774L26.9524 14.2377L26.7049 14.4774C26.6219 14.5577 26.513 14.5979 26.4041 14.5979C26.2956 14.5979 26.187 14.558 26.1041 14.4782C25.938 14.3182 25.9376 14.0585 26.1033 13.8982L26.3524 13.657L26.1033 13.4157C25.9376 13.2553 25.938 12.9956 26.1041 12.8357C26.2703 12.6757 26.5393 12.6761 26.7048 12.8365L26.9524 13.0762L27.1999 12.8365C27.3655 12.6761 27.6345 12.6758 27.8006 12.8357C27.9668 12.9956 27.9672 13.2554 27.8016 13.4157ZM20.8927 18.7242L20.6435 18.9655L20.8927 19.2067C21.0583 19.3671 21.0579 19.6268 20.8918 19.7867C20.8089 19.8665 20.7004 19.9064 20.5919 19.9064C20.4829 19.9064 20.374 19.8663 20.291 19.7859L20.0435 19.5462L19.796 19.7859C19.713 19.8662 19.6041 19.9064 19.4952 19.9064C19.3867 19.9064 19.2781 19.8665 19.1952 19.7867C19.0291 19.6267 19.0287 19.367 19.1944 19.2067L19.4435 18.9655L19.1944 18.7242C19.0287 18.5638 19.0291 18.3041 19.1952 18.1442C19.3613 17.9842 19.6303 17.9846 19.7959 18.145L20.0435 18.3847L20.291 18.145C20.4566 17.9846 20.7256 17.9843 20.8917 18.1442C21.0579 18.3042 21.0583 18.5639 20.8927 18.7242ZM27.8016 18.7242L27.5524 18.9655L27.8016 19.2067C27.9672 19.3671 27.9668 19.6268 27.8007 19.7867C27.7178 19.8665 27.6093 19.9064 27.5008 19.9064C27.3918 19.9064 27.2829 19.8663 27.1999 19.7859L26.9524 19.5462L26.7049 19.7859C26.6219 19.8662 26.513 19.9064 26.4041 19.9064C26.2956 19.9064 26.187 19.8665 26.1041 19.7867C25.938 19.6267 25.9376 19.367 26.1033 19.2067L26.3524 18.9655L26.1033 18.7242C25.9376 18.5638 25.938 18.3041 26.1041 18.1442C26.2703 17.9842 26.5393 17.9846 26.7048 18.145L26.9524 18.3847L27.1999 18.145C27.3655 17.9846 27.6345 17.9843 27.8006 18.1442C27.9668 18.3042 27.9672 18.5639 27.8016 18.7242Z" fill="#484848"/>
</svg>
