<svg width="109" height="109" viewBox="0 0 109 109" fill="none" xmlns="http://www.w3.org/2000/svg">
<path fill-rule="evenodd" clip-rule="evenodd" d="M21.5787 63.856H2.47656V106.305H21.5785C21.5787 92.1553 21.5787 78.0056 21.5787 63.856Z" fill="#0480BB"/>
<path fill-rule="evenodd" clip-rule="evenodd" d="M21.5781 67.9229V101.635C30.3325 101.635 29.4855 106.305 37.6565 106.305H62.5942C65.5121 106.305 67.9003 103.917 67.9003 100.999C67.9003 98.0803 65.5126 95.6926 62.5942 95.6926H65.7779C68.6958 95.6926 71.084 93.3048 71.084 90.3864C71.084 87.4681 68.6962 85.0803 65.7779 85.0803H68.9615C71.8798 85.0803 74.2676 82.6926 74.2676 79.7742C74.2676 76.8557 71.8798 74.4681 68.9615 74.4681H64.7165C67.6348 74.4681 70.0226 72.0804 70.0226 69.162C70.0226 66.2437 67.6348 63.8559 64.7165 63.8559H44.0656L45.7264 49.9189C46.4721 43.6611 43.2834 39.4874 37.1954 37.856L33.1452 52.9712L25.1055 66.9776L21.5781 67.9229Z" fill="#FDBEB9"/>
<path fill-rule="evenodd" clip-rule="evenodd" d="M63.7111 52.4325C64.3613 53.5442 65.577 54.2865 66.9582 54.2922L72.3323 54.3208L76.9616 56.9607C78.0861 57.6266 79.5265 57.6883 80.7445 56.9969L85.4372 54.3208L90.4917 54.2939C91.8934 54.4064 93.3022 53.7283 94.0586 52.4325L96.7742 47.7861L101.421 45.0703C102.532 44.4201 103.275 43.2044 103.281 41.8233L103.309 36.4491L105.949 31.8198C106.615 30.6953 106.677 29.2549 105.985 28.0369L103.309 23.3443L103.282 18.2897C103.395 16.888 102.717 15.4792 101.421 14.7231L96.7742 12.0072L94.0584 7.36062C93.4079 6.24897 92.1925 5.50638 90.8113 5.50089L85.4372 5.47235L80.8079 2.8324C79.6833 2.16655 78.2432 2.10483 77.025 2.79626L72.3325 5.47235L67.278 5.49919C65.8763 5.38674 64.4674 6.06485 63.7111 7.36062L60.9955 12.0072L56.3489 14.7231C55.196 15.3974 54.4944 16.6365 54.4892 17.9701L54.4606 23.3443L51.8207 27.9737C51.1548 29.0983 51.0931 30.5384 51.7845 31.7564L54.4606 36.4491L54.4875 41.5036C54.375 42.9053 55.0531 44.3142 56.3489 45.0705L60.9953 47.7861L63.7111 52.4325Z" fill="#8A00FA"/>
<path fill-rule="evenodd" clip-rule="evenodd" d="M55.1103 106.304C41.2578 96.9626 32.1476 81.1255 32.1476 63.1606C32.1476 59.673 32.4909 56.2657 33.1456 52.9707L25.1059 66.9771L21.5781 67.9224V101.635C21.9305 101.635 22.2672 101.642 22.5898 101.657C30.279 102.003 29.8144 106.304 37.6565 106.304H55.1103Z" fill="#C08D84"/>
<path fill-rule="evenodd" clip-rule="evenodd" d="M56.3489 45.0705L60.9953 47.7861L63.7111 52.4327C64.3613 53.5444 65.577 54.2867 66.9582 54.2924L72.3323 54.321L76.9616 56.9609C78.0861 57.6268 79.5265 57.6885 80.7445 56.9971L84.7485 54.7137C77.2928 45.7142 72.8117 34.1611 72.8117 21.5615C72.8117 15.1448 73.9739 8.99946 76.0996 3.32471L72.3325 5.47298L67.278 5.49983C65.8763 5.38737 64.4674 6.06548 63.7111 7.36125L60.9955 12.0074L56.3489 14.7233C55.196 15.3976 54.4944 16.6367 54.4892 17.9703L54.4606 23.3445L51.8207 27.9739C51.1548 29.0985 51.0931 30.5386 51.7845 31.7566L54.4606 36.4493L54.4875 41.5039C54.3752 42.9053 55.0533 44.3142 56.3489 45.0705Z" fill="#6C00C4"/>
<path d="M44.2171 62.5817L45.7261 49.9191C46.4719 43.6614 43.2832 39.4874 37.1952 37.8562L33.1449 52.9715L25.1052 66.9781L22.5215 67.6703" stroke="#000F8F" stroke-width="4" stroke-miterlimit="2.6131" stroke-linecap="round" stroke-linejoin="round"/>
<path d="M21.5785 63.8562H2.47656V106.305H21.5785V63.8562Z" stroke="#000F8F" stroke-width="4" stroke-miterlimit="2.6131" stroke-linecap="round" stroke-linejoin="round"/>
<path d="M40.6257 63.8562H64.7148C67.6331 63.8562 70.0209 66.244 70.0209 69.1623C70.0209 72.0806 67.6331 74.4684 64.7148 74.4684H68.9598C71.8781 74.4684 74.2659 76.8562 74.2659 79.7745C74.2659 82.6929 71.8781 85.0806 68.9598 85.0806H65.7762C68.6945 85.0806 71.0823 87.4684 71.0823 90.3867C71.0823 93.3051 68.6941 95.6928 65.7762 95.6928H62.5925C65.5109 95.6928 67.8986 98.0806 67.8986 100.999C67.8986 103.917 65.5104 106.305 62.5925 106.305H37.6546C29.8125 106.305 30.2771 102.004 22.5879 101.658" stroke="#000F8F" stroke-width="4" stroke-miterlimit="2.6131" stroke-linecap="round" stroke-linejoin="round"/>
<path fill-rule="evenodd" clip-rule="evenodd" d="M80.8077 2.83272L85.4369 5.47267L90.8111 5.50121C92.1923 5.50649 93.4079 6.24908 94.0581 7.36094L96.774 12.0073L101.42 14.723C102.716 15.4793 103.394 16.8881 103.282 18.2896L103.309 23.3442L105.985 28.0368C106.676 29.255 106.614 30.6952 105.949 31.8197L103.309 36.449L103.28 41.8229C103.275 43.2041 102.532 44.4198 101.42 45.07L96.774 47.786L94.0584 52.4324C93.302 53.7282 91.8932 54.4063 90.4915 54.2938L85.4369 54.3207L80.7443 56.9968C79.5261 57.6882 78.0859 57.6265 76.9614 56.9606L72.3321 54.3207L66.9582 54.2921C65.577 54.2866 64.3613 53.5443 63.7111 52.4324L60.9953 47.786L56.3489 45.0704C55.0531 44.3141 54.375 42.9054 54.4875 41.5035L54.4606 36.449L51.7845 31.7563C51.0931 30.5383 51.1548 29.098 51.8207 27.9734L54.4606 23.3442L54.4894 17.97C54.4945 16.6364 55.196 15.3973 56.3491 14.723L60.9953 12.0073L63.7109 7.36094C64.4672 6.06517 65.8761 5.38706 67.2778 5.49952L72.3323 5.47267L77.0248 2.79658C78.243 2.10515 79.6831 2.16666 80.8077 2.83272Z" stroke="#000F8F" stroke-width="4" stroke-miterlimit="2.6131" stroke-linecap="round" stroke-linejoin="round"/>
<path d="M86.0473 25.1211L76.4962 34.6722L71.7207 29.8968" stroke="white" stroke-width="4" stroke-miterlimit="2.6131" stroke-linecap="round" stroke-linejoin="round"/>
</svg>
