<svg width="47" height="47" viewBox="0 0 47 47" fill="none" xmlns="http://www.w3.org/2000/svg">
<circle cx="23.5" cy="23.5" r="23.5" fill="#E6F9FF"/>
<path d="M23.1946 39.0953C31.9769 39.0953 39.0963 31.9759 39.0963 23.1937C39.0963 14.4114 31.9769 7.29199 23.1946 7.29199C14.4124 7.29199 7.29297 14.4114 7.29297 23.1937C7.29297 31.9759 14.4124 39.0953 23.1946 39.0953Z" fill="#FFE093"/>
<path d="M23.1946 36.0384C14.923 36.0384 8.13297 29.7267 7.36297 21.665C7.3163 22.1667 7.29297 22.68 7.29297 23.1934C7.29297 31.9784 14.4096 39.095 23.1946 39.095C31.9796 39.095 39.0963 31.9784 39.0963 23.1934C39.0963 22.68 39.073 22.1667 39.0263 21.665C38.2563 29.7267 31.4663 36.0384 23.1946 36.0384Z" fill="#FFCA6B"/>
<path d="M10.9668 27.2419C11.6949 27.2419 12.2851 27.033 12.2851 26.7753C12.2851 26.5175 11.6949 26.3086 10.9668 26.3086C10.2387 26.3086 9.64844 26.5175 9.64844 26.7753C9.64844 27.033 10.2387 27.2419 10.9668 27.2419Z" fill="#F97AA4"/>
<path d="M35.4082 27.2419C36.1363 27.2419 36.7265 27.033 36.7265 26.7753C36.7265 26.5175 36.1363 26.3086 35.4082 26.3086C34.6801 26.3086 34.0898 26.5175 34.0898 26.7753C34.0898 27.033 34.6801 27.2419 35.4082 27.2419Z" fill="#F97AA4"/>
<path d="M20.5673 24.8613C20.5673 24.8613 19.1673 26.763 16.4607 26.763C13.754 26.763 12.354 24.8613 12.354 24.8613L12.0273 22.4463H20.5673V24.8613Z" fill="white"/>
<path d="M25.8164 24.8613C25.8164 24.8613 27.2164 26.763 29.9231 26.763C32.6297 26.763 34.0297 24.8613 34.0297 24.8613L34.3564 22.4463H25.8164V24.8613Z" fill="white"/>
<path d="M13.2057 11.188C13.3341 11.083 13.4741 10.978 13.6024 10.873C13.7307 10.7797 13.7541 10.593 13.6491 10.4647C13.5557 10.3364 13.3691 10.313 13.2291 10.4064C13.0891 10.5114 12.9607 10.6164 12.8207 10.733C12.6924 10.838 12.6807 11.0247 12.7857 11.153C12.9024 11.2697 13.0891 11.293 13.2057 11.188Z" fill="black"/>
<path d="M23.1933 7C20.1833 7 17.255 7.82833 14.7117 9.40333C14.5717 9.485 14.5367 9.67167 14.6183 9.81167C14.7 9.95167 14.8867 9.98667 15.015 9.905C17.465 8.38833 20.2883 7.595 23.1933 7.595C31.8383 7.595 38.8733 14.665 38.8033 23.3333C38.7333 31.8267 31.8033 38.7567 23.31 38.8267C14.6533 38.8733 7.58333 31.8383 7.58333 23.1933C7.58333 19.5417 8.86667 16.0067 11.1883 13.2067C11.2933 13.0783 11.2817 12.9033 11.1533 12.7983C11.025 12.6933 10.8383 12.705 10.745 12.8333C8.31833 15.7383 7 19.4017 7 23.1933C7 32.165 14.3383 39.4567 23.3217 39.3867C32.13 39.3167 39.3283 32.13 39.3867 23.3217C39.4567 14.3267 32.165 7 23.1933 7Z" fill="black"/>
<path d="M11.6667 22.7502H13.0783C13.2183 23.6368 13.9883 24.3252 14.9217 24.3252C15.855 24.3252 16.625 23.6368 16.765 22.7502H20.6733L20.755 22.6918C20.8017 22.6568 21.1283 22.4118 21.2217 21.8168C21.245 21.6418 21.1167 21.4785 20.93 21.4785C20.79 21.4785 20.6617 21.5835 20.6383 21.7352C20.615 21.8518 20.5917 21.9335 20.5567 22.0035C20.51 22.1085 20.405 22.1668 20.2883 22.1668H11.6667C11.5033 22.1668 11.375 22.2952 11.375 22.4585C11.375 22.6218 11.5033 22.7502 11.6667 22.7502Z" fill="black"/>
<path d="M20.5554 24.8505C20.4387 24.7571 20.2637 24.7805 20.1704 24.8855C19.7387 25.3521 18.4787 26.4838 16.4604 26.4838C14.4537 26.4838 13.1821 25.3521 12.7504 24.8855C12.6454 24.7805 12.4821 24.7688 12.3654 24.8505C12.2254 24.9555 12.2021 25.1538 12.3304 25.2821C12.8321 25.8305 14.2087 27.0555 16.4604 27.0555C18.7121 27.0555 20.0887 25.8188 20.5904 25.2821C20.7187 25.1538 20.6954 24.9555 20.5554 24.8505Z" fill="black"/>
<path d="M25.1783 21.8051C25.2717 22.4001 25.5983 22.6568 25.645 22.6801L25.7267 22.7385H26.66C26.8 23.6251 27.57 24.3135 28.5033 24.3135C29.4367 24.3135 30.2067 23.6251 30.3467 22.7385H34.7217C34.885 22.7385 35.0133 22.6101 35.0133 22.4468C35.0133 22.2835 34.885 22.1551 34.7217 22.1551H26.1C25.9833 22.1551 25.8783 22.0968 25.8317 21.9918C25.7967 21.9218 25.7733 21.8285 25.75 21.7235C25.7267 21.5835 25.61 21.4668 25.4583 21.4668C25.295 21.4668 25.155 21.6301 25.1783 21.8051Z" fill="black"/>
<path d="M34.0067 24.8504C33.89 24.7687 33.7267 24.7804 33.6217 24.8854C33.19 25.3521 31.9417 26.4721 29.9117 26.4721C27.905 26.4721 26.6333 25.3404 26.2017 24.8737C26.0967 24.7687 25.9333 24.7571 25.8167 24.8388C25.6767 24.9438 25.6533 25.1421 25.77 25.2704C26.2717 25.8188 27.6483 27.0437 29.9 27.0437C32.1517 27.0437 33.5283 25.8071 34.03 25.2704C34.17 25.1538 34.1467 24.9554 34.0067 24.8504Z" fill="black"/>
<path d="M21.2436 30.3918C20.6952 31.0218 20.6836 32.0835 20.7186 32.6085C20.7302 32.7835 20.8819 32.9001 21.0569 32.8768C21.2086 32.8535 21.3136 32.7251 21.3019 32.5735C21.2669 32.0718 21.3019 31.2201 21.6869 30.7768C21.8736 30.5668 22.1186 30.4618 22.4452 30.4618C23.3202 30.4618 24.5686 31.9901 25.1402 32.8068C25.2336 32.9351 25.4086 32.9701 25.5369 32.8885C25.6769 32.7951 25.7119 32.6085 25.6186 32.4801C25.1169 31.7568 23.6936 29.8785 22.4452 29.8785C21.9436 29.8668 21.5469 30.0418 21.2436 30.3918Z" fill="black"/>
<path d="M21.1859 17.7562C21.2326 17.5695 21.0926 17.3945 20.9059 17.3945C20.7659 17.3945 20.6609 17.4879 20.6259 17.6279C20.3342 18.7712 17.8492 19.7279 14.9909 19.7862C14.8276 19.7862 14.6992 19.9145 14.6992 20.0779C14.6992 20.2412 14.8276 20.3695 14.9909 20.3695C17.8959 20.2995 20.8009 19.3429 21.1859 17.7562Z" fill="black"/>
<path d="M31.3955 20.3588C31.5588 20.3588 31.6871 20.2305 31.6871 20.0671C31.6871 19.9038 31.5588 19.7755 31.3955 19.7755C28.5371 19.7171 26.0638 18.7488 25.7605 17.6171C25.7255 17.4888 25.6088 17.3838 25.4805 17.3838C25.2938 17.3838 25.1538 17.5705 25.2005 17.7455C25.5855 19.3438 28.4905 20.3005 31.3955 20.3588Z" fill="black"/>
<path d="M22.4935 17.85V17.1266C22.4935 16.9633 22.3652 16.835 22.2018 16.835C22.0385 16.835 21.9102 16.9633 21.9102 17.1266V17.8616C21.9102 18.025 22.0385 18.1533 22.2018 18.1533C22.3652 18.1416 22.4935 18.0133 22.4935 17.85Z" fill="black"/>
<path d="M24.4779 17.85V17.1266C24.4779 16.9633 24.3495 16.835 24.1862 16.835C24.0229 16.835 23.8945 16.9633 23.8945 17.1266V17.8616C23.8945 18.025 24.0229 18.1533 24.1862 18.1533C24.3495 18.1416 24.4779 18.0133 24.4779 17.85Z" fill="black"/>
</svg>
