<svg width="47" height="47" viewBox="0 0 47 47" fill="none" xmlns="http://www.w3.org/2000/svg">
<circle cx="23.5" cy="23.5" r="23.5" fill="#E6F9FF"/>
<g clip-path="url(#clip0_902_49084)">
<path d="M13.5 15.5791V33.6143H31.5039C33.2332 33.6143 34.635 32.2685 34.635 30.6085V15.5791H13.5Z" fill="#FEEFCD"/>
<path d="M28.3711 30.6084H10.3672C10.3672 32.2685 11.769 33.6143 13.4983 33.6143H31.5022C29.773 33.6143 28.3711 32.2685 28.3711 30.6084Z" fill="#FDE09B"/>
<path d="M19.5663 16.1431C20.6471 16.1431 21.5233 15.302 21.5233 14.2644C21.5233 13.2269 20.6471 12.3857 19.5663 12.3857C18.4855 12.3857 17.6094 13.2269 17.6094 14.2644C17.6094 15.302 18.4855 16.1431 19.5663 16.1431Z" fill="#7D55CC"/>
<path d="M20.5448 15.2033C19.464 15.2033 18.5878 14.3622 18.5878 13.3246C18.5878 13.049 18.6502 12.7876 18.7612 12.5518C18.0822 12.8465 17.6094 13.502 17.6094 14.264C17.6094 15.3015 18.4855 16.1426 19.5663 16.1426C20.36 16.1426 21.0428 15.6888 21.3499 15.0369C21.1042 15.1435 20.8319 15.2033 20.5448 15.2033Z" fill="#5C2BBF"/>
<path d="M34.6331 15.2269H31.8891C31.6864 15.2269 31.5222 15.3847 31.5222 15.5792C31.5222 15.7737 31.6864 15.9314 31.8891 15.9314H34.2661V30.6085C34.2661 32.0717 33.0261 33.2622 31.502 33.2622C29.9778 33.2622 28.7378 32.0717 28.7378 30.6085C28.7378 30.414 28.5735 30.2563 28.3708 30.2563H19.5603C19.3577 30.2563 19.1934 30.414 19.1934 30.6085C19.1934 30.8031 19.3577 30.9608 19.5603 30.9608H28.023C28.1248 31.8943 28.6267 32.7151 29.3605 33.2622H13.498C12.0982 33.2622 10.9381 32.2581 10.7581 30.9608H17.8033C18.006 30.9608 18.1703 30.8031 18.1703 30.6085C18.1703 30.414 18.006 30.2563 17.8033 30.2563H13.865V15.9314H18.0229C18.4335 16.2817 18.9734 16.495 19.5646 16.495C20.0731 16.495 20.5437 16.337 20.9268 16.0699L23.0233 18.0827C23.095 18.1514 23.1889 18.1858 23.2828 18.1858C23.3767 18.1858 23.4706 18.1515 23.5422 18.0827C23.6855 17.9451 23.6855 17.722 23.5422 17.5845L21.8203 15.9314H30.1661C30.3687 15.9314 30.533 15.7737 30.533 15.5792C30.533 15.3847 30.3687 15.2269 30.1661 15.2269H21.6606C21.8066 14.9353 21.8885 14.6087 21.8885 14.2641C21.8885 13.034 20.8459 12.0332 19.5646 12.0332C18.2832 12.0332 17.2407 13.034 17.2407 14.2641C17.2407 14.6087 17.3226 14.9353 17.4685 15.2269H13.498C13.2954 15.2269 13.1311 15.3847 13.1311 15.5792V30.2563H10.3669C10.1643 30.2563 10 30.414 10 30.6085C10 32.4602 11.5692 33.9667 13.498 33.9667H31.502C33.4308 33.9667 35 32.4602 35 30.6085V15.5792C35 15.3847 34.8357 15.2269 34.6331 15.2269ZM19.5646 12.7377C20.4413 12.7377 21.1546 13.4225 21.1546 14.2641C21.1546 14.649 21.0051 15.0007 20.7595 15.2695C20.7549 15.2719 20.7507 15.2747 20.7462 15.2772C20.741 15.2802 20.7358 15.283 20.7308 15.2863C20.7251 15.2899 20.7199 15.2939 20.7144 15.2978C20.7103 15.3008 20.706 15.3035 20.7019 15.3067C20.6832 15.3215 20.666 15.338 20.6506 15.356C20.6472 15.36 20.6442 15.3642 20.6409 15.3684C20.637 15.3734 20.6329 15.3783 20.6293 15.3836C20.6257 15.3886 20.6227 15.3939 20.6195 15.399C20.6169 15.4031 20.6141 15.407 20.6118 15.4112C20.3318 15.6471 19.9655 15.7905 19.5646 15.7905C18.6879 15.7905 17.9746 15.1058 17.9746 14.2641C17.9746 13.4225 18.6879 12.7377 19.5646 12.7377Z" fill="#484848"/>
<path d="M19.7345 21.5905C19.7345 21.396 19.5702 21.2383 19.3676 21.2383H17.0193C16.8166 21.2383 16.6523 21.396 16.6523 21.5905C16.6523 21.7851 16.8166 21.9428 17.0193 21.9428H17.8277C17.8272 21.9506 17.8265 21.9583 17.8265 21.9663V24.5964C17.8265 24.7909 17.9908 24.9487 18.1934 24.9487C18.3961 24.9487 18.5604 24.7909 18.5604 24.5964V21.9663C18.5604 21.9583 18.5597 21.9506 18.5591 21.9428H19.3676C19.5702 21.9428 19.7345 21.7851 19.7345 21.5905Z" fill="#484848"/>
<path d="M21.3263 24.9487C22.176 24.9487 22.8673 24.1164 22.8673 23.0935C22.8673 22.0705 22.176 21.2383 21.3263 21.2383C20.4765 21.2383 19.7852 22.0705 19.7852 23.0935C19.7852 24.1164 20.4765 24.9487 21.3263 24.9487ZM21.3263 21.9428C21.7638 21.9428 22.1335 22.4697 22.1335 23.0935C22.1335 23.7172 21.7638 24.2442 21.3263 24.2442C20.8887 24.2442 20.519 23.7172 20.519 23.0935C20.519 22.4697 20.8887 21.9428 21.3263 21.9428Z" fill="#484848"/>
<path d="M28.3945 23.0935C28.3945 24.1164 29.0859 24.9487 29.9356 24.9487C30.7854 24.9487 31.4767 24.1164 31.4767 23.0935C31.4767 22.0705 30.7854 21.2383 29.9356 21.2383C29.0859 21.2383 28.3945 22.0705 28.3945 23.0935ZM30.7429 23.0935C30.7429 23.7172 30.3732 24.2442 29.9356 24.2442C29.4981 24.2442 29.1284 23.7172 29.1284 23.0935C29.1284 22.4697 29.4981 21.9428 29.9356 21.9428C30.3732 21.9428 30.7429 22.4697 30.7429 23.0935Z" fill="#484848"/>
<path d="M27.5627 23.0942C27.5627 21.3134 25.0161 20.8854 24.9077 20.8681C24.8014 20.8511 24.6925 20.8798 24.6102 20.9467C24.5279 21.0137 24.4805 21.112 24.4805 21.2155V24.5971C24.4805 24.7917 24.6448 24.9494 24.8474 24.9494C25.7865 24.9494 27.5627 24.5617 27.5627 23.0942ZM25.2143 21.6646C25.8132 21.8374 26.8288 22.2542 26.8288 23.0942C26.8288 23.9189 25.7871 24.1527 25.2143 24.2188V21.6646Z" fill="#484848"/>
<path d="M28.7374 26.4753C28.7374 26.2808 28.5731 26.123 28.3705 26.123H20.5427C20.3401 26.123 20.1758 26.2808 20.1758 26.4753C20.1758 26.6698 20.3401 26.8275 20.5427 26.8275H28.3705C28.5731 26.8275 28.7374 26.6698 28.7374 26.4753Z" fill="#484848"/>
<path d="M21.324 28.002C21.1213 28.002 20.957 28.1597 20.957 28.3542C20.957 28.5487 21.1213 28.7065 21.324 28.7065H26.412C26.6147 28.7065 26.7789 28.5487 26.7789 28.3542C26.7789 28.1597 26.6147 28.002 26.412 28.002H21.324Z" fill="#484848"/>
</g>
<defs>
<clipPath id="clip0_902_49084">
<rect width="25" height="24" fill="white" transform="translate(10 11)"/>
</clipPath>
</defs>
</svg>
