<svg width="49" height="49" viewBox="0 0 49 49" fill="none" xmlns="http://www.w3.org/2000/svg">
<circle cx="24.5" cy="24.5" r="24.5" fill="#E6F9FF"/>
<g clip-path="url(#clip0_841_86002)">
<path d="M25.0013 35.1932C31.143 35.1932 36.1218 30.4058 36.1218 24.5004C36.1218 18.5949 31.143 13.8076 25.0013 13.8076C18.8597 13.8076 13.8809 18.5949 13.8809 24.5004C13.8809 30.4058 18.8597 35.1932 25.0013 35.1932Z" fill="#72D8FF"/>
<path d="M31.8568 18.1368C30.5645 18.1368 29.517 19.144 29.517 20.3866C29.517 20.848 29.1278 21.2222 28.6479 21.2222C27.7987 21.2222 27.1104 21.8841 27.1104 22.7006V23.0221C27.1104 23.8386 27.7987 24.5005 28.6479 24.5005H36.1214C36.1214 22.1165 35.3096 19.9149 33.9378 18.1367L31.8568 18.1368Z" fill="#A0E557"/>
<path d="M26.9526 29.0628H26.4109C26.0136 29.0628 25.6916 28.7531 25.6916 28.3711V26.2765C25.6916 25.2956 24.8647 24.5005 23.8446 24.5005H21.7902H20.9365C20.268 24.5005 19.7261 25.0215 19.7261 25.6644C19.7261 25.825 19.5906 25.9553 19.4234 25.9553H19.3782C18.3527 25.9553 17.5214 26.7547 17.5215 27.7408V27.741C17.5215 28.727 18.3528 29.5262 19.3782 29.5262H20.1326C20.66 29.5262 21.0876 29.9374 21.0876 30.4445C21.0877 31.2705 21.7841 31.9401 22.6431 31.9401H25.0113C25.8704 31.9401 26.5668 32.6097 26.5668 33.4357V35.0872C27.2383 34.9962 27.8907 34.8479 28.5181 34.6469V30.5682C28.5182 29.7368 27.8172 29.0628 26.9526 29.0628Z" fill="#A0E557"/>
<path d="M25.4109 12.5192C25.5577 13.5849 25.1802 14.6556 24.3897 15.4157L22.8334 16.9121L25.336 21.9247L24.306 22.9151L20.9615 18.712L17.9281 21.6288H17.9206L18.1167 23.721L16.8723 24.9176L15.9346 21.6311L12.5166 20.7295L13.7611 19.5329L15.937 19.7215V19.7143L18.9704 16.7975L14.5991 13.5816L15.6291 12.5912L20.8422 14.9976L22.3985 13.5011C23.189 12.741 24.3026 12.378 25.4109 12.5192Z" fill="white"/>
<path d="M36.6229 13.3254C34.6914 11.4681 31.0938 11.5923 26.986 13.5171C26.8994 13.5341 26.8197 13.5726 26.754 13.6275C26.427 13.7854 26.0971 13.9545 25.7646 14.1347C25.9375 13.5966 25.9922 13.0229 25.914 12.4553C25.8839 12.2365 25.7049 12.0644 25.4773 12.0354C24.2208 11.8753 22.9355 12.2943 22.0393 13.1561L20.7374 14.4079L15.8487 12.1513C15.6543 12.0616 15.4223 12.0996 15.2699 12.2462L14.2399 13.2365C14.1364 13.3361 14.0826 13.4736 14.0923 13.6141C14.1019 13.7545 14.1742 13.8841 14.2904 13.9696L18.2011 16.8467L15.7389 19.2142L13.8065 19.0468C13.6568 19.0338 13.5083 19.0855 13.4018 19.1878L12.1574 20.3843C12.0294 20.5073 11.9793 20.6865 12.0255 20.8546C12.0718 21.0227 12.2076 21.1545 12.3821 21.2005L13.7771 21.5684C13.5088 22.5202 13.3726 23.5042 13.3726 24.5004C13.3726 25.1593 13.4334 25.8189 13.5521 26.4632C12.926 27.7106 12.4786 28.9262 12.2281 30.0748C11.698 32.5051 12.0959 34.4417 13.3789 35.6754C14.2835 36.5452 15.5892 36.9996 17.1725 36.9996C17.3018 36.9996 17.4332 36.9965 17.5661 36.9904C19.1597 36.9175 21.0204 36.4047 22.955 35.5079C23.621 35.622 24.3049 35.6815 25.0009 35.6815C27.3878 35.6815 29.6816 34.9912 31.634 33.6851C31.8642 33.5311 31.921 33.2269 31.7608 33.0055C31.6007 32.7841 31.2842 32.7296 31.054 32.8835C29.8471 33.6908 28.4971 34.2399 27.0744 34.5103V33.4358C27.0744 32.3418 26.1488 31.4518 25.0111 31.4518H22.6429C22.0652 31.4518 21.5952 30.9999 21.5952 30.4444C21.595 29.6689 20.9389 29.0379 20.1323 29.0379H19.3779C18.6342 29.0379 18.029 28.4561 18.029 27.7407C18.029 27.3942 18.1693 27.0685 18.4241 26.8235C18.6788 26.5784 19.0176 26.4435 19.3779 26.4435H19.4231C19.8701 26.4435 20.2336 26.0939 20.2336 25.6643C20.2336 25.2917 20.5488 24.9887 20.9361 24.9887H23.8443C24.5827 24.9887 25.1835 25.5664 25.1835 26.2764V28.3711C25.1835 29.0217 25.734 29.551 26.4107 29.551H26.9524C27.5356 29.551 28.0102 30.0073 28.0102 30.5682V31.7506C28.0102 32.0202 28.2376 32.2388 28.518 32.2388C28.7984 32.2388 29.0257 32.0202 29.0257 31.7506V30.5682C29.0257 29.4689 28.0956 28.5745 26.9523 28.5745H26.4106C26.2939 28.5745 26.199 28.4833 26.199 28.3711V26.2764C26.199 25.0279 25.1426 24.0122 23.8443 24.0122H20.9361C20.0566 24.0122 19.3293 24.6509 19.2297 25.4713C18.6539 25.5053 18.1174 25.7373 17.706 26.1329C17.2593 26.5624 17.0134 27.1334 17.0135 27.7409C17.0135 28.9945 18.0743 30.0143 19.3779 30.0143H20.1323C20.3789 30.0143 20.5796 30.2073 20.5796 30.4444C20.5797 31.5383 21.5053 32.4283 22.6429 32.4283H25.0111C25.5888 32.4283 26.0589 32.8802 26.0589 33.4357V34.6376C26.0589 34.6433 26.0596 34.6489 26.0598 34.6546C25.7098 34.6879 25.3566 34.705 25.0009 34.705C19.9743 34.705 15.6417 31.313 14.6152 26.6092C15.042 25.7911 15.5471 24.9591 16.1211 24.1314L16.3824 25.047C16.4302 25.2147 16.5672 25.3453 16.7421 25.3898C16.7851 25.4007 16.8287 25.4061 16.872 25.4061C17.005 25.4061 17.1347 25.3558 17.2312 25.2631L18.4757 24.0665C18.5821 23.9641 18.6358 23.8216 18.6224 23.6774L18.4482 21.8193L20.9104 19.4518L23.9025 23.2121C23.9915 23.3238 24.1262 23.3933 24.2723 23.4026C24.4178 23.4117 24.5614 23.3601 24.6649 23.2606L25.6949 22.2702C25.8474 22.1237 25.8869 21.9005 25.7936 21.7137L23.4467 17.013L24.3802 16.1154C25.3317 15.4904 26.2737 14.9553 27.1889 14.5132C29.44 14.9663 31.4026 16.0931 32.8659 17.6484H31.8569C30.2868 17.6484 29.0093 18.8767 29.0093 20.3865C29.0093 20.578 28.8473 20.7339 28.648 20.7339C27.5202 20.7339 26.6026 21.6162 26.6026 22.7006V23.022C26.6026 24.1065 27.5202 24.9887 28.648 24.9887H32.62C32.9004 24.9887 33.1278 24.7701 33.1278 24.5005C33.1278 24.2309 32.9004 24.0123 32.62 24.0123H28.648C28.0802 24.0123 27.6182 23.5681 27.6182 23.0221V22.7007C27.6182 22.1547 28.0802 21.7105 28.648 21.7105C29.4072 21.7105 30.0248 21.1166 30.0248 20.3865C30.0248 19.4152 30.8467 18.625 31.8569 18.625H33.3276C33.434 18.625 33.5328 18.5933 33.6144 18.5395C34.8784 20.2289 35.6137 22.2956 35.6137 24.5005C35.6137 26.1889 35.176 27.8614 34.3482 29.3374C34.2151 29.5748 34.3072 29.8709 34.5541 29.9989C34.6307 30.0386 34.7133 30.0575 34.7947 30.0575C34.9754 30.0575 35.1503 29.9646 35.2421 29.8009C36.1496 28.1831 36.6292 26.3502 36.6292 24.5005C36.6292 23.8314 36.5674 23.1739 36.4487 22.5336C37.3821 20.6719 37.9155 18.8813 37.9908 17.3481C38.0738 15.6566 37.6008 14.2656 36.6229 13.3254ZM21.3604 35.1199C18.1553 36.3614 15.4945 36.3287 14.0971 34.9849C12.7974 33.7352 12.9039 31.734 13.2221 30.2753C13.3791 29.5558 13.6269 28.7942 13.956 28.0085C15.1179 31.4023 17.9009 34.0231 21.3604 35.1199ZM14.3983 24.9372C14.3919 24.7917 14.3883 24.646 14.3883 24.5003C14.3883 23.5916 14.5123 22.6944 14.7565 21.8267L15.5212 22.0284L15.7701 22.9007C15.2657 23.5811 14.8076 24.2616 14.3983 24.9372ZM22.3754 17.1236L24.7223 21.8243L24.3567 22.1758L21.3646 18.4155C21.2756 18.3038 21.1409 18.2343 20.9949 18.2251C20.8491 18.2158 20.7058 18.2674 20.6022 18.367L17.6168 21.2376C17.5913 21.2559 17.5674 21.2766 17.5456 21.2996C17.4494 21.4008 17.4019 21.5362 17.4147 21.6728L17.5894 23.5375L17.1306 23.9786L16.4241 21.502C16.3767 21.3358 16.2416 21.2059 16.0688 21.1603L13.4931 20.481L13.9519 20.0398L15.8911 20.2078C16.0336 20.2202 16.174 20.1744 16.2793 20.0819C16.3032 20.061 16.3247 20.0381 16.3438 20.0135L19.3292 17.1428C19.4327 17.0433 19.4866 16.9057 19.4769 16.7653C19.4672 16.6249 19.395 16.4953 19.2787 16.4098L15.368 13.5327L15.7336 13.1812L20.6223 15.4378C20.8168 15.5275 21.0487 15.4895 21.2011 15.3429L22.7574 13.8465C23.3342 13.2918 24.1251 12.981 24.9335 12.9781C24.9305 13.7554 24.6072 14.5159 24.0304 15.0705L23.6896 15.3982C23.6895 15.3983 23.6894 15.3984 23.6894 15.3985L22.4741 16.5671C22.3217 16.7137 22.2821 16.9368 22.3754 17.1236ZM36.045 21.0005C34.9035 17.6731 32.1759 14.9956 28.6448 13.8791C31.8004 12.659 34.4894 12.6549 35.9048 14.0159C37.3022 15.3595 37.3362 17.9185 36.045 21.0005Z" fill="#333333"/>
<path d="M33.6722 31.218C33.4604 31.0358 33.1437 31.0545 32.9509 31.2607C32.9501 31.2616 32.9492 31.2625 32.9483 31.2634C32.7573 31.4711 32.7741 31.7758 32.9866 31.9573C33.084 32.0404 33.2032 32.0813 33.3222 32.0813C33.4631 32.0813 33.6038 32.0241 33.7077 31.912C33.8995 31.7051 33.884 31.4003 33.6722 31.218Z" fill="#333333"/>
</g>
<defs>
<clipPath id="clip0_841_86002">
<rect width="26" height="25" fill="white" transform="translate(12 12)"/>
</clipPath>
</defs>
</svg>
