<svg width="47" height="47" viewBox="0 0 47 47" fill="none" xmlns="http://www.w3.org/2000/svg">
<circle cx="23.5" cy="23.5" r="23.5" fill="#E6F9FF"/>
<g clip-path="url(#clip0_902_48949)">
<path d="M30.8103 17.6035L30.7237 18.8588L29.4295 37.5618H17.7557L16.7874 23.5659L16.4616 18.8588L16.375 17.6035H30.8103Z" fill="#00E5FF"/>
<path d="M16.375 17.6035L16.4616 18.8588H27.327V23.5659H26.1157L26.7352 29.2534C26.5984 29.1274 26.4485 29.0154 26.2864 28.9221C25.8401 25.8957 23.2261 23.5659 20.0779 23.5659H16.7873L17.7557 37.5619H25.2652C25.51 37.309 25.7177 37.0253 25.884 36.7184C26.039 36.4329 26.157 36.1285 26.2362 35.8134C26.4445 35.6998 26.6385 35.5555 26.811 35.3829C27.0277 35.1664 27.1994 34.917 27.3225 34.6462L27.6401 37.562H29.4295L30.7235 18.8589H30.7237L30.7656 18.2516L30.767 18.2313L30.8103 17.6036L16.375 17.6035Z" fill="#40C4FF"/>
<path d="M25.0993 34.8633C25.0993 35.3177 24.9845 35.7457 24.7818 36.1185C24.66 36.3432 24.5069 36.5478 24.3274 36.7273C23.8504 37.2043 23.1914 37.4993 22.4634 37.4993H13.3001C12.2984 37.4993 11.4279 36.9414 10.9816 36.1186C10.7789 35.7458 10.6641 35.3177 10.6641 34.8633H25.0993V34.8633Z" fill="#FDD8A8"/>
<path d="M25.0993 34.8633C25.0993 35.3177 24.9845 35.7457 24.7818 36.1185H10.9816C10.7789 35.7457 10.6641 35.3177 10.6641 34.8633H25.0993Z" fill="#FFC477"/>
<path d="M26.289 33.6078C26.289 33.9543 26.1485 34.2681 25.9212 34.4953C25.694 34.7225 25.3802 34.8631 25.0338 34.8631H10.724C10.0305 34.8631 9.46875 34.3013 9.46875 33.6078C9.46875 33.2815 9.59362 32.984 9.79825 32.7605C9.81019 32.7467 9.82337 32.7335 9.83656 32.7204C10.0637 32.4932 10.3776 32.3525 10.724 32.3525H25.0338C25.4267 32.3525 25.7775 32.5327 26.0072 32.8157C26.1836 33.0317 26.289 33.3078 26.289 33.6078Z" fill="#FFDEBB"/>
<path d="M26.0098 32.8158L23.1133 34.8631H12.7751L9.80078 32.7605C9.81272 32.7467 9.82591 32.7335 9.83909 32.7204C10.0663 32.4932 10.3801 32.3525 10.7265 32.3525H25.0363C25.4292 32.3526 25.7801 32.5327 26.0098 32.8158Z" fill="#FFB29A"/>
<path d="M26.289 31.097C26.289 31.4435 26.1485 31.7573 25.9212 31.9845C25.694 32.2117 25.3802 32.3523 25.0338 32.3523H10.724C10.0305 32.3523 9.46875 31.7905 9.46875 31.097C9.46875 30.7506 9.60931 30.4368 9.83656 30.2096C10.0637 29.9824 10.3776 29.8418 10.724 29.8418H25.0338C25.7273 29.8418 26.289 30.4035 26.289 31.097Z" fill="#B0EF60"/>
<path d="M24.4906 32.3525H11.3984L15.9267 35.5534L17.9446 34.1271L19.9624 35.5534L24.4906 32.3525Z" fill="#FDD844"/>
<path d="M20.4535 32.3525L18.6779 33.6078L17.943 34.1268L16.8553 34.8957L16.4837 34.6333L13.2578 32.3525H20.4535Z" fill="#FDAB08"/>
<path d="M24.4906 32.3525L22.7151 33.6078H13.174L11.3984 32.3525H24.4906Z" fill="#FDAB08"/>
<path d="M28.301 7.44281V7.50494C28.301 7.94238 27.9997 8.32212 27.5735 8.42125L24.5352 9.13044V13.2727H22.6523V7.62419L27.1361 6.52838C27.7292 6.38338 28.301 6.83213 28.301 7.44281Z" fill="#FDD844"/>
<path d="M25.5501 31.097H10.2093C9.75134 31.097 9.50897 30.5427 9.8304 30.2164C9.83265 30.2142 9.8349 30.2119 9.83715 30.2096C10.0643 29.9824 10.3782 29.8418 10.7246 29.8418H25.0344C25.3847 29.8418 25.7015 29.9852 25.9291 30.2164C26.2504 30.5429 26.0081 31.097 25.5501 31.097Z" fill="#64DD17"/>
<path d="M25.0993 29.8422H10.6641C10.6641 29.4085 10.7193 28.988 10.8222 28.587C11.0494 27.7045 11.5101 26.9162 12.1346 26.2918C13.0434 25.3836 14.2987 24.8213 15.6851 24.8213H20.0784C22.4175 24.8213 24.3839 26.4217 24.9412 28.587C25.0441 28.988 25.0993 29.4085 25.0993 29.8422Z" fill="#FDD8A8"/>
<path d="M30.4649 19.4863H28.582V29.9676H30.4649V19.4863Z" fill="#FDD844"/>
<path d="M32.3165 20.8672H30.4336V31.3485H32.3165V20.8672Z" fill="#FDD844"/>
<path d="M34.1993 19.4863H32.3164V29.9676H34.1993V19.4863Z" fill="#FDD844"/>
<path d="M36.0821 20.8672H34.1992V31.3485H36.0821V20.8672Z" fill="#FDD844"/>
<path d="M37.9649 20.8672H36.082V31.3485H37.9649V20.8672Z" fill="#FDD844"/>
<path d="M39.8477 18.7959H37.9648V29.2772H39.8477V18.7959Z" fill="#FDD844"/>
<path d="M24.5352 12.0176H22.6523V13.2728H24.5352V12.0176Z" fill="#FDAB08"/>
<path d="M30.306 15.4073H16.875L17.2811 14.1521L17.5654 13.2734H29.6157L29.9 14.1521L30.306 15.4073Z" fill="white"/>
<path d="M39.8478 23.5664V29.2778H37.965V31.3489H34.1992V29.9681H32.3164V31.3489H30.4335V29.9681H28.582V23.5664H30.4072L30.4335 23.6398L30.4649 23.7277L31.7565 27.3321H36.234L37.5834 23.5664H39.8478Z" fill="#FDAB08"/>
<path d="M38.4676 24.8213L37.1182 28.587H30.8734L29.524 24.8213H27.5156L28.8964 37.4992H39.0952L40.476 24.8213H38.4676Z" fill="#DBAEFF"/>
<path d="M30.306 15.4066H16.875L17.2811 14.1514H29.9L30.306 15.4066Z" fill="#D8D7DA"/>
<path d="M32.0669 17.6039H15.1211L15.8115 15.4072H31.3765L32.0669 17.6039Z" fill="white"/>
<path d="M25.0993 29.8422H10.6641C10.6641 29.4085 10.7193 28.988 10.8222 28.5869H24.9412C25.0441 28.988 25.0993 29.4085 25.0993 29.8422Z" fill="#FFC477"/>
<path d="M30.584 35.6162L30.0234 30.4697H37.9655L37.405 35.6162H30.584Z" fill="#B0BEC5"/>
<path d="M26.7617 31.0975C26.7617 30.3267 26.2537 29.6725 25.5551 29.4515C25.354 26.6051 22.9742 24.3505 20.0775 24.3505H17.3131L16.8789 18.0743H32.7064L31.7201 14.9362H30.6501L29.9598 12.8022H25.0043V9.50432L27.6788 8.88026C28.3213 8.73032 28.7701 8.16482 28.7701 7.50501V7.44295C28.7701 7.00651 28.5732 6.6017 28.23 6.3322C27.8867 6.06276 27.4466 5.96764 27.0227 6.0712L22.18 7.25495V12.8024H17.2246L16.5342 14.9363H15.4642L14.478 18.0744H15.9352L16.3694 24.3507H15.6841C12.7873 24.3507 10.4076 26.6052 10.2065 29.4517C9.50794 29.6725 9 30.3268 9 31.0975C9 31.5917 9.20919 32.0378 9.54319 32.3527C9.20919 32.6676 9 33.1137 9 33.608C9 34.3831 9.51362 35.0404 10.2184 35.2576C10.4129 36.785 11.7198 37.9699 13.2992 37.9699H22.4625C24.0418 37.9699 25.3488 36.785 25.5433 35.2576C26.248 35.0403 26.7617 34.3831 26.7617 33.608C26.7617 33.1137 26.5525 32.6676 26.2185 32.3527C26.5525 32.0378 26.7617 31.5917 26.7617 31.0975ZM23.1215 7.99401L27.2462 6.98576C27.3875 6.9512 27.5342 6.98295 27.6486 7.07276C27.763 7.16257 27.8287 7.29757 27.8287 7.44301V7.50507C27.8287 7.72501 27.679 7.91345 27.4649 7.96351L24.063 8.75726V12.8024H23.1215V7.99401H23.1215ZM17.9095 13.7437H29.275L29.6607 14.9362H17.5237L17.9095 13.7437ZM15.7607 17.1329L16.1552 15.8777H31.0291L31.4236 17.1329H15.7607ZM15.6842 25.292H20.0775C22.4276 25.292 24.3673 27.0829 24.6037 29.3715H11.1581C11.3944 27.0829 13.3341 25.292 15.6842 25.292ZM10.7259 30.313H25.0357C25.4683 30.313 25.8202 30.6649 25.8202 31.0975C25.8202 31.5301 25.4683 31.882 25.0357 31.882H10.7259C10.2933 31.882 9.94144 31.53 9.94144 31.0975C9.94144 30.6648 10.2933 30.313 10.7259 30.313ZM19.9614 34.9771L16.9145 32.8234H23.0083L19.9614 34.9771ZM17.1281 34.1273L15.9258 34.9772L12.8789 32.8235H15.2836L17.1281 34.1273ZM9.94144 33.608C9.94144 33.1753 10.2934 32.8235 10.7259 32.8235H11.2479L13.4676 34.3925H10.7259C10.2933 34.3925 9.94144 34.0406 9.94144 33.608ZM22.4625 37.0285H13.2992C12.2669 37.0285 11.4009 36.3023 11.1854 35.334H14.7995L15.9258 36.1301L17.9436 34.7038L19.9615 36.1301L21.0878 35.334H24.5763C24.3607 36.3023 23.4948 37.0285 22.4625 37.0285ZM25.8202 33.608C25.8202 34.0406 25.4683 34.3925 25.0357 34.3925H22.4196L24.6393 32.8234H25.0357C25.4683 32.8235 25.8202 33.1753 25.8202 33.608Z" fill="#484848"/>
<path d="M40.3166 24.3504V18.3252H37.4923V20.3963H34.668V19.0156H31.8436V20.3963H30.9336V19.0156H28.1093V24.3504H26.9883L28.4716 37.9697H39.5149L40.9982 24.3504H40.3166ZM38.4338 19.2666H39.3752V24.3504H38.4338V19.2666ZM37.4923 21.3378V26.1406L36.7845 28.1161H36.5509V21.3378H37.4923ZM35.6095 21.3378V28.1161H34.668V21.3378H35.6095ZM32.7851 19.957H33.7266V28.1161H32.7851V19.957ZM31.8437 21.3378V28.1161H31.2022L30.9336 27.3666V21.3378H31.8437ZM29.0508 19.957H29.9922V24.7393L29.8528 24.3504H29.0508V19.957ZM38.6704 37.0283H29.3162L28.038 25.2918H29.1902L30.5396 29.0575H37.4471L38.7965 25.2918H39.9488L38.6704 37.0283Z" fill="#484848"/>
<path d="M30.1631 36.0869H37.8285L38.4915 29.999H29.5L30.1631 36.0869ZM37.442 30.9405L36.984 35.1455H31.0074L30.5494 30.9405H37.442Z" fill="#484848"/>
<path d="M15.4961 26.2959H14.5547V27.2373H15.4961V26.2959Z" fill="white"/>
<path d="M17.3985 26.8613H16.457V27.8028H17.3985V26.8613Z" fill="white"/>
<path d="M19.3047 26.8613H18.3633V27.8028H19.3047V26.8613Z" fill="white"/>
<path d="M21.2071 26.2959H20.2656V27.2373H21.2071V26.2959Z" fill="white"/>
<path d="M25.5362 19.9571H24.2902V19.0156H25.5362V19.9571ZM23.3488 19.9571H18.3906V19.0156H23.3488V19.9571Z" fill="white"/>
<path d="M36.3163 33.5137H35.4376V32.5723H36.3163V33.5137ZM34.4962 33.5137H33.5547V32.5723H34.4962V33.5137ZM32.6133 33.5137H31.6719V32.5723H32.6133V33.5137Z" fill="white"/>
</g>
<defs>
<clipPath id="clip0_902_48949">
<rect width="32" height="32" fill="white" transform="translate(9 6)"/>
</clipPath>
</defs>
</svg>
