<svg width="55" height="55" viewBox="0 0 55 55" fill="none" xmlns="http://www.w3.org/2000/svg">
<g clip-path="url(#clip0_607_105255)">
<path d="M54.4986 27.4993C54.4986 42.4106 42.4106 54.4986 27.4993 54.4986C12.588 54.4986 0.5 42.4106 0.5 27.4993C0.5 12.588 12.588 0.5 27.4993 0.5C42.4106 0.5 54.4986 12.588 54.4986 27.4993Z" fill="#FF8178" stroke="black"/>
<path d="M18.3451 29.5251C20.7664 29.5251 22.7292 27.5623 22.7292 25.141C22.7292 22.7197 20.7664 20.7568 18.3451 20.7568C15.9238 20.7568 13.9609 22.7197 13.9609 25.141C13.9609 27.5623 15.9238 29.5251 18.3451 29.5251Z" fill="black"/>
<path d="M36.6537 29.5251C39.075 29.5251 41.0378 27.5623 41.0378 25.141C41.0378 22.7197 39.075 20.7568 36.6537 20.7568C34.2324 20.7568 32.2695 22.7197 32.2695 25.141C32.2695 27.5623 34.2324 29.5251 36.6537 29.5251Z" fill="black"/>
<path d="M35.0424 41.8907C34.6317 41.8907 34.2282 41.686 33.9931 41.3131C33.8988 41.1665 31.7423 37.8679 27.4989 37.8679C23.2555 37.8679 21.0163 41.2942 20.9945 41.329C20.6201 41.9023 19.8524 42.0634 19.2806 41.6889C18.7074 41.3145 18.5463 40.5468 18.9207 39.975C19.0426 39.7878 21.977 35.3906 27.5004 35.3906C33.0237 35.3906 35.9755 39.8067 36.0931 39.9954C36.4559 40.5759 36.2788 41.3392 35.6998 41.702C35.4952 41.8297 35.2688 41.8907 35.0438 41.8907H35.0424Z" fill="black"/>
</g>
<defs>
<clipPath id="clip0_607_105255">
<rect width="55" height="55" fill="white"/>
</clipPath>
</defs>
</svg>
