<svg width="50" height="49" viewBox="0 0 50 49" fill="none" xmlns="http://www.w3.org/2000/svg">
<circle cx="24.9766" cy="24.5" r="24.5" fill="#E6F9FF"/>
<g clip-path="url(#clip0_841_86003)">
<path d="M36.7436 19.7336C36.7436 23.5628 33.6395 26.667 29.8103 26.667C25.9811 26.667 22.877 23.5628 22.877 19.7336C22.877 15.9045 25.9811 12.8003 29.8103 12.8003C33.6395 12.8003 36.7436 15.9045 36.7436 19.7336Z" fill="#FDD020"/>
<path d="M39.9438 20.2669H38.8771C38.5826 20.2669 38.3438 20.0281 38.3438 19.7335C38.3438 19.439 38.5826 19.2002 38.8771 19.2002H39.9438C40.2383 19.2002 40.4771 19.439 40.4771 19.7335C40.4771 20.0281 40.2383 20.2669 39.9438 20.2669Z" fill="#FDD020"/>
<path d="M28.7433 11.2002C28.4488 11.2002 28.21 10.9614 28.21 10.6669V9.60023C28.21 9.3057 28.4488 9.06689 28.7433 9.06689C29.0378 9.06689 29.2766 9.3057 29.2766 9.60023V10.6669C29.2766 10.9614 29.0378 11.2002 28.7433 11.2002Z" fill="#FDD020"/>
<path d="M36.21 13.8669C35.9944 13.8669 35.7999 13.737 35.7173 13.5377C35.6348 13.3385 35.6806 13.1091 35.833 12.9565L36.8996 11.8898C37.0335 11.7513 37.2319 11.6956 37.4184 11.7445C37.6048 11.7932 37.7504 11.9388 37.7991 12.1252C37.8481 12.3117 37.7923 12.5101 37.6538 12.644L36.5871 13.7107C36.4871 13.8107 36.3514 13.8669 36.21 13.8669Z" fill="#FDD020"/>
<path d="M33.2122 33.0665C35.2237 33.115 37.1031 32.0694 38.1229 30.3353C39.1427 28.6012 39.1427 26.4504 38.1229 24.7163C37.1031 22.9819 35.2237 21.9366 33.2122 21.985C32.8362 21.985 32.4612 22.022 32.0922 22.0949C31.6305 19.96 29.7341 18.4421 27.55 18.459C26.882 18.4593 26.2221 18.602 25.6138 18.8777C24.543 16.1251 21.6779 14.5111 18.7687 15.0215C15.8594 15.5319 13.7148 18.0246 13.6448 20.9775C13.6464 21.6676 13.7687 22.352 14.0065 22.9999C12.1969 23.0106 10.532 23.9918 9.64635 25.5697C8.76041 27.1478 8.78984 29.0801 9.72317 30.6303C10.6565 32.1809 12.3503 33.1108 14.1594 33.0665" fill="#A3D4F7"/>
<path d="M30.877 35.2C30.877 36.3782 29.9218 37.3334 28.7437 37.3334C27.5656 37.3334 26.6104 36.3782 26.6104 35.2C26.6104 33.6 28.7437 29.8667 28.7437 29.8667C28.7437 29.8667 30.877 33.6 30.877 35.2Z" fill="#60A2D7"/>
<path d="M25.543 29.8665C25.543 31.0447 24.5878 31.9999 23.4097 31.9999C22.2316 31.9999 21.2764 31.0447 21.2764 29.8665C21.2764 28.2665 23.4097 24.5332 23.4097 24.5332C23.4097 24.5332 25.543 28.2665 25.543 29.8665Z" fill="#60A2D7"/>
<path d="M20.7432 36.2664C20.7432 37.4446 19.788 38.3998 18.6099 38.3998C17.4318 38.3998 16.4766 37.4446 16.4766 36.2664C16.4766 34.6664 18.6099 30.9331 18.6099 30.9331C18.6099 30.9331 20.7432 34.6664 20.7432 36.2664Z" fill="#60A2D7"/>
<path d="M38.8761 19.2002C38.5816 19.2002 38.3428 19.439 38.3428 19.7335C38.3428 20.0281 38.5816 20.2669 38.8761 20.2669H39.9428C40.2373 20.2669 40.4761 20.0281 40.4761 19.7335C40.4761 19.439 40.2373 19.2002 39.9428 19.2002H38.8761Z" fill="#333333"/>
<path d="M28.7433 11.2002C29.0378 11.2002 29.2766 10.9614 29.2766 10.6669V9.60023C29.2766 9.3057 29.0378 9.06689 28.7433 9.06689C28.4488 9.06689 28.21 9.3057 28.21 9.60023V10.6669C28.21 10.9614 28.4488 11.2002 28.7433 11.2002Z" fill="#333333"/>
<path d="M36.8994 11.8898L35.8327 12.9565C35.6942 13.0903 35.6384 13.2888 35.6874 13.4752C35.7361 13.6617 35.8817 13.8073 36.0681 13.856C36.2546 13.9049 36.453 13.8492 36.5869 13.7107L37.6535 12.644C37.7921 12.5101 37.8478 12.3117 37.7988 12.1252C37.7501 11.9388 37.6046 11.7932 37.4181 11.7445C37.2317 11.6956 37.0332 11.7513 36.8994 11.8898Z" fill="#333333"/>
<path d="M28.7428 37.8665C30.215 37.8646 31.4077 36.6719 31.4095 35.1998C31.4095 33.5071 29.4314 29.9967 29.2059 29.5998C29.103 29.4443 28.9293 29.3506 28.7428 29.3506C28.5564 29.3506 28.3827 29.4443 28.2798 29.5998C28.0543 29.9967 26.0762 33.5071 26.0762 35.1998C26.078 36.6719 27.2707 37.8646 28.7428 37.8665ZM28.7428 30.9834C29.416 32.2725 30.3428 34.2568 30.3428 35.1998C30.3428 36.0834 29.6264 36.7998 28.7428 36.7998C27.8592 36.7998 27.1428 36.0834 27.1428 35.1998C27.1428 34.2568 28.0697 32.2725 28.7428 30.9834Z" fill="#333333"/>
<path d="M23.4098 32.5335C24.882 32.5316 26.0747 31.3389 26.0765 29.8668C26.0765 28.1741 24.0984 24.6637 23.8729 24.2668C23.77 24.1113 23.5963 24.0176 23.4098 24.0176C23.2234 24.0176 23.0497 24.1113 22.9468 24.2668C22.7213 24.6637 20.7432 28.1741 20.7432 29.8668C20.745 31.3389 21.9377 32.5316 23.4098 32.5335ZM23.4098 25.6504C24.083 26.9395 25.0098 28.9238 25.0098 29.8668C25.0098 30.7504 24.2934 31.4668 23.4098 31.4668C22.5262 31.4668 21.8098 30.7504 21.8098 29.8668C21.8098 28.9238 22.7367 26.9395 23.4098 25.6504Z" fill="#333333"/>
<path d="M18.147 30.6667C17.9215 31.0636 15.9434 34.574 15.9434 36.2667C15.9434 37.7394 17.1374 38.9334 18.61 38.9334C20.0827 38.9334 21.2767 37.7394 21.2767 36.2667C21.2767 34.574 19.2986 31.0636 19.073 30.6667C18.9702 30.5112 18.7965 30.4175 18.61 30.4175C18.4236 30.4175 18.2499 30.5112 18.147 30.6667ZM18.61 37.8667C17.7264 37.8667 17.01 37.1503 17.01 36.2667C17.01 35.3237 17.9368 33.3394 18.61 32.0503C19.2832 33.3394 20.21 35.3237 20.21 36.2667C20.21 37.1503 19.4936 37.8667 18.61 37.8667Z" fill="#333333"/>
<path d="M14.1591 33.6001C14.4539 33.6001 14.6924 33.3613 14.6924 33.0667C14.6924 32.7722 14.4539 32.5334 14.1591 32.5334C12.5398 32.5761 11.0221 31.7451 10.1859 30.3576C9.34948 28.9701 9.32344 27.2402 10.1174 25.8282C10.9115 24.4159 12.4031 23.5396 14.0232 23.5334C14.1945 23.5284 14.3531 23.4417 14.4492 23.2998C14.5456 23.1581 14.5677 22.9787 14.5091 22.8178C14.2922 22.2284 14.1805 21.6055 14.1789 20.9777C14.2203 17.899 16.7445 15.4344 19.8232 15.4667C21.1862 15.4685 22.5036 15.9568 23.5385 16.8438C23.6594 16.9506 23.7763 17.0571 23.8878 17.1691C23.9219 17.2037 23.9586 17.2368 23.9945 17.2758C24.1307 17.4235 24.2591 17.5784 24.3789 17.7399C24.4078 17.7782 24.4365 17.8165 24.4643 17.8555C24.5826 18.0224 24.6917 18.1956 24.7906 18.3745C24.8099 18.4092 24.8276 18.4448 24.844 18.481C24.9456 18.6719 25.0357 18.8688 25.1138 19.0704C25.1661 19.2079 25.2727 19.3178 25.4086 19.374C25.5445 19.4303 25.6977 19.4279 25.8318 19.3675C26.3708 19.1219 26.9563 18.9946 27.5484 18.9941C29.4784 18.9797 31.1552 20.3175 31.5698 22.2021C31.6289 22.4891 31.9081 22.6748 32.1956 22.6183C32.3555 22.5868 32.5156 22.5649 32.6755 22.5477C32.7549 22.5399 32.8354 22.5376 32.9148 22.5334C32.9945 22.5292 33.0714 22.5227 33.1492 22.5222C33.2516 22.5222 33.3539 22.5258 33.4563 22.5308C33.5096 22.5308 33.5677 22.5349 33.6232 22.5394C33.7422 22.5488 33.8607 22.5633 33.9789 22.5808C34.013 22.5857 34.0477 22.5904 34.0818 22.5964C34.2096 22.6178 34.3359 22.6438 34.4612 22.6748L34.5336 22.6928C34.6622 22.7264 34.7891 22.7644 34.9143 22.8076L34.9828 22.8321C35.106 22.8764 35.2281 22.9248 35.3474 22.9782C35.3737 22.9899 35.4008 23.0021 35.4242 23.0144C35.5401 23.0678 35.6542 23.1258 35.7656 23.1883C37.3469 24.0607 38.3328 25.7201 38.3432 27.5258C38.3055 30.324 36.0104 32.5639 33.212 32.5334C32.9174 32.5334 32.6786 32.7722 32.6786 33.0667C32.6786 33.3613 32.9174 33.6001 33.212 33.6001C36.5992 33.63 39.3716 30.9128 39.4099 27.5258C39.4023 25.5136 38.3927 23.6373 36.7177 22.5222C37.0836 21.6378 37.2734 20.6904 37.2766 19.7334C37.2786 16.449 35.1331 13.5493 31.9914 12.5912C28.8497 11.6331 25.451 12.842 23.6201 15.5685C22.4992 14.8092 21.1771 14.4021 19.8232 14.4001C16.1552 14.3675 13.1526 17.3097 13.1107 20.9777C13.1115 21.4993 13.1763 22.0185 13.3036 22.5243C10.5456 22.8967 8.48516 25.2469 8.47656 28.03C8.51172 31.1355 11.0534 33.6271 14.1591 33.6001ZM29.8099 13.3334C33.343 13.3373 36.206 16.2003 36.2099 19.7334C36.2104 20.5102 36.0672 21.2805 35.7875 22.0053C35.7758 22.0001 35.763 21.9964 35.7513 21.9909C35.5805 21.9157 35.406 21.848 35.2276 21.7883C35.2013 21.7797 35.1742 21.7691 35.1508 21.7605C34.963 21.6998 34.7716 21.6485 34.5768 21.6053C34.5576 21.6011 34.5391 21.5954 34.5203 21.5909C34.3268 21.5498 34.1299 21.5191 33.9305 21.4967C33.9102 21.4938 33.8898 21.4891 33.869 21.487C33.6508 21.4641 33.4315 21.4527 33.212 21.4524C32.969 21.4521 32.7263 21.4662 32.4852 21.4943C31.7885 19.3594 29.7938 17.9178 27.5479 17.9258C27.4057 17.9258 27.2654 17.9316 27.1268 17.943C26.7091 17.9764 26.2974 18.0605 25.9 18.193C25.8938 18.1792 25.8852 18.1665 25.8781 18.1527C25.8057 18.0032 25.7268 17.8576 25.6435 17.7152C25.6089 17.656 25.5708 17.5985 25.5367 17.5404C25.476 17.4438 25.4135 17.3488 25.3479 17.256C25.3021 17.1909 25.2563 17.1264 25.2083 17.0636C25.1474 16.9829 25.0836 16.9034 25.0185 16.8277C24.8458 16.6167 24.6604 16.4165 24.4633 16.2284C25.6453 14.4258 27.6544 13.3381 29.8099 13.3334Z" fill="#333333"/>
</g>
<defs>
<clipPath id="clip0_841_86003">
<rect width="32" height="32" fill="white" transform="translate(8.47656 8)"/>
</clipPath>
</defs>
</svg>
