<svg width="50" height="49" viewBox="0 0 50 49" fill="none" xmlns="http://www.w3.org/2000/svg">
<circle cx="24.9766" cy="24.5" r="24.5" fill="#E6F9FF"/>
<path d="M39.9922 16.1212V22.4767C39.9922 23.044 39.7369 23.5806 39.297 23.9388C37.7963 25.1606 33.6636 27.6613 24.9766 27.6613C16.2895 27.6613 12.1569 25.1606 10.6561 23.9388C10.2162 23.5807 9.96094 23.044 9.96094 22.4768V16.1212C9.96094 15.0802 10.8048 14.2363 11.8458 14.2363H38.1074C39.1483 14.2363 39.9922 15.0802 39.9922 16.1212Z" fill="#000F8F"/>
<path d="M39.9922 16.1212V22.4767C39.9922 23.044 39.7369 23.5806 39.297 23.9388C37.7963 25.1606 33.6636 27.6613 24.9766 27.6613C16.2895 27.6613 12.1569 25.1606 10.6561 23.9388C10.2162 23.5807 9.96094 23.044 9.96094 22.4768V16.1212C9.96094 15.0802 10.8048 14.2363 11.8458 14.2363H38.1074C39.1483 14.2363 39.9922 15.0802 39.9922 16.1212Z" fill="#000F8F"/>
<path d="M39.9922 16.1212V22.4767C39.9922 23.044 39.7369 23.5806 39.297 23.9388C37.7963 25.1606 33.6636 27.6613 24.9766 27.6613C16.2895 27.6613 12.1569 25.1606 10.6561 23.9388C10.2162 23.5807 9.96094 23.044 9.96094 22.4768V16.1212C9.96094 15.0802 10.8048 14.2363 11.8458 14.2363H38.1074C39.1483 14.2363 39.9922 15.0802 39.9922 16.1212Z" fill="#EBD3FF"/>
<path d="M39.297 22.8489C37.7963 24.0706 33.6636 26.5713 24.9766 26.5713C16.2895 26.5713 12.1569 24.0706 10.6561 22.8489C10.2162 22.4907 9.96094 21.954 9.96094 21.3868V22.4766C9.96094 23.0439 10.2162 23.5806 10.6561 23.9387C12.1569 25.1604 16.2895 27.6611 24.9766 27.6611C33.6636 27.6611 37.7963 25.1604 39.297 23.9386C39.7369 23.5805 39.9922 23.0438 39.9922 22.4766V21.3867C39.9922 21.954 39.7369 22.4907 39.297 22.8489Z" fill="#EBD3FF"/>
<path d="M24.9769 27.6612C16.4426 27.6612 12.3041 25.2477 10.7383 24.0044V33.8626C10.7383 34.9036 11.5821 35.7475 12.6231 35.7475H37.3307C38.3717 35.7475 39.2155 34.9036 39.2155 33.8626V24.0044C37.6497 25.2477 33.5112 27.6612 24.9769 27.6612Z" fill="#EBD3FF"/>
<path d="M10.7383 24.0045V25.0943C12.3041 26.3376 16.4426 28.751 24.9769 28.751C33.5112 28.751 37.6497 26.3376 39.2155 25.0942V24.0044C37.6497 25.2477 33.5112 27.6612 24.9769 27.6612C16.4426 27.6612 12.3041 25.2477 10.7383 24.0045Z" fill="#EBD3FF"/>
<path d="M24.9765 30.0371C24.0014 30.0371 23.2109 29.2466 23.2109 28.2715V26.1112C23.2109 25.7642 23.4922 25.4829 23.8392 25.4829H26.1137C26.4607 25.4829 26.742 25.7642 26.742 26.1112V28.2715C26.742 29.2466 25.9515 30.0371 24.9765 30.0371Z" fill="#CF94FF"/>
<path d="M24.9765 28.9472C24.0014 28.9472 23.2109 28.1567 23.2109 27.1816V28.2715C23.2109 29.2465 24.0014 30.037 24.9765 30.037C25.9516 30.037 26.742 29.2466 26.742 28.2715V27.1816C26.742 28.1567 25.9515 28.9472 24.9765 28.9472Z" fill="#8A00FA"/>
<path d="M21.8207 14.2362V12.1569C22.3624 11.8804 23.4456 11.4545 24.9768 11.4545C26.508 11.4545 27.5912 11.8805 28.1329 12.1569V14.2363H30.107V11.5979C30.107 11.29 29.9633 10.9997 29.7184 10.813C29.6696 10.7759 29.2182 10.4401 28.4141 10.1169C27.3782 9.70056 26.1896 9.48047 24.9768 9.48047C23.764 9.48047 22.5754 9.70056 21.5394 10.1169C20.7354 10.44 20.284 10.7758 20.2352 10.813C19.9904 10.9998 19.8467 11.29 19.8467 11.5979V14.2363L21.8207 14.2362Z" fill="#8A00FA"/>
<path d="M19.8467 13.1465H21.8207V14.2363H19.8467V13.1465Z" fill="#000F8F"/>
<path d="M19.8467 13.1465H21.8207V14.2363H19.8467V13.1465Z" fill="black" fill-opacity="0.2"/>
<path d="M19.8467 13.1465H21.8207V14.2363H19.8467V13.1465Z" fill="black" fill-opacity="0.2"/>
<path d="M19.8467 13.1465H21.8207V14.2363H19.8467V13.1465Z" fill="black" fill-opacity="0.2"/>
<path d="M19.8467 13.1465H21.8207V14.2363H19.8467V13.1465Z" fill="black" fill-opacity="0.2"/>
<path d="M19.8467 13.1465H21.8207V14.2363H19.8467V13.1465Z" fill="black" fill-opacity="0.2"/>
<path d="M28.1328 13.1465H30.1068V14.2363H28.1328V13.1465Z" fill="#000F8F"/>
<path d="M28.1328 13.1465H30.1068V14.2363H28.1328V13.1465Z" fill="black" fill-opacity="0.2"/>
<path d="M28.1328 13.1465H30.1068V14.2363H28.1328V13.1465Z" fill="black" fill-opacity="0.2"/>
<path d="M28.1328 13.1465H30.1068V14.2363H28.1328V13.1465Z" fill="black" fill-opacity="0.2"/>
<path d="M28.1328 13.1465H30.1068V14.2363H28.1328V13.1465Z" fill="black" fill-opacity="0.2"/>
<path d="M28.1328 13.1465H30.1068V14.2363H28.1328V13.1465Z" fill="black" fill-opacity="0.2"/>
<path d="M38.133 13.7651H30.5715V11.5766C30.5715 11.129 30.3591 10.6998 30.0031 10.4283C29.9151 10.3612 29.4335 10.0094 28.5901 9.67044C28.2334 9.52712 27.8557 9.40439 27.4673 9.30576C27.2239 9.24382 26.9761 9.39113 26.9142 9.63471C26.8524 9.87823 26.9997 10.1258 27.2433 10.1877C27.5926 10.2764 27.9316 10.3865 28.2508 10.5148C29.0138 10.8214 29.4339 11.1386 29.4514 11.1519C29.583 11.2523 29.6616 11.411 29.6616 11.5765V13.7651H28.5938V12.1366C28.5938 11.9656 28.4979 11.8091 28.3456 11.7313C27.7941 11.45 26.6231 10.9779 24.9764 10.9779C23.3297 10.9779 22.1588 11.4499 21.6073 11.7313C21.455 11.8091 21.3591 11.9656 21.3591 12.1366V13.7652H20.2912V11.5766C20.2912 11.4111 20.3697 11.2523 20.5015 11.152C20.519 11.1386 20.9389 10.8215 21.702 10.5148C22.6866 10.1191 23.8189 9.90996 24.9764 9.90996C25.1698 9.90996 25.3657 9.91589 25.5588 9.9277C25.8097 9.94302 26.0254 9.75199 26.0406 9.50121C26.0559 9.25042 25.865 9.03469 25.6141 9.01937C25.4027 9.00654 25.1881 9 24.9764 9C23.7037 9 22.4541 9.23183 21.3626 9.67044C20.519 10.0095 20.0376 10.3613 19.9496 10.4284C19.5937 10.6997 19.3812 11.1289 19.3812 11.5765V13.7651H11.8201C10.5278 13.7651 9.47656 14.8164 9.47656 16.1086V22.4766C9.47656 23.1468 9.75913 23.776 10.2551 24.2205V33.8849C10.2551 35.1771 11.3063 36.2284 12.5985 36.2284H30.5756C30.827 36.2284 31.0306 36.0246 31.0306 35.7733C31.0306 35.5221 30.827 35.3183 30.5756 35.3183H12.5986C11.8082 35.3183 11.1651 34.6753 11.1651 33.8848V24.8971C11.8245 25.3335 12.7221 25.8337 13.8984 26.3062C14.1313 26.3998 14.3965 26.2869 14.4902 26.0536C14.5839 25.8205 14.4707 25.5555 14.2376 25.4618C12.5712 24.7925 11.5112 24.0738 10.9154 23.5887C10.5793 23.3152 10.3866 22.9098 10.3866 22.4766V16.1086C10.3866 15.3181 11.0297 14.6751 11.8201 14.6751H38.1331C38.9235 14.6751 39.5666 15.3181 39.5666 16.1086V22.4766C39.5666 22.9097 39.3739 23.3151 39.0378 23.5886C38.3574 24.1425 37.1339 24.9534 35.1688 25.6713C32.9098 26.4964 30.2306 26.9953 27.2003 27.1572V26.1182C27.2003 25.5202 26.7138 25.0337 26.1159 25.0337H23.8369C23.2389 25.0337 22.7524 25.5202 22.7524 26.1182V27.1578C20.3025 27.0267 18.0705 26.6729 16.1118 26.1046C15.8707 26.0347 15.6181 26.1734 15.548 26.4147C15.478 26.6561 15.6169 26.9084 15.8582 26.9785C17.8965 27.5699 20.2141 27.936 22.7524 28.0688V28.2827C22.7524 29.509 23.7501 30.5067 24.9764 30.5067C26.2026 30.5067 27.2003 29.509 27.2003 28.2827V28.0689C33.353 27.7485 36.914 26.145 38.788 24.8989V33.8849C38.788 34.6753 38.145 35.3184 37.3545 35.3184H32.3956C32.1443 35.3184 31.9406 35.5221 31.9406 35.7734C31.9406 36.0247 32.1443 36.2284 32.3956 36.2284H37.3545C38.6467 36.2284 39.698 35.1771 39.698 33.8849V24.2205C40.194 23.776 40.4765 23.1468 40.4765 22.4766V16.1086C40.4766 14.8164 39.4253 13.7651 38.133 13.7651ZM22.2691 12.4242C22.8116 12.1851 23.7359 11.8878 24.9764 11.8878C26.2169 11.8878 27.1411 12.1851 27.6837 12.4242V13.7651H22.269V12.4242H22.2691ZM26.2904 28.2828C26.2904 29.0074 25.7009 29.5968 24.9764 29.5968C24.2518 29.5968 23.6623 29.0074 23.6623 28.2828V26.1182C23.6623 26.022 23.7407 25.9437 23.8369 25.9437H26.1159C26.2121 25.9437 26.2904 26.022 26.2904 26.1182V28.2828Z" fill="#484848"/>
</svg>
