<svg width="47" height="47" viewBox="0 0 47 47" fill="none" xmlns="http://www.w3.org/2000/svg">
<circle cx="23.5" cy="23.5" r="23.5" fill="#E6F9FF"/>
<path d="M39.5156 16.1212V22.4767C39.5156 23.044 39.2604 23.5806 38.8204 23.9388C37.3197 25.1606 33.187 27.6613 24.5 27.6613C15.813 27.6613 11.6803 25.1606 10.1796 23.9388C9.73964 23.5807 9.48438 23.044 9.48438 22.4768V16.1212C9.48438 15.0802 10.3282 14.2363 11.3692 14.2363H37.6308C38.6718 14.2363 39.5156 15.0802 39.5156 16.1212Z" fill="#000F8F"/>
<path d="M39.5156 16.1212V22.4767C39.5156 23.044 39.2604 23.5806 38.8204 23.9388C37.3197 25.1606 33.187 27.6613 24.5 27.6613C15.813 27.6613 11.6803 25.1606 10.1796 23.9388C9.73964 23.5807 9.48438 23.044 9.48438 22.4768V16.1212C9.48438 15.0802 10.3282 14.2363 11.3692 14.2363H37.6308C38.6718 14.2363 39.5156 15.0802 39.5156 16.1212Z" fill="#000F8F"/>
<path d="M39.5156 16.1212V22.4767C39.5156 23.044 39.2604 23.5806 38.8204 23.9388C37.3197 25.1606 33.187 27.6613 24.5 27.6613C15.813 27.6613 11.6803 25.1606 10.1796 23.9388C9.73964 23.5807 9.48438 23.044 9.48438 22.4768V16.1212C9.48438 15.0802 10.3282 14.2363 11.3692 14.2363H37.6308C38.6718 14.2363 39.5156 15.0802 39.5156 16.1212Z" fill="#EBD3FF"/>
<path d="M38.8204 22.8489C37.3197 24.0706 33.187 26.5713 24.5 26.5713C15.813 26.5713 11.6803 24.0706 10.1796 22.8489C9.73964 22.4907 9.48438 21.954 9.48438 21.3868V22.4766C9.48438 23.0439 9.73964 23.5806 10.1796 23.9387C11.6803 25.1604 15.813 27.6611 24.5 27.6611C33.187 27.6611 37.3197 25.1604 38.8204 23.9386C39.2604 23.5805 39.5156 23.0438 39.5156 22.4766V21.3867C39.5156 21.954 39.2604 22.4907 38.8204 22.8489Z" fill="#EBD3FF"/>
<path d="M24.5003 27.6607C15.966 27.6607 11.8276 25.2472 10.2617 24.0039V33.8621C10.2617 34.9031 11.1056 35.747 12.1465 35.747H36.8541C37.8951 35.747 38.739 34.9031 38.739 33.8621V24.0039C37.1731 25.2472 33.0347 27.6607 24.5003 27.6607Z" fill="#EBD3FF"/>
<path d="M10.2617 24.004V25.0938C11.8276 26.3371 15.966 28.7505 24.5003 28.7505C33.0347 28.7505 37.1731 26.3371 38.739 25.0938V24.0039C37.1731 25.2472 33.0347 27.6607 24.5003 27.6607C15.966 27.6607 11.8276 25.2472 10.2617 24.004Z" fill="#EBD3FF"/>
<path d="M24.4999 30.0366C23.5248 30.0366 22.7344 29.2461 22.7344 28.271V26.1107C22.7344 25.7637 23.0157 25.4824 23.3626 25.4824H25.6371C25.9841 25.4824 26.2654 25.7637 26.2654 26.1107V28.271C26.2654 29.2461 25.475 30.0366 24.4999 30.0366Z" fill="#CF94FF"/>
<path d="M24.4999 28.9472C23.5248 28.9472 22.7344 28.1567 22.7344 27.1816V28.2715C22.7344 29.2465 23.5248 30.037 24.4999 30.037C25.475 30.037 26.2655 29.2466 26.2655 28.2715V27.1816C26.2654 28.1567 25.475 28.9472 24.4999 28.9472Z" fill="#8A00FA"/>
<path d="M21.3451 14.2362V12.1569C21.8868 11.8804 22.97 11.4545 24.5012 11.4545C26.0325 11.4545 27.1156 11.8805 27.6574 12.1569V14.2363H29.6314V11.5979C29.6314 11.29 29.4877 10.9997 29.2428 10.813C29.194 10.7759 28.7427 10.4401 27.9385 10.1169C26.9026 9.70056 25.714 9.48047 24.5012 9.48047C23.2884 9.48047 22.0998 9.70056 21.0639 10.1169C20.2598 10.44 19.8084 10.7758 19.7596 10.813C19.5148 10.9998 19.3711 11.29 19.3711 11.5979V14.2363L21.3451 14.2362Z" fill="#8A00FA"/>
<path d="M19.3711 13.1465H21.3451V14.2363H19.3711V13.1465Z" fill="#000F8F"/>
<path d="M19.3711 13.1465H21.3451V14.2363H19.3711V13.1465Z" fill="black" fill-opacity="0.2"/>
<path d="M19.3711 13.1465H21.3451V14.2363H19.3711V13.1465Z" fill="black" fill-opacity="0.2"/>
<path d="M19.3711 13.1465H21.3451V14.2363H19.3711V13.1465Z" fill="black" fill-opacity="0.2"/>
<path d="M19.3711 13.1465H21.3451V14.2363H19.3711V13.1465Z" fill="black" fill-opacity="0.2"/>
<path d="M19.3711 13.1465H21.3451V14.2363H19.3711V13.1465Z" fill="black" fill-opacity="0.2"/>
<path d="M27.6562 13.1465H29.6303V14.2363H27.6562V13.1465Z" fill="#000F8F"/>
<path d="M27.6562 13.1465H29.6303V14.2363H27.6562V13.1465Z" fill="black" fill-opacity="0.2"/>
<path d="M27.6562 13.1465H29.6303V14.2363H27.6562V13.1465Z" fill="black" fill-opacity="0.2"/>
<path d="M27.6562 13.1465H29.6303V14.2363H27.6562V13.1465Z" fill="black" fill-opacity="0.2"/>
<path d="M27.6562 13.1465H29.6303V14.2363H27.6562V13.1465Z" fill="black" fill-opacity="0.2"/>
<path d="M27.6562 13.1465H29.6303V14.2363H27.6562V13.1465Z" fill="black" fill-opacity="0.2"/>
<path d="M37.6565 13.7651H30.095V11.5766C30.095 11.129 29.8825 10.6998 29.5265 10.4283C29.4386 10.3612 28.9569 10.0094 28.1136 9.67044C27.7569 9.52712 27.3792 9.40439 26.9907 9.30576C26.7473 9.24382 26.4996 9.39113 26.4377 9.63471C26.3759 9.87823 26.5231 10.1258 26.7667 10.1877C27.116 10.2764 27.455 10.3865 27.7743 10.5148C28.5372 10.8214 28.9573 11.1386 28.9748 11.1519C29.1065 11.2523 29.1851 11.411 29.1851 11.5765V13.7651H28.1172V12.1366C28.1172 11.9656 28.0213 11.8091 27.869 11.7313C27.3175 11.45 26.1466 10.9779 24.4999 10.9779C22.8532 10.9779 21.6823 11.4499 21.1307 11.7313C20.9784 11.8091 20.8826 11.9656 20.8826 12.1366V13.7652H19.8146V11.5766C19.8146 11.4111 19.8932 11.2523 20.0249 11.152C20.0424 11.1386 20.4623 10.8215 21.2254 10.5148C22.2101 10.1191 23.3423 9.90996 24.4999 9.90996C24.6932 9.90996 24.8891 9.91589 25.0822 9.9277C25.3331 9.94302 25.5488 9.75199 25.5641 9.50121C25.5793 9.25042 25.3884 9.03469 25.1376 9.01937C24.9261 9.00654 24.7115 9 24.4999 9C23.2272 9 21.9776 9.23183 20.8861 9.67044C20.0425 10.0095 19.561 10.3613 19.473 10.4284C19.1171 10.6997 18.9047 11.1289 18.9047 11.5765V13.7651H11.3435C10.0513 13.7651 9 14.8164 9 16.1086V22.4766C9 23.1468 9.28257 23.776 9.77851 24.2205V33.8849C9.77851 35.1771 10.8298 36.2284 12.122 36.2284H30.0991C30.3504 36.2284 30.5541 36.0246 30.5541 35.7733C30.5541 35.5221 30.3504 35.3183 30.0991 35.3183H12.122C11.3316 35.3183 10.6885 34.6753 10.6885 33.8848V24.8971C11.3479 25.3335 12.2456 25.8337 13.4218 26.3062C13.6548 26.3998 13.9199 26.2869 14.0136 26.0536C14.1073 25.8205 13.9941 25.5555 13.761 25.4618C12.0946 24.7925 11.0346 24.0738 10.4388 23.5887C10.1027 23.3152 9.91002 22.9098 9.91002 22.4766V16.1086C9.91002 15.3181 10.5531 14.6751 11.3435 14.6751H37.6565C38.447 14.6751 39.09 15.3181 39.09 16.1086V22.4766C39.09 22.9097 38.8973 23.3151 38.5612 23.5886C37.8809 24.1425 36.6574 24.9534 34.6923 25.6713C32.4333 26.4964 29.754 26.9953 26.7238 27.1572V26.1182C26.7238 25.5202 26.2373 25.0337 25.6393 25.0337H23.3603C22.7623 25.0337 22.2758 25.5202 22.2758 26.1182V27.1578C19.826 27.0267 17.594 26.6729 15.6352 26.1046C15.3941 26.0347 15.1415 26.1734 15.0715 26.4147C15.0014 26.6561 15.1403 26.9084 15.3816 26.9785C17.42 27.5699 19.7376 27.936 22.2758 28.0688V28.2827C22.2758 29.509 23.2735 30.5067 24.4998 30.5067C25.7261 30.5067 26.7238 29.509 26.7238 28.2827V28.0689C32.8764 27.7485 36.4375 26.145 38.3115 24.8989V33.8849C38.3115 34.6753 37.6684 35.3184 36.878 35.3184H31.919C31.6677 35.3184 31.464 35.5221 31.464 35.7734C31.464 36.0247 31.6677 36.2284 31.919 36.2284H36.878C38.1702 36.2284 39.2214 35.1771 39.2214 33.8849V24.2205C39.7174 23.776 39.9999 23.1468 39.9999 22.4766V16.1086C40 14.8164 38.9487 13.7651 37.6565 13.7651ZM21.7925 12.4242C22.3351 12.1851 23.2593 11.8878 24.4998 11.8878C25.7403 11.8878 26.6645 12.1851 27.2071 12.4242V13.7651H21.7925V12.4242H21.7925ZM25.8138 28.2828C25.8138 29.0074 25.2244 29.5968 24.4998 29.5968C23.7753 29.5968 23.1858 29.0074 23.1858 28.2828V26.1182C23.1858 26.022 23.2641 25.9437 23.3603 25.9437H25.6393C25.7355 25.9437 25.8138 26.022 25.8138 26.1182V28.2828Z" fill="#484848"/>
</svg>
