<svg width="47" height="47" viewBox="0 0 47 47" fill="none" xmlns="http://www.w3.org/2000/svg">
<circle cx="23.5" cy="23.5" r="23.5" fill="#E6F9FF"/>
<path d="M23.7325 40.0953C32.2638 40.0953 39.1798 32.9759 39.1798 24.1937C39.1798 15.4114 32.2638 8.29199 23.7325 8.29199C15.2012 8.29199 8.28516 15.4114 8.28516 24.1937C8.28516 32.9759 15.2012 40.0953 23.7325 40.0953Z" fill="#FFE093"/>
<path d="M23.7325 37.0384C15.6972 37.0384 9.10116 30.7267 8.35316 22.665C8.30782 23.1667 8.28516 23.68 8.28516 24.1934C8.28516 32.9784 15.1985 40.095 23.7325 40.095C32.2665 40.095 39.1798 32.9784 39.1798 24.1934C39.1798 23.68 39.1572 23.1667 39.1118 22.665C38.3638 30.7267 31.7678 37.0384 23.7325 37.0384Z" fill="#FFCA6B"/>
<path d="M11.8549 28.2419C12.5622 28.2419 13.1356 28.033 13.1356 27.7753C13.1356 27.5175 12.5622 27.3086 11.8549 27.3086C11.1476 27.3086 10.5742 27.5175 10.5742 27.7753C10.5742 28.033 11.1476 28.2419 11.8549 28.2419Z" fill="#F97AA4"/>
<path d="M35.5971 28.2419C36.3044 28.2419 36.8777 28.033 36.8777 27.7753C36.8777 27.5175 36.3044 27.3086 35.5971 27.3086C34.8898 27.3086 34.3164 27.5175 34.3164 27.7753C34.3164 28.033 34.8898 28.2419 35.5971 28.2419Z" fill="#F97AA4"/>
<path d="M14.0276 12.188C14.1523 12.083 14.2883 11.978 14.413 11.873C14.5376 11.7797 14.5603 11.593 14.4583 11.4647C14.3676 11.3364 14.1863 11.313 14.0503 11.4064C13.9143 11.5114 13.7896 11.6164 13.6536 11.733C13.529 11.838 13.5176 12.0247 13.6196 12.153C13.733 12.2697 13.9143 12.293 14.0276 12.188Z" fill="black"/>
<path d="M23.7307 8C20.8067 8 17.962 8.82833 15.4913 10.4033C15.3553 10.485 15.3213 10.6717 15.4007 10.8117C15.48 10.9517 15.6613 10.9867 15.786 10.905C18.166 9.38833 20.9087 8.595 23.7307 8.595C32.1287 8.595 38.9627 15.665 38.8947 24.3333C38.8267 32.8267 32.0947 39.7567 23.844 39.8267C15.4347 39.8733 8.56667 32.8383 8.56667 24.1933C8.56667 20.5417 9.81333 17.0067 12.0687 14.2067C12.1707 14.0783 12.1593 13.9033 12.0347 13.7983C11.91 13.6933 11.7287 13.705 11.638 13.8333C9.28067 16.7383 8 20.4017 8 24.1933C8 33.165 15.1287 40.4567 23.8553 40.3867C32.412 40.3167 39.4047 33.13 39.4613 24.3217C39.5293 15.3267 32.446 8 23.7307 8Z" fill="black"/>
<path d="M12.9286 22.1629L19.8872 24.7646L13.4386 25.6979C13.2799 25.7212 13.1779 25.8729 13.2006 26.0246C13.2232 26.1879 13.3706 26.2929 13.5179 26.2696L21.0999 25.1729C21.3946 25.1262 21.4399 24.7179 21.1566 24.6129L13.1326 21.6029C12.9852 21.5446 12.8266 21.6262 12.7699 21.7779C12.7132 21.9412 12.7812 22.1046 12.9286 22.1629Z" fill="black"/>
<path d="M34.7011 21.7896C34.6444 21.638 34.4858 21.5563 34.3384 21.6146L26.3144 24.6246C26.0424 24.7296 26.0764 25.1496 26.3711 25.1846L33.9531 26.2813C34.1118 26.3046 34.2478 26.188 34.2704 26.0363C34.2931 25.873 34.1798 25.733 34.0324 25.7096L27.5838 24.7763L34.5424 22.1746C34.6784 22.1046 34.7464 21.9413 34.7011 21.7896Z" fill="black"/>
<path d="M23.924 27.402C23.8106 27.2853 23.6406 27.2853 23.5273 27.402C22.6886 28.2653 21.5213 28.5686 20.7166 28.5686C20.0253 28.5686 19.6286 28.312 19.504 28.0903C19.47 28.0203 19.4473 27.962 19.4473 27.892C19.4586 27.787 19.3906 27.682 19.2886 27.6353C19.1186 27.542 18.892 27.647 18.8806 27.857C18.8693 28.0436 18.9146 28.2303 19.0053 28.3936C19.2773 28.872 19.912 29.152 20.7053 29.152C21.5666 29.152 22.7793 28.8486 23.72 28.0086C24.6606 28.8486 25.8733 29.152 26.7346 29.152C27.528 29.152 28.1626 28.872 28.4346 28.3936C28.5366 28.2186 28.5706 28.032 28.5593 27.857C28.548 27.6586 28.3213 27.542 28.1513 27.6353C28.0606 27.6936 27.9926 27.787 27.9926 27.892C27.9926 27.962 27.9813 28.0203 27.936 28.0903C27.8113 28.312 27.4146 28.5686 26.7233 28.5686C25.93 28.5686 24.774 28.2653 23.924 27.402Z" fill="black"/>
<path d="M19.1845 21.0201C19.0145 20.9968 18.8672 21.1368 18.8672 21.3118C18.8672 21.4635 18.9805 21.5801 19.1279 21.6035C20.0685 21.7085 20.7599 22.3968 21.0545 22.7468C21.1452 22.8635 21.3039 22.8751 21.4285 22.7935C21.5645 22.7001 21.5985 22.4901 21.4852 22.3618C21.1452 21.9418 20.3292 21.1485 19.1845 21.0201Z" fill="black"/>
<path d="M28.2751 21.0201C27.1305 21.1485 26.3258 21.9418 25.9745 22.3618C25.8611 22.4901 25.8951 22.6885 26.0311 22.7935C26.1445 22.8751 26.3145 22.8518 26.4051 22.7468C26.6998 22.3968 27.3911 21.7085 28.3318 21.6035C28.4791 21.5918 28.5925 21.4635 28.5925 21.3118C28.5925 21.1368 28.4338 20.9968 28.2751 21.0201Z" fill="black"/>
</svg>
